<svg viewBox="0 0 304 677" version="1.1" xmlns="http://www.w3.org/2000/svg" xmlns:xlink="http://www.w3.org/1999/xlink"><g id="Introduction" stroke="none" stroke-width="1" fill="none" fill-rule="evenodd"><g id="variations-standing" transform="translate(-661, -1712)"><g id="a-person/standing" transform="translate(621, 1658)"><g id="pose/standing/resting-2" transform="translate(-28.7, 150.3)"><path d="M124.9,125.5 L124.6,129.5 L124.3,129 C124.3,137.1 123.1,145.3 121.8,153.3 C118.3,150.5 115.5,148 116.3,143.1 C118.4,136.3 121,129.5 123.2,122.7 L123.6,124.5 L125,124.7 L124.9,125.5 Z M371.6,550.7 C371,547.9 370.3,545 369.6,542.1 C369.6,541.9 369,541.9 368.8,541.8 C365.3,533.4 362.3,531.5 355.7,530.3 C344.9,528.4 334.3,524.2 324.2,518 C324.4,517 325.1,515.4 325.7,513.7 C325.6,513.7 325.5,513.8 325.4,513.8 C325.3,513.8 325.2,513.8 325,513.8 C324.3,515.4 323.6,516.8 323.2,517.4 C321.9,516.5 320.5,515.6 319.3,514.8 L319.3,514.8 C318.2,514 316.8,513.1 315.7,512.5 C315.5,511.3 313.9,511 313,510.3 C311.4,509.1 310.4,508.5 308.9,510 C305.6,505.7 303,501.2 300.4,495.4 C298.7,491.9 297.9,488.2 295.7,485.1 C295.8,485.1 297.2,484.7 297.2,484.6 C272.3,429.5 268.3,368.2 263,309.2 C261.8,296.1 260.6,282.8 258.3,270 C258,268 257.7,266.1 256.5,264.6 C270.5,253.1 270.7,230.7 263.9,214.2 C279.5,172.1 248.9,127.5 251.2,84.6 C252.4,55.6 247.2,21.9 214.3,14.9 C210.2,12.5 205.3,12.2 201.4,12.1 C197.9,10.4 197.3,6.5 196.1,3.2 L194.9,3.2 C194.5,1.8 194.2,0.2 193.9,-1.3 C193.4,-2.2 193.7,-3.4 192.2,-3.1 C188.9,-7.9 162.5,-10.3 162.2,-2.6 C161.2,-2.1 161,-1 160.8,0.4 C159.3,9.8 149.2,17.3 140.1,15.8 L140,15.7 C101.2,14.3 85.9,41.8 78.4,79.3 C72.4,108.4 68.7,140 73.3,169.2 C77.8,182.5 91.6,188.8 102.2,197 C101,200 100.8,203.4 100.8,206.8 C100.7,210.6 100.4,214.5 100,218.3 C99.3,223.1 98.2,231.4 104.8,231.9 C107.3,289.3 112.6,346.6 104.5,404.2 C97.8,436.1 100.4,474.6 108.7,505.8 C109.1,507.3 110.4,508.7 112,508.2 C112.8,508.7 113.4,509.1 114,508.6 C114.4,509.3 114.9,510 115.3,510.7 C115.5,519.2 116.5,527.6 116,536.2 C115.4,536.2 113.9,535.4 113.3,535.9 L113.3,536.6 L112.7,536.8 C111.6,539.9 110.9,543.2 110.4,545.9 C108.1,550.5 105.2,558.7 106.8,563.8 C106.7,563.9 106.3,564.4 106.2,564.5 C105.8,564.7 105.8,565 105.7,565.3 C104.6,565.7 104.5,567 104.3,568.3 C103.8,571.4 104.6,574.2 104.9,577.3 L104.9,577.3 C104.9,577.3 105.8,578.3 105.8,578.3 C117.5,579 129,579.2 140.6,579.6 C141.4,578 141.7,575.7 142.4,573.9 C156.1,583.9 179.9,580.1 197.2,577.6 C204.2,576.6 210.9,575.6 216.7,575.3 C217.1,575.3 217.2,575.1 217.2,575 C217.2,572.7 217.7,570.3 217.4,568.1 C218.6,566.9 218.1,564.7 217.3,562.9 C214.2,556.2 205.9,555.5 199.1,554.4 C186.4,551.9 176.2,547.3 167.9,540.2 C168.5,539.7 169,539.2 169.4,538.7 C169.3,538.6 169.1,538.5 168.9,538.4 C168.5,538.2 168.1,538 167.7,537.7 C167.5,537.9 167.2,537.9 167,537.7 C166.2,537.3 165.5,536.6 164.7,536.1 C164.5,536.3 164.4,536.5 164.2,536.8 C163.5,536 162.6,535.1 161.9,534.2 C161.8,534 161.9,533.4 161.6,533.4 C159.5,533.6 157,534.3 154.8,535.1 C152.3,526.8 150.8,517.9 151,509.5 C153.5,509.5 155.6,509.4 157.5,508.3 C158,508.4 158.7,508.7 158.8,507.9 C159.6,504.7 159.8,501.3 160,498 C163.8,435.4 169.6,385.1 189,332.2 C190.8,339.5 193.9,347.2 196.8,354.5 C209.7,385.1 219,418.1 227,450.2 C230.1,462.3 233.5,475.5 236.9,487.4 C238.2,493.1 240.9,495.2 246.4,495.1 C250.7,495.3 255,495.3 259.3,495 C265.2,500.3 267.6,507.5 269.3,514 C267.9,515.1 265.6,514.7 264,515 C262.5,517.4 263,520.6 263,523.5 C263.3,527.2 263.1,531.2 264.2,534.7 C264.4,538.5 264.4,542.7 264.7,547.2 C261.5,549 262.1,553.1 263.1,557 C263.6,558 280.7,557.8 284.9,557.7 C289.9,557.4 297,558.7 298.7,553.2 C310.5,559.8 328.6,557.6 342.4,555.7 C352.5,554.4 361.6,553.3 371.4,551.2 C371.5,551.2 371.7,550.9 371.6,550.7 L371.6,550.7 Z" id="🎨-Background" fill="#FFFFFF"></path><path d="M161.6,-4.7 C162.3,-4.8 163,-4.6 163.4,-4.2 C163.5,-3.2 163.5,-2.1 163.4,-1.1 C163.4,-1 163.3,-1 163.2,-0.9 L163.2,-0.9 C163.3,-1 163.4,-1 163.4,-1 C162.4,5.7 157.7,11.4 151.6,14.5 C151.3,15.1 150.4,15 149.8,15.3 L148.9,15.6 C146.6,16.3 144.2,17 141.7,17.1 C148,34.9 172.9,44.6 190.4,45.9 C205.6,46.7 214,34.1 210,20 C201.3,18.9 192.6,9.6 195.8,0.5 L195.9,0.3 C195.9,0.2 196,0.2 196,0.3 C196.1,1.2 196.7,2.2 196.9,3.1 L197.1,3.4 C197.9,5.9 198.6,8.8 201,10.1 L201.4,10.1 C205.7,10.2 210.2,10.7 214,12.9 C218.2,13.7 222.3,15.4 226,17.4 C255.7,33.5 250.9,67.7 251.8,96.1 C254.7,135.1 278.5,174.1 264.5,213.2 C270.9,229.6 271.4,251.5 257.4,263.9 C257.5,264.1 257.7,264.4 257.8,264.7 C258.5,266.3 258.7,268.2 259,270 L259,270.2 C259.8,274.3 260.3,278.4 260.8,282.6 C261.9,290.7 262.7,298.9 263.4,307.1 L263.5,308.2 C265.3,328.8 266.9,349.4 269.3,369.9 L269.7,373 C272.9,394.9 276.5,416.9 281.8,438.5 C281.9,439 282.1,439.6 282.2,440.2 C284.1,447.1 286.4,453.9 288.5,460.7 C289.2,462.9 289.9,465 290.7,467.1 L291.7,469.5 C291.8,469.9 292,470.3 292.1,470.7 C293.9,475 295.7,479.1 297.6,483.3 C298,484 297.5,484.7 296.9,484.9 C298.6,487.7 299.3,491 300.8,494 C302.9,498.7 305.4,503.3 308.5,507.4 C310.2,506.1 312.1,507.8 313.6,508.8 C314.5,509.3 315.7,509.8 316,510.8 C316.7,511.2 317.4,511.6 318,512 L318.1,511.8 C318.9,509.4 320.4,506 322.9,504.9 C325.8,503.7 328.1,506.1 327.2,509 C326.7,511.6 325.8,514.1 325,516.6 C333.8,521.9 343.5,526 353.7,528 L354.1,528.1 C356.5,528.5 359.1,528.9 361.3,530.1 C365.1,532.1 367.5,536 369,539.9 C369.5,540 370,540.5 370.1,541 L371.1,545.3 C371.4,546.7 371.8,548.2 372.1,549.6 C372.3,550.4 371.8,551.3 371,551.5 C365.1,552.7 359.1,553.7 353.1,554.6 C336.2,556.2 314.3,561.7 298.6,553.9 C296,559.1 289,557.6 284.3,558 C281.4,557.8 261.1,558.9 261.3,556.5 L261.2,556 C260.3,552.6 259.5,548 262.8,545.7 C262.6,541.8 262.4,538 262.4,534.1 C261.2,530.5 261.4,526.4 261.2,522.6 C261.2,519.7 260.5,516.5 262.1,513.9 C262.2,512.2 266,513.1 267.2,512.5 L267.1,512.1 C265.4,505.9 263,499.9 258.2,495.3 C254,495.6 249.9,495.6 245.7,495.4 C239.3,495.5 236.4,492.7 235.1,486.7 C234.1,483.2 233.1,479.7 232.2,476.2 C224.7,448.6 218,420.8 209.8,393.4 C206.6,384.2 203.2,375.1 199.7,366.1 C197.3,359.9 194.9,353.8 192.5,347.7 C191.3,344.5 190.1,341.3 189.1,338.1 C188.7,337.1 188.4,336.2 188.2,335.2 C169.7,386.2 163.9,440.5 160.6,494.4 C160.3,498.7 160.3,503.1 159.3,507.3 C159,508.6 157.9,508.9 156.9,508.7 C155.2,509.6 153.8,509.7 151.5,509.7 L151.6,510.5 C151.7,515.8 152,521.1 153.2,526.2 C153.7,528.4 154.5,530.5 155,532.6 C156.9,532 158.8,531.5 160.8,531.3 C161.8,531.2 162.3,532 162.4,532.9 C162.7,533.3 163.1,533.7 163.5,534.1 L163.7,533.8 C165.4,531.5 167.7,528.4 170.8,528.2 C172.2,528.1 173.4,528.9 173.7,530.3 C174,533.5 171.3,537.1 169,539.3 C177.5,546.2 188,550.3 198.7,552.3 L199.1,552.4 C205.9,553.5 214.4,554.4 217.7,561.5 L217.7,561.6 C218.5,563.4 219.2,566 218,567.6 C218.1,569.7 217.7,571.9 217.7,574.1 C217.6,575 217,575.5 216.2,575.6 C194.3,576.8 161.1,587 142.4,574.8 C142,576.2 141.6,577.5 141.2,578.9 C141.1,579.5 140.5,580 139.9,579.9 C128.3,579.5 116.7,579.3 105.1,578.6 C104.8,578.6 104.5,578.5 104.3,578.2 C104,578.5 103.3,578.5 103.2,578 C103,577.2 103,576.3 103,575.5 C102.9,574.5 102.6,573.6 102.5,572.7 C102.2,570.9 102.3,569 102.5,567.3 L102.5,566.8 C102.7,565.7 102.9,564.3 103.9,563.7 L104,563.6 C104,563.6 104,563.6 104,563.6 C104.1,563.3 104.4,562.9 104.8,562.7 L104.8,562.7 C104.2,561.3 104.4,559.7 104.6,558.3 C105,553.6 106.4,548.9 108.6,544.6 C109.2,541.4 110,538.1 111.1,535.1 C111.1,534.9 111.2,534.8 111.4,534.9 C111.4,534.8 111.5,534.8 111.5,534.8 C111.5,534.8 111.5,534.7 111.5,534.7 C111.7,534.1 112.3,533.8 112.9,533.7 C113.4,533.6 113.8,533.7 114.2,533.8 C114.5,525.5 113.5,517.3 113.4,509 C112.7,509.4 111.8,509 111,508.6 C108.9,508.9 107.4,507.1 106.8,505.2 L106.5,503.7 C103.5,489.9 100.7,475.9 99.2,461.9 C97.2,442.2 99.7,422.6 102.7,403.2 C110.8,352 104.9,300.4 104.3,249 C103.8,243.4 103.6,237.7 103,232.1 C100.7,231.8 99,229.7 98.2,227.6 C97,224.4 97.9,220.6 98.2,217.3 C98.5,213.6 98.8,209.9 98.9,206.2 L99,205.1 C99,202.2 99.1,199.3 100.1,196.5 C89.8,188.6 76.2,182.4 71.9,169.2 C69.9,167.4 70.3,159.2 70,156.2 C68.6,130 70.9,103.7 76.5,78.2 C83.6,43.3 98.1,12.1 138.9,13.6 C138.8,13.6 138.8,13.6 138.8,13.5 C139.2,13.4 139.6,13.5 140,13.8 C146.9,14.7 153.5,10.6 157,4.7 C157.8,3.3 158.5,1.7 158.8,0.1 L158.8,-0.1 C159.2,-1.9 159.3,-4.2 161.6,-4.7 Z M109,564.1 C108,564.7 106.9,564.7 106,565.5 C105.4,568.9 105.4,572.5 106.2,576 C117,576.1 127.9,576.6 138.7,577 C139.2,575.3 139.6,573.7 140,572 L140.1,571.9 L140.1,571.9 C141.2,571.9 142.3,572 143.5,572 C160.1,583.9 194.6,573.8 214.8,572.8 L215,569.4 C214.8,569.6 214.6,569.7 214.4,569.7 C214.5,569.2 214.2,568.6 213.6,568.7 C212.5,569 211.4,569.3 210.3,569.6 C210.2,569.5 210.2,569.5 210,569.5 C200.6,570.3 191.1,570.3 181.7,570.3 C172.2,570.3 162.8,570.7 153.4,570.7 C149.5,570.7 145.7,570.6 141.8,570.5 C130.7,568.5 119.7,566 109,564.1 Z M367.6,543.8 C367.1,544.1 366.5,544.1 365.9,544.2 L365.8,544.2 C365.2,544.3 364.6,544.4 364,544.4 C362.5,545.4 359.6,545.3 358.1,545.5 C326.9,548.6 295.5,545 264.3,547.5 C262.8,549.6 263.1,552.2 263.9,554.6 C272.7,554.9 281.4,555.1 290.1,554.7 L290.8,554.7 C291.9,554.6 293,554.6 294,554.2 C294.9,553.8 296,552.9 295.8,551.8 L295.8,551.8 C295.6,550.5 296.9,549.1 298.2,549.9 C310.1,557.8 326.3,553.9 339.8,553.1 C349.5,552.1 359.1,550.6 368.7,548.8 C368.3,547.1 368,545.4 367.6,543.8 Z M149.6,508.7 C148.6,508.9 147.6,509 146.6,509.1 C142.5,509.4 138.5,509.6 134.4,509.7 L132.6,509.8 C128.8,509.9 125,510 121.3,509.8 C119.4,509.6 117.4,509.4 115.6,508.9 C117.2,517.4 118,526 118,534.6 C118.5,535 118.4,535.8 118.3,536.3 L118.4,536.7 C118.7,537.6 119,538.4 119.1,539.3 C130.7,546.3 140.4,539.2 151.1,534.2 C149.3,529.7 148.8,524.7 148.5,519.8 C148.3,516.1 148.6,512.4 149.6,508.7 Z M170.8,531.1 C170.3,531.1 169.8,531.4 169.4,531.7 C167.8,532.9 166.4,534.2 165.1,535.7 C165.6,536.2 166.1,536.7 166.6,537.2 C168.5,535.6 170,533.5 170.8,531.1 Z M294.7,487.1 L293.1,487.6 C283.4,490.9 273.4,494 263.1,494.9 C263.6,495.4 264.1,496.1 264.5,496.8 C264.9,497.1 265.2,497.5 265.1,497.9 C265.5,498.6 265.8,499.3 266,499.9 C267.7,503.8 269.6,507.6 270.9,511.6 C271.4,513.3 272.9,515.6 272.2,517.3 C283.2,522 296.9,519.9 305.3,511.2 L305,510.7 C300.2,503.6 295.9,495.7 294.7,487.1 Z M324.6,507.3 C323.9,506.7 322.7,508.3 322.4,508.7 C321.3,510.2 320.6,511.8 320,513.4 C320.7,513.9 321.4,514.4 322.2,514.8 L322.2,514.8 C322.9,513.6 325.3,508 324.6,507.3 Z M115.2,507.2 L115.2,507.2 C115.8,507.3 116.4,507.4 117,507.5 C118.5,507.6 119.9,507.7 121.4,507.7 C119.3,507.4 117.3,507.2 115.2,507.2 Z M130.9,229 L130.4,229 L129.8,228.9 C121.7,227.9 113.7,226.6 105.6,227.9 C106.7,233 106.8,238.4 107.2,243.7 C108.9,294.6 115.1,345.8 108.1,396.6 L107.9,398.1 C105.4,416.2 102.4,434.3 103.6,452.6 C104.5,469.3 107.9,485.7 111.3,502 C112.1,502.2 112.9,502.4 113.8,502.6 C113.8,502.4 113.9,502.5 113.9,502.6 C124,505.3 134.4,505.5 144.7,504.9 C146.6,504.8 148.5,504.6 150.5,504.5 C152,503.8 153.6,503.4 155.2,503.1 C158.6,451.3 163.1,398.9 179.1,349.3 C189.4,317.7 202.1,287 209.7,254.7 C209.9,253.8 211.3,254.1 211.1,255.1 L210.9,256.3 C208.9,266.4 207.2,276.6 204.2,286.5 C206.5,284 209.1,281.9 211.2,279.3 C211.9,278.5 212.5,277.6 213,276.7 C213.5,275.6 214.3,274.7 215.6,274.4 C216.1,274.2 216.7,274.7 216.9,275.2 C217.4,276.5 217.2,277.4 216.4,278.6 L216.2,278.9 C212.8,283.8 207.5,286.7 203,290.6 C199.3,303 195.1,315.2 190.9,327.4 C190.8,329.8 191.3,332.2 192,334.5 C192.8,336.9 193.5,339.4 194.7,341.7 C212.1,377.8 220.8,417.2 231.3,455.6 C234.1,465.9 236.9,476.1 239.9,486.3 L240,486.5 C240.7,489.4 241.7,490.5 244.9,490.5 C260.7,491.2 276.9,488.7 291.3,482.3 C283.4,461.2 277.9,439.4 273.6,417.2 C271.4,406.8 269.7,396.2 268.2,385.6 C266.1,372.1 264.3,358.5 262.5,345 C258.7,318.6 258.9,291.7 254.1,265.4 C252.5,265.5 251.1,263.6 252.1,262.1 C251.7,260.7 252.1,259.1 252.6,257.8 L252.5,257.5 C246.9,262.5 239.6,263.1 243.3,253.5 L243.6,252.9 C246.4,245.9 250,238.4 248.4,230.7 C232.2,239.4 212.3,238 194.8,234.2 C196.2,239.1 192.5,242.1 188.4,238.8 C187.6,238.2 186.9,237.6 186.2,237 C187.2,241.1 186.7,245.5 185.7,249.6 L185.6,250.1 C185.1,252.6 184.6,255.8 182.7,257.6 C181.3,258.8 179.3,258.3 178.6,256.5 C178.3,250.6 176.7,244.8 173.6,239.7 C174.1,243.4 174,247.3 173.1,250.9 C172.7,252.2 172.2,253.6 172.1,255.1 L172.1,255.3 C172.3,257.8 172,260.1 168.9,260.1 C161.5,258.8 166.1,241.3 161.4,235.8 C160,242.5 161.7,251.3 155.1,255.7 C153.3,256.8 151.1,256.2 150.8,254 L150.9,252.3 C151.7,241.8 151.5,238.7 144.8,228.9 C140.3,230 135.5,229.5 130.9,229 Z M262.9,497.8 C262.9,497.8 262.9,497.8 262.9,497.9 C263,498 263.1,498 263.1,498.1 L263.2,498.2 L263.1,497.9 C263,497.9 263,497.8 262.9,497.8 Z M256.8,264.4 L256.5,264.7 C256.4,264.7 256.4,264.8 256.3,264.8 C256.6,266 256.8,267.2 257.1,268.5 L257,267.7 C257,266.9 257.1,265.4 256.8,264.4 Z M251.8,157.3 C249.5,146.6 247.2,142.1 250.1,157.5 L250.5,159.1 C251.7,165.7 253,173.3 254.3,181.4 L254.6,183.1 C255.8,191.5 257.9,203.8 258,213.6 C258.2,224.8 252.5,228.1 250.3,229.6 C249.9,230.8 250.4,231.8 250.7,233 C251.2,234.9 251.3,236.7 251.2,238.7 C250.7,245.3 247.2,251.3 245.6,257.6 C247.6,257.1 249.9,255.2 251.8,253.7 C255,251.2 257.2,247.4 258.2,243.4 C258.6,241.5 258.3,239.2 259.6,237.6 C260,237.1 260.8,237.2 261.2,237.6 C262.2,238.7 262.1,240.1 262,241.5 C261.4,246.4 259.3,251.2 255.8,254.7 C255.6,256.5 255.1,258.1 254.7,259.8 C254.9,260.2 255,260.6 255.1,261 C257.5,259 259.4,256.5 261,253.8 C267.7,241.9 265.4,228.2 263.6,215.3 C263.3,216.2 262.5,216.5 261.7,216.4 C261.2,217.5 260.1,216.8 260,215.4 C259.7,206.3 258.5,193.5 256.3,180.3 C255,172.5 253.4,164.6 251.8,157.3 Z M166.2,198.3 C162.8,208.7 149.6,210.7 141.8,217.1 C145.7,227.3 156.6,238.3 153.4,251.5 L153.4,251.6 C153.3,252.1 153,253.5 153.3,253.8 C153.5,254 154.9,252.7 155.1,252.4 C159.8,246.9 157,239.1 159.7,232.7 C160,231.9 161.1,231.4 161.8,232.2 C165.1,235.6 165.9,240.3 166.4,244.9 L166.4,245 C166.8,248.6 166.6,252.2 167.6,255.7 L167.7,255.8 C167.9,256.5 168.3,257.4 168.8,257.6 C170.1,258.1 169.6,256 169.6,255.2 C169.8,252.8 170.8,250.6 171.1,248.3 C171.9,243.3 171.1,238.1 169.5,233.4 C168.9,231.9 171,231.3 171.8,232.4 C175.1,236.7 177.8,241.6 179.5,246.7 C180.2,248.8 180.6,250.9 181.1,253.1 C184,244.2 183.9,234.8 177.3,227.5 C175.7,225.7 178.3,222.9 180,224.8 C181.8,226.9 183.5,229 185.4,231 C187.3,232.9 189.1,235.2 191.4,236.5 C191.1,228 181.9,224.2 177,218.4 C172.1,212.5 169.3,205.2 166.2,198.3 Z M122.2,126.4 C120.5,131.8 118.4,137.1 116.8,142.6 C116.4,146.3 117.6,147.8 120.3,150.2 C121.5,143.5 122,136.7 122.6,129.9 C122.5,128.7 122.5,127.6 122.2,126.4 Z M123.1,123.8 L122.9,124.3 L123,124.4 L123.1,124.5 L123.1,123.8 Z M231.7,56.1 L232.4,60.6 C234.9,77 237.4,93.4 241,109.6 C241.2,110.5 242.3,109.3 242.1,107.6 C239.9,89.8 231.7,55.9 231.7,56.1 L231.7,56.1 Z M210.7,20.1 C210.8,20.3 211,20.5 211.1,20.7 C211.1,20.5 211.1,20.4 211,20.2 C210.9,20.2 210.8,20.1 210.7,20.1 Z" id="🖍-Ink" fill="currentColor"></path></g><g id="Head" stroke-width="1" transform="translate(95.9, 42.7)"><g id="head/Medium-Bangs"><path d="M70.7,34.4 C43.3,33.4 17.2,51.7 8.4,77.7 C7.8,79.7 9.8,81.6 11.8,81.2 C9.7,91.6 14.2,105.4 25.9,106.9 C28.3,107.2 30.7,107 33.1,107.2 C35.2,107.4 46.9,114 51.2,115.5 C60.4,118.7 83.4,118.1 92.6,115.5 C93,116.3 100.1,87.1 101.7,78 C102.3,74.1 96.9,71.2 97.3,67.2 C97.8,62 103.9,55.7 102,50.7 C97.1,38.2 82.9,34.7 70.7,34.4 Z" id="🎨-Background" fill="#FFFFFF"></path><path d="M57.1,11.6 C58.3,11.7 59.6,11.8 60.8,12.1 C64.5,11.5 68.3,12.1 71.9,13.3 C80.2,16 88.3,20.7 94.6,26.9 C97.9,30 100.5,33.7 102.2,37.9 C103,40.1 103.5,42.4 103.6,44.7 L103.6,45 C103.6,45.7 103.7,46.6 103.6,47.5 C103.9,49.4 104.1,51.2 104.1,53.1 C104.1,53.9 104.1,54.8 104,55.6 L104,55.7 L104,55.7 C103.9,56.7 103.7,57.7 103.5,58.7 L103.4,58.8 C103.4,59 103.4,59.2 103.3,59.4 C103.2,59.9 103.1,60.5 103,61 C102.7,62.1 102.4,63.2 102.1,64.3 C102,64.5 102.1,64.6 102.2,64.7 C102,65.6 101.7,66.4 101.4,67.2 C101.6,67.9 101.7,68.7 101.9,69.4 C102.6,73.1 103.3,76.9 104.2,80.6 C106,88.1 108.7,95.5 109.4,103.2 C110,109.2 109.1,115.7 105.3,120.6 C102.1,124.9 97.3,127.4 92,128 C89.5,128.3 87,128.2 84.5,127.6 L84.3,127.5 C83,127.2 81.5,126.6 80.3,125.8 C79.1,125.4 77.9,124.6 77.2,123.8 C76.3,122.7 75.2,120.9 75.5,119.4 C74.1,119.5 72.6,119.5 71.2,119.5 C67.7,119.5 64.2,119.2 60.9,118.2 C57.9,117.3 54.4,115.8 52.6,113.1 C52.5,113 52.7,112.8 52.8,112.9 C54.3,113.4 55.6,114 57.1,114.4 C58.5,114.8 60,115.1 61.5,115.3 C64.4,115.6 67.3,115.6 70.3,115.4 L71.3,115.4 C74.4,115.2 77.7,114.9 80.6,113.8 C81.7,113.3 82.8,112.7 83.8,111.9 L83.9,111.8 C84.4,111.4 85,111 85.5,110.7 C85.6,110.6 85.7,110.5 85.8,110.4 C87,108.8 88.3,107.3 89.5,105.6 C91.7,102.2 92.5,98.8 92.7,94.8 C92.8,90.6 92.8,86.4 92.8,82.2 L92.9,80.8 C92.9,76 92.9,71.2 93.3,66.4 C93.5,64.2 93.7,61.9 94.1,59.7 L94.2,59.3 L94.8,55.9 C94.9,55.1 95,54.2 95.2,53.4 C95,53.1 94.7,52.7 94.5,52.4 C94.2,52.1 93.9,51.9 93.7,51.6 L93.5,51.4 C93.1,51 92.7,50.7 92.3,50.1 L92.3,50 L92.3,50 C91.9,49.6 91.5,49.1 91.2,48.6 L91.2,48.5 L91.2,48.5 C91.1,48.4 91,48.3 90.9,48.2 C90.7,47.9 90.4,47.6 90.2,47.3 C89.2,49.2 87.9,50.7 86,51.7 C85.3,52.1 84.5,51.8 84.2,51 C83.7,49.1 82.8,47.3 81.7,45.7 C79.8,48.9 76.8,51.3 73.2,52.5 C72.3,52.8 71.5,51.9 71.7,51.1 C72.4,48.5 72.5,45.9 72.1,43.4 C70.8,44.3 69.4,45.2 68,46.1 C64.8,48.5 61.5,50.7 57.8,52.3 C57,52.6 55.7,52 56.1,50.9 C56.4,50 56.7,49.1 56.8,48.1 L56.9,47.9 C56.9,47.9 56.9,47.9 56.9,47.9 C48.3,59.6 27.7,70.9 26.1,71 L26,71 L26,71 C27,72 27.8,73.1 28.3,74.5 C28.9,75.9 26.7,76.5 26.1,75.2 L26.1,75.1 C25.2,72.8 23,71.2 20.6,70.8 C19.1,71.1 17.7,71.8 16.8,72.8 C15,74.9 14.9,77.4 16.2,79.8 L16.4,80.1 C17.1,81.4 17.8,82.7 18.2,84.1 C18.6,85.8 18.3,87.5 18.6,89.2 L18.6,89.3 C18.7,90.1 19.1,90.9 20,90.7 C20,90.7 20.1,90.7 20.2,90.6 C20.4,90.8 20.6,90.9 20.9,91 C21.6,91.2 22.3,91.1 23,90.9 C23.7,90.8 24.4,90.5 25,90.2 C25.1,90.4 25.1,90.6 25.1,90.8 C25.1,91.7 24.8,92.4 24.2,93 C25.1,94.1 25.9,95.3 26.7,96.5 C28,98.2 29.3,99.8 30.6,101.4 C32,103 33.5,104.5 35.1,106 C36.2,107 38.1,108.1 38.8,109.6 C39.6,109.9 40.3,110.5 40.5,111.5 C41,113.3 41.1,117.6 40.7,119.5 C40.4,121.3 39,122.5 37.6,123.4 C37.1,123.7 36.7,123.7 36.3,123.5 C36,123.8 35.6,124.1 35.1,124.4 C33.6,125.3 31.7,125.7 29.9,125.9 C27.4,126.7 24.7,126.9 22.1,126.4 C21.2,126.5 20.3,126.6 19.5,126.7 C10.6,127.5 1.6,126.8 -7.1,124.7 C-11,123.7 -14.8,122 -18.3,119.7 C-24.3,115.8 -26.8,104.9 -23.4,94.5 L-23.1,93.6 C-21.5,89 -19.8,84.3 -17.5,80 L-17.3,79.5 C-15.2,75.5 -12.9,71.5 -9.8,68.2 C-8.3,66.6 -6.5,65 -4.5,64 C-3.7,63.6 -2.9,63.3 -2,63 L-2,62.8 L-2,62.8 L-1.9,62.6 C-1.9,61.9 -1.8,61.2 -1.7,60.5 C-1.4,57.9 -0.9,55.3 -0.2,52.8 C0.5,50.3 1.4,47.8 2.4,45.4 C4.2,41.4 6.4,37.6 8.9,34 C9.1,33.7 9.2,33.3 9.4,32.9 C11.6,28.8 14.3,24.8 17.9,21.8 C21.9,18.3 26.8,16.1 32,14.6 C37.3,13 42.8,11.9 48.4,11.5 C51.3,11.3 54.2,11.3 57.1,11.6 Z M18.2,78.2 C20.9,76.4 24.6,77.6 25.9,80.4 C26.9,82.5 23.7,83.6 23.1,81.6 C22.6,79.6 20.4,78.1 18.4,78.4 C18.2,78.4 18.1,78.2 18.2,78.2 Z" id="🖍-Ink" fill="currentColor"></path></g><g id="face/Smile" transform="translate(37.8, 44.1)" fill="currentColor"><path d="M34.8,57.1 C33.2,56.5 31.8,55.4 30.8,54 C30.4,53.5 30.3,53 30.4,52.5 C30.5,52 30.8,51.5 31.2,51.2 C31.6,50.9 32.1,50.7 32.7,50.8 C33.1,50.9 33.5,51.1 33.9,51.6 L34,51.7 C34.6,52.6 35.4,53.3 36.3,53.7 C37.2,54.1 38.2,54.3 39.2,54.2 C41.2,54 42.5,52.9 43.9,51.5 C44.1,51.3 44.3,51.1 44.5,50.9 C44.6,50.8 44.7,50.7 44.9,50.6 C45.1,50.5 45.3,50.5 45.5,50.6 C45.7,50.7 45.9,50.8 46,51 C46.1,51.1 46.2,51.3 46.2,51.6 C46,53.1 45.3,54.4 44.2,55.4 C42.9,56.6 41.3,57.4 39.8,57.6 C38.1,58 36.4,57.7 34.8,57.1 L34.8,57.1 Z M40.6,34.2 C42.4,35.3 45.1,37.8 43.2,40.5 C40.9,42.9 37.6,40.2 36,39 C34.5,38 32.8,40.5 34.2,41.6 C45.9,50.2 50.6,34.5 41.5,32.9 C40.5,32.8 40.1,33.9 40.6,34.2 Z M19.7,24.2 C19.9,21.8 23.6,21.2 24,23.6 C24.4,25.8 24,27.8 23,29.8 C22,31.6 19.7,30.8 19.5,29.1 C19.3,26.8 19.6,25.7 19.7,24.2 Z M48.2,23.1 C48.7,22.4 49.5,22 50.4,22.2 C53.2,23.1 52.4,27.1 51.4,29 C50.9,30.1 49.1,30.3 48.3,29.4 C47,27.9 46.4,24.9 48.1,23.4 C48.1,23.3 48.2,23.2 48.2,23.1 Z M22.9,13.5 L23.4,13.4 C24.8,13.2 26.5,12.9 27.5,14 C28,14.6 28.2,15.7 27.5,16.3 C26.2,17.3 24.9,16.9 23.4,17 C22.2,17 21,17.2 19.9,17.6 C17.3,18.3 15.2,19.6 13.1,21.1 C12.8,21.3 12.5,20.9 12.6,20.6 C13.9,18.2 16.3,16.2 18.8,14.9 C20.1,14.3 21.5,13.7 22.9,13.5 Z M45.6,12.4 L46,12.4 C49.7,13.2 54.5,14.8 56.3,18.4 C56.3,18.9 56.3,19 56.2,19.1 L56.2,19.1 C56.2,19.2 56.1,19.3 55.9,19.3 C55.8,19.3 55.8,19.3 55.7,19.3 C54.9,19.1 54.3,18.8 53.6,18.5 L53,18.2 C52.2,17.8 51.4,17.4 50.6,17.1 C48.8,16.6 47,16.2 45.1,15.9 C44.7,15.9 44.3,15.8 44,15.5 C43.8,15.3 43.5,15 43.4,14.6 C43.3,14.1 43.3,13.7 43.6,13.2 C43.8,12.9 44.1,12.6 44.5,12.5 C44.8,12.3 45.2,12.3 45.6,12.4 Z" id="🖍-Ink"></path></g><g id="facial-hair/*-None" transform="translate(29.2, 80.1)"></g><g id="accessories/Glasses-3" transform="translate(11.2, 57.1)" fill="currentColor"><path d="M87.2,23.3 C85.6,25.4 82.6,26.1 79.9,25.9 C74,25.3 72.1,18.6 71.9,13.4 C75.9,14.6 71.6,6.7 85.1,5.8 C89.9,5.4 88.6,8.3 90.7,10.4 C90.6,14.8 89.9,19.6 87.2,23.3 M59.1,18.2 C55.6,34.5 36.6,30.6 34.6,16 C36.4,14.7 35.9,11.5 38.2,10.3 C41.9,8 46.4,8.1 50.5,8.1 C55.8,8.5 57.3,10.7 60,13.1 C59.9,14.6 59.5,16.5 59.1,18.2 M94.7,3.1 C94.5,3.1 94.4,3.1 94.2,3 C94,3 93.8,2.9 93.6,2.9 C93.1,2.7 92.7,2.6 92.2,2.6 C85.4,1.1 69.7,3.2 69.1,9 C66.9,9.7 65.1,9.1 62.6,9.2 C60.7,1.2 27.8,2.3 26.2,7.1 C26.2,7.1 26.2,7.1 26.2,7.1 C24.6,6.6 22.4,6.8 20.6,6.7 C16.9,6.6 13.2,6.9 9.6,7.7 C2.8,8.8 -6.5,10.1 -1.8,18.6 C-1.8,18.6 -1.8,18.6 -1.8,18.6 L-1.8,18.6 C-1,19.4 0.4,18.7 0.5,17.6 C-1.1,13.6 2.5,13.1 5.2,11.9 C12.1,9.5 19.1,9.1 26.3,9.9 C26.8,10.5 27.6,11.1 28.5,11.3 C33.2,12.1 30.7,15.7 33.7,16.2 C33.2,28.5 48.1,35.2 56.8,27.1 C60.2,23.7 61.1,18.7 61.9,14.2 C62.3,14.1 62.6,13.9 62.7,13.6 C63.7,12.6 64.4,11.6 66.4,11.3 C68.4,11.1 70,11.6 70.2,11.8 C70.2,11.9 70.3,12 70.3,12.1 C70.4,12.3 70.6,12.4 70.7,12.5 C68.7,24.7 78.2,32.5 87.8,26.1 C92,22.2 92.9,16.2 93.1,10.9 C93.6,10.5 94,9.9 93.8,9 C93.5,7.9 94.2,6.9 95.2,6.4 C96.5,5.7 96.2,3.4 94.7,3.1" id="🖍-Ink"></path></g></g></g></g></g></svg>