<svg viewBox="0 0 321 699" version="1.1" xmlns="http://www.w3.org/2000/svg" xmlns:xlink="http://www.w3.org/1999/xlink"><g id="Introduction" stroke="none" stroke-width="1" fill="none" fill-rule="evenodd"><g id="variations-standing" transform="translate(-2735, -900)"><g id="a-person/standing" transform="translate(2733, 854)"><g id="pose/standing/robot_dance-3" transform="translate(-28.7, 150.3)"><path d="M84.3,214.2 C84.3,217 84.6,223.2 85.3,225.9 C77.7,213.6 66.2,200.3 64.5,185.4 C65,185.2 67.4,185 67.9,184.7 C71.8,186.5 71.1,180.9 71.7,178.3 C73.2,172.7 76.5,167.3 78,161.8 C81.8,160.1 74.2,159.4 73.1,159.4 C77.6,154.3 79.8,147.3 83,141.4 C87.8,131.3 92.1,120.9 95.9,110.4 C96.8,117 96.9,123.7 96.4,130.3 C94.8,158.6 84.2,185.8 84.3,214.2 Z M349,164 C346.7,164.4 342.7,164.7 340.3,164.9 C343.5,163.1 352.6,159.5 346.9,156.4 C345.1,155.7 343.2,156.7 341.4,156.9 C333.9,158.2 324.6,158.1 317.1,157.5 C319.8,155.2 323.5,152 326.2,149.6 C327.6,148.4 329,147.9 327.4,146.1 C324.5,143.4 319.5,145.4 316.2,146.5 C307.1,151.6 296.9,157.1 287.2,161 C287.1,159.6 287.2,157.9 285.9,156.9 C282,155.1 279.2,155.7 275.1,155.2 C270.3,154.5 266.1,153.7 261.4,152.4 C258.3,150 256.4,143.1 251.5,143.9 C255.8,132.9 249.2,121.4 246.7,110.9 C243.5,100.1 241.9,88.9 241.8,77.7 C241.8,59.8 231.4,46.1 216.4,36.9 C210.5,32.9 206.5,23.1 199.1,21.2 C198.2,17.6 198.1,16 197.3,12.4 C196.9,11.4 196.6,5.8 195.6,6 C194.4,0.4 188.6,-1.8 183.6,-3 C177.1,-4.3 167.9,-6 162,-2.1 C160.3,-0.7 159.6,1.6 159.5,3.8 C158.8,6.6 157.5,9.5 155.9,11.9 C153.2,11 154.7,9.3 152,8.9 C127.6,5.3 100.5,23.2 84.7,40.6 C56,70.1 33,110.3 36.8,152.2 C35.8,152.1 31.3,151.4 31.3,152.8 C31.6,158.9 32.7,164 33,170.2 C32.7,178.3 41.2,179.3 47.3,181.3 C46.9,204.9 55.5,228.5 68.9,247.8 C72.2,251.7 77.1,264.9 83,259.6 C83.7,258.8 78.3,253.1 77.3,251.7 C74,247.6 65.2,227 71.4,222.9 C72.8,227.3 86.1,248.7 88.5,236.6 C91.7,238.4 96.9,239.6 100.6,239.4 C107.7,243.3 114.6,247.4 121.4,251.7 C124.6,257.9 129.3,263.9 133.2,269.9 C106.2,332.1 79.9,434.4 45.2,493 C42.1,496.9 58.8,503.4 61.7,504.8 C56.1,513.9 55.4,524.4 51.1,534.3 C50.3,534.1 49.5,534.3 48.7,534.7 C43.5,538.3 41.5,551 41.2,557.3 C41.4,560.1 40.4,564.4 42.7,566.5 C42.3,566.8 42.1,567.2 41.9,567.6 C40.3,568.9 40.5,571.6 41.4,573.3 C44.4,579.6 66.4,579 73.6,580.3 C98.9,582.5 120.1,582.8 145.5,580.5 C148.6,579.8 146.2,575 144.7,573.7 C145.4,573.3 145.8,572.5 145.5,571.5 C139.8,555 119,556.1 106.4,547.4 C109.7,545.5 107.6,546.1 105.5,546.8 C103.3,545.4 101.1,543.9 99.1,542.1 C100.7,541.2 99.9,540.6 98.3,541.4 C95.7,539.3 93.6,536.1 90.3,535 C87.1,534.3 87.1,532.9 87.1,532 C89,524.2 91.1,516.3 92.2,508.4 C93.3,510.1 103.3,496.4 105.5,493 C113.8,479.9 113.8,466.9 119.6,452.7 C131.5,421.6 156,356.4 170.9,326.6 C205.8,383.4 188.8,460.2 210.3,520.7 C211.3,522.5 213.1,529.3 215.5,527.4 C216.5,527.6 217.5,527.7 218.5,527.8 C218.2,534.4 217.7,541 216.6,547.6 C215.6,547.9 214.7,548.4 214.3,549.3 C212.5,548.1 209.2,566.8 208.9,568.7 C208.9,571.1 206.8,576.6 208.7,578 C206,579.2 205.5,583.4 207.5,585.6 C213.3,593.4 241.7,591.2 252.2,592.5 C265.4,592.2 320.8,597.2 324.7,584.6 C325.4,581.8 324.1,578.1 321.5,577 C322.5,574.5 320,572.1 318.4,570.4 C309.2,560.8 295,559.3 282.7,555.2 C283.2,554.7 266.7,546.3 263.1,544.2 C263.4,541.3 257.5,544.2 257.5,544.2 C254.7,539.2 252.7,531.5 250.8,526.1 C254.3,525.1 262.6,524.1 264.2,520.7 C269.2,519 264.2,511.8 263.1,508.4 C233.9,435.3 261.6,343.2 218.5,274.2 C226.4,269.7 235.5,259.8 227.6,251.5 C226.1,249.5 222.3,243.3 222.3,244.3 C220.9,238.4 217.6,228.2 216.6,222.2 C212.9,200.3 215.3,179.7 218.5,157.5 C222.8,174.2 237.9,188.1 253.2,195.7 C259.2,198.2 267,203.3 273.6,201.7 C279.5,199.9 290.3,187.8 291.5,182 C308.8,184 326.7,182.4 343.2,177 C345.3,176.2 347.8,176.2 347.1,173.2 C346.5,170.7 341.8,171.3 339.8,171.8 C342.9,170.1 350.8,169.7 350.8,165.2 C350.7,164.3 350,163.8 349,164 Z" id="🎨-Background" fill="#FFFFFF"></path><path d="M159.5,0 C159.8,0.1 160,0.5 160.1,1.1 C160.4,1.2 160.6,1.4 160.7,1.7 C160.9,2.7 160.7,3.7 160.5,4.6 L160.4,4.7 C160.2,5.7 160,6.6 159.7,7.5 L159.7,7.7 C159,11.4 157.7,14.9 156.1,14.3 L156.5,15 C162.6,26 180,55.7 193.6,51.5 C201.5,48.3 201.4,38 200.8,30.8 C195,34.5 193.9,6.9 195.1,3.8 C196,3.1 196.5,9.5 196.8,10.3 C197.6,13.8 198.6,17.3 199.5,20.7 C201.4,21.1 203.2,21.8 204.8,22.9 C204.8,23 204.9,23 205,23 C205.9,23.6 206.7,24.4 207.3,25.2 C208.1,26 208.7,26.9 209.3,27.9 C210.7,29.4 211.9,30.9 213.2,32.5 C213.9,33.2 214.5,33.9 215.1,34.6 L215.6,35 C215.7,35.1 215.8,35.1 215.9,35.2 C230.9,44.6 241.3,58.6 241.4,76.8 C241.4,88.3 243.1,99.6 246.2,110.6 C248.7,121.3 256.8,132.3 252.4,143.5 C257.3,142.7 257.8,149 260.9,151.4 L261.9,151.7 C266.2,152.9 270.2,153.8 274.6,154.5 C278.7,155 283.4,154.5 287.3,156.3 C288.6,157.2 288.1,158.9 288.2,160.3 C297.9,156.3 306.7,150.9 315.7,145.7 L316,145.6 C319.3,144.4 325.3,142.6 328.1,145.2 C329.7,147.1 328.1,148.8 326.6,150.1 C323.9,152.5 321.1,154.6 318.3,156.9 C325.7,157.6 333.2,157.1 340.5,155.9 L340.9,155.8 C342.7,155.5 344.9,154.8 346.7,155.5 C352.4,158.7 345.7,162.5 342.6,164.4 C345,164.2 347.4,163.9 349.7,163.5 C350.7,163.3 351.4,163.8 351.5,164.8 C351.5,169.3 345.6,169.5 342.5,171.2 L342.8,171.2 C344.8,170.7 347.6,170.3 348.3,172.8 C348.9,175.9 344.8,177.1 342.7,177.9 C326.2,183.4 308.3,185.1 291,183 C289.8,188.9 279,201.3 273.1,203.1 C266.6,204.7 258.7,199.5 252.7,197 C237.4,189.3 223.2,176.4 218.9,159.4 C215.2,185.8 216.7,212.4 222.2,238.3 C223.1,240.4 224,242.4 225.1,244.3 C225.4,244.4 225.7,244.6 225.7,245 C225.7,245.2 225.8,245.5 225.8,245.7 C226.9,247.5 228.1,249.2 229.1,251 C229.3,251.3 229.6,251.7 229.8,252.1 C236.9,260.5 228.2,271.3 220.4,275.9 C263.6,346.1 235.7,434.6 265,509.1 L265,509.3 C266.1,512.8 269.5,520.1 264.6,521.8 C263.1,525.3 255.3,525.7 251.8,526.8 C253.7,532.2 255.8,537.6 258.6,542.7 L258.6,542.7 L258.6,542.7 C259.7,541.9 262.1,541 263.1,541.9 C263.4,541.9 263.6,542 263.8,542.1 C265.4,542.9 266.6,544.3 268.1,545.3 C268.9,545.8 269.7,546.2 270.5,546.6 C271.3,547 272.2,547.2 272.8,547.8 C273,548 273.1,548.2 273,548.5 C273.5,548.7 274,549 274.6,549.3 L274.8,549.1 C279.3,546.3 282.9,544.8 276.4,550.1 C278.7,551.2 281.1,552.2 283.6,553.1 C285.4,552.2 287.3,551.5 289.4,551.4 C289.7,551.9 286.9,553.6 286.5,554.1 C298.8,558.3 312.3,561.7 321.5,571.4 L321.6,571.5 C323.2,573.3 325.6,575.7 324.5,578.2 C327.2,579.3 328.5,583 327.8,585.9 C323.9,598.7 264.9,593.6 251.7,594 C241.2,592.6 212.8,594.8 207,586.9 C205,584.7 205.5,580.4 208.3,579.2 C206.3,577.7 208.5,572.1 208.5,569.6 L208.5,569.4 C208.8,567.5 210.1,560.2 211.4,555.1 C211.4,554.7 211.5,554.3 211.6,553.8 L211.6,553.6 C211.9,552 212.3,550.3 213.3,549 C214.1,548.1 215.1,547.5 216.3,547.3 C216.6,545.3 216.8,543.4 217,541.4 C217.2,539.1 217.2,536.8 217.2,534.5 C217.2,533.4 217.2,532.2 217.1,531 C217.1,530.2 217.1,529.2 216.9,528.3 C216.8,528.4 216.6,528.5 216.3,528.5 C215.8,528.3 215.4,528 214.9,527.7 C214.9,527.7 214.9,527.7 214.9,527.7 C212.5,529.2 210.8,522.6 209.8,520.8 C188.3,459.1 205.3,388.2 170.4,330.3 C165.6,340.7 161.4,350.1 156.8,360.5 C142.3,393 124.5,450.2 112.5,484.6 C109.2,491.6 105.4,498.4 100.8,504.6 C99.4,506.3 98.4,508.7 96.3,509.6 L96.1,509.6 L96.1,509.6 C95.5,510.7 94.7,511.6 93.6,511.5 C93.3,511.5 93,511.5 92.7,511.5 C91.7,518.6 90.4,525.8 88.7,532.8 L88.9,532.7 C90,532.3 91.2,531.9 92.4,532 C95.2,532.7 94.1,535.1 91.9,536 C94.7,536.8 96.5,539.2 98.6,541.2 C100.3,540.3 102.3,539.8 104.3,540 C104.7,540.1 104.9,540.2 105.1,540.4 C105.2,540.4 105.3,540.4 105.4,540.4 L105.2,540.5 L105.2,540.5 C105.6,541.2 105.3,542.1 104.3,542.1 C103.6,542.1 102.9,542.2 102.2,542.3 C101.7,542.6 101.2,542.9 100.7,543.2 C102.3,544.6 104,545.9 105.8,547.1 C106.7,546.6 107.7,546.2 108.7,545.9 C110,545.5 110.6,547.6 109.3,548 C109,548 108.7,548.1 108.5,548.2 L108.2,548.4 C108.1,548.4 108.1,548.5 108,548.5 C120.6,557.4 141.9,556.3 147.6,573 C147.8,573.7 147.7,574.2 147.4,574.6 C148.7,575.8 149.3,577.8 149,579.4 L149,579.6 C149.2,580.8 148.9,581.9 147.5,582.2 C138.4,583.1 129.2,583.6 120.1,583.8 L119.3,583.8 C106.1,583.9 42.1,583.4 39.2,575 C38.4,573.4 38.2,571 39.3,569.6 C39.4,568.8 39.7,568.1 40.2,567.6 C38.3,565.7 39.2,561 39,558.6 C39.4,550.7 41,542.2 45.9,535.7 C45.9,535.6 46,535.5 46.1,535.5 C47,534.7 48.1,534.1 49.4,534.1 C49.4,534 49.4,533.9 49.5,533.8 C50.5,531.4 51.4,529.1 52.4,526.7 C53,524 53.8,521.3 54.5,518.6 C55.2,515.9 55.9,513.2 56.6,510.5 C57.2,508.3 57.6,505.9 58.6,503.9 C58.6,503.8 58.6,503.7 58.5,503.6 L57.5,503.2 C51,500.6 40.7,496.1 43,493.2 C67.1,443 90.8,371.7 112.9,319.7 C113.3,318.7 113.6,317.7 114,316.7 C115,314.2 116,311.8 117,309.4 L117.6,307.9 L127.3,284.7 L127.3,284.7 C128.3,282.3 129.4,279.8 130.2,277.3 C131,274.9 131.2,272.5 129.7,270.3 C128.4,268.3 126.6,266.7 125.1,264.9 C124,263.5 122.9,262 122,260.4 C121.1,259.2 120.3,257.9 119.7,256.8 C118.6,255.1 117.3,253.2 116.5,251.2 C115.5,250.6 114.5,250 113.5,249.4 C111.8,248.4 110.1,247.4 108.5,246.3 C106.4,245.1 104.3,243.9 102.2,242.7 C101.5,242.3 100.7,242 100,241.6 C97.7,241.8 91.4,239 89.2,237.1 C89,237 88.8,237 88.5,236.9 C88.4,238.1 88,239.2 87.1,240 C80.9,243.1 73.1,229.3 71,224.7 C66.7,228.9 76.9,249.6 80.2,253.8 L80.4,254.1 C81.3,255.4 82.2,256.9 83.5,257.9 L83.6,258 C84.4,258.6 84.6,259.6 83.9,260.4 C77.9,265.8 71.7,254 68.4,250.1 C55,230.4 46.4,206.3 46.8,182.3 C40.7,180.3 32.2,179.3 32.5,171 C32.2,164.8 31.1,158.6 30.9,152.3 C30.8,150.9 35.3,151.6 36.3,151.7 C34.8,137.4 37.1,122.8 41.1,109 C51.6,73.6 94.9,10 137.6,7.7 C137.6,7.6 137.6,7.5 137.7,7.5 C139.6,7 141.7,7.1 143.7,7.1 C145.8,7.2 147.9,7.2 149.9,7.4 C152.1,7.7 154.3,8.5 155.8,10 L156.3,9.1 C156.8,8.1 157.4,7 157.8,5.9 C158,5.3 158.2,4.7 158.3,4.1 C158.5,3.2 158.6,2.3 159,1.5 C159,1.5 159,1.5 159,1.5 C159.1,1 159.3,0.5 159.5,0 Z M211.9,579.2 C211.3,579.8 210.2,580.1 209.3,579.8 C206.2,588.6 223.1,588 228.5,588.5 C234.3,589.2 339.5,594.6 321.7,581.7 C300.8,589.6 231,590.5 211.9,579.2 Z M263.1,544.2 C261.7,545.6 259.6,546.3 258.1,547.6 C253.8,551.2 250.4,556.3 244.5,557.3 C236.8,558.7 229.8,554.9 222.9,551.9 C222,551.8 221.1,551.5 220.3,551.2 C220.2,551.3 220.2,551.3 220.2,551.4 C220.1,551.4 220.1,551.3 220,551.3 C220,551.3 219.9,551.3 219.8,551.3 C219.6,551.2 219.4,551 219.2,550.9 C219.1,550.9 219,550.9 218.9,550.9 C217.5,550.8 215.9,551.1 215,552.3 C214.9,552.4 214.9,552.5 214.8,552.6 C214.3,554.2 214.3,556.1 214.5,557.4 C214.6,557.9 214.4,558.3 214.1,558.5 C213.8,565.1 213.1,571.7 212.6,578.2 C215.1,579.1 217.8,579.8 220.5,580.3 C239.1,582.6 257.8,583.6 276.5,583 C287.6,582.6 298.7,581.6 309.7,580 C313.3,579.7 316.9,578.3 320.5,578.8 C320.6,578.6 320.9,578.3 321.2,578.1 C312.1,565.7 296.5,562.3 282.9,556.8 C280.7,558.3 279.3,561.3 276.8,562.1 C275.8,562.3 274.5,561.7 274.6,560.5 C275,558 277.7,556.8 279.6,555.4 C277.6,554.4 275.7,553.5 273.8,552.3 C272,554 269.8,555.3 268,557 C269,559.4 264.9,559.2 264.9,556.7 C265.2,553.9 269.6,552.7 271.6,551 C268.5,549.1 265.7,546.7 263.1,544.2 Z M42.9,568.8 C42.8,569.1 42.6,569.3 42.4,569.4 C41.9,569.7 42.1,571.1 42.1,571.5 L42.1,571.6 C42.2,572.4 42.2,573.3 42.3,574.1 C43.1,574.8 44,575.3 45.1,575.6 C78.4,580.9 112.4,581.4 146,579.4 C145.8,578.5 145.2,577.8 144.6,577.1 C123.3,578.9 101.6,577 80.3,575.2 C67.8,573.6 54.8,572.9 42.9,568.8 Z M91.4,536.2 C85.9,538.1 80.8,540.7 75.9,543.8 C74.1,545 72.4,546.4 70.3,547 C63.1,549.2 52.3,538.8 52.2,538.7 C49.7,537 47,538.6 45.6,540.9 C45.5,541.1 43.4,553 43.5,558.9 C43.1,560.8 44.1,564.1 43.6,566.2 C44,566.7 44.6,567 45,567.5 C45.2,567.7 45.1,567.9 45,568.1 C64.4,569.7 83.7,572.7 103.2,573.3 C116.6,574 130,573.9 143.3,573.7 C140.3,564.8 130,562.5 122,559.5 C116.1,557.4 110.6,554.2 105.7,550.1 C103.6,551.6 102,553.6 100.5,555.7 C99.8,556.5 98.4,557.2 97.7,556 C97,554.8 98.4,553.3 100.2,551.9 C101.1,550.5 102.3,549.3 103.7,548.3 C102.2,547 100.7,545.6 99.4,544.1 C96.5,546 94.4,548.8 92.4,551.5 C91.4,552.5 89.6,551.1 90.4,549.9 C91,549.1 91.8,548.3 92.5,547.6 C93.7,545.4 95.4,543.4 97.4,541.9 L97.3,541.7 C95.6,539.6 94.1,536.9 91.4,536.2 Z M43,567.5 C43,567.5 42.9,567.6 42.9,567.6 C42.9,567.7 43,567.8 43,567.9 L43.5,568 L43.5,568 C43.3,567.8 43.2,567.6 43,567.5 Z M250,527.1 C239.8,529.1 229.3,529.8 219,528.2 C220.2,534.8 220.9,541.5 220.5,548.2 C235.9,552.7 242.3,560 255.1,545.3 C254.4,544.3 254.1,543.2 253.7,542.1 C251.9,537.3 250.4,532.3 250,527.1 Z M63,505.4 C62.9,505.7 62.6,506 62.2,506.1 C62.1,506.7 62,507.3 61.8,507.9 C61.6,510.9 60.4,514 59.2,516.8 C59.1,517 59.1,517.2 59,517.4 C58.2,519.7 57.4,522 56.5,524.4 C55.9,526.8 55.4,529.3 54.8,531.7 C54.7,533.4 54.5,535 54.1,536.6 C54.1,536.7 54.1,536.8 54,536.8 C54.6,537.1 55.2,537.4 55.7,537.7 C71.3,549.4 68.6,541.6 83.5,535 C83.4,534.4 83.8,533.8 84,533.2 L84.1,533.1 C84.1,533 84.1,533 84.1,533 C84.1,532.7 84.1,532.4 84.2,532.2 C85.7,526 87.8,519.9 89.8,513.8 C90.1,512.9 90.4,512 90.8,511.1 C81.3,511 71.9,508.5 63,505.4 Z M121.8,254.6 C207.9,361.8 189.1,374.4 207.6,498 C209.4,507.6 213.1,516.7 215.5,526.1 L215.8,526.1 C216.1,526.1 216.5,526.1 216.7,526.1 L216.7,526.1 L216.7,526.1 L217.7,526.1 C228.8,526 240,525.4 250.9,522.9 C254.7,522.2 258.4,520.4 262.3,520 C262.3,519.5 262.5,519.1 262.9,518.8 C233.2,448.7 253.9,368.6 228.1,297.3 C225.7,290.2 222.8,283.2 219.7,276.3 C186.6,296.1 149.6,273.7 121.8,254.6 Z M58.9,508.4 C58.7,509.2 58.5,510 58.3,510.8 L58.1,511.9 C58.5,510.8 58.8,509.6 58.9,508.4 Z M133.4,273.6 C133.5,275.4 133,277.2 132.4,278.8 C130.6,284.2 128.2,289.4 126.1,294.6 C124.6,298.2 123.2,301.7 121.8,305.3 C100.3,362.5 74,439.2 48,493.5 C57.8,499.1 68.5,503.1 79.6,505.3 C82.2,506.1 89.6,506.2 92.2,507.5 L92.8,507 L92.8,507 C92.9,504.5 95.6,502.8 96.7,500.6 C101.8,493.6 105.7,485.9 109.4,478.1 L110,476.3 C119.6,448.3 132.2,409.8 145.4,377.2 L145.8,376.2 C151.3,362.8 154.9,350.4 161.5,340.2 C161.9,339.6 162.3,339.1 162.6,338.6 C162.9,338 163.2,337.5 163.5,336.9 C164.6,334.6 165.9,332.4 167.1,330.1 C167.6,329.1 168.2,328 168.4,326.8 C157.9,308.4 145.4,291.1 133.4,273.6 Z M149.2,9.2 C145.9,10 142.5,10.3 139.2,11 C116.3,13.7 98.7,29.9 83.6,46 C55,76 38.3,113 39.5,154.7 C49.8,156.6 59.9,159.3 70.3,159.9 C68.8,157.6 71.3,154.7 72.2,152.5 C87.3,123.5 98.9,91.4 108.3,60.8 L108.1,62.1 C105.1,77.5 101.7,92.8 96.4,107.5 C97.9,106 123,86.1 121.1,92.7 C113.4,98.7 104.7,103.4 96.7,108.9 C106.2,140.8 92.4,173 89.8,204.9 C89.2,212 89.2,219.1 88.3,226.2 C88,227 88.3,228.6 87.8,229.4 C88.2,231.3 89,233 90.6,234.4 C91.3,235 92,235.6 92.8,236 C94.7,236.3 96.6,237.1 98.2,237.8 C101.7,239.3 104.7,241.5 107.8,243.7 L107.9,243.7 L107.9,243.7 C113,246.3 118,249.2 123,252.3 L123.2,252.4 C125.1,253.4 127,254.3 128.7,255.6 C128.7,255.7 128.8,255.8 128.8,255.8 L131.9,257.7 C156.4,272.8 181.6,287.8 210.4,277 C218.5,273.7 230.2,267.2 228.7,257 C228.4,256 227.9,255.1 227.4,254.2 C227.3,254 227.1,253.8 227,253.6 C225.9,252.2 224.6,250.9 223.7,249.4 C223.3,248.8 222.9,248.2 222.6,247.5 C222.4,247.5 222.2,247.3 222.1,247 C220.7,244 219.3,241 218.1,237.9 C202.8,184.7 221.3,127.5 226.6,73.8 C227,70.8 227.5,67.7 227.5,64.6 C227.5,64.4 227.7,64.4 227.7,64.6 C229.6,78.3 228.2,92.1 226.4,105.7 C224.1,122.8 221.2,139.8 219.1,156.9 C224.6,174.1 239.7,186.6 255.6,194 C258.3,195.3 261.1,196.5 263.9,197.5 L264.1,197.5 C267.2,198.6 270.7,200.3 273.7,198.1 C279.4,194.2 283.5,188.3 287.2,182.6 C285.7,182.4 284.2,182.3 282.7,182.2 C279,186.4 274.5,190 269.7,192.9 C267.7,194 265.5,193.6 264.6,191.4 C263.7,189.3 264.8,186.9 265.5,184.9 L265.7,184.6 C269.5,174.3 276.1,164.9 285.1,158.5 C278.3,157.1 271.3,157.1 264.8,154.5 C265.2,154.8 264.7,155.3 264.5,155.6 C264.6,156.2 264.1,156.6 263.6,156.8 C258.3,163.7 254.3,171.9 253.4,180.6 C253.6,183.6 251,187 248.4,183.9 C246.4,175.2 254.3,161.6 261.3,156.2 C254.3,151.4 256.3,144.5 251.9,144.5 C250.8,146.7 249.3,148.7 247.5,150.3 C246.6,151 245.6,151.5 244.7,152.2 C243.7,152.8 242.8,151.4 243.5,150.6 L243.7,150.4 C246.6,147 250,143.6 250.5,139 C251.4,133.3 248.8,127.5 246.9,122.4 C243.1,112.4 240.6,102 239.4,91.5 C238,82 239.7,72.2 236.5,63 C235.8,60.4 234.9,58.1 233.7,55.9 C233.7,55.9 233.7,55.9 233.7,55.9 C232.3,54.3 231.2,52.6 230,50.9 C228.7,49.2 227.2,47.6 225.7,46.1 C223.2,43.5 220.4,41.3 217.5,39.3 C217.4,39.3 217.4,39.2 217.3,39.2 C216.8,38.9 216.2,38.5 215.7,38.1 L215.7,38 C214,36.8 212.3,35.6 211,34 C209.7,32.4 208.7,30.6 207.7,28.9 C206.2,27.1 204.8,25.2 203.1,23.7 C202.1,23.2 201.1,22.7 200.2,21.9 C200.1,21.9 199.9,21.8 199.8,21.8 C200.1,23.3 200.7,24.7 201.2,26.3 C202,26 203,26.3 203.1,27.4 L203.1,27.9 C203.9,34.8 204.3,43.3 200.2,49.3 C191.1,62.5 177.6,51.3 170.7,42 C164.6,34.7 159.4,26.5 155.6,17.7 L155.5,17.6 C154.8,16.3 153.3,12.2 152.9,10.2 C151.8,9.6 150.4,9.3 149.2,9.2 Z M120.2,253.5 C120.1,253.6 120.1,253.6 120.1,253.6 C121.3,255.5 122.6,257.3 123.8,259.2 C122.8,257.5 121.8,255.8 121,254.1 C120.7,253.9 120.4,253.7 120.2,253.5 Z M48.3,182.8 C53.2,209.4 60.2,237.4 79.7,257.3 C73.6,248.7 68.9,238.7 67.5,228.3 C67.5,225.5 68.5,222.5 71.6,222.1 C72.2,222 72.6,222.5 72.7,222.9 L72.8,222.9 C74,225.9 75.6,228.6 77.5,231.2 L77.6,231.4 C79.1,233.3 85.1,240.7 86,237.2 C85.3,219.1 66.6,211.6 63.5,186.7 C58.3,186.2 53.3,184.2 48.3,182.8 Z M88.5,235.6 C88.5,235.8 88.5,236.1 88.5,236.4 C88.8,236.3 89.1,236.2 89.4,236.1 C89.1,235.9 88.8,235.7 88.5,235.6 Z M88.2,233.6 C88.3,234.1 88.4,234.7 88.5,235.2 C89,235.3 89.5,235.5 90.1,235.7 C89.7,235.4 89.4,235.1 89.2,234.8 C88.8,234.4 88.5,234 88.2,233.6 Z M95.5,110.2 C91.6,120.8 87.3,131.4 82.5,141.7 C79.3,147.7 77.2,154.7 72.7,159.9 C72.7,160 72.6,160 72.6,160 L72.7,160 C74,160.1 81.2,160.8 77.5,162.4 C76.1,168.1 74.2,173.6 72.6,179.2 L72.6,179.4 C72,182.1 71.3,187.6 67.4,185.8 C67,186.1 66.5,186.3 65.9,186.5 C67.7,201.7 77.3,211.6 84.9,224 C83.2,217.5 83.7,210.6 84.3,203.9 L84.5,202.3 C87.6,171.6 99.2,141.3 95.5,110.2 Z M127.5,207.8 C121.3,200.1 90.7,123.5 112.3,169.9 C120,186 126.3,203.3 139,216.4 C139.9,217.4 138.7,219 137.6,218.2 C133.5,215.5 130.2,211.9 127.5,207.8 Z M105.4,115.2 C105.3,115.1 105.5,115.1 105.6,115.2 C113.9,131.5 119.8,149.1 129.2,165 C134.9,174.8 141.7,184 149.5,192.3 C150,192.9 149.2,193.7 148.5,193.2 C126.3,172.7 115.5,143 105.4,115.2 Z M269.2,182.6 L269.2,182.6 L269.2,182.6 L269,183.2 C268.9,183.4 268.8,183.5 268.8,183.7 C268.8,183.7 268.8,183.7 268.9,183.7 C268.9,183.6 269,183.5 269.1,183.4 C269.1,183.2 269.1,182.9 269.2,182.6 Z M36.4,152.4 C35.3,152.8 33.9,152.9 32.6,153 C34,159.6 35.2,166.2 36.5,172.8 C37.1,174.8 38.4,175.5 40.3,176.2 L41.9,176.7 C49,178.9 56.2,181.3 63.5,182.7 C64.1,182.3 64.8,182.4 65.1,182.9 C65.5,182.9 65.9,183 66.2,183 C68.2,175.7 71.6,168.7 76.1,162.7 C63.5,163.1 50.8,159.8 38.8,156.1 C38.4,156.3 37.7,156.2 37.5,155.6 L37.3,155.6 C35.3,155 32.7,153.5 36.9,154.3 C36.6,153.7 36.5,153 36.4,152.4 Z M325.7,147 C317.4,145.7 311,152.4 303.9,155.5 C299.6,157.3 288.3,163 284.1,161.1 C278.5,166.5 273.7,172.9 270.3,180 C271.3,180 272.2,179.9 273.1,179.9 C274.7,179.4 276.5,179.3 278.2,179.8 C295.4,180 312.5,183.4 329.6,179.1 L330,179.1 C333.5,178.4 345.5,175.9 346.2,173.4 C346,172.3 342.8,173.5 342.2,173.6 C337.3,174.6 332.3,175 327.3,175.5 C325.9,175.6 325.9,173.5 327.3,173.3 C333.3,172.7 339,170.5 344.5,168.1 C345.1,167.9 346.6,167.4 347.7,166.7 C342.6,167.5 337.4,167.7 332.2,167.5 C330.4,167.3 330.3,164.6 332.2,164.6 C335.7,165 339,163.3 341.8,161.5 L342.5,161.1 C347.2,158 346.9,157.9 340.9,159 C332.1,160.6 323.2,160.5 314.3,159.9 C313,159.9 312.2,158.2 313.2,157.3 C317.3,153.8 321.7,150.6 325.7,147 Z M285.4,159.9 L285.3,160 C285.1,160.2 284.9,160.3 284.8,160.4 L284.8,160.5 C284.7,160.6 284.5,160.7 284.4,160.8 C285,161 285.6,161 286.2,160.9 C285.8,160.7 285.5,160.3 285.4,159.9 Z M128.7,131.7 L128.7,131.7 L128.7,131.7 C134.1,137.5 139.5,146.9 144,154.3 C144.6,160.4 131.4,135.2 128.7,131.7 Z M263.7,154.1 C263.8,154.1 263.8,154.2 263.9,154.3 L263.9,154.4 L264,154.3 C264.1,154.3 264.1,154.3 264.2,154.3 C264,154.2 263.9,154.1 263.7,154.1 Z M239.2,134.3 C244,135.1 234.1,141 232.8,141.9 C232,142.2 224,148.7 224.5,146.6 C228.2,141.9 233.4,136.3 239.2,134.3 Z M50.3,121.8 C52.1,118.9 61.8,122.7 64.9,123.1 C66.6,123.6 68.3,124.1 70.1,124.5 C71.4,125 77.8,124.5 75.5,127.2 C73,128.5 69.9,127.5 67.4,126.8 C62.4,125.4 57.4,123.9 52.3,123.1 C52.2,123 52.2,123.1 52.3,123.3 C53.4,125.7 55.7,128 58.3,128.7 C58.5,128.8 58.4,129.1 58.2,129 L58,129 C55.1,128.3 48.8,125.3 50.3,121.8 Z" id="🖍-Ink" fill="currentColor"></path></g><g id="Head" stroke-width="1" transform="translate(95.9, 42.7)"><g id="head/hat-hip"><path d="M99.4,67.1 C99.3,61.8 99.2,56.4 98.4,51.1 C97.6,46 95.5,41.3 91.9,37.6 C84.1,29.7 72.8,27.8 62.4,26 L44.5,22.9 C39,22 33.2,20.5 27.6,21.9 C24.9,22.5 22.6,24 20.5,25.8 C18.5,27.5 16.3,29.3 14.9,31.6 C13.5,33.9 13,36.6 12.6,39.3 C12.1,42.2 11.7,45.2 11.4,48.1 C10.9,54.1 10.8,60.1 11.2,66.1 C11.4,69 11.7,71.9 12.1,74.7 C12.3,76.2 12.5,77.6 12.8,79 C12.8,79.4 12.9,79.9 13,80.3 C12.4,81.9 12.1,83.6 12.1,85.3 C12.2,90.1 16.3,93.2 20.5,94.8 C22.9,95.8 25.4,96.4 27.8,97.5 C30.2,98.6 31.9,100.5 33.6,102.5 C36.9,106.5 40.5,110 44.7,113 C53.6,119.3 64.8,122.3 75.6,120 C78.2,119.5 80.8,118.6 83.1,117.4 C85.5,116 87.4,114.1 88.9,111.8 C91.8,107.5 93.9,102.7 95.4,97.9 C97,92.9 98.1,87.9 98.8,82.7 C99.4,77.5 99.5,72.3 99.4,67.1 L99.4,67.1 Z" id="🎨-Background" fill="#FFFFFF"></path><path d="M42.3,4.4 C49.7,3.4 59.9,6.7 63.6,13.4 C81.2,9.3 103.4,9.1 118,22.9 C133.1,39.3 114.1,60.9 101.5,65.8 C102.4,70.2 100.9,98.8 90.8,111.5 C82.8,122.3 64,127.3 55.3,114.4 L55.3,114.3 C54.3,112.8 55.1,112.8 56.1,113.9 C64.6,121.4 76.1,121.5 85,113.7 C101.7,99.3 100,64 92.1,43.7 C69.5,41.2 45.3,48 29.7,65 L30.7,71.3 C30.9,72.4 31.1,73.5 31.3,74.6 C31.4,75.3 31.4,75.9 30.9,76.5 C29.3,78.4 26.6,75.6 24.4,74.5 C23.8,74.4 23.1,74.3 22.5,74.4 C11.9,75.8 14,96.3 25.6,92.7 C26.6,92.1 27.4,92.3 27.8,93.1 C30.6,95.7 32.4,100.2 37,104.6 C38.7,106.2 40.1,107.6 42,108.9 C43.1,110 46.3,111.1 45.3,112.9 C43.3,117.2 31.8,103.9 29.8,100.2 C23.5,102.7 16.4,101.9 9.8,101.3 C-24.9,99.5 -20.3,62.9 8.2,39.8 C13.6,35.9 19.5,32.6 25.6,30.2 C26.5,29.8 26.1,28.5 25.2,28.8 C21.2,30.4 17.2,32.4 13.4,34.6 L13.4,33.3 C13.4,31 13.5,28.7 13.8,26.6 C14,25.1 14.4,23.6 14.9,22.5 C15.5,18.9 25.4,6.8 42.3,4.4 Z M22,79.1 C22.5,78.6 23.5,79.2 24,79.2 C25.2,79.4 26.4,79.9 27.3,80.5 C27.9,80.8 28.3,81.1 28.7,81.4 L28.7,81.4 C28.7,81.4 28.7,81.4 28.7,81.4 L28.7,81.5 C29.2,81.8 31.1,83.9 29.9,83.3 C29.8,83.2 29.7,83.1 29.6,83 C29.6,83 29.6,83 29.6,83 L29.7,83.1 C30.7,84.6 28.9,83 28.7,82.6 C28.7,82.6 28.6,82.6 28.6,82.6 L29,83.1 C29,83.1 29.1,83.2 29.1,83.2 L29.2,83.3 C30.3,84.4 30.4,85.4 29,83.8 C29.1,83.8 29.1,83.9 29.1,84 L29.2,84.1 C30.3,85.5 29.4,85 28.9,84.4 L28.8,84.3 L28.8,84.4 C29.3,85.1 28.4,84.6 28.2,84.2 L28.2,84.2 C28,84 27.9,83.8 27.8,83.8 L27.8,83.8 C26.9,82.9 25.6,82.1 24.5,81.7 C24.3,81.7 24.2,81.7 24,81.6 C23.3,81.5 22.6,81.4 21.9,81.3 C21.9,81.3 21.8,81.3 21.7,81.2 C20.7,81.2 21,80.7 21.4,80.6 L21.4,80.6 L21.4,80.6 C20.7,80.6 20.2,80.3 20.9,80.2 L21,80.2 C21,80.2 21,80.1 21,80.1 C20.4,80.1 20.8,79.5 21.1,79.6 C20.9,79.2 21.6,79.4 21.6,79.3 C21.7,79.3 21.8,79.2 21.8,79.2 C22,79.1 21.9,79.1 22,79.1 Z M25.5,72 L25.4,72.1 C25.3,72.1 25.2,72.2 25.1,72.2 C25.2,72.3 25.4,72.3 25.5,72.4 C25.5,72.3 25.5,72.2 25.5,72.1 L25.5,72 Z" id="🖍-Ink" fill="currentColor"></path></g><g id="face/Calm" transform="translate(37.8, 44.1)" fill="currentColor"><path d="M40.6,56.9 C38.9,57.4 37,57.5 35.2,56.9 C33.6,56.5 31.9,55.4 30.7,54.1 C29.7,52.8 29,51.3 29,49.7 C29,49.6 29.1,49.4 29.2,49.3 C29.3,49.2 29.5,49.1 29.6,49 C29.8,49 30,49 30.1,49.1 C30.2,49.2 30.4,49.3 30.4,49.4 C30.6,49.6 30.8,49.9 31,50.1 C32.4,51.9 33.9,53.3 36.1,53.8 C37.3,54 38.5,53.9 39.6,53.5 C40.8,53.1 41.8,52.3 42.7,51.4 C43,50.9 43.5,50.7 43.9,50.7 C44.4,50.7 44.9,51 45.3,51.3 C45.6,51.7 45.9,52.2 45.9,52.7 C45.9,53.1 45.8,53.6 45.4,54 C44.1,55.4 42.4,56.4 40.6,56.9 Z M40.6,34.2 C42.4,35.3 45.1,37.8 43.2,40.5 C40.9,42.9 37.6,40.2 36,39 C34.5,38 32.8,40.5 34.2,41.6 C45.9,50.2 50.6,34.5 41.5,32.9 C40.5,32.8 40.1,33.9 40.6,34.2 Z M23.8,29.4 C23.2,29.1 22.5,28.9 21.8,29.3 C21.2,29.5 20.2,30.4 19.5,31.6 C19,32.4 18.6,33.3 18.7,34.3 C18.7,34.5 18.6,34.7 18.5,34.8 C18.4,34.9 18.2,35 18.1,35 C17.9,35 17.7,35 17.6,35 C17.3,34.9 17.2,34.7 17.1,34.6 C16.6,33.3 16.9,31.8 17.4,30.4 C18.2,28.6 19.6,27.1 20.5,26.6 C22,25.8 23.8,25.8 25.4,26.6 C26.7,27.3 27.5,28.5 28.3,29.7 C28.5,29.9 28.7,30.2 28.9,30.4 C29.2,30.9 29.3,31.4 29.1,31.9 C29,32.3 28.6,32.7 28.1,32.9 C27.6,33.1 27.1,33.1 26.6,32.9 C26.2,32.8 25.9,32.5 25.7,31.9 C25.3,31 24.6,30 23.8,29.4 L23.8,29.4 Z M53.1,31.5 C52.7,31.7 52.4,31.7 51.9,31.6 C51.7,31.5 51.4,31.4 51.3,31.2 C51.1,31 50.9,30.8 50.9,30.5 C50.8,29.9 50.4,29.3 49.9,28.9 C49.5,28.6 49,28.4 48.4,28.5 C47.7,28.6 47.1,29 46.7,29.5 C46.6,29.7 46.5,29.9 46.4,30.1 C46.1,30.4 45.9,30.7 45.7,31 C45.6,31 45.4,31.1 45.2,31.1 C45.2,31.1 45.1,31.1 45,31.1 C44.4,30.5 44.3,30 44.3,29.5 C44.3,29 44.5,28.5 44.8,28 C45.6,26.9 47,26 48,25.8 C49.3,25.5 50.6,25.8 51.7,26.6 C52.7,27.3 53.5,28.5 53.8,29.8 C53.8,30.1 53.8,30.5 53.7,30.8 C53.6,31.1 53.4,31.3 53.1,31.5 Z M26.7,17.6 C25.9,18.4 25,18.5 24,18.6 C23.5,18.7 23.1,18.7 22.7,18.8 C21.5,19 20.4,19.4 19.4,20 C18.3,20.6 17.2,21.3 16.3,22.2 C16.1,22.4 15.9,22.6 15.7,22.8 C15.6,23 15.4,23.2 15.2,23.4 C15,23.6 14.8,23.9 14.6,24.1 C14.5,24.3 14.5,24.3 14.5,24.4 C14.4,24.4 14.4,24.5 14.4,24.6 C14.3,24.7 14.2,24.9 14.1,25 C14,25.2 13.9,25.3 13.9,25.3 C13.8,25.3 13.7,25.4 13.6,25.4 C13.5,25.3 13.4,25.3 13.3,25.2 C12.9,24.9 12.8,24.3 12.8,23.7 C12.8,22.8 13.2,21.8 13.5,21.2 C14.2,19.8 15.2,18.3 16.4,17.2 C17.8,16 19.2,15.1 21,14.5 C22,14.1 23.2,13.7 24.4,13.8 C25.2,13.8 26,14 26.7,14.6 C27.1,15 27.3,15.6 27.3,16.1 C27.3,16.7 27.1,17.2 26.7,17.6 Z M54.7,24.6 C54.6,24.7 54.6,24.8 54.5,24.8 C54.4,24.8 54.3,24.8 54.2,24.8 C54.1,24.8 54,24.8 54,24.7 C53.9,24.7 53.9,24.6 53.9,24.5 C53.3,22.2 52.3,20.5 50.1,19.4 C49.1,18.8 47.8,18.5 46.7,18.2 C46.3,18.1 46,18.1 45.6,18 C44.5,17.9 43.4,17.7 42.6,16.8 C42.2,16.2 42,15.5 42.1,14.9 C42.2,14.3 42.5,13.7 43.2,13.4 C44.8,12.6 46.8,13.4 48.4,14.1 C48.5,14.1 48.6,14.2 48.7,14.2 C50.3,14.9 51.8,15.8 52.9,17 C53.9,18 54.8,19.5 55.1,21 C55.4,22.3 55.3,23.6 54.7,24.6 Z" id="🖍-Ink"></path></g><g id="facial-hair/Full" transform="translate(29.2, 80.1)" fill="currentColor"><path d="M28,22.6 C29.9,18.1 34.1,14.8 38.9,13.6 C42.5,12.7 46.2,12.7 49.8,13 C51.7,13.2 53.7,13.4 55.5,14.1 C57,14.7 58.3,15.8 59.2,17.1 C60.3,18.7 61.1,20.5 61.6,22.4 C61.7,22.6 61.8,22.9 61.8,23.2 C61.6,24.6 61.1,25.8 59.8,26.6 C58.5,27.5 57,27.8 55.5,28 C55.4,27.9 55.2,27.8 55.1,27.8 C52.8,26.4 51.1,23.3 48.2,23.7 C45.5,24.1 43.8,27.4 42.2,29.3 C37.2,29.9 32.1,28.4 28,25.5 C27.8,24.5 27.8,23.5 28,22.6 M65.3,19.2 C64.8,18 64.3,16.9 63.7,15.9 C61.7,12.5 58.7,9.8 55.1,8.2 C46.5,4.6 35.4,7.1 28.5,13.2 C26.1,15.2 23.7,18.2 23,21.5 C22.8,21.5 22.6,21.6 22.4,21.8 C17.4,18.6 12.2,15.6 8.2,11.3 C5.3,8.1 3.2,4.3 2,0.2 C1.9,-0.1 1.3,-0.1 1.4,0.3 C1.4,0.4 1.4,0.5 1.4,0.6 C1.3,0.4 1.1,0.5 1,0.7 C0.4,5.7 -0.5,11 0.3,16 C0.8,19 2.1,21.2 4,23.6 C5.9,26.1 8.1,28.5 10.4,30.7 C11.8,32.2 13.3,33.8 15.1,34.9 C17.1,36.1 19.5,37.1 21.7,38 C23.9,39 26.1,39.9 28.4,40.6 C33,42.2 37.8,43.3 42.6,43.7 C46.5,44.1 50.9,44.5 54.6,43.1 C57.4,41.9 59.7,39.9 61.6,37.5 C63.5,34.9 65.1,31.9 66,28.7 C66.9,25.4 65.4,19.7 65.3,19.2" id="🖍-Ink"></path></g><g id="accessories/*-None" transform="translate(11.2, 57.1)"></g></g></g></g></g></svg>