<svg viewBox="0 0 213 694" version="1.1" xmlns="http://www.w3.org/2000/svg" xmlns:xlink="http://www.w3.org/1999/xlink"><g id="Introduction" stroke="none" stroke-width="1" fill="none" fill-rule="evenodd"><g id="variations-standing" transform="translate(-3484, -103)"><g id="a-person/standing" transform="translate(3437, 50)"><g id="pose/standing/shirt-1" transform="translate(-28.7, 150.3)"><path d="M234.8,367.8 C234.1,374.4 231.7,388 230.5,394.6 C230.1,396.6 229.9,397.9 229.8,398.4 C223.1,433.4 220.4,469 219.1,504.6 C218.7,509.2 218.9,513.8 219.7,518.4 C219.8,518.6 219.8,518.9 219.8,519.1 C220.1,519.1 220.3,519 220.5,519 C230,517.5 236.3,524.3 242.5,530.8 C244.9,533.4 247.3,535.9 249.7,537.9 C255.7,543.2 262.2,547.9 268.9,552.2 C271.7,553.8 274.9,555.7 277,558.2 C278.4,560 279.4,562 279.4,564.5 L279.3,565.3 L280.2,565.2 C280.4,565.1 280.6,565.1 280.8,565.2 C281,565.3 281.1,565.5 281.2,565.6 C281.6,566.5 281.6,567.7 281.7,568.7 C281.7,569 281.7,569.2 281.7,569.4 C281.8,572.3 280.4,574.2 278.4,575.6 C275.3,577.6 270.7,578.2 267,578.8 C266.3,578.9 265.6,579 265,579.1 C242,581.6 218.6,575.3 197.3,566.9 C197.2,566.9 197.2,566.9 197.1,566.8 C197.1,566.8 197,566.8 196.9,566.9 C195.2,567.1 193.8,566.2 192.6,564.9 C191,563.1 190,560.4 189.7,558.4 C189.5,557.4 189.7,556.5 189.8,555.6 C189.9,554.4 190.1,553.2 189.7,552.1 C186.8,545.4 186.4,538.1 186.8,531 C186.7,522.2 188.7,519.7 190.4,517.8 C191.7,516.1 192.9,514.8 192.5,511 C192.4,510.5 192.3,506.9 192.4,505.1 L192.9,505 C192,492.5 188.9,480 185.7,467.5 C180.5,447.2 175.3,427 180.3,406.2 C181.9,399.8 185,394.2 188.1,388.5 C190.1,384.9 192.1,381.2 193.7,377.4 C193.7,377.3 193.7,377.3 193.8,377.2 C193.8,377.1 193.7,377.1 193.7,377 C193.4,375.4 193.8,373.8 194.2,372.2 C194.5,370.7 194.8,369.2 194.7,367.7 C194.7,364.9 194.2,362.2 193.6,359.5 C193.5,359.3 193.5,359.2 193.5,359 C193.3,359 193.2,359 193.1,358.9 C190.4,358.2 187.8,357.2 185.3,356 L184.6,355.6 L184.3,356.3 C184.2,356.5 184.1,356.7 183.9,356.8 C183.7,357 183.5,357 183.3,357 C183.1,357 182.8,357 182.6,356.9 C182.5,356.8 182.3,356.7 182.2,356.5 C181.9,355.3 182.3,354.1 182.5,352.9 C182.7,352.1 182.9,351.3 183,350.5 C183.1,350 183.2,349.5 183.2,349 C183.5,347.4 183.7,345.5 184.6,344.4 C184.8,344.1 185.1,343.8 185.5,343.7 C185.8,343.6 186.3,343.6 186.8,343.7 C187.1,343.8 187.3,343.9 187.5,344 C187.6,343.7 187.6,343.4 187.6,343.1 C189,330.4 189.2,317.6 188.5,304.9 C188.4,303.9 188.4,302.9 188.3,301.9 C187.9,302.8 187.5,303.7 187.1,304.6 C184.8,310.1 182.8,315.7 180.8,321.4 C178,329.3 175.2,337.2 171.6,344.6 C171.5,344.7 171.5,344.8 171.4,344.9 C171.5,345 171.5,345.1 171.6,345.2 C171.7,345.4 171.7,345.6 171.7,345.7 C171.6,345.9 171.5,346.1 171.4,346.2 C170,347.5 169.3,349.3 168.7,351 C168.6,351.1 168.6,351.2 168.6,351.3 C168.1,352.8 167.2,354.3 166.1,355.4 C165.1,356.4 163.9,357.1 162.4,357.4 C162.3,357.4 162.1,357.4 162,357.4 C162,357.6 161.9,357.7 161.9,357.9 C161.7,358.7 161.5,359.5 161.3,360.3 C159,370.1 155.6,384.7 149.5,395.5 C145.6,402.5 140.5,407.8 133.9,409.1 C133.4,409.1 132.9,409.2 132.4,409.3 C132.8,409.5 133.2,409.7 133.4,410.1 C134.2,411.4 133.4,413.1 132.8,414.6 C132.5,415.6 132.2,416.5 132,417.3 C131.4,419 130.9,420.9 130.4,422.7 C129.4,426 128.5,429.4 126.8,432.5 C126.8,432.6 126.7,432.7 126.7,432.8 C126.7,432.9 126.8,433 126.8,433.1 C126.9,433.2 126.9,433.4 126.9,433.6 C126.9,433.7 126.8,433.9 126.8,434 C126.9,434.1 127.1,434.1 127.2,434.2 C127.9,434.7 128.4,435.3 128.6,436.1 C128.9,437 128.8,438.1 128.5,439.1 C128.2,440.2 127.7,441.2 126.9,441.9 C126.3,442.5 125.6,442.9 124.7,443 C124.7,443 124.6,443 124.5,443 C124.5,443 124.5,443 124.4,443 C124,443.3 123.5,443.4 123,443.4 L122.8,444.8 C123,444.9 123,445 123,445 C122.2,453.7 120.2,462.1 118.1,470.5 C117.8,472.1 117.4,473.6 117,475.2 C116.3,477.7 115.7,480.2 115.2,482.8 C114.3,487 113.5,491.2 111.7,495.1 C111.7,495.2 111.6,495.3 111.6,495.4 C111.6,495.5 111.7,495.6 111.7,495.6 C112.6,497.7 112.4,500.2 112,502.3 C111.3,503.1 109.9,503.1 108.8,503.1 C108.4,503.1 108,503.1 107.6,503.2 C107.4,503.2 107.2,503.2 106.9,503.3 C106.9,503.5 107,503.7 107,504 C107.5,507.7 107.5,511.5 107.5,515.3 C107.5,517.5 107.5,519.6 107.6,521.8 C107.6,522 107.6,522.3 107.6,522.5 C107.8,522.5 108.1,522.5 108.3,522.5 C110.7,522.3 112.4,523.3 113.6,524.9 C115.5,527.3 116.4,530.9 117.1,534 C117.3,534.9 117.5,535.7 117.7,536.4 C119.2,541.5 121.2,546.5 123.2,551.4 C125.8,558 128.4,564.6 130,571.6 L130.2,572.7 L131.1,572 C131.2,572 131.3,571.9 131.4,571.9 C131.5,571.9 131.6,572 131.7,572 C134.8,573.9 134.9,577.8 135,581.1 C135,581.4 135,581.6 135,581.9 C135,582.6 135.1,583.4 135.1,584.1 C135.2,585.9 135.5,587.9 134,589.1 C123.1,596.5 108.4,596.3 95.9,594.3 C90.9,593.4 86,591.9 81.3,589.8 C79.6,589.2 78.3,588.6 77.5,587.5 C76.8,586.7 76.5,585.5 76.6,583.9 C76.3,581 76.6,578.2 76.8,575.4 C77.1,572.9 77.3,570.5 77.2,568.1 C77.5,558.7 79.7,549.4 81.8,540.2 C81.9,539.9 82,539.5 82.1,539.1 C82.2,538.7 82.3,538.3 82.4,537.9 C84.1,532.8 86,526.4 90.7,523.5 C90.8,523.5 91,523.5 91.2,523.5 C91.9,523.4 92.6,523.4 93,523.1 C93,523.1 93,523.1 93.1,523.1 L92.8,524 L94.2,523.4 C94.5,523.3 94.8,523.2 95.2,523.1 C95.3,523.1 95.4,523.1 95.5,523.1 C95.6,523 95.6,522.8 95.7,522.7 C97.6,518.8 98.5,514.6 99.3,510.3 C99.9,507.7 100.4,505 101.2,502.5 C101.3,502.3 101.4,502 101.4,501.8 C101.2,501.8 101,501.7 100.8,501.6 C98.6,500.8 96.6,499.1 96,496.8 C96.1,496.1 96.4,495.4 96.9,494.9 C97.2,494.5 97.7,494.2 98.2,494.2 L99.2,494.1 L98.8,493.2 C98.5,492.3 98.4,491.3 98.5,490.3 C100.4,479 102.8,467.7 105.5,456.5 C106.5,452.3 107.6,448.2 108.8,444.1 C109,443.6 109.1,443 109.3,442.5 C109.5,441.3 109.8,440 110.7,439.2 C110.9,439.1 111.1,438.9 111.4,438.8 C111.2,438.6 110.9,438.4 110.7,438.2 C108.9,436.4 107.3,434.2 107.3,431.7 C107.2,430.6 107.7,429.6 108.4,428.9 C108.7,428.7 109,428.5 109.3,428.4 L110.4,429.1 C110.7,429.3 111,429.5 111.3,429.7 C111.5,429.8 111.7,430 111.9,430.2 L114.7,432 L112.9,429.2 C111.5,427 112.2,424.2 112.8,421.8 C112.9,421.1 113.1,420.4 113.2,419.8 C113.4,419.1 113.5,418.4 113.7,417.8 C114.6,413.6 115.5,409.5 117,405.6 C117.1,405.4 117.2,405.3 117.2,405.1 C117.1,405 117,404.9 116.9,404.8 C110.7,399.4 108.3,392.9 108,385.8 C107.5,375.6 111.4,364.5 114.8,354.6 C115.7,352 116.5,349.6 117.3,347.3 C117.3,347.1 117.4,346.9 117.4,346.8 C117.3,346.7 117.1,346.6 117,346.5 C116.2,345.9 115.2,345.3 114.1,344.7 C111.6,343.3 108.6,341.8 108.2,339 C108.3,337.4 108.9,335.9 109.5,334.4 C109.7,333.8 109.9,333.2 110.2,332.6 C110.3,332 110.8,331 111.4,330.6 C111.5,330.6 111.7,330.5 111.8,330.5 C111.9,330.5 112.1,330.6 112.2,330.7 L113,331.6 L113.4,330.5 C113.6,329.9 113.7,329.3 113.9,328.7 C117.5,317.3 121.1,305.8 120.7,293.8 C120.7,293.6 120.7,293.4 120.7,293.3 C120.6,293.2 120.4,293.2 120.2,293.1 C119,292.8 117.7,292.9 116.5,293.1 C114.9,293.2 113.4,293.4 112,292.4 C99.3,282.7 100.7,258 101.7,243.6 C101.8,243.4 101.8,243.2 101.8,243 C101.6,243 101.4,242.9 101.3,242.8 C100.7,242.6 100.1,242.4 99.6,242.1 L99.2,241.8 L98.8,242.1 C98.6,242.2 98.5,242 98.4,241.9 C97.9,241.4 97.4,240.4 96.9,239.3 C95.2,235.1 93.6,228.3 93.2,226.3 C93.2,226.3 93.1,226.2 93.1,226.2 C83.9,184.4 87.4,141.3 90.9,98.9 C91.1,95.9 91.4,92.9 91.6,89.8 C92.4,84.3 92.7,78.6 92.9,72.8 C93.5,61.1 94.1,49.4 98.7,38.6 C101.8,30.7 110.5,28.9 117.9,27.3 C118.1,27.2 118.3,27.2 118.5,27.1 C122.4,26 126.3,25.1 130.1,24.2 C136.1,22.8 142,21.5 147.7,19.3 C148,19.1 148.3,19 148.6,18.9 C148.3,18.7 148.2,18.4 148,18.2 C147,16.8 146.6,15 146.7,13.2 C146.8,11.4 147.4,9.5 148.5,8.1 C148.9,7.8 149.4,7.8 150,7.9 C151,8 152,8.6 152.8,9.1 C152.9,9.1 153,9.2 153.1,9.2 L153.7,9.6 L154.1,8.9 C155.4,6.4 156.3,3.6 157.2,0.9 C157.7,-0.7 158.3,-2.2 158.8,-3.7 C160.6,-7.5 163.7,-9.4 167.3,-10.1 C172.7,-11.1 179.1,-9.7 184.1,-8.4 C184.3,-8.4 184.5,-8.4 184.6,-8.3 C187.2,-7.7 189.9,-7 191.9,-5.4 C195.4,-2.7 196.2,1.6 196.9,5.9 C197.3,8 197.7,10.1 198.4,12.1 C198.5,12.3 198.6,12.5 198.7,12.7 C198.9,12.6 199.1,12.6 199.3,12.5 C202,11.9 208.1,15.5 210.1,17.4 C210.7,17.7 210.9,18.1 211.1,18.5 C211.3,19.2 211.2,19.9 211.2,20.7 C211.1,21 211.1,21.4 211.1,21.7 C211.1,21.9 211.1,22.1 211.1,22.3 C211.3,22.3 211.5,22.4 211.7,22.4 C212.9,22.7 214.2,22.9 215.4,23.1 C224.5,24.8 234.4,26.6 241.4,31.6 C246.4,35.1 249.9,40.1 250.7,47.8 C253.3,58.9 254.7,70.1 256,81.4 C256.2,82.9 256.3,84.3 256.5,85.8 C258.6,103.8 260.6,121.9 266.2,139.3 C266.8,140.6 267.3,141.9 267.9,143.2 C276.2,163.5 284.8,184.1 286.8,206.3 C287.9,216.8 287.7,227.5 285.9,238 C285.8,238.6 285.3,238.9 284.8,239.2 C284.3,239.4 283.6,239.4 283.1,239.1 L280.4,237.4 L282.1,240.1 C285.7,245.7 282.7,255.6 280.6,262.6 C280.3,263.6 280.1,264.6 279.8,265.5 C278.3,270.6 275.7,276.2 271.8,279.2 C270.3,280.3 268.6,281.1 266.6,281.3 C264.8,281.4 262.9,281.1 260.7,280.1 C260.4,280 260.1,279.9 259.9,279.8 C259.8,280.1 259.8,280.4 259.7,280.6 C255.4,301.5 250.6,322.2 244.9,342.8 L244.1,345.7 L246.1,343.5 C246.4,343.1 246.8,342.9 247.2,342.8 C247.6,342.8 248,342.8 248.4,343 C248.9,343.2 249.3,343.6 249.6,344 C249.9,344.4 250.1,344.9 250.2,345.4 C250,348.2 249.1,350.9 248.2,353.6 C247.7,355.1 247.2,356.5 246.9,357.9 C246.5,359.4 245.6,360.4 244.4,360.9 C242.7,361.8 240.5,362 238.3,362.1 C237.2,362.2 236.1,362.3 235.2,362.4 C235,362.5 234.9,362.5 234.7,362.5 C234.7,362.7 234.6,362.8 234.6,362.9 C234.3,363.9 234.1,364.9 233.8,365.9 C233.6,366.7 233.4,367.5 233.2,368.3 L234.6,368.7 C234.7,368.4 234.8,368.1 234.8,367.8 L234.8,367.8 Z M128.6,243.4 C128.6,237.4 130.8,231.7 132.9,226.1 C133.8,223.7 134.6,221.4 135.4,219 C135.4,218.9 135.5,218.7 135.5,218.6 C135.4,218.5 135.3,218.4 135.2,218.3 C134.6,217.8 134,217.3 133.3,216.9 C132.3,216.3 131.3,215.7 130.7,214.8 C130.4,214.3 130.2,213.7 130.3,212.9 C130.7,206.7 131.1,200.5 131.6,194.3 C131.7,193 131.8,191.7 131.9,190.4 C134.1,167.1 136.2,143.6 132,120.5 C131.8,119.5 131.6,118.4 131.4,117.4 C131.2,116.7 131.1,116 131,115.3 C130.9,115.2 130.9,115 130.9,114.9 C130.8,114.1 130.6,112.9 130.2,112 C129.8,111.2 129.3,110.7 128.6,110.6 C128.4,110.6 128.2,110.6 127.9,110.6 C127.9,110.8 127.8,111 127.8,111.1 C120.8,139.9 122.6,169.3 124.3,198.6 C125.1,212.1 126,225.5 125.9,238.9 C125.9,239.1 125.9,239.2 125.9,239.3 C126,239.4 126.1,239.4 126.1,239.5 C126.3,239.6 126.4,239.9 126.3,240.1 C126.3,240.3 126.1,240.6 125.9,240.7 C125.8,240.8 125.7,240.8 125.6,240.8 C125.6,240.9 125.5,241.1 125.5,241.2 C125.4,241.8 125.2,242.3 125.1,242.9 C125,243 125,243.2 124.9,243.3 C125,243.4 125.1,243.5 125.2,243.6 C126,244.3 126.7,245 127.4,245.6 L128.7,246.8 L128.6,245.1 C128.6,244.5 128.6,243.9 128.6,243.4 Z" id="🎨-Background" fill="#FFFFFF"></path><path d="M158.3,-3.8 C160.2,-2.3 158.2,8.5 156.7,10.7 C166.8,17.2 177,23.5 187.4,29.4 L188.5,30 L188.5,30 C188.9,30.2 189.6,30.4 190,30.3 L190.4,30.2 C190.4,30.2 190.4,30.2 190.4,30.2 C190.6,30.1 190.7,30 190.9,29.9 L191,29.8 C194.1,26.9 196,22.6 198.4,19.1 C194.4,15.6 196.4,8.8 196.5,4.2 C197.3,4.1 197.4,6.5 197.6,7.2 L197.7,7.6 C198,9.2 198.3,10.9 198.9,12.4 C200.6,10.2 209.3,15.3 210.9,17 C212.7,18.1 212.1,20.1 212.1,21.9 C228.5,25 249.5,27.3 251.7,47.9 C254.3,58.9 255.7,70.2 257,81.4 L257.1,82.6 C259.4,102.2 261.3,122 267.7,140.7 L269.9,145.9 C275.2,158.6 280.5,171.4 283.9,184.8 C286.4,190.4 293.4,244 283,239.8 C286.5,245.6 283.9,253.2 282.6,259.4 C280.1,269.7 274.6,286.9 260.7,280.9 C256.4,301.8 251.5,322.6 245.8,343.1 C247.7,341 250.9,342.9 251.2,345.5 C251.1,348.9 249.5,352.1 248.7,355.4 L248.6,355.7 C247.5,360.4 245.8,362.6 240.6,362.7 C226.1,364.6 211.2,364 196.9,360.7 C201.9,378.2 186,391.7 182.6,407.8 C175.6,440.6 193.4,472 195.7,504.4 C196,507.2 196.3,510 196.6,512.9 C196.6,515.8 197.7,519.4 196.2,521.9 C197.6,525.4 201,528.3 204.7,529.1 C211.6,529.9 212.5,520.7 218.5,519 C216.2,508.2 215.3,497.2 216.1,486.2 L216.3,483.8 C218.8,443.5 222.4,402.5 235.7,364.2 C235.8,363.8 236.3,364 236.3,364.3 C230,406 221.6,447.4 220.8,489.7 C220.8,499.2 219,508.9 220.7,518.4 C234,516.3 241.4,530.2 250.5,537.4 C256.4,542.7 262.9,547.5 269.6,551.7 L270,551.9 C274.8,554.7 280.4,558.5 280.3,564.6 C283.5,564.1 282.7,571 282.2,572.8 C281.5,574.8 279.6,576 277.8,576.9 C251.4,585.8 222.4,577.2 197.3,567.7 C192.9,568.3 189.8,562.5 189.3,558.6 C188.8,556.5 189.9,554.5 189.3,552.4 C186.3,545.7 185.9,538.3 186.4,531.1 C186.1,515.9 192.2,519.2 192.1,512.2 L192,511 C191.9,508.1 191.7,501.7 192.5,505.2 C190.1,471.5 171,438.3 180.4,404.3 C183.2,394.6 189.4,386.6 193.3,377.3 C192.7,374.2 194.5,371 194.3,367.8 C194.3,365.1 193.7,362.4 193.1,359.7 C190.4,359 187.8,358 185.3,356.7 C184.4,358.7 181.2,358 181.7,355.5 L182.5,350.5 L182.5,350.5 L182.6,350.3 C183.1,347.6 183.2,342.2 187.2,343.2 C188.5,330.5 188.8,317.7 188.1,305 C182.5,318.1 178.7,332.4 172.5,345 C172.8,345.6 172.8,346.3 172.1,346.9 C168.7,350.8 169.3,356.9 162.8,358.2 C158.4,375 153.8,404.8 134.3,409.9 C135.6,411.9 133.3,415.3 133,417.6 C131.2,422.7 130.3,428 127.8,432.9 C127.8,433.2 127.9,433.4 127.9,433.8 C131.7,436.1 129.2,443.6 125,443.8 C124.6,444.1 123.9,444.2 123.3,444.2 C123.7,444.3 124,444.7 123.9,445.2 C123.1,455.5 120.3,465.5 118,475.5 C116,482.1 115.5,489.3 112.6,495.5 C113.6,497.7 113.4,500.3 112.9,502.6 C112.1,504.2 109.5,503.8 108,504 C108,504 108,504 108,504 C108,504 108,504 108,504 C108.8,509.9 108.3,516 108.5,521.9 C116.1,521.5 117.2,530.9 118.7,536.4 C122.2,548.3 128.2,559.3 130.9,571.6 C131.3,571.3 131.8,571.2 132.3,571.5 C136.8,574.4 135.8,580.5 136.1,585.1 C137.2,593.2 121.9,595 116,595.9 C102.9,597.2 88.7,595.2 77.3,588.4 C75.1,585.6 76.2,575.4 76.9,571.6 C76.2,561 79.2,550.5 81.4,540.1 L81.6,539.4 C83.3,533.6 85.3,526.3 90.6,523 C91.2,522.8 93.6,523 93.3,522.1 L93.3,522 C93.1,521.7 93.6,521.4 93.9,521.7 C94.4,522.2 94.3,522.9 93.9,523.5 C93.2,524.3 92.1,524.1 91.3,524.6 C88.2,527.8 87,532.7 85.5,536.8 C86.6,536 87.7,535.2 88.8,534.4 C88.6,534.2 88.5,533.9 88.4,533.6 C87.2,532.4 90.4,528.4 90.9,526.9 C91.4,526 92.4,526.1 92.9,526.6 C98.1,519.6 98.4,510.5 100.8,502.4 L100.7,502.3 C98.3,501.4 95.1,498.8 95.7,496.2 C96.2,495 97,493.7 98.4,493.6 C98.1,492.6 98,491.5 98.1,490.3 C100,479 102.4,467.7 105.1,456.5 C106.1,452.2 107.2,448 108.4,443.9 L108.7,443 C109,441.9 109.4,439.7 110.5,438.8 C107.7,436.2 104.8,431 108.6,428.2 C110,426.9 113.4,428.6 111.1,428.6 C111.6,429 112.1,429.4 112.6,429.7 C110.7,426.8 112.2,422.9 112.8,419.8 L112.9,419.1 C114,414.5 114.9,409.8 116.7,405.4 C99.2,390.3 111.1,365.3 116.9,347.2 C113,344.7 105.6,342.1 108.4,336.2 C109.2,334.6 110.3,328.3 113,330.4 L114.2,326.4 C117.5,315.9 120.6,305.1 120.3,293.9 C117.7,293.3 115.4,294.6 112.9,293.7 C98.8,285 100.2,258.3 101.3,243.6 C100.7,243.4 100.1,243.2 99.5,242.8 C99,243.2 98.3,243.2 98,242.6 C97.3,240.9 96.3,239.2 95.7,237.5 C79.3,181.2 89.8,121.9 93.1,64.6 C94.4,52.8 94.4,36.8 106.1,30.3 C110,28.4 114.5,27.6 118.7,26.6 C128.3,23.7 138.3,22.4 147.7,18.7 C145.5,15.7 146,11.3 147.8,8.3 C149.3,6.1 152,7.8 153.7,8.7 C155.7,4.7 157,0.5 158.3,-3.8 Z M131.5,574.2 L131.6,575.1 C131.9,577.1 132.2,579.1 132.1,581.1 C132.7,581.5 133,582.2 133.1,582.8 C133.1,583.7 132.7,584.5 131.7,584.8 C115.6,588.9 97.7,589.8 82.5,582.5 C80.1,581.7 78.8,579.7 78.1,577.4 C78.3,580 77.8,584.9 79.3,586.9 C90.5,592.7 103.5,595 116,593.6 C121.7,592.9 127.6,591.4 132.4,588.1 C133.9,587.4 133.3,585.7 133.3,584.4 C132.9,581.1 133.9,576.8 131.5,574.2 Z M108.6,533.6 C100.8,529.7 91.9,534.6 85,538.5 C82.9,549.9 77.6,567.6 82.8,578.2 C96.3,585.5 112.5,584.9 127.2,581.7 C127.4,581.5 127.6,581.4 127.8,581.3 C127.8,581.3 127.9,581.2 127.9,581.2 C127.9,581.2 127.9,581.2 127.9,581.2 L128,581.1 C128,581.1 128,581.1 128,581.1 C128,581.1 127.9,581.1 127.9,581.2 L127.9,581.1 L127.9,581.1 C127.9,581.2 128,581.1 128,581.1 L128.1,581 C128.2,580.9 128.1,581 127.9,581.1 C128,581 128,580.8 128.1,580.6 C128.1,580.6 128.1,580.6 128.1,580.6 C128.3,573.1 125.5,565.6 123.2,558.5 C122.4,556.4 121.6,554.2 120.8,552.1 C118.9,549.9 117.9,546.9 116.7,544.4 L116.6,544.2 C114.7,540.3 112.4,536.1 108.6,533.6 Z M191.5,556.4 C190.8,563.9 198.1,566.9 204,568.7 C210.7,571 217.6,573 224.4,574.7 C238.5,578.3 253.2,579.9 267.6,577.6 L268,577.6 C272.2,576.8 279.5,575.9 280.4,571.2 L280.4,571.1 C280.5,570.4 280.6,567.3 280.3,566.5 C280.2,566.5 280.1,566.5 280,566.5 C278.8,570.3 274.4,572.7 270.2,573.3 C268.2,575.3 264.5,574.5 261.8,574.6 C244.3,574.5 227.4,569 210.7,564 C205.4,562.1 194.8,560.8 191.5,556.4 Z M193.3,515.1 C193.2,515.8 192.8,516.5 192.4,517.1 C192.7,517 194,517.9 193.1,517.8 C190.1,516.2 189.3,525.4 189,527.3 C188,536.1 188.1,549.8 195.2,556.1 C202.7,559.3 210.7,560.7 218.4,563.2 L220.2,563.8 C234.8,568 249.8,572 265.1,571.4 C266.3,569.1 273.5,571 276.3,566.9 C280.1,560.4 270.6,556.2 266.1,553.4 C257.5,547.9 249.5,541.5 242.3,534.3 C238.9,530.9 235.7,527 231.7,524.3 L231.5,524.2 C228.1,521.9 223.7,520.5 219.7,522 C215.8,523.4 214.3,527.9 211,530.2 C203.9,535.1 195.2,527 193.9,520.2 C193.5,518.5 193.4,516.8 193.3,515.1 Z M108.6,522.9 C108.6,524.2 108.6,525.6 108.7,527 C110.7,527.3 111.5,529.7 112.4,531.4 C113.7,533.1 114.4,535.1 115.9,536.7 C115.4,534.3 115,531.8 114.5,529.4 C113.8,526.2 112,523.3 108.6,522.9 Z M94.8,531.2 C94.2,531.3 93.7,531.3 93.2,531.4 L93,531.6 L93,531.6 L92.9,531.7 C92.7,531.9 92.6,532.1 92.4,532.3 C93.2,531.9 94,531.5 94.8,531.2 Z M101.8,502.8 C101.2,508.4 100.7,514 99.4,519.5 C98.7,522.3 97.6,524.9 96.1,527.2 C99.1,528.3 102.4,528 105.4,527.5 L105.4,525.5 C105.3,518.3 105.4,510.8 107.7,504 C105.7,503.9 103.7,503.5 101.8,502.8 Z M110.4,497.4 C110.3,497.5 110.1,497.6 110,497.6 C110.6,498.7 110.3,500.3 109.9,501.4 C110.2,501.4 110.4,501.3 110.6,501.3 C110.8,500 110.6,498.7 110.4,497.4 Z M111.6,439.8 C109.5,448.2 108,456.8 106.1,465.2 C104.6,472.4 103.1,479.7 101.8,487 L101.5,488.5 C101.3,489.8 100.6,491.9 101.6,493 C102.5,493.9 104.4,494.4 105.6,494.7 C108.5,495.7 110.9,494.5 111.3,491.3 C114.8,476.2 119.8,461.3 121.6,445.8 L121.7,445.2 C121.7,444.7 122.1,444.4 122.5,444.2 C118.4,444.2 114.6,442.4 111.6,439.8 Z M124.6,435.6 L124.6,435.5 L124.5,435.6 L124.5,435.6 L124.5,435.6 L124.5,435.6 L124.6,435.6 Z M117.3,405.9 C116.6,410.3 115.7,414.5 115,418.9 L114.8,420.1 C114.2,423.8 112.6,428.1 116.6,430.5 C122.2,435.4 125.9,434.4 127.5,426.9 C129,422.3 130.4,417.6 131.8,412.8 L132.1,411.7 C132.3,411.1 132.5,410.5 132.9,410.1 C127.4,410.8 121.7,409.2 117.3,405.9 Z M117.8,347.7 C116.1,357.7 112.7,367.3 110.9,377.3 C106.5,394.3 121.3,414.9 139.3,404.6 C149.9,396.7 152.6,382 156.7,370.2 C157.8,366.3 158.6,362.5 159.3,358.5 C144.9,358.4 130.5,354.6 117.8,347.7 Z M194.9,360.2 C195.5,361.3 196,362.5 196.3,363.8 C196.5,362.8 195.9,361.5 196.3,360.6 C195.8,360.5 195.3,360.3 194.9,360.2 Z M187.1,343.8 C186.8,343.8 186.4,344 186.1,344.3 C186.9,348 185.7,351.9 185.5,355.7 C204.1,359.9 223.3,362.7 242.3,359.4 C245.8,359.4 245.6,353.4 246.8,350.8 C247.2,349.1 248.2,347.3 248,345.5 C247.8,345.2 247.6,345.3 247.8,345.2 L247.8,345.2 L247.8,345.2 C246.8,346 245.1,345.1 245.3,344 L245.3,344 C245.1,344.1 244.9,344.2 244.7,344.2 C246,345.4 244.8,347.7 243,347.1 C226.5,353.6 203.4,352.2 187.5,345.2 C187.1,344.9 187,344.3 187.1,343.8 Z M112.8,331 C112,330.3 111.7,334 111.5,334.6 C111.4,336.1 110.7,337.6 110.8,339.1 C123.4,349.9 143.7,354.9 160.2,355.1 C160.7,354.7 161.4,354.7 162,354.9 C164.5,354.6 165.7,352.2 166.5,350 L166.6,349.6 C167,348.6 167.4,347.6 167.9,346.7 C149.3,347.3 130.2,343.7 113.9,334.4 C111.7,334.6 112.2,332.5 112.8,331 Z M123.2,242.8 C116.4,245.2 109,245.7 102.1,243.9 C103.6,255.3 105.1,282.5 114.9,289.1 C116.5,288.8 118.2,288.7 119.8,288.9 C120.8,289 121.8,289.1 122.8,289.3 C123.2,289.3 123.9,289.4 124.4,289.4 L124.5,289.3 C124.3,289.4 124.2,289.4 124.5,289.3 L124.6,289.3 L124.7,289.3 C128,289 131.1,284.3 134.4,286.5 C134.9,285.8 135.7,285.3 136.3,284.7 C138.8,280.2 136.1,274.5 137.8,269.8 C137.1,269 137.4,267.6 138.4,266.9 C139.9,265.5 143.3,266.5 144.2,264.5 C144.1,264.6 144.1,264.4 144.1,264.4 L144.1,264.4 L144,264.2 C137,258.5 130.3,252.1 125.8,244.1 L125.6,243.9 C124.8,244.7 123.3,244.1 123.2,242.8 Z M281.5,238.9 C276.5,241.7 271.1,243.6 265.6,244.7 C264.6,255.1 263.4,265.5 261.6,275.8 C264.3,276.1 267.1,277.2 269.5,275.3 C276.3,268.7 278.7,255.5 281.4,246.6 L281.5,246.2 C282.1,244 282.7,241 281.5,238.9 Z M212.1,22.6 C211.4,26.1 215.3,64.8 208.1,58.2 C203.3,50.6 197.8,43.5 192.8,36 C192.1,38.7 194.1,41.9 193.2,44.2 C205.8,107.2 214.9,171.2 218.3,235.4 C223.9,239.3 228.8,244 233.5,248.8 C235,250.1 236.1,252.1 238,252.9 C245.7,244.2 254.6,236.6 262.7,228.3 C262.6,227.9 262.6,227.5 262.5,227 C262.3,225.5 264.4,224.7 265.1,225.7 C267.9,222 268.2,210.3 267.6,205.4 C266.4,194.5 262.3,184 259.4,173.4 C251,141.1 245.1,107.2 247.9,73.8 C247.9,73.5 248.3,73.4 248.4,73.8 C250.7,109.1 254.2,144.5 264.9,178.5 L265.1,179.4 C269.3,193.1 274.4,207.6 270.9,222 C271.2,224 270.2,225.9 268.8,227.3 C268.1,229.2 267.2,231.1 266,232.8 C266.3,235.7 266.2,238.7 265.8,241.7 C271.6,240.6 276.9,238.3 282,235.5 C282.3,233.8 282.5,232.2 282.7,230.5 C286.5,199.8 275,169.9 263.4,142 C252.4,109.5 254.5,74.2 245.3,41.4 C239.5,28.5 223.6,27.5 212.1,22.6 Z M149.6,20.2 C146.9,21.2 144.1,22.3 141.1,22.4 C132.2,25.4 123.1,27.7 114,30.1 L113.2,30.4 C109.3,31.4 105.4,32.6 102.8,35.9 C100.3,39 99.3,43 98.4,46.8 C94.6,80.2 92.5,113.9 90.5,147.4 C89.6,175.4 90.1,203.8 97.3,231 C98.3,234.7 99.5,238.4 99.9,242.3 C100.4,242.3 101,242.3 101.5,242.4 C101.5,242.1 101.9,242.1 101.9,242.4 C108.8,243.5 116,242.8 122.6,240.1 C120.9,191.2 110.5,138.1 134.2,92.6 C134.3,92.5 134.6,92.6 134.5,92.8 L133.9,94.5 C132.1,99.9 130.2,105.3 128.9,110.9 C130.8,110.6 132.2,115.1 132.5,116.1 C142.8,147.3 136.5,180.6 135.2,212.6 C138.7,215.1 142.2,217.7 145.7,220.2 C160,230.4 174.4,240.4 189.1,249.9 C197.5,244.5 205,237.4 213.6,232.5 C211.1,166.3 197.6,100.9 190.2,35.6 C187.5,39 184.7,42.3 182,45.7 C178.4,50 175,54.5 171.4,58.9 C170.7,59.8 169.1,59.5 168.6,58.6 C161.7,46.1 157.3,32.3 149.6,20.2 Z M128.8,111.4 C118.6,153.4 127,196.6 126.9,239.1 C127.6,239.7 127.4,241 126.5,241.5 C126.3,242.1 126.2,242.6 126,243.2 C126.7,243.9 127.4,244.6 128.2,245.2 C127.6,236 132.3,227.6 135,218.9 C133.6,217.9 132.2,217 130.9,215.9 C129.9,215.1 129.8,214.2 129.9,213 L129.9,213 C131.2,185.6 136.1,158.3 133,130.9 C132.5,125.7 131.6,120.6 130.5,115.5 L130.5,115.4 C130.3,114.4 130,111.6 128.8,111.4 Z M282,238.7 L281.9,238.7 L282.1,238.9 C282,238.8 282,238.8 282,238.7 Z M220.9,224.4 C218.5,222.1 222.1,218.4 224.5,220.8 C226.8,223.1 223.2,226.8 220.9,224.4 Z M219.3,196.9 C218.8,195.5 220.2,193.3 221.8,194.2 L221.8,194.3 L221.8,194.2 C223.3,195.1 222.8,196.9 221.9,197.9 C221,198.9 219.8,197.7 219.3,196.9 Z M217.1,165.1 C213,159.8 221.6,157.6 220.2,164.2 C219.9,165.4 217.4,167.2 217.1,165.1 Z M211,135.1 C208.8,132.5 213.5,130.2 214.5,133.4 C215,135.5 212.4,136.8 211,135.1 Z M232.9,69 C234.1,69.2 240.7,67.9 239,70.6 C241.6,83.7 249,99.7 238.5,111.2 L238.4,111.3 C236.8,112.9 234.3,116.6 231.9,115 C226.6,110.6 219.8,107.4 215.8,101.7 C214.1,97.2 215.5,92.2 215.1,87.5 C214.9,81.6 213.9,75.7 213.7,69.8 C213.7,69.5 214,69.4 214.2,69.6 C220.4,69.1 226.6,69.2 232.9,69 Z M214.4,70 C217.2,79.1 217.3,88.9 217.2,98.3 C217.2,99.3 217.4,100.2 217.9,101 C221.9,105.7 227.7,108.7 232.4,112.6 C234.3,111.3 235.9,109.7 237.2,107.9 C245.6,97 238,83.2 238,71 L237,71 C229.4,71 221.9,70.9 214.4,70 Z M208.1,103.9 L208.1,103.9 C211,103.9 210.4,108.8 207.6,108.1 C205.4,107.5 205.7,103.9 208.1,103.9 L208.1,103.9 Z M202.4,79 C200.4,75.6 207,74.3 206.3,78.2 L206.3,78.1 C206.3,78 206.3,78 206.3,78 L206.3,78.3 L206.3,78.3 C206.1,80.1 202.6,81.3 202.4,79 Z M197.9,50.9 L198,50.9 C199.8,50.4 201.2,53 199.6,54.1 C197.3,55.9 195.3,51.6 197.9,50.9 L197.9,50.9 Z M153.1,11.1 L152.9,10.9 C150.5,8.7 148.7,7.6 148.2,12.1 C147.8,14.3 148.1,17 150.2,18.3 C160.2,28.2 164,42.3 170.5,54.4 C176.3,47.4 181.7,40.1 187.3,32.9 C179.6,28.2 171.7,23.5 164.1,18.6 C160.4,16.1 156.5,13.9 153.1,11.1 Z M203.5,16.9 C200.5,21.8 197.7,27.2 193.9,31.5 C193.4,32 192.9,32.4 192.3,32.7 C193.1,32.4 194.1,33 194,33.8 C199.6,39.4 204.1,45.9 208.5,52.4 C209.3,41.6 207.7,30.7 208.4,19.9 C206.9,18.6 205.3,17.7 203.5,16.9 Z" id="🖍-Ink" fill="currentColor"></path></g><g id="Head" stroke-width="1" transform="translate(95.9, 42.7)"><g id="head/Flat-Top"><path d="M57.5,17.8 C71,17.8 88.4,26.3 89.9,34.9 C91.6,45.1 101,84.2 98.9,96.7 C96.7,109.3 85.3,118.3 67.1,118.3 C48.9,118.3 35.3,108.4 32.1,105 C30,102.7 27.1,97.5 23.2,89.4 C16.7,88.5 13.4,85.5 13.4,80.2 C13.4,74.9 15.5,71.3 19.7,69.3 C18.2,48.4 19.4,35.3 23.2,29.8 C29,21.6 44,17.8 57.5,17.8 Z" id="🎨-Background" fill="#FFFFFF"></path><path d="M89,33.5 C89,33.3 89.3,33.3 89.3,33.5 C92.2,43.1 94,50.6 95.9,60.4 L96.5,63.3 C98,71 99.5,78.7 100.8,86.5 L100.8,86.9 C101.5,91 101.8,95 101,99 C100.3,102.8 98.2,106.2 95.6,109 C90.5,114.3 83.4,117.6 76.2,119.1 C72.6,119.8 68.9,120.1 65.2,119.9 C63.4,119.7 61.5,119.5 59.7,119.1 L59.5,119 C57.7,118.7 56.1,118.2 55.2,116.5 C54.9,116.1 55,115.3 55.5,115.1 C56.5,114.7 57.2,114.5 58.2,114.6 C59.2,114.7 60.2,115 61.2,115.2 C63.1,115.6 65,115.8 66.9,115.8 C70.7,115.9 74.5,115.4 78.1,114.3 C84.3,112.4 90.6,108.7 94.2,103.1 C98.5,96.6 96.8,88.8 95.6,81.6 L95.6,81.4 C94.5,74 93.3,66.7 92.2,59.3 L91.8,56.2 C90.5,47.9 89.4,41.9 89,33.5 Z M26.1,13.2 C29.2,11.1 33,10.6 36.7,10.7 L37.1,10.7 C41.8,10.7 65.2,11.3 73,11.5 L74.9,11.5 C77.4,11.6 82.4,11.6 84.9,11.7 L85.1,11.7 C86.3,11.7 87.6,11.7 88.8,11.7 L89,11.7 C90,11.8 90.8,11.9 91.5,12.6 C91.9,12.9 92,13.4 92,13.9 L92,14 L93.8,14.1 C95.1,14.3 95.8,15.4 95.3,16.5 L95.3,16.6 C94.4,18.5 93.7,24 93.2,26.1 C92.9,27.2 92.7,28.3 92.6,29.4 C92.5,30.2 92.5,31.1 92,31.9 C91,33.5 88.1,33.5 88,31.2 C88,31.1 88,31 88.1,31 C80.7,30.6 70.8,30.7 63.4,31.1 C56.6,31.5 49.8,32.4 43.1,33.9 C41.5,34.2 39.8,34.6 38.1,35 C36.7,35.4 35,35.6 33.8,36.3 C32.4,37.2 32.4,38.7 32.6,40.1 C32.8,41.6 33,40.8 33.4,42.2 L33.4,42.3 C33.8,43.8 34.3,45.2 34.9,46.7 C35.3,47.5 35.9,48.2 35.7,49.1 C35.5,49.7 35.1,50.2 34.8,50.6 C33,52.2 30.1,51.2 29,53.4 C27.7,55.8 27.7,59 27.6,61.6 L27.6,61.8 C27.5,63.6 27.5,65.4 27.7,67.2 C27.8,68.8 28.2,70.4 27.6,72 C27.2,73.1 25.9,73.2 25.2,72.3 C25.1,72.2 25.1,72.1 25,72 L24.9,71.9 L24.9,71.9 C25,72 25,72.1 25.1,72.2 C25.2,72.3 25,72.4 24.9,72.3 C23.3,70.5 20.9,70.9 19,72.2 C17.1,73.4 16.4,75.8 16.3,78 C16.2,80.4 16.4,83.2 17.4,85.4 C17.8,86.4 18.4,87.2 19.4,87.6 C19.9,87.8 20.3,87.7 20.8,87.8 C21.3,87.8 21.9,88.1 22.3,88 C22.9,88 23.5,88.7 23.3,89.3 L23.3,89.3 C23.3,89.3 23.3,89.4 23.3,89.4 C23.3,89.4 23.3,89.4 23.4,89.5 C25.2,93.2 27.6,96.4 30.4,99.5 C31.7,101 33.3,102.4 34.8,103.7 C35.6,104.3 36.5,105 37.3,105.5 C37.6,105.6 37.9,105.8 38.2,105.8 C38.4,105.9 38.5,105.9 38.7,106 L38.8,106 C38.8,106 38.9,106 38.9,106 C39.3,106.1 39.7,106.4 39.8,106.8 C40.2,108 39.5,109 38.3,109.4 C37.1,109.7 35.9,109.1 34.9,108.4 L34.8,108.3 C32.7,106.9 30.8,105.2 29.2,103.3 C26,99.4 23.9,95 23,90.1 C22.8,90.6 22.4,91.1 21.9,91.4 C21.1,91.8 20,91.8 19.1,91.7 C17.3,91.4 15.7,90.2 14.6,88.7 C13.5,87.1 13.1,85.2 12.8,83.3 C12.6,81.4 12.5,79.5 12.7,77.6 C13.1,74.9 14.2,72.2 16.4,70.7 C14.8,67.1 14.5,63.1 14.6,59.1 C14.7,54.2 15.6,49.3 16.2,44.5 L18.1,30.8 L18.1,30.8 L18.2,30.2 C18.6,27 19.1,23.7 20.4,20.7 C21.5,17.7 23.4,15 26.1,13.2 Z M18.3,78.1 C21.4,76.6 24.7,78 26.3,80.8 C27.7,83.3 23.5,85 22.8,82.4 L22.8,82.3 C22.3,80.4 20.4,78.7 18.4,78.5 C18.3,78.4 18.2,78.2 18.3,78.1 Z" id="🖍-Ink" fill="currentColor"></path></g><g id="face/Contempt" transform="translate(37.8, 44.1)" fill="currentColor"><path d="M45.3,52.1 C44.5,53.1 43.1,53.9 41.5,54.3 C40,54.6 38.3,54.6 36.8,54.1 L36.7,54 C35.6,53.6 34.6,52.7 34.2,51.7 C34,51.4 34,51 34.1,50.6 C34.2,50.3 34.4,50 34.8,49.8 C34.9,49.7 35.1,49.7 35.2,49.7 C35.4,49.7 35.6,49.8 35.7,49.9 C36.3,50.6 37.2,51.2 38.3,51.2 C39.1,51.2 39.8,50.9 40.4,50.5 L40.9,50.3 C41.3,50 41.8,49.8 42.3,49.7 C43.2,49.5 44.3,49.8 44.9,50.4 C45.2,50.7 45.4,51 45.5,51.3 C45.5,51.5 45.5,51.8 45.3,52.1 Z M40.6,34.2 C42.4,35.3 45.1,37.8 43.2,40.5 C40.9,42.9 37.6,40.2 36,39 C34.5,38 32.8,40.5 34.2,41.6 C45.9,50.2 50.6,34.5 41.5,32.9 C40.5,32.8 40.1,33.9 40.6,34.2 Z M20.3,17.5 L20.8,17.4 L21.4,17.2 L21.7,17.1 C24.2,16.5 26.9,15.9 29.3,16.2 C30.2,16.3 30.9,16.8 31,17.7 C31.1,18.5 30.6,19.5 29.7,19.6 C26.9,20.1 24,19.9 21.1,20.4 C19.7,20.7 18.3,20.9 16.9,21.2 C15.8,21.4 14.7,21.5 13.6,21.6 L13.9,21.7 C14,21.7 13.9,21.8 13.8,21.8 C13.5,21.8 13.1,21.8 12.8,21.8 L12.6,21.8 C12.4,21.9 12.2,21.6 12.5,21.4 C13.8,20.5 14.9,19.6 16.4,18.9 C17.7,18.3 19,17.9 20.3,17.5 Z M42.5,16.1 C44.4,14.2 48.4,15 50.6,15.8 C51.9,16.3 53.1,16.9 54.1,17.9 L54.2,18 L54.4,18.1 C55.1,18.8 55.8,19.7 55.7,20.7 C55.7,20.8 55.6,21 55.5,21 C54.6,21.2 53.7,20.7 52.9,20.4 L52.3,20.2 C51.5,19.9 50.7,19.7 49.8,19.5 C48.8,19.2 47.7,19.1 46.6,19.1 C45.5,19.1 44.4,19.4 43.3,19 C42.2,18.5 41.5,17.1 42.5,16.1 Z M24,31.4 C23.5,31.9 22.9,32.2 22.1,32 C21.5,31.9 20.3,31.2 19.3,30.2 C18.6,29.6 18.1,28.7 17.9,27.8 C17.9,27.6 17.8,27.4 17.6,27.3 C17.5,27.2 17.3,27.2 17.2,27.2 C17,27.2 16.9,27.3 16.7,27.4 C16.5,27.5 16.4,27.7 16.4,27.8 C16.2,29.3 16.7,30.7 17.6,31.8 C18.7,33.4 20.4,34.6 21.4,34.9 C23.1,35.3 24.9,35 26.2,33.8 C27.3,32.8 27.8,31.6 28.3,30.4 L28.4,30.1 C28.5,29.8 28.6,29.5 28.7,29.3 C29,28.7 28.9,28.2 28.7,27.8 C28.4,27.4 27.9,27.1 27.4,27 C26.9,26.9 26.4,27 26,27.3 C25.7,27.6 25.4,28 25.3,28.6 C25.1,29.5 24.7,30.6 24.1,31.3 L24,31.4 Z M53.1,25.9 C52.7,25.7 52.4,25.6 51.9,25.8 C51.7,25.8 51.4,26 51.3,26.2 C51.1,26.3 50.9,26.6 50.9,26.8 C50.8,27.5 50.4,28 49.9,28.4 C49.5,28.8 49,28.9 48.4,28.8 C47.7,28.7 47.1,28.3 46.7,27.8 C46.6,27.7 46.5,27.6 46.4,27.4 L46.4,27.3 C46.1,27 45.9,26.7 45.7,26.4 C45.6,26.3 45.4,26.3 45.2,26.3 C45.2,26.3 45.1,26.3 45,26.3 C44.4,26.9 44.3,27.4 44.3,27.9 C44.3,28.4 44.5,28.9 44.8,29.4 C45.6,30.5 47,31.4 48,31.6 C49.3,31.9 50.6,31.5 51.7,30.8 C52.7,30 53.5,28.9 53.8,27.5 C53.8,27.2 53.8,26.9 53.7,26.6 C53.6,26.3 53.4,26 53.1,25.9 Z" id="🖍-Ink"></path></g><g id="facial-hair/*-None" transform="translate(29.2, 80.1)"></g><g id="accessories/Sunglasses" transform="translate(11.2, 57.1)" fill="currentColor"><path d="M80.2,3.6 C85.8,3.6 89,4.8 90.1,4.8 L90.2,4.8 C90.7,4.9 91.1,4.9 91.6,5.1 C93.2,5.7 93.5,7.5 92.5,8.6 C92.5,10.9 92.8,13.6 92.2,15.9 C91.6,25.6 87,27.2 84.4,27.8 C83.1,28.1 81.6,28.2 80.2,27.9 C77.9,27.8 75.5,27.1 73.5,25.8 C70.7,24 68.7,21.2 68,18 C67.7,16.4 67.5,14.8 67.7,13.2 L67.7,13 C66.8,12.6 65.8,12.5 64.7,12.4 C64.2,12.4 63.7,12.4 63.2,12.4 C62.7,12.5 62.2,12.6 61.8,12.7 C61.2,12.8 60.7,13.1 60.3,13.5 L60.3,14.1 C60.2,15.6 60,17.1 59.7,18.6 C59.2,20.7 58.5,22.8 57,24.3 C56.4,25.1 55.8,25.8 55,26.4 C52.2,28.6 48.3,29.4 44.8,29.1 C37.6,28.5 33.4,22.8 32.5,20.3 L32.4,20.2 C31.7,18.4 31.2,16 29,15.7 L28.5,15.6 C27.5,15.4 26.6,15.1 26,14.2 C25.8,13.7 25.6,13.3 25.6,12.8 C25.2,12.8 24.9,12.8 24.6,12.8 C21.9,13.4 5.6,13.9 4.3,13.9 C4.3,13.9 1.8,14.9 0.8,14.1 C0,13.6 -0.2,12.8 0.2,12 C0.8,10.7 3.6,9.9 4.8,9.7 C4.8,9.7 24.9,9.8 26.3,9.6 C27.2,8.6 28.8,8.8 30.1,8.6 C31.2,7.8 32.8,7.3 34,7 C34.3,6.9 34.5,6.8 34.7,6.7 C37,5.9 39.3,5.5 41.7,5.2 C44.1,5 46.5,5.1 49,5.5 C50,5.6 51,5.8 52,6 C53.8,6.2 55.6,6.6 57.4,7.1 L57.7,7.2 C59.6,7.7 61.6,8.1 63.5,7.8 C65.1,7.5 66.6,6.9 68.1,6.2 L68.3,6.1 C71.5,4.7 76.6,3.6 80.2,3.6 Z M51.8,8.9 C50.6,8.7 50.1,10.5 51.3,10.8 C52.1,11 52.9,11.4 53.3,12.1 L53.4,12.2 C54,13.2 55.7,12.3 55,11.2 C54.3,10.1 53.1,9.2 51.8,8.9 Z M86.7,7.8 C86.3,7.5 85.7,7.7 85.4,8.1 C85.2,8.6 85.3,9.1 85.7,9.4 L85.8,9.4 C86.1,9.7 86.5,10.2 86.5,10.6 L86.5,10.7 C86.6,11.9 88.5,11.9 88.4,10.7 C88.4,9.5 87.7,8.5 86.7,7.8 Z" id="🖍-Ink"></path></g></g></g></g></g></svg>