<svg viewBox="0 0 321 691" version="1.1" xmlns="http://www.w3.org/2000/svg" xmlns:xlink="http://www.w3.org/1999/xlink"><g id="Introduction" stroke="none" stroke-width="1" fill="none" fill-rule="evenodd"><g id="variations-standing" transform="translate(-2735, -104)"><g id="a-person/standing" transform="translate(2733, 50)"><g id="pose/standing/robot_dance-2" transform="translate(-28.7, 150.3)"><path d="M84.3,214.2 C84.3,217 84.6,223.2 85.3,225.9 C77.7,213.6 66.2,200.3 64.5,185.4 C65,185.2 67.4,185 67.9,184.7 C71.8,186.5 71.1,180.9 71.7,178.3 C73.2,172.7 76.5,167.3 78,161.8 C81.8,160.1 74.2,159.4 73.1,159.4 C77.6,154.3 79.8,147.3 83,141.4 C87.8,131.3 92.1,120.9 95.9,110.4 C96.8,117 96.9,123.7 96.4,130.3 C94.8,158.6 84.2,185.8 84.3,214.2 Z M349,164 C346.7,164.4 342.7,164.7 340.3,164.9 C343.5,163.1 352.6,159.5 346.9,156.4 C345.1,155.7 343.2,156.7 341.4,156.9 C333.9,158.2 324.6,158.1 317.1,157.5 C319.8,155.2 323.5,152 326.2,149.6 C327.6,148.4 329,147.9 327.4,146.1 C324.5,143.4 319.5,145.4 316.2,146.5 C307.1,151.6 296.9,157.1 287.2,161 C287.1,159.6 287.2,157.9 285.9,156.9 C282,155.1 279.2,155.7 275.1,155.2 C270.3,154.5 266.1,153.7 261.4,152.4 C258.3,150 256.4,143.1 251.5,143.9 C255.8,132.9 249.2,121.4 246.7,110.9 C243.5,100.1 241.9,88.9 241.8,77.7 C241.8,59.8 231.4,46.1 216.4,36.9 C210.5,32.9 206.5,23.1 199.1,21.2 C198.2,17.6 198.1,16 197.3,12.4 C196.9,11.4 196.6,5.8 195.6,6 C194.4,0.4 188.6,-1.8 183.6,-3 C177.1,-4.3 167.9,-6 162,-2.1 C160.3,-0.7 159.6,1.6 159.5,3.8 C158.8,6.6 157.5,9.5 155.9,11.9 C153.2,11 154.7,9.3 152,8.9 C127.6,5.3 100.5,23.2 84.7,40.6 C56,70.1 33,110.3 36.8,152.2 C35.8,152.1 31.3,151.4 31.3,152.8 C31.6,158.9 32.7,164 33,170.2 C32.7,178.3 41.2,179.3 47.3,181.3 C46.9,204.9 55.5,228.5 68.9,247.8 C72.2,251.7 77.1,264.9 83,259.6 C83.7,258.8 78.3,253.1 77.3,251.7 C74,247.6 65.2,227 71.4,222.9 C72.8,227.3 86.1,248.7 88.5,236.6 C91.7,238.4 96.9,239.6 100.6,239.4 C107.7,243.3 114.6,247.4 121.4,251.7 C124.6,257.9 129.3,263.9 133.2,269.9 C106.2,332.1 79.9,434.4 45.2,493 C42.1,496.9 58.8,503.4 61.7,504.8 C56.1,513.9 55.4,524.4 51.1,534.3 C50.3,534.1 49.5,534.3 48.7,534.7 C43.5,538.3 41.5,551 41.2,557.3 C41.4,560.1 40.4,564.4 42.7,566.5 C42.3,566.8 42.1,567.2 41.9,567.6 C40.3,568.9 40.5,571.6 41.4,573.3 C44.4,579.6 66.4,579 73.6,580.3 C98.9,582.5 120.1,582.8 145.5,580.5 C148.6,579.8 146.2,575 144.7,573.7 C145.4,573.3 145.8,572.5 145.5,571.5 C139.8,555 119,556.1 106.4,547.4 C109.7,545.5 107.6,546.1 105.5,546.8 C103.3,545.4 101.1,543.9 99.1,542.1 C100.7,541.2 99.9,540.6 98.3,541.4 C95.7,539.3 93.6,536.1 90.3,535 C87.1,534.3 87.1,532.9 87.1,532 C89,524.2 91.1,516.3 92.2,508.4 C93.3,510.1 103.3,496.4 105.5,493 C113.8,479.9 113.8,466.9 119.6,452.7 C131.5,421.6 156,356.4 170.9,326.6 C205.8,383.4 188.8,460.2 210.3,520.7 C211.3,522.5 213.1,529.3 215.5,527.4 C216.5,527.6 217.5,527.7 218.5,527.8 C218.2,534.4 217.7,541 216.6,547.6 C215.6,547.9 214.7,548.4 214.3,549.3 C212.5,548.1 209.2,566.8 208.9,568.7 C208.9,571.1 206.8,576.6 208.7,578 C206,579.2 205.5,583.4 207.5,585.6 C213.3,593.4 241.7,591.2 252.2,592.5 C265.4,592.2 320.8,597.2 324.7,584.6 C325.4,581.8 324.1,578.1 321.5,577 C322.5,574.5 320,572.1 318.4,570.4 C309.2,560.8 295,559.3 282.7,555.2 C283.2,554.7 266.7,546.3 263.1,544.2 C263.4,541.3 257.5,544.2 257.5,544.2 C254.7,539.2 252.7,531.5 250.8,526.1 C254.3,525.1 262.6,524.1 264.2,520.7 C269.2,519 264.2,511.8 263.1,508.4 C233.9,435.3 261.6,343.2 218.5,274.2 C226.4,269.7 235.5,259.8 227.6,251.5 C226.1,249.5 222.3,243.3 222.3,244.3 C220.9,238.4 217.6,228.2 216.6,222.2 C212.9,200.3 215.3,179.7 218.5,157.5 C222.8,174.2 237.9,188.1 253.2,195.7 C259.2,198.2 267,203.3 273.6,201.7 C279.5,199.9 290.3,187.8 291.5,182 C308.8,184 326.7,182.4 343.2,177 C345.3,176.2 347.8,176.2 347.1,173.2 C346.5,170.7 341.8,171.3 339.8,171.8 C342.9,170.1 350.8,169.7 350.8,165.2 C350.7,164.3 350,163.8 349,164 Z" id="🎨-Background" fill="#FFFFFF"></path><path d="M344.5,168.1 C339,170.5 333.3,172.7 327.3,173.3 C325.9,173.5 325.9,175.6 327.3,175.5 C332.3,175 337.3,174.6 342.2,173.6 C342.8,173.5 346,172.3 346.2,173.4 C345.5,176 332.5,178.6 329.6,179.1 C312.5,183.4 295.4,180 278.2,179.8 C276.5,179.3 274.7,179.4 273.1,179.9 C272.2,179.9 271.3,180 270.3,180 C273.7,172.9 278.5,166.5 284.1,161.1 C288.3,163 299.6,157.3 303.9,155.5 C311,152.4 317.4,145.7 325.7,147 C321.7,150.6 317.3,153.8 313.2,157.3 C312.2,158.2 313,159.9 314.3,159.9 C323.2,160.5 332.1,160.6 340.9,159 C347.1,157.8 347.2,158 341.8,161.5 C339,163.3 335.7,165 332.2,164.6 C330.3,164.6 330.4,167.3 332.2,167.5 C337.4,167.7 342.6,167.5 347.7,166.7 C346.6,167.4 345.1,167.9 344.5,168.1 M269.1,183.4 C269,183.5 268.9,183.6 268.9,183.7 C268.8,183.7 268.8,183.7 268.8,183.7 C268.9,183.3 269,183 269.2,182.6 C269.2,182.6 269.2,182.6 269.2,182.6 C269.1,182.9 269.1,183.2 269.1,183.4 M228.1,297.3 C253.9,368.6 233.2,448.7 262.9,518.8 C262.5,519.1 262.3,519.5 262.3,520 C258.4,520.4 254.7,522.2 250.9,522.9 C239.7,525.5 228.2,526 216.7,526.1 C216.7,526.1 216.7,526.1 216.7,526.1 C216.4,526 215.9,526.1 215.5,526.1 C213.1,516.7 209.4,507.6 207.6,498 C189.1,374.4 207.9,361.8 121.8,254.6 C149.6,273.7 186.6,296.1 219.7,276.3 C222.8,283.2 225.7,290.2 228.1,297.3 M253.7,542.1 C254.1,543.2 254.4,544.3 255.1,545.3 C242.3,560 235.9,552.7 220.5,548.2 C220.9,541.5 220.2,534.8 219,528.2 C229.3,529.8 239.8,529.1 250,527.1 C250.4,532.3 251.9,537.3 253.7,542.1 M263.1,544.2 C265.7,546.7 268.5,549.1 271.6,551 C269.6,552.7 265.2,553.9 264.9,556.7 C264.9,559.2 269,559.4 268,557 C269.8,555.3 272,554 273.8,552.3 C275.7,553.4 277.6,554.4 279.6,555.4 C277.7,556.8 275,558 274.6,560.5 C274.5,561.7 275.8,562.3 276.8,562.1 C279.3,561.3 280.7,558.3 282.9,556.8 C296.5,562.3 312.1,565.7 321.2,578.1 C320.9,578.3 320.6,578.6 320.5,578.8 C316.9,578.3 313.3,579.7 309.7,580 C298.7,581.6 287.6,582.6 276.5,583 C257.8,583.6 239.1,582.6 220.5,580.3 C217.8,579.8 215.1,579.1 212.6,578.2 C213.1,571.7 213.8,565.1 214.1,558.5 C214.4,558.3 214.6,557.9 214.5,557.4 C214.3,556.1 214.3,554.2 214.8,552.6 C214.9,552.5 214.9,552.4 215,552.3 C215.9,551.1 217.5,550.8 218.9,550.9 C219,550.9 219.1,550.9 219.2,550.9 C219.4,551 219.6,551.2 219.8,551.3 C219.9,551.3 220,551.3 220,551.3 C220.1,551.3 220.1,551.4 220.2,551.4 C220.2,551.3 220.2,551.3 220.3,551.2 C221.1,551.5 222,551.8 222.9,551.9 C229.8,554.9 236.8,558.7 244.5,557.3 C250.4,556.3 253.8,551.2 258.1,547.6 C259.6,546.3 261.7,545.6 263.1,544.2 M321.7,581.7 C339.5,594.6 234.3,589.2 228.5,588.5 C223.1,588 206.2,588.6 209.3,579.8 C210.2,580.1 211.3,579.8 211.9,579.2 C231,590.5 300.8,589.6 321.7,581.7 M167.1,330.1 C165.9,332.4 164.6,334.6 163.5,336.9 C163.2,337.5 162.9,338 162.6,338.6 C162.3,339.1 161.9,339.6 161.5,340.2 C154.9,350.4 151.3,362.8 145.8,376.2 C132.2,409.7 119.2,449.6 109.4,478.1 C105.7,485.9 101.8,493.6 96.7,500.6 C95.6,502.8 92.9,504.5 92.8,507 C92.7,507 92.7,507 92.7,507.1 C92.5,507.2 92.3,507.4 92.2,507.5 C89.6,506.2 82.2,506.1 79.6,505.3 C68.5,503.1 57.8,499.1 48,493.5 C74,439.2 100.3,362.5 121.8,305.3 C123.2,301.7 124.6,298.2 126.1,294.6 C128.2,289.4 130.6,284.2 132.4,278.8 C133,277.2 133.5,275.4 133.4,273.6 C145.4,291.1 157.9,308.4 168.4,326.8 C168.2,328 167.6,329.1 167.1,330.1 M89.8,513.8 C87.8,519.9 85.7,526 84.2,532.2 C84.1,532.4 84.1,532.7 84.1,533 C84.1,533 84.1,533 84.1,533.1 C83.8,533.8 83.4,534.4 83.5,535 C68.6,541.6 71.3,549.4 55.7,537.7 C55.2,537.4 54.6,537.1 54,536.8 C54.1,536.8 54.1,536.7 54.1,536.6 C54.5,535 54.7,533.4 54.8,531.7 C55.4,529.3 55.9,526.8 56.5,524.4 C57.4,522 58.2,519.7 59,517.4 C59.1,517.2 59.1,517 59.2,516.8 C60.4,514 61.6,510.9 61.8,507.9 C62,507.3 62.1,506.7 62.2,506.1 C62.6,506 62.9,505.7 63,505.4 C71.9,508.5 81.3,511 90.8,511.1 C90.4,512 90.1,512.9 89.8,513.8 M91.4,536.2 C94.2,536.9 95.7,539.7 97.4,541.9 C95.4,543.4 93.7,545.4 92.5,547.6 C91.8,548.3 91,549.1 90.4,549.9 C89.6,551.1 91.4,552.5 92.4,551.5 C94.4,548.8 96.5,546 99.4,544.1 C100.7,545.6 102.2,547 103.7,548.3 C102.3,549.3 101.1,550.5 100.2,551.9 C98.4,553.3 97,554.8 97.7,556 C98.4,557.2 99.8,556.5 100.5,555.7 C102,553.6 103.6,551.6 105.7,550.1 C110.6,554.2 116.1,557.4 122,559.5 C130,562.5 140.3,564.8 143.3,573.7 C130,573.9 116.6,574 103.2,573.3 C83.7,572.7 64.4,569.7 45,568.1 C45.1,567.9 45.2,567.7 45,567.5 C44.6,567 44,566.7 43.6,566.2 C44.1,564.1 43.1,560.8 43.5,558.9 C43.4,553 45.5,541.1 45.6,540.9 C47,538.6 49.7,537 52.2,538.7 C52.3,538.8 63.1,549.2 70.3,547 C72.4,546.4 74.1,545 75.9,543.8 C80.8,540.7 85.9,538.1 91.4,536.2 M146,579.4 C112.4,581.4 78.4,580.9 45.1,575.6 C44,575.3 43.1,574.8 42.3,574.1 C42.2,573.3 42.2,572.4 42.1,571.6 C42.1,571.1 41.9,569.7 42.4,569.4 C42.6,569.3 42.8,569.1 42.9,568.8 C54.8,572.9 67.8,573.6 80.3,575.2 C101.6,577 123.3,578.9 144.6,577.1 C145.2,577.8 145.8,578.5 146,579.4 M43,567.5 C43.2,567.6 43.3,567.8 43.5,568 C43.3,567.9 43.2,567.9 43,567.9 C43,567.8 42.9,567.7 42.9,567.6 C42.9,567.6 43,567.5 43,567.5 M58.3,511.2 C58.5,510.3 58.7,509.4 58.9,508.4 C58.8,509.6 58.5,510.8 58.1,511.9 C58.1,511.7 58.2,511.4 58.3,511.2 M120.1,253.6 C120.1,253.6 120.1,253.6 120.2,253.5 C120.4,253.7 120.7,253.9 121,254.1 C121.8,255.8 122.8,257.5 123.8,259.2 C122.6,257.3 121.3,255.5 120.1,253.6 M88.5,235.2 C88.4,234.7 88.3,234.1 88.2,233.6 C88.5,234 88.8,234.4 89.2,234.8 C89.4,235.1 89.7,235.4 90.1,235.7 C89.5,235.5 89,235.3 88.5,235.2 M88.5,236.4 C88.5,236.1 88.5,235.8 88.5,235.6 C88.8,235.7 89.1,235.9 89.4,236.1 C89.1,236.2 88.8,236.3 88.5,236.4 M84.5,202.3 C83.8,209.5 83.1,216.9 84.9,224 C77.3,211.6 67.7,201.7 65.9,186.5 C66.5,186.3 67,186.1 67.4,185.8 C71.3,187.6 72,181.9 72.6,179.2 C74.2,173.6 76.1,168.1 77.5,162.4 C81.3,160.8 73.7,160.1 72.6,160 C72.6,160 72.7,160 72.7,159.9 C77.2,154.7 79.3,147.7 82.5,141.7 C87.3,131.4 91.6,120.8 95.5,110.2 C99.2,141.3 87.6,171.6 84.5,202.3 M77.5,231.2 C75.6,228.6 74,225.9 72.8,222.9 C72.6,222.5 72.2,222 71.6,222.1 C68.5,222.5 67.5,225.5 67.5,228.3 C68.9,238.7 73.6,248.7 79.7,257.3 C60.2,237.4 53.2,209.4 48.3,182.8 C53.3,184.2 58.3,186.2 63.5,186.7 C66.6,211.6 85.3,219.1 86,237.2 C85.1,240.9 78.4,232.4 77.5,231.2 M264.2,154.3 C264.1,154.3 264.1,154.3 264,154.3 C264,154.3 264,154.4 263.9,154.4 C263.9,154.3 263.8,154.2 263.7,154.1 C263.9,154.1 264,154.2 264.2,154.3 M286.2,160.9 C285.6,161 285,161 284.4,160.8 C284.5,160.7 284.7,160.6 284.8,160.5 C284.9,160.4 285.1,160.1 285.4,159.9 C285.5,160.3 285.8,160.7 286.2,160.9 M351.5,164.8 C351.4,163.8 350.7,163.3 349.7,163.5 C347.4,163.9 345,164.2 342.6,164.4 C345.7,162.5 352.4,158.7 346.7,155.5 C344.9,154.8 342.7,155.5 340.9,155.8 C333.5,157.1 325.9,157.6 318.3,156.9 C321.1,154.6 323.9,152.5 326.6,150.1 C328.1,148.8 329.7,147.1 328.1,145.2 C325.2,142.6 319,144.5 315.7,145.7 C306.7,150.9 297.9,156.3 288.2,160.3 C288.1,158.9 288.6,157.2 287.3,156.3 C283.4,154.5 278.7,155 274.6,154.5 C269.9,153.8 265.6,152.7 260.9,151.4 C257.8,149 257.3,142.7 252.4,143.5 C256.8,132.3 248.7,121.3 246.2,110.6 C243.1,99.6 241.4,88.3 241.4,76.8 C241.3,58.6 230.9,44.6 215.9,35.2 C215.6,35 215.4,34.8 215.1,34.6 C214.5,33.9 213.9,33.2 213.2,32.5 C211.9,30.9 210.7,29.4 209.3,27.9 C208.7,26.9 208.1,26 207.3,25.2 C206.7,24.4 205.9,23.6 205,23 C204.9,23 204.8,23 204.8,22.9 C203.2,21.8 201.4,21.1 199.5,20.7 C198.6,17.3 197.6,13.8 196.8,10.3 C196.5,9.5 196,3.1 195.1,3.8 C193.9,6.9 195,34.5 200.8,30.8 C201.4,38 201.5,48.3 193.6,51.5 C179.7,55.8 161.9,24.8 156.1,14.3 C157.7,15 159.1,11.3 159.7,7.5 C160,6.6 160.2,5.7 160.4,4.7 C160.6,3.8 160.9,2.7 160.7,1.7 C160.6,1.4 160.4,1.2 160.1,1.1 C160,0.5 159.8,0.1 159.5,0 C159.3,0.5 159.1,1 159,1.5 C159,1.5 159,1.5 159,1.5 C158.6,2.3 158.5,3.2 158.3,4.1 C158.2,4.7 158,5.3 157.8,5.9 C157.3,7.3 156.5,8.7 155.8,10 C154.3,8.5 152.1,7.7 149.9,7.4 C147.9,7.2 145.8,7.2 143.7,7.1 C141.7,7.1 139.6,7 137.7,7.5 C137.6,7.5 137.6,7.6 137.6,7.7 C94.9,10 51.6,73.6 41.1,109 C37.1,122.8 34.8,137.4 36.3,151.7 C35.3,151.6 30.8,150.9 30.9,152.3 C31.1,158.6 32.2,164.8 32.5,171 C32.2,179.3 40.7,180.3 46.8,182.3 C46.4,206.3 55,230.4 68.4,250.1 C71.7,254 77.9,265.8 83.9,260.4 C84.6,259.6 84.4,258.6 83.6,258 C82.2,256.9 81.2,255.2 80.2,253.8 C76.9,249.6 66.7,228.9 71,224.7 C73.1,229.3 80.9,243.1 87.1,240 C88,239.2 88.4,238.1 88.5,236.9 C88.8,237 89,237 89.2,237.1 C91.4,239 97.7,241.8 100,241.6 C100.7,242 101.5,242.3 102.2,242.7 C104.3,243.9 106.4,245.1 108.5,246.3 C110.1,247.4 111.8,248.4 113.5,249.4 C114.5,250 115.5,250.6 116.5,251.2 C117.3,253.2 118.6,255.1 119.7,256.8 C120.3,257.9 121.1,259.2 122,260.4 C122.9,262 124,263.5 125.1,264.9 C126.6,266.7 128.4,268.3 129.7,270.3 C131.2,272.5 131,274.9 130.2,277.3 C129.4,279.8 128.3,282.3 127.3,284.7 C126.2,287.3 125.1,289.9 124,292.6 C121.9,297.7 119.7,302.8 117.6,307.9 C116.4,310.8 115.2,313.7 114,316.7 C113.6,317.7 113.3,318.7 112.9,319.7 C90.8,371.7 67.1,443 43,493.2 C40.6,496.3 52.1,501 58.5,503.6 C58.6,503.7 58.6,503.8 58.6,503.9 C57.6,505.9 57.2,508.3 56.6,510.5 C55.9,513.2 55.2,515.9 54.5,518.6 C53.8,521.3 53,524 52.4,526.7 C51.4,529.1 50.5,531.4 49.5,533.8 C49.4,533.9 49.4,534 49.4,534.1 C48.1,534.1 47,534.7 46.1,535.5 C46,535.5 45.9,535.6 45.9,535.7 C41,542.2 39.4,550.7 39,558.6 C39.2,561 38.3,565.7 40.2,567.6 C39.7,568.1 39.4,568.8 39.3,569.6 C38.2,571 38.4,573.4 39.2,575 C42.1,583.6 108.8,583.9 120.1,583.8 C129.2,583.6 138.4,583.1 147.5,582.2 C148.9,581.9 149.2,580.7 149,579.4 C149.3,577.8 148.7,575.8 147.4,574.6 C147.7,574.2 147.8,573.7 147.6,573 C141.9,556.3 120.6,557.4 108,548.5 C108.2,548.4 108.3,548.3 108.5,548.2 C108.7,548.1 109,548 109.3,548 C110.6,547.6 110,545.5 108.7,545.9 C107.7,546.2 106.7,546.6 105.8,547.1 C104,545.9 102.3,544.6 100.7,543.2 C101.2,542.9 101.7,542.6 102.2,542.3 C102.9,542.2 103.6,542.1 104.3,542.1 C105.3,542.1 105.6,541.2 105.2,540.5 C105.3,540.5 105.3,540.5 105.4,540.4 C105.3,540.4 105.2,540.4 105.1,540.4 C104.9,540.2 104.7,540.1 104.3,540 C102.3,539.8 100.3,540.3 98.6,541.2 C96.5,539.2 94.7,536.8 91.9,536 C94.1,535.1 95.2,532.7 92.4,532 C91.1,531.9 89.9,532.3 88.7,532.8 C90.4,525.8 91.7,518.6 92.7,511.5 C93,511.5 93.3,511.5 93.6,511.5 C94.7,511.6 95.5,510.7 96.1,509.6 C96.1,509.6 96.2,509.6 96.3,509.6 C98.4,508.7 99.4,506.3 100.8,504.6 C105.4,498.4 109.2,491.6 112.5,484.6 C124.5,450.2 142.3,393 156.8,360.5 C161.4,350.1 165.6,340.7 170.4,330.3 C205.3,388.2 188.3,459.1 209.8,520.8 C210.8,522.6 212.5,529.2 214.9,527.7 C214.9,527.7 214.9,527.7 214.9,527.7 C215.4,528 215.8,528.3 216.3,528.5 C216.6,528.5 216.8,528.4 216.9,528.3 C217.1,529.2 217.1,530.2 217.1,531 C217.2,532.2 217.2,533.4 217.2,534.5 C217.2,536.8 217.2,539.1 217,541.4 C216.8,543.4 216.6,545.3 216.3,547.3 C215.1,547.5 214.1,548.1 213.3,549 C212.2,550.4 211.8,552.1 211.6,553.8 C211.5,554.3 211.4,554.7 211.4,555.1 C210,560.5 208.6,568.4 208.5,569.6 C208.5,572.1 206.3,577.7 208.3,579.2 C205.5,580.4 205,584.7 207,586.9 C212.8,594.8 241.2,592.6 251.7,594 C264.9,593.6 323.9,598.7 327.8,585.9 C328.5,583 327.2,579.3 324.5,578.2 C325.6,575.6 323,573.2 321.5,571.4 C312.3,561.7 298.8,558.3 286.5,554.1 C286.9,553.6 289.7,551.9 289.4,551.4 C287.3,551.5 285.4,552.2 283.6,553.1 C281.1,552.2 278.7,551.2 276.4,550.1 C283.1,544.7 279.2,546.4 274.6,549.3 C274,549 273.5,548.7 273,548.5 C273.1,548.2 273,548 272.8,547.8 C272.2,547.2 271.3,547 270.5,546.6 C269.7,546.2 268.9,545.8 268.1,545.3 C266.6,544.3 265.4,542.9 263.8,542.1 C263.6,542 263.4,541.9 263.1,541.9 C262.1,541 259.7,541.9 258.6,542.7 C258.6,542.7 258.6,542.7 258.6,542.7 C255.8,537.6 253.7,532.2 251.8,526.8 C255.3,525.7 263.1,525.3 264.6,521.8 C269.6,520.1 266,512.5 265,509.1 C235.7,434.6 263.6,346.1 220.4,275.9 C228.2,271.3 236.9,260.5 229.8,252.1 C229.6,251.7 229.3,251.3 229.1,251 C228.1,249.2 226.9,247.5 225.8,245.7 C225.8,245.5 225.7,245.2 225.7,245 C225.7,244.6 225.4,244.4 225.1,244.3 C224,242.4 223.1,240.4 222.2,238.3 C216.7,212.4 215.2,185.8 218.9,159.4 C223.2,176.4 237.4,189.3 252.7,197 C258.7,199.5 266.6,204.7 273.1,203.1 C279,201.3 289.8,188.9 291,183 C308.3,185.1 326.2,183.4 342.7,177.9 C344.8,177.1 348.9,175.9 348.3,172.8 C347.6,170.2 344.5,170.8 342.5,171.2 C345.6,169.5 351.5,169.3 351.5,164.8" id="🖍-Ink" fill="currentColor"></path></g><g id="Head" stroke-width="1" transform="translate(95.9, 42.7)"><g id="head/Medium-Bangs"><path d="M70.7,34.4 C43.3,33.4 17.2,51.7 8.4,77.7 C7.8,79.7 9.8,81.6 11.8,81.2 C9.7,91.6 14.2,105.4 25.9,106.9 C28.3,107.2 30.7,107 33.1,107.2 C35.2,107.4 46.9,114 51.2,115.5 C60.4,118.7 83.4,118.1 92.6,115.5 C93,116.3 100.1,87.1 101.7,78 C102.3,74.1 96.9,71.2 97.3,67.2 C97.8,62 103.9,55.7 102,50.7 C97.1,38.2 82.9,34.7 70.7,34.4 Z" id="🎨-Background" fill="#FFFFFF"></path><path d="M57.1,11.6 C58.3,11.7 59.6,11.8 60.8,12.1 C64.5,11.5 68.3,12.1 71.9,13.3 C80.2,16 88.3,20.7 94.6,26.9 C97.9,30 100.5,33.7 102.2,37.9 C103,40.1 103.5,42.4 103.6,44.7 L103.6,45 C103.6,45.7 103.7,46.6 103.6,47.5 C103.9,49.4 104.1,51.2 104.1,53.1 C104.1,53.9 104.1,54.8 104,55.6 L104,55.7 L104,55.7 C103.9,56.7 103.7,57.7 103.5,58.7 L103.4,58.8 C103.4,59 103.4,59.2 103.3,59.4 C103.2,59.9 103.1,60.5 103,61 C102.7,62.1 102.4,63.2 102.1,64.3 C102,64.5 102.1,64.6 102.2,64.7 C102,65.6 101.7,66.4 101.4,67.2 C101.6,67.9 101.7,68.7 101.9,69.4 C102.6,73.1 103.3,76.9 104.2,80.6 C106,88.1 108.7,95.5 109.4,103.2 C110,109.2 109.1,115.7 105.3,120.6 C102.1,124.9 97.3,127.4 92,128 C89.5,128.3 87,128.2 84.5,127.6 L84.3,127.5 C83,127.2 81.5,126.6 80.3,125.8 C79.1,125.4 77.9,124.6 77.2,123.8 C76.3,122.7 75.2,120.9 75.5,119.4 C74.1,119.5 72.6,119.5 71.2,119.5 C67.7,119.5 64.2,119.2 60.9,118.2 C57.9,117.3 54.4,115.8 52.6,113.1 C52.5,113 52.7,112.8 52.8,112.9 C54.3,113.4 55.6,114 57.1,114.4 C58.5,114.8 60,115.1 61.5,115.3 C64.4,115.6 67.3,115.6 70.3,115.4 L71.3,115.4 C74.4,115.2 77.7,114.9 80.6,113.8 C81.7,113.3 82.8,112.7 83.8,111.9 L83.9,111.8 C84.4,111.4 85,111 85.5,110.7 C85.6,110.6 85.7,110.5 85.8,110.4 C87,108.8 88.3,107.3 89.5,105.6 C91.7,102.2 92.5,98.8 92.7,94.8 C92.8,90.6 92.8,86.4 92.8,82.2 L92.9,80.8 C92.9,76 92.9,71.2 93.3,66.4 C93.5,64.2 93.7,61.9 94.1,59.7 L94.2,59.3 L94.8,55.9 C94.9,55.1 95,54.2 95.2,53.4 C95,53.1 94.7,52.7 94.5,52.4 C94.2,52.1 93.9,51.9 93.7,51.6 L93.5,51.4 C93.1,51 92.7,50.7 92.3,50.1 L92.3,50 L92.3,50 C91.9,49.6 91.5,49.1 91.2,48.6 L91.2,48.5 L91.2,48.5 C91.1,48.4 91,48.3 90.9,48.2 C90.7,47.9 90.4,47.6 90.2,47.3 C89.2,49.2 87.9,50.7 86,51.7 C85.3,52.1 84.5,51.8 84.2,51 C83.7,49.1 82.8,47.3 81.7,45.7 C79.8,48.9 76.8,51.3 73.2,52.5 C72.3,52.8 71.5,51.9 71.7,51.1 C72.4,48.5 72.5,45.9 72.1,43.4 C70.8,44.3 69.4,45.2 68,46.1 C64.8,48.5 61.5,50.7 57.8,52.3 C57,52.6 55.7,52 56.1,50.9 C56.4,50 56.7,49.1 56.8,48.1 L56.9,47.9 C56.9,47.9 56.9,47.9 56.9,47.9 C48.3,59.6 27.7,70.9 26.1,71 L26,71 L26,71 C27,72 27.8,73.1 28.3,74.5 C28.9,75.9 26.7,76.5 26.1,75.2 L26.1,75.1 C25.2,72.8 23,71.2 20.6,70.8 C19.1,71.1 17.7,71.8 16.8,72.8 C15,74.9 14.9,77.4 16.2,79.8 L16.4,80.1 C17.1,81.4 17.8,82.7 18.2,84.1 C18.6,85.8 18.3,87.5 18.6,89.2 L18.6,89.3 C18.7,90.1 19.1,90.9 20,90.7 C20,90.7 20.1,90.7 20.2,90.6 C20.4,90.8 20.6,90.9 20.9,91 C21.6,91.2 22.3,91.1 23,90.9 C23.7,90.8 24.4,90.5 25,90.2 C25.1,90.4 25.1,90.6 25.1,90.8 C25.1,91.7 24.8,92.4 24.2,93 C25.1,94.1 25.9,95.3 26.7,96.5 C28,98.2 29.3,99.8 30.6,101.4 C32,103 33.5,104.5 35.1,106 C36.2,107 38.1,108.1 38.8,109.6 C39.6,109.9 40.3,110.5 40.5,111.5 C41,113.3 41.1,117.6 40.7,119.5 C40.4,121.3 39,122.5 37.6,123.4 C37.1,123.7 36.7,123.7 36.3,123.5 C36,123.8 35.6,124.1 35.1,124.4 C33.6,125.3 31.7,125.7 29.9,125.9 C27.4,126.7 24.7,126.9 22.1,126.4 C21.2,126.5 20.3,126.6 19.5,126.7 C10.6,127.5 1.6,126.8 -7.1,124.7 C-11,123.7 -14.8,122 -18.3,119.7 C-24.3,115.8 -26.8,104.9 -23.4,94.5 L-23.1,93.6 C-21.5,89 -19.8,84.3 -17.5,80 L-17.3,79.5 C-15.2,75.5 -12.9,71.5 -9.8,68.2 C-8.3,66.6 -6.5,65 -4.5,64 C-3.7,63.6 -2.9,63.3 -2,63 L-2,62.8 L-2,62.8 L-1.9,62.6 C-1.9,61.9 -1.8,61.2 -1.7,60.5 C-1.4,57.9 -0.9,55.3 -0.2,52.8 C0.5,50.3 1.4,47.8 2.4,45.4 C4.2,41.4 6.4,37.6 8.9,34 C9.1,33.7 9.2,33.3 9.4,32.9 C11.6,28.8 14.3,24.8 17.9,21.8 C21.9,18.3 26.8,16.1 32,14.6 C37.3,13 42.8,11.9 48.4,11.5 C51.3,11.3 54.2,11.3 57.1,11.6 Z M18.2,78.2 C20.9,76.4 24.6,77.6 25.9,80.4 C26.9,82.5 23.7,83.6 23.1,81.6 C22.6,79.6 20.4,78.1 18.4,78.4 C18.2,78.4 18.1,78.2 18.2,78.2 Z" id="🖍-Ink" fill="currentColor"></path></g><g id="face/Smile-Big" transform="translate(37.8, 44.1)" fill="currentColor"><path d="M22.2,44.2 C26.2,43.7 30.2,44.9 34.2,45.6 C36.3,45.9 38.4,46.2 40.5,46.2 C40.9,46.3 41.4,46.3 41.8,46.3 C41.8,45.9 42,45.6 42.5,45.4 C43.4,44.9 44.2,44.7 45.2,44.8 C46.1,44.8 47.1,44.9 48,45.1 C49.7,45.4 51.4,46.1 52.6,47.3 C55.5,50.1 55,54.6 52.8,57.7 C48.3,64 40,64.3 32.9,64.2 L32.2,64.2 C25.7,64.1 16.5,65.1 13.5,57.7 C12.5,55 12.6,51.9 13.9,49.3 C15.5,46.2 18.8,44.6 22.2,44.2 Z M42.4,54.7 L42.3,54.7 C39.3,54.8 36.4,54.9 33.4,55 C33.5,55.7 33.6,56.5 33.7,57.3 C33.7,57.9 33.8,58.5 33.9,59.1 C34,59.3 34.1,59.7 34.1,60 L34,60.1 L34,60.1 C34.2,60.1 34.3,60.3 34.4,60.4 C34.5,60.5 34.5,60.5 34.5,60.6 C36.9,60.6 39.3,60.6 41.7,60.1 L41.7,60.1 L41.7,60.1 C41.8,59.8 41.9,59.6 42.1,59.4 C42.2,58.5 42.2,57.5 42.3,56.5 C42.3,55.9 42.3,55.3 42.4,54.7 Z M31.1,55 C28.9,55.1 26.8,55.1 24.6,55.1 L23.7,55 L23.7,55 C23.9,56.1 24.1,57.2 24.3,58.4 C24.5,59.5 23.5,60.2 22.6,60.2 C22.7,60.2 22.8,60.3 22.9,60.3 C25.6,60.7 28.5,60.6 31.3,60.5 C31.2,59.7 31.2,58.7 31.2,57.9 L31.2,57.8 C31.1,56.9 31.1,56 31.1,55 Z M16.5,54.8 C16.6,55.4 16.7,55.9 16.9,56.5 C17.8,58.7 19.9,59.7 22.2,60.1 C21.8,60 21.5,59.7 21.4,59.1 C21.2,57.8 21.1,56.4 21.1,55 C19.6,55 18,55 16.5,54.8 Z M50.5,54.3 C49.4,54.6 48.1,54.5 47,54.5 C46,54.6 45,54.6 44,54.7 C44,55.4 44.1,56 44.1,56.7 C44.2,57.6 44.2,58.6 44.4,59.5 C46.4,58.8 48.2,57.7 49.6,55.9 C49.9,55.4 50.3,54.9 50.5,54.3 Z M21.7,47.8 C19.9,48.3 18.1,49.2 17.2,50.9 C16.6,51.9 16.4,53 16.4,54.2 C18,54 19.6,54 21.1,53.9 C21.1,53.6 21.2,53.3 21.2,53 L21.2,52.3 C21.2,50.9 21.3,49.2 21.7,47.8 Z M31.2,48 L30.4,47.9 C28.2,47.6 25.9,47.4 23.7,47.5 C23.3,47.6 23,47.6 22.7,47.6 C23.1,49.1 23,50.7 23.2,52.2 C23.3,52.7 23.4,53.3 23.4,53.8 L23.8,53.8 L23.8,53.8 C26.2,53.7 28.7,53.6 31.1,53.5 C31.1,53 31.1,52.6 31.1,52.1 L31.1,51.7 C31.1,50.5 31.1,49.2 31.2,48 Z M42.5,47.8 C40.2,48.2 37.7,48.3 35.4,48.3 C34.5,48.3 33.6,48.2 32.6,48.1 C32.7,48.6 32.7,49.1 32.8,49.6 C32.9,50.6 33,51.6 33.1,52.5 L33.2,53.4 L33.2,53.4 C36.2,53.3 39.1,53.1 42.1,53 L42.5,52.9 L42.5,52.9 L42.6,51.3 C42.7,50.2 42.8,49.1 42.9,48 L42.8,48 L42.8,48 C42.7,47.9 42.6,47.9 42.5,47.8 Z M43.5,48.2 C43.7,49.8 43.7,51.3 43.8,52.9 L45.8,52.8 C46.1,52.7 46.5,52.7 46.8,52.7 C48,52.6 49.7,52.2 50.9,52.6 C51,51.5 50.7,50.4 49.7,49.6 C47.9,48.3 45.6,48.7 43.5,48.2 Z M36.9,34.4 C39.8,32.7 47.1,31 47.5,36.3 C47.8,38.7 46,40.7 43.9,41.5 L43.8,41.6 C41.8,42.4 38.3,43.3 36.6,41.6 C35.2,40.1 37.1,37.5 38.9,38.7 C39.8,39.3 41.7,38.8 42.7,38.5 L42.7,38.5 C43.8,38.2 45.3,37.2 44.8,35.9 C44.4,34.7 42.7,34.5 41.7,34.4 C40.1,34.4 38.6,34.7 37,34.8 C36.7,34.9 36.7,34.5 36.9,34.4 Z M48.9,26 C52.9,25.8 55.3,30.1 54.4,33.6 C54.3,34.2 53.6,34.8 52.9,34.8 L52.8,34.8 C52.7,34.7 52.6,34.7 52.5,34.7 C51.9,34.5 51.3,33.9 51.4,33.2 L51.4,33 C51.5,31.4 51.3,29.4 49.3,29 C47.6,28.7 46.7,30.3 46.7,31.8 C46.7,32.1 46.4,32.2 46.1,32.1 C44.9,31.4 44.7,29.9 45.2,28.6 C45.8,27 47.2,26.1 48.9,26 Z M19.6,26.9 C22.5,25.9 25.6,27.5 27,30 C27.4,30.2 27.9,30.5 27.9,31.1 C27.8,31.9 27.6,32.5 27,33.1 C26.1,34.1 24.5,33.6 24.1,32.4 L24.1,32.3 C23.6,30.7 21.9,29.7 20.3,30.2 C18.5,30.9 18.6,32.8 17.3,34 C17.1,34.1 16.9,34.1 16.8,34 C15.4,33.4 15.6,31.4 16.1,30.2 C16.8,28.7 18,27.4 19.6,26.9 Z M15.7,18.2 C18,15.8 24.1,13.5 25.7,17.9 C26,18.7 25.3,19.8 24.5,20 C23,20.3 21.8,19.7 20.3,19.8 C19.2,19.9 18,20.3 17.1,21 C14.5,22.9 14,26.3 12.2,28.8 C12.1,28.9 12,28.8 11.9,28.7 C11.5,25.1 13.1,20.8 15.7,18.2 Z M46.1,15.8 C47.6,15.3 49.4,15.3 50.9,15.8 C52.5,16.3 53.9,17.2 55,18.4 C55.6,19 56,19.6 56.4,20.2 C56.6,20.6 56.8,21.3 57,21.7 C58.2,22.4 58.8,24 57.7,25.2 L57.6,25.2 L57.5,25.4 C56.9,25.9 56,26.2 55.2,26 C53.4,25.4 53.2,24 52.6,22.5 C52.2,21.5 51.5,20.7 50.6,20 C48.6,18.5 45.3,18 42.9,18.7 C42.7,18.8 42.6,18.6 42.7,18.5 C43.1,17.9 43.4,17.4 44,16.9 C44.6,16.4 45.3,16.1 46.1,15.8 Z" id="🖍-Ink"></path></g><g id="facial-hair/*-None" transform="translate(29.2, 80.1)"></g><g id="accessories/Glasses-5" transform="translate(11.2, 57.1)" fill="currentColor"><path d="M87.2,17.6 C86.5,19.5 85.5,21.4 84.2,22.9 C79.2,27.2 74.3,24.8 71.8,19 C70.8,14.9 73.3,10.5 76,7.5 C79.9,3.6 86.1,5.7 87.9,10.3 C88,10.8 88.1,11.4 88.1,12 C88.1,13.9 87.9,15.6 87.2,17.4 M38.6,14 C45.2,6.1 57.7,5.6 57.4,17.8 C55.9,33.2 31.8,29.4 38.6,14 Z M89.3,7.4 C89,7 88.8,6.6 88.5,6.2 C88.4,6.2 88.3,5.6 88,5.6 C82.8,-0.1 73.8,3.1 70.5,8.8 C69.9,9.5 69.5,10.3 69.1,11.2 C65.9,10.6 62.1,10.7 59.1,11.9 C56.2,4.2 47.2,3.5 41.3,6.8 C37.6,8.6 35.2,12.4 31.7,14.5 C23.3,15.1 14.2,13.2 6,15.3 C-0.5,16.7 4.9,19.9 6,17.7 C13.8,15.4 23,17.4 31.1,16.9 C31.9,18.3 33.5,19.5 35.2,19.4 C36.9,34.7 59.3,32.2 60.1,18.6 C61,17.2 62,15.9 63.6,15 C64.2,14.9 64.8,14.7 65.3,14.5 C66.2,14.3 67.6,14.7 68.4,15.5 C71.3,32.5 87.6,30.5 90.6,15.6 C90.6,15.5 90.8,15.3 90.9,15 C91.9,13.6 94.4,13.1 94,10.9 C93.6,8.7 90.8,8.7 89.3,7.4 Z" id="🖍-Ink"></path></g></g></g></g></g></svg>