<svg viewBox="0 0 321 692" version="1.1" xmlns="http://www.w3.org/2000/svg" xmlns:xlink="http://www.w3.org/1999/xlink"><g id="Introduction" stroke="none" stroke-width="1" fill="none" fill-rule="evenodd"><g id="variations-standing" transform="translate(-2735, -1712)"><g id="a-person/standing" transform="translate(2733, 1658)"><g id="pose/standing/robot_dance-1" transform="translate(-28.7, 150.3)"><path d="M84.3,214.2 C84.3,217 84.6,223.2 85.3,225.9 C77.7,213.6 66.2,200.3 64.5,185.4 C65,185.2 67.4,185 67.9,184.7 C71.8,186.5 71.1,180.9 71.7,178.3 C73.2,172.7 76.5,167.3 78,161.8 C81.8,160.1 74.2,159.4 73.1,159.4 C77.6,154.3 79.8,147.3 83,141.4 C87.8,131.3 92.1,120.9 95.9,110.4 C96.8,117 96.9,123.7 96.4,130.3 C94.8,158.6 84.2,185.8 84.3,214.2 Z M349,164 C346.7,164.4 342.7,164.7 340.3,164.9 C343.5,163.1 352.6,159.5 346.9,156.4 C345.1,155.7 343.2,156.7 341.4,156.9 C333.9,158.2 324.6,158.1 317.1,157.5 C319.8,155.2 323.5,152 326.2,149.6 C327.6,148.4 329,147.9 327.4,146.1 C324.5,143.4 319.5,145.4 316.2,146.5 C307.1,151.6 296.9,157.1 287.2,161 C287.1,159.6 287.2,157.9 285.9,156.9 C282,155.1 279.2,155.7 275.1,155.2 C270.3,154.5 266.1,153.7 261.4,152.4 C258.3,150 256.4,143.1 251.5,143.9 C255.8,132.9 249.2,121.4 246.7,110.9 C243.5,100.1 241.9,88.9 241.8,77.7 C241.8,59.8 231.4,46.1 216.4,36.9 C210.5,32.9 206.5,23.1 199.1,21.2 C198.2,17.6 198.1,16 197.3,12.4 C196.9,11.4 196.6,5.8 195.6,6 C194.4,0.4 188.6,-1.8 183.6,-3 C177.1,-4.3 167.9,-6 162,-2.1 C160.3,-0.7 159.6,1.6 159.5,3.8 C158.8,6.6 157.5,9.5 155.9,11.9 C153.2,11 154.7,9.3 152,8.9 C127.6,5.3 100.5,23.2 84.7,40.6 C56,70.1 33,110.3 36.8,152.2 C35.8,152.1 31.3,151.4 31.3,152.8 C31.6,158.9 32.7,164 33,170.2 C32.7,178.3 41.2,179.3 47.3,181.3 C46.9,204.9 55.5,228.5 68.9,247.8 C72.2,251.7 77.1,264.9 83,259.6 C83.7,258.8 78.3,253.1 77.3,251.7 C74,247.6 65.2,227 71.4,222.9 C72.8,227.3 86.1,248.7 88.5,236.6 C91.7,238.4 96.9,239.6 100.6,239.4 C107.7,243.3 114.6,247.4 121.4,251.7 C124.6,257.9 129.3,263.9 133.2,269.9 C106.2,332.1 79.9,434.4 45.2,493 C42.1,496.9 58.8,503.4 61.7,504.8 C56.1,513.9 55.4,524.4 51.1,534.3 C50.3,534.1 49.5,534.3 48.7,534.7 C43.5,538.3 41.5,551 41.2,557.3 C41.4,560.1 40.4,564.4 42.7,566.5 C42.3,566.8 42.1,567.2 41.9,567.6 C40.3,568.9 40.5,571.6 41.4,573.3 C44.4,579.6 66.4,579 73.6,580.3 C98.9,582.5 120.1,582.8 145.5,580.5 C148.6,579.8 146.2,575 144.7,573.7 C145.4,573.3 145.8,572.5 145.5,571.5 C139.8,555 119,556.1 106.4,547.4 C109.7,545.5 107.6,546.1 105.5,546.8 C103.3,545.4 101.1,543.9 99.1,542.1 C100.7,541.2 99.9,540.6 98.3,541.4 C95.7,539.3 93.6,536.1 90.3,535 C87.1,534.3 87.1,532.9 87.1,532 C89,524.2 91.1,516.3 92.2,508.4 C93.3,510.1 103.3,496.4 105.5,493 C113.8,479.9 113.8,466.9 119.6,452.7 C131.5,421.6 156,356.4 170.9,326.6 C205.8,383.4 188.8,460.2 210.3,520.7 C211.3,522.5 213.1,529.3 215.5,527.4 C216.5,527.6 217.5,527.7 218.5,527.8 C218.2,534.4 217.7,541 216.6,547.6 C215.6,547.9 214.7,548.4 214.3,549.3 C212.5,548.1 209.2,566.8 208.9,568.7 C208.9,571.1 206.8,576.6 208.7,578 C206,579.2 205.5,583.4 207.5,585.6 C213.3,593.4 241.7,591.2 252.2,592.5 C265.4,592.2 320.8,597.2 324.7,584.6 C325.4,581.8 324.1,578.1 321.5,577 C322.5,574.5 320,572.1 318.4,570.4 C309.2,560.8 295,559.3 282.7,555.2 C283.2,554.7 266.7,546.3 263.1,544.2 C263.4,541.3 257.5,544.2 257.5,544.2 C254.7,539.2 252.7,531.5 250.8,526.1 C254.3,525.1 262.6,524.1 264.2,520.7 C269.2,519 264.2,511.8 263.1,508.4 C233.9,435.3 261.6,343.2 218.5,274.2 C226.4,269.7 235.5,259.8 227.6,251.5 C226.1,249.5 222.3,243.3 222.3,244.3 C220.9,238.4 217.6,228.2 216.6,222.2 C212.9,200.3 215.3,179.7 218.5,157.5 C222.8,174.2 237.9,188.1 253.2,195.7 C259.2,198.2 267,203.3 273.6,201.7 C279.5,199.9 290.3,187.8 291.5,182 C308.8,184 326.7,182.4 343.2,177 C345.3,176.2 347.8,176.2 347.1,173.2 C346.5,170.7 341.8,171.3 339.8,171.8 C342.9,170.1 350.8,169.7 350.8,165.2 C350.7,164.3 350,163.8 349,164 Z" id="🎨-Background" fill="#FFFFFF"></path><path d="M159.5,0.2 C159.8,0.3 160,0.7 160.1,1.3 C160.4,1.4 160.6,1.6 160.7,2 C160.9,2.9 160.7,3.9 160.5,4.9 L160.4,5 C160.2,5.9 160,6.8 159.7,7.7 L159.7,7.9 C159,11.6 157.7,15.2 156.1,14.6 L156.5,15.2 C162.6,26.3 180,56 193.6,51.7 C201.5,48.6 201.4,38.3 200.8,31.1 C195,34.7 193.9,7.1 195.1,4.1 C196,3.4 196.5,9.7 196.8,10.6 C197.6,14.1 198.6,17.5 199.5,20.9 C201.4,21.3 203.2,22.1 204.8,23.2 C204.8,23.2 204.9,23.2 205,23.3 C205.9,23.9 206.7,24.6 207.3,25.4 C208.1,26.2 208.7,27.2 209.3,28.1 C210.7,29.6 211.9,31.2 213.2,32.7 C213.9,33.4 214.5,34.1 215.1,34.8 L215.6,35.2 C215.7,35.3 215.8,35.4 215.9,35.4 C230.9,44.8 241.3,58.8 241.4,77.1 C241.4,88.5 243.1,99.9 246.2,110.9 C248.7,121.6 256.8,132.5 252.4,143.7 C257.3,142.9 257.8,149.3 260.9,151.7 L261.9,151.9 C266.2,153.1 270.2,154.1 274.6,154.8 C278.7,155.2 283.4,154.7 287.3,156.6 C288.6,157.5 288.1,159.2 288.2,160.5 C297.9,156.6 306.7,151.1 315.7,145.9 L316,145.8 C319.3,144.7 325.3,142.9 328.1,145.5 C329.7,147.4 328.1,149.1 326.6,150.3 C323.9,152.7 321.1,154.9 318.3,157.2 C325.7,157.8 333.2,157.3 340.5,156.1 L340.9,156 C342.7,155.7 344.9,155 346.7,155.7 C352.4,158.9 345.7,162.7 342.6,164.6 C345,164.4 347.4,164.1 349.7,163.7 C350.7,163.5 351.4,164.1 351.5,165 C351.5,169.5 345.6,169.8 342.5,171.5 L342.8,171.4 C344.8,171 347.6,170.6 348.3,173 C348.9,176.1 344.8,177.3 342.7,178.1 C326.2,183.7 308.3,185.3 291,183.2 C289.8,189.2 279,201.5 273.1,203.3 C266.6,204.9 258.7,199.8 252.7,197.3 C237.4,189.5 223.2,176.7 218.9,159.7 C215.2,186 216.7,212.6 222.2,238.6 C223.1,240.6 224,242.6 225.1,244.5 C225.4,244.6 225.7,244.8 225.7,245.2 C225.7,245.5 225.8,245.7 225.8,245.9 C226.9,247.7 228.1,249.4 229.1,251.2 C229.3,251.6 229.6,252 229.8,252.3 C236.9,260.8 228.2,271.6 220.4,276.1 C263.6,346.4 235.7,434.9 265,509.3 L265,509.5 C266.1,513.1 269.5,520.3 264.6,522 C263.1,525.5 255.3,525.9 251.8,527 C253.7,532.5 255.8,537.8 258.6,542.9 L258.6,542.9 L258.6,542.9 C259.7,542.1 262.1,541.3 263.1,542.1 C263.4,542.2 263.6,542.2 263.8,542.4 C265.4,543.1 266.6,544.6 268.1,545.5 C268.9,546 269.7,546.4 270.5,546.8 C271.3,547.2 272.2,547.4 272.8,548 C273,548.2 273.1,548.5 273,548.7 C273.5,549 274,549.2 274.6,549.5 L274.8,549.3 C279.3,546.5 282.9,545 276.4,550.4 C278.7,551.5 281.1,552.4 283.6,553.3 C285.4,552.4 287.3,551.8 289.4,551.7 C289.7,552.1 286.9,553.9 286.5,554.3 C298.8,558.6 312.3,561.9 321.5,571.7 L321.7,571.9 C323.3,573.6 325.6,576 324.5,578.4 C327.2,579.5 328.5,583.2 327.8,586.1 C323.9,598.9 264.9,593.9 251.7,594.2 C241.2,592.9 212.8,595.1 207,587.1 C205,584.9 205.5,580.6 208.3,579.4 C206.3,578 208.5,572.4 208.5,569.9 L208.5,569.6 C208.8,567.7 210.1,560.4 211.4,555.3 C211.4,554.9 211.5,554.5 211.6,554.1 L211.6,553.8 C211.9,552.2 212.3,550.5 213.3,549.2 C214.1,548.3 215.1,547.7 216.3,547.5 C216.6,545.6 216.8,543.6 217,541.7 C217.2,539.4 217.2,537.1 217.2,534.8 C217.2,533.6 217.2,532.4 217.1,531.3 C217.1,530.4 217.1,529.4 216.9,528.5 C216.8,528.7 216.6,528.8 216.3,528.7 C215.8,528.5 215.4,528.2 214.9,528 C214.9,527.9 214.9,527.9 214.9,527.9 C212.5,529.5 210.8,522.8 209.8,521 C188.3,459.4 205.3,388.4 170.4,330.6 C165.6,340.9 161.4,350.4 156.8,360.8 C142.3,393.2 124.5,450.4 112.5,484.8 C109.2,491.8 105.4,498.6 100.8,504.9 C99.4,506.5 98.4,509 96.3,509.8 L96.1,509.9 L96.1,509.9 C95.5,510.9 94.7,511.8 93.6,511.8 C93.3,511.8 93,511.7 92.7,511.7 C91.7,518.8 90.4,526 88.7,533.1 L88.9,533 C90,532.5 91.2,532.1 92.4,532.2 C95.2,532.9 94.1,535.4 91.9,536.2 C94.7,537 96.5,539.5 98.6,541.5 C100.3,540.5 102.3,540.1 104.3,540.3 C104.7,540.3 104.9,540.4 105.1,540.6 C105.2,540.6 105.3,540.6 105.4,540.6 L105.2,540.8 L105.2,540.8 C105.6,541.4 105.3,542.3 104.3,542.4 C103.6,542.4 102.9,542.4 102.2,542.6 C101.7,542.8 101.2,543.1 100.7,543.4 C102.3,544.8 104,546.1 105.8,547.3 C106.7,546.8 107.7,546.5 108.7,546.1 C110,545.7 110.6,547.8 109.3,548.2 C109,548.3 108.7,548.4 108.5,548.5 L108.2,548.6 C108.1,548.7 108.1,548.7 108,548.7 C120.6,557.7 141.9,556.5 147.6,573.3 C147.8,573.9 147.7,574.5 147.4,574.9 C148.7,576 149.3,578.1 149,579.7 L149,579.8 C149.2,581.1 148.9,582.2 147.5,582.5 C138.4,583.3 129.2,583.9 120.1,584 L119.3,584 C106.1,584.1 42.1,583.7 39.2,575.2 C38.4,573.6 38.2,571.2 39.3,569.8 C39.4,569.1 39.7,568.4 40.2,567.9 C38.3,566 39.2,561.3 39,558.9 C39.4,551 41,542.4 45.9,536 C45.9,535.8 46,535.8 46.1,535.8 C47,534.9 48.1,534.4 49.4,534.3 C49.4,534.2 49.4,534.1 49.5,534 C50.5,531.7 51.4,529.3 52.4,526.9 C53,524.2 53.8,521.5 54.5,518.8 C55.2,516.1 55.9,513.4 56.6,510.7 C57.2,508.6 57.6,506.2 58.6,504.1 C58.6,504 58.6,503.9 58.5,503.8 L57.5,503.4 C51,500.8 40.7,496.3 43,493.4 C67.1,443.3 90.8,371.9 112.9,319.9 C113.3,318.9 113.6,317.9 114,316.9 C115,314.5 116,312 117,309.6 L117.6,308.1 L127.3,284.9 L127.3,284.9 C128.3,282.5 129.4,280.1 130.2,277.6 C131,275.2 131.2,272.7 129.7,270.5 C128.4,268.6 126.6,267 125.1,265.1 C124,263.7 122.9,262.2 122,260.6 C121.1,259.5 120.3,258.1 119.7,257.1 C118.6,255.4 117.3,253.5 116.5,251.5 C115.5,250.9 114.5,250.2 113.5,249.6 C111.8,248.7 110.1,247.7 108.5,246.6 C106.4,245.3 104.3,244.1 102.2,242.9 C101.5,242.6 100.7,242.2 100,241.8 C97.7,242 91.4,239.2 89.2,237.3 C89,237.3 88.8,237.2 88.5,237.1 C88.4,238.4 88,239.5 87.1,240.3 C80.9,243.3 73.1,229.5 71,224.9 C66.7,229.1 76.9,249.8 80.2,254 L80.4,254.3 C81.3,255.6 82.2,257.1 83.5,258.1 L83.6,258.2 C84.4,258.8 84.6,259.8 83.9,260.7 C77.9,266 71.7,254.2 68.4,250.3 C55,230.6 46.4,206.6 46.8,182.6 C40.7,180.5 32.2,179.5 32.5,171.2 C32.2,165 31.1,158.8 30.9,152.6 C30.8,151.1 35.3,151.8 36.3,152 C34.8,137.6 37.1,123 41.1,109.2 C51.6,73.9 94.9,10.2 137.6,7.9 C137.6,7.8 137.6,7.7 137.7,7.7 C139.6,7.2 141.7,7.3 143.7,7.4 C145.8,7.4 147.9,7.4 149.9,7.7 C152.1,7.9 154.3,8.7 155.8,10.2 L156.3,9.3 C156.8,8.3 157.4,7.2 157.8,6.1 C158,5.5 158.2,4.9 158.3,4.3 C158.5,3.4 158.6,2.5 159,1.7 C159,1.7 159,1.7 159,1.7 C159.1,1.2 159.3,0.7 159.5,0.2 Z M211.9,579.4 C211.3,580 210.2,580.3 209.3,580 C206.2,588.8 223.1,588.3 228.5,588.8 C234.3,589.4 339.5,594.9 321.7,581.9 C300.8,589.9 231,590.7 211.9,579.4 Z M263.1,544.4 C261.7,545.9 259.6,546.5 258.1,547.9 C253.8,551.5 250.4,556.5 244.5,557.5 C236.8,558.9 229.8,555.1 222.9,552.1 C222,552.1 221.1,551.7 220.3,551.4 C220.2,551.5 220.2,551.6 220.2,551.6 C220.1,551.6 220.1,551.6 220,551.6 C220,551.6 219.9,551.6 219.8,551.5 C219.6,551.4 219.4,551.3 219.2,551.2 C219.1,551.2 219,551.2 218.9,551.1 C217.5,551.1 215.9,551.4 215,552.6 C214.9,552.7 214.9,552.8 214.8,552.9 C214.3,554.5 214.3,556.3 214.5,557.7 C214.6,558.1 214.4,558.5 214.1,558.8 C213.8,565.4 213.1,571.9 212.6,578.4 C215.1,579.4 217.8,580.1 220.5,580.5 C239.1,582.8 257.8,583.8 276.5,583.3 C287.6,582.9 298.7,581.9 309.7,580.2 C313.3,579.9 316.9,578.5 320.5,579.1 C320.6,578.8 320.9,578.5 321.2,578.4 C312.1,565.9 296.5,562.5 282.9,557.1 C280.7,558.5 279.3,561.5 276.8,562.4 C275.8,562.5 274.5,562 274.6,560.7 C275,558.2 277.7,557.1 279.6,555.6 C277.6,554.7 275.7,553.7 273.8,552.6 C272,554.2 269.8,555.5 268,557.3 C269,559.7 264.9,559.5 264.9,556.9 C265.2,554.1 269.6,552.9 271.6,551.3 C268.5,549.4 265.7,547 263.1,544.4 Z M42.9,569.1 C42.8,569.3 42.6,569.5 42.4,569.6 C41.9,569.9 42.1,571.3 42.1,571.8 L42.1,571.8 C42.2,572.7 42.2,573.5 42.3,574.3 C43.1,575 44,575.5 45.1,575.9 C78.4,581.2 112.4,581.6 146,579.7 C145.8,578.8 145.2,578 144.6,577.3 C123.3,579.1 101.6,577.2 80.3,575.5 C67.8,573.8 54.8,573.2 42.9,569.1 Z M91.4,536.4 C85.9,538.3 80.8,540.9 75.9,544.1 C74.1,545.3 72.4,546.6 70.3,547.3 C63.1,549.4 52.3,539.1 52.2,538.9 C49.7,537.3 47,538.8 45.6,541.1 C45.5,541.4 43.4,553.3 43.5,559.1 C43.1,561.1 44.1,564.3 43.6,566.5 C44,567 44.6,567.2 45,567.7 C45.2,567.9 45.1,568.2 45,568.3 C64.4,569.9 83.7,572.9 103.2,573.6 C116.6,574.3 130,574.1 143.3,574 C140.3,565 130,562.7 122,559.8 C116.1,557.6 110.6,554.4 105.7,550.3 C103.6,551.8 102,553.9 100.5,555.9 C99.8,556.8 98.4,557.4 97.7,556.2 C97,555 98.4,553.5 100.2,552.2 C101.1,550.8 102.3,549.6 103.7,548.6 C102.2,547.2 100.7,545.8 99.4,544.3 C96.5,546.3 94.4,549 92.4,551.7 C91.4,552.8 89.6,551.3 90.4,550.1 C91,549.3 91.8,548.5 92.5,547.8 C93.7,545.6 95.4,543.6 97.4,542.2 L97.3,542 C95.6,539.8 94.1,537.2 91.4,536.4 Z M43,567.7 C43,567.7 42.9,567.8 42.9,567.9 C42.9,568 43,568.1 43,568.2 L43.5,568.2 L43.5,568.2 C43.3,568 43.2,567.9 43,567.7 Z M250,527.4 C239.8,529.3 229.3,530 219,528.4 C220.2,535.1 220.9,541.7 220.5,548.5 C235.9,552.9 242.3,560.3 255.1,545.5 C254.4,544.6 254.1,543.4 253.7,542.3 C251.9,537.5 250.4,532.5 250,527.4 Z M63,505.6 C62.9,506 62.6,506.2 62.2,506.3 C62.1,506.9 62,507.5 61.8,508.1 C61.6,511.2 60.4,514.2 59.2,517 L59,517.6 L59,517.6 C58.2,519.9 57.4,522.3 56.5,524.6 C55.9,527.1 55.4,529.5 54.8,531.9 C54.7,533.6 54.5,535.2 54.1,536.9 C54.1,536.9 54.1,537 54,537.1 C54.6,537.3 55.2,537.6 55.7,537.9 C71.3,549.6 68.6,541.8 83.5,535.3 C83.4,534.6 83.8,534.1 84,533.4 L84.1,533.3 C84.1,533.3 84.1,533.2 84.1,533.2 C84.1,532.9 84.1,532.7 84.2,532.4 C85.7,526.2 87.8,520.1 89.8,514.1 C90.1,513.2 90.4,512.3 90.8,511.4 C81.3,511.3 71.9,508.7 63,505.6 Z M58.9,508.7 C58.7,509.5 58.5,510.3 58.3,511 L58.1,512.2 L58.1,512.2 C58.5,511 58.8,509.8 58.9,508.7 Z M149.2,9.4 C145.9,10.2 142.5,10.5 139.2,11.2 C116.3,13.9 98.7,30.1 83.6,46.2 C55,76.2 38.3,113.2 39.5,154.9 C49.8,156.8 59.9,159.5 70.3,160.1 C68.8,157.8 71.3,155 72.2,152.8 C87.3,123.7 98.9,91.6 108.3,61 L108.1,62.4 C105.1,77.7 101.7,93 96.4,107.8 C97.9,106.3 123,86.3 121.1,92.9 C113.4,98.9 104.7,103.6 96.7,109.1 C106.2,141 92.4,173.3 89.8,205.1 C89.2,212.2 89.2,219.4 88.3,226.4 C88,227.2 88.3,228.9 87.8,229.6 C88.2,231.5 89,233.2 90.6,234.7 C91.3,235.3 92,235.8 92.8,236.3 C94.7,236.6 96.6,237.3 98.2,238 C101.7,239.5 104.7,241.8 107.8,243.9 L107.9,244 L107.9,244 C113,246.5 118,249.5 123,252.5 L123.2,252.6 C125.1,253.6 127,254.5 128.7,255.9 C128.7,255.9 128.8,256 128.8,256.1 L131.9,258 C156.4,273.1 181.6,288 210.4,277.2 C218.5,274 230.2,267.4 228.7,257.2 C228.4,256.3 227.9,255.3 227.4,254.4 C227.3,254.3 227.1,254.1 227,253.9 C225.9,252.5 224.6,251.2 223.7,249.7 C223.3,249.1 222.9,248.4 222.6,247.8 C222.4,247.7 222.2,247.5 222.1,247.3 C220.7,244.3 219.3,241.2 218.1,238.2 C202.8,185 221.3,127.8 226.6,74.1 C227,71 227.5,67.9 227.5,64.8 C227.5,64.6 227.7,64.6 227.7,64.8 C229.6,78.5 228.2,92.3 226.4,106 C224.1,123 221.2,140 219.1,157.1 C224.6,174.4 239.7,186.8 255.6,194.3 C258.3,195.6 261.1,196.7 263.9,197.7 L264.1,197.8 C267.2,198.9 270.7,200.5 273.7,198.3 C279.4,194.4 283.5,188.5 287.2,182.8 C285.7,182.6 284.2,182.5 282.7,182.4 C279,186.6 274.5,190.2 269.7,193.1 C267.7,194.3 265.5,193.8 264.6,191.6 C263.7,189.5 264.8,187.1 265.5,185.1 L265.7,184.9 C269.5,174.6 276.1,165.1 285.1,158.7 C278.3,157.3 271.3,157.4 264.8,154.7 C265.2,155.1 264.7,155.5 264.5,155.8 C264.6,156.4 264.1,156.9 263.6,157 C258.3,163.9 254.3,172.1 253.4,180.9 C253.6,183.8 251,187.3 248.4,184.2 C246.4,175.4 254.3,161.8 261.3,156.4 C254.3,151.7 256.3,144.8 251.9,144.7 C250.8,146.9 249.3,149 247.5,150.6 C246.6,151.3 245.6,151.8 244.7,152.4 C243.7,153 242.8,151.6 243.5,150.9 L243.7,150.6 C246.6,147.2 250,143.8 250.5,139.2 C251.4,133.5 248.8,127.8 246.9,122.6 C243.1,112.6 240.6,102.3 239.4,91.7 C238,82.2 239.7,72.4 236.5,63.2 C235.8,60.7 234.9,58.3 233.7,56.2 C233.7,56.2 233.7,56.1 233.7,56.1 C232.3,54.5 231.2,52.8 230,51.2 C228.7,49.5 227.2,47.8 225.7,46.3 C223.2,43.7 220.4,41.6 217.5,39.5 C217.4,39.5 217.4,39.5 217.3,39.4 C216.8,39.1 216.2,38.7 215.7,38.3 L215.7,38.3 C214,37.1 212.3,35.8 211,34.2 C209.7,32.7 208.7,30.8 207.7,29.1 C206.2,27.3 204.8,25.5 203.1,24 C202.1,23.4 201.1,22.9 200.2,22.2 C200.1,22.1 199.9,22.1 199.8,22 C200.1,23.5 200.7,24.9 201.2,26.5 C202,26.2 203,26.5 203.1,27.7 L203.1,28.1 C203.9,35.1 204.3,43.5 200.2,49.6 C191.1,62.7 177.6,51.5 170.7,42.3 C164.6,34.9 159.4,26.7 155.6,18 L155.5,17.8 C154.8,16.5 153.3,12.4 152.9,10.4 C151.8,9.8 150.4,9.6 149.2,9.4 Z M120.2,253.8 C120.1,253.8 120.1,253.8 120.1,253.9 C121.3,255.7 122.6,257.6 123.8,259.4 C122.8,257.7 121.8,256 121,254.3 C120.7,254.1 120.4,254 120.2,253.8 Z M48.3,183 C53.2,209.6 60.2,237.6 79.7,257.5 C73.6,249 68.9,239 67.5,228.5 C67.5,225.7 68.5,222.7 71.6,222.3 C72.2,222.2 72.6,222.7 72.7,223.1 L72.8,223.2 C74,226.1 75.6,228.9 77.5,231.4 L77.6,231.7 C79.1,233.5 85.1,241 86,237.4 C85.3,219.3 66.6,211.9 63.5,187 C58.3,186.4 53.3,184.4 48.3,183 Z M88.5,235.8 C88.5,236.1 88.5,236.4 88.5,236.6 C88.8,236.5 89.1,236.4 89.4,236.4 C89.1,236.2 88.8,236 88.5,235.8 Z M88.2,233.8 C88.3,234.4 88.4,234.9 88.5,235.4 C89,235.6 89.5,235.8 90.1,236 C89.7,235.7 89.4,235.4 89.2,235 C88.8,234.7 88.5,234.3 88.2,233.8 Z M95.5,110.4 C91.6,121.1 87.3,131.6 82.5,141.9 C79.3,147.9 77.2,154.9 72.7,160.2 C72.7,160.2 72.6,160.2 72.6,160.3 L72.7,160.3 C74,160.3 81.2,161 77.5,162.7 C76.1,168.3 74.2,173.9 72.6,179.5 L72.6,179.6 C72,182.4 71.3,187.8 67.4,186 C67,186.3 66.5,186.5 65.9,186.7 C67.7,201.9 77.3,211.8 84.9,224.3 C83.2,217.7 83.7,210.9 84.3,204.2 L84.5,202.5 C87.6,171.8 99.2,141.6 95.5,110.4 Z M127.5,208 C121.3,200.3 90.7,123.7 112.3,170.1 C120,186.3 126.3,203.6 139,216.7 C139.9,217.6 138.7,219.2 137.6,218.5 C133.5,215.8 130.2,212.1 127.5,208 Z M105.4,115.5 C105.3,115.4 105.5,115.3 105.6,115.4 C113.9,131.8 119.8,149.4 129.2,165.2 C134.9,175.1 141.7,184.2 149.5,192.5 C150,193.1 149.2,194 148.5,193.4 C126.3,173 115.5,143.2 105.4,115.5 Z M269.2,182.9 L269.2,182.9 L269.2,182.9 L269,183.4 C268.9,183.6 268.8,183.8 268.8,183.9 C268.8,183.9 268.8,183.9 268.9,183.9 C268.9,183.8 269,183.8 269.1,183.7 C269.1,183.4 269.1,183.1 269.2,182.9 Z M36.4,152.6 C35.3,153.1 33.9,153.2 32.6,153.3 C34,159.8 35.2,166.4 36.5,173 C37.1,175.1 38.4,175.8 40.3,176.4 L41.9,176.9 C49,179.2 56.2,181.5 63.5,182.9 C64.1,182.6 64.8,182.6 65.1,183.1 C65.5,183.2 65.9,183.2 66.2,183.2 C68.2,176 71.6,169 76.1,162.9 C63.5,163.4 50.8,160 38.8,156.3 C38.4,156.6 37.7,156.4 37.5,155.9 L37.3,155.8 C35.3,155.2 32.7,153.8 36.9,154.5 C36.6,153.9 36.5,153.3 36.4,152.6 Z M325.7,147.3 C317.4,145.9 311,152.6 303.9,155.7 C299.6,157.6 288.3,163.2 284.1,161.3 C278.5,166.8 273.7,173.1 270.3,180.3 C271.3,180.2 272.2,180.2 273.1,180.1 C274.7,179.6 276.5,179.6 278.2,180.1 C295.4,180.3 312.5,183.6 329.6,179.4 L330,179.3 C333.5,178.6 345.5,176.1 346.2,173.6 C346,172.6 342.8,173.7 342.2,173.8 C337.3,174.8 332.3,175.2 327.3,175.7 C325.9,175.9 325.9,173.7 327.3,173.6 C333.3,173 339,170.7 344.5,168.4 C345.1,168.1 346.6,167.6 347.7,166.9 C342.6,167.8 337.4,167.9 332.2,167.7 C330.4,167.5 330.3,164.8 332.2,164.9 C335.7,165.2 339,163.5 341.8,161.7 L342.5,161.3 C347.2,158.2 346.9,158.1 340.9,159.2 C332.1,160.8 323.2,160.8 314.3,160.2 C313,160.2 312.2,158.5 313.2,157.5 C317.3,154 321.7,150.9 325.7,147.3 Z M285.4,160.1 L285.3,160.2 C285.1,160.4 284.9,160.6 284.8,160.7 L284.8,160.7 C284.7,160.8 284.5,160.9 284.4,161 C285,161.2 285.6,161.2 286.2,161.1 C285.8,160.9 285.5,160.5 285.4,160.1 Z M128.7,131.9 L128.7,131.9 C134.1,137.7 139.5,147.1 144,154.5 C144.6,160.6 131.4,135.4 128.7,131.9 L128.7,131.9 Z M263.7,154.3 C263.8,154.4 263.8,154.4 263.9,154.5 L263.9,154.6 L264,154.5 C264.1,154.5 264.1,154.5 264.2,154.5 C264,154.4 263.9,154.4 263.7,154.3 Z M239.2,134.5 C244,135.3 234.1,141.3 232.8,142.1 C232,142.4 224,149 224.5,146.9 L224.8,146.6 C228.4,141.9 233.5,136.5 239.2,134.5 Z M50.3,122 C52.1,119.1 61.8,122.9 64.9,123.3 C66.6,123.8 68.3,124.3 70.1,124.7 C71.4,125.2 77.8,124.7 75.5,127.4 C73,128.7 69.9,127.7 67.4,127 C62.4,125.7 57.4,124.1 52.3,123.4 C52.2,123.3 52.2,123.3 52.3,123.5 C53.4,125.9 55.7,128.2 58.3,129 C58.5,129 58.4,129.3 58.2,129.3 C55.4,128.7 48.8,125.6 50.3,122 Z" id="🖍-Ink" fill="currentColor"></path></g><g id="Head" stroke-width="1" transform="translate(95.9, 42.7)"><g id="head/Bangs-2"><path d="M92.5,38.3 C78.2,28.9 49.6,29.9 33.9,35.7 C18.6,40.5 13.2,54.1 10.6,68.7 C7.5,85.1 8,108.8 30.2,108.5 C33.4,110 36.8,110.7 40.1,111.9 C44.5,113.5 48.8,115.2 53.3,116.6 C62.2,119.4 72,119.2 80.5,115 C85.1,112.8 87,109.3 90.1,105.6 C98.9,94.8 103.3,79.3 102.9,65.6 C102.2,55.9 100.6,44.7 92.5,38.3 Z" id="🎨-Background" fill="#FFFFFF"></path><path d="M110.6,78.1 C109.1,69.1 108.7,59.8 106.8,50.8 C105,42.4 101.6,34.3 95.7,27.9 C90.4,22.1 83.6,17.9 76.3,15.2 C62,9.9 45.6,11.1 31.8,17.2 C18.9,23 8.6,33.5 2.6,46.2 C-1.3,54.5 -3.3,63.3 -4.2,72.3 C-5.1,82.4 -5.2,92.6 -5.6,102.7 C-5.7,103.9 -5.7,105.2 -5.8,106.4 C-5.8,107.8 -5.2,109 -4.8,110.3 C-4.7,110.3 -4.7,110.4 -4.6,110.5 C-5,110.6 -5.3,110.6 -5.7,110.7 C-6,110.7 -6,111.3 -5.7,111.4 C-2.6,112 0.6,112.1 3.7,112.3 C6.9,112.4 10.2,112.5 13.4,112.6 C16.6,112.7 19.8,112.8 22.9,113 C24.6,113 26.3,113.1 27.9,113.1 C28.7,113.1 29.5,113.2 30.3,113.2 C30.7,113.2 31.1,113.2 31.5,113.2 C31.8,113.3 32.3,113.5 32.4,113.2 C32.4,113.3 32.5,113.3 32.6,113.3 C32.6,113.3 32.7,113.4 32.8,113.4 C33.2,113.7 33.7,113.7 34.1,113.4 C34.2,113.4 34.2,113.4 34.3,113.4 C34.5,113.2 34.7,113 34.9,112.7 C36.5,114.6 39.4,112.4 37.7,110.4 C36.8,109.2 27.9,81.9 31.6,61.1 L46.3,59.2 C48.1,59 50.7,58.7 54.1,58.4 C54.9,55.7 55.4,53.9 55.6,53.1 C55.7,53 55.7,52.9 55.7,52.8 C56.1,53.4 56.4,54 56.8,54.6 L58.6,58.3 C76.5,58 87.6,57.9 92,57.9 C92.1,57.9 92.7,65.9 92.4,69.4 C91.9,76.5 91.4,83.6 90.7,90.6 C90.3,95.1 89.2,99.5 87.5,103.7 C84.9,110.3 77.4,116.5 70,116.5 C65.4,116.5 55.1,112.8 53.6,112.1 C52.1,111.3 51.2,113.3 52.6,114.2 C55.4,115.8 63,119.3 70,119.3 C80.2,119.3 87.9,109.7 88.8,108.3 C98.1,107.8 107.6,108 116.8,108.9 C117.6,109 118.3,108.1 118,107.4 C114.7,97.9 112.2,88.1 110.6,78.1 Z" id="🖍-Ink" fill="currentColor"></path></g><g id="face/Explaining" transform="translate(37.8, 44.1)" fill="currentColor"><path d="M21.2,51 C24.1,47.7 29,47.4 33.1,48.3 C35.7,48.8 38.2,49.7 40.9,50 C42.1,50.2 43.3,50.2 44.6,50.2 C45.8,50.2 47,50 48.2,50 C48.4,50 48.5,50.2 48.3,50.3 C46.7,51.4 44.4,51.7 42.4,51.9 C42.4,52 42.5,52.2 42.5,52.3 C42.5,52.6 42.6,53 42.6,53.3 C42.7,54 42.8,54.7 42.9,55.5 C43.1,56.9 43.2,58.4 43.5,59.8 L43.6,60 C43.7,60.3 43.7,60.6 43.6,60.8 L43.7,60.8 L44,60.7 L44.1,60.6 C44.8,60.3 45.3,60.1 46,60.2 C46.6,60.2 47,60.6 47,61.2 C47.1,63.8 43.6,64.6 41.6,65.1 L41,65.2 C38.4,65.9 35.8,66.4 33.2,66.5 C29,66.7 24.2,65.6 21.5,62.2 C18.9,59 18.4,54.2 21.2,51 Z M40.3,61.9 C39.9,58 35.1,57.8 33.7,60.3 C33.1,56.8 24,60 24.7,60.7 C27.4,63.3 31.5,63.5 35,63 C36.8,62.8 38.6,62.4 40.3,61.9 Z M35,51.7 L33.8,51.5 L33.3,51.4 C30.3,51 26.9,50.8 24.5,52.8 C23.6,53.5 23.1,54.4 22.9,55.4 C25.2,55 27.5,54.7 29.9,54.5 L30.5,54.5 C32,54.3 33.5,54.2 34.9,54.1 L36,53.9 L37,53.8 C37.4,53.8 39.9,53.7 40.3,53.8 C40.4,53.3 40.5,52.4 40.6,52 C38.8,52.1 37.1,52 35.3,51.7 L35,51.7 Z M40.6,34.2 C42.4,35.3 45.1,37.8 43.2,40.5 C40.9,42.9 37.6,40.2 36,39 C34.5,38 32.8,40.5 34.2,41.6 C45.9,50.2 50.6,34.5 41.5,32.9 C40.5,32.8 40.1,33.9 40.6,34.2 Z M43.8,38.8 L43.9,38.8 L43.9,38.7 C43.9,38.7 43.9,38.7 43.8,38.7 L43.7,38.8 L43.7,38.8 C43.7,38.8 43.8,38.8 43.8,38.8 Z M20.8,29.1 L20.8,29.1 C20.8,27.6 21.7,24.1 23.9,24.1 C25.2,24.1 26.1,26.5 26.2,28.9 L26.2,29 C26.3,30.5 25.9,33.8 23.9,33.8 C21.9,33.8 20.8,30.7 20.8,29.1 L20.8,29.1 Z M52.9,28.7 L52.9,28.6 C52.9,27.1 52,23.6 49.8,23.6 C48.5,23.6 47.7,25.9 47.5,28.2 L47.5,28.4 C47.4,29.9 47.8,33.3 49.8,33.3 C51.8,33.3 52.9,30.2 52.9,28.7 L52.9,28.7 Z M22.1,13.8 C23.8,13.5 26.2,14.1 27,15.9 C27.4,16.7 26.9,17.6 26,17.6 C23.8,17.7 21.7,17.2 19.8,18.7 C18.9,19.3 18.2,20.2 17.6,21 L17.4,21.4 L17.2,21.6 C16.8,22.2 16.4,22.9 16.5,23.6 C16.5,23.8 16.3,24 16,24 C14.8,24 14.6,22.3 14.8,21.4 C15.1,19.6 16,17.9 17.2,16.5 C18.5,15.1 20.1,14.1 22.1,13.8 Z M46.6,16 C47.8,15.2 49.4,14.9 50.8,15 C53.6,15.3 58.4,17.7 57.8,21.1 C57.6,22.2 56.1,22.7 55.2,22.2 C54.3,21.5 54,20.5 53.3,19.7 C52.8,19 52.1,18.6 51.3,18.2 C50.6,17.7 49.7,17.5 48.8,17.4 L48.7,17.4 C48.2,17.4 45.6,17.4 46,18.3 C46.1,18.5 45.8,18.7 45.7,18.5 C44.9,17.7 45.8,16.5 46.6,16 Z" id="🖍-Ink"></path></g><g id="facial-hair/*-None" transform="translate(29.2, 80.1)"></g><g id="accessories/*-None" transform="translate(11.2, 57.1)"></g></g></g></g></g></svg>