<svg viewBox="0 0 213 706" version="1.1" xmlns="http://www.w3.org/2000/svg" xmlns:xlink="http://www.w3.org/1999/xlink"><g id="Introduction" stroke="none" stroke-width="1" fill="none" fill-rule="evenodd"><g id="variations-standing" transform="translate(-2428, -895)"><g id="a-person/standing" transform="translate(2381, 854)"><g id="pose/standing/shirt-4" transform="translate(-28.7, 150.3)"><path d="M125,240.6 C124.7,241.7 124.4,242.9 124.1,243.9 C125.8,245.6 128.3,247.8 130,249.4 C128.3,238.7 133.6,228.8 136.8,218.6 C135.6,217.1 131.3,215.5 131.5,213.7 C131.8,207.3 132.3,200.1 133,192 C135.4,166.9 137.7,140.7 132.1,115.4 C131.7,112.7 131.2,109.8 127.5,109.7 C116.6,153 125.4,196.5 125.2,240 L125.5,240.3 L125,240.6 Z M108.7,594.9 C99.7,594.9 91.5,593.2 83.5,590 C81.2,589.1 78.4,588.1 78,586.5 C77.3,582.1 77.8,577.7 78.3,573.1 C79,565.2 78.9,559 81.1,550.5 C83.4,542.5 85.3,536.3 83.1,528.1 C82.9,525.7 84.8,523.2 86.1,520.9 C87.9,517.6 88.8,514.1 90.2,510.7 C87.4,510.2 84.5,509.6 81.8,508.7 L81.4,510.4 C81.3,510.7 81,510.9 80.6,510.9 C80.3,510.9 79.6,510.8 79.5,510.2 C79.9,503.9 80.6,497.7 81.2,491.4 C87.8,430.3 97.9,380 114.8,329.7 C118.8,318 123,305.7 123,293 C120.7,292.5 118.1,292.2 115.8,292.5 C99,288.6 102.3,253.3 103,242.7 C101.8,242.3 100.5,241.8 99.5,241.2 L99.1,241.4 C82.5,200.2 89.3,132.1 93.1,86.3 C95.6,69.9 92.1,40.1 106.7,32 C118.5,27.8 130.3,25.5 142.6,22.7 C144.9,21.4 147.7,20.7 150.3,19.8 L149,18 C147.2,15.6 147.5,10.8 149.7,9.1 C151.1,9.2 153.1,10.6 154.4,11.3 C156.3,7.3 158.1,3.2 159.3,-1.5 L159.8,-1.4 C161.1,-14.8 178.5,-17.1 188.3,-12.6 C199,-6.8 193.4,6.5 198.3,16.1 L200.1,13.7 C202.8,13.7 208.6,17.2 209.9,18.6 C210.9,19 210.2,22.2 210.4,23.4 C224.7,26.7 244.4,27.5 248.9,43.6 C256.5,73.9 255.5,104.9 264.1,135 C273.1,159.4 286.3,189.3 286.5,211.7 C286.7,215.9 287.3,239.6 283.8,238.6 L281.5,240.9 C284.6,245.9 282.1,253.4 280.9,259.3 C278,271.8 272.2,285.2 259.9,279.2 C246.7,352.3 213.4,425.9 224.7,501.2 C224.9,501.6 224.6,502.1 224.1,501.9 L223.6,501.7 C222.1,502.1 220.3,502.3 218.8,502.6 C220.1,507.4 220.7,512.1 221.4,517.5 C222.2,517.9 221.8,519.2 221.9,520 C233.9,519.4 240.7,532 249.3,538.9 C255,544 261.5,548.8 268.7,553.3 C274.5,556.6 279.5,560.5 278.6,566.7 C278.7,566.7 280.5,566.5 280.6,566.4 C283.3,575.5 274.3,577.4 265.1,578.5 C242.5,580.8 223.2,575.8 197,566.3 C193.8,566.6 191.3,561.9 190.9,558.7 C190.5,556.5 191.7,554.3 190.8,552 C187.6,545.3 186,527.6 190.4,519.6 C192,517.8 194,516.2 193.7,513.1 C193.6,509.9 193.3,506.8 193.6,503.8 C188.3,503.3 183,502.1 178.3,500.2 C177.5,500.6 176.5,500.2 176.5,499.1 C175.6,484.9 174.5,469.4 174.3,454.8 C173.2,423.1 180.5,392.1 186,361.4 C186.4,351.5 188.3,342 188.8,332.1 C189.5,322.7 189.6,313.6 190.1,304.2 L186.9,303.5 C160.2,372.1 139.4,440.7 124.8,507.8 C125.1,508.1 126,508.4 126,509 C126,509.3 126,509.3 125.8,509.4 C122.3,510.1 118.8,510.6 115.3,511 C116.3,519.4 111,529 115.7,536.9 C116.9,538.8 116.9,539.2 116.2,540.5 C123,553.1 127.2,563.6 129.9,574.8 L131.6,573.3 C134.2,575.2 134.2,578.7 134.3,582.3 C134.1,584.5 135.2,586.7 133.6,588.5 C129.7,593.1 116.2,594.8 108.7,594.9 L108.7,594.9 Z" id="🎨-Background" fill="#FFFFFF"></path><path d="M281.3,246.8 C278.7,255.8 276.2,269 269.4,275.5 C267.3,277.3 264.6,276.5 262.1,276.1 C263.8,265.7 265.1,255.2 266.2,244.8 C271.5,243.7 276.6,241.8 281.4,239.2 C282.7,241.3 281.9,244.6 281.3,246.8 L281.3,246.8 Z M260.8,254.6 C251.8,336.7 210.1,415.4 221.8,499.3 C207.8,501.7 193.5,502.7 179.3,501.5 C181,475.5 175.5,447.2 179.5,420.4 C182,395.4 188.6,370.9 190.9,345.8 C191.9,331.9 193.2,317.4 189.9,303.8 C189.9,303.8 189.8,303.7 189.8,303.6 C192.1,301.5 194.2,299.2 196.1,296.8 C197.7,294.7 194.2,291.9 192.4,293.7 C194.9,287.2 197.2,280.7 199.5,274.2 C164.1,345.5 141.4,428.6 122.3,507.4 C109.5,510.3 96.2,510.2 83.2,509.9 C86.7,450.6 98.7,392.1 114.8,335 C118.4,321.8 122.9,308.3 122.1,294.5 C126.3,295.1 132.1,292.8 134.3,289.2 C136.4,290.8 139,288.8 140,286.9 C142.6,282 141.2,276 139.7,271 C144.9,271.8 151.3,267.1 147.8,261.7 C142.3,257 136.1,252.9 130.8,247.9 C130.3,238.5 134,229.7 137.3,220.9 C154.1,232.7 170.5,245.4 188.1,255.8 C191.1,256.1 193.6,253.8 195.8,252.1 C202.3,247.3 208.9,242.6 215.2,237.7 C215.9,237.9 216.7,237.9 217.3,237.5 C221.4,241.8 225.7,245.9 229.8,250.2 C232.2,252.5 233.9,256 237.3,256.8 C238.9,257.1 239.9,256.5 240.9,255.4 C247.1,248.9 253.7,242.8 260.1,236.5 C260.6,237.2 261.6,237.5 262.4,237 C262.3,242.9 261.5,248.7 260.8,254.6 L260.8,254.6 Z M218.3,519.3 C212.4,521 211.5,530.2 204.6,529.3 C200.1,528.4 196.5,524.5 195.3,520.1 C195.7,519.9 195.9,519.5 195.9,519 C195.6,514.5 195.3,510 195,505.5 C202.8,506 210.6,505.4 218.3,504.3 C218.1,506.4 218,508.6 217.9,510.7 C218,513.5 217.2,516.8 218.3,519.3 L218.3,519.3 Z M192.3,517.3 C192.5,517 192.7,516.7 192.8,516.4 C192.9,516.8 192.9,517.2 192.9,517.5 C192.7,517.4 192.5,517.3 192.3,517.3 L192.3,517.3 Z M231.7,524.6 C235.7,527.3 238.8,531.1 242.2,534.5 C249.4,541.7 257.5,548.1 266.1,553.6 C270.5,556.4 280,560.6 276.3,567.1 C273.5,571.2 266.1,569.3 265,571.6 C249,572.3 233.5,567.9 218.3,563.5 C210.6,561 202.6,559.5 195.1,556.3 C188,550.1 187.9,536.3 188.9,527.5 C189.3,525.4 189.9,516.9 192.9,518 C193,518.8 193,520 194,520.2 C194,520.3 194,520.4 194,520.4 C193.8,520.4 193.6,520.5 193.7,520.7 C196,527.5 203.6,535.2 211,530.5 C214.2,528.1 215.7,523.7 219.6,522.2 C223.7,520.7 228.2,522.2 231.7,524.6 L231.7,524.6 Z M279.9,566.7 C280,566.8 280.1,566.8 280.3,566.8 C280.6,567.6 280.4,570.8 280.4,571.4 C279.4,576.3 271.6,577.1 267.5,577.9 C253.1,580.1 238.4,578.6 224.3,574.9 C217.5,573.2 210.6,571.3 204,568.9 C198,567.1 190.7,564.1 191.4,556.6 C194.7,561.1 205.3,562.4 210.6,564.2 C227.3,569.3 244.2,574.7 261.8,574.9 C264.4,574.8 268.1,575.5 270.1,573.5 C274.3,572.9 278.7,570.6 279.9,566.7 L279.9,566.7 Z M113.5,518.3 C112.1,522.6 110.6,527 110.5,531.6 C102.6,526.9 92.6,531.4 86,536.6 C86.5,533.4 84.5,530.4 85,527.2 C87,522.4 89.7,517.6 88.8,512.2 C97.6,513.7 106.5,513.6 115.4,512.7 C114.7,514.5 114.1,516.4 113.5,518.3 L113.5,518.3 Z M116.5,544.5 C118.1,547.6 119.2,551.6 122.2,553.6 C123.9,559.7 125.8,565.9 127.2,572.1 C127.8,575.1 128.7,578.1 128.2,581.2 C127.5,581.4 127.1,581.5 126.7,582 C112.1,585.1 96.1,585.6 82.6,578.4 C78.1,568.3 81.7,556.5 83.2,546.1 C83.3,542.7 85.6,541.5 85.9,538.2 C93.1,534.1 104.3,528.6 111.2,536.1 C112.1,538.2 112.8,541.1 115.2,541.9 C115.7,542.8 116.1,543.6 116.5,544.5 L116.5,544.5 Z M128.5,581.2 C128.5,581.2 128.5,581.2 128.4,581.2 C128.4,581.2 128.4,581.2 128.5,581.2 L128.5,581.2 Z M133,583.1 C133,582.5 132.6,581.8 132.1,581.5 C132.4,579.1 131.9,576.7 131.4,574.4 C133.9,577.1 132.8,581.3 133.2,584.6 C133.2,585.9 133.8,587.6 132.3,588.3 C127.5,591.6 121.7,593.2 115.9,593.8 C103.4,595.3 90.4,593 79.2,587.2 C77.7,585.1 78.2,579.8 78,577.2 C79.1,585.7 99.9,588 107,588.1 C111,588.1 132.9,587.3 133,583.1 L133,583.1 Z M119.8,289.1 C118.1,289 116.4,289.1 114.8,289.3 C105,282.7 103.5,255.6 102,244.1 C109,245.9 116.3,245.4 123.1,243.1 C123.2,244.3 124.7,245 125.5,244.1 C130.1,252.3 137,258.8 144.1,264.7 C144,264.4 144,264.9 144.1,264.7 C143.2,266.8 139.9,265.7 138.3,267.1 C137.3,267.9 137.1,269.2 137.7,270.1 C136,274.7 138.7,280.5 136.2,284.9 C135.6,285.6 134.9,286 134.4,286.8 C131,284.5 127.9,289.4 124.5,289.6 C124.5,289.6 124.5,289.6 124.6,289.6 C124,289.6 123.2,289.6 122.7,289.5 C121.7,289.4 120.8,289.2 119.8,289.1 L119.8,289.1 Z M126.1,125.6 C126.8,120.9 127.6,116.3 128.7,111.7 C130,111.9 130.3,114.9 130.5,115.8 C136.1,141.1 133.6,167.1 131.2,192.6 C130.7,199.5 130.2,206.3 129.8,213.2 C129.3,216.4 132.9,217.4 134.9,219.2 C132.2,227.8 127.5,236.2 128.1,245.5 C127.4,244.8 126.6,244.1 125.9,243.5 C126.1,242.9 126.3,242.3 126.4,241.7 C127.3,241.3 127.6,240 126.8,239.3 C127.1,201.5 120,163.3 126.1,125.6 L126.1,125.6 Z M195.8,54.1 C197.1,51.7 200.7,54.8 198.4,56.6 C196.9,57.8 194.7,55.7 195.8,54.1 L195.8,54.1 Z M202.4,81.9 C203.8,80.1 206.7,82.2 205.4,84.1 C204,87.2 201,84.2 202.4,81.9 L202.4,81.9 Z M207,106.3 C209.9,106.3 209.2,111.2 206.5,110.5 C204.2,110 204.5,106.3 207,106.3 L207,106.3 Z M209.3,135.7 C210,133.4 213.4,134 213.4,136.3 C213.3,139.5 208.7,138.5 209.3,135.7 L209.3,135.7 Z M214.9,164 C215.9,161.2 219.5,162.6 219.2,165.4 C219.6,167 216.5,170.2 215.9,167.6 C215.1,166.6 214.7,165.3 214.9,164 L214.9,164 Z M220.6,196.7 C220.7,196.7 220.7,196.7 220.7,196.7 C222.7,197.6 220.9,201.9 219,200.4 C217.1,199.2 218.4,195.5 220.6,196.7 L220.6,196.7 Z M223.3,223.2 C225.7,225.5 222,229.2 219.7,226.8 C217.3,224.5 221,220.8 223.3,223.2 L223.3,223.2 Z M281.9,238.9 C281.9,239 281.9,239.1 282,239.1 C281.9,239.1 281.8,239 281.8,239 C281.8,239 281.8,238.9 281.9,238.9 L281.9,238.9 Z M283.8,185 C279.9,169.8 273.7,155.4 267.7,141 C261.1,121.9 259.2,101.6 256.9,81.7 C255.6,70.4 254.2,59.2 251.6,48.1 C249.4,27.5 228.4,25.3 212,22.1 C212,20.3 212.6,18.3 210.8,17.2 C209.2,15.6 200.5,10.5 198.8,12.6 C198.1,11 197.8,9.2 197.5,7.4 C197.3,6.8 197.2,4.4 196.5,4.4 C196.3,9 194.3,15.8 198.3,19.3 C195.9,22.9 193.9,27.3 190.8,30.2 C190.8,30.2 190.8,30.2 190.8,30.2 C190.6,30.3 190.5,30.4 190.3,30.4 C190.4,30.4 190.1,30.5 190,30.6 C189.5,30.6 188.8,30.5 188.4,30.3 L188.4,30.3 C177.6,24.2 167.1,17.6 156.7,10.9 C158.1,8.7 160.1,-2.1 158.2,-3.6 C156.9,0.7 155.6,5 153.6,9 C151.9,8 149.2,6.4 147.7,8.6 C145.9,11.6 145.4,16 147.6,19 C138.3,22.6 128.2,23.9 118.6,26.8 C114.4,27.9 109.9,28.7 106,30.5 C94.3,37 94.3,53 93,64.8 C89.7,122.2 79.2,181.4 95.6,237.7 C96.2,239.4 97.2,241.1 97.9,242.8 C98.2,243.5 98.9,243.4 99.4,243.1 C100,243.4 100.6,243.7 101.2,243.9 C100.2,258.5 98.7,285.2 112.8,294 C113.9,294.5 114.9,294.3 116,294.2 C117.6,294 119.6,294 121.3,294.3 C119.2,321.5 105.5,346.3 100.2,372.9 C88.9,417.8 81.5,463.8 77.8,510 C77.7,512.8 82.2,513.6 83,510.8 C84.6,511.3 86.2,511.7 87.9,512 C87,514.3 86.3,516.6 85.3,518.8 C84.2,521.3 82.2,523.6 81.6,526.2 C80.8,530.5 83.6,534.5 82.1,538.8 C81.8,543.6 79.6,548.1 78.9,552.8 C77.7,558.7 76.8,564.8 77.1,570.8 C75.9,575.2 75.9,579.8 76.1,584.2 C76.2,585.7 76.1,587.5 77.2,588.7 C79.7,590.6 82.9,591.4 85.8,592.7 C101.2,597.7 120.4,599.1 134.6,590 C137.3,587.9 135.6,582.6 135.8,579.5 C135.9,577.1 134.1,570.5 130.8,571.9 C128,560.9 123.4,550.5 118,540.5 C118.9,539 117.9,537.5 117.1,536.2 C113,529.9 117.4,519.9 117,512.5 C120,512.1 123.1,511.6 126.1,511 C128.2,510.6 128,508 126.6,507.1 C141.7,437.9 162.8,370.1 188.4,304.2 C188,311.3 187.8,318.5 187.5,325.7 C187.2,337.7 184.9,349.4 184.4,361.3 C178.7,392.2 171.5,423.2 172.6,454.8 C172.8,469.6 173.9,484.4 174.8,499.2 C174.9,500.9 176.4,502.4 178.2,502 C182.5,503.7 187.2,504.7 191.8,505.3 C191.4,510.7 193.8,514.6 189.1,518.6 C184.9,525.1 185.9,538.3 187,545.8 C187.5,548.2 188.3,550.4 189.2,552.7 C189.9,554.7 188.7,556.8 189.2,558.9 C189.7,562.7 192.8,568.5 197.2,567.9 C222.3,577.4 251.3,586 277.7,577.2 C279.5,576.3 281.4,575.1 282.1,573 C282.7,571.2 283.4,564.3 280.3,564.8 C279.9,555.5 269,552.5 262.8,547.5 C254.1,541.5 246.5,534.3 239.3,526.8 C235.1,522.5 229.8,518.4 223.6,518.4 C223.6,517.7 223.4,517.2 223,516.7 L223,516.7 C222.4,512.5 221.8,508.1 220.8,503.9 C221.6,503.8 222.5,503.7 223.4,503.5 C225.1,504.2 226.7,502.7 226.3,501 C223.5,482.8 223.4,464.3 225.1,446.1 C230.3,389.9 250.8,336.7 261.2,281.5 C274.9,286.4 280,269.8 282.5,259.6 C283.8,253.5 286.4,245.8 282.9,240.1 C293.3,244.2 286.4,190.6 283.8,185 L283.8,185 Z" id="🖍-Ink" fill="currentColor"></path></g><g id="Head" stroke-width="1" transform="translate(95.9, 42.7)"><g id="head/Flat-Top-Long"><path d="M57.5,17.8 C71,17.8 90.7,26.8 92.2,35.5 C93.9,45.7 97.8,84 95.7,96.5 C93.6,109 85.3,118.3 67.1,118.3 C48.9,118.3 35.3,108.4 32.1,105 C30,102.7 27.7,98 25.2,91 C18.6,89.8 15.2,86.6 15.2,81.3 C15.2,76 16.8,72.6 20.2,70.9 C18.4,49 19.4,35.3 23.2,29.8 C29,21.6 44,17.8 57.5,17.8 Z" id="🎨-Background" fill="#FFFFFF"></path><path d="M53.6,-0.7 C56.1,-0.7 58.6,-0.6 61.1,-0.4 C61.2,-0.4 61.3,-0.4 61.4,-0.4 C66.1,-0.9 70.8,-0.4 75.4,-0.3 C79.9,-0.1 84.6,0.4 88.6,2.5 C89.1,2.8 89.6,3.1 89.9,3.5 C90.5,3.5 91,3.7 91.4,3.9 C92.7,3.7 94.1,4.2 94.4,5.7 C94.9,7.9 95.1,10.1 94.8,12.3 C94.8,12.4 94.8,12.5 94.8,12.5 C95.3,14.6 95.3,16.8 94.8,18.8 C95,21.4 95.1,24 95.1,26.6 C95.1,28.3 95.2,30.1 95.1,31.9 C94.9,33.5 94.3,34.7 93.3,35.9 C93.1,36.1 92.7,36.1 92.5,36.1 C92.4,36.1 92.4,36.1 92.3,36 C92.9,37.3 93.4,38.7 93.9,40 C94.7,42.1 95.4,44.3 96,46.4 C97.1,50.8 97.8,55.3 98.2,59.8 C98.9,67.8 99.2,75.9 99.4,83.9 C99.5,91.5 98.8,99.5 94.5,106 C90.7,111.7 84.9,115.8 78.4,118.1 C74.8,119.3 70.7,119.8 66.8,119.9 C64.8,120 62.8,119.9 60.8,119.7 C58.9,119.5 56.9,119.5 55.5,118.1 C55.1,117.7 55.1,116.8 55.7,116.6 C56.8,116.1 57.5,116 58.7,116.2 C59.7,116.3 60.7,116.4 61.7,116.5 C63.8,116.7 66,116.7 68.1,116.5 C72,116.2 76.1,115.1 79.6,113.4 C85.2,110.8 90,106.5 92.6,100.8 C95.6,94.2 95.4,86.6 95.3,79.5 C95.1,71.8 94.8,64 94.2,56.3 C93.8,52.6 93.3,48.9 92.9,45.1 C92.6,43.1 92.3,41.2 91.9,39.2 C91.7,38.2 91.5,37.2 91.3,36.1 C91.1,36.2 90.9,36.2 90.8,36.2 C89.8,36.2 88.7,36 87.9,35.3 C87.7,35.5 87.3,35.6 86.9,35.6 C82.8,35.8 78.6,35.6 74.6,35.6 C70.5,35.6 66.3,35.6 62.2,35.6 C58.1,35.6 54,35.6 49.9,35.5 C46.1,35.4 42.2,35.5 38.4,34.8 C37.1,39.3 37.2,44.2 39.8,48.2 C40.6,49.4 40,50.7 39,51.4 C38,52.1 36.2,53.2 34.7,53.3 C34.5,53.7 34.4,54 34.2,54.3 C33.5,56 32.9,57.6 32.4,59.4 C32.2,60.3 32,61.2 31.8,62.1 C31.8,62.3 31.8,62.5 31.8,62.6 C31.8,62.7 31.8,62.7 31.8,62.7 C31.8,62.7 31.8,62.7 31.8,62.8 L31.9,62.9 C31.9,63.3 32,63.8 32.1,64.3 C32.3,65.4 32.5,66.5 32.6,67.7 C32.9,69.7 32.8,72.5 30.8,73.7 C29.7,74.4 28.4,74.3 27.3,73.8 C26.5,73.5 25.8,73.1 25.1,72.7 C24.7,72.5 24.2,72.3 23.8,72 C23.7,71.9 23.6,71.8 23.5,71.8 C22.7,71.9 22,72.2 21.6,72.4 C20.4,73 19.4,73.8 18.6,74.7 C16.8,76.7 16.2,79.5 16.5,82.1 C16.7,84.6 17.7,87.3 19.6,88.9 C20.4,89.6 21.5,90.1 22.6,90 C23.1,90 23.6,89.9 24.1,89.8 C24.7,89.7 25.3,89.7 25.8,89.5 C26.5,89.2 27.3,90.1 27.1,90.8 C26.8,91.3 26.7,91.8 26.4,92.2 C28.4,95.4 30.6,98.5 32.9,101.5 C34.9,104.2 37.4,106.4 39.7,108.9 C40.7,110 41.1,112.1 39.3,112.6 C37.4,113 36.1,111.1 35,109.9 C30.6,104.9 27.3,99.3 25.8,92.9 C25.1,93.3 24.3,93.6 23.5,93.7 C21.8,94 20.1,93.6 18.6,92.8 C13.1,89.6 11.7,80.9 14.3,75.5 C15,74.2 15.9,73 17,72.1 C16.9,72 16.9,71.8 17,71.5 C17.1,71.2 17.2,70.8 17.3,70.4 C17.2,70.4 17.1,70.3 17.1,70.1 C17.2,69 17.3,68 17.4,66.9 C17.4,65.3 17.3,63.7 17.3,62 C17.3,59.5 17.5,56.9 17.5,54.3 C17.5,45.3 17.9,36.3 17.9,27.3 C17.9,22.9 17.9,18.5 17.8,14.1 C17.8,14 17.8,13.9 17.8,13.9 C17.7,10.4 16.8,5.6 20.2,3.4 C20.8,3 21.5,3 22.1,3.2 C23.9,2 26.1,1.4 28.3,1 C32.3,0.4 36.4,0.1 40.5,-0.3 C42.6,-0.6 44.9,-0.6 47,-0.6 C49.2,-0.5 51.4,-0.7 53.6,-0.7 Z M20.7,78.2 C21.4,77.4 22.6,77.6 23.6,77.8 C24.9,78 26.2,78.6 27.3,79.3 C28.5,80.1 30,81.2 30.2,82.8 C30.4,84.1 29,85.7 27.6,84.8 C26.3,83.9 25.6,82.3 24.5,81.2 C23.9,80.7 23.3,80.2 22.7,79.8 C22.4,79.6 22.1,79.4 21.8,79.2 C21.8,79.2 20.5,78.8 20.7,79.4 C20.8,79.5 20.6,79.7 20.4,79.6 C20,79.1 20.2,78.6 20.7,78.2 Z" id="🖍-Ink" fill="currentColor"></path></g><g id="face/Smile" transform="translate(37.8, 44.1)" fill="currentColor"><path d="M34.8,57.1 C33.2,56.5 31.8,55.4 30.8,54 C30.4,53.5 30.3,53 30.4,52.5 C30.5,52 30.8,51.5 31.2,51.2 C31.6,50.9 32.1,50.7 32.7,50.8 C33.1,50.9 33.5,51.1 33.9,51.6 L34,51.7 C34.6,52.6 35.4,53.3 36.3,53.7 C37.2,54.1 38.2,54.3 39.2,54.2 C41.2,54 42.5,52.9 43.9,51.5 C44.1,51.3 44.3,51.1 44.5,50.9 C44.6,50.8 44.7,50.7 44.9,50.6 C45.1,50.5 45.3,50.5 45.5,50.6 C45.7,50.7 45.9,50.8 46,51 C46.1,51.1 46.2,51.3 46.2,51.6 C46,53.1 45.3,54.4 44.2,55.4 C42.9,56.6 41.3,57.4 39.8,57.6 C38.1,58 36.4,57.7 34.8,57.1 L34.8,57.1 Z M40.6,34.2 C42.4,35.3 45.1,37.8 43.2,40.5 C40.9,42.9 37.6,40.2 36,39 C34.5,38 32.8,40.5 34.2,41.6 C45.9,50.2 50.6,34.5 41.5,32.9 C40.5,32.8 40.1,33.9 40.6,34.2 Z M19.7,24.2 C19.9,21.8 23.6,21.2 24,23.6 C24.4,25.8 24,27.8 23,29.8 C22,31.6 19.7,30.8 19.5,29.1 C19.3,26.8 19.6,25.7 19.7,24.2 Z M48.2,23.1 C48.7,22.4 49.5,22 50.4,22.2 C53.2,23.1 52.4,27.1 51.4,29 C50.9,30.1 49.1,30.3 48.3,29.4 C47,27.9 46.4,24.9 48.1,23.4 C48.1,23.3 48.2,23.2 48.2,23.1 Z M22.9,13.5 L23.4,13.4 C24.8,13.2 26.5,12.9 27.5,14 C28,14.6 28.2,15.7 27.5,16.3 C26.2,17.3 24.9,16.9 23.4,17 C22.2,17 21,17.2 19.9,17.6 C17.3,18.3 15.2,19.6 13.1,21.1 C12.8,21.3 12.5,20.9 12.6,20.6 C13.9,18.2 16.3,16.2 18.8,14.9 C20.1,14.3 21.5,13.7 22.9,13.5 Z M45.6,12.4 L46,12.4 C49.7,13.2 54.5,14.8 56.3,18.4 C56.3,18.9 56.3,19 56.2,19.1 L56.2,19.1 C56.2,19.2 56.1,19.3 55.9,19.3 C55.8,19.3 55.8,19.3 55.7,19.3 C54.9,19.1 54.3,18.8 53.6,18.5 L53,18.2 C52.2,17.8 51.4,17.4 50.6,17.1 C48.8,16.6 47,16.2 45.1,15.9 C44.7,15.9 44.3,15.8 44,15.5 C43.8,15.3 43.5,15 43.4,14.6 C43.3,14.1 43.3,13.7 43.6,13.2 C43.8,12.9 44.1,12.6 44.5,12.5 C44.8,12.3 45.2,12.3 45.6,12.4 Z" id="🖍-Ink"></path></g><g id="facial-hair/*-None" transform="translate(29.2, 80.1)"></g><g id="accessories/*-None" transform="translate(11.2, 57.1)"></g></g></g></g></g></svg>