<svg viewBox="0 0 213 733" version="1.1" xmlns="http://www.w3.org/2000/svg" xmlns:xlink="http://www.w3.org/1999/xlink"><g id="Introduction" stroke="none" stroke-width="1" fill="none" fill-rule="evenodd"><g id="variations-standing" transform="translate(-316, -868)"><g id="a-person/standing" transform="translate(269, 854)"><g id="pose/standing/shirt-2" transform="translate(-28.7, 150.3)"><path d="M234.8,367.6 C234.1,374.1 231.7,387.7 230.5,394.4 C230.1,396.3 229.9,397.7 229.8,398.1 C223.1,433.2 220.4,468.8 219.1,504.3 C218.7,509 218.9,513.6 219.7,518.2 C219.8,518.4 219.8,518.6 219.8,518.9 C220.1,518.8 220.3,518.8 220.5,518.7 C230,517.2 236.3,524.1 242.5,530.6 C244.9,533.1 247.3,535.6 249.7,537.6 C255.7,542.9 262.2,547.7 268.9,551.9 C271.7,553.5 274.9,555.5 277,558 C278.4,559.7 279.4,561.8 279.4,564.2 L279.3,565.1 L280.2,564.9 C280.4,564.9 280.6,564.9 280.8,565 C281,565.1 281.1,565.2 281.2,565.4 C281.6,566.2 281.6,567.5 281.7,568.5 C281.7,568.7 281.7,568.9 281.7,569.2 C281.8,572.1 280.4,574 278.4,575.3 C275.3,577.4 270.7,578 267,578.6 C266.3,578.7 265.6,578.8 265,578.9 C242,581.3 218.6,575.1 197.3,566.7 C197.2,566.6 197.2,566.6 197.1,566.6 C197.1,566.6 197,566.6 196.9,566.6 C195.2,566.8 193.8,565.9 192.6,564.6 C191,562.8 190,560.2 189.7,558.2 C189.5,557.2 189.7,556.3 189.8,555.4 C189.9,554.2 190.1,553 189.7,551.8 C186.8,545.2 186.4,537.9 186.8,530.8 C186.7,522 188.7,519.5 190.4,517.5 C191.7,515.9 192.9,514.5 192.5,510.8 C192.4,510.2 192.3,506.7 192.4,504.9 L192.9,504.8 C192,492.2 188.9,479.7 185.7,467.3 C180.5,447 175.3,426.7 180.3,406 C181.9,399.6 185,393.9 188.1,388.2 C190.1,384.6 192.1,381 193.7,377.2 C193.7,377.1 193.7,377 193.8,377 C193.8,376.9 193.7,376.8 193.7,376.8 C193.4,375.2 193.8,373.6 194.2,371.9 C194.5,370.4 194.8,368.9 194.7,367.4 C194.7,364.6 194.2,361.9 193.6,359.2 C193.5,359.1 193.5,358.9 193.5,358.8 C193.3,358.8 193.2,358.7 193.1,358.7 C190.4,357.9 187.8,357 185.3,355.7 L184.6,355.4 L184.3,356.1 C184.2,356.3 184.1,356.5 183.9,356.6 C183.7,356.7 183.5,356.8 183.3,356.8 C183.1,356.8 182.8,356.7 182.6,356.6 C182.5,356.5 182.3,356.4 182.2,356.2 C181.9,355.1 182.3,353.8 182.5,352.6 C182.7,351.8 182.9,351 183,350.2 C183.1,349.8 183.2,349.3 183.2,348.7 C183.5,347.2 183.7,345.3 184.6,344.2 C184.8,343.8 185.1,343.6 185.5,343.5 C185.8,343.4 186.3,343.4 186.8,343.5 C187.1,343.5 187.3,343.6 187.5,343.8 C187.6,343.5 187.6,343.2 187.6,342.9 C189,330.2 189.2,317.4 188.5,304.6 C188.4,303.6 188.4,302.6 188.3,301.7 C187.9,302.6 187.5,303.5 187.1,304.4 C184.8,309.8 182.8,315.5 180.8,321.2 C178,329.1 175.2,337 171.6,344.3 C171.5,344.5 171.5,344.6 171.4,344.7 C171.5,344.8 171.5,344.9 171.6,345 C171.7,345.1 171.7,345.3 171.7,345.5 C171.6,345.7 171.5,345.8 171.4,346 C170,347.3 169.3,349 168.7,350.8 C168.6,350.8 168.6,350.9 168.6,351 C168.1,352.6 167.2,354 166.1,355.2 C165.1,356.1 163.9,356.8 162.4,357.1 C162.3,357.1 162.1,357.2 162,357.2 C162,357.3 161.9,357.5 161.9,357.7 C161.7,358.4 161.5,359.2 161.3,360.1 C159,369.8 155.6,384.5 149.5,395.3 C145.6,402.2 140.5,407.6 133.9,408.8 C133.4,408.9 132.9,409 132.4,409 C132.8,409.2 133.2,409.5 133.4,409.9 C134.2,411.1 133.4,412.8 132.8,414.4 C132.5,415.3 132.2,416.2 132,417 C131.4,418.8 130.9,420.6 130.4,422.5 C129.4,425.8 128.5,429.2 126.8,432.2 C126.8,432.3 126.7,432.4 126.7,432.6 C126.7,432.6 126.8,432.7 126.8,432.8 C126.9,433 126.9,433.1 126.9,433.3 C126.9,433.5 126.8,433.6 126.8,433.8 C126.9,433.8 127.1,433.9 127.2,434 C127.9,434.4 128.4,435.1 128.6,435.9 C128.9,436.8 128.8,437.9 128.5,438.9 C128.2,439.9 127.7,440.9 126.9,441.6 C126.3,442.2 125.6,442.7 124.7,442.7 C124.7,442.7 124.6,442.7 124.5,442.7 C124.5,442.7 124.5,442.8 124.4,442.8 C124,443 123.5,443.1 123,443.1 L122.8,444.5 C123,444.7 123,444.7 123,444.8 C122.2,453.4 120.2,461.9 118.1,470.3 C117.8,471.8 117.4,473.4 117,474.9 C116.3,477.4 115.7,480 115.2,482.6 C114.3,486.8 113.5,491 111.7,494.8 C111.7,494.9 111.6,495 111.6,495.1 C111.6,495.2 111.7,495.3 111.7,495.4 C112.6,497.5 112.4,499.9 112,502.1 C111.3,502.9 109.9,502.8 108.8,502.9 C108.4,502.9 108,502.9 107.6,502.9 C107.4,502.9 107.2,503 106.9,503 C106.9,503.3 107,503.5 107,503.7 C107.5,507.5 107.5,511.3 107.5,515.1 C107.5,517.3 107.5,519.4 107.6,521.5 C107.6,521.8 107.6,522 107.6,522.3 C107.8,522.2 108.1,522.2 108.3,522.2 C110.7,522.1 112.4,523.1 113.6,524.6 C115.5,527 116.4,530.7 117.1,533.8 C117.3,534.6 117.5,535.4 117.7,536.2 C119.2,541.3 121.2,546.3 123.2,551.2 C125.8,557.8 128.4,564.4 130,571.4 L130.2,572.4 L131.1,571.8 C131.2,571.7 131.3,571.7 131.4,571.7 C131.5,571.7 131.6,571.7 131.7,571.8 C134.8,573.7 134.9,577.6 135,580.8 C135,581.1 135,581.4 135,581.7 C135,582.4 135.1,583.1 135.1,583.9 C135.2,585.7 135.5,587.7 134,588.8 C123.1,596.2 108.4,596 95.9,594.1 C90.9,593.2 86,591.6 81.3,589.6 C79.6,589 78.3,588.3 77.5,587.3 C76.8,586.4 76.5,585.3 76.6,583.6 C76.3,580.7 76.6,577.9 76.8,575.1 C77.1,572.7 77.3,570.3 77.2,567.8 C77.5,558.4 79.7,549.1 81.8,540 C81.9,539.6 82,539.3 82.1,538.9 C82.2,538.5 82.3,538.1 82.4,537.7 C84.1,532.5 86,526.2 90.7,523.3 C90.8,523.3 91,523.3 91.2,523.2 C91.9,523.2 92.6,523.1 93,522.9 C93,522.9 93,522.9 93.1,522.9 L92.8,523.8 L94.2,523.2 C94.5,523.1 94.8,522.9 95.2,522.9 C95.3,522.9 95.4,522.8 95.5,522.8 C95.6,522.7 95.6,522.6 95.7,522.5 C97.6,518.6 98.5,514.3 99.3,510.1 C99.9,507.4 100.4,504.8 101.2,502.2 C101.3,502 101.4,501.8 101.4,501.6 C101.2,501.5 101,501.4 100.8,501.4 C98.6,500.5 96.6,498.8 96,496.5 C96.1,495.9 96.4,495.2 96.9,494.7 C97.2,494.3 97.7,494 98.2,493.9 L99.2,493.9 L98.8,493 C98.5,492.1 98.4,491 98.5,490.1 C100.4,478.7 102.8,467.5 105.5,456.3 C106.5,452.1 107.6,448 108.8,443.9 C109,443.4 109.1,442.8 109.3,442.2 C109.5,441 109.8,439.7 110.7,439 C110.9,438.8 111.1,438.7 111.4,438.6 C111.2,438.4 110.9,438.2 110.7,438 C108.9,436.1 107.3,433.9 107.3,431.4 C107.2,430.4 107.7,429.3 108.4,428.6 C108.7,428.4 109,428.3 109.3,428.1 L110.4,428.9 C110.7,429 111,429.2 111.3,429.4 C111.5,429.6 111.7,429.8 111.9,429.9 L114.7,431.8 L112.9,428.9 C111.5,426.7 112.2,424 112.8,421.5 C112.9,420.8 113.1,420.2 113.2,419.6 C113.4,418.9 113.5,418.2 113.7,417.5 C114.6,413.4 115.5,409.2 117,405.3 C117.1,405.2 117.2,405 117.2,404.9 C117.1,404.8 117,404.6 116.9,404.5 C110.7,399.2 108.3,392.6 108,385.6 C107.5,375.4 111.4,364.2 114.8,354.3 C115.7,351.8 116.5,349.4 117.3,347 C117.3,346.9 117.4,346.7 117.4,346.5 C117.3,346.4 117.1,346.3 117,346.2 C116.2,345.6 115.2,345.1 114.1,344.5 C111.6,343.1 108.6,341.6 108.2,338.7 C108.3,337.2 108.9,335.7 109.5,334.2 C109.7,333.6 109.9,333 110.2,332.4 C110.3,331.7 110.8,330.8 111.4,330.4 C111.5,330.3 111.7,330.2 111.8,330.3 C111.9,330.3 112.1,330.4 112.2,330.5 L113,331.4 L113.4,330.2 C113.6,329.6 113.7,329 113.9,328.4 C117.5,317.1 121.1,305.5 120.7,293.6 C120.7,293.4 120.7,293.2 120.7,293 C120.6,293 120.4,292.9 120.2,292.9 C119,292.6 117.7,292.7 116.5,292.8 C114.9,293 113.4,293.2 112,292.2 C99.3,282.5 100.7,257.8 101.7,243.3 C101.8,243.1 101.8,242.9 101.8,242.8 C101.6,242.7 101.4,242.7 101.3,242.6 C100.7,242.4 100.1,242.2 99.6,241.9 L99.2,241.6 L98.8,241.9 C98.6,241.9 98.5,241.8 98.4,241.7 C97.9,241.2 97.4,240.2 96.9,239 C95.2,234.9 93.6,228.1 93.2,226.1 C93.2,226 93.1,226 93.1,225.9 C83.9,184.1 87.4,141 90.9,98.7 C91.1,95.6 91.4,92.6 91.6,89.6 C92.4,84 92.7,78.3 92.9,72.6 C93.5,60.9 94.1,49.1 98.7,38.3 C101.8,30.5 110.5,28.7 117.9,27 C118.1,27 118.3,26.9 118.5,26.9 C122.4,25.7 126.3,24.8 130.1,24 C136.1,22.6 142,21.3 147.7,19 C148,18.9 148.3,18.8 148.6,18.7 C148.3,18.4 148.2,18.2 148,18 C147,16.6 146.6,14.8 146.7,13 C146.8,11.1 147.4,9.3 148.5,7.9 C148.9,7.6 149.4,7.5 150,7.6 C151,7.8 152,8.4 152.8,8.9 C152.9,8.9 153,8.9 153.1,9 L153.7,9.3 L154.1,8.7 C155.4,6.2 156.3,3.4 157.2,0.7 C157.7,-0.9 158.3,-2.5 158.8,-4 C160.6,-7.8 163.7,-9.6 167.3,-10.3 C172.7,-11.4 179.1,-9.9 184.1,-8.7 C184.3,-8.6 184.5,-8.6 184.6,-8.6 C187.2,-7.9 189.9,-7.3 191.9,-5.7 C195.4,-2.9 196.2,1.4 196.9,5.6 C197.3,7.8 197.7,9.9 198.4,11.8 C198.5,12 198.6,12.3 198.7,12.5 C198.9,12.4 199.1,12.3 199.3,12.3 C202,11.6 208.1,15.2 210.1,17.1 C210.7,17.5 210.9,17.8 211.1,18.2 C211.3,18.9 211.2,19.7 211.2,20.4 C211.1,20.8 211.1,21.1 211.1,21.5 C211.1,21.7 211.1,21.9 211.1,22.1 C211.3,22.1 211.5,22.1 211.7,22.2 C212.9,22.4 214.2,22.6 215.4,22.9 C224.5,24.6 234.4,26.4 241.4,31.4 C246.4,34.8 249.9,39.9 250.7,47.6 C253.3,58.7 254.7,69.9 256,81.1 C256.2,82.6 256.3,84.1 256.5,85.6 C258.6,103.6 260.6,121.7 266.2,139 C266.8,140.4 267.3,141.7 267.9,142.9 C276.2,163.3 284.8,183.9 286.8,206 C287.9,216.6 287.7,227.3 285.9,237.7 C285.8,238.3 285.3,238.7 284.8,238.9 C284.3,239.1 283.6,239.2 283.1,238.8 L280.4,237.2 L282.1,239.8 C285.7,245.5 282.7,255.3 280.6,262.3 C280.3,263.4 280.1,264.3 279.8,265.2 C278.3,270.4 275.7,276 271.8,279 C270.3,280.1 268.6,280.8 266.6,281 C264.8,281.2 262.9,280.8 260.7,279.9 C260.4,279.8 260.1,279.7 259.9,279.5 C259.8,279.8 259.8,280.1 259.7,280.4 C255.4,301.3 250.6,322 244.9,342.6 L244.1,345.4 L246.1,343.2 C246.4,342.9 246.8,342.7 247.2,342.6 C247.6,342.5 248,342.6 248.4,342.8 C248.9,343 249.3,343.3 249.6,343.8 C249.9,344.2 250.1,344.7 250.2,345.2 C250,348 249.1,350.7 248.2,353.4 C247.7,354.8 247.2,356.2 246.9,357.7 C246.5,359.2 245.6,360.1 244.4,360.7 C242.7,361.6 240.5,361.7 238.3,361.9 C237.2,362 236.1,362 235.2,362.2 C235,362.2 234.9,362.3 234.7,362.3 C234.7,362.4 234.6,362.6 234.6,362.7 C234.3,363.7 234.1,364.7 233.8,365.7 C233.6,366.5 233.4,367.3 233.2,368.1 L234.6,368.5 C234.7,368.2 234.8,367.9 234.8,367.6 L234.8,367.6 Z M128.6,243.1 C128.6,237.1 130.8,231.5 132.9,225.8 C133.8,223.5 134.6,221.1 135.4,218.8 C135.4,218.6 135.5,218.5 135.5,218.3 C135.4,218.2 135.3,218.1 135.2,218 C134.6,217.5 134,217.1 133.3,216.7 C132.3,216 131.3,215.4 130.7,214.6 C130.4,214.1 130.2,213.5 130.3,212.6 C130.7,206.4 131.1,200.3 131.6,194.1 C131.7,192.8 131.8,191.5 131.9,190.1 C134.1,166.9 136.2,143.4 132,120.3 C131.8,119.2 131.6,118.2 131.4,117.1 C131.2,116.4 131.1,115.7 131,115 C130.9,114.9 130.9,114.8 130.9,114.6 C130.8,113.9 130.6,112.7 130.2,111.8 C129.8,111 129.3,110.5 128.6,110.4 C128.4,110.3 128.2,110.3 127.9,110.4 C127.9,110.5 127.8,110.7 127.8,110.9 C120.8,139.7 122.6,169 124.3,198.3 C125.1,211.8 126,225.3 125.9,238.7 C125.9,238.8 125.9,239 125.9,239.1 C126,239.1 126.1,239.2 126.1,239.2 C126.3,239.4 126.4,239.6 126.3,239.8 C126.3,240.1 126.1,240.3 125.9,240.5 C125.8,240.5 125.7,240.6 125.6,240.6 C125.6,240.7 125.5,240.8 125.5,240.9 C125.4,241.5 125.2,242.1 125.1,242.6 C125,242.8 125,242.9 124.9,243.1 C125,243.2 125.1,243.3 125.2,243.4 C126,244 126.7,244.7 127.4,245.4 L128.7,246.6 L128.6,244.8 C128.6,244.3 128.6,243.7 128.6,243.1 Z" id="🎨-Background" fill="#FFFFFF"></path><path d="M281.4,246.6 C278.7,255.5 276.3,268.7 269.5,275.3 C267.1,277.2 264.3,276.1 261.6,275.8 C263.4,265.5 264.6,255.1 265.6,244.7 C271.1,243.6 276.5,241.7 281.5,238.9 C282.8,241.1 282,244.4 281.4,246.6 M259.2,273.1 C256.6,287.8 253.1,302.4 249.7,316.9 C247.9,325.8 244.1,334.9 243.3,343.7 C226,350.6 207.3,347.9 189.4,345.1 C189.7,344.9 189.9,344.5 190,344.1 C190.4,343.9 190.8,343.5 190.8,342.9 C191.8,329.7 193.7,315.4 190.6,302.7 C192.6,300.9 194.5,298.7 196.2,296.6 C197.7,294.5 194.5,291.8 192.7,293.3 C195.2,287 197.8,280.7 200.5,274.5 C201.2,272.9 198.8,271.4 198.1,273.1 C187.9,296.3 179.3,320.1 170.5,343.8 C170,342.8 168,342.9 168.7,344.3 C150.5,345.8 131.6,341.2 114.9,333.7 C118.9,320.9 123.4,307.9 123.2,294.3 C127.1,294.5 132.4,292.3 134.4,288.9 C136.5,290.5 139,288.6 140.1,286.7 C142.6,281.8 141.3,275.8 139.8,270.8 C144.9,271.6 151.4,266.8 147.9,261.5 C142.4,256.7 136.2,252.7 130.9,247.7 C130.4,238.3 134.1,229.5 137.4,220.7 C154.2,232.5 170.6,245.1 188.2,255.5 C191.2,255.9 193.6,253.6 195.9,251.9 C202.4,247.1 208.9,242.4 215.3,237.4 C216,237.7 216.8,237.6 217.4,237.2 C221.5,241.6 225.8,245.6 229.9,250 C232.3,252.2 234,255.7 237.4,256.6 C239,256.9 240,256.2 241,255.1 C247.2,248.6 253.8,242.6 260.2,236.3 C261,237.4 262.6,237 263.4,236 C262.7,248.4 261.1,260.8 259.2,273.1 M247.8,345.2 C247.6,345.3 247.8,345.2 248,345.5 C248.2,347.3 247.2,349.1 246.8,350.8 C245.6,353.4 245.8,359.4 242.3,359.4 C223.3,362.7 204.1,359.9 185.5,355.7 C185.7,351.9 186.9,348 186.1,344.3 C186.4,344 186.8,343.8 187.1,343.8 C187,344.3 187.1,344.9 187.5,345.2 C203.4,352.2 226.5,353.6 243,347.1 C244.8,347.7 246,345.4 244.7,344.2 C244.9,344.2 245.1,344.1 245.3,344 C245.1,345.1 246.8,346 247.8,345.2 M194.9,360.2 C195.3,360.3 195.8,360.5 196.3,360.6 C195.9,361.5 196.5,362.8 196.3,363.8 C196,362.5 195.5,361.3 194.9,360.2 M166.5,350 C165.7,352.2 164.5,354.6 162,354.9 C161.4,354.7 160.7,354.7 160.2,355.1 C143.7,354.9 123.4,349.9 110.8,339.1 C110.7,337.6 111.4,336.1 111.5,334.6 C111.7,334 112,330.3 112.8,331 C112.2,332.5 111.7,334.6 113.9,334.4 C130.2,343.7 149.3,347.3 167.9,346.7 C167.3,347.8 166.9,348.9 166.5,350 M132.1,411.7 C130.7,416.8 129.1,421.9 127.5,426.9 C125.9,434.4 122.2,435.4 116.6,430.5 C112.5,428.1 114.2,423.7 114.8,419.9 C115.6,415.2 116.6,410.6 117.3,405.9 C121.7,409.2 127.4,410.8 132.9,410.1 C132.5,410.5 132.3,411.1 132.1,411.7 M124.6,435.6 C124.6,435.6 124.5,435.6 124.5,435.6 C124.5,435.6 124.6,435.5 124.6,435.5 C124.6,435.6 124.6,435.6 124.6,435.6 M121.7,445.2 C119.9,460.9 114.8,476 111.3,491.3 C110.9,494.5 108.5,495.7 105.6,494.7 C104.4,494.4 102.5,493.9 101.6,493 C100.6,491.9 101.3,489.8 101.5,488.5 C102.9,480.7 104.5,473 106.1,465.2 C108,456.8 109.5,448.2 111.6,439.8 C114.6,442.4 118.4,444.2 122.5,444.2 C122.1,444.4 121.7,444.7 121.7,445.2 M110.6,501.3 C110.4,501.3 110.2,501.4 109.9,501.4 C110.3,500.3 110.6,498.7 110,497.6 C110.1,497.6 110.3,497.5 110.4,497.4 C110.6,498.7 110.8,500 110.6,501.3 M108.6,533.6 C112.4,536.1 114.7,540.3 116.6,544.2 C117.9,546.8 118.9,549.9 120.8,552.1 C121.6,554.2 122.4,556.4 123.2,558.5 C125.5,565.6 128.3,573.1 128.1,580.6 C128.1,580.6 128.1,580.6 128.1,580.6 C128,580.8 128,581 127.9,581.1 C128.1,581 128.3,580.9 128,581.1 C128,581.1 127.9,581.2 127.9,581.1 C127.9,581.2 127.9,581.2 127.9,581.2 C127.9,581.1 128,581.1 128,581.1 C128,581.1 127.9,581.2 127.9,581.2 C127.9,581.2 127.9,581.2 127.9,581.2 C127.9,581.2 127.8,581.3 127.8,581.3 C127.6,581.4 127.4,581.5 127.2,581.7 C112.5,584.9 96.3,585.5 82.8,578.2 C77.6,567.6 82.9,549.9 85,538.5 C91.9,534.6 100.8,529.7 108.6,533.6 M114.5,529.4 C115,531.8 115.4,534.3 115.9,536.7 C114.4,535.1 113.7,533.1 112.4,531.4 C111.5,529.7 110.7,527.3 108.7,527 C108.6,525.6 108.6,524.2 108.6,522.9 C112,523.3 113.8,526.2 114.5,529.4 M133.1,582.8 C133,582.2 132.7,581.5 132.1,581.1 C132.2,578.8 131.8,576.5 131.5,574.2 C133.9,576.8 132.9,581.1 133.3,584.4 C133.3,585.7 133.9,587.4 132.4,588.1 C127.6,591.4 121.7,592.9 116,593.6 C103.5,595 90.5,592.7 79.3,586.9 C77.8,584.9 78.3,580 78.1,577.4 C78.8,579.7 80.1,581.7 82.5,582.5 C97.7,589.8 115.6,588.9 131.7,584.8 C132.7,584.5 133.1,583.7 133.1,582.8 M92.9,531.7 C93,531.6 93.1,531.5 93.2,531.4 C93.7,531.3 94.2,531.3 94.8,531.2 C94,531.5 93.2,531.9 92.4,532.3 C92.6,532.1 92.7,531.9 92.9,531.7 M99.4,519.5 C100.7,514 101.2,508.4 101.8,502.8 C103.7,503.5 105.7,503.9 107.7,504 C105.2,511.5 105.3,519.7 105.4,527.5 C102.4,528 99.1,528.3 96.1,527.2 C97.6,524.9 98.7,522.3 99.4,519.5 M119.8,288.9 C118.2,288.7 116.5,288.8 114.9,289.1 C105.1,282.5 103.6,255.3 102.1,243.9 C109,245.7 116.4,245.2 123.2,242.8 C123.3,244.1 124.8,244.7 125.6,243.9 C130.2,252 137.1,258.6 144.2,264.4 C144.1,264.1 144.1,264.6 144.2,264.5 C143.3,266.5 139.9,265.5 138.4,266.9 C137.4,267.6 137.1,269 137.8,269.8 C136.1,274.5 138.8,280.2 136.3,284.7 C135.7,285.3 134.9,285.8 134.4,286.5 C131.1,284.2 128,289.1 124.6,289.3 C124.6,289.3 124.6,289.3 124.6,289.3 C124.1,289.4 123.3,289.4 122.8,289.3 C121.8,289.1 120.8,289 119.8,288.9 M126.1,125.3 C126.9,120.7 127.7,116 128.8,111.4 C130.1,111.7 130.4,114.6 130.5,115.5 C136.1,140.8 133.7,166.9 131.3,192.4 C130.7,199.2 130.3,206.1 129.9,213 C129.4,216.1 133,217.2 135,218.9 C132.3,227.6 127.6,236 128.2,245.2 C127.4,244.6 126.7,243.9 126,243.2 C126.2,242.6 126.3,242.1 126.5,241.5 C127.4,241 127.6,239.7 126.9,239.1 C127.2,201.2 120.1,163.1 126.1,125.3 M196.9,51.7 C198.3,49.3 201.8,52.4 199.6,54.1 C198,55.4 195.9,53.3 196.9,51.7 M202.3,76.8 C203.4,74.8 207,75.8 206.3,78.2 C206.3,78.1 206.3,78 206.3,78 C206.4,79.9 202.7,81.5 202.4,79 C202,78.4 201.9,77.5 202.3,76.8 M207.4,104 C210.1,103 211,107 208.8,108 C206.3,108.9 204.9,104.9 207.4,104 M210.5,133.3 C211.2,131 214.6,131.6 214.6,133.9 C214.5,137 209.8,136.1 210.5,133.3 M216.1,161.6 C217,158.7 220.7,160.2 220.4,163 C220.8,164.5 217.7,167.7 217.1,165.1 C216.2,164.1 215.9,162.9 216.1,161.6 M221.8,194.3 C221.8,194.2 221.8,194.2 221.8,194.2 C223.9,195.2 222.1,199.5 220.2,197.9 C218.3,196.8 219.6,193.1 221.8,194.3 M224.5,220.8 C226.8,223.1 223.2,226.8 220.9,224.4 C218.5,222.1 222.1,218.4 224.5,220.8 M282,238.7 C282,238.8 282,238.8 282.1,238.9 C282,238.8 281.9,238.8 281.9,238.7 C281.9,238.7 281.9,238.7 282,238.7 M193.3,515.1 C193.4,516.8 193.5,518.5 193.9,520.2 C195.2,527 203.9,535.1 211,530.2 C214.3,527.9 215.8,523.4 219.7,522 C223.8,520.5 228.3,522 231.7,524.3 C235.7,527 238.9,530.9 242.3,534.3 C249.5,541.5 257.5,547.9 266.1,553.4 C270.6,556.2 280.1,560.4 276.3,566.9 C273.5,571 266.3,569.1 265.1,571.4 C249.1,572 233.5,567.7 218.4,563.2 C210.7,560.7 202.7,559.3 195.2,556.1 C188.1,549.8 188,536.1 189,527.3 C189.3,525.4 190.1,516.2 193.1,517.8 C194,517.9 192.7,517 192.4,517.1 C192.8,516.5 193.2,515.8 193.3,515.1 M280,566.5 C280.1,566.5 280.2,566.5 280.3,566.5 C280.7,567.3 280.5,570.6 280.4,571.2 C279.5,576.1 271.7,576.9 267.6,577.6 C253.2,579.9 238.5,578.3 224.4,574.7 C217.6,573 210.7,571 204,568.7 C198.1,566.9 190.8,563.9 191.5,556.4 C194.8,560.8 205.4,562.1 210.7,564 C227.4,569 244.3,574.5 261.8,574.6 C264.5,574.5 268.2,575.3 270.2,573.3 C274.4,572.7 278.8,570.3 280,566.5 M283.9,184.8 C280,169.6 273.8,155.1 267.7,140.7 C261.2,121.6 259.3,101.4 257,81.4 C255.7,70.2 254.3,58.9 251.7,47.9 C249.5,27.3 228.5,25 212.1,21.9 C212.1,20.1 212.7,18.1 210.9,17 C209.3,15.3 200.6,10.2 198.9,12.4 C198.2,10.8 197.9,8.9 197.6,7.2 C197.4,6.5 197.3,4.1 196.5,4.2 C196.4,8.8 194.4,15.6 198.4,19.1 C196,22.7 194,27.1 190.9,29.9 C190.9,29.9 190.9,29.9 190.9,29.9 C190.7,30 190.6,30.1 190.4,30.2 C190.4,30.2 190.2,30.3 190,30.3 C189.6,30.4 188.9,30.2 188.5,30 L188.5,30 C177.7,23.9 167.2,17.4 156.7,10.7 C158.2,8.5 160.2,-2.3 158.3,-3.8 C157,0.5 155.7,4.7 153.7,8.7 C152,7.8 149.3,6.1 147.8,8.3 C146,11.3 145.5,15.7 147.7,18.7 C138.3,22.4 128.3,23.7 118.7,26.6 C114.5,27.6 110,28.4 106.1,30.3 C94.4,36.8 94.4,52.8 93.1,64.6 C89.8,121.9 79.3,181.2 95.7,237.5 C96.3,239.2 97.3,240.9 98,242.6 C98.3,243.2 99,243.2 99.5,242.8 C100.1,243.2 100.7,243.4 101.3,243.6 C100.2,258.3 98.8,285 112.9,293.7 C115.4,294.6 117.7,293.3 120.3,293.9 C120.6,306.5 116.7,318.5 113,330.4 C110.3,328.3 109.2,334.6 108.4,336.2 C105.6,342.1 113,344.7 116.9,347.2 C111.1,365.3 99.2,390.3 116.7,405.4 C114.8,410 113.9,415 112.8,419.8 C112.2,422.9 110.7,426.8 112.6,429.7 C112.1,429.4 111.6,429 111.1,428.6 C113.4,428.6 110,426.9 108.6,428.2 C104.8,431 107.7,436.2 110.5,438.8 C109.4,439.7 109,441.9 108.7,443 C107.3,447.5 106.2,452 105.1,456.5 C102.4,467.7 100,479 98.1,490.3 C98,491.5 98.1,492.6 98.4,493.6 C97,493.7 96.2,495 95.7,496.2 C95.1,498.9 98.5,501.5 100.8,502.4 C98.4,510.5 98.1,519.6 92.9,526.6 C92.4,526.1 91.4,526 90.9,526.9 C90.4,528.4 87.2,532.4 88.4,533.6 C88.5,533.9 88.6,534.2 88.8,534.4 C87.7,535.2 86.6,536 85.5,536.8 C87,532.7 88.2,527.8 91.3,524.6 C92.1,524.1 93.2,524.3 93.9,523.5 C94.3,522.9 94.4,522.2 93.9,521.7 C93.6,521.4 93.1,521.7 93.3,522 C93.7,523 91.2,522.8 90.6,523 C85.1,526.4 83.1,534.2 81.4,540.1 C79.2,550.5 76.2,561 76.9,571.6 C76.2,575.4 75.1,585.6 77.3,588.4 C88.7,595.2 102.9,597.2 116,595.9 C121.9,595 137.2,593.2 136.1,585.1 C135.8,580.5 136.8,574.4 132.3,571.5 C131.8,571.2 131.3,571.3 130.9,571.6 C128.2,559.3 122.2,548.3 118.7,536.4 C117.2,530.9 116.1,521.5 108.5,521.9 C108.3,516 108.8,509.9 108,504 C108,504 108,504 108,504 C108,504 108,504 108,504 C109.5,503.8 112.1,504.2 112.9,502.6 C113.4,500.3 113.6,497.7 112.6,495.5 C115.5,489.3 116,482.1 118,475.5 C120.3,465.5 123.1,455.5 123.9,445.2 C124,444.7 123.7,444.3 123.3,444.2 C123.9,444.2 124.6,444.1 125,443.8 C129.2,443.6 131.7,436.1 127.9,433.8 C127.9,433.4 127.8,433.2 127.8,432.9 C130.3,428 131.2,422.7 133,417.6 C133.3,415.3 135.6,411.9 134.3,409.9 C153.8,404.8 158.4,375 162.8,358.2 C169.3,356.9 168.7,350.8 172.1,346.9 C172.8,346.3 172.8,345.6 172.5,345 C178.7,332.4 182.5,318.1 188.1,305 C188.8,317.7 188.5,330.5 187.2,343.2 C183.1,342.2 183.1,347.8 182.5,350.5 C182.3,352.2 182,353.9 181.7,355.5 C181.2,358 184.4,358.7 185.3,356.7 C187.8,358 190.4,359 193.1,359.7 C193.7,362.4 194.3,365.1 194.3,367.8 C194.5,371 192.7,374.2 193.3,377.3 C189.4,386.6 183.2,394.6 180.4,404.3 C171,438.3 190.1,471.5 192.5,505.2 C191.5,501 192.1,511.4 192.1,512.2 C192.2,519.2 186.1,515.9 186.4,531.1 C185.9,538.3 186.3,545.7 189.3,552.4 C189.9,554.5 188.8,556.5 189.3,558.6 C189.8,562.5 192.9,568.3 197.3,567.7 C222.4,577.2 251.4,585.8 277.8,576.9 C279.6,576 281.5,574.8 282.2,572.8 C282.7,571 283.5,564.1 280.3,564.6 C280.4,558.3 274.4,554.5 269.6,551.7 C262.9,547.5 256.4,542.7 250.5,537.4 C241.4,530.2 234,516.3 220.7,518.4 C219,508.9 220.8,499.2 220.8,489.7 C221.6,447.4 230,406 236.3,364.3 C236.3,364 235.8,363.8 235.7,364.2 C222.1,403.3 218.7,445.2 216.1,486.2 C215.3,497.2 216.2,508.2 218.5,519 C212.5,520.7 211.6,529.9 204.7,529.1 C201,528.3 197.6,525.4 196.2,521.9 C197.7,519.4 196.6,515.8 196.6,512.9 C196.3,510 196,507.2 195.7,504.4 C193.4,472 175.6,440.6 182.6,407.8 C186,391.7 201.9,378.2 196.9,360.7 C211.2,364 226.1,364.6 240.6,362.7 C245.9,362.5 247.6,360.3 248.7,355.4 C249.5,352.1 251.1,348.9 251.2,345.5 C250.9,342.9 247.7,341 245.8,343.1 C251.5,322.6 256.4,301.8 260.7,280.9 C274.6,286.9 280.1,269.7 282.6,259.4 C283.9,253.2 286.5,245.6 283,239.8 C293.4,244 286.4,190.4 283.9,184.8" id="🖍-Ink" fill="currentColor"></path></g><g id="Head" stroke-width="1" transform="translate(95.9, 42.7)"><g id="head/Long-Afro"><path d="M97,65.2 C95.4,45.3 90.4,27.8 67.1,27 C56.6,27.1 45.8,29.3 36.2,33.5 C12.6,45.2 5.2,88.3 25.9,105.6 C25.8,105.6 25.7,105.8 25.9,105.9 C30.2,108.8 34.9,111.2 39.7,113.2 C52.4,118.5 67.3,120.9 80.3,115 C100,106.7 100.3,83.3 97,65.2 L97,65.2 Z" id="🎨-Background" fill="#FFFFFF"></path><path d="M135.9,55.9 C136.7,55.2 137.3,54.2 137.6,53.2 C137.9,52.2 137.9,51.1 137.6,50.1 C137.3,49.1 136.6,48.3 136.8,47.2 C136.8,47.1 136.8,46.9 136.9,46.8 C137.5,44.8 138.9,43.3 138.4,41 C138.2,40.4 138,39.8 137.6,39.3 C137.6,38.9 137.7,38.4 137.7,37.9 C138.6,35.9 138.5,33.5 137.6,31.5 C137.5,30.5 137.3,29.5 137.1,28.5 C137.2,27.6 137,26.7 136.8,25.9 C136.3,24.6 135.7,23.3 135,22 C135.1,21.6 135,21.2 134.9,20.9 C134.5,20.3 134,19.8 133.5,19.2 C133.2,18.6 132.9,18 132.5,17.4 C132.4,17.2 132.2,16.9 132,16.5 C132.5,15.6 132.8,14.6 132.2,13.5 C132,13.1 131.5,12.8 131,12.8 C130.5,12.8 130,12.8 129.4,12.9 C128.5,11.7 127.4,10.6 126.2,10 C125,9 123.8,8 122.6,7 C122.2,6.7 121.9,6.4 121.6,6.1 C121.6,6.1 121.6,6.1 121.6,6.1 C121.3,5.2 121,4.3 120.8,3.4 C120.6,2.9 120.5,2.3 120,2 C118.9,1.4 117.1,1.3 115.8,1.2 C115.7,1 115.6,0.9 115.5,0.8 C116,-0.7 115.9,-2.4 115.2,-4 C115,-4.5 114.1,-4.7 113.6,-4.4 C112.5,-3.6 111.2,-3.3 109.9,-3.4 C108,-4.9 100.3,-11.5 99.1,-12.2 C99.1,-12.2 99.1,-12.2 99,-12.3 C98.4,-13.3 97.6,-14.2 96.6,-14.9 C96.5,-15 96.4,-15.1 96.3,-15.3 C96.4,-16.1 96.7,-16.9 97.2,-17.5 C97.2,-17.6 97.3,-17.7 97.3,-17.8 C98.2,-18.8 97.1,-20.1 95.9,-19.5 C95.9,-19.5 95.8,-19.5 95.7,-19.4 C94.8,-19 93.8,-18.6 92.7,-18.2 C92.3,-18.3 91.9,-18.5 91.6,-18.6 L87.8,-20.2 C87.1,-20.4 86.5,-20.6 85.8,-20.9 C85.6,-22.3 84.2,-23.3 82.7,-23.2 C82.8,-23.5 83,-23.7 83.1,-24 C83.2,-24.1 83.2,-24.1 83.3,-24.2 C84.1,-25.1 83,-26.7 82,-25.9 C81.9,-25.9 81.8,-25.8 81.7,-25.8 C81.4,-25.6 81.1,-25.4 80.8,-25.2 C80.3,-25.4 79.8,-25.4 79.2,-25.2 C77.9,-24.7 76.7,-24.2 75.5,-23.4 C75.5,-23.4 75.4,-23.3 75.4,-23.3 C74.8,-24 73.9,-24.4 73.1,-24.4 C73.1,-24.4 73.1,-24.4 73,-24.4 C72.4,-25.4 71.3,-25.9 70.2,-25.8 C70.3,-27.1 69,-28.3 67.8,-28.4 C66.4,-28.6 65.1,-27.8 64.7,-26.4 C64.5,-26 64.4,-25.6 64.3,-25.2 C63.2,-25.8 62.1,-26.2 60.8,-26.4 C58.1,-26.9 55.4,-26.4 52.7,-25.6 C52.5,-25.6 52.2,-25.5 51.9,-25.4 C51.6,-25.8 51.2,-26.3 50.9,-26.7 C50.3,-27.4 48.9,-26.9 49,-25.9 C49,-25.3 48.8,-24.8 48.3,-24.5 C47.9,-24.4 47.4,-24.4 46.8,-24.4 C45.9,-24.4 45.5,-24.5 44.5,-24.8 C44.1,-25 43.6,-25.4 43.3,-25.8 C42.3,-27.4 39.9,-27.8 38.7,-26.3 C37.5,-26.9 35.9,-26.1 35.2,-25.1 C34.9,-24.5 34.1,-24.2 33.2,-23.9 C32.5,-23.7 31.8,-23.6 31.1,-23.5 C30.7,-23.9 30,-24.2 29.5,-23.8 C29.2,-23.6 28.9,-23.3 28.6,-23.1 C26.1,-22.7 23.6,-22.7 21.2,-23.7 C19.2,-24.5 17.3,-22.3 17.7,-20.4 C17.1,-20.1 16.5,-19.9 15.9,-19.5 C14.6,-18.9 13.6,-17.8 13,-16.5 C12.8,-16.2 12.7,-16 12.6,-15.8 C12.2,-15.4 11.7,-15 11.3,-14.6 C10.5,-15 9.7,-15.4 9,-15.7 C8.4,-16 7.5,-15.8 7.4,-15.1 C7.2,-13.9 6.7,-12.8 6.1,-12 C4,-10.9 2.1,-9.7 0.2,-8.3 C-2,-7.6 -4.3,-7.2 -6.2,-6.8 C-6.9,-6.6 -7.3,-5.8 -6.9,-5.2 C-6.5,-4.6 -6.1,-4 -5.7,-3.4 C-6.8,-2.4 -7.8,-1.3 -8.8,-0.1 C-11.5,3 -13.7,6.5 -15.7,10.2 C-16.5,10.5 -17.3,10.9 -18.1,11.2 C-18.9,11.5 -19.2,12.4 -18.6,13 C-18.3,13.3 -18,13.7 -17.8,14 C-18.9,15.9 -20.2,17.6 -22.1,18.7 C-22.7,19 -23.1,19.5 -23.3,20.1 C-23.5,20.3 -23.7,20.4 -23.9,20.5 C-24.4,20.9 -24.7,21.8 -24.1,22.3 C-23.7,22.7 -23.3,23.1 -22.9,23.6 C-22.8,23.8 -22.8,24.1 -22.7,24.4 C-24.4,25.9 -25.8,27.8 -26.9,29.8 C-27.2,29.8 -27.4,29.8 -27.6,30 C-29.6,31.4 -29.6,33.6 -28.9,35.7 C-29.3,38.7 -29,41.8 -28.1,44.7 C-29.3,45.9 -30,47.6 -30.3,49.2 C-30.8,52.1 -30.8,56.5 -31,59.5 C-32.3,60.7 -33.2,62.3 -33.7,64 C-34.1,64.3 -34.6,64.5 -35,64.7 C-35.4,64.9 -35.6,65.4 -35.6,65.8 C-35.5,67.8 -34.7,69.4 -33.6,70.9 C-33.2,72 -32.6,73.1 -31.8,74.1 C-31.3,74.7 -30.7,75.4 -30.3,76.1 C-30.2,76.2 -30.2,76.3 -30.2,76.3 C-30.4,76.5 -30.5,76.8 -30.7,77.1 C-31.7,79 -31.8,81.3 -30.2,82.9 C-30.8,83.4 -30.8,84.4 -30.3,85 C-26.9,88.8 -24.1,93.5 -19.4,95.5 C-19.4,95.6 -19.4,95.6 -19.4,95.6 C-20.3,97.9 -20.5,99.1 -19.7,101.5 C-19.7,101.5 -19.7,101.5 -19.7,101.5 C-19.3,102.7 -18.5,104.7 -17.1,105.1 C-16.7,105.2 -16.3,105.3 -15.8,105.3 C-14.8,106.3 -13.7,107.4 -12.6,108.4 C-12.5,108.9 -12.4,109.5 -12.4,110 C-12.4,110.9 -11.5,111.6 -10.7,111.3 C-10.3,111.2 -8.6,109.5 -8.3,109.6 C-8.1,109.7 -7.9,109.9 -7.8,110 C-7.2,110.6 -6.4,111.6 -6.3,112.2 C-6.2,113.4 -5.4,114.8 -4.2,115 C-3.7,115.5 -2.9,115.7 -2.4,115 C-2.3,115 -2.3,114.9 -2.2,114.9 C-2.2,114.9 -2.1,114.9 -2.1,114.9 C-1.8,115.7 -1.5,116.6 -1.2,117.4 C-0.7,119 1.5,120.1 3,119.1 C3.2,119.3 3.4,119.4 3.7,119.6 C4,119.8 4.4,120 4.8,120.3 C4.8,120.3 4.8,120.4 4.8,120.4 C5.1,121.2 6.1,121.6 6.7,121.2 C6.9,121.2 7.1,121.3 7.3,121.3 C8.3,121.5 9.4,121.5 10.4,121.1 C11.1,120.9 11.8,120.4 12.6,120.3 C12.7,120.3 12.7,120.3 12.8,120.3 C13.4,121.6 14.8,122.7 16,123.1 C17.5,123.6 19,123.4 20.4,122.8 C20.8,123.6 21.2,124.3 21.8,124.9 C22.1,125.3 22.6,125.2 22.9,124.9 C23.5,124.4 24.1,123.8 24.7,123.3 C25.2,123.1 25.6,122.9 26.1,122.8 C27.5,122.2 29,121.9 30.3,121.1 C31,120.7 31.5,120.2 32,119.6 C32.9,119.1 33.8,118.4 34.5,117.7 C34.9,117.7 35.3,117.6 35.7,117.4 C37.3,116.6 38.1,115 38.2,113.3 C39.5,110.3 40.2,107 40.4,103.7 C40.5,102.7 40.5,101.6 40.4,100.5 C40.4,99.7 40.2,99.2 39.9,98.5 C39.8,98.3 39.7,98.1 39.6,97.9 C39.6,97.1 39.7,96.4 39.7,95.7 C39.9,95.1 40.2,94.5 40.7,94 C41.5,93.3 41.8,91.7 41.1,90.8 C40.7,90.2 40.2,89.6 39.8,89 C39.9,86.5 40.5,82.4 39.2,82 C39.2,81.6 39.3,81.2 39.4,80.8 C39.7,79 39.5,77.4 38.6,75.8 C38.4,75.5 38.2,75.2 38,74.9 C38,74.4 37.9,73.9 37.8,73.4 C37.6,72.6 37.5,71.7 37.4,70.9 C37.3,69.9 37.3,68.9 37.2,67.8 C37.2,66.9 37.1,65.9 37,64.9 C37.1,64.5 37.1,64.1 37.2,63.7 C37.5,61.1 38.5,60.2 40.4,58.4 C40.6,58.3 40.9,58.3 41.2,58.2 C42.5,58 43.8,57.5 45.2,57.7 C46.6,57.9 47.9,58.5 49.3,57.7 C49.7,57.4 50.6,56.8 50.7,56.3 C50.7,56.2 50.7,56.2 50.7,56.2 C50.8,56.2 51,56.2 51,56.2 C52.2,56.1 53.2,56.6 54.4,56.4 C55.7,56.3 56.9,55.7 57.7,54.8 C58.7,55.1 59.7,55.2 60.7,55 C61.6,54.9 62.4,54.7 63.2,54.2 C63.7,53.9 63.6,53.8 64.2,54.1 C65.6,54.6 66.8,55.4 68.4,55 C69.2,54.8 69.9,54.4 70.5,53.8 C70.6,53.6 70.9,53.4 71,53.2 C71.8,53.6 73.7,54.5 74,54.5 C74.8,54.8 75.8,54.7 76.6,54.4 C77.2,54.2 78,53.7 78.6,53.5 C79.3,53.4 80.8,54.4 81.7,54.7 C83.2,55.3 84.8,55.5 86.3,54.8 C86.8,54.6 87.8,53.8 88.2,53.8 C88.8,54.6 90.6,58.8 91.1,60.4 C93.2,66.6 93.8,86.2 92.8,91.1 C92.7,91.3 92.7,91.4 92.7,91.6 C91.5,95.9 90.2,100.3 88.2,104.4 C86.3,108.2 83.6,111.6 79.8,113.7 C75.9,115.8 71.3,116.4 66.8,116.1 C64,115.9 61.2,115.4 58.4,114.6 C57,114.3 55.6,113.8 54.2,113.4 C53.5,113.2 52.9,113.1 52.3,112.8 C51.2,112.5 50.7,112.4 49.6,112.9 C48.7,113.4 48.5,114.7 49,115.5 C49.7,116.9 51.2,117 52.6,117.4 C54,117.8 55.5,118.2 56.9,118.5 C59.7,119.2 62.5,119.7 65.3,119.9 C70.4,120.4 75.6,119.7 80.3,117.5 C80.8,117.2 81.3,117 81.8,116.7 C81.6,116.9 81.4,117.2 81.2,117.4 C80.7,118.1 81.1,119.3 81.8,119.7 C82,119.8 82.3,119.9 82.5,120 C82.5,120.1 82.6,120.2 82.6,120.2 C83.3,121.6 84.6,122.3 86,122.7 C87.7,123.1 89.6,122.8 91.3,122.7 C92.8,122.7 94.4,122.6 96,122.6 C96.3,122.6 96.7,122.6 97.1,122.6 C99,122.5 100.8,122.5 102.7,122.4 C104.3,122.4 104.3,122.5 105.8,121.8 C106.5,121.5 107.1,121.1 107.6,120.5 C107.9,120.4 108.2,120.2 108.4,120.1 C109.3,119.5 110.1,118.8 110.9,118 C112.1,118.3 113.8,118 114.1,116.4 C114.5,113.9 117.7,112.9 119.2,111.1 C120.5,109.6 121.3,107.7 121.3,105.9 C124.4,104.4 126,100.5 126.4,97.1 C126.6,95.6 126.6,94 126.9,92.4 C127,92.3 127.1,92.1 127.2,92 C127.9,90.7 128.6,89.4 129.2,88.1 C130,87.5 131,87.2 132,87.1 C134.5,87 135,83.6 132.6,82.8 C132.6,82.8 132.6,82.8 132.6,82.8 C133.2,81.2 133.1,79.3 132.4,77.8 C132.4,77.6 132.4,77.4 132.5,77.3 C133.8,75.8 134.6,73.8 134.5,71.9 C135.1,71.5 135.8,71.1 136.5,70.9 C137.7,70.6 137.7,69.2 136.8,68.6 C136.5,68.3 136.2,68 136,67.7 C136.5,65.9 136.3,63.9 135.1,62.4 C135.9,61.4 136.6,60.5 137.4,59.5 C137.9,58.8 138.2,57.7 137.4,57.1 C136.9,56.7 136.4,56.3 135.9,55.9 Z" id="🖍-Ink" fill="currentColor"></path></g><g id="face/Loving-Grin-1" transform="translate(37.8, 44.1)" fill="currentColor"><path d="M22.9,51.9 C22.9,49.3 25.2,48.8 27.3,49.2 C31,49.7 34.6,50.2 38.3,50.2 L39,50.2 L39,50.2 C39.1,50.1 39.2,50 39.5,50 C41.5,49.7 43.6,49.8 45.7,49.7 C47.5,49.7 49.3,49.5 51.1,49.6 L51.2,49.6 C53.4,49.8 55.8,51 55.5,53.5 C55.2,55.9 53,58 51.1,59.4 C50.8,59.6 50.4,59.9 50,60.1 C49.9,60.2 49.7,60.4 49.5,60.4 C47.7,61.3 45.7,61.9 43.7,62.1 C39.3,62.5 34.3,62.1 30.1,60.2 C28.8,59.6 27.5,58.8 26.4,57.9 C24.7,56.4 22.8,54.3 22.9,51.9 Z M40,57.1 C38.2,57 36.5,57.2 34.8,57.8 C33.7,58.1 32.7,58.8 31.6,59.3 C35.2,60.7 39.5,61 43.2,60.8 C44.8,60.6 46.4,60.3 47.9,59.6 C47.7,59.5 47.4,59.3 47.2,59.1 C46.4,58.7 45.7,58.3 44.9,58 C43.3,57.4 41.7,57.1 40,57.1 Z M40.6,34.2 C40.1,33.9 40.5,32.8 41.5,32.9 C50.6,34.5 45.9,50.2 34.2,41.6 C32.8,40.5 34.5,38 36,39 L36.5,39.4 C38.3,40.7 41.1,42.7 43.2,40.5 C45.1,37.8 42.4,35.3 40.6,34.2 Z M46.7,22.4 C48.7,20.7 51.1,21.9 52.5,23.6 L52.8,23.9 C53.1,24.2 53.4,24.6 53.6,25.1 C55.2,23.7 57.3,22.8 59.4,23.4 C61.3,24 62.5,25.9 62.1,27.9 C61.8,30.2 60,31.8 58.1,33 L57.6,33.3 C55.3,34.8 53.2,36.2 51.3,38.2 C51,38.5 50.4,38.5 50.2,38 L50,37.7 L50,37.7 L49.8,37.4 C48.5,34.5 47.1,31.7 45.9,28.9 C45.1,26.7 44.8,24 46.7,22.4 Z M24.6,23.8 L24.9,23.5 C26.4,21.9 28.8,20.8 30.7,22.4 C32.7,24.1 32.3,26.9 31.4,29 C30.3,31.7 29,34.2 27.8,36.8 L27.6,37.4 C27.5,37.6 27.3,37.8 27.2,38 C27,38.5 26.4,38.5 26.1,38.2 C24.3,36.3 22.2,34.9 20,33.5 L19.4,33 C17.5,31.8 15.7,30.3 15.3,27.9 C14.9,25.9 16,24 18,23.4 C20.1,22.8 22.2,23.7 23.8,25.1 C24,24.6 24.3,24.2 24.6,23.8 L24.6,23.8 Z M27.2,12 C27.9,12.9 27.2,14.4 26.2,14.6 C24.9,14.9 23.7,14.7 22.4,15.1 C21.3,15.4 20.2,16.1 19.3,16.7 C18.1,17.5 17.1,18.3 16.2,19.2 C15.6,19.8 14.9,21.1 14.1,21.2 C13.2,21.2 14.4,18.5 14.5,18.3 C15.1,16.7 16.1,15.2 17.3,13.8 C19.6,11.2 24.5,8.5 27.2,12 Z M53.2,11.3 L53.8,11.5 C55.3,11.9 56.8,12.3 58,13.2 L58.1,13.3 L58.3,13.4 C59.8,14.5 62,16.8 60.9,18.8 C60.8,19 60.7,19 60.5,18.9 C59.1,18.3 58,17 56.5,16.5 L56.2,16.4 C54.7,15.9 52.8,15.4 51.2,15.4 C50,15.8 48.5,15.5 48.2,14.1 L48.2,14 L48.2,13.9 C48,12.9 48.3,11.7 49.2,11.3 C50.6,10.6 51.9,10.9 53.2,11.3 Z" id="🖍-Ink"></path></g><g id="facial-hair/*-None" transform="translate(29.2, 80.1)"></g><g id="accessories/Glasses-5" transform="translate(11.2, 57.1)" fill="currentColor"><path d="M87.2,17.6 C86.5,19.5 85.5,21.4 84.2,22.9 C79.2,27.2 74.3,24.8 71.8,19 C70.8,14.9 73.3,10.5 76,7.5 C79.9,3.6 86.1,5.7 87.9,10.3 C88,10.8 88.1,11.4 88.1,12 C88.1,13.9 87.9,15.6 87.2,17.4 M38.6,14 C45.2,6.1 57.7,5.6 57.4,17.8 C55.9,33.2 31.8,29.4 38.6,14 Z M89.3,7.4 C89,7 88.8,6.6 88.5,6.2 C88.4,6.2 88.3,5.6 88,5.6 C82.8,-0.1 73.8,3.1 70.5,8.8 C69.9,9.5 69.5,10.3 69.1,11.2 C65.9,10.6 62.1,10.7 59.1,11.9 C56.2,4.2 47.2,3.5 41.3,6.8 C37.6,8.6 35.2,12.4 31.7,14.5 C23.3,15.1 14.2,13.2 6,15.3 C-0.5,16.7 4.9,19.9 6,17.7 C13.8,15.4 23,17.4 31.1,16.9 C31.9,18.3 33.5,19.5 35.2,19.4 C36.9,34.7 59.3,32.2 60.1,18.6 C61,17.2 62,15.9 63.6,15 C64.2,14.9 64.8,14.7 65.3,14.5 C66.2,14.3 67.6,14.7 68.4,15.5 C71.3,32.5 87.6,30.5 90.6,15.6 C90.6,15.5 90.8,15.3 90.9,15 C91.9,13.6 94.4,13.1 94,10.9 C93.6,8.7 90.8,8.7 89.3,7.4 Z" id="🖍-Ink"></path></g></g></g></g></g></svg>