<svg viewBox="0 0 336 504" version="1.1" xmlns="http://www.w3.org/2000/svg" xmlns:xlink="http://www.w3.org/1999/xlink"><g id="Introduction" stroke="none" stroke-width="1" fill="none" fill-rule="evenodd"><g id="variations-sitting" transform="translate(-2248, -247)"><g id="a-person/sitting" transform="translate(2243, 200)"><g id="pose/sitting/one_leg_up-1" transform="translate(-20.3, 159.5)"><path d="M210.9,212.4 C211.4,218.3 210.3,224.1 207.5,228.9 L206.6,230.5 L208.3,231.1 C211.4,232.2 215,232.7 219,232.7 C223.2,232.7 227.5,232.1 231,231.6 L233.3,231.3 L232.2,229.4 C231.3,227.9 231.1,226 230.9,224 C230.9,223.4 230.8,222.9 230.8,222.3 C227.5,192.8 223.3,162.9 219.3,134 C218.2,126.4 217.1,118.5 216,110.8 L213,110.9 C212.1,125.2 211.3,139.8 210.6,153.9 C210.2,160.1 209.9,166.3 209.5,172.5 C208.3,188.1 208.7,200.8 210.9,212.4 M212.1,389.3 C207.6,389.3 203.1,388.9 198.7,388 C185,385.1 172.5,378.3 161.9,372.2 C161.4,371.8 160.8,371.5 160.3,371.2 C156.1,368.9 150.9,366 147.7,362.5 C144.1,358.6 143.5,354.8 145.8,350.4 L146.1,349.7 L145.7,349 C143.4,344.7 143.6,339.3 146.2,336 L148.3,333.2 L144.8,333.6 C141.2,334 137.6,334.5 134.1,335 C130.2,335.5 126.2,336.1 122.3,336.5 L121.2,336.6 L120.9,337.6 C120.8,338.2 120.6,338.6 119.4,338.6 C118.4,338.6 116.9,338.3 115.4,337.9 C113.6,337.5 111.5,337.1 109.4,337.1 C108.5,337.1 107.7,337.2 107,337.3 L106.5,337.4 L106.2,337.8 C106,338 105.7,338.1 105.3,338.1 C105.1,338.1 104.8,338 104.6,337.9 L104.1,337.5 L103.5,337.6 C92.5,338.8 83.1,340.9 74.6,344 L74.5,344.1 L74.3,344.1 C71.3,345.5 68.1,346.8 65.2,346.8 C63.1,346.8 61.3,346.1 59.8,344.6 L59.3,344.1 L58.7,344.1 C52.3,344.1 49.4,336.7 49,331.7 L49,331.1 L48.5,330.7 C37.4,321.4 30.8,308.6 28.5,291.6 C26.3,276.2 28,259.9 29.9,246 C34.3,210 38.9,177.7 50.7,147 L51.2,145.6 L49.7,145.1 C44.7,143.3 40.8,141.1 37.9,138.5 L37.7,138.3 L37.4,138.2 C33.3,136.5 31.3,130.2 30.7,128.3 L30.7,128.1 L30.6,128 C29.8,126.4 29.6,124.1 30.1,121.8 L30.1,121.5 L30.1,121.3 C29.8,119.1 30.7,116.8 31.7,114.4 C32.1,113.2 32.6,112.1 32.9,111 C34.1,107.7 35.2,104.4 36.3,101.1 C38.8,93.9 41.3,86.4 44.1,79.2 L44.4,78.2 L43.6,77.5 C42.2,76.3 42.7,74.9 44.7,71.7 C45.2,70.9 45.6,70.1 46,69.4 C48.6,64.9 51.4,60.7 54.2,56.7 L54.3,56.6 L54.3,56.5 C69.2,28.8 95.5,13.6 128.4,13.6 L129.1,13.6 L129.4,13.4 C135.6,9.7 140,3.3 142.9,-6 L143,-6.3 L142.9,-6.6 C142.8,-7.5 142.7,-8.6 142.8,-9.7 C142.9,-12.5 144,-15 145.8,-16.5 C149.2,-19.5 154.4,-19.7 159.5,-19.7 L160.2,-19.7 C166.6,-19.7 171.2,-18.6 174.5,-16.2 C178.4,-13.4 180.5,-9 181.1,-2.5 C181.2,-0.6 181.2,1.4 181.2,3.3 L181.2,3.8 L181.3,4.1 C181.7,5.6 182.3,7.1 182.9,8.4 L183.5,9.8 L184.9,9.2 C185.8,8.8 187,8.6 188.5,8.6 C188.9,8.5 189.3,8.5 189.8,8.5 C193.2,8.5 196.9,8.8 200.4,9.2 C203.1,9.4 205.8,9.6 208.5,9.7 L208.6,9.7 C208.6,9.7 208.9,9.7 209.1,9.7 C215.6,9.7 220.3,10.7 223.9,12.9 C227.8,15.3 230.7,19.1 232.8,24.9 C244.1,58 248.8,93.7 252.9,125.2 C255.3,141.6 256,158.5 256.7,174.8 C257.4,192 258.2,209.8 260.8,227.3 L261,228.6 L262.4,228.5 C268.7,228.1 275.4,227.3 282.5,226.4 C293.3,225 304.5,223.5 315.3,223.5 C330.4,223.5 341.8,226.5 350.3,232.6 C356.1,238.2 359.2,245.7 359.1,254.3 C358.9,266.5 352.4,280.1 342.6,288.8 L342.5,288.8 C330.1,300.5 307.3,310.7 275,319.1 C245.2,326.7 214.4,330.9 198.7,332.7 L194.8,333.2 L198,335.4 C199.2,336.4 200.4,337.2 201.5,337.9 L202.2,338.4 L203,338 C205.3,337 206.7,336.8 207.5,336.8 C208.2,336.8 209.1,336.9 209.2,337.7 C209.2,338.2 208.8,338.9 208.1,339 L204.3,339.5 L207.4,341.7 C209.5,343.2 212.7,345 216.3,347.1 C228.2,354 246.2,364.3 243.1,373.4 L242.9,374 L243.2,374.6 C244,376.2 244.1,377.7 243.4,379.2 C241.9,382.4 237.3,384.8 233.4,385.7 L233.4,385.8 L233.3,385.8 C226.5,388.1 219.4,389.3 212.1,389.3" id="Fill-1" fill="#FFFFFF"></path><path d="M199,330.9 C199.5,330.5 199.7,329.8 199.3,329.1 C197.6,326.9 194.1,328.4 191.9,328.9 C191.1,328.2 190.2,327.5 189.4,326.8 C189.7,325.1 187.7,324 186.8,322.7 C186,321.7 185.2,320.6 184.2,319.8 C181.8,317.9 178.5,319.2 175.7,319.1 C173.5,316.4 171.3,313.7 169.2,310.9 C171.6,306.9 171.8,302.3 171,297.8 C207.3,284.1 238.7,258.1 277.9,252.1 C279.2,251.8 280,250.2 279.7,249 C276.9,242.5 237.6,259.3 231.7,262.4 C214.4,270.6 198.1,281 181.3,290.1 C177.8,292 173.9,293 170.1,293.9 C164.2,274.6 154.2,256.8 146.5,238.2 C147,237.3 147.4,236.4 147.8,235.5 C147.5,245.8 157.5,245.6 158.9,235.9 C158.4,241 162.2,251.8 167.7,244.7 C169,242.9 169.5,240.6 169.7,238.3 C170,239.9 170.3,241.5 170.7,243.1 C172.1,246.2 176,242.4 176.9,240.8 C177.4,240.7 177.9,240.4 178.3,240.1 C188.1,241.5 199.6,241.4 206.8,233.7 C219,238.4 232.5,234.2 244.9,232.3 C270,229.4 295.2,225 320.5,225.4 C331.8,226 345.2,227.8 352.4,237.5 C361.5,251.4 356.3,270.1 346.2,282.2 C321.9,313 238.2,326.3 199,330.9 M199.7,342 C200.2,341.9 200.6,341.8 201.1,341.7 C208.2,347.6 241.7,362.9 239.1,372.1 C238.2,373.3 236.1,373.5 234.7,373.9 C232.3,374.5 229.9,375.1 227.5,375.5 C219.7,376.9 211.6,377.2 203.8,375.6 C200.9,375.1 198.3,373.9 195.7,372.7 C187.3,369 177.9,364.9 169.5,361.2 C158.8,357 140.1,348.7 147.8,334.6 C155.1,342.8 164.4,342.1 169.1,331.9 C170.7,328.8 172.1,324.6 175.9,323.4 C177.8,322 180.4,321.7 182.1,323.2 C182.2,323.1 182.3,322.8 182.4,322.6 C184.2,325.2 185.9,328 188.1,330.5 C187.3,330.5 179.4,336.3 181.8,336.3 C184.5,334.9 187.3,333.7 190.3,332.9 C192.5,335.1 194.9,337.2 197.4,339.1 C195,340.7 192.8,342.6 191.1,344.7 C190.9,344.9 191.1,345.2 191.3,345.1 C194.1,343.9 196.9,342.8 199.7,342 M235.8,381.7 C208.6,393.9 179.8,380.3 156.6,365.8 C151.2,362.8 144.2,358.6 145.3,351.6 C149.2,357.3 155.7,360.6 162,363.4 C172.4,368.2 183,372.7 193.5,377.4 C194.5,380.7 199.2,380.8 202.1,381.6 C214.9,384 228.6,382.8 240.6,377.9 C239.9,379.9 237.6,380.9 235.8,381.7 M127.3,334.2 C126.6,334.3 125.9,334.3 125.3,334.4 C125.3,333.5 124.8,332.6 123.9,332.4 C124.3,330.5 124.5,328.5 124.3,326.6 C125.4,329.5 129,328.6 131.3,327.8 C134.6,326.9 137.9,326 141.1,324.9 C142.4,327.3 143.8,329.7 145.4,331.8 C139.3,332.3 133.3,333.4 127.3,334.2 M124.6,325.1 C124.4,325.4 124.2,325.8 124.2,326.2 C124,324.8 123.7,323.4 123.2,322 C123.7,323 124.1,324 124.6,325.1 M120.8,317.5 C117.8,313.6 112.2,310.4 107.1,311.5 C106.8,311.6 106.8,312.1 107.1,312.2 C114,313.1 120,318.5 120.3,325.6 C120.8,328.7 118.6,331.9 119.3,334.9 C119.2,334.9 119,334.9 118.9,334.9 C118.8,335.2 118.8,335.3 118.7,335.5 C119.5,335.6 119.7,336.8 118.8,337 C118.3,337.1 117.7,337.2 117.2,337.2 C114.4,336.5 111.4,336.3 108.8,335.2 C106.1,334 106.8,330.7 105.9,328.5 C105.2,325.9 104.4,323.2 103.4,320.7 C103.3,320.5 103,320.6 103,320.8 C102.3,325.8 102.3,330.9 102.5,336 C101.6,336 100.7,336.1 99.8,336.3 C99.8,334.8 95.6,317.6 93.3,322.1 C94.5,326.9 94.6,332 94.7,337 C88.1,338.1 81.5,339.7 75.2,341.9 C70.7,343.3 65.4,347.3 61,343.7 C57.6,340.9 56.5,336 56.8,331.9 C61.2,307.4 95.8,304.6 116.3,306.4 C118.2,310.8 120.2,315.3 122.2,319.7 C121.8,318.9 121.3,318.2 120.8,317.5 M51,331.4 C50.6,325.9 51.6,318.9 55.7,314.8 C65.1,306.8 78.3,304.3 90.1,301.4 C95.6,300.4 101.2,299.6 106.8,299.3 C108.8,299.1 111.3,299.6 112.7,298 C113.4,299.7 114.1,301.4 114.9,303.1 C91.4,300 42.4,310.7 56.1,342.8 C53.2,339.6 51.3,335.8 51,331.4 M167.6,313 C168.7,315.7 170,318.3 171.7,320.6 C169.8,321.9 168.2,323.8 167,325.9 C159.8,344.8 152.1,334.6 142.5,324.5 C150.6,321.4 161.4,319.1 167.6,313 M47.2,327.6 C28.4,309 24.8,278.1 31.7,253.8 C32.3,244.8 35.5,236.2 38.3,227.7 C47.3,201.8 59.1,176.9 73.3,153.4 C91,158.3 108.5,163.2 126.2,167.9 C128.6,168.4 131.1,169.5 133.6,169.6 C134.4,170.2 135.3,170.8 136.3,171.4 C134.9,178 136.2,184.7 136.5,191.4 C136.8,196.6 136.2,201.7 135.5,206.9 C134.7,214.5 131.5,239 137.9,243.5 C140.1,244.5 142.1,241.4 143,242.3 C143.8,241.7 144.6,240.9 145.3,240.1 C147.7,248.1 151.8,255.5 154.3,263.5 C157.6,275.2 168.5,294.3 166.1,305.5 C164.2,312.4 156,313.9 150.1,316.1 C143.3,318.5 136.3,320.7 129.3,322.5 C125.9,315.2 122.6,307.9 119.4,300.5 C104.7,266.5 91.6,231.8 80,196.7 C79.8,195.9 77.1,187.5 76.6,189.8 C76.6,189.6 76.3,188.9 76.1,189.5 C78.1,197.7 80.1,206 82.3,214.2 C77,213.4 71.2,213.1 66.4,215.7 C66.1,215.9 66.3,216.2 66.5,216.2 C72.3,215.2 77.9,217.1 83.4,218.4 C91.2,244.9 101.3,270.6 111.9,296.1 C108.6,295.1 104.8,296.2 101.4,296.3 C90.5,297.4 79.9,299.8 69.6,303.4 C56.8,307.6 47.7,313 47.2,327.6 M36.9,134.5 C33.7,131.1 31.2,126.8 31.7,122.2 C33.6,119.6 34.2,116.3 35.3,113.4 C39.7,101.2 43.7,88.9 48.4,76.8 C58.4,79.9 68.2,83.6 77.5,88.4 C79.2,89.3 80.9,90.2 82.6,91.1 C84.3,92.1 86.2,93.8 88.3,93.3 C86,96.5 81.3,99.9 80.5,103.7 C80.3,104.8 81.2,105.9 82.5,105.7 C102.7,120 123.6,134.1 142.7,150.1 C157.1,161.4 168,170.6 173,188.9 C176.3,200.8 176.3,213.3 175.8,225.5 C175.7,227.9 175.7,230.3 175.5,232.7 C175.8,234.5 175.2,238.1 173.2,238.2 C173.3,238.6 173.4,239 173.6,239.4 C173.6,239.5 173.5,239.6 173.4,239.6 C173.3,239.1 173.3,238.7 173.2,238.2 C171.6,231.2 171.4,223.2 171.6,215.8 C171.8,213.7 168.5,213.7 168.3,215.8 C167.8,221.4 167.3,227 166.8,232.5 C166.3,236.2 167.2,240.9 164.3,243.6 C161.3,240.9 162.3,235.6 162.5,232.1 C162.7,226.3 162.9,220.6 163.1,214.9 C163.2,213.1 160.2,212.6 159.9,214.5 C158.9,219.7 157.9,225 156.7,230.2 C156,232.2 155.6,241.3 152.2,239.7 C150.2,238.3 151.6,230.2 151.4,227.5 C151.5,222.2 151.6,216.9 151.9,211.7 C152.1,209.5 148.6,209.1 148.1,211.2 C147.4,214.5 146.6,217.9 146,221.3 C144.5,227 145,234.8 139.7,238.6 C137.6,223.7 140.6,208.9 141,194.1 C140.8,189.3 140,184.6 139.2,179.8 C138.4,174.6 137.9,168.9 139.8,163.8 C139.3,161.6 137.3,167.7 137.1,168.2 C135.6,165.2 131.9,165 128.9,164 C122.4,161.9 115.7,160.3 109.1,158.5 C91.6,153.6 74,148.8 56.5,144 C49.4,142.1 42.1,139.8 36.9,134.5 M212.4,213.6 C210,200.5 210,187.2 211.1,174 C212.2,153.5 213.3,133 214.5,112.4 C219.6,149.6 225.1,186.7 229.2,223.9 C229.5,226.5 229.5,229.3 230.8,231.6 C223.6,232.6 215.8,233.5 208.8,231.1 C211.9,225.7 213,219.7 212.4,213.6 M249,121.4 C254.5,156.6 251.3,192.4 256.6,227.6 C249.3,228.4 242,229.6 234.7,231 C235.5,226.6 234,222.1 233.7,217.8 C229.7,186.6 225.4,155.4 219.6,124.5 C218.2,117.1 216.7,109.7 215.1,102.3 C215.3,97.9 215.5,93.4 215.7,89 C223.7,83.9 232.8,80.6 242.2,79 C244.7,93.1 247.2,107.2 249,121.4 M185.6,10.8 C185.3,10.2 185,9.7 184.7,9.1 C185.7,9.2 186.6,9.2 187.6,9.4 C187.6,10.9 187.6,12.5 187.7,14.1 C187.2,12.9 186.2,11.9 185.6,10.8 M351,231.4 C327.6,214.4 289.2,225.2 262.1,227 C256.9,193.1 259,158.8 254.2,124.9 C249.8,91.1 245.1,56.7 234,24.3 C229.4,11.8 221.4,8.1 208.3,8.2 C201.7,7.9 194.7,6.8 188.2,7 C186.8,7 185.3,7.2 184,7.8 C182.2,3.7 181.3,-0.6 180.8,-5 C180.7,-5.3 180.4,-5.3 180.3,-5 C178.8,-1.2 178.6,2.9 179.4,6.9 C180,9.8 183.6,21 187.7,16.6 C188,25.8 186,36.8 177,41.6 C161.2,48.5 139.3,42.2 130.1,27.6 C128.4,24.7 126.9,21.6 124.9,18.8 C138.5,14.9 146.2,-1.4 143,-13.8 C141,-4.2 137.4,6.7 128.4,12.1 C95.5,12 68.2,26.9 52.7,55.7 C49.7,59.9 46.9,64.3 44.4,68.7 C43,71.6 38.9,75.7 42.4,78.6 C38.4,89.1 34.9,99.8 31.2,110.4 C30.2,114 27.8,117.7 28.3,121.4 C27.8,123.7 27.8,126.4 29,128.6 C30.1,132.5 32.5,137.8 36.6,139.5 C40,142.6 44.4,144.8 49,146.4 C36.8,178.1 32.2,212.3 28.1,245.7 C24.1,275 22,310.6 47.2,331.7 C47.7,337.8 51.3,345.5 58.4,345.5 C63.3,350.4 69.3,347.7 74.8,345.4 C84.1,341.9 93.8,340 103.4,339 C104.5,339.8 106.1,339.7 107.1,338.7 C112.9,337.4 121,342.8 122.2,337.9 C129.7,337.2 137.2,335.8 144.7,335 C141.5,339.1 141.7,345.2 144.1,349.6 C138,361.5 152.2,368.5 160.9,373.4 C172.6,380.1 184.8,386.5 198.1,389.3 C209.9,391.8 222.2,391.1 233.6,387.1 C239.5,385.6 247.8,380.7 244.3,373.8 C248.8,360.6 217.3,347 208,340.4 C211.8,339.9 212,332.1 202.1,336.6 C200.9,335.8 199.8,335 198.6,334.1 C238.4,329.6 314.5,317 343.3,289.8 C359.2,275.8 368.3,247.5 351,231.4" id="🖍-Ink" fill="currentColor"></path></g><g id="Head" stroke-width="1" transform="translate(86.5, 45.1)"><g id="head/Afro"><path d="M49,20.7 C87,18.8 104.2,45.6 105.3,57.5 C106,65.8 101.1,75.3 101.1,82.7 C101.1,86.5 105.8,94.6 103.6,100.1 C98.8,112.4 88.6,126 75.7,126 C62.7,126 45.9,129.6 31.6,109.1 C30.2,107.2 13.2,96.3 11.6,85.9 C7.5,60.1 21.9,22 49,20.7 Z" id="🎨-Background" fill="#FFFFFF"></path><path d="M47.2,4.1 C48.6,2.5 50.9,1.9 52.9,2 C55.9,2.2 58.4,4 61.4,4.2 C64.5,4.3 67.5,3.2 70.5,3.7 C72.4,4 74.3,4.9 75.5,6.4 C79.8,5.2 84.3,6.8 87,10.3 C90.3,9.7 93.9,11.9 94.9,15.1 C99.1,15.3 103.1,18.6 103.6,22.9 C105.3,23.3 106.7,24.5 107.6,26 C108.7,27.8 108.8,29.8 108.6,31.8 C110.6,32.8 111.6,35 111.9,37.3 C113.7,38.6 114.5,41 114.1,43.3 C115.5,44.1 116.2,45.9 116.2,47.5 C116.2,49 115.8,50.4 116.4,51.8 C116.9,53.1 117,54.2 116.8,55.6 L116.7,55.7 C116.7,55.9 116.6,56.1 116.6,56.3 C117,56.7 117.3,57.1 117.5,57.6 C118.4,59.3 118.3,61.3 117.6,63.1 C117.9,64.2 117.9,65.4 117.4,66.5 C118.2,67.6 118.7,69.1 118.5,70.5 C118.4,72.2 117.7,73.6 116.5,74.7 C116.8,77 115.9,79.4 114.2,81 C114.5,82.3 114.3,83.7 113.5,85 C113,85.9 112.3,86.6 111.5,87 C111.5,87.8 111.4,88.6 111.2,89.3 C110.8,90.4 110.2,91.4 109.5,92.2 C109.9,95.1 108.2,98.4 105.1,99.2 C104.8,99.3 104.5,99.3 104.3,99.3 C104,102.1 103.3,104.9 102.3,107.6 C99.6,114.3 94.8,120.2 88.5,123.9 C85.4,125.8 81.9,127 78.3,127.5 C75.8,127.9 73.3,127.8 70.7,127.5 C67.5,127.2 64.2,126.7 61.1,125.9 L60.6,125.8 C59.3,125.4 57.9,125 56.8,124.3 C55.5,123.5 54.9,122.3 54.6,120.9 C54.4,120.1 54.9,119.2 55.8,119.2 L55.8,119.2 C56,119.2 56.2,119.2 56.4,119.2 L56.6,119.2 L56.6,119.2 C56.6,119.2 56.6,119.2 56.6,119.2 C56.7,119.2 56.8,119.2 56.8,119.2 C57.8,119 58.6,119.2 59.5,119.5 L59.6,119.5 C61.2,120 62.7,120.5 64.2,120.9 C65.8,121.2 67.5,121.5 69.1,121.7 L69.3,121.8 L69.3,121.8 L69.4,121.8 L69.4,121.8 C69.4,121.8 69.4,121.8 69.4,121.8 L69.9,121.8 L69.9,121.8 C70.2,121.9 70.6,121.9 71,122 C71.7,122 72.4,122.1 73.1,122.1 C85.2,122.8 95.4,113.3 98.5,101.9 C99.6,97.7 99.7,93.6 99.3,89.5 C99.2,89.2 99.2,88.8 99.2,88.5 C99.2,88.3 99.2,88.1 99.2,87.9 C98.8,83.9 98.1,79.9 97.6,75.9 C97.1,71.2 96.8,66.5 96.9,61.8 C97,59.5 97.2,57.2 97.6,54.9 L97.7,54.1 L97.7,54.1 C96.2,53.8 94.8,53.1 93.7,52.1 C91.4,53.4 88.3,53.5 86,52.1 C83.4,53.7 79.7,53.9 77.1,52.3 C75.5,53.4 73.5,53.9 71.5,53.5 C70.6,53.3 69.7,52.9 69,52.3 C68.4,52.4 67.9,52.4 67.3,52.4 L67.2,52.5 L67.2,52.5 C66,53.1 64.6,53.5 63.2,53.5 C62.1,53.5 61,53.3 60,52.9 C58.9,53.5 57.8,54 56.5,54.1 C54.7,54.3 52.7,53.9 51.1,52.9 C48.3,54.5 44.9,54.7 41.9,53.7 C41.3,54.7 40.4,55.6 39.4,56.3 C39.6,56.9 39.7,57.6 39.6,58.3 C39.5,59.4 39.2,60.3 38.8,61.2 C39.2,62.2 39.4,63.4 39.1,64.6 C38.7,66.3 37.7,67.8 36.5,68.9 C36.3,71.7 34.8,74.2 32.4,75.7 C32.3,75.7 32.2,75.8 32,75.8 C31.9,76 31.8,76.1 31.7,76.2 C30.1,77.7 27.6,77.5 25.7,76.7 C25.7,76.7 25.6,76.7 25.6,76.7 C24.9,76.8 24.4,76.5 24.1,76.1 C23.8,76.1 23.6,76.1 23.3,76.2 C22.3,76.4 21.1,76.7 20.2,77.2 C17.8,78.5 16.6,80.7 16.3,83.3 C15.9,86.2 16.8,89.2 19,91.1 C20.1,92.1 21.5,92.7 22.9,92.9 C24.5,93.2 26.1,92.5 27.3,93.9 C27.5,94.1 27.7,94.5 27.5,94.8 C27.2,96 26.5,96.4 25.5,96.5 C27,98.3 28.5,99.9 30.1,101.5 C31.9,103.2 33.7,104.8 35.4,106.6 C37.1,108.6 38.6,110.7 39.7,113.1 C40.3,114.4 40.8,115.8 41.3,117.2 L41.4,117.5 C42,119 42.8,120.4 41.9,122 C41.5,122.6 40.7,123.2 39.9,123.1 C37.8,122.8 37.1,121.4 36.5,119.5 C36,118.1 35.6,116.6 35.1,115.3 C35,115 34.9,114.7 34.8,114.5 C33.5,114.8 32.2,114.6 31.1,113.9 C29.9,114.4 28.6,114.6 27.4,114.6 C25.7,114.6 24.2,114.1 22.9,113.3 C22.8,113.3 22.7,113.2 22.6,113.2 C20.6,114 18.2,113.8 16.4,112.6 C15.3,111.8 14.5,110.7 14,109.5 C12.5,109.5 11,109 9.9,107.9 C8.9,106.9 8.4,105.6 8.2,104.3 C6.9,104.1 5.7,103.4 4.7,102.4 C3.9,101.5 3.4,100.4 3.3,99.2 C1.7,98.8 0.2,97.7 -0.5,96.3 C-1.3,94.9 -1.4,93.5 -1,92.2 L-1.1,92 L-1.1,92 C-2.7,91.2 -4,89.8 -4.1,87.8 C-4.1,87.2 -4.1,86.7 -3.9,86.1 C-4,85.5 -3.9,84.9 -3.8,84.3 C-6,82.2 -6.8,78.8 -5.6,76 C-7.7,73.7 -8.3,70 -6.7,67.3 C-7.8,66 -8.4,64.3 -8.3,62.5 C-8.1,60.3 -7.1,58.4 -5.9,56.6 C-6.8,55.6 -7.3,54.2 -7.3,52.9 C-7.2,50.9 -6.2,49.3 -4.9,47.9 C-6,44.4 -4.8,40.7 -2,38.6 C-2.5,37.6 -2.7,36.5 -2.6,35.3 C-2.2,33.3 -0.7,31.9 0.9,30.8 C0.6,29.7 0.7,28.5 1.2,27.4 C1.9,25.8 3.3,24.8 4.8,24 C5.1,20.6 9,17.7 12.2,19.4 C11.4,16.9 13.7,14.2 16.3,13.9 C17.6,10 22,7.5 26,8.5 C28.1,5.7 31.9,4.6 35.1,5.8 C38.6,3.1 43.1,2.7 47.2,4.1 Z M21.9,80.7 C24.4,80.5 26.3,82.6 27.6,84.4 C28.8,86.2 25.7,88 24.7,86.1 C24.4,85.4 24,84.7 23.5,84.1 C23.4,84.2 23.4,84.3 23.3,84.4 L23.2,84.6 C23.2,84.7 23.1,84.8 23.1,84.9 C23.1,84.9 23,85.1 23,85.1 C22.8,85.7 22.3,86.1 21.7,86.4 C20.9,86.6 20.2,86 19.9,85.3 C19.5,84.2 20.5,83.3 21.4,82.8 C20.5,82.7 19.5,83 18.8,83.7 C18.7,83.8 18.6,83.7 18.6,83.6 C18.5,81.9 20.3,80.8 21.9,80.7 Z" id="🖍-Ink" fill="currentColor"></path></g><g id="face/Calm" transform="translate(39.9, 46.6)" fill="currentColor"><path d="M42.9,60.1 C41,60.7 39.1,60.7 37.2,60.2 C35.5,59.7 33.7,58.6 32.5,57.1 C31.3,55.8 30.6,54.2 30.6,52.6 C30.7,52.4 30.7,52.2 30.8,52.1 C30.9,51.9 31.1,51.9 31.3,51.8 C31.4,51.8 31.6,51.8 31.8,51.9 C31.9,51.9 32.1,52 32.1,52.2 C32.3,52.5 32.5,52.7 32.7,52.9 C34.3,54.9 35.8,56.3 38.1,56.8 C39.4,57.1 40.6,57 41.8,56.5 C43,56.1 44.2,55.3 45,54.3 C45.4,53.8 45.9,53.6 46.4,53.6 C46.9,53.6 47.4,53.8 47.8,54.2 C48.2,54.6 48.4,55.1 48.4,55.7 C48.5,56.1 48.3,56.6 47.9,57.1 C46.5,58.5 44.8,59.6 42.9,60.1 Z M42.8,36.1 C44.7,37.3 47.6,40 45.6,42.8 C43.2,45.3 39.7,42.5 38,41.2 C36.4,40.1 34.7,42.7 36.1,43.9 C48.4,53 53.4,36.5 43.8,34.8 C42.7,34.6 42.3,35.8 42.8,36.1 Z M25.1,31.1 C24.5,30.7 23.8,30.6 23,30.9 C22.4,31.2 21.3,32.2 20.5,33.4 C20,34.2 19.7,35.2 19.7,36.3 C19.7,36.5 19.7,36.7 19.5,36.8 C19.4,36.9 19.2,37 19.1,37 C18.9,37 18.7,37 18.6,37 C18.3,36.9 18.2,36.7 18.1,36.5 C17.6,35.1 17.8,33.6 18.4,32.2 C19.2,30.2 20.7,28.7 21.6,28.1 C23.2,27.3 25.2,27.2 26.8,28.1 C28.2,28.9 29.1,30.1 29.9,31.4 C30.1,31.6 30.3,31.9 30.5,32.2 C30.9,32.7 30.9,33.2 30.7,33.7 C30.6,34.1 30.2,34.6 29.7,34.8 C29.2,35 28.6,35 28.1,34.8 C27.7,34.6 27.3,34.3 27.1,33.7 C26.7,32.7 26,31.7 25.1,31.1 L25.1,31.1 Z M56,33.3 C55.6,33.5 55.3,33.5 54.8,33.4 C54.6,33.3 54.3,33.2 54.1,33 C53.9,32.8 53.8,32.5 53.7,32.3 C53.6,31.6 53.2,31 52.7,30.6 C52.3,30.2 51.7,30 51.1,30.1 C50.4,30.3 49.8,30.7 49.3,31.2 C49.2,31.4 49.1,31.6 48.9,31.7 C48.7,32.1 48.5,32.4 48.2,32.7 C48.1,32.8 47.9,32.9 47.8,32.9 C47.7,32.9 47.6,32.9 47.6,32.8 C46.9,32.2 46.8,31.7 46.8,31.2 C46.8,30.6 47,30.1 47.4,29.6 C48.1,28.4 49.7,27.5 50.7,27.2 C52.1,26.9 53.4,27.3 54.5,28.1 C55.7,28.9 56.5,30.1 56.8,31.5 C56.8,31.8 56.8,32.2 56.7,32.5 C56.6,32.8 56.4,33.1 56,33.3 Z M28.2,18.6 C27.4,19.4 26.4,19.5 25.4,19.6 C24.8,19.7 24.4,19.8 23.9,19.9 C22.7,20.1 21.6,20.5 20.5,21.1 C19.3,21.7 18.1,22.5 17.2,23.4 C17,23.6 16.8,23.9 16.6,24.1 C16.4,24.3 16.3,24.5 16.1,24.7 C15.9,25 15.7,25.2 15.5,25.4 C15.3,25.6 15.3,25.7 15.3,25.7 C15.3,25.8 15.2,25.9 15.2,26 C15.1,26.1 15,26.3 14.9,26.4 C14.8,26.6 14.7,26.7 14.7,26.7 C14.5,26.8 14.4,26.8 14.3,26.8 C14.3,26.8 14.2,26.7 14.1,26.7 C13.7,26.3 13.5,25.7 13.5,25.1 C13.6,24.1 13.9,23.1 14.2,22.4 C15,20.9 16,19.3 17.3,18.2 C18.7,16.9 20.3,15.9 22.1,15.3 C23.2,14.9 24.5,14.5 25.8,14.5 C26.7,14.6 27.5,14.8 28.2,15.5 C28.6,15.9 28.8,16.4 28.8,17 C28.8,17.6 28.6,18.2 28.2,18.6 Z M57.7,26 C57.7,26.1 57.6,26.2 57.5,26.2 C57.4,26.2 57.3,26.3 57.2,26.2 C57.2,26.2 57.1,26.2 57,26.1 C56.9,26.1 56.9,26 56.9,25.9 C56.3,23.4 55.2,21.6 52.9,20.5 C51.8,19.9 50.5,19.5 49.3,19.3 C48.9,19.2 48.5,19.1 48.2,19.1 C47,18.9 45.8,18.7 45,17.7 C44.5,17.1 44.3,16.4 44.4,15.7 C44.6,15.1 44.9,14.5 45.6,14.2 C47.3,13.3 49.4,14.1 51.1,14.9 C51.2,14.9 51.3,15 51.5,15 C53.1,15.7 54.7,16.7 55.9,18 C56.9,19 57.8,20.6 58.2,22.2 C58.5,23.5 58.4,24.9 57.7,26 Z" id="🖍-Ink"></path></g><g id="facial-hair/*-None" transform="translate(30.8, 84.6)"></g><g id="accessories/*-None" transform="translate(11.8, 60.3)"></g></g></g></g></g></svg>