<svg viewBox="0 0 246 677" version="1.1" xmlns="http://www.w3.org/2000/svg" xmlns:xlink="http://www.w3.org/1999/xlink"><g id="Introduction" stroke="none" stroke-width="1" fill="none" fill-rule="evenodd"><g id="variations-standing" transform="translate(-3102, -904)"><g id="a-person/standing" transform="translate(3085, 854)"><g id="pose/standing/walking-3" transform="translate(-28.7, 150.3)"><path d="M287.9,562.6 C289.6,554.8 281.9,552.2 277.1,550.4 C273.6,548.2 260.9,540.5 251,530.9 C242.9,523.1 237.4,513.1 235.1,512.1 C233.5,511.2 232.6,510.4 232.5,509.7 C231,503.8 232.2,498.3 232.5,494.6 C237.1,493.4 240.8,491.9 243.5,489.8 C244.3,490.1 245.5,490.4 245.9,489.3 C248.4,472.6 249.5,456.2 251.5,439.6 C259.2,376.3 260,302.3 246.8,244.5 C246.7,241.6 246.9,239 247.2,236.5 C249,236.3 250.1,234.6 251.5,233.6 C253.8,231.8 256.5,230.4 256.4,227.3 C256.9,226.9 256.8,226.6 256.6,226.1 C258.3,218.7 250.6,210.9 248.4,204.8 C252.4,166.1 247,129.5 250,90.9 C253.8,89.3 251.2,79.4 251,75.3 C248.9,48.9 235.1,22.9 210.4,14.3 C209,14 206.9,12.4 205.7,13.4 C203.5,12.5 200.4,14.3 198.7,12.3 L198.7,12.3 C197.2,10.2 196.6,7.6 196.1,5.2 C196.2,5.9 196.3,6.6 196.5,7.2 C192.2,-4.8 191.1,-8 177.4,-8.5 C171.3,-8.6 163.1,-8.4 159.5,-2.5 C158,0.2 158.5,3.3 157.6,6.2 C155.9,11.5 148.6,8.9 144.8,11.7 C114.3,21.5 89.3,41.4 81.1,73.4 C79.4,77.2 77.5,81.1 76.1,85 C75.8,85.6 75.3,87.6 76.7,88.6 L77.4,89 C68.2,131.7 67.6,167.7 98.4,196.2 C100.7,208.4 94.8,225.1 97,237 C95.7,238.8 97.4,240.3 99,240.4 C99.2,240.5 99.9,240.8 100,240.9 C97.4,278.2 108.5,328.4 113.4,348.2 C114.1,360.2 110,369.9 101.6,376.4 C92.4,382.1 74.1,407.8 77.4,434.8 C73.5,435.5 69.5,436 65.7,437.5 C49.1,434.5 49.3,466.5 48.2,477.8 C46.4,496.6 45.3,524 63.2,536 C68,539.5 77.5,543.5 82.5,538 C84.1,536.1 84.5,534.2 83.8,532.2 C91.9,520.8 89.8,505.8 90.5,492.4 C92.9,492.3 95.3,493.4 97.6,493 C99.9,490.9 91.4,491.5 90.5,491.4 C90.6,489.3 90.8,487.1 91,485 C92.3,485.3 94,485.9 95.3,486 C96.1,486.2 96.6,485.1 96.2,484.6 C95.2,483.6 92.6,483.8 91.2,483.6 C91.4,481.9 91.7,480.1 92,478.4 C93.8,478.3 95.6,479.4 97.3,479.2 C96,478.4 93.7,478.6 92.1,478.1 C93.1,472.6 95.2,467.5 97.1,462.4 C101.7,464.3 105.7,464.4 110.2,463.8 C112.1,464.1 113,463.7 113.3,461.4 L113.2,461.2 C116.8,439.8 128.4,419.3 149.9,396.1 C154.2,391.3 159,385.7 162.2,379.5 C168.7,366.4 169.8,352.1 174.7,338.5 C179.4,324.9 185.7,311.9 191.6,299 C192.5,305.6 193.7,312.4 194.9,318.9 C200.3,341.9 199.7,366.3 195.8,389.4 C190,421.8 192.8,454.2 191.5,486.8 C191.5,488.7 191.7,490.4 191.4,492.3 C191.4,492.5 191.5,492.7 191.7,492.7 L192,492.7 C194.8,494.7 198.7,495.1 202,496.2 C203.4,497.3 203,499 203.1,500.4 C203.5,506.2 203.9,512 203.3,518 C200.8,522.9 197.6,521.9 197,528.8 C196.4,536.6 195.4,544.9 199.3,551.9 L197.8,552.1 C195.7,556.6 197,559.5 202,561.4 C226.9,571.2 261.9,580 287.9,572.7 C288.4,573.1 289.1,572.7 289.6,571.9 C290.1,571.2 290.5,570.3 290.4,569.7 C290,567.4 290.6,563 287.9,562.6 Z" id="🎨-Background" fill="#FFFFFF"></path><path d="M289,570.4 C266.6,580.4 226,567.7 204,560.4 C198.1,558.3 196.1,557.9 197.8,551.1 C200.9,557 207.6,558.5 214,559.7 C235.6,564.6 257.7,573.7 280.9,569.3 C284.3,568.7 287.7,566.9 288.7,563.5 C289.3,564.9 288.9,566.9 289.2,568.5 C289.2,569.1 289.2,569.8 289,570.4 M198.5,533.1 C198.9,529.1 199.6,524.8 201.8,521.3 C201.6,527 205.1,536.8 212.6,533.5 C214.8,532.4 216,530.1 217.4,528.3 C221.9,522.2 227.8,517 234.5,513.2 C238.2,513.8 239.7,520.6 242.1,523.4 C239.5,524.6 234.7,527.3 234.2,530 C237.5,528.9 240.5,526.9 244,526.1 C245.1,527.7 246.3,529.1 247.6,530.6 C245.9,531.3 239.4,534.6 239.4,536.2 C243,535.7 246.4,533.9 249.9,533.2 C251.5,534.8 253,536.5 254.5,538 C252.2,539 249.7,540.1 248.4,542.4 C248.3,542.5 248.4,542.6 248.5,542.5 C250.3,540.4 253.4,540 256,539.5 C260.1,543.3 264.7,546.7 269.8,549.2 C274.9,552 282.6,552.6 284.6,558.7 C286.3,564.7 281.2,565.4 276.5,565.8 C271.8,566.5 267,566.6 262.3,566.2 C247.7,565.6 233.8,561.2 219.9,557.5 C202.9,554.4 197.4,551.8 198.5,533.1 M230.9,511.3 C224.4,516 218,521.4 213.5,528.1 C210.5,533.5 206.6,530.2 205.6,525.9 C204.8,516.1 205.5,507.7 204.5,497.9 C213.5,499.1 222.8,498.4 231.5,496.2 C230.5,500.6 230,502.3 230,506.7 C230,508.2 230,510 230.9,511.3 M198.4,226.3 C197.6,226.6 197.2,225.2 198.1,224.9 C198.7,224.7 199.2,224.5 199.8,224.3 C199.9,224.2 200.1,224 200.3,224 C207.3,221.4 215.1,221.7 222.4,222.3 C226.3,222.6 230.2,223 234.1,223.7 C237.8,224.4 241.5,225.2 245.2,225.8 C246,225.9 246.7,226 247.5,226.1 C248.4,226.2 248.4,227.6 247.5,227.5 C247.3,227.5 247.2,227.5 247,227.5 C246.9,227.5 246.8,227.5 246.6,227.5 C246.1,227.4 245.5,227.3 244.9,227.2 C242.4,226.9 239.8,226.5 237.3,226.2 C230.6,225.2 224,224.2 217.2,224 C210.9,223.7 204.4,224.1 198.4,226.3 M246.4,91.3 C244.8,112.5 245.2,131.5 245.6,152.8 C245.8,167.2 245.8,181.5 245.3,195.8 C232.7,163.2 236.6,127.8 234.8,93.6 C238.5,92.3 242.5,91.8 246.4,91.3 M181.9,248.5 C183,250.8 185,252.6 187.4,253.7 C187.1,254.3 187,255 187,255.6 C182.7,256.4 183.9,258.4 181,259.4 C179.2,259.9 177.4,260.1 175.7,261.3 C170.2,266.4 168.9,266 163,261.5 C163,261.1 155,253.2 152.5,248.9 C150.4,245.2 148.2,241.5 145,238.7 C129.5,222.7 112.8,207.7 97.7,191.3 C67.5,161.2 73.3,127.1 80.2,89.5 C91.4,90.9 102.7,93.6 112.8,98.5 C109.2,115.1 109,130.1 107.5,146.9 C107,149 107.5,153 110.5,152.1 C137.6,173.6 140.8,217.8 176.4,230.6 C191,236.5 184.8,241.3 189.6,252.4 C187,251.9 184.6,249.7 183.5,247.6 C182.9,246.6 181.3,247.5 181.9,248.5 M114.8,235.2 C113.9,235.3 113.1,235.4 112.2,235.4 C112.1,235.5 112,235.6 111.8,235.6 C110.4,235.8 109,236 107.7,236.3 C105.6,237 103.5,237.7 101.5,238.4 C101.3,238.4 101.1,238.5 100.9,238.6 C100.8,238.7 100.6,238.7 100.5,238.7 C100.4,238.7 100.3,238.7 100.3,238.8 C100.3,238.8 100.3,238.8 100.2,238.8 C100.2,238.8 100.1,238.8 100.1,238.8 C100,238.8 99.9,238.8 99.7,238.8 C99.7,238.7 99.7,238.6 99.7,238.6 C99.1,238.6 98.6,237.9 99.1,237.4 C101.1,235.6 103.8,235 106.4,234.6 C109.2,234.2 112,234.1 114.8,233.8 C115.7,233.6 115.7,235.1 114.8,235.2 M89.2,476.9 C86.7,476.7 76,476.3 74.7,478 C76.2,478.6 78.2,478.3 79.7,478.3 C82.7,478.5 85.7,478.7 88.7,479.1 C88.5,480.3 88.3,481.5 88.1,482.6 C85.1,482.9 79.3,483 77.3,485.1 C80.8,485.7 84.3,485.2 87.7,485.9 C87.6,487.5 87.4,489.1 87.3,490.7 C86,490.8 78,492.1 78,493.4 C81,493.8 84.2,493.3 87.2,493.6 C86.6,503.1 88.8,532 75.7,533.8 C64.3,533.2 59.2,514.6 57.7,505.8 C54.2,485.1 54.8,463 61.7,443.1 C64.1,437.5 70.8,436.6 76.4,436.3 C76.6,437.2 76.8,438.1 77,439.1 C74.6,444.6 73.8,450.8 73.8,456.7 C74.3,465.3 84.9,471.7 92.6,466 C91.1,469.5 90,473.2 89.2,476.9 M74,538.6 C51.4,533.7 47.7,507.5 49.2,488.2 C50.5,474.8 49,446.6 61.4,438.7 C45.3,453.3 46.7,552.7 82.3,535.4 C81.4,538.2 76.8,539 74,538.6 M78.5,445.1 C78.5,444.7 78.6,444.4 78.6,444.1 C81.1,450.9 85.4,457.4 91.9,461.3 C89.4,464.4 84.6,465.3 81.4,462.8 C75.8,458.6 78.1,450.9 78.5,445.1 M155.8,9.5 C155.7,9.6 155.7,9.6 155.6,9.7 C155.3,9.7 155,9.8 154.7,9.8 C155,9.7 155.4,9.6 155.8,9.5 M291.2,566.2 C291.1,564.5 291.1,562.3 289.1,561.7 C290,554.4 283.9,550.3 277.5,548.2 C272.1,544.9 265.9,542.6 260.9,538.6 C263.2,538.1 265.6,537.6 267.6,536.6 C269.2,535.8 268.4,533.3 266.7,533.5 C263.7,533.9 261.1,535.5 258.3,536.5 C256.7,535.2 255.1,533.8 253.6,532.4 C255.5,532 257.8,532.2 258.8,530.4 C259.2,529.8 259,529.2 258.6,528.8 C256.8,526.9 253.1,528.8 250.8,529.3 C249.7,528.1 248.7,526.8 247.6,525.5 C249.4,525.3 253.9,525.6 253,522.8 C251.3,520.5 247.7,521.9 245.2,522.3 C242.1,518.5 241.1,512.7 236.3,510.6 C236.1,509.7 234.9,509.8 234.1,510 C232.9,504.4 233,501.5 233.4,495.7 C236.9,494.7 240.5,493.4 243.5,491.3 C244.9,491.7 246.5,491.2 246.8,489.6 C249.3,473.1 250.4,456.5 252.4,439.9 C259.8,379 261.4,304.7 247.8,244.5 C247.7,242.2 247.8,239.9 248,237.7 C249.7,237.2 250.6,235.6 252,234.7 C254.5,232.7 257,231.5 257.3,228 C257.8,227.5 257.8,226.8 257.6,226.1 C258.2,222.5 257.3,218.9 255.3,215.7 C253.2,212.1 251.2,208.5 249.4,204.7 C253.3,166.8 248,129.9 250.9,91.8 C254.6,89.8 252.3,79 251.9,75.3 C249.8,51.6 238.6,25.3 215,15.4 C213.3,14 211,13.5 209,12.8 C207.6,12.1 205.4,11.5 204.4,13.1 C203.4,12.6 200.2,12.3 199.1,11.4 C198.9,11.3 198.8,11.1 198.8,11 C198.7,11 198.6,10.9 198.5,10.9 C197.5,9.5 196.5,-0.4 195.3,0.3 C193.9,3.7 194.8,7.5 196.1,11 C197,14 198.3,21.9 203,19.9 C203.9,19.5 203.4,18.4 202.6,18.3 C200.4,17.7 199.9,14.3 199,12.4 C200,13.3 204.7,14.5 205.2,14.8 C215.5,38.3 153.6,37 148.8,20.9 C145.3,15.3 148.3,12.3 154.5,11.4 C149.9,16.4 155.7,17.5 157.9,12.6 C160,9 160.9,4.7 160.2,0.7 C160.6,-0.8 160.9,-2.7 158.7,-2.3 C158.7,-2.5 158.5,-2.3 158.6,-2.2 C157.8,-0.9 158.3,0.8 158.1,2.3 C157.8,4.6 157.2,6.9 156,9 C153.9,9.4 151.8,9.8 149.8,10.3 C148.5,7.8 140.4,12.8 138.2,13.4 C109.3,21.9 87.3,44.6 79.7,73.2 C78,77.1 76.1,80.9 74.7,84.8 C74.1,86.5 74.1,88.6 75.8,89.7 C67.4,128.1 65.4,168.2 97.1,197 C97.8,200.1 97.3,203.4 97.3,206.6 C97.5,212.2 93.8,228.6 95.5,237 C95.4,237.4 95.2,237.8 95.2,238.2 C94.9,240.1 96.5,241.4 98.3,241.7 C98.3,241.7 98.4,241.7 98.4,241.7 C98.5,241.8 98.5,241.8 98.6,241.8 C96.5,273.9 104.3,317.6 112,348.6 C112.5,359.3 109.3,368.9 100.7,375.7 C84.2,387.9 77.3,408.5 75.3,428 C75.1,430 75.3,432 75.8,434 C72.2,434.7 68.9,435.1 65.4,436.4 C46.3,432.8 47.7,473.7 46.2,485.9 C45,503.9 45.8,525.4 62.3,537.2 C67.9,541.1 77.7,544.9 83.1,538.9 C84.7,537.1 85.5,535 84.9,532.6 C92.7,521.3 90.8,506.7 91.4,493.8 C93.4,493.9 95.7,494.8 97.7,494.3 C99.2,493.9 99.4,491.9 98.1,491.1 C96.2,490.1 93.7,490.5 91.5,490.4 C91.6,489.2 91.7,487.9 91.8,486.7 C93.8,487.2 96.7,488.3 97.3,485.6 C97.5,483 94.3,482.8 92.3,482.7 C92.4,481.7 92.6,480.8 92.8,479.8 C94.3,480 95.9,481 97.4,480.5 C98.3,480.2 98.6,479.3 98,478.6 C96.8,477.5 94.8,477.7 93.3,477.3 C94.2,472.8 95.9,468.4 97.5,464.1 C100.5,465.1 103.7,465.7 106.8,465.5 C108.4,465.1 110.2,465.1 111.8,465.3 C113.7,464.8 114.1,462.8 114.3,461.2 C114.3,461.2 114.3,461.1 114.2,461.1 C118.4,436.5 133.6,415.3 150.6,397 C155.3,391.8 159.9,386.4 163,380.2 C169.5,367.2 170.7,352.6 175.6,339.1 C179.8,326.9 185.3,315.1 190.8,303.4 C193,318.8 197.1,334.1 197.5,349.8 C198.2,369.6 193.9,389.2 192,408.9 C188.6,434.9 191.7,461 190,486.9 C190.1,488.8 190.3,490.5 190,492.3 C189.9,493.4 190.6,494 191.4,494 C194.2,495.9 197.8,496.5 201,497.3 C201.9,498 201.5,499.7 201.7,500.7 C202,506.6 202.5,510.9 201.9,516.8 C198.8,521.5 196.5,520.8 195.6,527.9 C195.1,535.3 194,543.4 197.3,550.1 C195.8,550.5 195.3,554.9 195.5,556.1 C195.9,559.4 198.8,560.4 201.6,561.6 C222.3,569.3 266.3,582 287.5,573.3 C289,574.1 290.7,572.5 291.2,571.1 C291.9,569.5 291.3,567.9 291.2,566.2" id="🖍-Ink" fill="currentColor"></path></g><g id="Head" stroke-width="1" transform="translate(95.9, 42.7)"><g id="head/Long"><path d="M102.6,64 C101.7,49.3 96.9,32.5 82.8,25.3 C51.7,12.9 10.8,44.2 8.6,76.3 C7.9,87.2 14,99.2 25.1,102.3 C27.6,105.6 31.3,107.6 35,109.3 C79.1,132.1 107.6,113.6 102.6,64 L102.6,64 Z" id="🎨-Background" fill="#FFFFFF"></path><path d="M112.6,54.8 C111.1,50.5 109.4,46.2 107.7,42 C106,37.8 104.5,33.6 102.4,29.7 C89.9,6.1 67.1,6.1 55.4,9.2 C49.3,6.6 37.9,7.3 31.5,9.7 C21.2,13.5 8.7,28.6 4.4,35.3 C-5,50.3 -10.9,70.2 -4.7,87.4 C-3.8,89.7 -2.8,91.8 -1.6,93.8 C-2.3,94.8 -3.2,95.8 -4.2,96.7 C-7,99.5 -9.8,102.2 -12.2,105.3 C-14.6,108.4 -16.6,111.7 -18.1,115.4 C-20.9,122.3 -21.1,130.1 -17.3,136.6 C-14.1,142.3 -8.4,146.6 -1.9,147 C-1.6,147.1 -1.3,147.1 -0.9,147.1 C-0.1,148.5 1,149.8 2.1,151 C5.8,154.4 14.5,156.2 19.4,156.3 C19.7,156.5 20,156.7 20.2,156.9 C23.2,159.3 26.4,161.7 29.9,163.4 C32.3,164.5 35.4,165.5 37.8,164.7 C38.9,165.4 40.8,165.3 41.9,164.7 C43.7,163.7 45.2,161.9 46.1,160 C48.3,155.5 47.7,150.6 47.2,145.8 C46.5,140.6 46,135.3 45.4,130 C44.9,125.9 44.4,121.7 43.1,117.7 C42.5,115.6 41.6,113.6 40.5,111.8 C40.5,111.6 40.5,111.5 40.5,111.3 C40.1,110.2 39.4,109.5 38.5,108.7 C38.4,108.6 38.3,108.5 38.2,108.4 C37.7,107.9 37.3,107.5 36.7,107.1 C36.6,106.9 36.4,106.7 36.2,106.5 C34.6,104.8 33.1,103 31.7,101.2 C30.4,99.3 29.2,97.4 28.1,95.5 C27,93.5 26.2,91.3 25.1,89.4 C25,89.2 24.8,89.2 24.6,89.3 C24.3,89.7 24,90.1 24.1,90.5 L23.9,90.5 C23.8,89.9 23.2,89.4 22.4,89.5 C21.2,89.7 20.3,89.8 19.2,89.4 C19.4,88.2 19.6,87 19.7,85.8 C20,83.5 20.3,81.3 20.6,79 C21.1,79.2 21.7,79.4 22.3,79.6 C23.1,80 23.9,80.5 24.5,81.1 C25.2,81.7 25.6,82.5 26.4,82.9 C27.3,83.4 28.4,82.6 28.2,81.5 C27.6,79.5 24.6,78.3 22.7,77.9 C22,77.8 21.4,77.7 20.7,77.7 C20.8,76.3 21,74.8 21.1,73.4 C21.1,72.7 21.2,72 21.2,71.3 C22.7,70.9 24.3,70.8 25.8,71 C26.3,71.4 26.8,71.8 27.3,72.2 C28.8,73.5 30.4,74.7 31.9,76 C32,76.2 32.2,76.3 32.3,76.4 C33.2,77.2 34.3,76.4 34.2,75.3 C32.9,66.3 38.5,59.2 44.9,53.6 C52.1,47.5 65.1,46.8 73.6,36.1 C77.5,36.9 86.3,39.3 89.9,45 C94.9,53.1 94.3,60.3 94.6,69.4 C95,78.5 96,88.1 93.9,97.1 C92,105.4 86.8,112.5 78.8,115.7 C78.6,115.8 78.4,115.9 78.2,116 C74,117.5 69.5,118 65.1,117.2 C60.2,116.2 56.2,114 52.2,111.3 C51.9,111.1 51.6,111.5 51.8,111.7 C57.1,118.7 67.5,121.1 75.8,119.2 C76.2,119.1 76.6,119 77,118.9 C75.1,124.2 75.5,130.1 77.9,135.3 C79.3,138.4 81.6,141.1 84.2,143.2 C87.2,145.5 90.9,147.4 93,150.7 C94.9,153.7 94.3,157.1 91.1,158.9 C90.2,159.3 89.9,160.7 90.7,161.3 C91.1,161.6 91.4,161.8 91.7,162.1 C93.5,163.4 98.5,166 99.3,166.1 C106.4,166.9 111.2,161.7 114.3,155.5 C117.9,148.3 117,139.4 113,132.5 C109.8,127 103.5,121.5 106,114.5 C106.9,112 108.7,109.9 110.5,107.9 C112.5,105.7 114.7,103.7 116.6,101.4 C118.6,99.1 120.3,96.7 121.2,93.8 C122.6,89.7 121.9,85.2 120.9,81.1 C118.6,72.2 115.7,63.4 112.6,54.8 Z" id="🖍-Ink" fill="currentColor"></path></g><g id="face/Loving-Grin-1" transform="translate(37.8, 44.1)" fill="currentColor"><path d="M22.9,51.9 C22.9,49.3 25.2,48.8 27.3,49.2 C31,49.7 34.6,50.2 38.3,50.2 L39,50.2 L39,50.2 C39.1,50.1 39.2,50 39.5,50 C41.5,49.7 43.6,49.8 45.7,49.7 C47.5,49.7 49.3,49.5 51.1,49.6 L51.2,49.6 C53.4,49.8 55.8,51 55.5,53.5 C55.2,55.9 53,58 51.1,59.4 C50.8,59.6 50.4,59.9 50,60.1 C49.9,60.2 49.7,60.4 49.5,60.4 C47.7,61.3 45.7,61.9 43.7,62.1 C39.3,62.5 34.3,62.1 30.1,60.2 C28.8,59.6 27.5,58.8 26.4,57.9 C24.7,56.4 22.8,54.3 22.9,51.9 Z M40,57.1 C38.2,57 36.5,57.2 34.8,57.8 C33.7,58.1 32.7,58.8 31.6,59.3 C35.2,60.7 39.5,61 43.2,60.8 C44.8,60.6 46.4,60.3 47.9,59.6 C47.7,59.5 47.4,59.3 47.2,59.1 C46.4,58.7 45.7,58.3 44.9,58 C43.3,57.4 41.7,57.1 40,57.1 Z M40.6,34.2 C40.1,33.9 40.5,32.8 41.5,32.9 C50.6,34.5 45.9,50.2 34.2,41.6 C32.8,40.5 34.5,38 36,39 L36.5,39.4 C38.3,40.7 41.1,42.7 43.2,40.5 C45.1,37.8 42.4,35.3 40.6,34.2 Z M46.7,22.4 C48.7,20.7 51.1,21.9 52.5,23.6 L52.8,23.9 C53.1,24.2 53.4,24.6 53.6,25.1 C55.2,23.7 57.3,22.8 59.4,23.4 C61.3,24 62.5,25.9 62.1,27.9 C61.8,30.2 60,31.8 58.1,33 L57.6,33.3 C55.3,34.8 53.2,36.2 51.3,38.2 C51,38.5 50.4,38.5 50.2,38 L50,37.7 L50,37.7 L49.8,37.4 C48.5,34.5 47.1,31.7 45.9,28.9 C45.1,26.7 44.8,24 46.7,22.4 Z M24.6,23.8 L24.9,23.5 C26.4,21.9 28.8,20.8 30.7,22.4 C32.7,24.1 32.3,26.9 31.4,29 C30.3,31.7 29,34.2 27.8,36.8 L27.6,37.4 C27.5,37.6 27.3,37.8 27.2,38 C27,38.5 26.4,38.5 26.1,38.2 C24.3,36.3 22.2,34.9 20,33.5 L19.4,33 C17.5,31.8 15.7,30.3 15.3,27.9 C14.9,25.9 16,24 18,23.4 C20.1,22.8 22.2,23.7 23.8,25.1 C24,24.6 24.3,24.2 24.6,23.8 L24.6,23.8 Z M27.2,12 C27.9,12.9 27.2,14.4 26.2,14.6 C24.9,14.9 23.7,14.7 22.4,15.1 C21.3,15.4 20.2,16.1 19.3,16.7 C18.1,17.5 17.1,18.3 16.2,19.2 C15.6,19.8 14.9,21.1 14.1,21.2 C13.2,21.2 14.4,18.5 14.5,18.3 C15.1,16.7 16.1,15.2 17.3,13.8 C19.6,11.2 24.5,8.5 27.2,12 Z M53.2,11.3 L53.8,11.5 C55.3,11.9 56.8,12.3 58,13.2 L58.1,13.3 L58.3,13.4 C59.8,14.5 62,16.8 60.9,18.8 C60.8,19 60.7,19 60.5,18.9 C59.1,18.3 58,17 56.5,16.5 L56.2,16.4 C54.7,15.9 52.8,15.4 51.2,15.4 C50,15.8 48.5,15.5 48.2,14.1 L48.2,14 L48.2,13.9 C48,12.9 48.3,11.7 49.2,11.3 C50.6,10.6 51.9,10.9 53.2,11.3 Z" id="🖍-Ink"></path></g><g id="facial-hair/*-None" transform="translate(29.2, 80.1)"></g><g id="accessories/*-None" transform="translate(11.2, 57.1)"></g></g></g></g></g></svg>