<svg viewBox="0 0 346 510" version="1.1" xmlns="http://www.w3.org/2000/svg" xmlns:xlink="http://www.w3.org/1999/xlink"><g id="Introduction" stroke="none" stroke-width="1" fill="none" fill-rule="evenodd"><g id="variations-sitting" transform="translate(-355, -944)"><g id="a-person/sitting" transform="translate(331, 897)"><g id="pose/sitting/closed_legs-2" transform="translate(-20.3, 159.5)"><path d="M386.9,369 C379.3,358.2 363.2,356.4 352.9,348.8 C347.5,344.6 341.7,341.9 337.5,336.3 C344.2,328.4 335.9,309.9 334.2,299.3 C327.4,271.3 321.2,242.9 313.1,215 C327.1,219.4 323.4,193.4 321.4,187.4 C321.3,186.5 320.3,186.4 319.6,186.1 C319.8,184.9 320.3,184.7 318.8,184.3 C318.3,177.3 320.3,169.3 316.7,163.1 C312.6,156.3 302.9,150.6 294.8,150.5 C289.2,128 288.1,117.4 261.3,126.9 C261.9,124.8 262.1,122.7 261,120.5 C257,108.4 251.9,95 247.5,82.7 C242.4,68.5 237.2,53.8 230.4,40.2 C225.7,31.5 210.8,29.2 200.8,30.6 C198.4,26.4 192.4,14.7 184.7,17.4 C184.7,13.9 184.6,10.4 184.6,6.9 C184.5,3.8 184.9,0.7 183.7,-2.2 C182.4,-5.3 179.9,-6.9 176.9,-8.1 C167.9,-11.1 157.5,-15.9 148,-12.9 C139.6,-9.1 140.6,5.2 136.6,12.9 C130.9,4.6 121.3,10.2 119.3,19.1 C96.1,28.4 76.1,17.9 74.6,54.1 C75.9,60.8 77,67 76.4,73.6 L75.7,73.7 C69.8,105.8 67.5,140.3 68.9,176.1 C68.6,190.1 63.5,203.3 58.5,216 C54.8,225.4 51.1,235 49.3,245 C47.3,253.2 40,293 56.2,279.8 C56.8,325 97.2,330.8 133.5,320.8 C172.1,312.8 215.5,315.1 239.6,276.4 C247.7,290.3 250.6,298.9 252.6,313.5 C254.9,324.2 258.1,336.3 264.1,343.4 C259,352.7 256.4,364 256.7,371.4 C256.8,374.3 255.4,375.6 257.4,377.4 C266.5,386.1 286.9,386.2 302.5,390 C313.1,391.4 351.6,396.6 357.5,393.2 C361.6,394.3 356.8,383.7 360.9,383.4 C362.3,383.5 362.5,381.7 363.9,381.7 C373.1,382.2 393,384.9 388.2,377.4 L386.9,369 Z" id="🎨-Background" fill="#FFFFFF"></path><path d="M384.6,379.4 C377.8,380.9 370.8,380.5 363.9,381.1 C364.2,380.5 364.4,379.9 364.5,379.3 C371.6,378.5 379.1,378 385.8,375.7 C386,376.5 386.1,377.2 386.1,378 C386.2,378.1 386.1,379.3 386.3,379.1 C386.1,379.3 384.9,379.4 384.6,379.4 M350.3,361.9 C337.9,357.8 324.8,354.3 315.2,344.8 C324.1,341.6 330.4,345.7 338,337.5 C338.3,337.6 338.5,337.7 338.8,337.8 C346.9,351.6 364.3,354.2 377,362.2 C382.1,365.2 391.7,373.3 379.4,373.5 C374.6,374.2 369.7,374.7 364.9,375.1 C364.5,367.3 356.8,363.9 350.3,361.9 M358.9,381.8 C356.5,385.1 352,386.5 348,386.1 C345.1,385.7 342.5,384.7 339.4,384.9 C316.2,384 293.3,379.2 270.6,374.3 C250.3,370.5 265.8,355.5 264.1,343.4 C267,345.2 270.2,346.4 273.6,347.4 C277.9,359.4 289.7,356.2 298,350.5 C306.2,351.1 307.6,348.4 314.3,345.2 C321.5,358 337.5,360.9 350.2,365.8 C357.9,367.9 364.3,373.8 358.9,381.8 M358.5,392.5 C352,394.5 345.1,394.1 338.3,393.6 C316.2,391.7 294.3,387.9 272.8,382.2 C267.7,380.8 257.8,379.3 257.4,372.9 C261.9,378.8 270,379.5 276.8,381.1 C299.1,385.4 321.9,391.1 344.7,390 C349.5,391.3 354.8,390.3 358.9,387.6 C358.7,389.2 358.6,390.9 358.5,392.5 M288.9,349.9 C283.9,352 279.4,351.5 275.4,347.8 C279.9,348.9 284.3,349.4 288.9,349.9 M260.2,331.4 C258,325.9 255.7,309.5 254.6,303.7 C252.4,292.8 247.4,282.8 241.6,273.1 C229.6,253.2 213.9,234.5 211.6,212 C211.6,210.7 211.7,209.4 211.7,208.1 C211.8,205.3 212,202.4 211.5,199.7 C211.5,199.6 211.4,199.6 211.3,199.7 C210.3,202.4 210,205.6 209.6,208.4 C209.2,211.1 208.9,213.7 208.9,216.4 C208.9,218.9 209,221.5 209.6,224 C209.7,224.1 209.7,224.2 209.7,224.3 C209.4,225.3 209,226.3 208.6,227.2 C207.6,229.5 206.5,231.8 205.4,234 C203.2,238.5 200.9,243 198.7,247.5 C196.4,252.1 194.1,256.7 191.7,261.3 C191,262.7 190.3,264.1 189.6,265.6 C183.8,274.4 177.5,282.8 170.7,290.9 C164.8,297.3 159.5,304.9 151.4,308.8 C143.5,312.9 134.8,315.4 126.6,319 C94.4,324.6 65,324.6 56.9,280.4 C57.7,279.4 58.5,278.4 59.2,277.5 C63.2,272.6 67,267.5 70.9,262.5 C78.1,253 85.4,243.4 94.2,235.3 C111.9,220.2 131.5,206.8 144.5,187.1 C145.8,185.5 146.8,183.7 147.5,181.8 C156.2,185.3 166,186.1 175.4,186.5 C187.9,187 200.5,187.5 213,187.8 C216.5,192.8 227.4,193.3 232.6,194.1 C233.7,194.2 234.5,193.3 234.9,192.4 C235.7,189.9 236.6,187.4 237.6,184.9 C248.6,187 259.7,188.8 270.8,190.7 C271.6,191.4 271.9,192.2 272.2,193.3 C272.6,194.9 273,196.6 273.5,198.2 C274.3,201.3 275.3,204.4 276.1,207.5 C276.6,209.3 277.1,211.1 277.6,212.9 C287.2,253.6 300.8,298.7 310.5,337 C310.8,338.4 311.1,340.3 310.9,341.8 C309.1,343.1 307.3,344.2 305.4,345.1 C291.7,344.2 267,346.1 260.2,331.4 M164.7,312.1 C160.7,312.6 156.7,313.3 152.6,314 C156.1,312.4 159.5,310.4 162.2,307.5 C181.5,288 197.3,264.6 207.4,239 C208.8,235.6 210.2,232.1 211.4,228.6 C211.6,228.9 211.8,229.2 212.1,229.5 C216.8,245 227.5,259.1 236.4,273.7 C222.4,299.4 191.7,308 164.7,312.1 M54.8,282.5 C54.9,282.4 54.9,282.4 55,282.3 C55,282.4 55,282.5 55.1,282.6 C55,282.6 54.9,282.5 54.8,282.5 M123.6,46 C124.8,49.6 126.1,53.3 128,56.6 C131.2,54.6 133.8,51.8 137.1,49.9 C140.4,48 143.9,48.5 147.2,50.4 C148,50.9 147.3,52.2 146.4,51.7 C144.7,50.8 142.9,50 141,50.2 C139.4,50.3 138.1,51 136.8,51.9 C133.8,53.9 131.2,56.5 128.1,58.4 C127.8,58.6 127.3,58.4 127.1,58.1 C124.8,54.4 123.5,50.4 122.1,46.4 C121.8,45.5 123.3,45.1 123.6,46 M154.3,134 C155.1,134.6 154.3,135.9 153.5,135.3 C144.2,129.2 143.6,116.9 138.2,108.1 C137.6,107.2 139,106.5 139.5,107.3 C144.8,115.8 145.3,128.1 154.3,134 M186.4,69.9 C188.3,69.4 192.7,68.9 194.9,67.4 C200.3,86 207.7,103.9 215.4,121.6 C215.9,122.9 216.4,124.5 217.1,125.7 C213.4,126.8 209.9,128 207.2,129.2 C203.8,130.7 200.4,132.4 197.2,134.5 C194.4,136.1 191.8,137.9 189.2,139.9 C188.5,139.8 187.7,139.6 186.9,139.4 C184.3,138.9 181.7,138.3 179.1,137.4 C178.5,135.8 178.3,134 177.7,132.4 C176.7,128.9 175.8,125.5 174.8,122 C169.7,103.7 164.7,85.4 159.5,67.1 C167.7,70.9 177.5,71.4 186.4,69.9 M196.6,54.4 C197.3,51.4 198.7,47.7 202.4,47.8 C205.2,47.9 207.9,49.6 210.4,50.8 C210.3,49.9 209.6,49.1 209.1,48.3 C208.5,47.6 209.8,46.8 210.4,47.6 C211.4,49 212.3,50.4 211.8,52.1 C211.6,52.7 211.1,52.8 210.7,52.6 C208.2,51.5 205.7,49.9 203,49.4 C199.8,48.9 198.7,52.2 198.1,54.8 C197.8,55.8 196.3,55.4 196.6,54.4 M244.3,126.9 C247.7,127.6 249.3,130.6 251,133.3 C255.2,140 259.2,146.8 263.1,153.7 C264.1,155.6 265.2,157.5 266.2,159.3 C266.5,159.8 266.7,160.3 267,160.8 C260.7,160.2 254.6,159.3 248.7,157 C249.9,154.3 247.8,153.8 245.5,152.2 C243,150.6 240.3,149.2 237.5,148.4 C235.8,148 232,147.9 231.6,150 C231.4,149.5 230.9,148.9 230.3,148.7 C225.6,147.1 220.6,146.6 215.8,145.4 C207.7,143.7 199.6,142.1 191.4,140.4 C193.6,139 195.9,137.7 198.1,136.4 C205.2,132.9 212.8,130.1 220.6,128.4 C228.4,126.7 236.4,126.1 244.3,126.9 M226.4,72.1 C228.6,83.6 230.5,95.2 233.5,106.6 C233.8,107.6 232.3,108 232,107 C229,95.7 227.2,84 224.9,72.5 C224.8,71.5 226.2,71.1 226.4,72.1 M283.5,127 C290.3,133.3 289.9,143.9 292.8,152.2 C294.1,156.5 295.5,160.7 297.3,164.9 C297.3,165 297.3,165.1 297.4,165.2 C289.1,162.2 280.3,161.8 271.6,161.2 C271.5,160.9 271.4,160.6 271.3,160.4 C269.9,157.7 268.4,155 266.9,152.4 C263,145.4 258.9,138.5 254.6,131.8 C254.3,131.4 254.1,130.9 253.8,130.5 C262.8,127.6 275.5,122 283.5,127 M315.9,167.3 C316.7,171.1 316.2,175.2 315.9,179.1 C312.2,174.2 307.5,169.9 301.9,167.1 C301.5,164.6 300,162.5 299.3,160 C297.9,156.6 296.8,153.2 295.9,149.7 C304.9,151.5 313.7,158.1 315.9,167.3 M231.7,151 C231.7,151 231.7,150.9 231.7,150.8 C231.7,150.8 231.7,150.8 231.7,150.8 C231.9,150.5 232.2,150.4 232.5,150.2 C232.2,150.5 232,150.8 231.7,151 M233,184.1 C232.4,185.8 231.7,187.5 231.1,189.2 C227.9,188.6 221.1,187.4 218.3,185.9 C219.3,185.9 220.3,185.4 220.5,184.2 C220.7,183.7 220.8,183.2 221,182.7 C222.6,177.3 224.1,171.7 226.4,166.5 C228.7,160.9 231.5,155.6 233.6,150 C237.2,149.8 242.8,154.2 245.3,156 C240.8,165.1 236.8,174.5 233.1,184 C233,184 232.9,184 232.8,184 C232.9,184 233,184.1 233,184.1 M317.8,190 C318.1,191.4 318.4,192.7 318.5,194.1 C319,199.5 319.7,205.1 317.6,210.3 C316.3,213.4 313.7,210.9 312,209.7 C309.1,207.7 306.5,205.4 303.9,203.1 C295.9,195.6 286.5,189.2 275.3,188.1 C263.1,186.5 250,184.4 237.9,184.1 C241.2,175.3 244.8,166.7 248.3,158 C254.7,161.6 261.9,162.9 269.4,163.7 C269.5,163.8 269.7,163.9 269.9,163.9 C270.3,164 270.6,164 270.8,163.9 C280.7,164.9 290.8,165.3 299.5,169.4 C302.8,170.9 306,173 308.8,175.9 C312,178.9 314.5,182.5 316.2,186.5 C316.7,187.7 317,189 317.8,190 M331.7,305.8 C333.3,313.9 339.7,331.9 330,336.3 C325.7,338.7 320.2,337.3 315.9,339.5 C315.8,338.2 315.6,336.8 315.3,335.5 C302.7,294.7 291.2,241.2 276.6,200.3 C276.1,198.7 275.6,197 275.1,195.4 C274.7,194 274.4,192.5 273.8,191.3 C277.8,192 281.9,192.9 285.6,194.8 C293.4,198 304.2,211.7 312.4,215.8 C312.7,218.8 313.6,221.8 314.1,224.8 C319.8,251.8 325.9,278.8 331.7,305.8 M389.7,373.4 C389.5,372.7 389.2,372.3 388.7,372.1 C388.8,358.3 359.8,353.8 351,345.1 C347,342.2 344.1,337.5 339.4,335.8 C339.5,335.7 339.6,335.6 339.6,335.4 C344.6,327.3 336.8,307.5 335.4,299 C329,272.4 322.9,245.7 315.7,219.4 C315.5,218.9 315.3,217.9 314.9,216.8 C315.7,217 316.4,217 317.1,216.9 C327.2,214.7 325,194.3 322.6,186.9 C322.3,186.1 321.7,185.5 321,185.3 C321.1,184.8 321,184.3 320.7,183.9 C320.6,183.6 320.3,183.5 320,183.4 C319.7,176.4 321.4,168.8 317.8,162.4 C313.6,155.4 303.7,149.6 295.7,149.2 C294.6,145.1 293.6,140.9 292.5,136.8 C291.3,132.5 289.6,127.8 285.9,124.9 C281.2,120.7 271.2,122 262.9,125 C263.4,122.8 262.4,120.8 261.7,118.8 C259.7,112.7 257.5,106.6 255.4,100.6 C247.6,80.2 241.2,59.1 231.4,39.5 C227.4,32.9 219.6,29.9 212.2,29.3 C208.7,29 205,28.8 201.5,29.2 C201.3,29 201.2,28.8 201.1,28.6 C198.2,23.6 192.4,14.3 185.6,15.9 C184.9,11.1 184.9,6.3 185.5,1.5 C185.5,1.2 185,1 184.8,1.3 C180.3,11.3 181.2,23.7 186.6,33.2 C187,33.8 187.6,34.2 188.1,34.3 C189,44.2 191.2,54 193.9,63.7 C193.5,63.7 193.1,63.8 192.7,63.9 C184.2,67.1 174.8,67.6 165.9,65.7 C163.4,65.2 161,64.5 158.5,63.8 C158.1,62.2 157.6,60.6 157.1,59 C156,54 155.7,49.1 152.7,45.1 C152.5,44.8 152.4,44.5 152.2,44.2 C149.8,39.9 147.4,35.6 145,31.3 C144.4,30.6 140.4,22.9 137.4,18.2 C137.8,18.2 138.2,18.1 138.5,17.9 C140.7,16.8 140.7,13.7 141.1,11.6 C142.3,5 143.7,-1.5 144.1,-8.1 C144.1,-8.4 143.6,-8.6 143.4,-8.3 C140.5,-2.4 138.4,3.8 136.2,10 C136.2,10.1 136.2,10.2 136.1,10.4 C134.1,7.8 130.5,7.2 127.4,7.9 C122.2,9.2 119.6,13.4 118.1,18.2 C103.2,25.3 85.5,18.1 76.5,36.8 C74.2,42.3 73.2,48.1 73.3,54.3 C73.6,55.7 73.8,57.1 74.1,58.5 C74.6,61.9 74.9,65.3 75.5,68.6 C76.2,72.3 77.3,75.9 78.4,79.5 C81,87.3 84.3,94.9 87.6,102.4 C88,103.3 86.7,104.1 86.3,103.2 C84.5,99.1 82.6,94.9 80.9,90.7 C78.4,84.6 76.1,78.3 74.6,71.9 C68.2,106.2 66.2,141.2 67.5,176 C67,200.2 52.2,221.2 47.9,244.7 C45.8,253.9 44.5,263.4 44.7,272.9 C44.4,277.5 46.1,283.9 51.2,283.8 C52.1,284.1 53,284.4 53.9,284.7 C54.1,284.8 54.4,284.9 54.6,285 C54.8,285.1 55.1,285 55.3,285 C59.1,323.3 90,330.7 125.4,323.9 C126.9,323.9 128.3,323.6 129.8,323.1 C130.6,322.9 131.3,322.7 132.1,322.4 C132.6,322.3 133.2,322.2 133.8,322 C158,317.1 183.4,316.3 206.3,306.2 C219.5,300.4 232,291.4 239.5,278.9 C243.9,286.5 247.5,294.4 249.3,302.7 C250.6,308.7 252.9,325.3 254.6,331.2 C255.4,334.1 256.7,336.6 258.5,338.7 C258.5,338.7 258.5,338.7 258.5,338.7 C260,339.6 261.4,340.7 262.4,342.1 C261.3,351.8 251.3,361.2 256.4,371.4 C254,376.9 259.9,381.4 264.8,382.6 C272.2,384.9 279.9,386.7 287.5,388.4 C302.6,391.2 349.9,401.6 361.2,393.5 C361,391.8 363.2,386.2 360.6,386.1 C361.8,385 362.7,383.7 363.4,382.4 C370.3,384.6 378,383.8 385,383 C390.7,383.1 390.5,377.6 389.7,373.4" id="🖍-Ink" fill="currentColor"></path></g><g id="Head" stroke-width="1" transform="translate(86.5, 45.1)"><g id="head/Afro"><path d="M49,20.7 C87,18.8 104.2,45.6 105.3,57.5 C106,65.8 101.1,75.3 101.1,82.7 C101.1,86.5 105.8,94.6 103.6,100.1 C98.8,112.4 88.6,126 75.7,126 C62.7,126 45.9,129.6 31.6,109.1 C30.2,107.2 13.2,96.3 11.6,85.9 C7.5,60.1 21.9,22 49,20.7 Z" id="🎨-Background" fill="#FFFFFF"></path><path d="M47.2,4.1 C48.6,2.5 50.9,1.9 52.9,2 C55.9,2.2 58.4,4 61.4,4.2 C64.5,4.3 67.5,3.2 70.5,3.7 C72.4,4 74.3,4.9 75.5,6.4 C79.8,5.2 84.3,6.8 87,10.3 C90.3,9.7 93.9,11.9 94.9,15.1 C99.1,15.3 103.1,18.6 103.6,22.9 C105.3,23.3 106.7,24.5 107.6,26 C108.7,27.8 108.8,29.8 108.6,31.8 C110.6,32.8 111.6,35 111.9,37.3 C113.7,38.6 114.5,41 114.1,43.3 C115.5,44.1 116.2,45.9 116.2,47.5 C116.2,49 115.8,50.4 116.4,51.8 C116.9,53.1 117,54.2 116.8,55.6 L116.7,55.7 C116.7,55.9 116.6,56.1 116.6,56.3 C117,56.7 117.3,57.1 117.5,57.6 C118.4,59.3 118.3,61.3 117.6,63.1 C117.9,64.2 117.9,65.4 117.4,66.5 C118.2,67.6 118.7,69.1 118.5,70.5 C118.4,72.2 117.7,73.6 116.5,74.7 C116.8,77 115.9,79.4 114.2,81 C114.5,82.3 114.3,83.7 113.5,85 C113,85.9 112.3,86.6 111.5,87 C111.5,87.8 111.4,88.6 111.2,89.3 C110.8,90.4 110.2,91.4 109.5,92.2 C109.9,95.1 108.2,98.4 105.1,99.2 C104.8,99.3 104.5,99.3 104.3,99.3 C104,102.1 103.3,104.9 102.3,107.6 C99.6,114.3 94.8,120.2 88.5,123.9 C85.4,125.8 81.9,127 78.3,127.5 C75.8,127.9 73.3,127.8 70.7,127.5 C67.5,127.2 64.2,126.7 61.1,125.9 L60.6,125.8 C59.3,125.4 57.9,125 56.8,124.3 C55.5,123.5 54.9,122.3 54.6,120.9 C54.4,120.1 54.9,119.2 55.8,119.2 L55.8,119.2 C56,119.2 56.2,119.2 56.4,119.2 L56.6,119.2 L56.6,119.2 C56.6,119.2 56.6,119.2 56.6,119.2 C56.7,119.2 56.8,119.2 56.8,119.2 C57.8,119 58.6,119.2 59.5,119.5 L59.6,119.5 C61.2,120 62.7,120.5 64.2,120.9 C65.8,121.2 67.5,121.5 69.1,121.7 L69.3,121.8 L69.3,121.8 L69.4,121.8 L69.4,121.8 C69.4,121.8 69.4,121.8 69.4,121.8 L69.9,121.8 L69.9,121.8 C70.2,121.9 70.6,121.9 71,122 C71.7,122 72.4,122.1 73.1,122.1 C85.2,122.8 95.4,113.3 98.5,101.9 C99.6,97.7 99.7,93.6 99.3,89.5 C99.2,89.2 99.2,88.8 99.2,88.5 C99.2,88.3 99.2,88.1 99.2,87.9 C98.8,83.9 98.1,79.9 97.6,75.9 C97.1,71.2 96.8,66.5 96.9,61.8 C97,59.5 97.2,57.2 97.6,54.9 L97.7,54.1 L97.7,54.1 C96.2,53.8 94.8,53.1 93.7,52.1 C91.4,53.4 88.3,53.5 86,52.1 C83.4,53.7 79.7,53.9 77.1,52.3 C75.5,53.4 73.5,53.9 71.5,53.5 C70.6,53.3 69.7,52.9 69,52.3 C68.4,52.4 67.9,52.4 67.3,52.4 L67.2,52.5 L67.2,52.5 C66,53.1 64.6,53.5 63.2,53.5 C62.1,53.5 61,53.3 60,52.9 C58.9,53.5 57.8,54 56.5,54.1 C54.7,54.3 52.7,53.9 51.1,52.9 C48.3,54.5 44.9,54.7 41.9,53.7 C41.3,54.7 40.4,55.6 39.4,56.3 C39.6,56.9 39.7,57.6 39.6,58.3 C39.5,59.4 39.2,60.3 38.8,61.2 C39.2,62.2 39.4,63.4 39.1,64.6 C38.7,66.3 37.7,67.8 36.5,68.9 C36.3,71.7 34.8,74.2 32.4,75.7 C32.3,75.7 32.2,75.8 32,75.8 C31.9,76 31.8,76.1 31.7,76.2 C30.1,77.7 27.6,77.5 25.7,76.7 C25.7,76.7 25.6,76.7 25.6,76.7 C24.9,76.8 24.4,76.5 24.1,76.1 C23.8,76.1 23.6,76.1 23.3,76.2 C22.3,76.4 21.1,76.7 20.2,77.2 C17.8,78.5 16.6,80.7 16.3,83.3 C15.9,86.2 16.8,89.2 19,91.1 C20.1,92.1 21.5,92.7 22.9,92.9 C24.5,93.2 26.1,92.5 27.3,93.9 C27.5,94.1 27.7,94.5 27.5,94.8 C27.2,96 26.5,96.4 25.5,96.5 C27,98.3 28.5,99.9 30.1,101.5 C31.9,103.2 33.7,104.8 35.4,106.6 C37.1,108.6 38.6,110.7 39.7,113.1 C40.3,114.4 40.8,115.8 41.3,117.2 L41.4,117.5 C42,119 42.8,120.4 41.9,122 C41.5,122.6 40.7,123.2 39.9,123.1 C37.8,122.8 37.1,121.4 36.5,119.5 C36,118.1 35.6,116.6 35.1,115.3 C35,115 34.9,114.7 34.8,114.5 C33.5,114.8 32.2,114.6 31.1,113.9 C29.9,114.4 28.6,114.6 27.4,114.6 C25.7,114.6 24.2,114.1 22.9,113.3 C22.8,113.3 22.7,113.2 22.6,113.2 C20.6,114 18.2,113.8 16.4,112.6 C15.3,111.8 14.5,110.7 14,109.5 C12.5,109.5 11,109 9.9,107.9 C8.9,106.9 8.4,105.6 8.2,104.3 C6.9,104.1 5.7,103.4 4.7,102.4 C3.9,101.5 3.4,100.4 3.3,99.2 C1.7,98.8 0.2,97.7 -0.5,96.3 C-1.3,94.9 -1.4,93.5 -1,92.2 L-1.1,92 L-1.1,92 C-2.7,91.2 -4,89.8 -4.1,87.8 C-4.1,87.2 -4.1,86.7 -3.9,86.1 C-4,85.5 -3.9,84.9 -3.8,84.3 C-6,82.2 -6.8,78.8 -5.6,76 C-7.7,73.7 -8.3,70 -6.7,67.3 C-7.8,66 -8.4,64.3 -8.3,62.5 C-8.1,60.3 -7.1,58.4 -5.9,56.6 C-6.8,55.6 -7.3,54.2 -7.3,52.9 C-7.2,50.9 -6.2,49.3 -4.9,47.9 C-6,44.4 -4.8,40.7 -2,38.6 C-2.5,37.6 -2.7,36.5 -2.6,35.3 C-2.2,33.3 -0.7,31.9 0.9,30.8 C0.6,29.7 0.7,28.5 1.2,27.4 C1.9,25.8 3.3,24.8 4.8,24 C5.1,20.6 9,17.7 12.2,19.4 C11.4,16.9 13.7,14.2 16.3,13.9 C17.6,10 22,7.5 26,8.5 C28.1,5.7 31.9,4.6 35.1,5.8 C38.6,3.1 43.1,2.7 47.2,4.1 Z M21.9,80.7 C24.4,80.5 26.3,82.6 27.6,84.4 C28.8,86.2 25.7,88 24.7,86.1 C24.4,85.4 24,84.7 23.5,84.1 C23.4,84.2 23.4,84.3 23.3,84.4 L23.2,84.6 C23.2,84.7 23.1,84.8 23.1,84.9 C23.1,84.9 23,85.1 23,85.1 C22.8,85.7 22.3,86.1 21.7,86.4 C20.9,86.6 20.2,86 19.9,85.3 C19.5,84.2 20.5,83.3 21.4,82.8 C20.5,82.7 19.5,83 18.8,83.7 C18.7,83.8 18.6,83.7 18.6,83.6 C18.5,81.9 20.3,80.8 21.9,80.7 Z" id="🖍-Ink" fill="currentColor"></path></g><g id="face/Calm" transform="translate(39.9, 46.6)" fill="currentColor"><path d="M42.9,60.1 C41,60.7 39.1,60.7 37.2,60.2 C35.5,59.7 33.7,58.6 32.5,57.1 C31.3,55.8 30.6,54.2 30.6,52.6 C30.7,52.4 30.7,52.2 30.8,52.1 C30.9,51.9 31.1,51.9 31.3,51.8 C31.4,51.8 31.6,51.8 31.8,51.9 C31.9,51.9 32.1,52 32.1,52.2 C32.3,52.5 32.5,52.7 32.7,52.9 C34.3,54.9 35.8,56.3 38.1,56.8 C39.4,57.1 40.6,57 41.8,56.5 C43,56.1 44.2,55.3 45,54.3 C45.4,53.8 45.9,53.6 46.4,53.6 C46.9,53.6 47.4,53.8 47.8,54.2 C48.2,54.6 48.4,55.1 48.4,55.7 C48.5,56.1 48.3,56.6 47.9,57.1 C46.5,58.5 44.8,59.6 42.9,60.1 Z M42.8,36.1 C44.7,37.3 47.6,40 45.6,42.8 C43.2,45.3 39.7,42.5 38,41.2 C36.4,40.1 34.7,42.7 36.1,43.9 C48.4,53 53.4,36.5 43.8,34.8 C42.7,34.6 42.3,35.8 42.8,36.1 Z M25.1,31.1 C24.5,30.7 23.8,30.6 23,30.9 C22.4,31.2 21.3,32.2 20.5,33.4 C20,34.2 19.7,35.2 19.7,36.3 C19.7,36.5 19.7,36.7 19.5,36.8 C19.4,36.9 19.2,37 19.1,37 C18.9,37 18.7,37 18.6,37 C18.3,36.9 18.2,36.7 18.1,36.5 C17.6,35.1 17.8,33.6 18.4,32.2 C19.2,30.2 20.7,28.7 21.6,28.1 C23.2,27.3 25.2,27.2 26.8,28.1 C28.2,28.9 29.1,30.1 29.9,31.4 C30.1,31.6 30.3,31.9 30.5,32.2 C30.9,32.7 30.9,33.2 30.7,33.7 C30.6,34.1 30.2,34.6 29.7,34.8 C29.2,35 28.6,35 28.1,34.8 C27.7,34.6 27.3,34.3 27.1,33.7 C26.7,32.7 26,31.7 25.1,31.1 L25.1,31.1 Z M56,33.3 C55.6,33.5 55.3,33.5 54.8,33.4 C54.6,33.3 54.3,33.2 54.1,33 C53.9,32.8 53.8,32.5 53.7,32.3 C53.6,31.6 53.2,31 52.7,30.6 C52.3,30.2 51.7,30 51.1,30.1 C50.4,30.3 49.8,30.7 49.3,31.2 C49.2,31.4 49.1,31.6 48.9,31.7 C48.7,32.1 48.5,32.4 48.2,32.7 C48.1,32.8 47.9,32.9 47.8,32.9 C47.7,32.9 47.6,32.9 47.6,32.8 C46.9,32.2 46.8,31.7 46.8,31.2 C46.8,30.6 47,30.1 47.4,29.6 C48.1,28.4 49.7,27.5 50.7,27.2 C52.1,26.9 53.4,27.3 54.5,28.1 C55.7,28.9 56.5,30.1 56.8,31.5 C56.8,31.8 56.8,32.2 56.7,32.5 C56.6,32.8 56.4,33.1 56,33.3 Z M28.2,18.6 C27.4,19.4 26.4,19.5 25.4,19.6 C24.8,19.7 24.4,19.8 23.9,19.9 C22.7,20.1 21.6,20.5 20.5,21.1 C19.3,21.7 18.1,22.5 17.2,23.4 C17,23.6 16.8,23.9 16.6,24.1 C16.4,24.3 16.3,24.5 16.1,24.7 C15.9,25 15.7,25.2 15.5,25.4 C15.3,25.6 15.3,25.7 15.3,25.7 C15.3,25.8 15.2,25.9 15.2,26 C15.1,26.1 15,26.3 14.9,26.4 C14.8,26.6 14.7,26.7 14.7,26.7 C14.5,26.8 14.4,26.8 14.3,26.8 C14.3,26.8 14.2,26.7 14.1,26.7 C13.7,26.3 13.5,25.7 13.5,25.1 C13.6,24.1 13.9,23.1 14.2,22.4 C15,20.9 16,19.3 17.3,18.2 C18.7,16.9 20.3,15.9 22.1,15.3 C23.2,14.9 24.5,14.5 25.8,14.5 C26.7,14.6 27.5,14.8 28.2,15.5 C28.6,15.9 28.8,16.4 28.8,17 C28.8,17.6 28.6,18.2 28.2,18.6 Z M57.7,26 C57.7,26.1 57.6,26.2 57.5,26.2 C57.4,26.2 57.3,26.3 57.2,26.2 C57.2,26.2 57.1,26.2 57,26.1 C56.9,26.1 56.9,26 56.9,25.9 C56.3,23.4 55.2,21.6 52.9,20.5 C51.8,19.9 50.5,19.5 49.3,19.3 C48.9,19.2 48.5,19.1 48.2,19.1 C47,18.9 45.8,18.7 45,17.7 C44.5,17.1 44.3,16.4 44.4,15.7 C44.6,15.1 44.9,14.5 45.6,14.2 C47.3,13.3 49.4,14.1 51.1,14.9 C51.2,14.9 51.3,15 51.5,15 C53.1,15.7 54.7,16.7 55.9,18 C56.9,19 57.8,20.6 58.2,22.2 C58.5,23.5 58.4,24.9 57.7,26 Z" id="🖍-Ink"></path></g><g id="facial-hair/*-None" transform="translate(30.8, 84.6)"></g><g id="accessories/*-None" transform="translate(11.8, 60.3)"></g></g></g></g></g></svg>