<svg viewBox="0 0 249 679" version="1.1" xmlns="http://www.w3.org/2000/svg" xmlns:xlink="http://www.w3.org/1999/xlink"><g id="Introduction" stroke="none" stroke-width="1" fill="none" fill-rule="evenodd"><g id="variations-standing" transform="translate(-992, -898)"><g id="a-person/standing" transform="translate(973, 854)"><g id="pose/standing/blazer-2" transform="translate(-28.7, 150.3)"><path d="M90.5,142.4 C98.3,159.8 108,175.2 119.5,190.5 C118.7,154.3 118,117.8 116.8,81.2 C109.5,95.4 101.8,108.2 91.5,122.2 C83.4,130.8 87.1,134.4 90.5,142.4 Z M64.8,566.6 C63.9,565.3 64.5,563.7 65.7,562.8 C63,557.1 71.1,552.7 75.1,548.3 C84.1,538.6 98.3,524.6 99.5,512.3 C103.8,484.3 106.3,456.3 113.1,428.7 C117.2,411.1 128.6,397 133.7,379.8 C142.5,334.3 131.1,288.6 133,242.6 C108.2,240.2 111.4,243.3 114.1,222.6 C112.4,221.5 110.8,220.3 109.3,219 C105.3,221.1 100.6,226.3 96.3,226.1 C94.9,225.7 93.9,224 92.9,222.5 C85.9,211.5 79.4,200.7 73,189.5 C37.7,134 45.7,121.4 78.6,68.1 C92.5,47.5 109.5,17.6 136,15.5 C139.1,15.5 142.5,15.4 145.3,13.4 C145.3,10.2 146.9,9.1 151,8.6 C153.4,8.3 155.2,7 157.5,7.5 C159.1,2.1 158.8,-2.2 160.5,-7.6 C166.6,-16.7 186.2,-12.2 193.3,-9.3 C202.2,-6.2 193.8,7.6 199.6,13.9 C200.8,14.7 202.2,15 203.9,15 C211.1,13.4 214.6,22 218,27.7 C227.7,28.9 235,30.4 239.5,33.9 C243.6,37 246.7,42 250.7,52.3 C259.1,70.7 264.6,88.9 267.1,106.5 C269.2,118.5 275.1,128.8 279.8,139.7 C291.4,167.9 296.4,186.6 293.7,211.4 C290.7,210.9 287.7,209.8 284.6,209.4 L283.4,212.4 C283.3,212.3 283.3,212.3 283.3,212.3 C279.6,237.1 289.6,287.8 257,281.1 C254.1,308.5 244.9,332.8 233.9,355.7 C229.4,364.3 225,373.4 225,383.5 L226.7,383.6 C227,383.6 227.1,383.6 227.1,383.6 C227.4,383.7 227,386.2 226.7,387.6 C221.4,406.2 216.8,424.8 212.7,443.6 C211.9,446.2 211.5,453 209.5,454.2 C209.6,455.1 206.8,456.9 206.6,456.9 C207.1,460.5 205.4,462.1 205.4,465.7 C205.4,465.6 207.9,465.8 207.8,465.7 C209.2,465.7 210.9,468.8 210.9,470.9 C211,473.4 208.9,475.8 208.1,478.3 C207,483.8 207.2,489.3 206.6,494.8 C211.5,495.9 210.4,501.1 206.1,501.4 C206.1,501.4 205.4,508.6 205.5,512.2 C208.5,512.6 209.8,515.2 210.7,517.2 C214.4,517.3 217.7,518.9 221.1,520.6 C228.9,524.4 236.6,528.5 243.6,532.5 C249.7,536.6 263.2,541.1 256.2,549.7 C256.3,549.9 254.7,553.9 252.5,553.5 C241.9,554.6 201.4,545.8 192,543.8 C188.9,543.1 174.9,541.3 180.7,536.6 C178.6,530.6 178.5,519.2 185,517.8 C185.6,512.2 190.4,510.2 195.1,512.3 C195.1,508.2 195.3,504.7 195.4,500.6 C193.1,500.3 190.5,499.5 189.9,497.8 C189.3,496.8 189.5,493.6 191.9,493.5 C191.9,493.5 193.6,493.6 193.7,493.6 C193.4,487 194,481.5 193,474.9 C192.5,472.7 190.8,472.4 189.6,471.2 C188.6,468 191.8,465.3 194.6,464.8 C195.3,461.4 193.8,457.9 194.6,454.7 C192.8,454.6 191.4,454.5 190.2,453.4 C189.7,452.9 188.8,453.1 188.2,453 C187.6,446.2 183.3,440.3 182.3,433.7 C181,425.9 183.5,417.7 184.4,409.8 C185.1,403.2 184,396.4 183.4,389.9 C159.4,428.1 127,465 121.2,511.5 C120.5,515.1 120.2,519.1 123.5,522.6 L123.6,522.7 C124.5,524.4 125,527.6 125.6,529.3 C128.7,531.8 125.9,536.5 123.6,538.7 C122.9,539.4 122.3,540.3 121.7,541.2 C109.9,555.2 108.6,571.1 85.9,570 C80.4,569.7 67.3,569.9 64.8,566.6 Z" id="🎨-Background" fill="#FFFFFF"></path><path d="M159.6,-5.1 C161.5,-6.4 158.8,4.8 158.8,5.9 L158.7,6.1 C158.3,8.4 157.4,11.1 155.5,12.5 C156.4,19.8 157.5,27.1 158.9,34.3 C171,35.9 183.3,38.2 195.7,37 C202.1,37.1 206.4,32.7 209,27.2 L209.1,27.1 L208.6,25.1 C200.3,20.1 194,9.8 197.8,0.1 C198,-0.6 199,-0.3 198.8,0.4 C197.2,4.7 197.9,9.7 200.1,13.7 C201.5,14.4 203,14.4 204.5,14.3 C211.6,13.3 215.8,21.4 218.9,26.5 L221.6,26.9 C231.9,28.4 241.9,30.3 247,40.8 L247.5,41.8 C254.7,57.2 261.5,73 265.4,89.6 C267.4,98.3 268.1,107.3 271,115.8 C276.9,131.6 285.4,146.4 289.9,162.8 C292.8,168.6 300.7,213.3 292.9,213.4 C290,212.6 287.2,211.9 284.2,211.4 C284.7,211.7 284.9,212.3 284.8,212.9 C283.8,220 283.7,227.2 283.7,234.4 C284.1,251.7 284,288.1 258.3,283.4 C256.2,304.5 249,324.9 241.1,344.4 C236.3,357 227.1,368.4 226.6,382.2 C229.8,382.3 228.6,386.3 228.2,388.3 C227.1,393.1 225.7,397.8 224.3,402.4 C219.3,419.2 216.4,436.6 212.1,453.6 C211.9,454.4 211.5,454.9 211,455.3 C210.9,457.1 208.2,458.1 206.7,457.5 C206.9,459.7 206.9,461.8 206.9,464 L206.9,464.4 L207.4,464.4 C209.4,463.8 211.4,467.1 212,468.8 C213.9,473.5 209.5,476.9 209.2,481.4 C208.9,485.6 208.5,489.8 208.3,494 C213.8,496.2 211.4,503.4 205.9,503.3 C206.2,506 206.2,508.6 206.3,511.3 C208.7,511.9 210.5,513.9 211.6,515.9 C216.4,516.3 220.7,519.1 225,521.1 C231.6,524.3 238,527.8 244.4,531.4 C250.5,535.5 264.2,540.2 258.2,549.7 C259.8,551 258.7,553.5 257.3,554.6 L257.3,554.6 C255.9,555.7 254.1,555.7 252.4,555.5 C232.9,556 212.3,550 192.9,546 L191.4,545.7 C187.2,545 182.8,544.1 179,542.1 C177.4,540.8 177,537.6 178.7,536.3 C177,530.2 178.5,519.6 185.2,517.3 C185.9,512.8 189.6,509.6 194.2,510.9 C194.2,508.1 194.5,505.2 194.5,502.3 C192.2,501.9 190.1,501 189,498.8 C187.8,496.7 189.1,493 191.9,493.2 C192,488.7 191.7,484.3 191.7,479.8 L191.7,479.5 C191.6,478.1 191.7,476.5 191.1,475.1 C190.5,473.8 188.8,473.6 188,472.3 C186.4,468.8 189.7,464.7 193,463.8 C193.5,461.4 193.2,458.9 193.7,456.6 C191.9,456.5 190.3,456.1 189,455 C188.1,454.9 186.6,455.3 186.4,454 C186.1,448.7 183.4,444 181.7,439.1 C178.3,429.6 181.4,419.6 182.6,409.9 C183.2,405 182.6,400 182.1,395.1 C159.2,430.8 129.9,465.4 123.2,508.5 C122.8,513.3 120.8,517.3 124.3,521.5 C125.5,521.8 126.5,527.3 126.9,528.7 C130.5,532 127.4,537.9 124.3,540.4 C122.8,543 120.8,545.3 118.9,547.6 L118.3,548.6 C114.4,555.1 110.2,561.8 104.8,567.3 C95.8,573.9 80.8,572 70.2,570.8 L69.2,570.7 C67,570.3 64.6,569.8 63.3,567.8 C62.2,566.1 62.4,563.9 63.7,562.6 C62.4,558.7 65.5,554.9 68.4,552.5 C79.7,542.5 89.4,530.7 97,517.7 C99.9,496.6 102.9,475.5 106.1,454.5 C108.7,437.1 112.7,419.7 121.1,404.1 L123.1,400.2 C126.6,393.6 130,387 131.9,379.7 C136.6,362.5 135.4,344.5 134.8,326.9 C134,299.5 132,272 132.3,244.5 C127.1,244 113.1,244.3 110.9,239 C110.1,234 111.8,228.8 112.2,223.8 C111.1,223 110.1,222.2 109,221.4 C107.1,222.8 105.1,224.2 103.1,225.4 C98.2,228.9 94.4,229.5 91.4,223.7 C82.7,209.9 74.2,195.9 66.3,181.7 C58.9,168 49.8,154.3 47.9,138.6 C45.2,110.3 78.5,64.9 95.1,41.9 C105.4,29.5 118.6,16.3 135.6,15.3 L136.1,15.3 C138.4,15.2 141.7,15.4 143.5,13.9 C143.9,8.8 149.2,8.8 153.1,8 C153.9,7.4 155.1,7.2 156.1,7.3 C157.5,3.2 157.9,-1.2 159.6,-5.1 Z M111.3,521.3 C107.1,519.1 101.9,518.9 97.4,520.7 C91.8,531 84.7,540.5 76.5,549 C73.6,553.1 62.4,558.6 68,564.2 L68.7,564.3 C77.3,565.9 85.9,567.1 94.6,566.4 C100.3,564.8 104.9,560.6 108.5,556.1 C113,550.2 116.7,543.8 120.9,537.8 C124.5,531.5 126.5,531.4 123.6,524 C123.6,524.2 123.6,524.3 123.5,524.5 C122.5,526.5 119.3,526.3 117.6,525.5 C115.2,524.5 113.6,522.5 111.3,521.3 Z M70.8,566.1 L71,566.2 L71,566.2 L71.1,566.2 L71.3,566.2 L70.8,566.1 L70.8,566.1 Z M233.4,528.8 C227.1,526 215.4,517.7 208.9,519 C204.1,520.4 199.7,523.1 194.6,523.4 L194.3,523.4 C190.7,523.6 184.2,524.8 182.8,520.5 C181,524 180.4,528.3 180.4,532.2 C180.4,535.5 181.9,538.2 185.5,538.5 L188.8,539.3 C209.6,544.5 230.7,549.5 252.2,551.1 C257.8,547.5 258,542.9 252,539.7 C245.9,535.8 239.7,532.2 233.4,528.8 Z M110.5,448.1 C106.8,471.4 104.3,494.9 100.7,518.3 C113.3,515.1 117,526.5 121.7,523.3 C118.4,519 118.8,515.7 119.8,510.7 C121.7,493.7 128,477.6 135.9,462.6 C136.8,460.8 137.7,459.1 138.6,457.4 C128.5,458.3 117.7,455.5 110.5,448.1 Z M188.3,514.7 C187.5,516 187.1,517.6 186.8,519.2 C186.7,520 186.8,521.2 186.5,522.1 C191.9,522.2 197.4,521 202.3,518.7 L202,518.6 C198,518.4 189.8,518.9 188.3,514.7 Z M185,518.1 C184.4,518.5 184,518.9 183.6,519.4 C183.5,520.2 183.8,521 184.5,521.5 C184.6,520.4 184.7,519.2 185,518.1 Z M195.6,502.5 C195.6,505.9 195.8,509.2 195.7,512.6 C195.7,513.8 196.1,515.2 195.4,516.2 L196.5,516.4 C199.4,516.7 202.3,516.9 205.1,516.6 C205.2,512.2 205.2,507.8 205.5,503.4 C202,503.3 199,502.8 195.6,502.5 Z M206.5,516 C206.5,516.1 206.5,516.2 206.5,516.4 C206.9,516.3 207.3,516.2 207.7,516.1 C207.4,516.1 207,516.1 206.7,516 C206.6,516 206.5,516 206.5,516 Z M194.2,515.4 C193.8,515.8 193.1,515.9 192.7,515.6 C192.6,515.7 192.5,515.7 192.4,515.7 C192.3,515.7 192.3,515.7 192.3,515.7 L192.6,515.8 C193.2,515.9 193.7,516 194.4,516.1 C194.3,515.9 194.2,515.7 194.2,515.4 Z M209,515.4 C208.9,515.6 208.8,515.7 208.7,515.8 L209,515.7 C209,515.7 209.1,515.7 209.1,515.6 C209.1,515.6 209,515.5 209,515.4 Z M190.3,514.5 C190.4,514.6 190.5,514.8 190.7,515 C190.5,514.8 190.4,514.7 190.3,514.5 Z M206.4,512.3 C206.4,512.4 206.4,512.5 206.4,512.6 C206.4,512.5 206.5,512.5 206.5,512.4 C206.5,512.4 206.4,512.4 206.4,512.3 Z M191.8,493.9 C189.2,494.8 190.1,498.1 192.1,499.2 C194.3,500.6 197.6,500.4 200.1,500.6 C202.7,500.7 205.7,501.7 208,500.2 C209.2,499.4 209.2,497.6 207.9,496.8 C207.9,496.9 207.9,497 207.9,497 C207.9,497.1 207.9,497.3 207.8,497.5 C206.3,500.1 197.2,498.6 194.9,497.3 L194.7,497.2 C193.1,496.5 191.7,496.2 191.8,493.9 Z M195.1,455.4 C195.7,457.9 195.5,460.6 195.8,463.2 C196.1,464 195.8,464.5 195.3,464.7 C198.3,465.6 201.4,466.1 204.5,465.4 C204.2,462.3 205,459 205.5,455.9 L195.1,455.4 L195.1,455.4 Z M206.6,456 C206.7,456.4 206.7,456.8 206.7,457.2 C206.7,457.2 206.7,457.2 206.7,457.2 L206.7,457.2 C207.1,456.8 207.5,456.4 207.8,456.1 C207.4,456 207,456 206.6,456 Z M190.9,377.8 C189,382.4 186.8,386.9 184.4,391.2 L184.5,392.2 C185.1,399 185.6,405.7 184.5,412.4 L184.4,413 C182.7,422.3 180.6,432.1 184.7,441.2 L184.9,441.7 C186.3,445.4 187.9,449.1 188.3,453.1 C194.9,453.6 201.5,454.3 208.2,454.5 C209.9,454.8 210.7,453.8 210.9,452.2 C216.1,430.5 220.6,408.7 226.2,387.1 L226.3,387 C226.9,385.8 227.3,384.5 226.2,384.1 C224.1,383.7 222,386 220,386.6 C209.1,390.9 200.9,379.5 190.9,377.8 Z M190.6,386.7 C197.2,396.4 193.6,411.3 192.9,422.9 C192.3,427.1 193,431.5 192.5,435.7 C192.5,436.1 191.9,436.1 191.8,435.8 C190.2,431.9 190.9,427.4 191,423.3 C192,411.1 194.7,398.6 190.6,386.7 Z M209.9,253 C209.9,252.9 209.7,252.9 209.7,253.1 C209.6,282.3 207.8,311.5 204.8,340.6 C204.8,341.3 205.8,341.4 206,340.8 C208.1,330 208.9,319 209.6,308 L209.7,306.7 C210.6,292 210.9,277.2 210.5,262.4 C210.4,259.3 210.4,256.1 209.9,253 Z M269.8,210.4 C269.5,210.7 269.3,210.9 269,211 C269,217.8 267.6,224.5 263.8,230.5 C262.1,232.7 261.3,235.2 260.5,237.8 C260.7,238.5 260.4,239.3 259.9,239.7 C256.4,250.4 256,261.7 257.3,272.8 C261.2,267 262.8,260.1 263.9,253.3 C264,253 264.5,253 264.6,253.3 C265.9,260.6 263.7,267.9 260.8,274.5 C259.2,275.8 259.6,278.9 259.4,280.8 C288.4,285 278.3,229.3 282,212.2 C282.1,211.7 282.5,211.3 283,211.2 C278.6,210.5 274.2,210.5 269.8,210.4 Z M152.4,9.2 L151.9,9.3 C146.6,10.6 145.2,10.7 144.8,16.9 C143.5,25.7 138.7,33.3 136.5,41.8 C135.6,44.8 136.5,50.3 140.7,49.5 C142,49.1 143.1,50.9 142,51.9 C139,54.7 136.1,57.7 133.2,60.6 C145,100.3 160.3,139 178.9,176 C179.6,177.5 177.4,178.8 176.7,177.3 C158.2,140.1 142.8,101.5 130.8,61.7 L130.4,60.5 C129.9,59.1 136.7,53.8 137.9,52.1 C125.6,46.2 142.7,25.4 143.2,15.5 C139.7,16.9 135.7,16.4 132,17 C124.8,18.2 118.6,22.4 113,26.8 C90.3,46.8 75.8,74.5 61.3,100.6 C51.5,117.7 46.7,138.5 56.6,156.6 C68.1,179.8 81.4,202.2 95.5,223.9 C97.1,225.9 99.5,223.6 101.1,222.8 C110.5,217.2 118.6,209.5 124.8,200.5 C108.4,180 93.2,157.6 84.7,132.6 C84,126.5 92.5,119.5 95.7,114.2 C102.5,104.7 108.9,94.9 115.1,85 C114.9,84 115.3,82.9 116.3,82.9 L116.9,81.9 C121.6,74.2 122.1,73.9 117.5,83.4 C119.9,118.5 119.5,154.2 120.5,189.5 C123.2,193.2 126.1,196.7 129,200.3 C138.4,193.8 149.5,189.6 160.9,188.2 L161.5,188.2 C166.3,187.7 174.4,186.7 175.1,193 C174.2,200.8 158.3,196.4 153.2,200.8 C161.6,204.1 171.2,205.1 178.8,210.2 C181.3,211.6 186.1,216.2 181.4,217.9 C179.4,218.1 177.2,217.3 175.2,217.1 C177.5,217.9 179.6,219.2 181,221.3 C181.9,222.7 182.7,225.7 180.3,226.3 C175,226.4 169.7,224.7 164.5,223.8 L164.9,224 C168.8,225.6 174.7,228.4 169.6,232.5 C164.4,235.2 158.2,230.6 153.1,229.4 C139.2,226.2 129,235 114.9,225.5 C114.5,229.7 113.2,234 113.6,238.2 C117,241.4 127.6,241.3 132.3,241.7 L132.3,241.5 C132.3,239 133,239.2 133.1,241.7 C145.1,242.1 157.1,241.9 169.1,241 C174.2,240.6 179.4,240.1 184.5,239.5 L185.4,239.3 C188.1,239 190.8,238.8 193.4,238.1 C196,237.8 196,235 195.8,232.9 C192.1,156.5 161.1,84.7 152.4,9.2 Z M201.2,15.5 C201.8,16.4 202.5,17.3 203.2,18.1 C204.3,16.3 207.1,15.4 207.9,18 C208.7,20.6 210,23.4 210,26.2 C228,84.7 228.4,146.9 228.1,207.6 C228.6,217.2 225.6,226.6 225.9,236.2 C235.7,237.6 245.7,237.8 255.6,236.7 C255.9,235.9 256.2,235.2 256.6,234.4 C271.4,216.4 263.5,193.9 256.4,174.4 C252.1,174.5 247.8,174.3 243.5,174.3 C244.8,178.4 245.2,182.8 245.9,187 C246.3,190.1 247,193.1 247.7,196.1 L247.9,196.9 C248.1,198 248.5,199.2 248.1,200.3 C247.7,201.3 246.4,201.8 245.5,200.9 C244,199.1 244.1,196.5 243.6,194.3 L243.5,193.6 C242.7,187.2 241.5,180.6 243.1,174.3 C241.6,174 237.3,175.2 237.1,173.1 C237.2,169.7 234.7,162.2 237.5,160 C239.1,158.7 241.9,159.1 243.9,159 C246.1,158.9 248.3,158.9 250.6,158.9 C232.6,115.5 237.6,102.1 239.4,58.9 L239.5,57.6 C239.5,57.3 239.9,57.3 240,57.6 C242.7,75.2 239.1,93.2 240.8,110.9 C243.9,144.6 265.3,173.6 268.8,207.1 C276.5,206.2 284.3,207.3 291.8,209.3 C292,207.9 292.1,206.5 292.2,205.2 C293.6,180.1 284.8,155.8 274.5,133.3 C268.4,121.4 264.6,108.7 263,95.4 C259.9,78 253,61.7 246.1,45.6 C241.7,33.6 232.3,30.7 220.6,29.3 C224.5,35.9 228.4,42.4 232.4,49 C233.2,51 230.6,52.4 229.4,53.6 C243.8,61.5 235.4,85.7 235.7,99.2 C234.6,111.7 234.2,124.2 232.3,136.6 C232.2,137.5 230.9,137.2 230.9,136.4 C231,117.9 233.2,99.4 234.2,80.9 L234.3,79.5 C235.1,70.8 235.8,58.1 225.3,55.7 C223.9,55.5 223.8,53.4 224.9,52.7 C226.4,51.9 227.7,50.8 228.9,49.6 C222.9,40 217.7,29.8 211.4,20.3 L211.1,20 C206.9,14.7 207.2,16.6 201.2,15.5 Z M172.1,192.5 C171,189.1 159.7,191.3 156.7,191.7 C145.6,193.8 134.4,198.7 125.9,206.3 C125.4,206.8 124.8,206.8 124.3,206.5 C120.5,211.3 116.1,215.7 111.3,219.6 C112.2,220.3 113.1,221 114,221.6 C114.5,221.6 114.9,221.9 115.1,222.3 C128.3,231.9 138,224.4 151.7,226.1 C156.8,227.1 161.6,230.4 166.8,230.5 C170.7,229.7 167.3,228 165.5,227.4 C160.3,224.9 155,222.7 149.7,220.5 C148,219.8 148.6,217.3 150.4,217.8 C153.7,218.5 156.9,219.3 160.1,220 C166.3,221.2 172.7,222.9 179,223.5 C177.6,219.6 162.8,215.4 158.5,213.9 C156.8,213.1 152.2,213.2 152.7,210.7 C153.1,208.4 158.1,211.1 159.7,211.3 C166.4,213 173.3,214 180.1,215 C172.8,207.7 161.4,207 152,203.6 L151.7,203.5 C150.1,203.1 147.9,202.4 149.1,200.5 L149.2,200.5 C154,193.4 172.9,197 172.1,192.5 Z M158.3,153 C161.7,150.1 163.5,155.9 163.3,158.6 C163.5,160.8 163.6,163.1 163.8,165.3 C163.6,167 165.4,173.4 162.9,173.4 C152.1,172.9 141.3,173 130.4,172.4 C130.4,174.5 130.3,176.7 130.4,178.9 C130.4,181.7 131.3,184.4 130.7,187.1 C130.4,188.3 128.7,188.5 128.1,187.5 C126.1,182.8 127.4,176.8 128.8,172.1 C120.6,170 124.6,163.4 124.6,157.6 C124.6,157.5 124.7,157.4 124.9,157.4 C126.9,160.3 124.2,164 125.4,167.1 C126.6,170.5 131.7,170.2 134.6,170.2 L134.7,170.2 C143.6,170.4 152.6,170.8 161.5,170.9 C161.1,167.9 161,164.8 160.8,161.8 C160.5,159.7 160.9,157.1 159.8,155.2 C154.8,156.8 149.7,157.4 144.4,157.3 C138.2,157.5 131.6,158 125.5,157.3 C134.3,155.9 143.9,156.1 152.8,154.4 C154.6,154 156.4,153 158.3,153 Z M115.2,87.9 C109.8,98.2 103.6,108 97,117.5 C95.6,119.5 94.1,121.6 92.6,123.6 L92.4,123.9 C89.4,127.6 86.4,130.8 89.1,135.7 C96.5,153.5 106.2,170.1 117.6,185.6 L117.4,176.7 C116.7,147.1 116.1,117.5 115.2,87.9 Z M250.8,159.4 C237.2,162.2 237,156.9 239.2,172 C244.7,172 250.1,171.9 255.5,172 C254,167.8 252.4,163.6 250.8,159.4 Z M210.1,30.7 C207.1,36 202,39.3 195.9,39.4 C185.1,40 174.3,39.3 163.8,36.8 C162.3,36.4 160.4,36 159,35.2 C167.1,78.9 180.1,121.4 189.3,164.8 L189.6,166.2 L189.9,166.2 C196.1,165.1 202.9,165.6 209.3,165.2 C214.5,165.1 219.7,165.6 224.8,164.9 L224.6,159.5 C223.4,116.3 221.6,72.6 210.1,30.7 Z M205.6,18.2 C205.1,18.2 204.2,18.6 203.6,18.5 C204.8,19.8 206.1,20.9 207.5,21.9 C206.8,20.7 206.4,19.3 205.6,18.2 Z" id="🖍-Ink" fill="currentColor"></path></g><g id="Head" stroke-width="1" transform="translate(95.9, 42.7)"><g id="head/Gray-Bun"><path d="M101.9,46.1 C97.2,17.9 61.4,12.8 38.2,18.7 C37.7,13.3 34.3,8.5 30,5.3 C11.8,-7.7 -9.7,14.5 -5.4,33.6 C-4.6,39.3 0,45.9 6.5,45 C-1.6,60.4 -4.8,91.4 13.1,101 C14.9,102.2 15.2,104.7 16.5,106.3 C18.7,108.9 27.9,112.2 32.9,109.6 C34.5,111 36.3,112.4 38.4,112.9 C49.4,121.7 65.4,123.6 78.7,120 C87,118.6 95.5,114.9 99.7,107.4 C103.3,101.6 101.6,94.9 100,88.8 C99.3,85.4 98.8,82.1 98.5,78.7 C99.1,78 99.2,77 99.3,76.2 C99.9,73.1 101.3,70.3 102,67.3 C103.5,60.4 103.3,53 101.9,46.1" id="🎨-Background" fill="#FFFFFF"></path><path d="M101.5,60.5 C101.2,63.9 99.8,67 98.5,70.2 C98.7,68.3 98.6,66.3 98.8,64.4 C97.3,52.2 80.7,49 74.2,39.7 C74.5,39.2 74.6,34.5 73.6,35.8 C69.9,52.2 47.7,60.4 32.5,60.4 C31.3,59.4 29,60.4 29.5,62.3 C31.7,72.3 32.2,82.7 30.8,92.8 C30.1,96.4 30,100.6 27.8,103.7 C25.5,105.9 28.3,106.1 29.8,105.6 C30.2,106.2 30.7,106.7 31.1,107.3 C28.9,108.8 25.8,108 23.5,107 C21,105.7 19.6,103.1 17.8,101.1 C16.8,99.1 15.3,98 13.4,96.9 C2.7,89.6 3,73.7 4.5,62.2 C9,28 47.1,11.5 77.6,23.4 C94.1,27.6 101.8,44.6 101.5,60.5 M2,41.1 C-4.5,34.7 -3.2,23.3 0.9,15.8 C9.1,0.2 32.4,0.7 35.2,19.7 C23.3,23.7 13.3,32.5 7.3,43.5 C5.4,43.3 3.5,42.4 2,41.1 M101.9,46.1 C97.2,17.9 61.4,12.8 38.2,18.7 C37.7,13.3 34.3,8.5 30,5.3 C11.8,-7.7 -9.7,14.5 -5.4,33.6 C-4.6,39.4 0,46 6.5,45 C-1.6,60.4 -4.8,91.4 13.1,101 C14.9,102.2 15.2,104.7 16.5,106.3 C18.7,108.9 27.9,112.2 32.9,109.6 C34.1,111 40.9,115.5 40.4,111.1 C39.9,110 38.3,109.7 37.3,109.1 C35.2,107.9 33.3,106.2 31.8,104.3 C36.4,91.3 36.1,76.9 33.5,63.5 C48.9,62.7 67.1,56 73.9,41.2 C78.5,52 92.7,53.4 96.3,65.4 C96.5,71.7 95.2,78 96.2,84.3 C96.5,90.5 99.7,96.7 97.8,102.8 C92.5,116.3 73.4,118.2 60.8,117.7 C57.8,117.4 55.3,115.8 52.9,114.3 C51.4,113.6 49.6,115 50.5,116.6 C54,121.4 61.1,121.8 66.6,121.7 C80.7,120.8 101.2,116.7 101.9,99.2 C101.5,92.3 98.7,85.7 98.5,78.7 C99.1,78 99.2,77 99.3,76.2 C99.9,73.1 101.3,70.3 102,67.3 C103.5,60.4 103.3,53 101.9,46.1" id="🖍-Ink" fill="currentColor"></path></g><g id="face/Smile-Big" transform="translate(37.8, 44.1)" fill="currentColor"><path d="M22.2,44.2 C26.2,43.7 30.2,44.9 34.2,45.6 C36.3,45.9 38.4,46.2 40.5,46.2 C40.9,46.3 41.4,46.3 41.8,46.3 C41.8,45.9 42,45.6 42.5,45.4 C43.4,44.9 44.2,44.7 45.2,44.8 C46.1,44.8 47.1,44.9 48,45.1 C49.7,45.4 51.4,46.1 52.6,47.3 C55.5,50.1 55,54.6 52.8,57.7 C48.3,64 40,64.3 32.9,64.2 L32.2,64.2 C25.7,64.1 16.5,65.1 13.5,57.7 C12.5,55 12.6,51.9 13.9,49.3 C15.5,46.2 18.8,44.6 22.2,44.2 Z M42.4,54.7 L42.3,54.7 C39.3,54.8 36.4,54.9 33.4,55 C33.5,55.7 33.6,56.5 33.7,57.3 C33.7,57.9 33.8,58.5 33.9,59.1 C34,59.3 34.1,59.7 34.1,60 L34,60.1 L34,60.1 C34.2,60.1 34.3,60.3 34.4,60.4 C34.5,60.5 34.5,60.5 34.5,60.6 C36.9,60.6 39.3,60.6 41.7,60.1 L41.7,60.1 L41.7,60.1 C41.8,59.8 41.9,59.6 42.1,59.4 C42.2,58.5 42.2,57.5 42.3,56.5 C42.3,55.9 42.3,55.3 42.4,54.7 Z M31.1,55 C28.9,55.1 26.8,55.1 24.6,55.1 L23.7,55 L23.7,55 C23.9,56.1 24.1,57.2 24.3,58.4 C24.5,59.5 23.5,60.2 22.6,60.2 C22.7,60.2 22.8,60.3 22.9,60.3 C25.6,60.7 28.5,60.6 31.3,60.5 C31.2,59.7 31.2,58.7 31.2,57.9 L31.2,57.8 C31.1,56.9 31.1,56 31.1,55 Z M16.5,54.8 C16.6,55.4 16.7,55.9 16.9,56.5 C17.8,58.7 19.9,59.7 22.2,60.1 C21.8,60 21.5,59.7 21.4,59.1 C21.2,57.8 21.1,56.4 21.1,55 C19.6,55 18,55 16.5,54.8 Z M50.5,54.3 C49.4,54.6 48.1,54.5 47,54.5 C46,54.6 45,54.6 44,54.7 C44,55.4 44.1,56 44.1,56.7 C44.2,57.6 44.2,58.6 44.4,59.5 C46.4,58.8 48.2,57.7 49.6,55.9 C49.9,55.4 50.3,54.9 50.5,54.3 Z M21.7,47.8 C19.9,48.3 18.1,49.2 17.2,50.9 C16.6,51.9 16.4,53 16.4,54.2 C18,54 19.6,54 21.1,53.9 C21.1,53.6 21.2,53.3 21.2,53 L21.2,52.3 C21.2,50.9 21.3,49.2 21.7,47.8 Z M31.2,48 L30.4,47.9 C28.2,47.6 25.9,47.4 23.7,47.5 C23.3,47.6 23,47.6 22.7,47.6 C23.1,49.1 23,50.7 23.2,52.2 C23.3,52.7 23.4,53.3 23.4,53.8 L23.8,53.8 L23.8,53.8 C26.2,53.7 28.7,53.6 31.1,53.5 C31.1,53 31.1,52.6 31.1,52.1 L31.1,51.7 C31.1,50.5 31.1,49.2 31.2,48 Z M42.5,47.8 C40.2,48.2 37.7,48.3 35.4,48.3 C34.5,48.3 33.6,48.2 32.6,48.1 C32.7,48.6 32.7,49.1 32.8,49.6 C32.9,50.6 33,51.6 33.1,52.5 L33.2,53.4 L33.2,53.4 C36.2,53.3 39.1,53.1 42.1,53 L42.5,52.9 L42.5,52.9 L42.6,51.3 C42.7,50.2 42.8,49.1 42.9,48 L42.8,48 L42.8,48 C42.7,47.9 42.6,47.9 42.5,47.8 Z M43.5,48.2 C43.7,49.8 43.7,51.3 43.8,52.9 L45.8,52.8 C46.1,52.7 46.5,52.7 46.8,52.7 C48,52.6 49.7,52.2 50.9,52.6 C51,51.5 50.7,50.4 49.7,49.6 C47.9,48.3 45.6,48.7 43.5,48.2 Z M36.9,34.4 C39.8,32.7 47.1,31 47.5,36.3 C47.8,38.7 46,40.7 43.9,41.5 L43.8,41.6 C41.8,42.4 38.3,43.3 36.6,41.6 C35.2,40.1 37.1,37.5 38.9,38.7 C39.8,39.3 41.7,38.8 42.7,38.5 L42.7,38.5 C43.8,38.2 45.3,37.2 44.8,35.9 C44.4,34.7 42.7,34.5 41.7,34.4 C40.1,34.4 38.6,34.7 37,34.8 C36.7,34.9 36.7,34.5 36.9,34.4 Z M48.9,26 C52.9,25.8 55.3,30.1 54.4,33.6 C54.3,34.2 53.6,34.8 52.9,34.8 L52.8,34.8 C52.7,34.7 52.6,34.7 52.5,34.7 C51.9,34.5 51.3,33.9 51.4,33.2 L51.4,33 C51.5,31.4 51.3,29.4 49.3,29 C47.6,28.7 46.7,30.3 46.7,31.8 C46.7,32.1 46.4,32.2 46.1,32.1 C44.9,31.4 44.7,29.9 45.2,28.6 C45.8,27 47.2,26.1 48.9,26 Z M19.6,26.9 C22.5,25.9 25.6,27.5 27,30 C27.4,30.2 27.9,30.5 27.9,31.1 C27.8,31.9 27.6,32.5 27,33.1 C26.1,34.1 24.5,33.6 24.1,32.4 L24.1,32.3 C23.6,30.7 21.9,29.7 20.3,30.2 C18.5,30.9 18.6,32.8 17.3,34 C17.1,34.1 16.9,34.1 16.8,34 C15.4,33.4 15.6,31.4 16.1,30.2 C16.8,28.7 18,27.4 19.6,26.9 Z M15.7,18.2 C18,15.8 24.1,13.5 25.7,17.9 C26,18.7 25.3,19.8 24.5,20 C23,20.3 21.8,19.7 20.3,19.8 C19.2,19.9 18,20.3 17.1,21 C14.5,22.9 14,26.3 12.2,28.8 C12.1,28.9 12,28.8 11.9,28.7 C11.5,25.1 13.1,20.8 15.7,18.2 Z M46.1,15.8 C47.6,15.3 49.4,15.3 50.9,15.8 C52.5,16.3 53.9,17.2 55,18.4 C55.6,19 56,19.6 56.4,20.2 C56.6,20.6 56.8,21.3 57,21.7 C58.2,22.4 58.8,24 57.7,25.2 L57.6,25.2 L57.5,25.4 C56.9,25.9 56,26.2 55.2,26 C53.4,25.4 53.2,24 52.6,22.5 C52.2,21.5 51.5,20.7 50.6,20 C48.6,18.5 45.3,18 42.9,18.7 C42.7,18.8 42.6,18.6 42.7,18.5 C43.1,17.9 43.4,17.4 44,16.9 C44.6,16.4 45.3,16.1 46.1,15.8 Z" id="🖍-Ink"></path></g><g id="facial-hair/*-None" transform="translate(29.2, 80.1)"></g><g id="accessories/Sunglasses-2" transform="translate(11.2, 57.1)" fill="currentColor"><path d="M94.7,3.1 C94.5,3.1 94.4,3.1 94.2,3 C94,3 93.8,2.9 93.6,2.9 C93.1,2.7 92.7,2.6 92.2,2.6 C85.4,1.1 69.7,3.2 69.1,9 C66.9,9.7 65.1,9.1 62.6,9.2 C60.7,1.2 27.8,2.3 26.2,7.1 C26.2,7.1 26.2,7.1 26.2,7.1 C24.6,6.6 22.4,6.8 20.6,6.7 C16.9,6.6 13.2,6.9 9.6,7.7 C2.8,8.8 -6.5,10.1 -1.8,18.6 C-1.8,18.6 -1.8,18.6 -1.8,18.6 L-1.8,18.6 C-1,19.4 0.4,18.7 0.5,17.6 C-1.1,13.6 2.5,13.1 5.2,11.9 C12.1,9.5 19.1,9.1 26.3,9.9 C26.8,10.5 27.6,11.1 28.5,11.3 C33.2,12.1 30.7,15.7 33.7,16.2 C33.2,28.5 48.1,35.2 56.8,27.1 C60.2,23.7 61.1,18.7 61.9,14.2 C62.3,14.1 62.6,13.9 62.7,13.6 C63.7,12.6 64.4,11.6 66.4,11.3 C68.4,11.1 70,11.6 70.2,11.8 C70.2,11.9 70.3,12 70.3,12.1 C70.4,12.3 70.6,12.4 70.7,12.5 C68.7,24.7 78.2,32.5 87.8,26.1 C92,22.2 92.9,16.2 93.1,10.9 C93.6,10.5 94,9.9 93.8,9 C93.5,7.9 94.2,6.9 95.2,6.4 C96.5,5.7 96.2,3.4 94.7,3.1 M53.5,8.9 C52.3,8.7 51.8,10.5 53,10.8 C53.8,11 54.5,11.4 55,12.1 L55.1,12.2 C55.7,13.2 57.3,12.3 56.7,11.2 C56,10.1 54.8,9.2 53.5,8.9 Z M88.4,7.8 C88,7.5 87.3,7.7 87.1,8.1 C86.8,8.6 87,9.1 87.4,9.4 L87.4,9.4 C87.8,9.7 88.1,10.2 88.2,10.6 L88.2,10.7 C88.2,11.9 90.1,11.9 90.1,10.7 C90,9.5 89.3,8.5 88.4,7.8 Z" id="🖍-Ink"></path></g></g></g></g></g></svg>