<svg viewBox="0 0 198 670" version="1.1" xmlns="http://www.w3.org/2000/svg" xmlns:xlink="http://www.w3.org/1999/xlink"><g id="Introduction" stroke="none" stroke-width="1" fill="none" fill-rule="evenodd"><g id="variations-standing" transform="translate(-2426, -104)"><g id="a-person/standing" transform="translate(2381, 50)"><g id="pose/standing/polka_dots" transform="translate(-28.7, 150.3)"><path d="M264.5,181.4 C262.1,159 258.3,136.1 248.9,115.4 C245.6,88.6 251.1,50.2 226.2,32.1 C226.6,28.9 220.8,26.2 218.1,24.5 C213.8,21.6 207.9,16 202.8,19.2 C201.2,18.7 197.2,20.7 195.3,16.3 C193.5,11.8 193.7,2.8 192.2,2 C192.9,-4.5 163.7,-8.8 156.1,0.3 C152.5,7.4 156.6,9.6 148.5,18.9 C144.9,19.1 141.4,20 138.1,21.2 C135.3,21.6 132.6,22.1 129.9,22.6 C95.3,25.8 92.6,51.4 89.6,78.8 C86.9,115.8 75.5,152.5 80.5,189.8 C77.7,203.1 77.5,217.3 80.8,230.4 C70.1,246 77.9,254.6 84.5,269.5 C85.7,272.1 86.6,274.9 87.1,277.7 C87,279.9 87,282.1 87.4,284.3 C88.5,289.3 96.9,288.6 97.2,283.6 C97.9,280.3 97.7,276.8 98.2,273.5 C98.2,273.7 98.1,274 98.1,274 C99.3,265.7 101.3,262.4 106.7,256.1 C113.7,246 109.4,233.3 111,222.1 C111.4,218.3 112,214.6 112.4,210.8 C114.7,212.2 117.3,213.4 120,214.1 C118.3,227 121.2,240.1 124.5,252.6 C133.3,284.9 145,318.1 139.9,352 C139.9,352 134.4,379.7 130,393.4 C124.7,410.7 120.4,428.1 113,444.7 C109,456.7 100.5,468.1 100.8,481 C97.9,485.3 103.2,490.5 107.8,490.5 C107.8,494.4 106.8,500 104.7,507.3 C104.2,511.4 102.1,516.6 105.3,520.1 C101,531 99.5,542.8 98.3,554.4 C97.9,559.9 97.3,566.5 103.2,569.6 C108.7,572 115.1,570.9 121,571.6 C126.6,571.7 132.5,573.1 138.1,571.9 C144.5,570 145.7,563.1 144.5,557.6 C143.8,551.8 142.8,546.1 141.8,540.4 C138.8,527.9 137.9,514 134.1,502.1 C136.2,501.6 138.4,500.6 139.9,499 C143.6,498.8 146.4,496.1 147.3,492.8 C148,490.7 150.8,490.2 152.7,489.6 C153.1,491.4 154.1,492.9 155,494.6 C154.3,498.1 156.7,502.2 160.7,502.3 C161.3,502.9 161.8,503.4 162.4,504 C157.9,510.7 154.5,518.3 153.6,526.3 C152.6,532.4 151.5,542.2 159.6,544 C162.7,544.4 166,545.2 169,544.1 C172.4,545.6 175.9,546.3 179.5,547 C195,549.6 209.9,549.3 225.5,551.1 C229.6,551.7 246.1,553.4 248.9,551.1 C252.2,551.8 250.2,549.3 251.6,547 C252.7,545.2 255.7,541.9 253.8,540.9 C249.7,539.1 246.1,535.7 242.4,533.8 C225.1,523.9 187.7,507.1 187.9,506.6 C187.9,507 188.1,498.5 189.5,496.3 C191.5,494.4 195.4,494.7 197.4,492.9 C198.7,492.9 208.4,490.1 207.6,485.5 C206.5,481.8 210,477.2 207.6,474.1 C215.5,401.3 234.1,330.7 244.4,258.3 C244.6,258.1 244.8,257.9 245.1,257.7 C250.3,258.6 254.4,253.3 256,249.1 C256.8,248.3 257.6,247.5 258.2,246.7 C262.6,241.1 262.6,233.8 263.1,227.1 C264.2,226.4 264.9,225.1 264.9,223.7 C265.1,219.4 265.3,215.2 265.5,210.9 C265.5,210.9 265.5,210.9 265.5,210.9 C266.8,208.8 267,206.4 266.6,203.9 C266.7,196 268,188.7 264.5,181.4 Z" id="🎨-Background" fill="#FFFFFF"></path><path d="M155.9,-0.4 C156,-1.1 156.9,-1.1 157,-0.4 C158,7.9 154.7,17.4 146.6,21.3 C152.7,26.6 156.9,33.8 164.2,37.8 C179.5,47.7 201.5,38.4 204.9,20.9 C201.1,20.1 194.1,20.1 193,15.8 C192.4,15.2 192.1,10.4 192.2,6.8 C192.1,6.1 192.1,5.4 192.1,4.8 C192,4.3 192,3.7 192,3.2 C192,2 193.8,2 193.9,3.2 C193.9,3.6 194,4.1 194,4.6 C194,4.7 194,4.9 194,5 C194.3,5.9 194.4,6.8 194.6,7.7 C194.7,8.1 194.9,8.6 195,9 C195.1,10.2 195.5,11.4 196,12.5 C197.4,15.5 200.8,18 204.2,18 C205,18.1 205.7,17.9 206.4,18 C207.6,18 208.6,18.5 209.7,18.9 C210.6,19.4 211.5,19.7 212.4,19.7 C250.6,32.6 245.3,79.8 251.1,111.8 C257,143.5 269.3,174.1 271.1,206.5 C271.6,209.9 267.9,211.1 265.6,212.7 C265,221.2 268.5,229.7 266.1,238.1 C263.8,244.9 254.6,261.4 245.7,258.8 C235.7,334.6 212.5,404.9 210.3,481.6 C212.5,488 206.2,492.7 200.3,493.6 L199.5,494.1 C196.8,495.6 194,497.1 191.1,498.1 C191,498.1 190.9,498.2 190.8,498.2 C190.7,498.3 190.5,498.3 190.4,498.4 C190.5,500.3 191.2,502.2 192,504 C204.2,506.8 214.9,514.2 226.4,519 C233.8,523.6 256.5,530.1 258.2,538.1 L258.3,538.4 C258.9,542 257,546.4 252.9,546.7 C255.1,548.3 253.7,551.5 251.3,552.1 C248.5,552.9 245.5,552.5 242.6,552.8 C215.5,553.6 188.1,551.2 161.7,545.2 C159.5,544.6 157.1,544 155.3,542.7 C143.8,533.6 155.7,514.4 158.6,502.6 C157.5,502.5 156.5,502.2 155.5,502 L155.3,501.9 C154.3,501.6 153.3,501.2 152.6,500.6 C152.6,500.5 152.5,500.5 152.5,500.5 C147.7,500.4 152.6,489.8 153,486.9 C151.1,491.1 149.5,495.6 147.1,499.5 C145.5,502 141.9,500.3 139.5,500.1 C140.3,514.7 143.8,528.8 147.4,542.9 C150.3,554.6 155.3,568.7 138.8,572.2 C127.5,575.2 100.6,574.1 95.7,561.7 C94.3,551.6 97.4,541.4 99,531.5 L99.3,530.1 C101.1,520.4 102.8,510.8 105.5,501.3 C105.8,499.8 106.3,498.2 106.8,496.7 C106.8,495.9 106.9,495 106.8,494.1 C106.7,493 106.5,491.8 106.3,490.7 C106.3,490.6 106.2,490.4 106.2,490.2 C101.4,488 97.9,485.5 97.5,482.9 C97,480.3 97.9,477.8 98.6,475.3 L98.7,475.2 C114,421.4 143.2,373 138.2,315.6 C136.4,287.4 123,261.4 120.7,233.3 C119.4,227.7 118.3,222 118.1,216.2 C117.3,216 116.5,215.9 115.7,215.7 C115.2,218.2 114.6,220.6 113.6,223 C113.3,227.6 113.5,232.3 114.3,236.8 C114.5,237.9 114,238.8 113.1,239.1 C115.2,245.6 115.6,253.8 110.2,258.8 L109.8,259.1 C105.1,262.2 104.6,263.1 103.5,268.9 L100,283.5 C99.5,285.3 99,287.2 97.7,288.6 C94.2,292.4 88.8,289.9 87,285.9 C85.4,281.7 85.4,277.2 84.2,273 C83.3,268.6 80.8,264.8 78.4,261.2 C72.9,252.7 72.4,241 78.6,232.7 C79.1,231.4 79.6,230 80.2,228.7 C78,226.2 79.4,222.3 79.2,219.2 C79.2,216.7 79.1,214.2 79,211.7 C78.6,196.8 77.1,182.1 77,167.2 C76.4,147.2 81.7,127.8 84.7,108.2 C87.4,88.8 87.2,69 91.5,49.9 C99.5,12.3 144.5,26.6 152.1,11.8 C154.4,8.1 155.4,3.8 155.9,-0.4 Z M101,557.1 C100.3,562.1 103.8,563.3 107.9,564.8 C118.2,568.6 130,569.5 140.5,565.9 C142.4,565.1 143.7,563.9 144.3,562.2 C129.8,563.5 114.6,562.6 101,557.1 Z M156.3,534.8 C157.2,539.3 163,539.8 166.9,540.6 C176.2,542.5 185.5,544.1 195,545.2 C213.2,547.4 231.7,547.8 250,546.9 C250.5,546.7 250.8,546.3 251.4,546.3 L251.5,546.3 C251.5,546.3 251.6,546.3 251.6,546.3 C251.3,546.1 251,545.8 250.8,545.5 C219.3,542.1 187.6,539.7 156.3,534.8 Z M187.1,496.3 C179.6,497.6 171.8,498.3 164.2,497.1 C163.7,503.4 161.2,509.6 159.3,515.6 C169.9,518.4 176.9,506.7 186.3,504.5 C185.8,501.7 186,498.7 187.1,496.3 Z M109.1,491.5 C109.2,491.5 109.2,491.6 109.2,491.6 C109.1,499 108.4,506.3 107.3,513.6 C114,506.4 125.2,504.6 134.5,507.6 L134.4,507.1 C134.2,504.4 133.8,501.7 134.3,499.1 L133.9,498.9 C129.1,497.6 117.9,495 109.1,491.5 Z M247.3,214.1 C206,225.2 162,225.9 120.3,216.7 C122.4,223.4 123.9,230.2 125,237 C127.4,254.7 133.9,271.4 138.3,288.7 C143.4,309 144.6,326.1 142.1,346.9 L142,347.5 C136.4,394.1 113.7,436.7 103,481.9 C115.6,489.5 131.1,492.5 145.5,495.6 C154.6,477 162.2,457.9 167.3,437.8 C185.3,374.7 209.1,315.4 203.9,248.8 C202.7,248 203.1,246.4 203.7,245.4 C203.5,240.6 203.2,235.8 202.7,231 C202.7,230.8 202.9,230.8 203,230.9 C203.8,235 204.7,239.1 205.4,243.2 C210.5,238.1 213.8,231.6 218.2,226 C218.9,230.2 210.2,246.4 206.3,248.9 C214.5,298.9 200.9,344.8 186.2,392.4 C176.3,426.6 166.8,460.8 156.6,494.9 C156.7,494.9 156.8,494.9 156.9,494.9 C156.3,493.8 169.3,494.6 170.4,494 C179.9,493.1 189.3,490.9 198.5,488.6 L199.7,488.3 C202,487.7 204.7,486.8 205.1,484.3 L205.1,484 C205.1,483.9 205.1,483.9 205.1,483.9 L205.1,483.6 C205,483.5 205,483.5 205,483.4 L204.9,483.3 C204.8,483.2 204.7,483 204.9,483.2 C203.8,482 203.7,480.3 204.9,479.2 C207.2,395.9 234.1,319.7 244,237.4 C245,229.6 246.2,221.9 247.3,214.1 Z M82.8,230.2 C78,236.1 77.2,244.4 79.1,251.6 C80,255.2 82,258.2 84.1,261.3 C87.7,266.4 89.4,272.4 90.3,278.5 L90.3,278.6 C90.8,280.5 91,286 93.8,285.3 C94.5,284.9 94.9,282.8 95.1,281.8 L98.3,268.7 C99.3,264.9 99.8,260.4 103.1,257.7 L103.5,257.5 C106.2,255.8 108.8,253.8 109.2,250.4 C110.1,246.3 108.4,242.3 107.8,238.3 C99.2,236.4 90.8,233.6 82.8,230.2 Z M264.5,213.3 L264.3,213.5 C261,215.1 251.1,220.4 248.6,218.4 C248.7,230.5 247.7,242.5 246.3,254.6 C246.6,254.5 247,254.5 247.3,254.6 C254.5,252.6 262.2,239.2 262.8,232.2 C263.3,225.9 262.1,219.3 264.5,213.3 Z M147.1,27.5 L146.7,27 C142.8,21.9 140.6,20.1 134,22.8 C134.9,24 135.3,25.4 134.9,27 L134.9,27.1 C132.8,35.8 121.9,40.8 114,36.1 C111.2,36.8 108.4,34.8 108.2,32 C100.4,36.6 96.8,45 95.3,53.5 C100.5,50.8 107.4,53.4 109.4,58.8 C113.9,68.6 100.8,78.8 92.8,70.5 C91.1,87.1 90.3,103.8 87.1,120.2 C89.4,116.4 95,115.5 98.4,118.7 C109.2,128 96.7,149.4 83.5,139.2 C81.9,148.3 81.4,157.6 81.5,166.8 C85.7,165.2 88,172.5 88.3,175.6 C88.7,179.3 86.8,187.1 82.3,187.5 L82.6,193.4 C83.3,203.6 83.8,213.8 83.7,224 C83.9,224 84.1,224.1 84.3,224.3 C84.3,224.5 84.3,224.8 84.4,225.1 C84.4,225.4 84.6,225.6 84.8,225.6 L84.8,225.6 C84.8,225.8 84.8,226 84.7,226.2 C93,229.7 101.5,232.5 110.2,234.8 C109.9,231.9 110,229 110.3,226.2 C107,223.1 111.1,211.7 111.4,207.4 C113,198.5 114.1,189.7 115.1,180.8 C112.1,180.6 110.5,177.4 109.7,174.8 C108.7,172 108,168.9 108.8,165.9 C109.5,162.4 113.5,159 117.3,160.2 L117.5,157.8 C119,142.7 120.3,127.6 122.6,112.6 C115.3,116.6 108.4,107.8 110.1,100.9 C110.7,98 112.4,95.2 115.1,93.7 C117.4,92.4 122.2,91 123.7,94 C124.4,94.1 125.1,94.4 125.6,94.9 C127.1,86.8 129.1,78.6 132.1,70.8 C122.5,64.8 124.3,49.6 137,49.6 C154.1,51 149.5,75.9 133,71.2 C127.8,102.4 124.8,133.9 122.2,165.4 C124.2,168.6 123.9,173.4 121.1,176.2 C119.9,187.5 118.5,198.9 116.6,210.2 C129.2,213 141.9,215.3 154.7,216.4 C155.3,212.4 159.7,210.3 163.4,210 C165.9,209.7 168.6,210.6 170.9,211.1 C173.8,212.2 176.1,214.7 177.2,217.4 C189.2,217.5 201.2,216.7 213,215.2 C211.8,209.2 220.5,204.7 225.8,205.6 C228,205.9 230,206.7 231.6,208.1 C233.2,208.4 234.6,209.7 235,211.4 C239.2,210.4 243.5,209.6 247.6,208.1 C251.6,206.8 252.9,203.5 251.8,199.7 C240.6,204.2 231,186.3 241.8,179.8 C243.1,178.8 246,178.1 246.8,180.1 C247,180.1 247.1,180.1 247.2,180.1 C246.3,176.5 245.4,172.8 244.5,169.1 C239.4,168.6 237.6,161 241.9,158.4 C240.5,152.3 239,146.2 237.7,140 C230.6,141.5 224.8,132.7 226.3,126.3 L226.3,126.1 C227.1,122.7 229.7,119.3 233.5,118.7 C232.6,113.5 231.8,108.3 231.1,103.1 C230.2,102.1 229.7,100.5 230.1,99.1 C230.4,89.1 228.3,78.7 229.2,68.6 C221.6,77.7 206,71.5 209.6,59.4 C209.3,48.3 225.2,44.3 230.6,54.2 C231.2,52.1 231.9,50 232.3,47.8 C232.3,47.6 232.7,47.6 232.7,47.9 L232.7,47.9 C233.5,62.1 232.9,76.5 234.5,90.7 C240.2,91 242.5,104.7 236.3,105.6 C238.7,121.5 242.2,137.1 246,152.7 C252.7,151 255.3,165.3 249.8,167.7 C251.4,174.1 253,180.4 254.6,186.7 L254.6,186.7 C255.4,185.3 257.5,185.5 258.9,185.7 C263.5,187.4 261.6,195.7 256.6,195.2 C259.3,203.3 257.6,210.9 248.5,213.7 L248.5,213.9 C248.8,213.7 249.2,213.5 249.6,213.4 C255.2,211.8 260.5,209.4 265.4,206.2 C264,182.7 257.1,159.9 251.6,137 C245.2,136 243.2,125.9 248.2,122.1 C244.7,107 243.8,91.5 242.1,76.1 C237.5,75.1 236.4,67.8 240.5,65.5 C237.9,46.4 228,30.3 209.6,22.1 C209,24.8 208,27.5 206.7,30 C206.8,30 207,30 207.1,30 C207.1,30.1 207.2,30.1 207.2,30.2 C208.2,31.2 208.8,32.3 209.2,33.5 C209.3,33.8 209.3,34.1 209.4,34.3 C209.3,34.4 209.3,34.5 209.2,34.7 C211.2,42.1 202,45.9 195.7,44.3 C194.8,44.1 194.1,43.5 193.8,42.9 C182.8,48.8 168.4,47.5 158.4,39.7 C151.2,43.5 141.9,34.6 147.1,27.5 Z M95.3,194.9 C105.8,193.4 109.3,210.3 100.8,215 C98,216.6 94.3,216.8 91.6,215 C84.4,210.6 86.4,195.8 95.3,194.9 Z M135.5,184.8 C148.9,184.8 150,205.3 138.3,209 C129.6,211.5 121.1,201.9 125.5,193.9 C126,188.9 130.3,184.9 135.5,184.8 Z M177.3,186.7 C178,181.4 183.6,176.3 189.2,177.8 C194.4,179.1 195.7,185 196.6,189.5 C198.7,198.7 188.3,208 179.4,202.9 C173.8,199.6 173,191.4 177.3,186.7 Z M207.3,155.7 C209.2,152.7 213.4,151.4 216.9,152.4 C226.3,155.4 225.2,170.5 217.6,175 C204.6,181.8 194.1,162.2 207.3,155.7 Z M145.8,164.5 C145.6,155.5 154.9,147.4 163.6,152.5 C177.7,161.9 163.3,183.4 149.7,171.4 C147.3,169.8 145.9,167.3 145.8,164.5 Z M128.2,141.7 C121.7,131.6 132.9,116.6 143.6,126.3 C147.3,130 147.2,136.9 145,141.3 C141.6,147.3 132,147.4 128.2,141.7 Z M175.7,122.7 C180.8,117.8 189.7,117.8 193.6,124.2 C198.2,132.1 192.7,145.7 182.3,145 C171.6,144.3 168.6,129.2 175.7,122.7 Z M149,106.9 C140.8,98.6 149.7,85.2 160.8,88.4 C178.9,95.1 163.2,120 149,106.9 Z M193.6,105 C186.4,91.8 204.1,79.9 213.1,92.6 C220,104.2 201.3,117.5 193.6,105 Z M169.9,67.4 C163.6,56.4 174.6,44.2 186.2,50.7 C202.6,62 181.6,83.9 169.9,67.4 Z" id="🖍-Ink" fill="currentColor"></path></g><g id="Head" stroke-width="1" transform="translate(95.9, 42.7)"><g id="head/hat-beanie"><path d="M58.1,13.9 C68.8,13.9 81.5,19.1 82.6,19.2 L82.6,19.2 C83.2,19.2 85.4,20.9 89.3,24.2 L85.1,32.4 L85.5,32.8 C87.1,34.3 88.5,35.8 89.6,36.9 C98.6,46 100.2,82 98.1,94.5 C95.9,107.1 92,119.3 73.8,119.3 C55.5,119.3 35.3,108.4 32.1,105 C30,102.7 27.7,101.6 25.1,101.7 C25,101.6 24.9,101.4 24.8,101.3 L24.4,101.3 C20.8,100.7 18.2,100 16.7,99.2 C13.6,97.4 10.3,88.4 10.3,86.4 C10.3,84.5 5.3,70.1 5.2,68.6 L5.2,68.6 C5.2,67.3 -1.3,61.5 -1.3,59.6 C-1.3,57.8 -2.6,57.9 -1.3,51.4 L-0.9,49.5 C0.5,42.5 3.2,31.1 13.6,26.1 C25.1,20.6 47.4,13.9 58.1,13.9 Z" id="Path" fill="#FFFFFF"></path><path d="M11.9,25.8 C17.6,19.7 50.1,10.4 66.5,12.4 L67,12.4 C68.3,12.6 69.6,12.8 70.9,13.2 C75,14.1 79.2,15.6 82.6,18 C85.5,20 94.5,23.3 91.8,28.5 C92.8,30.3 93.2,32.6 92.5,34.4 C92.4,35.1 92.2,35.6 92,36.2 C94.1,39.3 95.7,42.8 97.1,46.1 C99.4,54.5 100.9,63.2 101.1,71.7 C101.8,87.9 100,107.2 85.9,117.7 C77.4,124.3 64,124.5 54.4,116.3 C53.9,115.6 51.3,113.9 52.2,113.6 C52.4,113.9 52.7,114.1 52.9,114.4 C52.9,114.4 52.9,114.3 52.9,114.3 L52.7,114.1 C52.2,113.6 51.6,113 52.3,113.1 C52.3,113.2 52.4,113.2 52.4,113.2 C52.5,113.3 52.7,113.4 52.7,113.5 L52.8,113.5 L52.8,113.5 C52.4,113.1 52.1,112.6 52.7,112.9 L52.8,112.9 C53.1,113.2 53.3,113.5 53.6,113.8 C53.6,113.7 53.6,113.7 53.6,113.7 L53.4,113.4 C53.1,113.2 53.2,113.2 53.3,113 C52.8,112.2 53.7,112.7 53.8,113 C54.4,112.8 55,114 55.4,114.1 C73,127.6 98.5,115.6 98.1,78.1 L98,77.3 C97.9,65.3 96.9,53 91.9,42.1 C91.4,41 90.9,40 90.3,39 C89.9,38.3 89.5,37.6 89,36.9 C87.7,36.8 86.4,36.5 85.1,36.2 C84.6,36 84.2,35.9 83.8,35.8 C77.4,36.1 71.1,36.5 64.7,36.9 L62.7,37 C57.3,37.3 51.7,37.9 47.3,41.2 C43,44.3 43,50.3 39.3,53.6 C34.1,57.2 34.1,60.4 33,65.6 C33.1,69.6 35.9,75.3 30.8,77 C31.7,78.2 30.5,77.6 30.4,77.2 C30.4,77.2 30.4,77.2 30.4,77.2 C31.1,78.6 30,77.7 29.9,77.2 C29.9,77.2 29.8,77.2 29.7,77.1 C30.5,78.3 29.3,77.5 29.4,77.3 C27.9,75 24.8,74.6 22.7,75.2 C22.7,75.3 22.6,75.3 22.5,75.3 C13.5,77.3 15.8,96 25.1,94.2 C25.5,94.1 25.5,94.3 25.6,94.3 C25.4,93.8 26,94 26,94.1 L26,94.1 C26,94.1 26,94.1 26,94.1 C25.8,93 27,94.6 26.9,94.7 C26.9,94.7 27,94.7 27,94.7 L27,94.5 C26.8,94 26.8,94.2 26.8,94 C26.6,93.6 26.6,93.7 26.7,93.5 C27.2,93.1 27.3,94.3 27.5,94.4 C27.2,94 27.4,93.7 27.7,93.9 C29.8,98.3 32.5,102.4 36,105.7 C36.4,106 36.8,106.3 37.2,106.5 C38.7,107.8 41,108.7 42.4,109.8 C42.4,109.8 42.3,109.9 42.3,109.9 L42.4,109.9 L42.4,109.9 L42.4,109.9 L42.9,110.2 C43,110.3 43.2,110.4 43.3,110.6 C43.4,110.7 43.5,110.9 43.6,111 C43.6,111.2 43.5,111.3 43.3,111.2 C43.3,111.2 43.2,111.2 43.1,111.1 C43.1,111.1 43.1,111.2 43.1,111.2 C43.1,111.2 43.3,111.6 43.1,111.6 L43.1,111.5 C43,111.5 42.8,111.5 42.7,111.4 C42.9,111.6 43,111.8 43.1,111.9 C43.2,112 43.3,112.2 43.3,112.3 C43.3,112.4 43.3,112.5 43.2,112.5 C43,112.4 42.9,112.4 42.8,112.3 L42.8,112.4 C42.9,112.6 43,112.9 42.8,112.8 C42.6,112.7 42.4,112.6 42.2,112.6 C42.2,112.6 42.1,112.6 42.1,112.6 C41.4,112.4 40.8,112.1 40.2,111.8 C39.7,111.4 39.2,111 38.7,110.6 C38.2,110.4 37.7,110 37.3,109.7 C34.3,107.7 31.6,105.3 29.6,102.5 C26.1,105.5 19.1,102.7 14.8,100.3 C11,98.2 9.5,94.3 9.1,90.1 C8.3,84.4 3.6,82.5 4,70.1 C3.9,70.1 3.9,70.1 3.9,70.1 C3.8,70 3.6,70 3.4,69.9 C3.3,69.8 3.1,69.7 3,69.6 L2.8,69.4 L2.8,69.4 C2.7,69.3 2.7,69.3 2.6,69.2 L2.6,69.2 C2.5,69.4 2.5,69.2 2.5,69.1 L2.2,68.7 C1.5,67.8 0.7,66.7 0.1,65.8 L0.1,65.8 C0.1,65.9 0.1,65.9 0.1,65.9 C-1.5,63.7 -2.9,61.1 -3.3,58.5 C-3.8,56.6 -3.6,54.5 -3.2,52.7 C-1.4,46.4 4.3,32 11.9,25.8 Z M53.1,113.8 L53,113.7 L53.1,113.8 C53.1,113.9 53.2,113.9 53.2,114 C53.2,113.9 53.2,113.9 53.2,113.9 C53.2,113.9 53.1,113.8 53.1,113.8 Z M66.4,15.6 C55.3,14.6 44.3,17 33.7,20 L33,20.2 C26.9,21.9 20.5,23.5 15.4,27.2 C8.3,32.6 4.6,41.3 1.4,49.3 C-1.4,55.3 0,62 4.2,66.1 C4.7,62 5.4,58 6.6,54 C6.8,53.4 6.7,53.2 7.2,53.1 C8,63.8 4.1,71.8 11.8,84.5 C15.2,90.5 11.3,94.8 20.8,98 L21.1,98.1 C23,98.8 25.2,99.4 27.2,99 L27,98.7 C26.8,98.4 26.8,98.3 27,98.2 C27,98.2 27,98.2 27,98.1 C26.8,97.7 26.6,97.3 26.4,96.9 C26.3,97 26.2,97 26.1,97 C26.2,97.1 26.2,97.2 26.1,97.2 C25.5,97.4 25,97.5 24.4,97.5 L24.3,97.4 C23.7,97.4 23.3,97.3 23,97.2 C22.8,97.2 22.7,97.1 22.6,97.1 C21.5,96.9 20.3,96.2 19.5,95.6 C10.7,90.6 11.6,73.6 22.5,72 C22.7,61.3 27.8,43.3 36.3,33.1 C43.9,23.7 64.8,19.7 79.3,21.1 C79.5,21.2 79.7,21.3 79.9,21.3 C82.2,21.5 84.3,22.5 86.5,23 C84.9,21.8 83.1,21 81.2,20.3 C77.5,18 73.2,16.8 69,15.9 C68.2,15.7 67.3,15.6 66.4,15.6 Z M22,80.6 C22.6,80.3 22.5,80.6 22.6,80.5 C26.8,80.2 31.4,83.9 33.7,86.9 C33.5,87.1 33,86.5 32.9,86.4 C32.9,86.5 32.9,86.5 32.9,86.5 L32.9,86.6 C33.9,87.9 32,86.3 31.8,86 C31.8,86 31.8,86 31.7,86 C31.9,86.2 32.3,86.5 32.4,86.8 L32.5,86.9 C33.7,87.9 33.6,88.6 32.3,87.2 C32.3,87.3 32.3,87.4 32.3,87.4 L32.4,87.4 C33,87.9 33.5,89.1 32.2,87.8 C32.3,88.8 30.9,87 30.8,87 C28.3,85 24.6,83.1 21.4,82.8 L21.3,82.8 C20.7,82.7 20.5,82.6 20.7,82.2 C20,82 20.1,81.7 20.5,81.7 C20,81.4 20.4,81 20.7,81.2 C20.5,80.6 21.3,81 21.4,80.9 C21.8,80.3 21.9,80.8 22,80.6 Z M13.2,46.2 C15.2,45.4 21.2,47.6 20.7,50.6 C20.4,51.2 19.5,51.6 18.8,51.2 L17.9,50.7 C16.5,49.7 15.1,48.8 13.5,47.9 C12.6,47.5 12.3,46.6 13.2,46.2 Z M24.7,41.8 L23.9,41.3 C19.7,38.6 13.7,34.4 24.3,38.7 C25.5,39.2 27.1,39.6 27.7,40.7 C28.7,42.8 26,42.9 24.7,41.8 Z M25.1,29.5 C24.8,28.3 29,29.8 30.2,30.1 L30.4,30.2 C31.6,30.7 32.9,31.1 33.6,32.1 C34.5,33.5 32.8,33.8 31.8,33.2 C29.6,31.8 27.3,30.7 25.1,29.5 Z M35.8,23.6 C33.4,21 39.7,23.5 40.7,24.2 L40.7,24.2 C41.4,24.7 41.3,25.7 40.6,26.1 C38.7,26.1 37.3,24.5 35.8,23.6 Z M46.5,20.8 C42.8,18.1 47.7,19.4 49.4,20.4 C50.6,21.4 49.4,23.2 46.5,20.8 Z" id="🖍-Ink" fill="currentColor"></path></g><g id="face/Smile" transform="translate(37.8, 44.1)" fill="currentColor"><path d="M34.8,57.1 C33.2,56.5 31.8,55.4 30.8,54 C30.4,53.5 30.3,53 30.4,52.5 C30.5,52 30.8,51.5 31.2,51.2 C31.6,50.9 32.1,50.7 32.7,50.8 C33.1,50.9 33.5,51.1 33.9,51.6 L34,51.7 C34.6,52.6 35.4,53.3 36.3,53.7 C37.2,54.1 38.2,54.3 39.2,54.2 C41.2,54 42.5,52.9 43.9,51.5 C44.1,51.3 44.3,51.1 44.5,50.9 C44.6,50.8 44.7,50.7 44.9,50.6 C45.1,50.5 45.3,50.5 45.5,50.6 C45.7,50.7 45.9,50.8 46,51 C46.1,51.1 46.2,51.3 46.2,51.6 C46,53.1 45.3,54.4 44.2,55.4 C42.9,56.6 41.3,57.4 39.8,57.6 C38.1,58 36.4,57.7 34.8,57.1 L34.8,57.1 Z M40.6,34.2 C42.4,35.3 45.1,37.8 43.2,40.5 C40.9,42.9 37.6,40.2 36,39 C34.5,38 32.8,40.5 34.2,41.6 C45.9,50.2 50.6,34.5 41.5,32.9 C40.5,32.8 40.1,33.9 40.6,34.2 Z M19.7,24.2 C19.9,21.8 23.6,21.2 24,23.6 C24.4,25.8 24,27.8 23,29.8 C22,31.6 19.7,30.8 19.5,29.1 C19.3,26.8 19.6,25.7 19.7,24.2 Z M48.2,23.1 C48.7,22.4 49.5,22 50.4,22.2 C53.2,23.1 52.4,27.1 51.4,29 C50.9,30.1 49.1,30.3 48.3,29.4 C47,27.9 46.4,24.9 48.1,23.4 C48.1,23.3 48.2,23.2 48.2,23.1 Z M22.9,13.5 L23.4,13.4 C24.8,13.2 26.5,12.9 27.5,14 C28,14.6 28.2,15.7 27.5,16.3 C26.2,17.3 24.9,16.9 23.4,17 C22.2,17 21,17.2 19.9,17.6 C17.3,18.3 15.2,19.6 13.1,21.1 C12.8,21.3 12.5,20.9 12.6,20.6 C13.9,18.2 16.3,16.2 18.8,14.9 C20.1,14.3 21.5,13.7 22.9,13.5 Z M45.6,12.4 L46,12.4 C49.7,13.2 54.5,14.8 56.3,18.4 C56.3,18.9 56.3,19 56.2,19.1 L56.2,19.1 C56.2,19.2 56.1,19.3 55.9,19.3 C55.8,19.3 55.8,19.3 55.7,19.3 C54.9,19.1 54.3,18.8 53.6,18.5 L53,18.2 C52.2,17.8 51.4,17.4 50.6,17.1 C48.8,16.6 47,16.2 45.1,15.9 C44.7,15.9 44.3,15.8 44,15.5 C43.8,15.3 43.5,15 43.4,14.6 C43.3,14.1 43.3,13.7 43.6,13.2 C43.8,12.9 44.1,12.6 44.5,12.5 C44.8,12.3 45.2,12.3 45.6,12.4 Z" id="🖍-Ink"></path></g><g id="facial-hair/Full" transform="translate(29.2, 80.1)" fill="currentColor"><path d="M28,22.6 C29.9,18.1 34.1,14.8 38.9,13.6 C42.5,12.7 46.2,12.7 49.8,13 C51.7,13.2 53.7,13.4 55.5,14.1 C57,14.7 58.3,15.8 59.2,17.1 C60.3,18.7 61.1,20.5 61.6,22.4 C61.7,22.6 61.8,22.9 61.8,23.2 C61.6,24.6 61.1,25.8 59.8,26.6 C58.5,27.5 57,27.8 55.5,28 C55.4,27.9 55.2,27.8 55.1,27.8 C52.8,26.4 51.1,23.3 48.2,23.7 C45.5,24.1 43.8,27.4 42.2,29.3 C37.2,29.9 32.1,28.4 28,25.5 C27.8,24.5 27.8,23.5 28,22.6 M65.3,19.2 C64.8,18 64.3,16.9 63.7,15.9 C61.7,12.5 58.7,9.8 55.1,8.2 C46.5,4.6 35.4,7.1 28.5,13.2 C26.1,15.2 23.7,18.2 23,21.5 C22.8,21.5 22.6,21.6 22.4,21.8 C17.4,18.6 12.2,15.6 8.2,11.3 C5.3,8.1 3.2,4.3 2,0.2 C1.9,-0.1 1.3,-0.1 1.4,0.3 C1.4,0.4 1.4,0.5 1.4,0.6 C1.3,0.4 1.1,0.5 1,0.7 C0.4,5.7 -0.5,11 0.3,16 C0.8,19 2.1,21.2 4,23.6 C5.9,26.1 8.1,28.5 10.4,30.7 C11.8,32.2 13.3,33.8 15.1,34.9 C17.1,36.1 19.5,37.1 21.7,38 C23.9,39 26.1,39.9 28.4,40.6 C33,42.2 37.8,43.3 42.6,43.7 C46.5,44.1 50.9,44.5 54.6,43.1 C57.4,41.9 59.7,39.9 61.6,37.5 C63.5,34.9 65.1,31.9 66,28.7 C66.9,25.4 65.4,19.7 65.3,19.2" id="🖍-Ink"></path></g><g id="accessories/Sunglasses-2" transform="translate(11.2, 57.1)" fill="currentColor"><path d="M94.7,3.1 C94.5,3.1 94.4,3.1 94.2,3 C94,3 93.8,2.9 93.6,2.9 C93.1,2.7 92.7,2.6 92.2,2.6 C85.4,1.1 69.7,3.2 69.1,9 C66.9,9.7 65.1,9.1 62.6,9.2 C60.7,1.2 27.8,2.3 26.2,7.1 C26.2,7.1 26.2,7.1 26.2,7.1 C24.6,6.6 22.4,6.8 20.6,6.7 C16.9,6.6 13.2,6.9 9.6,7.7 C2.8,8.8 -6.5,10.1 -1.8,18.6 C-1.8,18.6 -1.8,18.6 -1.8,18.6 L-1.8,18.6 C-1,19.4 0.4,18.7 0.5,17.6 C-1.1,13.6 2.5,13.1 5.2,11.9 C12.1,9.5 19.1,9.1 26.3,9.9 C26.8,10.5 27.6,11.1 28.5,11.3 C33.2,12.1 30.7,15.7 33.7,16.2 C33.2,28.5 48.1,35.2 56.8,27.1 C60.2,23.7 61.1,18.7 61.9,14.2 C62.3,14.1 62.6,13.9 62.7,13.6 C63.7,12.6 64.4,11.6 66.4,11.3 C68.4,11.1 70,11.6 70.2,11.8 C70.2,11.9 70.3,12 70.3,12.1 C70.4,12.3 70.6,12.4 70.7,12.5 C68.7,24.7 78.2,32.5 87.8,26.1 C92,22.2 92.9,16.2 93.1,10.9 C93.6,10.5 94,9.9 93.8,9 C93.5,7.9 94.2,6.9 95.2,6.4 C96.5,5.7 96.2,3.4 94.7,3.1 M53.5,8.9 C52.3,8.7 51.8,10.5 53,10.8 C53.8,11 54.5,11.4 55,12.1 L55.1,12.2 C55.7,13.2 57.3,12.3 56.7,11.2 C56,10.1 54.8,9.2 53.5,8.9 Z M88.4,7.8 C88,7.5 87.3,7.7 87.1,8.1 C86.8,8.6 87,9.1 87.4,9.4 L87.4,9.4 C87.8,9.7 88.1,10.2 88.2,10.6 L88.2,10.7 C88.2,11.9 90.1,11.9 90.1,10.7 C90,9.5 89.3,8.5 88.4,7.8 Z" id="🖍-Ink"></path></g></g></g></g></g></svg>