<svg viewBox="0 0 346 501" version="1.1" xmlns="http://www.w3.org/2000/svg" xmlns:xlink="http://www.w3.org/1999/xlink"><g id="Introduction" stroke="none" stroke-width="1" fill="none" fill-rule="evenodd"><g id="variations-sitting" transform="translate(-3267, -256)"><g id="a-person/sitting" transform="translate(3243, 200)"><g id="pose/sitting/closed_legs-1" transform="translate(-20.3, 159.5)"><path d="M386.9,369 C379.3,358.2 363.2,356.4 352.9,348.8 C347.5,344.6 341.7,341.9 337.5,336.3 C344.2,328.4 335.9,309.9 334.2,299.3 C327.4,271.3 321.2,242.9 313.1,215 C327.1,219.4 323.4,193.4 321.4,187.4 C321.3,186.5 320.3,186.4 319.6,186.1 C319.8,184.9 320.3,184.7 318.8,184.3 C318.3,177.3 320.3,169.3 316.7,163.1 C312.6,156.3 302.9,150.6 294.8,150.5 C289.2,128 288.1,117.4 261.3,126.9 C261.9,124.8 262.1,122.7 261,120.5 C257,108.4 251.9,95 247.5,82.7 C242.4,68.5 237.2,53.8 230.4,40.2 C225.7,31.5 210.8,29.2 200.8,30.6 C198.4,26.4 192.4,14.7 184.7,17.4 C184.7,13.9 184.6,10.4 184.6,6.9 C184.5,3.8 184.9,0.7 183.7,-2.2 C182.4,-5.3 179.9,-6.9 176.9,-8.1 C167.9,-11.1 157.5,-15.9 148,-12.9 C139.6,-9.1 140.6,5.2 136.6,12.9 C130.9,4.6 121.3,10.2 119.3,19.1 C96.1,28.4 76.1,17.9 74.6,54.1 C75.9,60.8 77,67 76.4,73.6 L75.7,73.7 C69.8,105.8 67.5,140.3 68.9,176.1 C68.6,190.1 63.5,203.3 58.5,216 C54.8,225.4 51.1,235 49.3,245 C47.3,253.2 40,293 56.2,279.8 C56.8,325 97.2,330.8 133.5,320.8 C172.1,312.8 215.5,315.1 239.6,276.4 C247.7,290.3 250.6,298.9 252.6,313.5 C254.9,324.2 258.1,336.3 264.1,343.4 C259,352.7 256.4,364 256.7,371.4 C256.8,374.3 255.4,375.6 257.4,377.4 C266.5,386.1 286.9,386.2 302.5,390 C313.1,391.4 351.6,396.6 357.5,393.2 C361.6,394.3 356.8,383.7 360.9,383.4 C362.3,383.5 362.5,381.7 363.9,381.7 C373.1,382.2 393,384.9 388.2,377.4 L386.9,369 Z" id="🎨-Background" fill="#FFFFFF"></path><path d="M384.6,379.4 C377.8,380.9 370.8,380.5 363.9,381.1 C364.2,380.5 364.4,379.9 364.5,379.3 C371.6,378.5 379.1,378 385.8,375.7 C386,376.5 386.1,377.2 386.1,378 C386.2,378.1 386.1,379.3 386.3,379.1 C386.1,379.3 384.9,379.4 384.6,379.4 M350.3,361.9 C338,357.8 324.9,354.3 315.3,344.9 C315.4,344.9 315.4,344.8 315.4,344.8 C317.4,344.2 319.5,343 321.4,344.3 C327.4,344.1 333.7,342 338,337.5 C338.3,337.6 338.5,337.7 338.8,337.8 C346.9,351.6 364.3,354.2 377,362.2 C382.1,365.2 391.7,373.3 379.4,373.5 C374.6,374.2 369.7,374.7 364.9,375.1 C364.5,367.3 356.8,363.9 350.3,361.9 M358.9,381.8 C356.5,385.1 352,386.5 348,386.1 C345.1,385.7 342.5,384.7 339.4,384.9 C316.2,384 293.3,379.2 270.6,374.3 C250.3,370.5 265.8,355.5 264.1,343.4 C267,345.2 270.2,346.4 273.6,347.4 C277.9,359.4 289.7,356.2 298,350.5 C301.2,350.4 305.2,350.9 307.8,348.7 C308,348.9 308.1,349 308.3,349.1 C310.4,347.8 312.3,346.5 314.5,345.6 C321.9,358.1 337.6,361 350.2,365.8 C357.9,367.9 364.3,373.8 358.9,381.8 M358.5,392.5 C352,394.5 345.1,394.1 338.3,393.6 C316.2,391.7 294.3,387.9 272.8,382.2 C267.7,380.8 257.8,379.3 257.4,372.9 C261.9,378.8 270,379.5 276.8,381.1 C299.1,385.4 321.9,391.1 344.7,390 C349.5,391.3 354.8,390.3 358.9,387.6 C358.7,389.2 358.6,390.9 358.5,392.5 M237.9,184.1 C241.2,175.3 244.8,166.7 248.3,158 C254.7,161.6 261.9,162.9 269.4,163.7 C269.5,163.8 269.7,163.9 269.9,163.9 C270.3,164 270.6,164 270.8,163.9 C280.7,164.9 290.8,165.3 299.5,169.4 C302.8,170.9 306,173 308.8,175.9 C312,178.9 314.5,182.5 316.2,186.5 C316.7,187.7 317,189 317.8,190 C318.1,191.4 318.4,192.7 318.5,194.1 C319,199.5 319.7,205.1 317.6,210.3 C316.3,213.4 313.7,210.9 312,209.7 C309.1,207.7 306.5,205.4 303.9,203.1 C295.9,195.6 286.5,189.2 275.3,188.1 C263.1,186.5 250,184.4 237.9,184.1 M233,184.1 C232.4,185.8 231.7,187.5 231.1,189.2 C227.9,188.6 221.1,187.4 218.3,185.9 C219.3,185.9 220.3,185.4 220.5,184.2 C220.7,183.7 220.8,183.2 221,182.7 C222.6,177.3 224.1,171.7 226.4,166.5 C228.7,160.9 231.5,155.6 233.6,150 C237.2,149.8 242.8,154.2 245.3,156 C240.8,165.1 236.8,174.5 233.1,184 C233,184 232.9,184 232.8,184 C232.9,184 233,184.1 233,184.1 M212,183.4 C193.8,182.3 175.2,183.5 157.1,180.2 C153.7,179.7 150.5,178.6 147.6,177.2 C138.9,173 132.2,165.6 127.3,157.2 C109.5,130.3 89.8,103.7 81,72.3 C75.8,57.1 74.8,34.3 93,27.8 C101.1,24.8 110.8,25 117.8,19.5 C117,22.4 116.5,25.4 116.1,28.1 C115.4,32.4 114.8,36.9 115.3,41.3 C115.3,41.4 115.3,41.4 115.3,41.5 C114.4,43.9 117.3,46.3 120.1,46 C126,45.9 128.9,38.8 134.9,38.6 C137.1,38.5 138.4,39.8 139.7,41.3 C142.9,45 146,48.8 149.9,51.9 C150.2,52.1 150.6,51.9 150.4,51.5 C148.5,47.3 145.7,43.6 143,39.9 C137.3,30.9 129.7,35 123.3,40.5 C122,41.4 120.7,42.2 119.5,41.8 C119.5,41.5 119.6,41.2 119.5,40.8 C119,37.2 119.5,33.5 120,30 C121.1,23.5 120.8,14.9 127.1,11 C129.8,9.4 133.2,9.2 135.9,11 C135.4,12.2 134.8,13.6 134.7,14.8 C134.2,14.4 133.8,14.6 133.7,15.4 C135.8,21.5 139.2,27.2 142.1,33 C144.4,37.4 146.7,41.7 149,46 C149.7,47.4 150.2,48.8 151.6,49.5 C151.6,49.5 151.6,49.6 151.6,49.6 C152.5,52.6 152.5,55.8 153.2,58.8 C153.6,60.7 154.1,62.5 154.6,64.4 C155.1,66.1 155.7,67.8 156.2,69.5 C162.5,91.5 168.6,113.6 174.8,135.6 C167.4,131.8 163.7,124.8 160.4,117.5 C151.5,98.9 142.2,78.5 132.3,61.4 C141.5,80.9 154.2,126.7 169.9,138.1 C172.3,139.7 174.9,140.9 177.7,141.8 C178.8,142.8 180,143.1 180.8,142.8 C185.7,144.2 190.9,145 195.8,146 C204.2,147.7 212.6,149.5 221.1,151.2 C223.9,151.8 226.8,152.6 229.7,152.8 C229.8,152.8 230,152.8 230.1,152.7 C223.7,160.1 219.4,170.2 216.9,179.6 C214.9,179 212.6,181.2 212,183.4 M139.7,184.2 C125.4,205.6 103,218.9 84.6,236.1 C73.6,247.7 64.8,261.2 54.8,273.6 C54.4,274 54.1,274.4 53.8,274.8 C53,275.7 52,276.8 51.3,277.7 C51.3,277.7 51.3,277.7 51.3,277.8 C49.8,274.7 50.6,270.8 50.6,267.4 C50.8,261.4 51.6,255.5 52.7,249.7 C56.6,226.4 69.7,205.6 72.5,182.1 C72.4,157.1 71.2,132 73.3,107.1 C74.1,95.7 74.9,84.3 76,72.9 C83.9,102.2 107,133.8 120.1,154.1 C125.4,161.8 130.1,170.2 137.5,176.1 C139.3,177.6 141.2,178.8 143.2,179.8 C141.9,181.2 140.7,182.7 139.7,184.2 M186.4,69.9 C188.3,69.4 192.7,68.9 194.9,67.4 C196.1,71.4 197.4,75.4 198.7,79.3 C195.5,78.4 192,78.8 188.6,79.2 C184.3,79.7 180,80.2 175.6,80.7 C171.7,81.2 167.7,81.7 163.8,82.2 C162.3,77.2 160.9,72.1 159.5,67.1 C167.7,70.9 177.5,71.4 186.4,69.9 M190.9,31.9 C190.9,31.5 190.8,31.2 190.6,30.8 C190.6,30.8 190.6,30.7 190.5,30.7 C189.9,28.3 189.2,25.9 188.5,23.5 C188.4,23.1 187.7,23.2 187.7,23.6 C187.7,23.9 187.7,24.2 187.7,24.5 C187.7,24.3 187.6,24.2 187.6,24.1 C186.7,21.6 186.1,19 185.7,16.4 C193.1,17.9 199.2,34.1 202.6,45.6 C199.8,44.7 196.1,44.5 195,46.9 C193.6,41.9 192.3,36.9 190.9,31.9 M179.4,127.4 C181.2,127.3 183.1,127.2 184.9,127 C188.7,126.8 192.5,126.5 196.2,126.2 C197.1,126.2 198.1,126.1 199,126 C201.5,125.9 204.1,125.8 206.6,125.6 C209.5,125.5 212.3,125.2 215.2,125.1 C215.7,125.1 216.3,125.1 216.8,125.1 C216.9,125.3 217,125.5 217.1,125.7 C213.4,126.8 209.9,128 207.2,129.2 C200.9,131.9 194.9,135.5 189.8,140 C188.8,139.8 187.9,139.6 186.9,139.4 C184.3,138.9 181.7,138.3 179.1,137.4 C178.5,135.8 178.3,134 177.7,132.4 C177.3,130.8 176.8,129.2 176.4,127.7 C177.4,127.6 178.4,127.5 179.4,127.4 M173.2,114.5 C173.2,114.5 173.2,114.5 173.3,114.5 C173.3,114.5 173.3,114.5 173.3,114.5 C173.7,114.5 174.1,114.5 174.5,114.5 C175.3,114.4 176.2,114.4 177,114.3 C178.6,114.2 180.3,114 181.9,113.9 C185.2,113.5 188.5,113.1 191.7,112.6 C193.7,112.4 195.6,112.2 197.5,112 C202,111.7 206.5,111.5 211,111.4 C212.5,114.8 213.9,118.2 215.4,121.6 C215.5,122 215.7,122.3 215.8,122.7 C209.2,122.5 202.6,123.2 196,123.6 C192.3,123.8 188.6,124 184.9,124.2 C183.1,124.3 181.2,124.5 179.4,124.6 C178.2,124.7 176.8,124.6 175.6,124.8 C175.3,123.9 175.1,123 174.8,122 C174.1,119.6 173.5,117.2 172.8,114.8 C172.9,114.7 173,114.6 173.2,114.5 M167.5,95.9 C166.5,92 165.4,88.2 164.4,84.4 C164.6,84.4 164.8,84.3 165,84.3 C165.7,84.2 166.4,84.1 167.2,84 C168.8,83.8 170.5,83.6 172.1,83.3 C173.4,83.2 174.7,83 176,82.8 C177.4,82.7 178.8,82.6 180.2,82.5 C186.6,82 193,81.6 199.5,81.6 C200.8,85.5 202.2,89.3 203.7,93.2 C198.2,93.5 192.8,93.9 187.3,94.4 C184.2,94.6 181.1,94.9 178,95.2 C176.4,95.3 174.9,95.4 173.4,95.6 C172.5,95.6 171.7,95.7 170.8,95.8 C170.4,95.8 169.7,96 169.2,96 C169.1,96 169,95.9 168.9,95.8 C168.5,95.6 168,95.6 167.5,95.9 M168.8,99.1 C172.4,98.7 176,98.2 179.6,97.8 C181.6,97.6 183.6,97.4 185.6,97.2 C191.9,96.6 198.2,96.1 204.6,95.5 C206.3,99.9 208.1,104.3 209.9,108.7 C202.1,108.2 194.3,109.5 186.6,110.4 C182.5,110.9 178.4,111.3 174.3,111.5 C173.6,111.5 172.7,111.5 171.9,111.7 C170.8,107.8 169.8,104 168.7,100.2 C168.7,99.8 168.8,99.5 168.8,99.1 M232.5,150.2 C232.2,150.5 232,150.8 231.7,151 C231.7,151 231.7,150.9 231.7,150.8 C231.7,150.8 231.7,150.8 231.7,150.8 C231.9,150.5 232.2,150.4 232.5,150.2 M227.7,40.7 C235.7,60 242.6,79.9 250,99.4 C252.4,106.1 254.8,112.7 257,119.4 C257.9,121.6 258.2,124.1 259.9,125.8 C260,125.9 260.1,126 260.1,126 C257.8,127 255.7,128.1 254,129.2 C254.8,131.8 255.7,134.4 256.8,137 C257.3,137.8 255.9,138.6 255.5,137.7 C254.1,134.5 252.9,131.2 252,127.8 C250.9,126.3 249.6,125 247.9,124.1 C244.6,122.9 240.5,122.5 236.1,122.7 C236,122.5 235.9,122.4 235.8,122.3 C234.3,120.9 233.7,118.6 233,116.8 C230.9,111.3 229.1,105.7 227.6,100 C226.1,94.4 225.2,88.7 223.7,83.1 C223.4,82.1 222.4,77.3 221.6,77.6 C221.6,77.7 221.6,77.8 221.6,77.9 C221.6,77.9 221.5,77.9 221.5,77.9 C221.1,89.5 224.1,101.1 227.6,112.2 C228.6,115.8 230.8,119.3 231.5,123 C228.4,123.3 225.3,123.8 222.3,124.5 C222.3,124.2 222.2,124 222.1,123.7 C222.1,123.4 222,123.1 221.8,122.9 C221.4,122 220.9,121.1 220.6,120.3 C219.8,118.5 219,116.8 218.3,115.1 C214.2,105.6 210.3,96 206.9,86.3 C202.7,74.4 199.3,62.4 195.9,50.3 C198.2,51.5 202.4,49.1 205.1,54.6 C205.6,55.9 206.9,56.9 208.5,56.5 C209.8,56.1 210.9,54.5 210.4,53.1 C210.3,52.9 210.2,52.6 210.1,52.4 C207.6,44.9 205.5,37.1 201.8,30 C211.3,30.9 222.5,31.6 227.7,40.7 M315.9,167.3 C316.7,171.1 316.2,175.2 315.9,179.1 C312.2,174.2 307.5,169.9 301.9,167.1 C301.5,164.6 300,162.5 299.3,160 C297.9,156.6 296.8,153.2 295.9,149.7 C304.9,151.5 313.7,158.1 315.9,167.3 M283.1,196.9 C286.1,213.4 291,229.6 294.6,246 C294.8,247 293.3,247.4 293.1,246.4 C289.5,230 284.7,213.8 281.6,197.3 C281.4,196.3 282.9,195.9 283.1,196.9 M281.5,349 C284,349.4 286.4,349.7 288.9,349.9 C284,352 279.4,351.5 275.4,347.8 C277.4,348.3 279.5,348.7 281.5,349 M389.7,373.4 C389.5,372.7 389.2,372.3 388.7,372.1 C388.8,358.3 359.8,353.8 351,345.1 C347,342.2 344.1,337.5 339.4,335.8 C342,331.7 341.3,326.5 340.7,321.9 C339.4,313.5 336.2,304.1 335.4,299 C329,272.4 322.9,245.7 315.7,219.4 C315.5,218.9 315.3,217.9 314.9,216.8 C315.7,217 316.4,217 317.1,216.9 C327.2,214.7 325,194.3 322.6,186.9 C322.3,186.1 321.7,185.5 321,185.3 C321.1,184.8 321,184.3 320.7,183.9 C320.6,183.6 320.3,183.5 320,183.4 C319.7,176.4 321.4,168.8 317.8,162.4 C313.6,155.4 303.7,149.6 295.7,149.2 C294.6,145.1 293.6,140.9 292.5,136.8 C291.3,132.5 289.6,127.8 285.9,124.9 C281.2,120.7 271.2,122 262.9,125 C263.4,122.8 262.4,120.8 261.7,118.8 C259.7,112.7 257.5,106.6 255.4,100.6 C247.6,80.2 241.2,59.1 231.4,39.5 C227.4,32.9 219.6,29.9 212.2,29.3 C208.7,29 205,28.8 201.5,29.2 C201.3,29 201.2,28.8 201.1,28.6 C198.2,23.6 192.4,14.3 185.6,15.9 C184.9,11.1 184.9,6.3 185.5,1.5 C185.5,1.2 185,1 184.8,1.3 C180.3,11.3 181.2,23.7 186.6,33.2 C187,33.8 187.6,34.2 188.1,34.3 C189,44.2 191.2,54 193.9,63.7 C193.5,63.7 193.1,63.8 192.7,63.9 C184.2,67.1 174.8,67.6 165.9,65.7 C163.4,65.2 161,64.5 158.5,63.8 C158.1,62.2 157.6,60.6 157.1,59 C156,54 155.7,49.1 152.7,45.1 C152.5,44.8 152.4,44.5 152.2,44.2 C149.8,39.9 147.4,35.6 145,31.3 C144.4,30.6 140.4,22.9 137.4,18.2 C137.8,18.2 138.2,18.1 138.5,17.9 C140.7,16.8 140.7,13.7 141.1,11.6 C142.3,5 143.7,-1.5 144.1,-8.1 C144.1,-8.4 143.6,-8.6 143.4,-8.3 C140.5,-2.4 138.4,3.8 136.2,10 C136.2,10.1 136.2,10.2 136.1,10.4 C134.1,7.8 130.5,7.2 127.4,7.9 C122.2,9.2 119.6,13.4 118.1,18.2 C103.2,25.3 85.5,18.1 76.5,36.8 C72.4,46.6 72.5,57.8 75.1,69.3 C68.3,104.4 66.1,140.3 67.5,176 C67,200.2 52.2,221.2 47.9,244.7 C45.8,253.9 44.5,263.4 44.7,272.9 C44.3,278 46.6,285.4 53,283.4 C53.7,283.2 54.4,282.8 55,282.3 C57.7,323 89.2,330.9 125.4,323.9 C126.9,323.9 128.3,323.6 129.8,323.1 C130.6,322.9 131.3,322.7 132.1,322.4 C132.6,322.3 133.2,322.2 133.8,322 C134.2,321.9 134.6,321.8 135,321.8 C145.3,314.9 156.1,308.7 166.3,301.7 C167,301.2 167.9,302.4 167.2,302.9 C160.4,308.6 153.7,314.4 146.6,319.7 C166.8,316.5 187.4,317.1 206.3,308.8 C219.5,303 232,291.4 239.5,278.9 C239.6,279.1 239.7,279.3 239.8,279.5 C239.4,278.4 239.1,277.4 238.7,276.4 C232.3,258 226.5,239.4 219.5,221.2 C219.2,220.2 220.7,219.9 221,220.8 C223,225.9 224.9,231 226.7,236.1 C233.1,254.6 238.9,273.3 245.8,291.6 C245.9,291.7 245.9,291.8 245.9,291.9 C247.3,295.4 248.5,299 249.3,302.7 C250.2,306.6 251.4,314.9 252.6,321.9 C253.7,327.6 254.5,334.3 258.5,338.7 C258.5,338.7 258.5,338.7 258.5,338.7 L258.5,338.7 C258.3,339 258.2,339.3 258.1,339.5 C258.4,339.8 258.7,340 259.1,340.2 C259.1,340 259.2,339.7 259.2,339.5 C260.2,340.5 261.3,341.4 262.4,342.3 C261.1,351.9 251.4,361.3 256.4,371.4 C254,376.9 259.9,381.4 264.8,382.6 C272.2,384.9 279.9,386.7 287.5,388.4 C302.6,391.2 349.9,401.6 361.2,393.5 C361,391.8 363.2,386.2 360.6,386.1 C361.8,385 362.7,383.7 363.4,382.4 C370.3,384.6 378,383.8 385,383 C390.7,383.1 390.5,377.6 389.7,373.4" id="🖍-Ink" fill="currentColor"></path></g><g id="Head" stroke-width="1" transform="translate(86.5, 45.1)"><g id="head/Flat-Top"><path d="M60.7,18.8 C74.9,18.8 93.3,27.8 94.9,36.9 C96.7,47.7 106.6,89 104.4,102.2 C102.1,115.5 90.1,125 70.9,125 C51.6,125 37.2,114.5 33.9,110.9 C31.7,108.5 28.6,103 24.5,94.5 C17.6,93.5 14.2,90.3 14.1,84.7 C14.1,79.1 16.3,75.3 20.9,73.2 C19.2,51.2 20.5,37.2 24.5,31.5 C30.6,22.9 46.5,18.8 60.7,18.8 Z" id="🎨-Background" fill="#FFFFFF"></path><path d="M94,35.4 C94,35.2 94.3,35.2 94.3,35.4 C97.4,45.5 99.3,53.4 101.3,63.8 L101.9,66.9 C103.5,75 105,83.2 106.4,91.4 L106.5,91.9 C107.1,96.1 107.5,100.4 106.7,104.6 C105.9,108.6 103.7,112.2 100.9,115.1 C95.5,120.7 88,124.2 80.5,125.8 C76.7,126.6 72.7,126.9 68.9,126.6 C66.9,126.5 65,126.2 63.1,125.8 L62.9,125.8 C61,125.4 59.3,124.9 58.2,123.1 C58,122.6 58.1,121.8 58.6,121.6 C59.6,121.2 60.4,121 61.5,121.1 C62.5,121.2 63.6,121.5 64.6,121.7 C66.6,122.1 68.6,122.3 70.7,122.4 C74.7,122.4 78.6,121.9 82.5,120.8 C89,118.7 95.7,114.8 99.5,109 C104,102.1 102.2,93.8 101,86.2 L101,86 C99.7,78.2 98.6,70.4 97.4,62.7 L96.9,59.4 C95.6,50.6 94.4,44.3 94,35.4 Z M27.6,13.9 C30.8,11.8 34.9,11.2 38.7,11.3 L39.2,11.3 C44.1,11.3 68.8,11.9 77.1,12.1 L79.1,12.2 C81.7,12.2 87,12.3 89.7,12.3 L89.8,12.3 C91.2,12.3 92.5,12.3 93.8,12.4 L94,12.4 C95,12.4 95.8,12.6 96.6,13.3 C97,13.6 97.2,14.2 97.1,14.7 L97.1,14.8 L99.1,14.9 C100.4,15.1 101.1,16.3 100.6,17.5 L100.6,17.5 C99.6,19.5 98.9,25.4 98.4,27.6 C98.1,28.7 97.9,29.9 97.8,31 C97.7,31.9 97.7,32.9 97.2,33.7 C96.1,35.4 93,35.4 93,32.9 C93,32.9 93,32.8 93,32.7 C85.2,32.4 74.7,32.4 67,32.9 C59.8,33.3 52.6,34.3 45.6,35.8 C43.8,36.2 42,36.6 40.2,37 C38.8,37.4 37,37.6 35.7,38.4 C34.2,39.3 34.3,40.8 34.4,42.3 C34.6,43.9 34.9,43.1 35.3,44.6 L35.3,44.7 C35.7,46.2 36.2,47.8 36.9,49.3 C37.3,50.1 37.9,50.9 37.7,51.9 C37.5,52.5 37.1,53.1 36.7,53.4 C34.9,55.2 31.8,54.1 30.6,56.5 C29.3,58.9 29.3,62.3 29.1,65.1 L29.1,65.2 C29.1,67.1 29.1,69 29.2,70.9 C29.3,72.7 29.8,74.4 29.2,76 C28.8,77.2 27.4,77.4 26.6,76.4 C26.5,76.3 26.5,76.2 26.4,76 L26.3,75.9 L26.3,75.9 C26.4,76 26.4,76.1 26.5,76.3 C26.6,76.4 26.4,76.5 26.3,76.4 C24.6,74.5 22,74.9 20.1,76.2 C18.1,77.6 17.3,80.1 17.2,82.4 C17.1,84.9 17.3,87.9 18.4,90.3 C18.8,91.2 19.4,92.2 20.5,92.5 C21,92.7 21.4,92.7 21.9,92.7 C22.4,92.8 23.1,93 23.6,93 C24.2,92.9 24.8,93.7 24.6,94.3 L24.6,94.4 C24.6,94.4 24.6,94.4 24.6,94.4 C24.6,94.5 24.6,94.5 24.7,94.5 C26.6,98.4 29.2,101.9 32.1,105.1 C33.5,106.7 35.1,108.2 36.8,109.5 C37.6,110.2 38.5,110.9 39.4,111.4 C39.7,111.6 40,111.7 40.3,111.8 C40.5,111.9 40.7,111.9 40.8,111.9 L41,112 C41,112 41,112 41,112 C41.5,112.1 41.9,112.4 42,112.8 C42.4,114.1 41.7,115.2 40.5,115.5 C39.1,115.9 37.9,115.3 36.8,114.5 L36.7,114.5 C34.6,112.9 32.6,111.1 30.8,109.1 C27.4,105.1 25.3,100.4 24.3,95.2 C24,95.8 23.7,96.2 23.1,96.5 C22.2,97 21.2,97 20.2,96.9 C18.2,96.5 16.5,95.3 15.4,93.7 C14.3,92 13.8,90 13.6,88 C13.3,86 13.2,84 13.4,82 C13.8,79.1 15,76.3 17.4,74.7 C15.6,70.9 15.3,66.6 15.4,62.4 C15.6,57.3 16.5,52.1 17.1,47 L19.1,32.5 L19.1,32.5 L19.2,31.9 C19.6,28.5 20.2,25.1 21.5,21.9 C22.8,18.7 24.7,15.8 27.6,13.9 Z M19.4,82.5 C22.6,81 26.1,82.4 27.8,85.4 C29.3,88 24.8,89.8 24.1,87.1 L24.1,87 C23.6,84.9 21.6,83.2 19.5,82.9 C19.3,82.9 19.2,82.6 19.4,82.5 Z" id="🖍-Ink" fill="currentColor"></path></g><g id="face/Smile" transform="translate(39.9, 46.6)" fill="currentColor"><path d="M36.8,60.3 C35.1,59.6 33.6,58.5 32.5,57 C32.1,56.5 32,56 32.1,55.5 C32.2,54.9 32.5,54.4 32.9,54.1 C33.4,53.8 33.9,53.6 34.5,53.7 C35,53.8 35.4,54 35.8,54.6 L35.9,54.7 C36.5,55.5 37.4,56.3 38.3,56.7 C39.3,57.2 40.3,57.4 41.4,57.3 C43.5,57 44.9,55.9 46.4,54.4 C46.6,54.2 46.8,54 47,53.8 C47.1,53.6 47.2,53.5 47.4,53.5 C47.6,53.4 47.9,53.4 48.1,53.5 C48.3,53.5 48.5,53.7 48.6,53.9 C48.7,54 48.8,54.2 48.7,54.5 C48.6,56 47.8,57.4 46.6,58.5 C45.3,59.8 43.6,60.6 42,60.9 C40.2,61.2 38.4,61 36.8,60.3 L36.8,60.3 Z M42.8,36.1 C44.7,37.3 47.6,40 45.6,42.8 C43.2,45.3 39.7,42.5 38,41.2 C36.4,40.1 34.7,42.7 36.1,43.9 C48.4,53 53.4,36.5 43.8,34.8 C42.7,34.6 42.3,35.8 42.8,36.1 Z M20.8,25.6 C21,23 25,22.4 25.4,25 C25.7,27.3 25.3,29.4 24.3,31.4 C23.3,33.4 20.8,32.5 20.6,30.7 C20.3,28.3 20.7,27.2 20.8,25.6 Z M50.9,24.4 C51.5,23.7 52.3,23.2 53.2,23.5 C56.2,24.4 55.3,28.6 54.3,30.6 C53.7,31.8 51.9,32 51,31.1 C49.7,29.5 49,26.3 50.7,24.7 C50.8,24.6 50.8,24.5 50.9,24.4 Z M24.2,14.2 L24.7,14.1 C26.1,13.9 28,13.7 29,14.8 C29.5,15.4 29.7,16.6 29,17.2 C27.7,18.2 26.3,17.8 24.7,17.9 C23.4,18 22.2,18.2 21,18.6 C18.3,19.3 16.1,20.7 13.8,22.3 C13.5,22.5 13.2,22.1 13.3,21.8 C14.7,19.2 17.2,17.1 19.8,15.8 C21.2,15.1 22.7,14.5 24.2,14.2 Z M48.2,13.1 L48.6,13.1 C52.5,14 57.6,15.6 59.4,19.4 C59.5,20 59.4,20.1 59.4,20.2 L59.3,20.2 C59.3,20.3 59.3,20.4 59,20.4 C59,20.4 58.9,20.4 58.8,20.4 C58,20.2 57.3,19.9 56.6,19.5 L55.9,19.2 C55.1,18.8 54.3,18.4 53.4,18.1 C51.5,17.5 49.6,17.1 47.7,16.8 C47.2,16.8 46.8,16.6 46.5,16.4 C46.2,16.2 46,15.9 45.9,15.4 C45.7,14.9 45.8,14.5 46.1,14 C46.3,13.6 46.6,13.3 47,13.2 C47.3,13 47.8,13 48.2,13.1 Z" id="🖍-Ink"></path></g><g id="facial-hair/*-None" transform="translate(30.8, 84.6)"></g><g id="accessories/*-None" transform="translate(11.8, 60.3)"></g></g></g></g></g></svg>