<svg viewBox="0 0 249 680" version="1.1" xmlns="http://www.w3.org/2000/svg" xmlns:xlink="http://www.w3.org/1999/xlink"><g id="Introduction" stroke="none" stroke-width="1" fill="none" fill-rule="evenodd"><g id="variations-standing" transform="translate(-2048, -1700)"><g id="a-person/standing" transform="translate(2029, 1658)"><g id="pose/standing/blazer-4" transform="translate(-28.7, 150.3)"><path d="M91.2,120.9 C84.8,128.3 85.4,130.4 88.7,137.9 C96.2,155.4 107,173.1 119.2,189.2 C118.4,153 117.7,116.5 116.5,79.9 C109.2,94.1 101.5,106.8 91.2,120.9 M90,569 C85.9,568.6 57.8,569.6 65.3,561.4 C63,556.4 69.5,552.1 73.5,548.3 C77.2,544.7 80.9,540.7 84.8,536.1 C88.4,531.9 92.4,526.8 95,520.9 C95.6,520 96.2,519.4 96.8,519 L97.1,518.8 L97.3,518.5 C99.5,515 101.3,511.3 103.4,507.7 C98.5,506 94,504.2 88.4,501.7 C96.3,455.6 108,410.7 115.6,364.4 C120.2,324.2 122.7,283.5 133.3,243.9 L134.6,244 L135.4,241.4 C134.3,241.4 132,241.3 130.9,241.2 L131.2,242.6 C126.1,242 121.2,240.6 116.3,239.3 C113.8,239 111.3,237.2 112.2,234.2 C112.5,229.9 113.4,225.7 113.8,221.4 C112.2,220.3 110.6,219 109,217.8 C104.8,219.7 99.8,226.1 95.2,224.4 C84.6,210.2 75.6,193 67.6,179.3 C48,147.5 41.8,127.7 62,94.6 C79.4,66.9 98.2,22.8 133.1,15.9 C137,15.1 141.1,15.1 144.9,13.3 C145.1,10.7 146.4,9.3 147.3,9.3 C149.6,8.8 152.1,8 154.3,7.9 C155.1,7.6 156,7.9 156.8,8 C159,3.5 158.8,-2.2 161.3,-6.4 C161.4,-9.6 162.3,-13.1 172.2,-13.8 C178.9,-14.3 188.3,-14.9 193.7,-12 C197.4,-8.9 197.5,-2.2 197,2.6 C196.5,6.1 196.7,10.1 199.5,14.2 C207.3,11.8 212.7,16.9 217.6,26.4 C238,29.2 242.5,30.8 250.4,51 C254.2,59.8 258.1,69.2 261.1,78.8 C265,90.6 265.4,102.9 269.2,114.7 C279.6,140.8 290.2,157.6 293.6,188 C295.2,201.4 294.3,208 292.7,210.1 C288.3,208.8 282.6,207.8 278,207.3 L282.9,211 C278.7,230.1 290.8,284.3 258.1,280.1 C257.8,279.4 258.3,275.5 258.4,273.9 C257.5,274 255.9,274 255,273.9 C253.4,278.4 251.1,282.5 249.6,287.1 C248.9,289.9 248,292.7 247.1,295.4 C226.4,364.9 222.3,431.8 231.5,501.6 L231.1,501.7 L231,502 L230.7,502.1 C230.1,503 229.1,503 227.7,503 C218.6,503.4 210.7,503.8 203.3,504 C204.1,507.9 203.6,512 203.3,516 C207.6,515.7 211.5,517.4 215.4,519.5 C222.9,523.2 230.3,527 237.6,531.2 C244.8,535.8 256.4,539.8 250.6,548 L252.3,548.7 C252.3,548.7 252.4,548.7 252.4,548.7 C252.6,549.4 250.3,552.3 249.7,552.3 C233.8,553 220.4,549.4 200.1,545.5 C195.5,543.8 172.2,541 172.1,536.5 C172.2,535.2 173.6,535.3 174.6,535.1 C171.6,520.1 181.7,518.9 183.1,505.3 C181.1,505.7 179,506 176.9,505.4 C175.1,476.4 178,446.7 174.8,417.3 L171.6,417 C160.8,448.9 149.5,481.5 140.9,514.7 C140.7,515.4 139.9,514.9 139.5,514.6 C133.9,514.5 128.2,513.9 122.7,513 C122.6,516.2 122.4,519.5 122.3,522.8 L123.1,523.2 C123.7,524 123.5,527.6 123.4,529.1 C123.3,530.7 123.2,531.9 123.3,532.9 C125.1,536.4 119,544 115.8,548.3 C108.8,557.4 103,570.8 90,569" id="🎨-Background" fill="#FFFFFF"></path><path d="M159.6,-6.1 C161.5,-7.4 158.8,3.9 158.8,5 L158.7,5.2 C158.3,7.5 157.4,10.1 155.5,11.6 C156.4,18.9 157.5,26.1 158.9,33.3 L159.7,33.4 C171.6,35 183.5,37.2 195.7,36.1 C202.2,36.1 206.5,31.6 209.1,26.1 C208.9,25.5 208.8,24.8 208.6,24.2 C200.3,19.1 194,8.8 197.8,-0.9 C197.9,-1.3 198.4,-1.3 198.7,-1.1 C198.7,-1.1 198.7,-1.1 198.7,-1 L198.6,0.9 C198.4,5 198.2,9.3 200.5,13 C209.5,11 215.1,18.5 218.9,25.6 L221.6,26 C231.9,27.5 241.9,29.3 247,39.9 L247.7,41.4 C254.9,56.6 261.5,72.3 265.4,88.6 C267.4,97.4 268.1,106.4 271,114.9 C276.9,130.6 285.4,145.5 289.9,161.8 C292.8,167.7 300.7,212.1 292.9,212.5 C290,211.6 287.2,210.9 284.2,210.5 C284.7,210.8 284.9,211.4 284.8,212 C283.8,219.1 283.7,226.3 283.7,233.5 C284.2,250.9 283.7,288.3 257.5,282.3 C255.6,281.5 256.9,278.5 256.8,276.3 C256.6,276.3 256.5,276.3 256.3,276.3 C254.8,280.4 252.7,284.1 251.4,288.3 C250.3,291.8 249.5,295.6 247.9,299 C231.4,357.8 224.5,419.6 231,480.4 C231.4,484.1 231.8,487.7 232.2,491.3 C232.2,493.6 234.9,503.1 232.5,503.8 C232.4,503.9 232,504.2 231.8,504.2 C230.4,505.8 227.9,505.2 226,505.4 C219.1,505.7 212.3,506 205.4,506.2 C205.8,509.1 205.5,512.1 205.3,515 C210.3,515 214.9,518.1 219.3,520.1 C225.9,523.4 232.3,526.8 238.7,530.5 C244.5,534.6 257.6,538.5 253.1,547.8 C256.4,549.2 251.8,554.8 249.2,554.9 C232.6,554.8 216.2,551.1 199.9,547.8 C190.7,545.3 180.7,544.4 172.2,540.2 C169.8,539.1 170.3,534.8 172.9,534.4 C170.9,519.9 179,520.1 181.2,508 C179.9,508.2 178.5,508.1 177.1,507.8 C174.1,510.6 175.2,488.4 174.8,486.3 C174.7,463.6 175.8,440.8 173.4,418.2 L169.3,430.3 C159.7,458.5 150.2,486.9 142.7,515.8 C142.2,517.5 140.4,517.7 139.2,517 C134.3,516.8 129.4,516.3 124.5,515.6 C124.4,517.9 124.3,520.2 124.2,522.5 C126.3,523.6 124.9,530.8 125.1,533.2 C127.4,538.4 118.2,548.5 115.1,552.8 C109.7,560.3 104.4,570.9 93.9,571.3 L93.6,571.3 C85.8,571.5 77.9,571 70.2,569.9 L69.3,569.8 C67.1,569.4 64.6,568.9 63.3,566.9 C62.2,565.2 62.4,563 63.7,561.7 C61.9,555.4 68.7,551.6 72.5,547.7 C79.6,540.9 86,533.4 91.6,525.3 L91.9,524.6 C93,522.1 94.2,519.4 96.1,518.3 C97.9,515.4 99.5,512.3 101.2,509.3 C96.6,507.6 92.2,505.8 87.8,503.8 C86.9,503.4 86.6,502.3 86.8,501.5 L86.8,501.4 C95.4,456.9 105.7,412.6 113.7,368 C118.8,326.8 120.9,285.2 131.7,244.9 C126.4,244.4 121.2,242.9 116.1,241.6 C112,240.7 109.9,238.7 110.8,234.3 C111,230.5 111.8,226.7 112.2,222.8 C111.1,222.1 110.1,221.3 109,220.4 C107.1,221.9 105.1,223.2 103.1,224.5 C98.2,228 94.4,228.5 91.4,222.8 C82.7,209 74.2,195 66.3,180.7 C58.9,167.1 49.8,153.4 47.9,137.7 C45.2,109.3 78.5,64 95.1,40.9 C104.3,29.8 115.5,18.4 130.1,15.2 C134.6,14.5 139.3,14.4 143.6,12.8 C143.9,10.7 144.9,8.8 147.1,8.3 C149.4,7.8 151.9,7 154.2,6.9 C154.8,6.8 155.4,6.7 155.9,6.8 C157.5,2.7 157.8,-2 159.6,-6.1 Z M70.4,565 C70.8,565.2 71.2,565.4 71.6,565.5 C72.1,565.6 72.6,565.7 73.2,565.7 C72.2,565.5 71.3,565.3 70.4,565 Z M122.2,524.7 C114.6,527.5 112.5,514.5 97.4,519.8 C91.5,530.7 83.9,540.6 75.2,549.4 C72.1,553.2 63,557.6 67.9,563.2 L68.7,563.4 C77.2,564.9 85.9,566.1 94.6,565.4 C101.2,563.6 106.2,558.3 110.2,553 C113.1,547.9 116.5,543.1 119.9,538.3 C121.8,536 122,532.9 122,530 C122.1,528.3 122.1,526.5 122.2,524.7 Z M208.2,518.3 C204.9,517.2 201.6,518.3 198.6,519.7 C193.6,522 182.6,524.7 178,521.1 C175.7,524.9 174.9,529.1 175.5,533.4 L175.5,533.7 C175.6,535.5 175.8,536.9 178,537 L184.1,538.6 C204.6,543.7 225.3,548.7 246.5,550.1 C252.1,546.6 252.3,542 246.3,538.7 L244.7,537.8 C233,530.6 220.9,523.5 208.2,518.3 Z M252.8,548.3 C252.8,548.4 252.7,548.5 252.7,548.6 C252.7,548.6 252.8,548.7 252.9,548.7 C252.9,548.6 252.9,548.4 252.8,548.3 Z M102.3,509.7 C102.4,511.3 101.6,513.1 101,514.5 C100.7,515.4 100.4,516.6 99.9,517.6 C112.7,513.8 116.6,524.9 121.3,522.6 L121.4,522.5 L121.4,522.5 C120.5,520.4 121.5,517.3 122.1,515.2 C115.4,513.9 108.7,512 102.3,509.7 Z M204,506.3 L200.2,506.4 C194.5,506.6 188.7,506.7 182.9,506.7 C183.5,510.9 182.4,517.7 179.7,520.9 C179.7,520.9 179.7,520.9 179.7,520.9 C187.3,522.1 194.5,518.6 201.2,515.7 C201.5,512.5 202.8,509.3 204,506.3 Z M179.1,518.9 L178.4,520.2 L178.4,520.2 C178.5,520.3 178.7,520.4 178.8,520.5 C178.7,520 178.9,519.4 179.1,518.9 Z M101.5,509.4 C101.3,510 101.2,510.5 101,511.1 C101.3,510.5 101.5,510 101.9,509.6 L101.5,509.4 L101.5,509.4 Z M182.5,506.7 L182.1,506.7 L182.1,506.7 L182.1,507 L182.1,507 C182.2,507.1 182.2,507.3 182.1,507.5 C182.1,508.2 182.1,508.9 182,509.6 L182.2,508.8 C182.3,508.1 182.4,507.4 182.5,506.7 Z M177.4,506.5 L177.4,506.8 L177.4,506.8 C177.9,506.8 178.4,506.8 179,506.8 C179.2,506.8 179.5,506.8 179.8,506.7 C179,506.7 178.2,506.6 177.4,506.5 Z M269.8,209.4 C269.5,209.7 269.3,209.9 269,210 C269,216.9 267.6,223.6 263.8,229.5 C262.2,231.6 261.3,234 260.6,236.5 C256.6,247.8 255.8,260 257.3,271.8 C261.2,266.1 262.8,259.2 263.9,252.4 C264,252.1 264.5,252.1 264.6,252.4 C265.9,259.7 263.6,266.8 260.9,273.5 C259.2,274.7 259.6,277.9 259.4,279.8 C288.4,284 278.3,228.4 282,211.2 C282.1,210.7 282.5,210.4 283,210.3 C278.6,209.6 274.2,209.5 269.8,209.4 Z M133.1,243.6 C133.2,243.8 133.2,244 133.2,244.2 L133.4,243.7 L133.4,243.7 C133.3,243.6 133.2,243.6 133.1,243.6 Z M152.8,8.1 L152.2,8.3 C146.9,9.7 145.1,9.5 144.8,15.9 C143.5,24.7 138.7,32.4 136.5,40.9 C135.6,43.9 136.5,49.4 140.7,48.6 C142,48.2 143.1,50 142,50.9 C139,53.8 136.1,56.7 133.2,59.6 C145,99.3 160.3,138 178.9,175 C179.6,176.5 177.4,177.8 176.7,176.3 C158.2,139.2 142.8,100.5 130.8,60.8 L130.4,59.6 C129.9,58.1 136.7,52.9 137.9,51.2 C125.6,45.2 142.8,24.4 143.2,14.4 C139.7,16 135.7,15.4 132,16 C124.8,17.3 118.6,21.4 113,25.9 C90.3,45.9 75.8,73.6 61.3,99.7 C51.5,116.7 46.7,137.5 56.6,155.6 C68.1,178.9 81.4,201.3 95.5,223 C97.1,225 99.5,222.7 101.1,221.8 C110.5,216.2 118.6,208.6 124.8,199.6 C109.7,181 96.5,160.7 87.1,138.6 L87,138.3 C84.9,134.1 83.3,129 86.8,125.1 C99.2,109.2 110.2,92.3 120.6,75.1 C120.7,74.9 120.9,75.1 120.9,75.2 C119.8,77.7 118.7,80.1 117.5,82.4 C119.9,117.5 119.5,153.3 120.5,188.6 C123.2,192.2 126.1,195.8 129,199.3 C138.4,192.8 149.5,188.6 160.9,187.3 L161.6,187.2 C166.4,186.7 174.4,185.8 175.1,192.1 C174.3,199.8 158.3,195.4 153.2,199.8 C161.6,203.2 171.2,204.1 178.8,209.2 C181.3,210.7 186.1,215.2 181.4,217 C179.4,217.2 177.2,216.4 175.2,216.2 C177.5,217 179.6,218.3 181,220.3 C181.9,221.8 182.7,224.7 180.3,225.3 C175,225.5 169.7,223.7 164.5,222.9 L164.9,223.1 C168.8,224.6 174.7,227.4 169.6,231.6 C164.4,234.2 158.2,229.7 153.1,228.5 C139.2,225.3 129,234.1 114.9,224.6 C114.5,227.7 113.9,230.9 113.6,234.1 L113.6,234.3 C113.1,237.2 113.5,238.3 116.7,238.8 C120.5,240 124.5,240.3 128.4,240.5 C147.4,241.5 166.6,240.8 185.4,238.4 C188.2,237.7 194.5,238.4 195.7,235.4 C193.6,158.5 161.5,86.1 152.7,10.2 C152.5,9.5 152.5,8.7 152.8,8.1 Z M206.4,14.7 C204.8,14.8 203.4,15.1 201.9,15.3 C202.8,17 207.2,19.5 206.8,20.4 C207.1,20.7 207.4,20.9 207.7,21.1 C207.3,19.5 206.8,17.9 206.4,16.3 C223.1,57.1 225.4,105.4 227.6,149.9 C228.4,172.3 228.8,194.9 227.7,217.3 C227.1,223.2 225.5,229.3 225.9,235.3 C235.7,236.7 245.7,236.8 255.6,235.8 C255.9,235 256.2,234.2 256.6,233.5 C271.4,215.5 263.5,192.9 256.4,173.4 C252.1,173.6 247.8,173.3 243.5,173.4 C244.8,177.5 245.1,181.8 245.9,186.1 C246.3,189.1 247,192.1 247.7,195.1 L247.9,196 C248.1,197.1 248.5,198.3 248.1,199.3 C247.7,200.4 246.4,200.8 245.5,200 C244,198.2 244.1,195.5 243.6,193.3 L243.5,192.6 C242.7,186.3 241.5,179.7 243.1,173.4 C241.6,173 237.3,174.3 237.1,172.2 C237.2,168.7 234.7,161.3 237.5,159 C239.1,157.8 241.9,158.2 243.9,158.1 C246.1,158 248.3,157.9 250.6,157.9 C232.6,114.5 237.6,101.2 239.4,58 L239.5,56.7 C239.5,56.4 239.9,56.3 240,56.6 C242.7,74.3 239.1,92.2 240.8,110 C243.9,143.7 265.3,172.6 268.8,206.2 C276.5,205.3 284.3,206.4 291.8,208.3 C292,206.9 292.1,205.6 292.2,204.2 C293.6,179.2 284.8,154.8 274.5,132.4 C268.4,120.5 264.6,107.7 263,94.4 C259.9,77.1 253,60.8 246.1,44.7 C241.7,32.6 232.3,29.8 220.6,28.4 C224.5,34.9 228.4,41.5 232.4,48.1 C233.2,50 230.6,51.5 229.4,52.7 C243.8,60.5 235.4,84.7 235.7,98.3 C234.6,110.7 234.2,123.3 232.3,135.7 C232.2,136.5 230.9,136.3 230.9,135.5 C231,116.9 233.2,98.4 234.2,79.9 L234.3,78.6 C235.1,69.8 235.8,57.2 225.3,54.8 C223.9,54.5 223.8,52.4 224.9,51.8 C226.4,50.9 227.7,49.9 228.9,48.7 C224.9,41.9 220.9,35.2 216.9,28.4 L216.7,28.1 C213.9,23.3 211.3,17.7 206.4,14.7 Z M172.1,191.6 C171,188.2 159.7,190.4 156.7,190.8 C145.6,192.9 134.4,197.8 125.9,205.4 C125.4,205.8 124.8,205.8 124.3,205.6 C120.5,210.4 116.1,214.8 111.3,218.6 C112.2,219.3 113.1,220 114,220.6 C114.5,220.7 114.9,220.9 115.1,221.3 C128.3,230.9 138,223.4 151.7,225.2 C156.8,226.2 161.6,229.5 166.8,229.6 C170.7,228.7 167.3,227.1 165.5,226.5 C161.4,224.5 157.2,222.7 153,221 L149.7,219.6 C148,218.9 148.6,216.4 150.4,216.8 C153.7,217.6 156.9,218.3 160.1,219 C166.3,220.3 172.7,221.9 179,222.5 C177.6,218.6 162.8,214.5 158.5,212.9 C156.8,212.1 152.2,212.3 152.7,209.8 C153.1,207.4 158.1,210.1 159.7,210.3 C166.4,212 173.3,213 180.1,214.1 C172.8,206.7 161.4,206.1 152,202.6 L151.8,202.6 C150.1,202.2 147.8,201.4 149.2,199.5 C154,192.4 173,196 172.1,191.6 Z M158.3,152 C161.7,149.2 163.5,155 163.3,157.7 C163.5,159.9 163.6,162.1 163.8,164.3 C163.6,166.1 165.4,172.4 162.9,172.5 C152.1,171.9 141.3,172.1 130.4,171.4 C130.4,173.6 130.3,175.8 130.4,178 C130.4,180.7 131.3,183.4 130.7,186.2 C130.4,187.4 128.7,187.6 128.1,186.5 C126.1,181.8 127.4,175.8 128.8,171.1 C123.5,170.1 122.8,165.1 124.2,160.7 L124.2,160.4 C124.1,159.1 124.1,157.6 124.7,156.5 C126.4,154.6 129.8,155.8 132,155.7 C138.9,155 146,154.8 152.8,153.5 C154.6,153 156.4,152.1 158.3,152 Z M115.2,86.9 C109.8,97.2 103.6,107 97,116.6 C95.6,118.6 94.1,120.6 92.6,122.6 L92.5,122.8 C89.5,126.6 86.3,129.8 89.1,134.8 C96.5,152.5 106.2,169.2 117.6,184.6 C116.9,152.1 116.2,119.5 115.2,86.9 Z M250.8,158.5 C237.2,161.3 237,156 239.2,171 C244.7,171.1 250.1,170.9 255.5,171 C254,166.8 252.4,162.6 250.8,158.5 Z M159.8,154.2 C152.8,156.7 145.2,156.3 137.8,156.6 C137.9,158.2 130.3,156.7 128.8,156.9 L128.3,156.9 C127.1,156.8 125.6,156.8 125.6,158.3 C126,160.8 124.5,163.7 125.4,166.2 C126.6,169.6 131.8,169.2 134.7,169.3 C139.4,169.4 144.1,169.5 148.8,169.6 C153,169.8 157.3,170 161.5,170 C161.1,167 161,163.9 160.8,160.9 C160.5,158.7 160.9,156.1 159.8,154.2 Z M189.6,165.2 C189.6,165.2 189.6,165.2 189.6,165.3 C189.7,165.3 189.7,165.2 189.8,165.2 L189.9,165.2 L189.9,165.2 C189.8,165.2 189.7,165.2 189.6,165.2 Z M210.1,29.8 C207.1,35 202,38.4 195.9,38.4 C185.1,39.1 174.3,38.3 163.8,35.8 C162.3,35.4 160.4,35.1 159,34.3 C167.1,78 180.2,120.5 189.3,164 C196,164.6 202.7,164.5 209.3,164.2 C214.5,164.1 219.7,164.7 224.8,163.9 L224.6,158.5 C223.4,115.3 221.6,71.6 210.1,29.8 Z" id="🖍-Ink" fill="currentColor"></path></g><g id="Head" stroke-width="1" transform="translate(95.9, 42.7)"><g id="head/Twists"><path d="M16.1,24.3 C17.4,23 18.9,22 20.7,21.7 C19.1,22.4 17.6,23.3 16.1,24.3 Z M13.7,35.6 C13.5,34.6 13.4,33.6 13.3,32.6 C13.6,33 14,33.3 14.5,33.4 C14.2,34.2 13.9,34.9 13.7,35.6 Z M96.1,51.4 C94.7,45.5 88.1,34.1 86.5,32 C84.8,26.5 94.1,22.2 89.1,18 C86.8,16.1 83.7,15.4 80.9,14.7 C61.3,10 40.2,12.4 22,21 C19.2,20.4 16.4,21.6 14.3,23.6 C4.9,33.1 17.8,50.2 20.6,60.9 C25.4,72.8 15.5,74.8 16.5,84.9 C17.4,90.1 22.7,91.5 27.1,92.3 C27.8,92.4 28.8,92.5 29,93.2 C29.7,97.6 32.2,101.8 35.6,104.7 C35.3,105.5 35.5,106.6 36.5,107.3 C45.8,114.2 57.5,117.7 69.1,117.1 C83,116.3 90.1,108.4 91.8,106.4 C101.4,93.5 100.2,76.6 98.3,61.2 C96.9,50.6 98.7,61.9 96.1,51.4 Z" id="🎨-Background" fill="#FFFFFF"></path><path d="M53.5,2.3 C53.9,0.9 55.2,0.1 56.6,0.3 C57.8,0.4 59.2,1.6 59,3 C59,3.3 58.9,3.5 58.9,3.7 L58.9,3.7 L58.9,3.7 L58.9,3.7 L58.9,3.8 C58.8,4.3 58.7,4.7 58.5,5 C58.2,5.7 58,6.4 57.8,7.1 C58.1,7.1 58.4,7.2 58.8,7.2 C59.1,6.3 59.5,5.4 59.9,4.5 C60.2,3.5 60.5,2.3 61.3,1.5 C62.2,0.5 63.9,0.3 65.1,1 C66.3,1.8 66.8,3 66.5,4.4 C66.4,5.1 65.9,5.6 65.3,5.9 L65.2,6 L64.8,7 C64.9,7 65.1,6.9 65.2,6.9 C65.5,6.8 65.7,6.8 65.9,6.7 C66.6,5.6 67.3,4.4 68,3.3 C68.9,2.1 70.5,1.5 71.9,2.3 C73.1,3.1 73.8,4.9 72.9,6.2 C72.2,7.1 71.6,8.1 71,9 C71.1,9.1 71.2,9.1 71.3,9.1 C71.3,9.1 71.4,9 71.4,8.9 C72.1,8.1 72.9,7.5 73.7,6.8 C74.5,6.1 74.8,5.1 75.8,4.6 C77.1,3.9 78.6,4.2 79.4,5.5 C81,8.2 78.3,10.1 76.5,11.7 C78,10.8 79.6,10 81.2,9.2 C82.1,8.8 83,8.4 84,8.1 C85.3,7.5 86.5,7.7 87.6,8.7 C88.1,9.1 88.3,10 88.1,10.6 C87.7,11.8 86.9,12.5 85.7,12.9 C84.8,13.1 83.9,13.3 83,13.6 C81.6,14 80.1,14.5 78.7,15.1 C78.8,15.2 78.9,15.3 79,15.3 C80.1,15 81.1,14.7 82.2,14.5 C83.9,14.1 85.7,13.8 87.5,13.6 L88.1,13.5 C90.3,13.3 92.9,13 94.2,15 C94.6,15.7 94.7,16.8 94.2,17.5 C93.3,18.8 92.3,19 90.8,19.1 C92.3,19.2 93.8,19.4 95.3,19.6 C96.3,19.8 97.4,20 98.4,20.2 L98.9,20.3 C100.1,20.5 101.5,20.7 102.6,21.4 C104.9,23 103.8,26 101.3,26.3 C100,26.5 98.6,26 97.4,25.7 C96.2,25.5 95,25.3 93.8,25.1 C93.2,25 92.6,24.9 91.9,24.8 C93.2,25 94.5,25.3 95.7,25.6 L96,25.7 C98.4,26.5 101.6,27.6 102.4,30.1 C102.8,31.7 101.6,33 100.1,33.1 C98.7,33.2 97.6,32.4 96.4,31.8 C95.5,31.3 94.7,31 93.7,30.7 C92.8,30.4 91.8,30.2 90.8,30 C91.7,30.4 92.5,30.9 93.2,31.5 L93.6,31.8 C95.6,33.3 98.8,35.7 98.1,38.5 C97.8,39.4 96.8,40.3 95.8,40.2 C93.3,40 91.9,37.3 90,35.8 C89.5,35.5 89,35.1 88.4,34.7 C91.3,38.2 93.6,42.1 95.3,46.2 C99.2,55.2 100.4,63.6 100.4,73.3 L100.4,73.6 C100.4,78.9 100.3,84.4 99.7,89.7 C99.3,94.6 98.4,99.5 96.1,103.9 C92.4,111.4 85.1,117.2 77,119.4 C68.1,121.9 58.1,120 50.7,114.3 C48.9,112.8 51.4,109.7 53.3,111 C60.9,116.4 70.8,118.1 79.5,114.4 C86.5,111.6 92.1,105.4 94.5,98.3 C96,93.8 96.4,89 97,84.2 L97,83.9 C97.6,79 97.9,74.1 97.9,69.1 C97.9,59.9 96.6,52.3 92.5,44 C90.6,40 88.1,36.4 85.1,33.2 C84.2,33.4 83.3,33.1 82.4,33 C81.9,33 81.5,32.9 81,32.9 C81.5,33.2 81.9,33.5 82.4,33.8 L83,34.3 C84.9,35.6 87.2,37.1 86.8,39.7 C86.6,40.4 85.9,41 85.2,41.2 C82.8,41.8 81.1,39.4 79.5,38 C78,36.8 76.5,35.7 75,34.6 C74.6,34.3 74.3,34.1 73.9,33.8 C74.2,34.2 74.6,34.6 74.9,35 L75.3,35.6 C76.8,37.4 78.8,39.6 77.5,41.9 C77.2,42.6 76.4,43 75.7,43 C73.2,42.9 72.1,40.1 71,38.3 C69.9,36.7 68.8,35.2 67.7,33.8 C67.4,33.4 67,33 66.7,32.6 C61.4,32.8 56.1,33.6 50.9,34.7 C47.3,35.4 43.8,36.4 40.3,37.5 L40,37.6 C38.1,38.2 36.2,39 34.8,40.3 C34.6,41.3 34.8,42.2 35,43.1 L35.1,43.8 C35.7,46.8 36.1,49.7 35.8,52.7 C35.5,55.8 34.6,58.6 33.4,61.5 C32.9,62.8 32.3,62.6 32.1,64 C32,65.1 32.1,66.3 32.2,67.4 L32.3,68.4 C32.5,70.9 32.6,73.6 30.9,75.6 C30.7,75.9 30.1,75.8 30,75.5 C29.9,75.4 29.8,75.3 29.7,75.1 C28.9,74 27.7,73.4 26.3,73.1 C26.2,73.1 26.2,72.8 26.4,72.8 C27.6,72.7 28.7,73 29.6,73.6 C29.2,72 25.7,72.8 24.6,73.1 L24.5,73.1 C23.1,73.5 21.8,74.1 20.6,75 C18.2,76.7 16.8,79.4 16.9,82.4 C17,85.3 18.5,88 21.1,89.4 C22.3,90 23.7,90.3 25.1,90.3 C26.6,90.3 27.9,89.7 29.4,89.8 C30.2,89.8 30.9,90.7 30.4,91.5 C30,92 29.6,92.5 29.1,92.8 C30.3,95.6 31.9,98.2 33.6,100.6 C34.6,102 35.7,103.2 36.9,104.4 C37.9,105.3 40,106.3 39.9,107.8 C39.8,108.3 39.5,108.7 39,108.8 C37.5,109.5 35.7,107.3 34.7,106.3 L34.6,106.2 C33.3,105 32.2,103.6 31.1,102.1 C29.4,99.5 28.3,96.5 27.8,93.4 C25.4,94.1 22.1,93.4 20.1,92.5 C13.9,89.7 11.8,81.3 15.6,75.7 C16.4,74.6 17.3,73.7 18.3,73 C18.1,72.8 17.9,72.7 17.7,72.5 C16.6,71.3 15.9,69.9 15.1,68.5 L15.1,68.3 C14.4,67.2 13.8,65.9 13.2,64.7 L13,64.2 C11.7,61.4 10.5,60.2 9.6,57.3 C8.7,54.4 8,51.5 7.5,48.5 L7.4,47.8 C7.1,46.1 6.9,44.2 7.1,42.5 C5.7,42.9 4.4,43.2 3.1,42.5 C2.2,42.1 1.7,40.8 2,40 C2.2,39.3 2.6,38.8 3.1,38.4 C2.8,38.2 2.5,38 2.3,37.9 L2.1,37.7 L2.1,37.7 C1.3,37 1.2,35.7 1.7,34.8 C1.8,34.7 1.8,34.6 1.9,34.6 C2.3,33.7 3.3,33.2 4.2,33.2 C4.4,33.2 4.5,33.2 4.7,33.2 C4.2,33.1 3.8,33 3.4,32.7 C1.6,31.6 1.8,28.5 4,28 C5,27.8 6,27.8 7,28.1 C7,28.1 7,28 6.9,28 C6.1,27.5 5.5,26.6 5.6,25.7 C5.6,24.6 6,23.8 6.9,23.3 C7.7,22.8 8.9,22.8 9.7,23.3 C10.4,23.8 11.1,24.3 11.7,24.8 C11.1,24 10.5,23.1 10.3,22.2 C10,21 10.5,19.7 11.5,19.1 C12.3,18.6 13.2,18.7 14,19 C14,18.4 14.1,17.8 14.5,17.3 C15.4,16.1 16.9,15.5 18.2,16.3 C18.4,16.4 18.6,16.6 18.9,16.8 C18.4,15.4 18.8,14 20.3,13.3 C21.2,12.9 22.5,13.1 23.3,13.8 C22.8,11.1 26.8,9.1 28.3,11.9 C28.7,12.5 29,13.2 29.4,13.9 L29.5,14.1 L29.5,14.1 L29.4,13.9 L29.4,13.9 L29.3,13.8 C28.9,12.8 28.3,11.7 28.2,10.6 C28,9 28.7,7.5 30.4,7.2 C31.4,7.1 32.4,7.5 33,8.2 C32.6,5.7 35.5,3.9 37.5,5.8 C38.4,6.7 38.9,8 39.5,9.1 C39.9,9.7 40.2,10.4 40.6,11 C40.7,10.9 40.8,10.8 40.9,10.7 C40.4,9.2 40,7.6 39.6,6.1 C39.3,4.6 40.1,3 41.6,2.6 C43,2.2 44.7,3.1 45,4.6 C45.3,5.6 45.5,6.6 45.8,7.7 C46,7.6 46.2,7.6 46.4,7.6 C46.4,7.4 46.4,7.2 46.4,7 L46.5,6.3 C46.7,4.7 46.8,2.9 47.7,1.6 C49.1,-0.7 52.6,0.3 52.7,3 C52.7,4.4 52.1,5.7 51.9,7.1 C51.9,7.7 51.8,8.3 51.8,8.9 C52.2,6.9 52.7,4.9 53.3,3 C53.4,2.7 53.4,2.5 53.5,2.3 Z M22.6,79.9 C25.7,79.5 28.6,81.2 30.5,83.7 C30.8,84.1 30.6,84.7 30.3,85.1 C30,85.4 29.8,85.4 29.4,85.5 C29,85.5 28.5,85.2 28.4,84.9 C27.2,82.5 25,81 22.6,80.1 C22.5,80 22.5,80 22.6,79.9 Z M26.9,37.1 L27,37 C27.7,36.4 26.7,35.4 26,36 C25.3,36.7 24.9,37.6 24.5,38.4 C24.1,39.2 25.3,40 25.7,39.2 L25.9,38.8 C26.2,38.2 26.5,37.6 26.9,37.1 L26.9,37.1 Z M18.1,35.8 C19,35.6 18.6,34.3 17.7,34.4 C16.6,34.6 15.4,34.8 14.2,35 C13.3,35.2 13.7,36.6 14.6,36.4 C15.8,36.2 16.9,36 18.1,35.8 Z M71.9,26.4 C71,26.1 70.6,27.5 71.5,27.8 C72.7,28.2 73.9,28.6 75,29.2 C75.8,29.6 76.5,28.3 75.7,27.9 C74.5,27.3 73.2,26.9 71.9,26.4 Z M17.9,24.6 C17,24.3 16.7,25.6 17.5,26 L20.6,27.2 L20.6,27.2 C21.4,27.5 21.8,26.2 21,25.8 L17.9,24.6 L17.9,24.6 Z M82.6,21.3 L82.5,21.2 C81.7,20.7 81,21.9 81.8,22.4 C82.2,22.7 82.8,22.9 83.2,23.2 L83.3,23.3 C83.9,23.9 84.9,22.9 84.3,22.3 C83.8,21.9 83.2,21.6 82.6,21.3 L82.6,21.3 Z" id="🖍-Ink" fill="currentColor"></path></g><g id="face/Smile" transform="translate(37.8, 44.1)" fill="currentColor"><path d="M34.8,57.1 C33.2,56.5 31.8,55.4 30.8,54 C30.4,53.5 30.3,53 30.4,52.5 C30.5,52 30.8,51.5 31.2,51.2 C31.6,50.9 32.1,50.7 32.7,50.8 C33.1,50.9 33.5,51.1 33.9,51.6 L34,51.7 C34.6,52.6 35.4,53.3 36.3,53.7 C37.2,54.1 38.2,54.3 39.2,54.2 C41.2,54 42.5,52.9 43.9,51.5 C44.1,51.3 44.3,51.1 44.5,50.9 C44.6,50.8 44.7,50.7 44.9,50.6 C45.1,50.5 45.3,50.5 45.5,50.6 C45.7,50.7 45.9,50.8 46,51 C46.1,51.1 46.2,51.3 46.2,51.6 C46,53.1 45.3,54.4 44.2,55.4 C42.9,56.6 41.3,57.4 39.8,57.6 C38.1,58 36.4,57.7 34.8,57.1 L34.8,57.1 Z M40.6,34.2 C42.4,35.3 45.1,37.8 43.2,40.5 C40.9,42.9 37.6,40.2 36,39 C34.5,38 32.8,40.5 34.2,41.6 C45.9,50.2 50.6,34.5 41.5,32.9 C40.5,32.8 40.1,33.9 40.6,34.2 Z M19.7,24.2 C19.9,21.8 23.6,21.2 24,23.6 C24.4,25.8 24,27.8 23,29.8 C22,31.6 19.7,30.8 19.5,29.1 C19.3,26.8 19.6,25.7 19.7,24.2 Z M48.2,23.1 C48.7,22.4 49.5,22 50.4,22.2 C53.2,23.1 52.4,27.1 51.4,29 C50.9,30.1 49.1,30.3 48.3,29.4 C47,27.9 46.4,24.9 48.1,23.4 C48.1,23.3 48.2,23.2 48.2,23.1 Z M22.9,13.5 L23.4,13.4 C24.8,13.2 26.5,12.9 27.5,14 C28,14.6 28.2,15.7 27.5,16.3 C26.2,17.3 24.9,16.9 23.4,17 C22.2,17 21,17.2 19.9,17.6 C17.3,18.3 15.2,19.6 13.1,21.1 C12.8,21.3 12.5,20.9 12.6,20.6 C13.9,18.2 16.3,16.2 18.8,14.9 C20.1,14.3 21.5,13.7 22.9,13.5 Z M45.6,12.4 L46,12.4 C49.7,13.2 54.5,14.8 56.3,18.4 C56.3,18.9 56.3,19 56.2,19.1 L56.2,19.1 C56.2,19.2 56.1,19.3 55.9,19.3 C55.8,19.3 55.8,19.3 55.7,19.3 C54.9,19.1 54.3,18.8 53.6,18.5 L53,18.2 C52.2,17.8 51.4,17.4 50.6,17.1 C48.8,16.6 47,16.2 45.1,15.9 C44.7,15.9 44.3,15.8 44,15.5 C43.8,15.3 43.5,15 43.4,14.6 C43.3,14.1 43.3,13.7 43.6,13.2 C43.8,12.9 44.1,12.6 44.5,12.5 C44.8,12.3 45.2,12.3 45.6,12.4 Z" id="🖍-Ink"></path></g><g id="facial-hair/*-None" transform="translate(29.2, 80.1)"></g><g id="accessories/Glasses-5" transform="translate(11.2, 57.1)" fill="currentColor"><path d="M87.2,17.6 C86.5,19.5 85.5,21.4 84.2,22.9 C79.2,27.2 74.3,24.8 71.8,19 C70.8,14.9 73.3,10.5 76,7.5 C79.9,3.6 86.1,5.7 87.9,10.3 C88,10.8 88.1,11.4 88.1,12 C88.1,13.9 87.9,15.6 87.2,17.4 M38.6,14 C45.2,6.1 57.7,5.6 57.4,17.8 C55.9,33.2 31.8,29.4 38.6,14 Z M89.3,7.4 C89,7 88.8,6.6 88.5,6.2 C88.4,6.2 88.3,5.6 88,5.6 C82.8,-0.1 73.8,3.1 70.5,8.8 C69.9,9.5 69.5,10.3 69.1,11.2 C65.9,10.6 62.1,10.7 59.1,11.9 C56.2,4.2 47.2,3.5 41.3,6.8 C37.6,8.6 35.2,12.4 31.7,14.5 C23.3,15.1 14.2,13.2 6,15.3 C-0.5,16.7 4.9,19.9 6,17.7 C13.8,15.4 23,17.4 31.1,16.9 C31.9,18.3 33.5,19.5 35.2,19.4 C36.9,34.7 59.3,32.2 60.1,18.6 C61,17.2 62,15.9 63.6,15 C64.2,14.9 64.8,14.7 65.3,14.5 C66.2,14.3 67.6,14.7 68.4,15.5 C71.3,32.5 87.6,30.5 90.6,15.6 C90.6,15.5 90.8,15.3 90.9,15 C91.9,13.6 94.4,13.1 94,10.9 C93.6,8.7 90.8,8.7 89.3,7.4 Z" id="🖍-Ink"></path></g></g></g></g></g></svg>