<svg viewBox="0 0 256 687" version="1.1" xmlns="http://www.w3.org/2000/svg" xmlns:xlink="http://www.w3.org/1999/xlink"><g id="Introduction" stroke="none" stroke-width="1" fill="none" fill-rule="evenodd"><g id="variations-standing" transform="translate(-1668, -904)"><g id="a-person/standing" transform="translate(1677, 854)"><g id="pose/standing/easing-2" transform="translate(-28.7, 150.3)"><path d="M270,238.3 C276.3,238.5 273.6,180.1 269.4,169.4 C268.8,167.2 268.3,164.2 268.4,161.5 C273.6,162.1 273,158.5 272.8,154.3 C272.9,150.9 273.1,143.9 267.9,146.6 C252.4,115.5 269.2,35.1 228.3,27.5 C223.4,26.4 218.3,25.1 214.1,21.7 C209.7,13.6 207.5,12.5 200.2,12 C198.9,4.7 196.3,-3.1 188.8,-5.9 C182,-8.6 174,-8.9 166.8,-7.4 C160.9,-5.5 160.3,5.5 159,11 C151,8.9 141.2,4.4 136.9,14.5 C134.8,13.9 132.9,14.3 130.8,15 C113,17.8 95.8,25.9 89.2,42.6 C85.2,52.6 88.1,63.6 89.6,74 C91,85.3 87.3,95.8 85.5,106.7 C82.9,121.7 82.5,133.7 84.2,144.9 C79.7,145.9 79.4,150 81.2,154.2 C81.7,155.7 82.2,157.2 83.4,158 C85.8,159.5 88.9,157.8 91.5,157.5 C92,163.5 93,169.4 94.8,176 C94.3,178 93.7,180.3 93.2,182.3 L93,182.1 C87.1,206.9 69.5,230.9 75,257.3 C75.3,258.2 75.9,258 76.4,258 C79.1,259 81.6,258.3 84.3,258.4 C90.8,258.5 97.1,259.3 102.9,260 C104,267 107.4,278.3 113.6,281 C113.7,281 115.5,280.6 115.7,280.6 C99.3,347.2 69.7,408.8 58,476.7 C57.9,477.5 59.3,477.1 59.7,477.2 C59.6,479.1 60.9,479.5 62.6,480.2 C60.4,484.8 58.4,489.4 56.2,494 C55.2,496.2 53.5,498.5 53.2,500.9 C50.8,502.5 49.2,505.5 49.2,508.3 C42.7,511.1 44.5,524.7 43,531.5 C41.5,541.5 34.3,548.6 29.4,556.8 C28.4,558.5 27.3,560.6 27.3,562.7 C24.2,564.1 23.1,567.3 23.3,572.5 C23.3,578.7 25,581 29.7,581.1 C42.4,582.4 57.2,581.9 70,580.4 C79.5,579.2 88,580.2 85.8,568.8 C85.4,566 86.2,562.3 84.6,560 C83.6,553.3 84.2,546.6 86.3,540 C87.7,534.4 89.9,522.9 89,515.4 C88.6,512 81.5,510.1 80.3,509.9 C80.7,507.3 80.5,502.8 79.1,500.9 C81.7,500.6 82.3,499.9 82.8,497.1 C84.1,492.4 84.3,487.4 87.5,483.5 C93.2,483.6 98.8,482.2 104.5,482 L104.8,481.3 C108.2,481.3 111.5,480.7 114.7,479.5 C115.4,479.9 116.3,480.1 116.7,479.1 L118.6,473.1 C140.8,402.7 165.3,332.1 189.2,262.2 C190.6,258.8 192.3,255.2 194.5,252.1 C195.2,294.9 204.2,337.7 204.9,380.4 C206,409.8 205.7,438.9 208.5,468.4 C209.2,474.7 209.9,474.5 210.9,474.1 C211.3,474.2 212.1,474.3 212.5,474.4 C211.9,480.6 211.2,490.7 208.5,497.1 C202.6,498 203.7,502.5 205,506.2 C203.6,507.4 203.8,510.2 204.2,511.8 C198.7,511.8 197.5,516.3 197.8,519.1 C198.4,523.9 198.1,531.3 201.2,535.3 C203.1,540.5 206.1,545.4 207.3,551 C208.1,555.1 207.8,561 208.5,565.1 C206.7,565.9 207.5,567.3 207.2,569.8 C205.6,581.4 211.1,579.4 220.9,580.2 C226.7,581.5 271.2,584.1 269.3,576.4 C269.6,573.2 268.2,571.8 267.5,568.7 C267.3,567.9 261.7,558.4 258.4,554.8 C247.3,544.4 247.8,530.4 248.1,514.3 C247.5,509.9 244.1,505.7 239.8,506.2 C241.1,501.5 238.8,497.5 234,496.1 C234.5,490.8 235,483.6 236.7,479.1 L235.1,477.4 L237.3,477.7 L238,475.8 L238.8,477.8 C242.6,477.8 246.9,477 250.5,476.6 C251.1,476.6 250.8,475.9 250.9,475.6 C254.3,474.9 254.7,473 254.1,468.7 C254.9,398.5 254.5,329 253.4,258.7 C258.8,258.9 264,256.9 269.2,255.7 C271.1,256.8 271.6,252.7 271.4,251.8 C271.1,247.1 270.5,242.6 270,238.3 Z" id="🎨-Background" fill="#FFFFFF"></path><path d="M160.4,1.2 C161.2,1.8 161.1,3.5 161.2,4.5 L161.2,4.6 C161.5,7.5 161.1,10.5 160.4,13.3 L160.3,13.6 C160,15 159.7,16.7 158.5,17.7 C157.3,18.7 155.4,18.1 155.4,16.3 C155.3,15.5 155.6,14.8 155.9,14 C153.6,14.9 151.2,15.8 148.9,16.7 C147.3,29.2 164.8,44.5 174.9,49.9 C189.6,58 202,45.5 203.9,30.9 C204.2,28.9 204.4,26.9 204.4,24.9 C204.5,23.3 204.1,21 205.2,19.6 C204.5,19.6 203.8,19.7 203,19.8 L203,19.9 C203.5,20.6 204.1,22.6 202.7,22.7 C199.7,22.4 198.4,17.2 197.6,14.7 C197.2,13 196.5,5.9 197.9,5.1 C198.4,6.8 198.2,8.6 198.7,10.3 C199.9,10.8 202.2,10.9 202.7,11 C208.9,11.1 212.4,15.5 214.9,20.7 C222.2,26.7 232.8,25.7 240.7,30.6 C264.9,48.2 257,116.5 269.1,145.6 C271.5,144.6 274,146.6 274.3,149.1 C274.6,150.9 274.5,152.9 274.5,154.8 L274.6,155.1 C274.8,159 275.4,163.3 270.2,163.4 C270.2,165.6 270.6,167.7 271.1,169.8 C274,182.5 275.3,195.6 275.6,208.6 L275.6,209.6 C275.7,216.4 275.8,237.6 271.8,240.1 L272,241.6 C272.5,245.3 272.9,249 273.1,252.8 C273.5,254.7 272.2,259.4 269.6,258.1 C264.8,259.3 260.1,261.1 255.1,261.1 C256.3,301.3 255.7,341.6 255.9,381.9 C255.5,411.6 257.1,441.5 255.7,471.1 L255.7,471.5 C256.1,474.8 256.2,477.7 252.4,478.9 C252.4,479.7 251.7,480.1 251,480.2 C248.9,480.5 246.8,480.8 244.7,481 C242.7,481.2 240.6,481.7 238.7,481.4 C238.8,481.6 238.3,481.6 238.3,481.5 C236.5,486 236,490.8 235.5,495.6 C239.9,497.3 242.2,501 241.5,505.6 C245.9,505.8 249.1,510.7 249.7,514.7 C250.1,517.6 249.8,520.4 249.6,523.2 C249,532.9 250.5,543.3 256.7,551 L256.9,551.3 C261,556 266,560.3 267.8,566.5 C268.2,566.7 268.6,567.1 268.8,567.8 L269.9,572.2 L269.9,572.2 L270.5,574.4 C270.9,576 271.3,577.6 271,579.3 L271,579.5 C269.9,590 226.8,584.9 218.4,584.2 C215.1,583.6 211.3,583.9 208.3,582.1 C204.6,579.7 204.1,574.7 204.7,570.6 L204.8,570.2 C205.1,568.4 205.4,566.4 207.2,565.4 C206.6,561.6 206.8,557.7 206.1,554 C205.1,548.6 201.9,544 200.3,538.8 C197.9,536.2 197.8,532.1 197.3,528.7 C196.9,525.5 196.6,522.2 196.5,518.9 C196.2,514.6 198.1,511 202.6,510.4 C202.4,509.6 203,508.9 203.6,508.4 C202.2,503.5 201.8,496.9 207.7,495.2 C210,489.7 210.6,483.7 211.2,477.8 C211.1,477.7 211.1,477.7 211,477.7 C208.1,478.9 207.4,473.1 207.3,470.9 C204.5,441.4 204.7,411.8 203.7,382.3 L203.6,380.2 C202.7,360.7 202.1,341.1 198.8,321.9 C195.4,300.5 194.5,278.8 193.3,257.1 C192,259.3 191.2,261.7 190.1,264 C175.8,306 161.1,347.9 147,390.1 C136.7,420.5 126.9,451.2 117.1,481.8 C116.6,483.4 115,483.7 113.8,483.2 C110.9,484.2 107.8,484.8 104.7,484.9 C104.5,485.4 104.1,485.7 103.6,485.6 C101.9,485.4 100,485.9 98.3,486.1 C94.5,486.5 90.8,487.1 87,487.2 C84.6,490.2 84.5,494.2 83.4,497.8 C82.7,499.6 82.8,503.7 80.6,504.2 C81.4,505.5 81.5,506.9 81.4,508.4 C82.1,508.5 82.8,508.8 83.4,509.1 C84,509.4 84.8,509.4 85.3,510.1 C97.5,512.3 88.6,535.4 86.4,543 C84.4,549.3 83.7,555.8 84.7,562.3 C86.1,564.3 85.6,567.3 85.8,569.7 C86,571.8 86.2,574 86.2,576.1 C85.9,584.9 75,583.5 68.9,584.6 C65.1,585 61.2,585.4 57.4,585.6 C47.6,586.2 37.8,586.2 28.1,585.3 C21.8,585.1 20.4,581 20.5,575.4 L20.4,575.2 C20.3,571.4 20.9,566.8 24.5,564.8 C24.7,562.8 25.7,560.7 26.8,559 C31.6,550.8 38.9,543.7 40.3,533.9 C41.7,527.5 40.1,513.4 46.6,510.1 C46.8,507.2 48.6,504.3 50.8,502.7 C51.2,500.3 52.8,498.1 53.8,495.9 C55.8,491.7 57.6,487.4 59.6,483.2 C58.6,482.8 57.5,481.9 57.3,480.8 C56.3,480.8 55.3,480.2 55.4,478.9 C55.8,475.4 56.6,471.9 57.3,468.4 L57.4,468 C70.5,404.8 97.4,345.8 113.2,283.5 C111.1,283.9 109.1,281.5 107.9,279.9 C104.1,274.8 101.9,268.6 100.9,262.3 L99.1,262.1 C93.2,261.4 87.2,260.7 81.2,260.9 L79.8,261 C78.2,261 76.6,261 75,260.4 C74,260.5 72.9,259.9 72.6,258.7 C68.2,236.6 79.1,215.6 86.9,195.7 C88.7,190.7 90,185.8 91.3,180.7 C91.3,180.5 91.6,180.5 91.6,180.7 C91.3,186.4 89.9,192.1 88.5,197.5 C83.8,216 74.1,234.1 76.5,253.7 C83.9,247.9 92.7,243.8 101.9,242.1 C102.4,239.8 103,237.5 103.5,235.2 C103,231.6 102.7,228 102.4,224.4 C101.2,213.6 99.5,202.9 97.2,192.3 C93.6,181.6 90.5,170.8 89.4,159.6 L89.2,159.6 C86.7,160.2 83.9,161.2 81.6,159.7 C80.2,158.6 79.5,157 78.9,155.4 C77.2,151.4 76.9,146.3 81.7,144.7 C79.9,132.2 81.1,119.2 83.2,106.9 C85,96.1 88.7,85.4 87.3,74.3 C85.8,63.7 82.8,52.6 87.1,42.2 C94,24.8 111.7,16.6 129,13.9 L129.3,13.8 C131.4,13.2 133.4,12.5 135.6,13 C140.9,3.2 149.4,7.2 157.8,9.4 C158.4,7.7 158.8,6 159.3,4.3 C159.5,3.5 159.5,1.5 160.4,1.2 Z M208.7,570.2 L208.7,570.6 C208.5,575.2 208.8,579.1 214.4,579.1 C218.3,579.5 222.3,579.9 226.2,580.2 L227.6,580.4 C239.3,581.4 251,581.9 262.6,580.4 L263.1,580.3 C264.1,580.1 265.9,580.2 266.6,579.5 C267.5,578.2 266.5,575.8 266.2,574.4 C248.2,574.2 230,573.5 211.9,573.7 C210,573.8 209.2,572.1 209.3,570.6 C209.1,570.5 208.9,570.3 208.7,570.2 Z M25,567.9 C24.2,571 24.4,573.9 24.9,577.1 C25.1,580.4 26.7,580.6 29.5,580.6 C40.5,581.7 51.6,581.4 62.7,580.6 C68.6,580 74.7,580 80.5,578.7 C83.2,577.4 81.6,573.6 81.7,571.2 C68.7,579.6 49,578.6 34.8,573.7 L34.6,573.6 C31.2,572.2 26.9,571.3 25,567.9 Z M46.6,511.4 C45.1,513.1 45.1,518.3 45,519.7 C44.9,523.1 44.9,526.6 44.7,530 C44.8,544.5 36.5,551.7 30.3,563.4 C28.6,566.2 31,566.6 33.1,567.5 C46.1,573.6 61.5,574.5 75.1,569.9 C81.9,567.9 80.4,563.3 79.8,557.6 C79.3,546.1 85.3,535.8 87.1,524.7 L87.2,524.3 C87.7,520.9 88.6,512.8 83.4,514.5 C82.3,515.2 81.2,514.4 81.1,513.3 C80.9,513.3 80.8,513.3 80.7,513.3 C80.1,517 79.4,520.8 78.8,524.5 C79.3,524.8 79.8,525.2 80.2,525.6 C80.7,526.1 80.4,527.1 79.6,527.1 C79.2,527 78.8,527 78.5,526.9 C78.1,530.1 73,528.3 74.5,525.7 C67.1,523.2 59,523.4 51.5,525.3 L51.5,525.4 C50.9,525.6 46.7,526.4 48.1,527.1 C48.6,527.1 47.3,527.9 47.1,526.7 C47,525.3 50.3,524.6 51.3,524 C48.8,520.4 47.1,515.8 46.6,511.4 Z M235.7,500 C228.7,496.3 220.2,497.7 212.6,498.3 L212.3,498.4 C210.4,498.6 207.7,498.7 206.8,500.7 C205.6,503.8 207.7,510.9 208.3,514.4 L208.7,515.7 C209.2,517.8 209.7,520 209.8,522.2 C209.8,522.3 209.8,522.3 209.7,522.3 C207.1,519.5 205.9,515.7 204.6,512.1 C204.1,512.4 203.6,512.7 203.1,513.1 C201.2,519.6 200.6,526.5 202.1,533.1 L202.1,533.4 C204,541.6 209.8,548.3 210.3,556.8 C210.7,560.3 210.6,563.8 211.6,567.2 C212.2,567.3 212.7,567.8 212.9,568.3 L216.1,568.3 C231.8,568.3 247.5,568.5 263.2,569.1 C262.7,564.7 258.8,560.8 256.1,557.7 C247.7,549.1 244,536.7 245.4,524.8 C246.1,518.8 249.5,509.4 241.3,507.2 C240.7,512.1 239.9,516.9 239.5,521.8 C241,522.6 240.9,524.5 239,524.5 C238.2,527.3 235.4,526.2 235.7,523.5 C225.3,519.7 219.4,518.4 209.3,524.2 C209,524.1 210.1,523 210.2,522.8 C213.4,519.4 218.3,517.7 222.9,517.7 C227.4,517.7 231.7,519.4 236,520.7 C236.7,516.1 237.1,511.5 237.6,506.8 L237.7,505.9 C238,503.4 237.9,501.4 235.7,500 Z M69.4,559.6 C70.9,559.2 72.3,558.7 73.8,559.1 C79.2,563.1 57.1,564.3 55.2,564 C50.4,563.9 45.6,563.2 41,561.9 L40.7,561.8 C40.1,561.6 35.7,560.4 36.5,559.8 C42.8,560.4 48.9,561.5 55.2,561.2 C58.4,561.1 61.6,560.9 64.7,560.4 C66.3,560.2 67.8,559.9 69.4,559.6 Z M215.7,554.5 C214.7,553 219.5,555 220.1,555 C224.1,556 228.2,556.8 232.3,557.1 C235.1,557.3 237.9,557.3 240.6,557.2 C242.7,557.1 244.7,556.8 246.7,556.6 L246.8,556.6 C248,556.6 250.4,557.3 248.9,558.8 C246.6,560.6 243.2,560 240.4,560.3 C232,560.2 223,558.9 215.7,554.5 Z M57,543.7 C59.5,543.3 72.9,543.1 71.5,547.3 C71.2,548 70.5,548.3 69.7,548.2 C61.4,546.2 52.4,545.1 44.2,547.9 C44.1,547.9 44,547.7 44.1,547.7 C48.2,545.6 52.5,544.2 57,543.7 Z M230.8,539.7 C233,539.5 235.2,539.6 237.4,539.8 L238.1,539.8 C239.1,539.9 240.1,540 241,540.3 L241.2,540.3 C242.4,540.7 245.1,542.8 243.1,543.8 C240.9,544.5 239,543.6 236.9,543.1 C230.9,541.7 224.7,542.2 218.8,543.6 L219.7,543.9 L219.7,543.9 C219.7,543.8 219.8,543.9 219.7,544 C219.1,544.5 218.3,544.3 217.9,543.6 C217.8,543.5 217.9,543.4 218,543.3 C222,541.2 226.4,540.1 230.8,539.7 Z M46.1,539.2 C52.8,536.2 60.5,535.9 67.7,536.8 L68.2,536.8 C70.5,537.1 73.4,537.2 74.7,539.3 C75.1,540 74.7,540.8 73.9,541.1 C71.8,541.9 69.4,540.3 67.3,539.8 C61.3,538.1 54.9,537.9 48.9,539.1 C48.9,539.3 47.9,539.2 47.7,539.3 C47.4,539.3 45.6,539.9 46.1,539.2 Z M215,534.6 C220.9,531.7 227.6,531 233.9,532.5 L234.2,532.6 C237,533.4 241.5,534.3 242.5,537.3 C242.7,537.9 242.2,538.8 241.5,539 C239.1,539.4 237,537.7 234.8,536.8 C228.5,534.4 221.3,533.9 214.7,535.6 C214.7,535.9 214.6,536.1 214.6,536.4 C214.7,536.3 214.8,536.5 214.7,536.6 C213.7,537.3 212.6,535.5 215,534.6 Z M61.1,529.6 C65.9,529.2 70.6,529.8 75.2,531.1 L76.1,531.3 C77.3,531.7 78.9,532.2 79.1,533.6 C79.2,534.1 79,534.5 78.6,534.8 C77,536 73.6,533.5 71.6,533.2 C64.4,531.1 56.7,531.1 49.4,532.7 L49.2,532.8 L49.4,534.1 C49.5,534.6 47.9,533.2 48.5,532.6 C52.4,530.6 56.9,529.9 61.1,529.6 Z M219.5,527.3 C223.3,526.6 227.2,526.5 231,526.9 L231.5,526.9 C233.8,527.1 241.2,527.4 239.4,531.3 C239.1,531.9 238.3,532 237.7,531.7 C235.9,530.8 233.8,530.4 231.8,530.1 C224.6,529.1 217.2,529.5 210.1,531.5 C210.3,531.7 210,532 209.7,532.1 C208.9,532.2 208.9,531.3 209.2,530.8 C209.6,530.3 210.4,530.1 211,529.8 C213.7,528.7 216.6,527.9 219.5,527.3 Z M75.7,505.8 L75.3,505.7 C68,504 52,500.9 50.3,510.9 C49.7,515.3 51.7,519.6 51.5,523.9 C59.1,520.9 67.4,520.9 75.2,522.9 C75.9,518.4 76.5,513.9 77.2,509.4 L77.3,508.8 C77.6,507.3 77.8,506.1 75.7,505.8 Z M59.6,507.6 C61.2,506.2 63.8,506.3 65.4,507.7 C66.8,508 67.8,509.5 67.8,510.8 C69.9,514.6 67.3,519.8 63.2,520.8 C54,522.7 49.8,510 59.6,507.6 Z M220.4,501.5 C228.1,500.2 231,510 224.6,514 C215.6,518.5 209.6,504.3 220.4,501.5 Z M63.4,479.7 C63.5,480.4 63.2,481 62.7,481.5 C61.1,488 58.7,494.1 56.4,500.3 C64.1,499 71.3,500.2 78.1,502.2 C78.2,500.3 79.1,498.4 79.7,496.6 C80.9,493.1 82.3,489.8 83.9,486.6 L84.1,486.2 C84.7,485 85.3,483.8 86,482.8 C78.5,481.7 70.9,480.8 63.4,479.7 Z M214.9,478.3 L214.7,479.2 C213.9,483.1 213,487.1 211.8,490.9 L211.7,491 C211.5,492 211.1,496.4 210.8,493.3 C210.6,493.8 210.4,494.2 210.1,494.7 L211.5,494.5 C218.6,493.7 226,493 233,494.8 C232.3,489.3 233.3,484 234.9,478.9 C228.2,478.7 221.6,478.8 214.9,478.3 Z M88.8,485.1 C88.6,485.3 88.3,485.5 88.1,485.8 C88.4,485.7 88.7,485.6 89,485.6 C89,485.4 88.9,485.3 88.8,485.1 Z M238.9,480.1 L238.7,480.4 C238.7,480.5 238.7,480.5 238.7,480.6 C238.8,480.5 238.9,480.4 239,480.4 C239,480.3 238.9,480.2 238.9,480.1 Z M117.2,155.8 C116.6,156.2 115.8,156.3 114.9,156.3 C107.3,156.6 99.7,157.5 92.2,159 C92.6,165.1 94.4,171 96.2,176.7 L96.5,178 C102.5,198.7 107.7,220.4 106.6,242.1 C106.7,242.1 106.7,242.1 106.8,242.2 C106.7,242.4 106.6,242.7 106.5,243 L106.5,243.1 L106.1,244 C105.9,244.5 105.7,245 105.5,245.5 C105.3,245.6 104.9,245.7 104.6,245.7 C102.8,257.2 104.5,270.1 112.3,279.1 C109,272.3 107.8,263.8 109.1,256.4 C109.9,257.2 109.9,259 110.2,260.2 C110.9,264.2 111.5,268.3 112.6,272.2 L112.8,272.6 C114,276.7 116.2,281.9 119.9,283.9 C120.6,284.2 121.7,283.9 122,284.8 C122.2,285.5 121.9,286.5 121.1,286.7 L121,286.7 C118.7,287.4 116.8,285.7 115.4,283.9 L115.3,284.8 C115.2,286.6 115,288.3 113.9,289.8 C113.8,290.3 113.7,290.8 113.6,291.3 C110.8,308.6 106.6,326.4 98.9,342 L98,344.7 C83.4,388.7 68.3,432.6 59.5,478.1 C68.8,477.2 78.1,477.6 87.3,478.5 C96,479.4 105.2,481.8 113.5,478 C136,409.1 159.3,340.4 184.8,272.5 C187.9,261.8 193.6,251.4 196.5,240.3 L196.7,239.7 C197.3,237.5 197.7,236.1 197.2,233.6 L197.1,233.3 C197,231.8 197,229.4 198.8,229 C199.1,228.9 199.5,229 199.7,229.2 C200.8,230.6 199.7,232.4 200.1,234 C201,240.3 198.5,246.1 195.6,251.5 C195.8,251.7 196,252 196,252.3 C196.2,255.6 196.2,259 196.4,262.3 C196.8,271.8 197.4,281.3 198.1,290.8 C200.5,308.2 203.8,325.5 205.6,343 C209.8,383.7 209,424.7 212,465.5 C212,469.1 213.2,472.8 212,476.3 C212.7,475.9 213.8,476 214.4,476.5 C226.6,475.7 238.9,476.1 251.1,475.4 C251.1,474.8 251.2,474.3 251.2,473.9 C250.9,473.1 251.4,472.2 251.4,471.3 C249.9,462.9 251.2,453.8 250.8,445.1 C250.9,436.9 250.9,428.7 251,420.5 C251.4,369.3 250.8,318.1 251.7,266.9 C251.8,264.3 251.9,261.8 252.1,259.3 C251.4,258.6 251.9,257.5 251.9,256.6 L251.9,255.8 C252.1,251.8 252.3,248 250.8,244.1 C250.8,243.6 250.9,243.1 251.2,242.8 C243.8,239.3 236.1,236.7 228.4,233.8 C227.2,234.1 225.6,233.3 225.3,232 C222.4,217.2 220.1,202.4 218.2,187.5 C205.4,195.9 189.8,197.2 175.3,200.7 L172.5,201.4 C165.7,203.1 158.6,205.2 153.5,210 C152.9,217.6 156.8,239.5 145.2,239 C141.4,240.1 137.4,241.1 133.5,241.6 C138.1,250.2 146.4,261.7 139.8,271.2 C138.9,272.3 137.6,271.2 136.7,270.6 C136.8,276.2 137,281.8 137,287.3 C137,288.1 136.2,288.7 135.5,288.5 C131.3,287 130.8,282 130.1,278.2 C129.5,274.8 128.9,271.5 128.4,268.1 C128,274.1 129.5,280.4 128.3,286.4 C127.1,289.9 123.6,288.8 122.5,286 L122.5,285.9 C120.4,280 119.3,273.8 118.9,267.6 L118.9,267.2 C118.8,265.3 118.6,263.4 119,261.5 C120,263.3 119.8,266.2 120.2,268.3 C120.9,272.9 121.9,277.5 123.3,281.9 L123.4,282.1 C124,284.7 126.5,289.7 126.4,283.4 C126.5,280.1 126.2,276.9 126.1,273.7 L126,273.2 C125.8,268.8 125.8,264.4 127.2,260.1 C127.5,259.1 129.3,258.9 129.5,260.1 C130.4,265.3 131.3,270.5 132.1,275.6 C132.7,278.8 132.7,282.4 134.6,285.1 C134.6,279.1 134.3,273.2 134,267.3 L133.9,267.1 C133.7,266.3 133.5,265.3 134,264.7 C134.2,263.3 136.2,263.5 136.3,264.9 C136.4,265.2 136.4,265.5 136.4,265.8 C137.1,266.6 137.7,267.4 138.5,268.2 C143.6,257.6 126.7,239.3 124.4,227.4 C117.5,204.2 121.5,179.8 123.5,156.2 C121.4,155.9 119.3,155.9 117.2,155.8 Z M59.3,478.9 C59.2,479.2 59.2,479.6 59,479.8 C59.2,479.8 59.3,479.9 59.4,479.9 C59.5,479.6 59.7,479.3 59.8,479.1 C59.7,479 59.5,479 59.3,478.9 Z M145.2,370.2 C145.4,370.1 145.5,370.4 145.3,370.5 C138.1,372.9 132.1,377.3 126.1,381.7 C125.3,382.3 124.5,381 125.1,380.3 C127.6,377.3 130.7,375.3 134.1,373.6 L134.3,373.5 C137.7,371.8 141.4,370.7 145.2,370.2 Z M213.4,365.7 C213.3,365.6 213.6,365.5 213.7,365.6 C215.3,367.8 217.4,369.9 219.4,371.7 C221.6,373.5 223.9,374.9 226.1,376.4 C227.3,377.3 226.3,379.1 225,378.4 C222.4,377.2 220.1,375.1 218.2,373 C216.2,370.7 214.8,368.4 213.4,365.7 Z M169.2,288.2 C161.3,301.4 149.7,314.7 141,328.3 C135.2,337 129.9,346 123.5,354.3 C122.2,356.1 119.7,354.6 120.6,352.6 C123,347.1 125.8,341.8 129,336.8 L130.1,335.2 C141.5,318.3 153.6,301.4 169.2,288.2 Z M202,268 C201.9,267.8 202.2,267.7 202.3,267.9 L202.3,267.9 C208.2,284.1 217.3,298.8 225.3,314 C225.9,315.3 224.2,316.8 223.3,315.6 C217.6,308.8 213.7,300.9 210.2,292.9 C206.5,284.9 204.3,276.4 202,268 Z M215.7,22.2 C219.3,29.4 221.9,37.1 223.8,45 C224.3,47.5 221.1,49 219.7,46.8 L219.7,46.8 C218.1,44 215.7,41.7 212.6,40.7 C210.5,49.5 211.5,58.8 212.6,67.6 C214.5,79.9 216.1,92.3 216.3,104.8 L216.3,105.5 C217,148.2 223.2,190.7 230.1,232.5 C241.1,234.2 251.1,239.2 261.3,243.6 C263,244.3 264.8,244.9 266.7,245.3 C261.6,197.9 242.2,153.5 236.3,106.3 C234.7,94 234.6,81.5 236.8,69.3 C236.8,69.1 237.2,69.2 237.2,69.4 C237.4,74.4 238.3,79.3 238.8,84.3 C239.1,81.5 239.9,78.6 240.6,75.8 C241.4,73.2 241.6,68.9 244,67.1 L244.1,66.6 L244.1,66.6 C244.2,66.4 244.5,66.5 244.4,66.7 C244.4,66.8 244.4,66.9 244.4,67 C245.8,67.4 244.5,69.2 244.1,70 C241.7,76.4 241,83.4 239.4,90 C241.7,110.6 246,130.9 251.2,150.9 C256,149.6 260.8,148.4 265.6,147.2 C254.9,112.2 261.2,73.1 245.1,39.7 C239.1,28.5 224.2,30 215.7,22.2 Z M134.2,15.8 C131.9,15.7 129.6,16.9 127.4,17.3 C124.5,17.9 121.7,18.3 118.9,19.1 C104.6,23.1 90.7,33.8 88.1,49.3 C86.4,60 90.8,70.3 90.6,80.9 C90.2,91.5 86.7,101.6 85.3,112 C83.7,122.6 83.2,133.7 84.6,144.4 C97.4,140.8 110.8,140.5 124,142.4 C122.9,126.2 124.4,109.9 125.2,93.7 C125.7,83.3 126.7,72.9 126.4,62.5 C126.4,62.2 126.7,62.2 126.8,62.4 C130.7,83.7 128.4,105.3 128,126.8 C127.8,132.2 128.4,137.7 128.2,143.1 C134.2,144.3 133.9,151.4 132.1,156 C131.8,157.1 130.7,156.9 129.8,156.8 C128.8,157.8 126.5,156.4 125.2,156.4 C124.2,183.1 117.9,211.5 130.7,236.4 C136.1,236.5 141.2,234.6 146.5,233.6 L146.7,233.5 L146.7,233.5 C147.5,232.5 147.9,230.9 148,229.7 C148.7,209.2 146.4,188.6 147.8,168.1 C149.4,145.4 154.5,122.7 152.1,99.8 C150.5,79.3 146.1,59.2 143.9,38.8 L143.8,37.7 C143.7,36.4 143.6,35 143,34.1 C139.4,37.4 136.3,41.3 134.2,45.7 C133,47.9 129.7,46.9 129.7,44.5 C129.2,40.2 129.2,35.9 129.6,31.6 L129.7,31.2 C130.3,25.8 131.9,20.7 134.2,15.8 Z M268.7,163.6 C264,163.9 259.4,164.4 254.7,164.3 L255.2,166.1 C260.8,187.3 266.8,208.5 270.4,230.2 L270.5,228.1 C270.6,226.1 270.8,224.1 270.8,222 C271.9,202.5 270.3,183 268.7,163.6 Z M255.1,163.6 L254.5,163.6 L254.5,163.7 L254.5,163.7 C254.7,163.7 254.8,163.7 254.9,163.7 L255.1,163.6 Z M270.2,149.3 C270.2,149.3 270,149.3 269.8,149.3 C269.6,149.8 269.1,150.3 268.6,150.4 L263.9,151.7 C260,152.8 256.1,153.8 252.2,154.8 C252.9,157.4 253.5,159.9 254.2,162.4 C259.5,160.7 265.4,161.1 270.8,160 C270.8,157.1 270.6,154.1 270.6,151.2 C270.5,150.7 270.6,150 270.4,149.5 C270.2,149.3 270.4,149.4 270.2,149.3 Z M91.5,159.1 L91.4,159.2 L91.4,159.2 C91.4,159.3 91.5,159.4 91.5,159.6 C91.5,159.4 91.5,159.3 91.5,159.1 Z M126.2,145.1 C116.1,143.6 106,142.8 95.8,143.7 C91.3,144.4 86.6,145 82.1,145.9 C80.6,148.3 82.3,154.1 84.3,156 C84.8,156.2 85.8,155.8 86.4,155.7 C90.6,154.7 94.8,153.9 99,153.3 C99.2,153.5 99.4,153.6 99.6,153.6 L100.6,153.5 C106.4,153 112.3,152.6 118.2,152.9 L118.2,152.9 L118.2,152.9 C122.2,153.2 126.1,153.9 130.1,154.3 C131.6,150.2 131.4,145.5 126.2,145.1 Z M199.1,11.6 C199.5,13 200,14.2 200.5,15.5 C201.1,15.3 202,15.5 202.4,15.8 L202.6,15.8 C203.1,15.7 203.7,15.6 203.9,15.5 C211.1,14.5 210.5,24.2 210.6,29 C210.6,31.4 210.6,33.9 210.7,36.3 C212.8,35.6 215.5,36.9 217.3,38 C215.9,33.3 214.2,28.7 212.4,24.1 L212,23.1 C210.6,19.5 209,15.8 205.9,13.3 C203.6,12.7 201.3,12.6 199.1,11.6 Z M147.2,9.2 C140.5,6.8 137.9,12.3 136,17.7 C133.9,23.7 133.3,30.3 133.6,36.7 L133.9,36.4 C136.3,33.1 139.8,27.7 144.3,28.6 C144.3,26.1 144.3,23.4 144.8,20.8 C144.5,19.1 144.5,17.4 144.7,15.7 C144.8,13.6 147.1,13.9 148.6,13.6 C149.9,12.8 151.4,12.4 153,13 C154.2,12.9 155.4,12.7 156.6,12.6 C156.8,12.2 157,11.7 157.1,11.3 C153.8,10.6 150.5,9.9 147.2,9.2 Z" id="🖍-Ink" fill="currentColor"></path></g><g id="Head" stroke-width="1" transform="translate(95.9, 42.7)"><g id="head/Long"><path d="M102.6,64 C101.7,49.3 96.9,32.5 82.8,25.3 C51.7,12.9 10.8,44.2 8.6,76.3 C7.9,87.2 14,99.2 25.1,102.3 C27.6,105.6 31.3,107.6 35,109.3 C79.1,132.1 107.6,113.6 102.6,64 L102.6,64 Z" id="🎨-Background" fill="#FFFFFF"></path><path d="M112.6,54.8 C111.1,50.5 109.4,46.2 107.7,42 C106,37.8 104.5,33.6 102.4,29.7 C89.9,6.1 67.1,6.1 55.4,9.2 C49.3,6.6 37.9,7.3 31.5,9.7 C21.2,13.5 8.7,28.6 4.4,35.3 C-5,50.3 -10.9,70.2 -4.7,87.4 C-3.8,89.7 -2.8,91.8 -1.6,93.8 C-2.3,94.8 -3.2,95.8 -4.2,96.7 C-7,99.5 -9.8,102.2 -12.2,105.3 C-14.6,108.4 -16.6,111.7 -18.1,115.4 C-20.9,122.3 -21.1,130.1 -17.3,136.6 C-14.1,142.3 -8.4,146.6 -1.9,147 C-1.6,147.1 -1.3,147.1 -0.9,147.1 C-0.1,148.5 1,149.8 2.1,151 C5.8,154.4 14.5,156.2 19.4,156.3 C19.7,156.5 20,156.7 20.2,156.9 C23.2,159.3 26.4,161.7 29.9,163.4 C32.3,164.5 35.4,165.5 37.8,164.7 C38.9,165.4 40.8,165.3 41.9,164.7 C43.7,163.7 45.2,161.9 46.1,160 C48.3,155.5 47.7,150.6 47.2,145.8 C46.5,140.6 46,135.3 45.4,130 C44.9,125.9 44.4,121.7 43.1,117.7 C42.5,115.6 41.6,113.6 40.5,111.8 C40.5,111.6 40.5,111.5 40.5,111.3 C40.1,110.2 39.4,109.5 38.5,108.7 C38.4,108.6 38.3,108.5 38.2,108.4 C37.7,107.9 37.3,107.5 36.7,107.1 C36.6,106.9 36.4,106.7 36.2,106.5 C34.6,104.8 33.1,103 31.7,101.2 C30.4,99.3 29.2,97.4 28.1,95.5 C27,93.5 26.2,91.3 25.1,89.4 C25,89.2 24.8,89.2 24.6,89.3 C24.3,89.7 24,90.1 24.1,90.5 L23.9,90.5 C23.8,89.9 23.2,89.4 22.4,89.5 C21.2,89.7 20.3,89.8 19.2,89.4 C19.4,88.2 19.6,87 19.7,85.8 C20,83.5 20.3,81.3 20.6,79 C21.1,79.2 21.7,79.4 22.3,79.6 C23.1,80 23.9,80.5 24.5,81.1 C25.2,81.7 25.6,82.5 26.4,82.9 C27.3,83.4 28.4,82.6 28.2,81.5 C27.6,79.5 24.6,78.3 22.7,77.9 C22,77.8 21.4,77.7 20.7,77.7 C20.8,76.3 21,74.8 21.1,73.4 C21.1,72.7 21.2,72 21.2,71.3 C22.7,70.9 24.3,70.8 25.8,71 C26.3,71.4 26.8,71.8 27.3,72.2 C28.8,73.5 30.4,74.7 31.9,76 C32,76.2 32.2,76.3 32.3,76.4 C33.2,77.2 34.3,76.4 34.2,75.3 C32.9,66.3 38.5,59.2 44.9,53.6 C52.1,47.5 65.1,46.8 73.6,36.1 C77.5,36.9 86.3,39.3 89.9,45 C94.9,53.1 94.3,60.3 94.6,69.4 C95,78.5 96,88.1 93.9,97.1 C92,105.4 86.8,112.5 78.8,115.7 C78.6,115.8 78.4,115.9 78.2,116 C74,117.5 69.5,118 65.1,117.2 C60.2,116.2 56.2,114 52.2,111.3 C51.9,111.1 51.6,111.5 51.8,111.7 C57.1,118.7 67.5,121.1 75.8,119.2 C76.2,119.1 76.6,119 77,118.9 C75.1,124.2 75.5,130.1 77.9,135.3 C79.3,138.4 81.6,141.1 84.2,143.2 C87.2,145.5 90.9,147.4 93,150.7 C94.9,153.7 94.3,157.1 91.1,158.9 C90.2,159.3 89.9,160.7 90.7,161.3 C91.1,161.6 91.4,161.8 91.7,162.1 C93.5,163.4 98.5,166 99.3,166.1 C106.4,166.9 111.2,161.7 114.3,155.5 C117.9,148.3 117,139.4 113,132.5 C109.8,127 103.5,121.5 106,114.5 C106.9,112 108.7,109.9 110.5,107.9 C112.5,105.7 114.7,103.7 116.6,101.4 C118.6,99.1 120.3,96.7 121.2,93.8 C122.6,89.7 121.9,85.2 120.9,81.1 C118.6,72.2 115.7,63.4 112.6,54.8 Z" id="🖍-Ink" fill="currentColor"></path></g><g id="face/Smile-Big" transform="translate(37.8, 44.1)" fill="currentColor"><path d="M22.2,44.2 C26.2,43.7 30.2,44.9 34.2,45.6 C36.3,45.9 38.4,46.2 40.5,46.2 C40.9,46.3 41.4,46.3 41.8,46.3 C41.8,45.9 42,45.6 42.5,45.4 C43.4,44.9 44.2,44.7 45.2,44.8 C46.1,44.8 47.1,44.9 48,45.1 C49.7,45.4 51.4,46.1 52.6,47.3 C55.5,50.1 55,54.6 52.8,57.7 C48.3,64 40,64.3 32.9,64.2 L32.2,64.2 C25.7,64.1 16.5,65.1 13.5,57.7 C12.5,55 12.6,51.9 13.9,49.3 C15.5,46.2 18.8,44.6 22.2,44.2 Z M42.4,54.7 L42.3,54.7 C39.3,54.8 36.4,54.9 33.4,55 C33.5,55.7 33.6,56.5 33.7,57.3 C33.7,57.9 33.8,58.5 33.9,59.1 C34,59.3 34.1,59.7 34.1,60 L34,60.1 L34,60.1 C34.2,60.1 34.3,60.3 34.4,60.4 C34.5,60.5 34.5,60.5 34.5,60.6 C36.9,60.6 39.3,60.6 41.7,60.1 L41.7,60.1 L41.7,60.1 C41.8,59.8 41.9,59.6 42.1,59.4 C42.2,58.5 42.2,57.5 42.3,56.5 C42.3,55.9 42.3,55.3 42.4,54.7 Z M31.1,55 C28.9,55.1 26.8,55.1 24.6,55.1 L23.7,55 L23.7,55 C23.9,56.1 24.1,57.2 24.3,58.4 C24.5,59.5 23.5,60.2 22.6,60.2 C22.7,60.2 22.8,60.3 22.9,60.3 C25.6,60.7 28.5,60.6 31.3,60.5 C31.2,59.7 31.2,58.7 31.2,57.9 L31.2,57.8 C31.1,56.9 31.1,56 31.1,55 Z M16.5,54.8 C16.6,55.4 16.7,55.9 16.9,56.5 C17.8,58.7 19.9,59.7 22.2,60.1 C21.8,60 21.5,59.7 21.4,59.1 C21.2,57.8 21.1,56.4 21.1,55 C19.6,55 18,55 16.5,54.8 Z M50.5,54.3 C49.4,54.6 48.1,54.5 47,54.5 C46,54.6 45,54.6 44,54.7 C44,55.4 44.1,56 44.1,56.7 C44.2,57.6 44.2,58.6 44.4,59.5 C46.4,58.8 48.2,57.7 49.6,55.9 C49.9,55.4 50.3,54.9 50.5,54.3 Z M21.7,47.8 C19.9,48.3 18.1,49.2 17.2,50.9 C16.6,51.9 16.4,53 16.4,54.2 C18,54 19.6,54 21.1,53.9 C21.1,53.6 21.2,53.3 21.2,53 L21.2,52.3 C21.2,50.9 21.3,49.2 21.7,47.8 Z M31.2,48 L30.4,47.9 C28.2,47.6 25.9,47.4 23.7,47.5 C23.3,47.6 23,47.6 22.7,47.6 C23.1,49.1 23,50.7 23.2,52.2 C23.3,52.7 23.4,53.3 23.4,53.8 L23.8,53.8 L23.8,53.8 C26.2,53.7 28.7,53.6 31.1,53.5 C31.1,53 31.1,52.6 31.1,52.1 L31.1,51.7 C31.1,50.5 31.1,49.2 31.2,48 Z M42.5,47.8 C40.2,48.2 37.7,48.3 35.4,48.3 C34.5,48.3 33.6,48.2 32.6,48.1 C32.7,48.6 32.7,49.1 32.8,49.6 C32.9,50.6 33,51.6 33.1,52.5 L33.2,53.4 L33.2,53.4 C36.2,53.3 39.1,53.1 42.1,53 L42.5,52.9 L42.5,52.9 L42.6,51.3 C42.7,50.2 42.8,49.1 42.9,48 L42.8,48 L42.8,48 C42.7,47.9 42.6,47.9 42.5,47.8 Z M43.5,48.2 C43.7,49.8 43.7,51.3 43.8,52.9 L45.8,52.8 C46.1,52.7 46.5,52.7 46.8,52.7 C48,52.6 49.7,52.2 50.9,52.6 C51,51.5 50.7,50.4 49.7,49.6 C47.9,48.3 45.6,48.7 43.5,48.2 Z M36.9,34.4 C39.8,32.7 47.1,31 47.5,36.3 C47.8,38.7 46,40.7 43.9,41.5 L43.8,41.6 C41.8,42.4 38.3,43.3 36.6,41.6 C35.2,40.1 37.1,37.5 38.9,38.7 C39.8,39.3 41.7,38.8 42.7,38.5 L42.7,38.5 C43.8,38.2 45.3,37.2 44.8,35.9 C44.4,34.7 42.7,34.5 41.7,34.4 C40.1,34.4 38.6,34.7 37,34.8 C36.7,34.9 36.7,34.5 36.9,34.4 Z M48.9,26 C52.9,25.8 55.3,30.1 54.4,33.6 C54.3,34.2 53.6,34.8 52.9,34.8 L52.8,34.8 C52.7,34.7 52.6,34.7 52.5,34.7 C51.9,34.5 51.3,33.9 51.4,33.2 L51.4,33 C51.5,31.4 51.3,29.4 49.3,29 C47.6,28.7 46.7,30.3 46.7,31.8 C46.7,32.1 46.4,32.2 46.1,32.1 C44.9,31.4 44.7,29.9 45.2,28.6 C45.8,27 47.2,26.1 48.9,26 Z M19.6,26.9 C22.5,25.9 25.6,27.5 27,30 C27.4,30.2 27.9,30.5 27.9,31.1 C27.8,31.9 27.6,32.5 27,33.1 C26.1,34.1 24.5,33.6 24.1,32.4 L24.1,32.3 C23.6,30.7 21.9,29.7 20.3,30.2 C18.5,30.9 18.6,32.8 17.3,34 C17.1,34.1 16.9,34.1 16.8,34 C15.4,33.4 15.6,31.4 16.1,30.2 C16.8,28.7 18,27.4 19.6,26.9 Z M15.7,18.2 C18,15.8 24.1,13.5 25.7,17.9 C26,18.7 25.3,19.8 24.5,20 C23,20.3 21.8,19.7 20.3,19.8 C19.2,19.9 18,20.3 17.1,21 C14.5,22.9 14,26.3 12.2,28.8 C12.1,28.9 12,28.8 11.9,28.7 C11.5,25.1 13.1,20.8 15.7,18.2 Z M46.1,15.8 C47.6,15.3 49.4,15.3 50.9,15.8 C52.5,16.3 53.9,17.2 55,18.4 C55.6,19 56,19.6 56.4,20.2 C56.6,20.6 56.8,21.3 57,21.7 C58.2,22.4 58.8,24 57.7,25.2 L57.6,25.2 L57.5,25.4 C56.9,25.9 56,26.2 55.2,26 C53.4,25.4 53.2,24 52.6,22.5 C52.2,21.5 51.5,20.7 50.6,20 C48.6,18.5 45.3,18 42.9,18.7 C42.7,18.8 42.6,18.6 42.7,18.5 C43.1,17.9 43.4,17.4 44,16.9 C44.6,16.4 45.3,16.1 46.1,15.8 Z" id="🖍-Ink"></path></g><g id="facial-hair/*-None" transform="translate(29.2, 80.1)"></g><g id="accessories/Glasses-3" transform="translate(11.2, 57.1)" fill="currentColor"><path d="M87.2,23.3 C85.6,25.4 82.6,26.1 79.9,25.9 C74,25.3 72.1,18.6 71.9,13.4 C75.9,14.6 71.6,6.7 85.1,5.8 C89.9,5.4 88.6,8.3 90.7,10.4 C90.6,14.8 89.9,19.6 87.2,23.3 M59.1,18.2 C55.6,34.5 36.6,30.6 34.6,16 C36.4,14.7 35.9,11.5 38.2,10.3 C41.9,8 46.4,8.1 50.5,8.1 C55.8,8.5 57.3,10.7 60,13.1 C59.9,14.6 59.5,16.5 59.1,18.2 M94.7,3.1 C94.5,3.1 94.4,3.1 94.2,3 C94,3 93.8,2.9 93.6,2.9 C93.1,2.7 92.7,2.6 92.2,2.6 C85.4,1.1 69.7,3.2 69.1,9 C66.9,9.7 65.1,9.1 62.6,9.2 C60.7,1.2 27.8,2.3 26.2,7.1 C26.2,7.1 26.2,7.1 26.2,7.1 C24.6,6.6 22.4,6.8 20.6,6.7 C16.9,6.6 13.2,6.9 9.6,7.7 C2.8,8.8 -6.5,10.1 -1.8,18.6 C-1.8,18.6 -1.8,18.6 -1.8,18.6 L-1.8,18.6 C-1,19.4 0.4,18.7 0.5,17.6 C-1.1,13.6 2.5,13.1 5.2,11.9 C12.1,9.5 19.1,9.1 26.3,9.9 C26.8,10.5 27.6,11.1 28.5,11.3 C33.2,12.1 30.7,15.7 33.7,16.2 C33.2,28.5 48.1,35.2 56.8,27.1 C60.2,23.7 61.1,18.7 61.9,14.2 C62.3,14.1 62.6,13.9 62.7,13.6 C63.7,12.6 64.4,11.6 66.4,11.3 C68.4,11.1 70,11.6 70.2,11.8 C70.2,11.9 70.3,12 70.3,12.1 C70.4,12.3 70.6,12.4 70.7,12.5 C68.7,24.7 78.2,32.5 87.8,26.1 C92,22.2 92.9,16.2 93.1,10.9 C93.6,10.5 94,9.9 93.8,9 C93.5,7.9 94.2,6.9 95.2,6.4 C96.5,5.7 96.2,3.4 94.7,3.1" id="🖍-Ink"></path></g></g></g></g></g></svg>