<svg viewBox="0 0 260 674" version="1.1" xmlns="http://www.w3.org/2000/svg" xmlns:xlink="http://www.w3.org/1999/xlink"><g id="Introduction" stroke="none" stroke-width="1" fill="none" fill-rule="evenodd"><g id="variations-standing" transform="translate(-1320, -908)"><g id="a-person/standing" transform="translate(1325, 854)"><g id="pose/standing/crossed_arms-2" transform="translate(-28.7, 150.3)"><path d="M279.6,567.3 C280.2,565.1 279.3,562.1 278.8,559.2 C277.9,554.6 276,548 272.3,545.9 C271.7,544.2 253.5,530.4 244.1,523.4 C239.2,519.8 235.2,513.1 234.2,513.2 C232.4,508.6 232.1,504 231,498.7 C235.2,498.2 242.5,499.2 245.9,496.7 C246.5,496.8 246.5,490.2 246.6,489.3 C244.1,482.4 237.8,314.5 244.1,234.6 C244.7,225.7 246.4,215.7 244.7,206.5 C247.5,205.9 249.2,203 249.2,202.9 C255.9,189.9 245.6,145.5 239.2,133.3 C244.3,133.1 251,132.4 254.2,128.2 C255.7,127.7 256.6,126.9 257.3,125.5 C258.2,124.2 258.9,122.8 259.6,121.4 C263,114.4 265.1,106.6 264,98.9 C264.2,98.8 265.3,98.8 265.3,98.5 C265.5,96.6 265.1,94.9 264.5,93.1 C258.7,72.9 251.7,53 242.5,33.9 C237.8,23.7 228.2,20 218.3,16.2 C213.5,14.3 208.7,12.1 203.7,10.9 C203.7,10.6 204,9.5 203.3,9.6 C202.5,9.8 202.7,11.1 202.4,11.8 C190.8,2.4 198.2,-2.5 191.2,-7.7 C184,-11.4 179.7,-11.6 171.8,-10.7 C168.9,-10.7 166.5,-9.3 165.8,-6.4 C163.3,-0.3 157.4,4.2 151,5.5 C150.4,4.6 149,1.9 148.2,2.7 C138.9,3.1 120.9,10.4 112.2,12.9 C103.5,15.2 103.6,17.5 101.3,27 C97.2,43.9 97.9,107.3 108.8,120.6 C112.7,123.2 115.6,124.9 117.6,125.5 C117.5,131.7 118.6,141 117.6,147.1 C115.4,158.2 112.7,169.3 110.2,180.5 C110.2,181.7 100.4,200.1 105,196.7 C105.9,197.2 107.6,199.1 108.6,199.6 C103.7,210.7 104.6,224.4 105,238.2 C105.1,246.4 103.2,255.4 101.3,263.8 C87.7,335 78.4,415.9 73.3,487.2 C73.1,490.1 73,492.4 72.9,494.4 C72.8,495.1 73.8,495.1 74.1,494.8 L74.6,494.3 C75.2,494.4 76,494.7 76.6,494.8 C76.7,497.2 76.4,499.6 76.1,501.7 C75.9,503.8 72.6,512.7 73.3,514.6 C70.8,514.5 66.1,518.6 63.8,523.1 C62.6,524.2 58.9,525.9 58.1,527.5 C56.9,528.6 52.4,531.4 44.4,536 C40,539.6 25.8,553.5 27,556.4 C27,556.4 26.8,557.2 26.8,557.5 C24.4,571.7 28.4,571.1 41.5,573.2 C60.7,576.5 78.8,566.3 95,557.6 C100.3,554 105.6,555 105,550.6 C103.9,545.2 103.7,525.9 97.6,526.3 C98.6,525.2 98.4,515.1 97.6,513.2 C97.1,508.3 101.5,503.7 101.3,498.7 C103.9,498.9 109.1,500.1 110.2,497.3 C110.2,497 109,497 108.8,496.9 L108.8,496.7 L108.6,496.7 C119.3,459.1 145.4,286.1 173.7,272.9 C173.9,274.3 177,272.6 178.9,272.9 C187.7,341.1 197.7,405.3 203,478.3 C203.6,480.4 204.8,495.5 205.3,498 C206.4,498.9 207.3,499.5 207.9,499.6 C208.2,507.3 207.2,523.4 207.2,523.4 L206.7,524.7 C203.7,531.4 201.5,540.4 205.3,546.9 C202.5,546.7 201.2,549.1 201.1,551.7 C199.4,562.7 243.9,572.5 254.2,573.2 C257.6,573.7 281.7,569.4 279.6,567.3 Z" id="🎨-Background" fill="#FFFFFF"></path><path d="M275.6,568.2 C270,569.5 264.5,571.6 259,572.9 C241,571.6 223.3,565.5 207.5,558.1 C202.9,556.1 200.2,552.5 202.3,547.9 C209,556.2 233.8,562 245.1,565.5 C252.2,567.1 260.2,570.6 267.3,567.3 C271.9,566.5 277,564.4 278.7,560.3 C278.9,562 278.7,563.8 278.5,565.5 C278.7,567.6 277.7,567.9 275.6,568.2 L275.6,568.2 Z M208.7,498.6 C208.5,498.2 208.1,498.2 207.9,498.5 C207.6,498.5 207.2,498.5 206.8,498.5 C207.4,496.5 207.5,494.4 207.2,492.4 C206.8,486.8 206.4,481.2 205.9,475.6 C201,422 195.4,368.2 185.8,315.1 C185.9,315 186,314.9 186,314.7 C185.5,311 184.5,307.3 183.7,303.6 C183,299.8 182.4,296.1 181.8,292.3 C181.6,291.2 181.4,290 181.2,288.9 C181.3,286.2 180.6,283.3 180.3,280.7 C180.1,278.8 179.7,276.9 179.2,275.1 C179.4,274.4 179.3,273.7 178.8,273.2 C178.8,273.2 178.8,273.2 178.8,273.2 C178.8,273.1 178.9,273 178.9,272.9 C179.3,272 180,271.6 180.5,271 C182.1,270.7 183.7,270.7 185.3,270.9 C185.5,271 185.7,270.6 185.4,270.5 C179.1,266.8 171.3,270.4 166.6,275.2 C152.4,295.4 147.2,321.1 139.3,344.3 C125,394.9 115,446.5 103.6,497.7 C94.5,497.3 85.4,496 76.3,496.2 C76,495.4 75.4,494.6 74.7,494.3 C80.4,416.3 90.1,338.6 104.5,261.7 C106.1,241.6 103.6,221.1 109.6,201.4 C152.1,218.1 199.5,220.6 244.1,211.6 C235.7,305.8 231.3,401.1 242.8,495.3 C239.1,496.8 235.2,497.4 231.3,497.8 C223.8,498.7 216.2,498.9 208.7,498.6 L208.7,498.6 Z M95.7,520.8 C95.1,522.1 95.8,523.5 97.2,523.8 C93,524.9 92.2,529.4 88.9,531.5 C88.6,530.9 87.7,530.8 87.1,530.6 C85.3,524 83.3,516.3 74.9,513.8 C75.5,513.2 75.4,512.4 75.4,511.6 C76,508.4 78.2,501.4 76.8,497.8 C84.5,499.6 92.3,500.3 100.1,501.4 C98.5,507.1 97.2,515.8 95.7,520.8 L95.7,520.8 Z M101,548.7 C101.3,548.6 101.5,548.5 101.8,548.4 C103,553.8 94.7,555.5 90.7,557.4 C84.5,560 78.4,562.5 72.3,565.1 C59.9,571.3 48.3,573 34.5,568.6 C25.7,566.9 27.4,565.3 26.1,558.5 C34.9,570.3 52.9,565.2 64.1,560.1 C74.2,556.3 84.5,552.5 95,549.3 C97.1,549.8 99.1,549.2 101,548.7 L101,548.7 Z M190.3,117.4 C185,118.8 179.6,119.5 174.2,120.6 C174.7,117.2 175.4,113.7 175.4,110.2 C180.1,113.1 185.1,115.4 190.3,117.4 L190.3,117.4 Z M140.3,82.5 C151.7,80.2 163.6,81 174.3,85.5 C178,86.7 182.9,89.9 186.8,88.4 C183.9,97.4 187.5,106.6 191.2,114.7 C182.7,111.9 175.3,107 167.6,102.6 C170.5,98.8 144.3,94.3 141.4,94.4 C140.6,90.4 139.7,86.6 138.8,82.7 C139.3,82.8 139.9,82.6 140.3,82.5 L140.3,82.5 Z M198.8,86.7 C198.9,86.8 198.9,86.8 198.9,86.9 C210,88.5 221.1,93.5 232.5,92 C240.2,91 236.6,95.4 231.5,95.3 C220,96.4 209.3,89.6 198.5,87.3 L198.8,86.7 Z M204.8,12.8 C204.8,12.9 204.8,13 204.8,13.1 C204.6,13.1 204.5,13.1 204.4,13.1 C204.3,13 204.3,12.9 204.2,12.9 C204.4,12.8 204.6,12.8 204.8,12.8 L204.8,12.8 Z M282.9,566 C282.7,563.3 281.3,560.6 279.3,558.8 C280.6,553.3 277.9,546.4 272.2,544 C270.6,541.4 267.2,540.3 264.8,538.5 C266.9,538.4 268.7,536.9 267.2,535.3 C263.8,536.3 260.6,537.7 257.4,539.1 C256.6,539.3 254.5,541 254.4,539.4 C255,538.2 259.6,537 261.1,536.2 C260,535.5 258.9,534.8 257.8,534 C259.8,534 262.3,532.5 260.4,530.8 C255.1,532 249.6,533 245,535.7 C241.2,534.7 252.3,531.3 253.3,531.2 C251.6,530 249.9,528.7 248.3,527.4 C250.1,527.4 253.7,525.6 251.4,524 C248.4,523.3 244.4,525.7 241.5,526.5 C241.5,526.5 241.5,526.5 241.5,526.5 C239.3,527.3 237.1,528.2 235,529.1 C234.1,529.4 233.7,528.2 234.6,527.9 C237.9,526.5 241.3,525.1 244.8,524 C243.8,523 242.9,521.9 242,520.8 C242.3,519.2 240.6,517.7 239.9,516.2 C240,515.4 239.7,514.2 238.7,514 C238,513.3 236.9,513.3 235.9,513.4 C234.3,510.3 232.9,505.5 232.3,501.6 C236.6,501.1 241.6,501 245.3,498.7 C246.4,498.6 247.5,497.8 247.6,496.5 C247.7,491.7 247.2,487 246.8,482.2 C246.3,477.4 245.9,472.7 245.6,467.9 C239.2,391.5 240.4,314.6 246.4,238.2 C247,229.3 247.4,220.1 245.9,211.2 C247.7,210.6 254.6,209.4 254.1,206.9 C260.1,191.7 251.2,152.6 244.7,137.3 C249.6,137 255.4,135.9 258.6,131.9 C261.7,130.9 262.7,127.3 264.3,124.7 C267.6,117.8 269.7,110 268.9,102.3 C272.3,101.4 268,92.1 267.7,89.6 C262,71 255.6,52.5 247.1,35.1 C244.1,28.7 238.8,23.6 232.3,20.8 C224.5,17.4 216.7,13.9 208.5,11.4 C208.6,10 207.1,9.5 206.1,10 C206,10 206,9.9 205.9,9.9 C204.9,9.7 203.4,10.1 202.6,10.9 C200,7 199.3,2.2 198.3,-2.4 C194.4,1.7 198,15.5 204.1,16.6 C200.1,45.3 166.7,38.5 156.5,17.6 C154.3,13.6 152.8,9.6 150.6,5.5 C157,6.8 163.5,3.3 165.8,-2.8 C166.3,-3.8 166.7,-4.3 167.5,-4.9 C168.6,-5.7 168.3,-7.6 166.8,-7.6 C160.9,-6.2 164.8,3.2 150.3,4.9 C149.7,4.1 149.1,3.3 148.5,2.9 C148.2,2.6 147.3,2.5 146.8,2.9 C135.9,3.5 125.3,6.3 114.8,9.3 C105.8,11.5 96.4,16.3 94.1,26 C89.9,41.6 96.7,118.8 108.4,128.3 C110.4,130.2 112.7,131.5 115.2,132.4 C112.8,149.5 109,166.6 105.8,183.7 C105.6,186.6 100.5,202.9 107,200.2 C107.2,200.3 107.3,200.4 107.5,200.5 C107.1,201.3 106.8,202.1 106.4,202.9 C105.3,205.4 104.4,208 104,210.8 C103.6,213.7 103.5,216.6 103.4,219.5 C103.3,220.6 103.3,221.7 103.3,222.7 C102,233 102,243.4 101.9,253.7 C96.2,292.5 88.1,331.1 83.5,370.2 C77.8,411.9 73.4,453.8 70.8,495.9 C70.7,497.8 72.9,498.2 74,497.1 C74.2,497.1 74.3,497.2 74.5,497.2 C74.5,498.9 74.3,500.6 74.1,502.3 C73.8,504.7 71,510.9 71.7,513.1 C69.1,512.7 65,513.2 64.3,515.3 C61.4,519 61.5,524.1 58.1,527.5 C61.4,528.2 64.7,529.2 68,530.2 C68.6,530.5 68.2,531.5 67.4,531.3 C65.6,530.7 63.8,530.2 62,529.7 L62,529.7 C60.2,529.2 58.5,528.8 56.7,528.4 C56.6,528.5 56.6,528.6 56.7,528.6 C55.4,529.6 54,530.5 52.5,531.3 C53.5,531.5 65.9,534.8 62.2,535.9 C58.6,534.4 54.8,532.9 50.9,532.2 C49.2,533.2 47.6,534.1 45.9,535.1 C46.7,535.3 60.1,538.2 55.5,539 C51.9,537.7 48.2,536.9 44.4,536 C39.8,538.8 35.2,541.5 30.6,544.3 C28.7,545.5 26.6,546.6 25.4,548.4 C23.8,550.7 23.8,553.6 24.9,556.3 C21.6,570.3 27.4,570.8 40.8,573.8 C59.8,578.6 76.3,567 92.8,560.7 C96.2,559.1 100,557.9 103.1,555.7 C106,553.7 108,549.3 105.3,546.3 C107.1,542.9 104.7,534.4 104.1,530.4 C103.6,527.8 103.3,523.7 99.5,523.6 C100.5,522.9 100.5,521.7 100.1,520.7 C99.7,515.8 101.2,507.1 101.6,501.6 C104.5,501.8 108.8,502.6 110.3,499.4 C110.9,498.5 110.1,497.5 109.2,497.4 C109.2,497.4 109.2,497.4 109.2,497.4 C109.4,497.4 109.3,497.4 109.2,497.4 C124.5,434 134.5,369.2 156.6,307.7 C161.7,295.8 164,280.5 175.3,272.8 C175.5,273.8 175.6,274.9 176.2,275.6 C176.3,275.7 176.3,275.8 176.3,276 C176.7,277.5 177.2,279 177.6,280.6 C186.5,348.7 196.7,416.8 201.6,485.4 C202.4,488.6 201.2,499.9 205.6,499.4 C206.2,499.7 206.9,499.8 207.5,500 C206.6,504.1 206.8,510.2 206.9,513.9 C206.8,517.7 206.2,521.5 206.6,525.2 C207.1,527.6 211.6,526.2 210.9,523.7 C210.8,516.7 210.3,508.1 209.1,500.4 C216.1,501.8 223.2,502.1 230.3,501.8 C229.9,505.8 231.1,511 232.5,514.3 C228.3,515.7 224.2,517.6 220.9,520.5 C217.8,523.3 215,529.8 209.5,527.7 C208,527 206.3,525.8 205.8,524.3 C205.3,523.9 205.6,524.8 205.7,525.1 L205.5,525.1 C204.2,524.3 201.9,532.6 201.7,533.7 C200.7,538.1 199.6,543.2 201.9,547.3 C197,549.4 197.5,556 201.2,558.7 C215.6,568.1 239.7,575.7 257.7,577 C260.8,577.2 264.2,576.3 267.2,575.3 C270.8,574.3 274.3,573.3 277.8,572.2 C280.9,571.5 283.2,568.9 282.9,566 L282.9,566 Z" id="🖍-Ink" fill="currentColor"></path></g><g id="Head" stroke-width="1" transform="translate(95.9, 42.7)"><g id="head/hat-beanie"><path d="M58.1,13.9 C68.8,13.9 81.5,19.1 82.6,19.2 L82.6,19.2 C83.2,19.2 85.4,20.9 89.3,24.2 L85.1,32.4 L85.5,32.8 C87.1,34.3 88.5,35.8 89.6,36.9 C98.6,46 100.2,82 98.1,94.5 C95.9,107.1 92,119.3 73.8,119.3 C55.5,119.3 35.3,108.4 32.1,105 C30,102.7 27.7,101.6 25.1,101.7 C25,101.6 24.9,101.4 24.8,101.3 L24.4,101.3 C20.8,100.7 18.2,100 16.7,99.2 C13.6,97.4 10.3,88.4 10.3,86.4 C10.3,84.5 5.3,70.1 5.2,68.6 L5.2,68.6 C5.2,67.3 -1.3,61.5 -1.3,59.6 C-1.3,57.8 -2.6,57.9 -1.3,51.4 L-0.9,49.5 C0.5,42.5 3.2,31.1 13.6,26.1 C25.1,20.6 47.4,13.9 58.1,13.9 Z" id="Path" fill="#FFFFFF"></path><path d="M11.9,25.8 C17.6,19.7 50.1,10.4 66.5,12.4 L67,12.4 C68.3,12.6 69.6,12.8 70.9,13.2 C75,14.1 79.2,15.6 82.6,18 C85.5,20 94.5,23.3 91.8,28.5 C92.8,30.3 93.2,32.6 92.5,34.4 C92.4,35.1 92.2,35.6 92,36.2 C94.1,39.3 95.7,42.8 97.1,46.1 C99.4,54.5 100.9,63.2 101.1,71.7 C101.8,87.9 100,107.2 85.9,117.7 C77.4,124.3 64,124.5 54.4,116.3 C53.9,115.6 51.3,113.9 52.2,113.6 C52.4,113.9 52.7,114.1 52.9,114.4 C52.9,114.4 52.9,114.3 52.9,114.3 L52.7,114.1 C52.2,113.6 51.6,113 52.3,113.1 C52.3,113.2 52.4,113.2 52.4,113.2 C52.5,113.3 52.7,113.4 52.7,113.5 L52.8,113.5 L52.8,113.5 C52.4,113.1 52.1,112.6 52.7,112.9 L52.8,112.9 C53.1,113.2 53.3,113.5 53.6,113.8 C53.6,113.7 53.6,113.7 53.6,113.7 L53.4,113.4 C53.1,113.2 53.2,113.2 53.3,113 C52.8,112.2 53.7,112.7 53.8,113 C54.4,112.8 55,114 55.4,114.1 C73,127.6 98.5,115.6 98.1,78.1 L98,77.3 C97.9,65.3 96.9,53 91.9,42.1 C91.4,41 90.9,40 90.3,39 C89.9,38.3 89.5,37.6 89,36.9 C87.7,36.8 86.4,36.5 85.1,36.2 C84.6,36 84.2,35.9 83.8,35.8 C77.4,36.1 71.1,36.5 64.7,36.9 L62.7,37 C57.3,37.3 51.7,37.9 47.3,41.2 C43,44.3 43,50.3 39.3,53.6 C34.1,57.2 34.1,60.4 33,65.6 C33.1,69.6 35.9,75.3 30.8,77 C31.7,78.2 30.5,77.6 30.4,77.2 C30.4,77.2 30.4,77.2 30.4,77.2 C31.1,78.6 30,77.7 29.9,77.2 C29.9,77.2 29.8,77.2 29.7,77.1 C30.5,78.3 29.3,77.5 29.4,77.3 C27.9,75 24.8,74.6 22.7,75.2 C22.7,75.3 22.6,75.3 22.5,75.3 C13.5,77.3 15.8,96 25.1,94.2 C25.5,94.1 25.5,94.3 25.6,94.3 C25.4,93.8 26,94 26,94.1 L26,94.1 C26,94.1 26,94.1 26,94.1 C25.8,93 27,94.6 26.9,94.7 C26.9,94.7 27,94.7 27,94.7 L27,94.5 C26.8,94 26.8,94.2 26.8,94 C26.6,93.6 26.6,93.7 26.7,93.5 C27.2,93.1 27.3,94.3 27.5,94.4 C27.2,94 27.4,93.7 27.7,93.9 C29.8,98.3 32.5,102.4 36,105.7 C36.4,106 36.8,106.3 37.2,106.5 C38.7,107.8 41,108.7 42.4,109.8 C42.4,109.8 42.3,109.9 42.3,109.9 L42.4,109.9 L42.4,109.9 L42.4,109.9 L42.9,110.2 C43,110.3 43.2,110.4 43.3,110.6 C43.4,110.7 43.5,110.9 43.6,111 C43.6,111.2 43.5,111.3 43.3,111.2 C43.3,111.2 43.2,111.2 43.1,111.1 C43.1,111.1 43.1,111.2 43.1,111.2 C43.1,111.2 43.3,111.6 43.1,111.6 L43.1,111.5 C43,111.5 42.8,111.5 42.7,111.4 C42.9,111.6 43,111.8 43.1,111.9 C43.2,112 43.3,112.2 43.3,112.3 C43.3,112.4 43.3,112.5 43.2,112.5 C43,112.4 42.9,112.4 42.8,112.3 L42.8,112.4 C42.9,112.6 43,112.9 42.8,112.8 C42.6,112.7 42.4,112.6 42.2,112.6 C42.2,112.6 42.1,112.6 42.1,112.6 C41.4,112.4 40.8,112.1 40.2,111.8 C39.7,111.4 39.2,111 38.7,110.6 C38.2,110.4 37.7,110 37.3,109.7 C34.3,107.7 31.6,105.3 29.6,102.5 C26.1,105.5 19.1,102.7 14.8,100.3 C11,98.2 9.5,94.3 9.1,90.1 C8.3,84.4 3.6,82.5 4,70.1 C3.9,70.1 3.9,70.1 3.9,70.1 C3.8,70 3.6,70 3.4,69.9 C3.3,69.8 3.1,69.7 3,69.6 L2.8,69.4 L2.8,69.4 C2.7,69.3 2.7,69.3 2.6,69.2 L2.6,69.2 C2.5,69.4 2.5,69.2 2.5,69.1 L2.2,68.7 C1.5,67.8 0.7,66.7 0.1,65.8 L0.1,65.8 C0.1,65.9 0.1,65.9 0.1,65.9 C-1.5,63.7 -2.9,61.1 -3.3,58.5 C-3.8,56.6 -3.6,54.5 -3.2,52.7 C-1.4,46.4 4.3,32 11.9,25.8 Z M53.1,113.8 L53,113.7 L53.1,113.8 C53.1,113.9 53.2,113.9 53.2,114 C53.2,113.9 53.2,113.9 53.2,113.9 C53.2,113.9 53.1,113.8 53.1,113.8 Z M66.4,15.6 C55.3,14.6 44.3,17 33.7,20 L33,20.2 C26.9,21.9 20.5,23.5 15.4,27.2 C8.3,32.6 4.6,41.3 1.4,49.3 C-1.4,55.3 0,62 4.2,66.1 C4.7,62 5.4,58 6.6,54 C6.8,53.4 6.7,53.2 7.2,53.1 C8,63.8 4.1,71.8 11.8,84.5 C15.2,90.5 11.3,94.8 20.8,98 L21.1,98.1 C23,98.8 25.2,99.4 27.2,99 L27,98.7 C26.8,98.4 26.8,98.3 27,98.2 C27,98.2 27,98.2 27,98.1 C26.8,97.7 26.6,97.3 26.4,96.9 C26.3,97 26.2,97 26.1,97 C26.2,97.1 26.2,97.2 26.1,97.2 C25.5,97.4 25,97.5 24.4,97.5 L24.3,97.4 C23.7,97.4 23.3,97.3 23,97.2 C22.8,97.2 22.7,97.1 22.6,97.1 C21.5,96.9 20.3,96.2 19.5,95.6 C10.7,90.6 11.6,73.6 22.5,72 C22.7,61.3 27.8,43.3 36.3,33.1 C43.9,23.7 64.8,19.7 79.3,21.1 C79.5,21.2 79.7,21.3 79.9,21.3 C82.2,21.5 84.3,22.5 86.5,23 C84.9,21.8 83.1,21 81.2,20.3 C77.5,18 73.2,16.8 69,15.9 C68.2,15.7 67.3,15.6 66.4,15.6 Z M22,80.6 C22.6,80.3 22.5,80.6 22.6,80.5 C26.8,80.2 31.4,83.9 33.7,86.9 C33.5,87.1 33,86.5 32.9,86.4 C32.9,86.5 32.9,86.5 32.9,86.5 L32.9,86.6 C33.9,87.9 32,86.3 31.8,86 C31.8,86 31.8,86 31.7,86 C31.9,86.2 32.3,86.5 32.4,86.8 L32.5,86.9 C33.7,87.9 33.6,88.6 32.3,87.2 C32.3,87.3 32.3,87.4 32.3,87.4 L32.4,87.4 C33,87.9 33.5,89.1 32.2,87.8 C32.3,88.8 30.9,87 30.8,87 C28.3,85 24.6,83.1 21.4,82.8 L21.3,82.8 C20.7,82.7 20.5,82.6 20.7,82.2 C20,82 20.1,81.7 20.5,81.7 C20,81.4 20.4,81 20.7,81.2 C20.5,80.6 21.3,81 21.4,80.9 C21.8,80.3 21.9,80.8 22,80.6 Z M13.2,46.2 C15.2,45.4 21.2,47.6 20.7,50.6 C20.4,51.2 19.5,51.6 18.8,51.2 L17.9,50.7 C16.5,49.7 15.1,48.8 13.5,47.9 C12.6,47.5 12.3,46.6 13.2,46.2 Z M24.7,41.8 L23.9,41.3 C19.7,38.6 13.7,34.4 24.3,38.7 C25.5,39.2 27.1,39.6 27.7,40.7 C28.7,42.8 26,42.9 24.7,41.8 Z M25.1,29.5 C24.8,28.3 29,29.8 30.2,30.1 L30.4,30.2 C31.6,30.7 32.9,31.1 33.6,32.1 C34.5,33.5 32.8,33.8 31.8,33.2 C29.6,31.8 27.3,30.7 25.1,29.5 Z M35.8,23.6 C33.4,21 39.7,23.5 40.7,24.2 L40.7,24.2 C41.4,24.7 41.3,25.7 40.6,26.1 C38.7,26.1 37.3,24.5 35.8,23.6 Z M46.5,20.8 C42.8,18.1 47.7,19.4 49.4,20.4 C50.6,21.4 49.4,23.2 46.5,20.8 Z" id="🖍-Ink" fill="currentColor"></path></g><g id="face/Loving-Grin-1" transform="translate(37.8, 44.1)" fill="currentColor"><path d="M22.9,51.9 C22.9,49.3 25.2,48.8 27.3,49.2 C31,49.7 34.6,50.2 38.3,50.2 L39,50.2 L39,50.2 C39.1,50.1 39.2,50 39.5,50 C41.5,49.7 43.6,49.8 45.7,49.7 C47.5,49.7 49.3,49.5 51.1,49.6 L51.2,49.6 C53.4,49.8 55.8,51 55.5,53.5 C55.2,55.9 53,58 51.1,59.4 C50.8,59.6 50.4,59.9 50,60.1 C49.9,60.2 49.7,60.4 49.5,60.4 C47.7,61.3 45.7,61.9 43.7,62.1 C39.3,62.5 34.3,62.1 30.1,60.2 C28.8,59.6 27.5,58.8 26.4,57.9 C24.7,56.4 22.8,54.3 22.9,51.9 Z M40,57.1 C38.2,57 36.5,57.2 34.8,57.8 C33.7,58.1 32.7,58.8 31.6,59.3 C35.2,60.7 39.5,61 43.2,60.8 C44.8,60.6 46.4,60.3 47.9,59.6 C47.7,59.5 47.4,59.3 47.2,59.1 C46.4,58.7 45.7,58.3 44.9,58 C43.3,57.4 41.7,57.1 40,57.1 Z M40.6,34.2 C40.1,33.9 40.5,32.8 41.5,32.9 C50.6,34.5 45.9,50.2 34.2,41.6 C32.8,40.5 34.5,38 36,39 L36.5,39.4 C38.3,40.7 41.1,42.7 43.2,40.5 C45.1,37.8 42.4,35.3 40.6,34.2 Z M46.7,22.4 C48.7,20.7 51.1,21.9 52.5,23.6 L52.8,23.9 C53.1,24.2 53.4,24.6 53.6,25.1 C55.2,23.7 57.3,22.8 59.4,23.4 C61.3,24 62.5,25.9 62.1,27.9 C61.8,30.2 60,31.8 58.1,33 L57.6,33.3 C55.3,34.8 53.2,36.2 51.3,38.2 C51,38.5 50.4,38.5 50.2,38 L50,37.7 L50,37.7 L49.8,37.4 C48.5,34.5 47.1,31.7 45.9,28.9 C45.1,26.7 44.8,24 46.7,22.4 Z M24.6,23.8 L24.9,23.5 C26.4,21.9 28.8,20.8 30.7,22.4 C32.7,24.1 32.3,26.9 31.4,29 C30.3,31.7 29,34.2 27.8,36.8 L27.6,37.4 C27.5,37.6 27.3,37.8 27.2,38 C27,38.5 26.4,38.5 26.1,38.2 C24.3,36.3 22.2,34.9 20,33.5 L19.4,33 C17.5,31.8 15.7,30.3 15.3,27.9 C14.9,25.9 16,24 18,23.4 C20.1,22.8 22.2,23.7 23.8,25.1 C24,24.6 24.3,24.2 24.6,23.8 L24.6,23.8 Z M27.2,12 C27.9,12.9 27.2,14.4 26.2,14.6 C24.9,14.9 23.7,14.7 22.4,15.1 C21.3,15.4 20.2,16.1 19.3,16.7 C18.1,17.5 17.1,18.3 16.2,19.2 C15.6,19.8 14.9,21.1 14.1,21.2 C13.2,21.2 14.4,18.5 14.5,18.3 C15.1,16.7 16.1,15.2 17.3,13.8 C19.6,11.2 24.5,8.5 27.2,12 Z M53.2,11.3 L53.8,11.5 C55.3,11.9 56.8,12.3 58,13.2 L58.1,13.3 L58.3,13.4 C59.8,14.5 62,16.8 60.9,18.8 C60.8,19 60.7,19 60.5,18.9 C59.1,18.3 58,17 56.5,16.5 L56.2,16.4 C54.7,15.9 52.8,15.4 51.2,15.4 C50,15.8 48.5,15.5 48.2,14.1 L48.2,14 L48.2,13.9 C48,12.9 48.3,11.7 49.2,11.3 C50.6,10.6 51.9,10.9 53.2,11.3 Z" id="🖍-Ink"></path></g><g id="facial-hair/*-None" transform="translate(29.2, 80.1)"></g><g id="accessories/*-None" transform="translate(11.2, 57.1)"></g></g></g></g></g></svg>