<svg viewBox="0 0 365 576" version="1.1" xmlns="http://www.w3.org/2000/svg" xmlns:xlink="http://www.w3.org/1999/xlink"><g id="Introduction" stroke="none" stroke-width="1" fill="none" fill-rule="evenodd"><g id="variations-sitting" transform="translate(-3293, -956)"><g id="a-person/sitting" transform="translate(3243, 897)"><g id="pose/sitting/crossed_legs" transform="translate(-20.3, 159.5)"><path d="M430.4,186.5 C428.4,185.9 426,185.8 423.8,185.7 C416.2,185.2 408.5,188.8 401.1,190.5 C397.9,191.3 394.4,192.2 390.9,192.9 C387.8,193.3 384.7,193.6 381.4,193.8 C378.9,193.9 375.8,193.7 374.9,196.5 C369.7,197.5 365.1,197.9 360.2,197 C360.6,195.4 360.9,193.8 360.4,192.1 C360.6,191.7 361,191.1 361.2,190.8 L360.6,190.8 C351.8,187.3 342.4,184.9 333.6,181.3 C322.2,177.2 305.3,169.2 292.1,163.8 C293,158.9 293.3,153.9 293,149.1 L293.5,148.6 C293.7,147.7 293.9,146.5 294.4,145.7 C295,144 295.1,141.8 295.3,139.9 C295.8,136.2 296.2,130.7 295.2,126.4 C294.8,120.5 290.8,116 286.6,112.4 C281.3,107.2 276,102.1 270.9,96.7 C242.5,67.8 240.3,31.4 195.8,20.3 L195.8,20.1 C195.4,19.7 195.3,19.4 194.9,20 C193.4,19.5 191.6,19.5 190.3,18.6 C188.2,16.6 186.6,14.3 185.6,11.6 C184.8,6.4 185.4,-1.5 180.9,-4.8 C175.8,-7.8 149.2,-9.9 146.9,-3.4 C145.4,-2 144.8,-0.3 144.4,1.7 C142.9,4.5 141.9,7.7 140.4,10.5 C137.2,16.9 135.2,15.5 129.6,16.9 C129,15.6 127.1,15.9 125.8,16.1 C109.4,18.3 89.5,24.6 82.5,39.9 L83.1,39.9 C71,62.5 78.9,91.3 81,115.3 C82.8,136.6 80.8,158.1 76,178 C70.2,199.1 69.9,222.7 81.4,241.8 C82.6,244 84,247.1 86.6,245.7 C88,246.7 89.5,247.5 91.7,248.1 C92.3,248.5 92.9,249.2 93.5,249.5 C93.5,249.6 94.5,249 94.6,249 C96.5,251.7 200.2,260.7 211,262.1 C220.5,263.2 233,266.1 240.7,259.3 C247.1,257.5 253.8,252.7 258.9,248 C262,292.9 263.7,384.8 266.5,385.4 C267.7,385.8 269.3,386.3 270.7,386.7 C270.7,389.9 271,393.6 270.7,396.8 C270.3,400.3 269.2,404.6 268.7,408.3 C266.6,408.2 266,410.3 265.8,411.7 C264,423.5 264,432.9 264.2,445.8 C285.4,458.3 310.3,465.2 334.1,473.3 C336.4,475 341.4,473.1 344,472.7 C353.2,470.9 363.6,465.5 361.3,455.7 C359.6,448.4 352.5,444.1 346.5,439.8 C340,435.1 333,430.3 327,424.7 C322.2,420.1 318.6,416.6 314.5,411.5 C312.7,409.1 310.8,405.2 308.4,403.4 C311,400.4 305.8,403.2 303.9,403.4 C302.8,398 301.3,392.9 299.6,387.7 L301.3,387.8 C306.7,382.7 309.7,358.5 310.1,351.3 C312.8,304.3 312.8,250.2 301.9,210.7 C310.2,215.8 319.2,220.1 327.5,225.1 C332.7,228.1 337.9,232.3 343.8,233.8 C344.1,234.9 345.5,235.3 346.3,234.3 C347.3,234.4 348.7,234 348.8,233.5 C349.8,231.3 351.4,229 351.2,226.6 C351.2,226.6 349.8,223.3 349.8,223.3 C353,224.6 356.5,227.3 359.9,227.6 C366.8,250.6 380.4,237.7 393.5,228.7 C401.4,223.2 410,217.1 418.3,211.3 C425.4,205.7 439.2,200.4 432.4,189.3" id="🎨-Background" fill="#FFFFFF"></path><path d="M133.6,15.5 C140.3,13.9 141.4,-2.1 145.4,0.2 C147.7,2.2 143.9,6.1 143.3,8.3 L143,8.9 C141.6,11.6 140.1,14.2 137.4,15.8 C135.6,17.6 130.5,15.8 131.2,18.7 C133.9,27.4 148,33.5 156.3,36.2 C169.2,41 190.1,39.4 193.1,23.2 C186,21.9 180.8,9.1 185.2,3.8 C185.3,8.9 186.7,14.3 190.8,17.8 L191,18 C191.7,18.6 192.6,19.4 193.6,19.3 C194.5,18 196.2,18.7 196.7,20 C237.1,27 246,70.4 271.4,96 C276.5,101.3 281.8,106.4 287.1,111.6 C292.4,115.9 296.2,121.8 296.4,128.7 C296.9,132.5 296.7,136.4 296.2,140.3 L296.1,140.6 C295.9,143 295.8,145.6 294.6,147.7 C294.4,148.4 294.5,149.3 293.9,149.8 C294.2,154.3 293.9,158.7 293.1,163.1 L295.1,164 C316.5,173.5 338.2,182.5 360.5,189.6 C362.4,189.3 362.2,191.5 361.3,192.5 C361.6,193.7 361.6,194.9 361.3,196.1 C365.4,196.7 369.5,196.2 373.6,195.5 C374.9,192.7 378.2,192.8 380.9,192.7 C384.1,192.5 387.4,192.2 390.6,191.8 C398.6,190 406.4,187.6 414.3,185.6 C419.6,184.1 425.3,184.2 430.6,185.5 C431.5,186.5 432.3,187.6 433,188.8 C437.9,196.3 433.1,203.1 426.3,207.1 C415.5,214.7 404.6,222.4 393.7,230 L392.9,230.6 C380,239.9 365.4,251.6 358.5,229 C356.1,228.8 354.1,227.2 351.9,226.3 C352.5,229 350.8,231.7 349.6,234 C349.1,235.4 347.6,235.8 346.3,235.8 C345.2,236.9 343.1,236.4 342.4,235.1 C336.5,233.5 331.6,229.5 326.3,226.4 C318.9,221.9 311,218 303.5,213.7 C316,265.7 313,319.8 309.6,372.7 L309.6,373.2 C309.2,380.9 307.4,384.5 301,389.3 C302.1,392.7 303.1,396.1 303.9,399.6 C304.2,400.4 305.4,399.7 305.4,400.8 C307.7,400.2 312.3,400.8 310.7,404 C315.3,407.8 318.4,413 322.4,417.3 C329.4,425.8 338.7,432.1 347.7,438.3 C368.5,448.9 369.7,467.2 345.4,473.5 L345.1,473.6 C341.8,474.4 337.7,476.2 334.5,474.7 C329.6,473.7 324.8,471.8 320.1,470.4 C300.9,464.1 282.2,456.6 264,448.1 C263.3,447.8 263,447.1 263,446.4 C263.2,440.6 261.6,408.5 267.6,407.8 C269,401.3 269.2,394.5 269,387.9 C267,387.3 265,386.7 263,386.3 C261,385.6 257.9,385.5 256.6,383.9 C256.1,383.7 255.7,383.3 255.8,382.6 C256.9,372.6 257.7,362.5 258.3,352.5 C260.3,318.7 259.6,284.8 257.3,251 C252.5,255.1 247.1,258.7 241.1,260.7 C237.7,264 232.4,264.7 227.8,265.1 C222,265.5 216.2,264.3 210.4,263.6 C200.6,262.4 190.9,263.4 181.1,264.7 L177.8,265.1 C153.9,267.7 128.1,268.2 105.9,258 C101.7,258.4 96.5,253.9 93.9,250.9 C92.7,251.6 91.6,250.2 90.7,249.5 C89.2,249 87.4,248.3 86.1,247.4 C82.6,248.5 80.7,244 79.4,241.5 C58.3,205.5 81.8,169.7 80,131.5 C81.1,101.6 67.4,70.4 80.6,41.7 C83.3,29.5 98.9,21.1 110.7,18 C114.5,17.4 128.8,12.2 130.4,16.6 C131.2,15.6 132.4,15.5 133.6,15.5 Z M308.2,405.4 C306.3,405.6 304.4,405.7 302.4,406 C295.3,407.2 288.5,410 282.4,413.8 C280.4,415 278.6,416.6 276.3,417.3 C271.7,419 267.1,414.7 267.4,410.2 C266.1,421.6 266.3,433.4 267,444.9 C285.3,453.1 304,460.5 323,466.9 C327.3,468.7 332.4,469.3 336.3,471.7 C343,471.3 349.8,468.9 355.4,465.2 C364.7,458.7 358.5,448.5 350.8,444 C333.7,436.3 319.2,420.7 308.2,405.4 Z M270.9,388.5 C270.5,391.8 273.1,397.1 272.7,403.9 C272.5,406 271.8,408.2 272,410.3 C273.1,418.2 281.6,408.2 285.1,407.1 C290.1,404.3 295.5,402.5 301.1,401.5 C301.1,399.6 299.9,398.9 299.7,397.1 C299.5,394.5 299.5,392 299.4,389.3 C292.1,392.6 278.6,390.3 270.9,388.5 Z M310,404.8 C309.8,404.9 309.7,405 309.6,405.1 C310.6,406.3 311.5,407.6 312.6,408.7 L312.1,407.9 C311.5,406.8 310.8,405.8 310,404.8 Z M84.6,123.9 C84.3,125.4 83.6,126.8 82.6,128 C87.8,169.7 61.3,204.5 85.6,243.2 C85.9,243.4 86.2,243.6 86.5,243.8 C86.6,243.7 86.8,243.6 86.9,243.5 C98.3,223.3 114.6,205.9 127.5,186.6 C130,181.7 134.1,176.9 135.7,171.3 C109.6,161 99.3,146 84.6,123.9 Z M427.2,187.2 C426.1,187.6 424.8,187.3 423.7,187.2 C419.5,187.1 415.4,188.2 411.4,189.3 C399.8,192.5 388.1,195.3 376.2,197.2 C375.9,197.5 375.7,197.7 375.5,198 C375.7,198.3 375.7,198.8 375.4,199.2 C373.6,202.6 375.1,206.8 373.8,210.5 C371.9,217.9 366.8,226.3 359.3,228.9 C361.8,231.3 363.6,234.4 366.2,236.7 C372.6,241 379.5,234.6 384.7,231.1 C394.6,224.1 404.5,217.2 414.4,210.4 C418.8,206.7 428.6,202.1 430.8,197.2 C432.1,193.5 429.6,189.8 427.2,187.2 Z M359.2,196.7 C355,205.3 352.5,214.5 350.1,223.8 C352.6,224.5 355,225.6 357.5,226.3 C361,227.1 366,220.3 367.8,217.6 C369.6,214.6 370.9,211.2 371.5,207.8 C372,204.3 371.4,200.8 372.9,197.7 C368.3,198.1 363.7,198.2 359.2,196.7 Z M107,178.8 C111,177.7 101.9,186.7 101.4,187.7 C95.5,194.6 90.1,202 84.7,209.3 L83.1,211.6 C82.9,211.8 81.9,213.4 82.6,213.2 C82.7,213.2 82.7,213.2 82.7,213.3 C77.7,214.2 104.6,179.4 107,178.8 Z M204.1,174.6 C204.4,173.6 202.9,173.2 202.6,174.2 L201.6,177.2 C197.7,188.8 193.9,200.3 189.3,211.6 C189,212.5 190.5,212.9 190.9,212 C195.9,199.7 199.9,187.1 204.1,174.6 Z M248.7,170.5 C247.3,177.2 243.7,183.1 241.6,189.5 C245.6,188.6 248.7,184.8 251.1,181.6 L251.1,181.5 C252.2,179.8 253.5,177.2 256,178.4 C259.8,180.6 257.1,188.4 257,192.1 C256.6,197.2 254.9,202 253.8,206.9 C256.7,204.9 257.5,201 258.9,198 L264.4,184.9 L264.4,184.9 C268.4,179.5 266.5,195.9 266.3,197.4 C266,200.8 264.6,204.2 265.1,207.7 C267.4,205.2 268.8,202.2 270,199.1 C271.7,194.8 273.2,190.4 274.7,186.1 C275.3,184.7 277.4,185.2 277.1,186.7 C277,191.6 276.9,196.6 276.8,201.5 L276.7,205.2 C276.7,205.9 276.4,207.9 277.6,207.3 C283.9,200.7 285.6,187.4 284.8,178.4 C272.3,178.7 259.5,177.1 248.7,170.5 Z M359.8,195.4 C359.7,195.5 359.7,195.7 359.6,195.9 C359.7,195.9 359.7,195.9 359.7,195.9 C359.8,195.7 359.8,195.5 359.8,195.4 Z M82.6,195.4 C81.3,194.4 104.5,164.5 103,173.1 C96.5,180.8 89,187.5 82.6,195.4 Z M288.3,129.4 C266.5,124.3 247.3,143.4 225.4,140.5 C225.7,147.3 226.1,154.2 225.9,161.1 C255,163.5 251.6,175.8 285.1,174.5 C289.4,171.7 291.2,154 290.8,148.6 C291.1,142.3 285.6,139.5 280.2,138.3 C278.2,139.5 274.7,136 277.6,134.8 C281.5,133.6 285.1,131.8 288.3,129.4 Z M127.6,17.4 C119.9,18.2 112.2,20.3 105.1,23.5 C78.8,31.1 75,61.9 78.1,85.2 C79.5,102.9 84.5,120.3 95.2,134.7 C123.5,177.8 170.4,171 214.9,165.3 C216.5,164.2 219.2,165 220.8,163.5 C220.6,163.4 220.5,163.4 220.3,163.3 C221.1,162.7 221.6,161.7 221.8,160.6 L222.1,160.6 L222.1,160.6 C222.4,153.9 222.2,147.4 222.3,140.7 C207.7,136.7 192,134.7 177.2,130.7 C175.5,131.9 173.6,130.5 172,129.9 C167.7,128.1 163.4,126.4 159.1,124.7 L158,124.3 C155.2,123.3 152.3,122.2 149.5,121.1 L148.5,120.6 C146.9,120 142.8,117.6 141.1,119.1 L141.2,119.4 C142.3,121.6 145.8,130 141.5,128.3 C137.9,125.8 136,108.4 132.5,108.3 C131.3,111.5 130.4,114.9 130.2,118.3 C130.2,119.1 129.1,119.8 128.5,119 C124.3,113.5 130.6,107.5 130.8,101.7 C131.2,95 128.2,88.6 126.7,82.2 L126.6,81.7 C125.8,77.5 124.4,72.4 124.8,68.7 L125.6,72 C126.5,75.2 127.4,78.5 128.4,81.7 C131,89.8 135.6,98.1 133,106.7 C138.1,106.8 139,114.9 140.9,118.6 C144,114.6 165.9,124.2 170.9,125.8 L171.8,124.7 C187.5,107 198.8,95 223,109 C218.8,95.5 218.4,81.2 217.7,67.2 C217.9,64.5 216.4,57.5 218.6,56 C218.9,56.1 219.3,56.2 219.7,56.4 L219.7,57.7 C219.7,60.4 219.8,64.8 220.9,65.8 L221.4,71.1 C222.8,84.9 224.3,98.7 228.4,111.9 C238.3,117.5 247.3,124.4 255.8,131.8 L256.8,131.5 C267.3,127.6 279.9,122.7 290.6,127.5 C290.4,124.8 289.4,122.2 287.9,119.9 C285.5,119.3 283.9,116.8 282.2,115.1 C276.7,109.2 271,103.4 265.6,97.4 C242.7,72.7 232.9,32.2 196.8,22.6 C194.4,42.5 168.9,45.7 153.5,38.9 L152.9,38.7 C143.4,35 132.5,29.4 129.2,19.3 L129,19 C128.7,18.3 128.3,17.5 127.6,17.4 Z M133.3,130.9 C133.3,130.8 133.4,130.9 133.4,130.9 C128.9,136.5 125.2,144.2 129.7,150.9 C130.5,152.4 128.6,153.9 127.4,152.7 C121.2,145.7 128,136.2 133.3,130.9 Z M289.3,132.1 C286.8,133.9 284.2,135.3 281.4,136.5 C281.4,136.8 281.2,137.2 281.1,137.4 C284.8,137.7 288.6,138.7 291.2,141.3 C291.3,140.4 291.5,139.4 291.6,138.4 C291.8,135.9 291.4,133.6 289.3,132.1 Z M119.8,107.3 L119.8,107.2 C119.8,107 120,107 120,107.2 C119.9,109.2 118.5,110.6 117.2,112 C115.4,114.1 113.6,116.3 111.7,118.4 C108.6,122.1 104.1,125.8 105.1,131.2 C105.2,133.1 102.8,133.5 101.8,132.1 C97.9,124.7 110.1,118.5 114.2,113.8 C116.1,111.7 119.1,110.2 119.8,107.3 L119.8,107.3 Z M177.5,129.3 C177.5,129.4 177.6,129.5 177.6,129.6 C178.3,129.7 178.9,129.7 179.5,129.8 L177.5,129.3 L177.5,129.3 Z M81,112.2 C81.2,112.9 81.3,113.7 81.4,114.5 L81.5,115.2 L81.5,115.2 C81.5,115 81.6,114.8 81.8,114.7 L81.8,114.6 C81.5,113.8 81.3,113 81,112.2 Z M258.1,104.2 C259.6,104.1 252.6,109.1 252.2,109.7 C251.6,110.2 251,109.3 251.6,108.9 C253.8,107.4 255.9,105.8 258.1,104.2 Z M244.4,89.4 C245.5,89 246.2,90.8 245.2,91.3 C241.5,93.1 237.6,94.4 234.2,96.8 C234,96.9 233.8,96.6 234,96.5 L234.4,96.2 C237.5,93.7 240.7,91 244.4,89.4 Z M82.3,66.8 C83.4,71.7 89,73.3 93.3,74.6 L94.7,75.1 C98.6,76.6 102.5,78.3 105.3,81.4 C106.4,84.9 98.7,78.8 97.6,78.5 C92.3,75.2 82.7,74.6 82.3,66.8 Z M197,21.3 C197,21.5 197,21.8 197,22 C197.4,22 197.7,22 198,22 C197.6,21.8 197.3,21.5 197,21.3 Z" id="🖍-Ink" fill="currentColor"></path></g><g id="Head" stroke-width="1" transform="translate(86.5, 45.1)"><g id="head/No-Hair-3"><path d="M100,48.1 C91.2,24.9 75.3,8 48.5,18.6 C47.7,18.1 46.7,17.9 45.7,18.6 C31.1,27.7 20.6,42.4 16.1,59 C13.3,59.5 10.6,60.4 8.2,61.9 C3,65.2 -0.6,70.4 -3.9,75.5 C-4.8,77 -3.9,79.5 -2.1,79.9 C-1.3,80 -0.5,80.1 0.3,80.1 C0.1,80.8 -0.1,81.5 -0.4,82.1 C-1.6,84.4 0.6,86.8 2.7,86.2 C2.9,86.3 3.2,86.4 3.4,86.5 C3.5,87.7 4.1,89.5 5.4,89.7 C7.5,90.2 10.3,88.6 9.8,86.2 C10.5,86.3 11.1,86.3 11.7,86.3 C11.8,87.5 11.8,88.8 11.9,89.9 C12.5,95.2 17.8,98.8 22.9,97.2 C23.2,98.8 23.6,101.2 25.2,102.1 C27.1,107.4 30.5,113.6 35.9,116 C35.4,117.2 35.7,118.7 37.1,119.6 C47,125.2 58.9,127.1 70.1,125 C74.6,124.8 79,123.7 83.2,121.6 C86.2,120 89,118 91.8,116 C94.5,113.9 97.4,111.9 99.6,109.2 C102,106.3 103.1,102.9 103.8,99.3 C107.1,82.8 106,66.6 100,50.9 C92.6,31.5 107.4,67.5 100,48.1 Z" id="🎨-Background" fill="#FFFFFF"></path><path d="M57.4,14.1 C61.9,13.8 66.5,14.5 70.8,15.9 C77.6,18.1 83.9,21.9 89.1,26.9 C94.4,32 98.4,38.3 100.8,45.3 C103.7,53.7 104.1,62.7 104.9,71.5 C105.3,76 106,80.4 106.7,84.8 L106.8,85.5 C107.5,89.7 107.9,94.1 106.9,98.4 C105.4,105.5 100.6,111.5 95,116 C83.5,125.2 65.5,130.8 52,122.3 C49.9,121 51.9,117.7 53.9,119 C55.4,120 56.9,120.8 58.5,121.4 C65.3,123.8 72.8,123 79.5,120.7 C86.1,118.5 92.4,114.7 97.3,109.7 C102.4,104.5 105.2,98 104.8,90.6 C104.6,86.2 103.6,81.9 103,77.5 C102.5,73.7 102.2,69.8 101.9,65.9 L101.8,64.5 C101.1,56.6 100,48.5 96.4,41.3 C93.4,35.3 89,29.9 83.6,25.8 C78,21.4 71.4,18.4 64.4,17.3 C56.2,15.9 48.3,18.4 41.4,22.9 C35.3,26.9 30.1,32.2 26.1,38.3 C24.1,41.2 22.5,44.3 21.1,47.6 C19.7,50.6 18.8,53.8 17.7,56.9 C18.6,56.9 19.5,56.9 20.4,57 C25.1,57.5 29.5,60 32.3,63.8 C35.8,68.5 34.8,74.3 36.2,79.7 C36.3,80.1 36.1,80.5 35.8,80.7 C33.7,82 31,82.1 29.1,80.6 C27.3,79.3 26.5,77 27.2,75 C27.3,74.7 27.7,74.8 27.7,75.1 C27.9,78.5 31,81.1 34.2,79.5 C32.8,74.9 33.5,69.7 30.8,65.6 C25.9,58.2 15.9,57.9 8.8,62 C5.1,64.2 2.1,67.5 -0.1,71.2 L-0.7,72.3 C-1.5,73.7 -2.4,75.3 -2.6,76.9 C-2.7,77.8 -2.4,78.7 -1.3,78.2 C-0.5,77.8 0.2,77 0.7,76.2 C1.5,75 3.5,76 2.8,77.4 L2.8,77.4 C1.7,79.3 1.1,81.3 1,83.4 L1,83.9 C0.9,84.4 0.9,84.9 1,85 C1.1,85 1.9,84.1 2,84 C2.6,83.4 3.2,83 4,82.8 C5.1,82.6 6.2,84 5.3,84.9 L5.2,84.9 C4.4,85.6 4.4,87.1 5.4,87.8 C6.7,88.8 8.3,87.2 8.5,85.9 L8.5,85.8 C8.7,84.4 10.6,84.4 10.7,85.8 C11,89 7.2,91.6 4.3,90 C3.2,89.4 2.5,88.3 2.3,87 C1.9,87.2 1.5,87.3 1.1,87.4 C-0.3,87.5 -1.2,86.6 -1.4,85.3 C-1.7,83.8 -1.5,82.2 -1.1,80.7 C-1.9,80.9 -2.6,80.8 -3.4,80.4 C-5.8,79 -5.1,76 -4.2,74 C-0.4,65.4 7.4,57.5 17,56.9 C17.1,55.4 17.3,54 17.6,52.4 C20.9,37.5 31.6,23.7 45.6,17.3 C49.3,15.5 53.3,14.4 57.4,14.1 Z M20.8,73.6 L20.9,73.6 C22.4,73.3 26.4,72.9 25.9,75.4 C25.9,75.6 25.7,75.5 25.7,75.4 C25.2,73.9 22.1,75.1 21.1,75.5 C19.9,76 18.6,76.8 17.5,77.7 C15.3,79.7 13.7,82.5 13.5,85.5 C13.3,88.5 14.1,91.8 16.3,94 C17.4,95 18.7,95.8 20.3,95.8 C21.6,95.9 23.2,94.8 24.4,95.4 C24.7,95.5 24.9,95.9 24.8,96.2 C24.8,96.7 24.6,97.1 24.2,97.4 C26.3,101.3 28.1,105.4 30.8,108.9 C32.1,110.6 33.7,112.3 35.4,113.6 C36.2,114.3 37.1,114.9 38.1,115.4 C39.2,116 40.1,116.4 40.9,117.4 C41.5,118.2 40.9,119.9 39.8,120.1 C37.2,120.4 34.7,118.3 32.8,116.8 C30.9,115.2 29.3,113.3 28,111.3 C25.4,107.4 23.6,102.8 22.9,98.1 C22.1,98.4 21.2,98.4 20.5,98.5 C18.6,98.5 16.9,97.8 15.4,96.7 C10.1,92.6 9.5,84.1 13.2,78.8 C15,76.2 17.8,74.4 20.8,73.6 Z M20.8,83.4 C22.1,83.3 23.3,83.5 24.5,83.9 L24.9,84.1 C26,84.5 27,84.9 27.8,85.7 C28.9,86.8 27.8,88.8 26.2,88.4 C24.4,87.9 23,86.4 21.2,85.8 C19.7,85.3 17.9,85.3 16.5,86.3 C16.3,86.4 16.1,86.2 16.2,86 C17.3,84.4 18.9,83.6 20.8,83.4 Z" id="🖍-Ink" fill="currentColor"></path></g><g id="face/Smile" transform="translate(39.9, 46.6)" fill="currentColor"><path d="M36.8,60.3 C35.1,59.6 33.6,58.5 32.5,57 C32.1,56.5 32,56 32.1,55.5 C32.2,54.9 32.5,54.4 32.9,54.1 C33.4,53.8 33.9,53.6 34.5,53.7 C35,53.8 35.4,54 35.8,54.6 L35.9,54.7 C36.5,55.5 37.4,56.3 38.3,56.7 C39.3,57.2 40.3,57.4 41.4,57.3 C43.5,57 44.9,55.9 46.4,54.4 C46.6,54.2 46.8,54 47,53.8 C47.1,53.6 47.2,53.5 47.4,53.5 C47.6,53.4 47.9,53.4 48.1,53.5 C48.3,53.5 48.5,53.7 48.6,53.9 C48.7,54 48.8,54.2 48.7,54.5 C48.6,56 47.8,57.4 46.6,58.5 C45.3,59.8 43.6,60.6 42,60.9 C40.2,61.2 38.4,61 36.8,60.3 L36.8,60.3 Z M42.8,36.1 C44.7,37.3 47.6,40 45.6,42.8 C43.2,45.3 39.7,42.5 38,41.2 C36.4,40.1 34.7,42.7 36.1,43.9 C48.4,53 53.4,36.5 43.8,34.8 C42.7,34.6 42.3,35.8 42.8,36.1 Z M20.8,25.6 C21,23 25,22.4 25.4,25 C25.7,27.3 25.3,29.4 24.3,31.4 C23.3,33.4 20.8,32.5 20.6,30.7 C20.3,28.3 20.7,27.2 20.8,25.6 Z M50.9,24.4 C51.5,23.7 52.3,23.2 53.2,23.5 C56.2,24.4 55.3,28.6 54.3,30.6 C53.7,31.8 51.9,32 51,31.1 C49.7,29.5 49,26.3 50.7,24.7 C50.8,24.6 50.8,24.5 50.9,24.4 Z M24.2,14.2 L24.7,14.1 C26.1,13.9 28,13.7 29,14.8 C29.5,15.4 29.7,16.6 29,17.2 C27.7,18.2 26.3,17.8 24.7,17.9 C23.4,18 22.2,18.2 21,18.6 C18.3,19.3 16.1,20.7 13.8,22.3 C13.5,22.5 13.2,22.1 13.3,21.8 C14.7,19.2 17.2,17.1 19.8,15.8 C21.2,15.1 22.7,14.5 24.2,14.2 Z M48.2,13.1 L48.6,13.1 C52.5,14 57.6,15.6 59.4,19.4 C59.5,20 59.4,20.1 59.4,20.2 L59.3,20.2 C59.3,20.3 59.3,20.4 59,20.4 C59,20.4 58.9,20.4 58.8,20.4 C58,20.2 57.3,19.9 56.6,19.5 L55.9,19.2 C55.1,18.8 54.3,18.4 53.4,18.1 C51.5,17.5 49.6,17.1 47.7,16.8 C47.2,16.8 46.8,16.6 46.5,16.4 C46.2,16.2 46,15.9 45.9,15.4 C45.7,14.9 45.8,14.5 46.1,14 C46.3,13.6 46.6,13.3 47,13.2 C47.3,13 47.8,13 48.2,13.1 Z" id="🖍-Ink"></path></g><g id="facial-hair/*-None" transform="translate(30.8, 84.6)"></g><g id="accessories/*-None" transform="translate(11.8, 60.3)"></g></g></g></g></g></svg>