<svg viewBox="0 0 365 577" version="1.1" xmlns="http://www.w3.org/2000/svg" xmlns:xlink="http://www.w3.org/1999/xlink"><g id="Introduction" stroke="none" stroke-width="1" fill="none" fill-rule="evenodd"><g id="variations-sitting" transform="translate(-1293, -955)"><g id="a-person/sitting" transform="translate(1243, 897)"><g id="pose/sitting/crossed_legs" transform="translate(-20.3, 159.5)"><path d="M430.4,186.5 C428.4,185.9 426,185.8 423.8,185.7 C416.2,185.2 408.5,188.8 401.1,190.5 C397.9,191.3 394.4,192.2 390.9,192.9 C387.8,193.3 384.7,193.6 381.4,193.8 C378.9,193.9 375.8,193.7 374.9,196.5 C369.7,197.5 365.1,197.9 360.2,197 C360.6,195.4 360.9,193.8 360.4,192.1 C360.6,191.7 361,191.1 361.2,190.8 L360.6,190.8 C351.8,187.3 342.4,184.9 333.6,181.3 C322.2,177.2 305.3,169.2 292.1,163.8 C293,158.9 293.3,153.9 293,149.1 L293.5,148.6 C293.7,147.7 293.9,146.5 294.4,145.7 C295,144 295.1,141.8 295.3,139.9 C295.8,136.2 296.2,130.7 295.2,126.4 C294.8,120.5 290.8,116 286.6,112.4 C281.3,107.2 276,102.1 270.9,96.7 C242.5,67.8 240.3,31.4 195.8,20.3 L195.8,20.1 C195.4,19.7 195.3,19.4 194.9,20 C193.4,19.5 191.6,19.5 190.3,18.6 C188.2,16.6 186.6,14.3 185.6,11.6 C184.8,6.4 185.4,-1.5 180.9,-4.8 C175.8,-7.8 149.2,-9.9 146.9,-3.4 C145.4,-2 144.8,-0.3 144.4,1.7 C142.9,4.5 141.9,7.7 140.4,10.5 C137.2,16.9 135.2,15.5 129.6,16.9 C129,15.6 127.1,15.9 125.8,16.1 C109.4,18.3 89.5,24.6 82.5,39.9 L83.1,39.9 C71,62.5 78.9,91.3 81,115.3 C82.8,136.6 80.8,158.1 76,178 C70.2,199.1 69.9,222.7 81.4,241.8 C82.6,244 84,247.1 86.6,245.7 C88,246.7 89.5,247.5 91.7,248.1 C92.3,248.5 92.9,249.2 93.5,249.5 C93.5,249.6 94.5,249 94.6,249 C96.5,251.7 200.2,260.7 211,262.1 C220.5,263.2 233,266.1 240.7,259.3 C247.1,257.5 253.8,252.7 258.9,248 C262,292.9 263.7,384.8 266.5,385.4 C267.7,385.8 269.3,386.3 270.7,386.7 C270.7,389.9 271,393.6 270.7,396.8 C270.3,400.3 269.2,404.6 268.7,408.3 C266.6,408.2 266,410.3 265.8,411.7 C264,423.5 264,432.9 264.2,445.8 C285.4,458.3 310.3,465.2 334.1,473.3 C336.4,475 341.4,473.1 344,472.7 C353.2,470.9 363.6,465.5 361.3,455.7 C359.6,448.4 352.5,444.1 346.5,439.8 C340,435.1 333,430.3 327,424.7 C322.2,420.1 318.6,416.6 314.5,411.5 C312.7,409.1 310.8,405.2 308.4,403.4 C311,400.4 305.8,403.2 303.9,403.4 C302.8,398 301.3,392.9 299.6,387.7 L301.3,387.8 C306.7,382.7 309.7,358.5 310.1,351.3 C312.8,304.3 312.8,250.2 301.9,210.7 C310.2,215.8 319.2,220.1 327.5,225.1 C332.7,228.1 337.9,232.3 343.8,233.8 C344.1,234.9 345.5,235.3 346.3,234.3 C347.3,234.4 348.7,234 348.8,233.5 C349.8,231.3 351.4,229 351.2,226.6 C351.2,226.6 349.8,223.3 349.8,223.3 C353,224.6 356.5,227.3 359.9,227.6 C366.8,250.6 380.4,237.7 393.5,228.7 C401.4,223.2 410,217.1 418.3,211.3 C425.4,205.7 439.2,200.4 432.4,189.3" id="🎨-Background" fill="#FFFFFF"></path><path d="M133.6,15.5 C140.3,13.9 141.4,-2.1 145.4,0.2 C147.7,2.2 143.9,6.1 143.3,8.3 L143,8.9 C141.6,11.6 140.1,14.2 137.4,15.8 C135.6,17.6 130.5,15.8 131.2,18.7 C133.9,27.4 148,33.5 156.3,36.2 C169.2,41 190.1,39.4 193.1,23.2 C186,21.9 180.8,9.1 185.2,3.8 C185.3,8.9 186.7,14.3 190.8,17.8 L191,18 C191.7,18.6 192.6,19.4 193.6,19.3 C194.5,18 196.2,18.7 196.7,20 C237.1,27 246,70.4 271.4,96 C276.5,101.3 281.8,106.4 287.1,111.6 C292.4,115.9 296.2,121.8 296.4,128.7 C296.9,132.5 296.7,136.4 296.2,140.3 L296.1,140.6 C295.9,143 295.8,145.6 294.6,147.7 C294.4,148.4 294.5,149.3 293.9,149.8 C294.2,154.3 293.9,158.7 293.1,163.1 L295.1,164 C316.5,173.5 338.2,182.5 360.5,189.6 C362.4,189.3 362.2,191.5 361.3,192.5 C361.6,193.7 361.6,194.9 361.3,196.1 C365.4,196.7 369.5,196.2 373.6,195.5 C374.9,192.7 378.2,192.8 380.9,192.7 C384.1,192.5 387.4,192.2 390.6,191.8 C398.6,190 406.4,187.6 414.3,185.6 C419.6,184.1 425.3,184.2 430.6,185.5 C431.5,186.5 432.3,187.6 433,188.8 C437.9,196.3 433.1,203.1 426.3,207.1 C415.5,214.7 404.6,222.4 393.7,230 L392.9,230.6 C380,239.9 365.4,251.6 358.5,229 C356.1,228.8 354.1,227.2 351.9,226.3 C352.5,229 350.8,231.7 349.6,234 C349.1,235.4 347.6,235.8 346.3,235.8 C345.2,236.9 343.1,236.4 342.4,235.1 C336.5,233.5 331.6,229.5 326.3,226.4 C318.9,221.9 311,218 303.5,213.7 C316,265.7 313,319.8 309.6,372.7 L309.6,373.2 C309.2,380.9 307.4,384.5 301,389.3 C302.1,392.7 303.1,396.1 303.9,399.6 C304.2,400.4 305.4,399.7 305.4,400.8 C307.7,400.2 312.3,400.8 310.7,404 C315.3,407.8 318.4,413 322.4,417.3 C329.4,425.8 338.7,432.1 347.7,438.3 C368.5,448.9 369.7,467.2 345.4,473.5 L345.1,473.6 C341.8,474.4 337.7,476.2 334.5,474.7 C329.6,473.7 324.8,471.8 320.1,470.4 C300.9,464.1 282.2,456.6 264,448.1 C263.3,447.8 263,447.1 263,446.4 C263.2,440.6 261.6,408.5 267.6,407.8 C269,401.3 269.2,394.5 269,387.9 C267,387.3 265,386.7 263,386.3 C261,385.6 257.9,385.5 256.6,383.9 C256.1,383.7 255.7,383.3 255.8,382.6 C256.9,372.6 257.7,362.5 258.3,352.5 C260.3,318.7 259.6,284.8 257.3,251 C252.5,255.1 247.1,258.7 241.1,260.7 C237.7,264 232.4,264.7 227.8,265.1 C222,265.5 216.2,264.3 210.4,263.6 C200.6,262.4 190.9,263.4 181.1,264.7 L177.8,265.1 C153.9,267.7 128.1,268.2 105.9,258 C101.7,258.4 96.5,253.9 93.9,250.9 C92.7,251.6 91.6,250.2 90.7,249.5 C89.2,249 87.4,248.3 86.1,247.4 C82.6,248.5 80.7,244 79.4,241.5 C58.3,205.5 81.8,169.7 80,131.5 C81.1,101.6 67.4,70.4 80.6,41.7 C83.3,29.5 98.9,21.1 110.7,18 C114.5,17.4 128.8,12.2 130.4,16.6 C131.2,15.6 132.4,15.5 133.6,15.5 Z M308.2,405.4 C306.3,405.6 304.4,405.7 302.4,406 C295.3,407.2 288.5,410 282.4,413.8 C280.4,415 278.6,416.6 276.3,417.3 C271.7,419 267.1,414.7 267.4,410.2 C266.1,421.6 266.3,433.4 267,444.9 C285.3,453.1 304,460.5 323,466.9 C327.3,468.7 332.4,469.3 336.3,471.7 C343,471.3 349.8,468.9 355.4,465.2 C364.7,458.7 358.5,448.5 350.8,444 C333.7,436.3 319.2,420.7 308.2,405.4 Z M270.9,388.5 C270.5,391.8 273.1,397.1 272.7,403.9 C272.5,406 271.8,408.2 272,410.3 C273.1,418.2 281.6,408.2 285.1,407.1 C290.1,404.3 295.5,402.5 301.1,401.5 C301.1,399.6 299.9,398.9 299.7,397.1 C299.5,394.5 299.5,392 299.4,389.3 C292.1,392.6 278.6,390.3 270.9,388.5 Z M310,404.8 C309.8,404.9 309.7,405 309.6,405.1 C310.6,406.3 311.5,407.6 312.6,408.7 L312.1,407.9 C311.5,406.8 310.8,405.8 310,404.8 Z M84.6,123.9 C84.3,125.4 83.6,126.8 82.6,128 C87.8,169.7 61.3,204.5 85.6,243.2 C85.9,243.4 86.2,243.6 86.5,243.8 C86.6,243.7 86.8,243.6 86.9,243.5 C98.3,223.3 114.6,205.9 127.5,186.6 C130,181.7 134.1,176.9 135.7,171.3 C109.6,161 99.3,146 84.6,123.9 Z M427.2,187.2 C426.1,187.6 424.8,187.3 423.7,187.2 C419.5,187.1 415.4,188.2 411.4,189.3 C399.8,192.5 388.1,195.3 376.2,197.2 C375.9,197.5 375.7,197.7 375.5,198 C375.7,198.3 375.7,198.8 375.4,199.2 C373.6,202.6 375.1,206.8 373.8,210.5 C371.9,217.9 366.8,226.3 359.3,228.9 C361.8,231.3 363.6,234.4 366.2,236.7 C372.6,241 379.5,234.6 384.7,231.1 C394.6,224.1 404.5,217.2 414.4,210.4 C418.8,206.7 428.6,202.1 430.8,197.2 C432.1,193.5 429.6,189.8 427.2,187.2 Z M359.2,196.7 C355,205.3 352.5,214.5 350.1,223.8 C352.6,224.5 355,225.6 357.5,226.3 C361,227.1 366,220.3 367.8,217.6 C369.6,214.6 370.9,211.2 371.5,207.8 C372,204.3 371.4,200.8 372.9,197.7 C368.3,198.1 363.7,198.2 359.2,196.7 Z M107,178.8 C111,177.7 101.9,186.7 101.4,187.7 C95.5,194.6 90.1,202 84.7,209.3 L83.1,211.6 C82.9,211.8 81.9,213.4 82.6,213.2 C82.7,213.2 82.7,213.2 82.7,213.3 C77.7,214.2 104.6,179.4 107,178.8 Z M204.1,174.6 C204.4,173.6 202.9,173.2 202.6,174.2 L201.6,177.2 C197.7,188.8 193.9,200.3 189.3,211.6 C189,212.5 190.5,212.9 190.9,212 C195.9,199.7 199.9,187.1 204.1,174.6 Z M248.7,170.5 C247.3,177.2 243.7,183.1 241.6,189.5 C245.6,188.6 248.7,184.8 251.1,181.6 L251.1,181.5 C252.2,179.8 253.5,177.2 256,178.4 C259.8,180.6 257.1,188.4 257,192.1 C256.6,197.2 254.9,202 253.8,206.9 C256.7,204.9 257.5,201 258.9,198 L264.4,184.9 L264.4,184.9 C268.4,179.5 266.5,195.9 266.3,197.4 C266,200.8 264.6,204.2 265.1,207.7 C267.4,205.2 268.8,202.2 270,199.1 C271.7,194.8 273.2,190.4 274.7,186.1 C275.3,184.7 277.4,185.2 277.1,186.7 C277,191.6 276.9,196.6 276.8,201.5 L276.7,205.2 C276.7,205.9 276.4,207.9 277.6,207.3 C283.9,200.7 285.6,187.4 284.8,178.4 C272.3,178.7 259.5,177.1 248.7,170.5 Z M359.8,195.4 C359.7,195.5 359.7,195.7 359.6,195.9 C359.7,195.9 359.7,195.9 359.7,195.9 C359.8,195.7 359.8,195.5 359.8,195.4 Z M82.6,195.4 C81.3,194.4 104.5,164.5 103,173.1 C96.5,180.8 89,187.5 82.6,195.4 Z M288.3,129.4 C266.5,124.3 247.3,143.4 225.4,140.5 C225.7,147.3 226.1,154.2 225.9,161.1 C255,163.5 251.6,175.8 285.1,174.5 C289.4,171.7 291.2,154 290.8,148.6 C291.1,142.3 285.6,139.5 280.2,138.3 C278.2,139.5 274.7,136 277.6,134.8 C281.5,133.6 285.1,131.8 288.3,129.4 Z M127.6,17.4 C119.9,18.2 112.2,20.3 105.1,23.5 C78.8,31.1 75,61.9 78.1,85.2 C79.5,102.9 84.5,120.3 95.2,134.7 C123.5,177.8 170.4,171 214.9,165.3 C216.5,164.2 219.2,165 220.8,163.5 C220.6,163.4 220.5,163.4 220.3,163.3 C221.1,162.7 221.6,161.7 221.8,160.6 L222.1,160.6 L222.1,160.6 C222.4,153.9 222.2,147.4 222.3,140.7 C207.7,136.7 192,134.7 177.2,130.7 C175.5,131.9 173.6,130.5 172,129.9 C167.7,128.1 163.4,126.4 159.1,124.7 L158,124.3 C155.2,123.3 152.3,122.2 149.5,121.1 L148.5,120.6 C146.9,120 142.8,117.6 141.1,119.1 L141.2,119.4 C142.3,121.6 145.8,130 141.5,128.3 C137.9,125.8 136,108.4 132.5,108.3 C131.3,111.5 130.4,114.9 130.2,118.3 C130.2,119.1 129.1,119.8 128.5,119 C124.3,113.5 130.6,107.5 130.8,101.7 C131.2,95 128.2,88.6 126.7,82.2 L126.6,81.7 C125.8,77.5 124.4,72.4 124.8,68.7 L125.6,72 C126.5,75.2 127.4,78.5 128.4,81.7 C131,89.8 135.6,98.1 133,106.7 C138.1,106.8 139,114.9 140.9,118.6 C144,114.6 165.9,124.2 170.9,125.8 L171.8,124.7 C187.5,107 198.8,95 223,109 C218.8,95.5 218.4,81.2 217.7,67.2 C217.9,64.5 216.4,57.5 218.6,56 C218.9,56.1 219.3,56.2 219.7,56.4 L219.7,57.7 C219.7,60.4 219.8,64.8 220.9,65.8 L221.4,71.1 C222.8,84.9 224.3,98.7 228.4,111.9 C238.3,117.5 247.3,124.4 255.8,131.8 L256.8,131.5 C267.3,127.6 279.9,122.7 290.6,127.5 C290.4,124.8 289.4,122.2 287.9,119.9 C285.5,119.3 283.9,116.8 282.2,115.1 C276.7,109.2 271,103.4 265.6,97.4 C242.7,72.7 232.9,32.2 196.8,22.6 C194.4,42.5 168.9,45.7 153.5,38.9 L152.9,38.7 C143.4,35 132.5,29.4 129.2,19.3 L129,19 C128.7,18.3 128.3,17.5 127.6,17.4 Z M133.3,130.9 C133.3,130.8 133.4,130.9 133.4,130.9 C128.9,136.5 125.2,144.2 129.7,150.9 C130.5,152.4 128.6,153.9 127.4,152.7 C121.2,145.7 128,136.2 133.3,130.9 Z M289.3,132.1 C286.8,133.9 284.2,135.3 281.4,136.5 C281.4,136.8 281.2,137.2 281.1,137.4 C284.8,137.7 288.6,138.7 291.2,141.3 C291.3,140.4 291.5,139.4 291.6,138.4 C291.8,135.9 291.4,133.6 289.3,132.1 Z M119.8,107.3 L119.8,107.2 C119.8,107 120,107 120,107.2 C119.9,109.2 118.5,110.6 117.2,112 C115.4,114.1 113.6,116.3 111.7,118.4 C108.6,122.1 104.1,125.8 105.1,131.2 C105.2,133.1 102.8,133.5 101.8,132.1 C97.9,124.7 110.1,118.5 114.2,113.8 C116.1,111.7 119.1,110.2 119.8,107.3 L119.8,107.3 Z M177.5,129.3 C177.5,129.4 177.6,129.5 177.6,129.6 C178.3,129.7 178.9,129.7 179.5,129.8 L177.5,129.3 L177.5,129.3 Z M81,112.2 C81.2,112.9 81.3,113.7 81.4,114.5 L81.5,115.2 L81.5,115.2 C81.5,115 81.6,114.8 81.8,114.7 L81.8,114.6 C81.5,113.8 81.3,113 81,112.2 Z M258.1,104.2 C259.6,104.1 252.6,109.1 252.2,109.7 C251.6,110.2 251,109.3 251.6,108.9 C253.8,107.4 255.9,105.8 258.1,104.2 Z M244.4,89.4 C245.5,89 246.2,90.8 245.2,91.3 C241.5,93.1 237.6,94.4 234.2,96.8 C234,96.9 233.8,96.6 234,96.5 L234.4,96.2 C237.5,93.7 240.7,91 244.4,89.4 Z M82.3,66.8 C83.4,71.7 89,73.3 93.3,74.6 L94.7,75.1 C98.6,76.6 102.5,78.3 105.3,81.4 C106.4,84.9 98.7,78.8 97.6,78.5 C92.3,75.2 82.7,74.6 82.3,66.8 Z M197,21.3 C197,21.5 197,21.8 197,22 C197.4,22 197.7,22 198,22 C197.6,21.8 197.3,21.5 197,21.3 Z" id="🖍-Ink" fill="currentColor"></path></g><g id="Head" stroke-width="1" transform="translate(86.5, 45.1)"><g id="head/Gray-Short"><path d="M72.1,127.6 C66.5,127.6 61.8,126 58.2,123.4 C53.7,121.8 48.2,119.3 44.9,116.7 C43.6,117.1 42.1,115.7 41.1,115 C35,110.4 30.2,103.7 28.8,97 C26.6,99.8 23.4,99.9 20.4,98.5 C14.1,95 14.4,87.5 16.6,81.9 C11.9,71.2 8.6,43.1 15.9,31.8 C17.3,30.1 19.5,29 21.1,27.3 C22.5,25.8 23.8,24.2 25.4,23 C30.4,19.2 38.9,17.2 44.3,16.3 C66.6,11.5 83.7,20.1 103.9,27.4 C102.8,30.3 101.2,33 99.3,35.5 C104.3,37.3 102,41.5 98.1,43.7 L95.8,42.6 C99.4,55.5 107.8,87.6 104.2,97.9 C101.3,113.9 88.8,127.7 72.1,127.6" id="🎨-Background" fill="#FFFFFF"></path><path d="M75.3,129 C68.1,129.7 59.5,128 54.7,122.1 C54.5,122 54.5,121.8 54.5,121.6 C54.4,121.3 54.5,121.1 54.6,121 C54.8,120.8 55,120.7 55.2,120.7 C55.4,120.6 55.6,120.6 55.8,120.8 L56.2,121 C59.5,122.8 62.9,124.4 66.6,125 C70.5,125.7 74.4,125.6 78.2,124.8 C85.1,123.2 90.7,119.2 94.9,113.9 C99.5,108 102.2,100.4 102.9,92.9 C103.8,83.8 101.8,74.8 99.8,65.9 C97.6,56.7 95.3,47.5 92.5,38.4 C92.4,38.1 92.4,37.8 92.4,37.6 C91.6,37.3 90.8,37.4 89.9,37.6 C88.4,38.2 86.8,39.4 85.5,40.3 C85,40.7 84.6,41 84.2,41.3 C82.6,42.4 80.8,43.2 78.9,43.3 C76.8,43.4 74.8,42.8 73,42 C72,41.6 71.1,41.2 70.2,40.8 C67.5,39.6 64.9,38.4 62.1,37.6 C58.3,36.6 54.3,36.1 50.4,36.1 C43.3,36.2 36.3,38 32,44 C30.2,46.4 29.1,49.2 30,52.1 C30.4,53.7 31.3,55.2 32.3,56.6 L32.7,57 C33.2,57.8 33.7,58.5 33.9,59.3 C34,60 33.9,60.7 33.4,61.4 C33.1,61.9 32.7,62.3 32.4,62.8 C32.1,63.1 31.8,63.4 31.6,63.7 C31.1,64.4 30.7,65.1 30.3,65.9 C29.7,67.3 29.4,68.9 29.4,70.5 C29.3,72.5 29.6,74.4 29.8,76.2 C30,77.6 30.2,78.9 30.3,80.3 C30.3,80.5 30.2,80.7 30.1,80.8 C30,81 29.8,81.1 29.6,81.1 C29.6,81.1 29.5,81.1 29.4,81.1 C29.5,81.3 29.5,81.4 29.5,81.5 C29.4,81.4 29.2,81.2 29.1,81 C29.1,81 29.1,81 29.1,81 C28.9,80.9 28.8,80.8 28.7,80.7 C28.5,80.5 28.3,80.3 28,80.1 C26.8,79.2 25.4,78.7 24,78.7 C22.7,78.6 21.3,79.1 20.3,80.1 C18.2,82 17.6,85.2 17.6,87.9 C17.5,90.7 18.2,94 20.6,95.7 C21.6,96.4 22.8,96.8 24,96.8 C24.9,96.8 25.9,96.5 26.8,96.2 C27.1,96.1 27.4,96 27.7,95.9 C28,95.8 28.3,95.8 28.6,95.8 C28.9,95.9 29.1,96.1 29.3,96.3 C29.5,96.6 29.6,96.9 29.6,97.2 C29.7,97.5 29.6,97.8 29.5,98.1 C29.5,98.2 29.4,98.2 29.4,98.3 L29.9,99.2 C32,102.5 34,105.8 36.8,108.7 C38.3,110.3 40,111.9 41.8,113.2 L42,113.4 C42.2,113.5 42.4,113.7 42.6,113.8 C43.1,114.3 43.7,114.8 44.3,114.9 C44.5,114.9 44.6,114.8 44.8,114.8 C45.1,114.8 45.4,114.8 45.7,114.9 C45.9,115 46.1,115.1 46.4,115.5 C46.5,115.7 46.6,116 46.6,116.3 C46.6,116.6 46.5,116.9 46.4,117.2 C46.1,117.7 45.7,118 45.3,118.2 C44.9,118.4 44.4,118.4 43.8,118.3 C42.6,118.1 41.1,117 40.2,116.3 L40.1,116.2 C38.1,114.7 36.2,113 34.5,111.1 C31.7,107.9 29.2,104.1 27.9,100 C26.9,100.6 25.8,100.9 24.6,100.9 C22.9,101 21,100.6 19.7,99.9 C16.7,98.5 14.9,95.9 14.1,92.8 C13.1,89.2 13.4,85.1 14.7,81.9 C14.7,81.9 14.7,81.8 14.8,81.7 C10.9,72 9.8,61.2 10.1,50.9 C10.2,46 10.6,40.9 11.7,36.2 C12.2,34.1 13.1,32.1 14.5,30.4 C15.3,29.5 16.3,28.7 17.3,28 C18.2,27.3 19.1,26.7 19.8,25.9 L20.2,25.5 C20.2,25.4 20.3,25.4 20.4,25.3 C21.6,23.9 22.9,22.5 24.4,21.4 C26.2,20.1 28.1,19 30.2,18.2 C34.6,16.3 39.3,15.2 44,14.4 C54.1,12.5 64.5,12.4 74.5,15 C79.1,16.2 83.6,17.9 88.1,19.6 C88.5,19.7 89,19.9 89.4,20 C92.9,21.3 96.4,22.6 99.9,23.9 C101.5,24.5 103.1,25.1 104.7,25.7 C105.1,25.8 105.4,26.1 105.6,26.4 C105.8,26.8 105.9,27.1 105.7,27.5 C104.7,30.1 103.5,32.4 101.9,34.6 C102.5,35 102.9,35.5 103.3,36 C103.7,36.8 104,37.6 104,38.5 C104,41.5 101.3,43.5 99,45 C98.8,45.1 98.6,45.2 98.4,45.2 C100.6,53.6 102.7,62 104.5,70.5 L104.6,71.1 C106.5,80 107.6,89 105.9,98 C104.4,105.7 100.9,113.2 95.5,119 C90.2,124.6 83,128.2 75.3,129 Z M27.7,77.9 C26.8,74.9 26.3,71.7 26.6,68.6 C26.8,66.7 27.4,64.9 28.4,63.2 C28.9,62.2 29.6,61.4 30.3,60.5 L30.5,60.2 C30.6,60.1 30.8,60 30.8,59.8 C30.8,59.7 30.8,59.6 30.7,59.5 C30.6,59.2 30.4,58.9 30.1,58.6 C30,58.5 29.9,58.3 29.7,58.2 C27.7,55.4 26.1,52 26.6,48.5 C27.1,45 29.4,41.8 31.8,39.3 C37.1,34 45.4,32.7 52.7,33 C56.9,33.2 61.1,33.9 65.1,35.2 C67.1,35.9 69,36.7 70.9,37.5 L71.3,37.7 C71.6,37.9 71.8,38 72,38.1 C73.5,38.8 75,39.5 76.6,39.9 C79.7,40.7 81.8,39.1 84,37.4 C84.8,36.9 85.6,36.3 86.4,35.8 L86.5,35.7 C88,34.9 89.8,34.3 91.5,34.3 C93,34.3 94.4,34.8 95.6,35.9 C95.8,36.2 96,36.4 96,36.7 C96.1,36.8 96.3,37 96.3,37.3 C96.7,38.9 97.2,40.4 97.6,42 L97.9,41.8 C98.9,41.1 100,40.4 100.5,39.3 C100.7,38.9 100.6,38.2 100.4,37.7 C100.3,37.5 100.2,37.3 100.1,37.2 C100,37.2 99.8,37.1 99.7,37.1 C99.3,37.2 98.9,37.1 98.6,37 C98.3,36.9 98,36.6 97.9,36.3 C97.7,36.1 97.6,35.7 97.6,35.4 C97.7,35.1 97.8,34.7 98.1,34.4 C99.8,32.5 101.2,30.3 102.3,27.9 L95.1,25.3 C92.5,24.3 89.9,23.4 87.3,22.4 L85.9,21.9 C81.2,20.2 76.5,18.5 71.6,17.4 C61.9,15.2 51.8,15.7 42.2,17.8 L41.6,17.9 C37.5,18.8 33.4,19.9 29.7,21.7 C27.8,22.6 26.1,23.7 24.6,25.1 C24,25.8 23.4,26.4 22.8,27.1 C21.9,28.1 21.1,29 20.1,29.8 L19.2,30.5 C17.8,31.7 16.6,32.7 15.8,34.4 C15,36.2 14.6,38.2 14.3,40.1 C13.5,45 13.2,49.9 13.2,54.8 C13.2,63.1 14.5,71.2 16.1,79.2 C17.4,77.4 19.2,76 21.4,75.7 C22.9,75.5 24.4,75.8 25.7,76.4 C26.5,76.8 27.1,77.3 27.7,77.9 L27.7,77.9 Z M25.3,87.7 C23.6,87.1 21.9,86.9 20.1,87.2 C19.9,87.2 19.7,87.2 19.6,87.1 C19.4,87 19.3,86.9 19.2,86.7 C19.2,86.5 19.2,86.4 19.2,86.2 C19.3,86 19.4,85.9 19.6,85.8 C21.5,84.9 23.7,84.5 25.8,84.8 L26,84.8 C27.1,85 28.6,85.3 29.7,86 C30.6,86.5 31.3,87.2 31.4,88.1 C31.5,88.6 31.4,89.1 31.1,89.5 C30.9,89.9 30.4,90.1 29.9,90.1 C28.9,90.1 28.4,89.7 27.7,89.1 C27.6,89.1 27.5,89 27.4,88.9 C26.8,88.5 26.1,88 25.3,87.7 Z" id="🖍-Ink" fill="currentColor"></path></g><g id="face/Smile-Big" transform="translate(39.9, 46.6)" fill="currentColor"><path d="M23.4,46.7 C27.7,46.2 31.9,47.5 36.1,48.1 C38.3,48.5 40.5,48.8 42.8,48.9 C43.2,48.9 43.7,48.9 44.1,48.9 C44.2,48.5 44.4,48.1 44.9,47.9 C45.9,47.5 46.6,47.3 47.7,47.3 C48.7,47.3 49.7,47.5 50.7,47.6 C52.5,48 54.3,48.7 55.6,50 C58.6,52.9 58.1,57.7 55.8,60.9 C51,67.6 42.2,67.9 34.7,67.8 L34,67.8 C27.2,67.7 17.4,68.8 14.3,61 C13.2,58.1 13.3,54.8 14.7,52.1 C16.4,48.8 19.9,47.1 23.4,46.7 Z M44.8,57.8 L44.7,57.8 C41.5,57.9 38.4,58 35.2,58.1 C35.3,58.9 35.4,59.7 35.5,60.5 C35.6,61.1 35.7,61.8 35.8,62.4 C35.9,62.7 36,63.1 36,63.4 L36,63.5 L36,63.5 C36.1,63.5 36.3,63.7 36.4,63.8 C36.4,63.9 36.4,63.9 36.5,64 C38.9,64 41.5,64 44,63.5 L44,63.5 L44,63.5 C44.1,63.2 44.2,62.9 44.4,62.8 C44.6,61.8 44.6,60.7 44.6,59.7 C44.7,59.1 44.7,58.4 44.8,57.8 Z M32.8,58.1 C30.6,58.2 28.3,58.2 26,58.2 L25,58.1 L25,58.1 C25.2,59.3 25.4,60.5 25.6,61.7 C25.8,62.9 24.8,63.7 23.8,63.6 C23.9,63.6 24,63.7 24.1,63.7 C27.1,64.1 30.1,64 33.1,64 C32.9,63 33,62 32.9,61.2 L32.9,61.1 C32.9,60.1 32.9,59.1 32.8,58.1 Z M17.4,57.9 C17.5,58.5 17.6,59.1 17.9,59.7 C18.8,62 21.1,63.1 23.4,63.5 C23,63.4 22.7,63.1 22.6,62.5 C22.4,61 22.3,59.6 22.3,58.1 C20.7,58.1 19,58.1 17.4,57.9 Z M53.3,57.4 C52.1,57.7 50.8,57.6 49.6,57.6 C48.6,57.7 47.5,57.7 46.4,57.7 C46.5,58.5 46.5,59.2 46.6,59.9 C46.6,60.9 46.6,61.9 46.8,62.8 C49,62.1 50.9,60.9 52.4,59 C52.7,58.6 53.1,58 53.3,57.4 Z M22.9,50.5 C21,51 19.1,52 18.1,53.7 C17.6,54.8 17.3,56 17.3,57.3 C19,57.1 20.7,57 22.3,56.9 C22.3,56.6 22.3,56.3 22.3,56 L22.4,55.3 C22.4,53.8 22.4,52 22.9,50.5 Z M33,50.7 L32.1,50.6 C29.7,50.3 27.4,50.1 25,50.2 C24.6,50.2 24.3,50.3 23.9,50.3 C24.4,51.8 24.3,53.6 24.5,55.1 C24.6,55.7 24.7,56.3 24.8,56.8 L25.2,56.8 L25.2,56.8 C27.7,56.7 30.3,56.6 32.8,56.5 C32.8,56 32.8,55.5 32.8,55.1 L32.8,54.6 C32.9,53.4 32.8,52 33,50.7 Z M44.9,50.5 C42.4,50.9 39.8,51 37.4,51 C36.4,51 35.4,50.9 34.5,50.9 C34.5,51.4 34.6,51.9 34.6,52.4 C34.7,53.4 34.8,54.5 34.9,55.5 L35,56.4 L35,56.4 C38.2,56.3 41.3,56.1 44.5,55.9 L44.9,55.9 L44.9,55.9 L45,54.2 C45.1,53 45.2,51.9 45.3,50.7 L45.2,50.7 L45.2,50.7 C45.1,50.6 45,50.6 44.9,50.5 Z M46,50.9 C46.1,52.6 46.2,54.2 46.3,55.8 L48.4,55.7 C48.7,55.7 49,55.7 49.4,55.7 C50.7,55.6 52.5,55.2 53.8,55.6 C53.9,54.4 53.5,53.2 52.4,52.4 C50.5,51 48.1,51.5 46,50.9 Z M38.9,36.3 C42,34.6 49.7,32.8 50.2,38.3 C50.4,40.8 48.5,43 46.3,43.9 L46.2,43.9 C44.2,44.8 40.5,45.7 38.7,43.9 C37.2,42.4 39.2,39.6 41,40.9 C42,41.5 44,41 45.1,40.7 L45.1,40.7 C46.3,40.4 47.8,39.3 47.3,37.9 C46.9,36.6 45.1,36.4 44,36.4 C42.3,36.3 40.7,36.7 39,36.8 C38.8,36.8 38.7,36.5 38.9,36.3 Z M51.7,27.4 C55.8,27.2 58.4,31.8 57.5,35.5 C57.3,36.2 56.6,36.8 55.9,36.7 L55.7,36.7 C55.6,36.7 55.5,36.7 55.5,36.7 C54.8,36.5 54.2,35.8 54.3,35.1 L54.3,34.9 C54.4,33.1 54.2,31.1 52.1,30.7 C50.3,30.3 49.3,32 49.3,33.6 C49.3,33.9 49,34.1 48.7,33.9 C47.4,33.1 47.2,31.6 47.7,30.2 C48.3,28.5 49.9,27.5 51.7,27.4 Z M20.7,28.4 C23.7,27.4 27,29 28.5,31.7 C29,31.9 29.5,32.3 29.4,32.9 C29.3,33.7 29.2,34.3 28.6,35 C27.6,36 25.8,35.5 25.4,34.2 L25.4,34.1 C25,32.5 23.1,31.4 21.5,32 C19.5,32.6 19.6,34.7 18.2,35.9 C18.1,36 17.9,36 17.7,35.9 C16.3,35.2 16.5,33.1 17,31.9 C17.7,30.4 19,29 20.7,28.4 Z M16.5,19.2 C19,16.7 25.4,14.3 27.1,18.9 C27.4,19.8 26.7,21 25.8,21.2 C24.3,21.5 23,20.8 21.5,20.9 C20.3,21 19,21.4 18,22.2 C15.3,24.2 14.8,27.8 12.9,30.4 C12.8,30.5 12.6,30.5 12.6,30.3 C12.2,26.5 13.8,21.9 16.5,19.2 Z M48.7,16.7 C50.3,16.2 52.1,16.2 53.8,16.7 C55.4,17.2 57,18.2 58.1,19.5 C58.7,20.1 59.1,20.7 59.5,21.4 C59.8,21.7 60,22.5 60.2,22.9 C61.5,23.7 62,25.4 60.9,26.6 L60.8,26.6 L60.7,26.8 C60.1,27.4 59.1,27.7 58.3,27.4 C56.4,26.9 56.2,25.4 55.5,23.8 C55.1,22.8 54.3,21.8 53.4,21.2 C51.3,19.6 47.8,19 45.3,19.8 C45.1,19.8 45,19.7 45.1,19.5 C45.6,18.9 45.8,18.4 46.5,17.9 C47.1,17.4 47.9,17 48.7,16.7 Z" id="🖍-Ink"></path></g><g id="facial-hair/*-None" transform="translate(30.8, 84.6)"></g><g id="accessories/*-None" transform="translate(11.8, 60.3)"></g></g></g></g></g></svg>