<svg viewBox="0 0 346 521" version="1.1" xmlns="http://www.w3.org/2000/svg" xmlns:xlink="http://www.w3.org/1999/xlink"><g id="Introduction" stroke="none" stroke-width="1" fill="none" fill-rule="evenodd"><g id="variations-sitting" transform="translate(-355, -236)"><g id="a-person/sitting" transform="translate(331, 200)"><g id="pose/sitting/closed_legs-1" transform="translate(-20.3, 159.5)"><path d="M386.9,369 C379.3,358.2 363.2,356.4 352.9,348.8 C347.5,344.6 341.7,341.9 337.5,336.3 C344.2,328.4 335.9,309.9 334.2,299.3 C327.4,271.3 321.2,242.9 313.1,215 C327.1,219.4 323.4,193.4 321.4,187.4 C321.3,186.5 320.3,186.4 319.6,186.1 C319.8,184.9 320.3,184.7 318.8,184.3 C318.3,177.3 320.3,169.3 316.7,163.1 C312.6,156.3 302.9,150.6 294.8,150.5 C289.2,128 288.1,117.4 261.3,126.9 C261.9,124.8 262.1,122.7 261,120.5 C257,108.4 251.9,95 247.5,82.7 C242.4,68.5 237.2,53.8 230.4,40.2 C225.7,31.5 210.8,29.2 200.8,30.6 C198.4,26.4 192.4,14.7 184.7,17.4 C184.7,13.9 184.6,10.4 184.6,6.9 C184.5,3.8 184.9,0.7 183.7,-2.2 C182.4,-5.3 179.9,-6.9 176.9,-8.1 C167.9,-11.1 157.5,-15.9 148,-12.9 C139.6,-9.1 140.6,5.2 136.6,12.9 C130.9,4.6 121.3,10.2 119.3,19.1 C96.1,28.4 76.1,17.9 74.6,54.1 C75.9,60.8 77,67 76.4,73.6 L75.7,73.7 C69.8,105.8 67.5,140.3 68.9,176.1 C68.6,190.1 63.5,203.3 58.5,216 C54.8,225.4 51.1,235 49.3,245 C47.3,253.2 40,293 56.2,279.8 C56.8,325 97.2,330.8 133.5,320.8 C172.1,312.8 215.5,315.1 239.6,276.4 C247.7,290.3 250.6,298.9 252.6,313.5 C254.9,324.2 258.1,336.3 264.1,343.4 C259,352.7 256.4,364 256.7,371.4 C256.8,374.3 255.4,375.6 257.4,377.4 C266.5,386.1 286.9,386.2 302.5,390 C313.1,391.4 351.6,396.6 357.5,393.2 C361.6,394.3 356.8,383.7 360.9,383.4 C362.3,383.5 362.5,381.7 363.9,381.7 C373.1,382.2 393,384.9 388.2,377.4 L386.9,369 Z" id="🎨-Background" fill="#FFFFFF"></path><path d="M384.6,379.4 C377.8,380.9 370.8,380.5 363.9,381.1 C364.2,380.5 364.4,379.9 364.5,379.3 C371.6,378.5 379.1,378 385.8,375.7 C386,376.5 386.1,377.2 386.1,378 C386.2,378.1 386.1,379.3 386.3,379.1 C386.1,379.3 384.9,379.4 384.6,379.4 M350.3,361.9 C338,357.8 324.9,354.3 315.3,344.9 C315.4,344.9 315.4,344.8 315.4,344.8 C317.4,344.2 319.5,343 321.4,344.3 C327.4,344.1 333.7,342 338,337.5 C338.3,337.6 338.5,337.7 338.8,337.8 C346.9,351.6 364.3,354.2 377,362.2 C382.1,365.2 391.7,373.3 379.4,373.5 C374.6,374.2 369.7,374.7 364.9,375.1 C364.5,367.3 356.8,363.9 350.3,361.9 M358.9,381.8 C356.5,385.1 352,386.5 348,386.1 C345.1,385.7 342.5,384.7 339.4,384.9 C316.2,384 293.3,379.2 270.6,374.3 C250.3,370.5 265.8,355.5 264.1,343.4 C267,345.2 270.2,346.4 273.6,347.4 C277.9,359.4 289.7,356.2 298,350.5 C301.2,350.4 305.2,350.9 307.8,348.7 C308,348.9 308.1,349 308.3,349.1 C310.4,347.8 312.3,346.5 314.5,345.6 C321.9,358.1 337.6,361 350.2,365.8 C357.9,367.9 364.3,373.8 358.9,381.8 M358.5,392.5 C352,394.5 345.1,394.1 338.3,393.6 C316.2,391.7 294.3,387.9 272.8,382.2 C267.7,380.8 257.8,379.3 257.4,372.9 C261.9,378.8 270,379.5 276.8,381.1 C299.1,385.4 321.9,391.1 344.7,390 C349.5,391.3 354.8,390.3 358.9,387.6 C358.7,389.2 358.6,390.9 358.5,392.5 M237.9,184.1 C241.2,175.3 244.8,166.7 248.3,158 C254.7,161.6 261.9,162.9 269.4,163.7 C269.5,163.8 269.7,163.9 269.9,163.9 C270.3,164 270.6,164 270.8,163.9 C280.7,164.9 290.8,165.3 299.5,169.4 C302.8,170.9 306,173 308.8,175.9 C312,178.9 314.5,182.5 316.2,186.5 C316.7,187.7 317,189 317.8,190 C318.1,191.4 318.4,192.7 318.5,194.1 C319,199.5 319.7,205.1 317.6,210.3 C316.3,213.4 313.7,210.9 312,209.7 C309.1,207.7 306.5,205.4 303.9,203.1 C295.9,195.6 286.5,189.2 275.3,188.1 C263.1,186.5 250,184.4 237.9,184.1 M233,184.1 C232.4,185.8 231.7,187.5 231.1,189.2 C227.9,188.6 221.1,187.4 218.3,185.9 C219.3,185.9 220.3,185.4 220.5,184.2 C220.7,183.7 220.8,183.2 221,182.7 C222.6,177.3 224.1,171.7 226.4,166.5 C228.7,160.9 231.5,155.6 233.6,150 C237.2,149.8 242.8,154.2 245.3,156 C240.8,165.1 236.8,174.5 233.1,184 C233,184 232.9,184 232.8,184 C232.9,184 233,184.1 233,184.1 M212,183.4 C193.8,182.3 175.2,183.5 157.1,180.2 C153.7,179.7 150.5,178.6 147.6,177.2 C138.9,173 132.2,165.6 127.3,157.2 C109.5,130.3 89.8,103.7 81,72.3 C75.8,57.1 74.8,34.3 93,27.8 C101.1,24.8 110.8,25 117.8,19.5 C117,22.4 116.5,25.4 116.1,28.1 C115.4,32.4 114.8,36.9 115.3,41.3 C115.3,41.4 115.3,41.4 115.3,41.5 C114.4,43.9 117.3,46.3 120.1,46 C126,45.9 128.9,38.8 134.9,38.6 C137.1,38.5 138.4,39.8 139.7,41.3 C142.9,45 146,48.8 149.9,51.9 C150.2,52.1 150.6,51.9 150.4,51.5 C148.5,47.3 145.7,43.6 143,39.9 C137.3,30.9 129.7,35 123.3,40.5 C122,41.4 120.7,42.2 119.5,41.8 C119.5,41.5 119.6,41.2 119.5,40.8 C119,37.2 119.5,33.5 120,30 C121.1,23.5 120.8,14.9 127.1,11 C129.8,9.4 133.2,9.2 135.9,11 C135.4,12.2 134.8,13.6 134.7,14.8 C134.2,14.4 133.8,14.6 133.7,15.4 C135.8,21.5 139.2,27.2 142.1,33 C144.4,37.4 146.7,41.7 149,46 C149.7,47.4 150.2,48.8 151.6,49.5 C151.6,49.5 151.6,49.6 151.6,49.6 C152.5,52.6 152.5,55.8 153.2,58.8 C153.6,60.7 154.1,62.5 154.6,64.4 C155.1,66.1 155.7,67.8 156.2,69.5 C162.5,91.5 168.6,113.6 174.8,135.6 C167.4,131.8 163.7,124.8 160.4,117.5 C151.5,98.9 142.2,78.5 132.3,61.4 C141.5,80.9 154.2,126.7 169.9,138.1 C172.3,139.7 174.9,140.9 177.7,141.8 C178.8,142.8 180,143.1 180.8,142.8 C185.7,144.2 190.9,145 195.8,146 C204.2,147.7 212.6,149.5 221.1,151.2 C223.9,151.8 226.8,152.6 229.7,152.8 C229.8,152.8 230,152.8 230.1,152.7 C223.7,160.1 219.4,170.2 216.9,179.6 C214.9,179 212.6,181.2 212,183.4 M139.7,184.2 C125.4,205.6 103,218.9 84.6,236.1 C73.6,247.7 64.8,261.2 54.8,273.6 C54.4,274 54.1,274.4 53.8,274.8 C53,275.7 52,276.8 51.3,277.7 C51.3,277.7 51.3,277.7 51.3,277.8 C49.8,274.7 50.6,270.8 50.6,267.4 C50.8,261.4 51.6,255.5 52.7,249.7 C56.6,226.4 69.7,205.6 72.5,182.1 C72.4,157.1 71.2,132 73.3,107.1 C74.1,95.7 74.9,84.3 76,72.9 C83.9,102.2 107,133.8 120.1,154.1 C125.4,161.8 130.1,170.2 137.5,176.1 C139.3,177.6 141.2,178.8 143.2,179.8 C141.9,181.2 140.7,182.7 139.7,184.2 M186.4,69.9 C188.3,69.4 192.7,68.9 194.9,67.4 C196.1,71.4 197.4,75.4 198.7,79.3 C195.5,78.4 192,78.8 188.6,79.2 C184.3,79.7 180,80.2 175.6,80.7 C171.7,81.2 167.7,81.7 163.8,82.2 C162.3,77.2 160.9,72.1 159.5,67.1 C167.7,70.9 177.5,71.4 186.4,69.9 M190.9,31.9 C190.9,31.5 190.8,31.2 190.6,30.8 C190.6,30.8 190.6,30.7 190.5,30.7 C189.9,28.3 189.2,25.9 188.5,23.5 C188.4,23.1 187.7,23.2 187.7,23.6 C187.7,23.9 187.7,24.2 187.7,24.5 C187.7,24.3 187.6,24.2 187.6,24.1 C186.7,21.6 186.1,19 185.7,16.4 C193.1,17.9 199.2,34.1 202.6,45.6 C199.8,44.7 196.1,44.5 195,46.9 C193.6,41.9 192.3,36.9 190.9,31.9 M179.4,127.4 C181.2,127.3 183.1,127.2 184.9,127 C188.7,126.8 192.5,126.5 196.2,126.2 C197.1,126.2 198.1,126.1 199,126 C201.5,125.9 204.1,125.8 206.6,125.6 C209.5,125.5 212.3,125.2 215.2,125.1 C215.7,125.1 216.3,125.1 216.8,125.1 C216.9,125.3 217,125.5 217.1,125.7 C213.4,126.8 209.9,128 207.2,129.2 C200.9,131.9 194.9,135.5 189.8,140 C188.8,139.8 187.9,139.6 186.9,139.4 C184.3,138.9 181.7,138.3 179.1,137.4 C178.5,135.8 178.3,134 177.7,132.4 C177.3,130.8 176.8,129.2 176.4,127.7 C177.4,127.6 178.4,127.5 179.4,127.4 M173.2,114.5 C173.2,114.5 173.2,114.5 173.3,114.5 C173.3,114.5 173.3,114.5 173.3,114.5 C173.7,114.5 174.1,114.5 174.5,114.5 C175.3,114.4 176.2,114.4 177,114.3 C178.6,114.2 180.3,114 181.9,113.9 C185.2,113.5 188.5,113.1 191.7,112.6 C193.7,112.4 195.6,112.2 197.5,112 C202,111.7 206.5,111.5 211,111.4 C212.5,114.8 213.9,118.2 215.4,121.6 C215.5,122 215.7,122.3 215.8,122.7 C209.2,122.5 202.6,123.2 196,123.6 C192.3,123.8 188.6,124 184.9,124.2 C183.1,124.3 181.2,124.5 179.4,124.6 C178.2,124.7 176.8,124.6 175.6,124.8 C175.3,123.9 175.1,123 174.8,122 C174.1,119.6 173.5,117.2 172.8,114.8 C172.9,114.7 173,114.6 173.2,114.5 M167.5,95.9 C166.5,92 165.4,88.2 164.4,84.4 C164.6,84.4 164.8,84.3 165,84.3 C165.7,84.2 166.4,84.1 167.2,84 C168.8,83.8 170.5,83.6 172.1,83.3 C173.4,83.2 174.7,83 176,82.8 C177.4,82.7 178.8,82.6 180.2,82.5 C186.6,82 193,81.6 199.5,81.6 C200.8,85.5 202.2,89.3 203.7,93.2 C198.2,93.5 192.8,93.9 187.3,94.4 C184.2,94.6 181.1,94.9 178,95.2 C176.4,95.3 174.9,95.4 173.4,95.6 C172.5,95.6 171.7,95.7 170.8,95.8 C170.4,95.8 169.7,96 169.2,96 C169.1,96 169,95.9 168.9,95.8 C168.5,95.6 168,95.6 167.5,95.9 M168.8,99.1 C172.4,98.7 176,98.2 179.6,97.8 C181.6,97.6 183.6,97.4 185.6,97.2 C191.9,96.6 198.2,96.1 204.6,95.5 C206.3,99.9 208.1,104.3 209.9,108.7 C202.1,108.2 194.3,109.5 186.6,110.4 C182.5,110.9 178.4,111.3 174.3,111.5 C173.6,111.5 172.7,111.5 171.9,111.7 C170.8,107.8 169.8,104 168.7,100.2 C168.7,99.8 168.8,99.5 168.8,99.1 M232.5,150.2 C232.2,150.5 232,150.8 231.7,151 C231.7,151 231.7,150.9 231.7,150.8 C231.7,150.8 231.7,150.8 231.7,150.8 C231.9,150.5 232.2,150.4 232.5,150.2 M227.7,40.7 C235.7,60 242.6,79.9 250,99.4 C252.4,106.1 254.8,112.7 257,119.4 C257.9,121.6 258.2,124.1 259.9,125.8 C260,125.9 260.1,126 260.1,126 C257.8,127 255.7,128.1 254,129.2 C254.8,131.8 255.7,134.4 256.8,137 C257.3,137.8 255.9,138.6 255.5,137.7 C254.1,134.5 252.9,131.2 252,127.8 C250.9,126.3 249.6,125 247.9,124.1 C244.6,122.9 240.5,122.5 236.1,122.7 C236,122.5 235.9,122.4 235.8,122.3 C234.3,120.9 233.7,118.6 233,116.8 C230.9,111.3 229.1,105.7 227.6,100 C226.1,94.4 225.2,88.7 223.7,83.1 C223.4,82.1 222.4,77.3 221.6,77.6 C221.6,77.7 221.6,77.8 221.6,77.9 C221.6,77.9 221.5,77.9 221.5,77.9 C221.1,89.5 224.1,101.1 227.6,112.2 C228.6,115.8 230.8,119.3 231.5,123 C228.4,123.3 225.3,123.8 222.3,124.5 C222.3,124.2 222.2,124 222.1,123.7 C222.1,123.4 222,123.1 221.8,122.9 C221.4,122 220.9,121.1 220.6,120.3 C219.8,118.5 219,116.8 218.3,115.1 C214.2,105.6 210.3,96 206.9,86.3 C202.7,74.4 199.3,62.4 195.9,50.3 C198.2,51.5 202.4,49.1 205.1,54.6 C205.6,55.9 206.9,56.9 208.5,56.5 C209.8,56.1 210.9,54.5 210.4,53.1 C210.3,52.9 210.2,52.6 210.1,52.4 C207.6,44.9 205.5,37.1 201.8,30 C211.3,30.9 222.5,31.6 227.7,40.7 M315.9,167.3 C316.7,171.1 316.2,175.2 315.9,179.1 C312.2,174.2 307.5,169.9 301.9,167.1 C301.5,164.6 300,162.5 299.3,160 C297.9,156.6 296.8,153.2 295.9,149.7 C304.9,151.5 313.7,158.1 315.9,167.3 M283.1,196.9 C286.1,213.4 291,229.6 294.6,246 C294.8,247 293.3,247.4 293.1,246.4 C289.5,230 284.7,213.8 281.6,197.3 C281.4,196.3 282.9,195.9 283.1,196.9 M281.5,349 C284,349.4 286.4,349.7 288.9,349.9 C284,352 279.4,351.5 275.4,347.8 C277.4,348.3 279.5,348.7 281.5,349 M389.7,373.4 C389.5,372.7 389.2,372.3 388.7,372.1 C388.8,358.3 359.8,353.8 351,345.1 C347,342.2 344.1,337.5 339.4,335.8 C342,331.7 341.3,326.5 340.7,321.9 C339.4,313.5 336.2,304.1 335.4,299 C329,272.4 322.9,245.7 315.7,219.4 C315.5,218.9 315.3,217.9 314.9,216.8 C315.7,217 316.4,217 317.1,216.9 C327.2,214.7 325,194.3 322.6,186.9 C322.3,186.1 321.7,185.5 321,185.3 C321.1,184.8 321,184.3 320.7,183.9 C320.6,183.6 320.3,183.5 320,183.4 C319.7,176.4 321.4,168.8 317.8,162.4 C313.6,155.4 303.7,149.6 295.7,149.2 C294.6,145.1 293.6,140.9 292.5,136.8 C291.3,132.5 289.6,127.8 285.9,124.9 C281.2,120.7 271.2,122 262.9,125 C263.4,122.8 262.4,120.8 261.7,118.8 C259.7,112.7 257.5,106.6 255.4,100.6 C247.6,80.2 241.2,59.1 231.4,39.5 C227.4,32.9 219.6,29.9 212.2,29.3 C208.7,29 205,28.8 201.5,29.2 C201.3,29 201.2,28.8 201.1,28.6 C198.2,23.6 192.4,14.3 185.6,15.9 C184.9,11.1 184.9,6.3 185.5,1.5 C185.5,1.2 185,1 184.8,1.3 C180.3,11.3 181.2,23.7 186.6,33.2 C187,33.8 187.6,34.2 188.1,34.3 C189,44.2 191.2,54 193.9,63.7 C193.5,63.7 193.1,63.8 192.7,63.9 C184.2,67.1 174.8,67.6 165.9,65.7 C163.4,65.2 161,64.5 158.5,63.8 C158.1,62.2 157.6,60.6 157.1,59 C156,54 155.7,49.1 152.7,45.1 C152.5,44.8 152.4,44.5 152.2,44.2 C149.8,39.9 147.4,35.6 145,31.3 C144.4,30.6 140.4,22.9 137.4,18.2 C137.8,18.2 138.2,18.1 138.5,17.9 C140.7,16.8 140.7,13.7 141.1,11.6 C142.3,5 143.7,-1.5 144.1,-8.1 C144.1,-8.4 143.6,-8.6 143.4,-8.3 C140.5,-2.4 138.4,3.8 136.2,10 C136.2,10.1 136.2,10.2 136.1,10.4 C134.1,7.8 130.5,7.2 127.4,7.9 C122.2,9.2 119.6,13.4 118.1,18.2 C103.2,25.3 85.5,18.1 76.5,36.8 C72.4,46.6 72.5,57.8 75.1,69.3 C68.3,104.4 66.1,140.3 67.5,176 C67,200.2 52.2,221.2 47.9,244.7 C45.8,253.9 44.5,263.4 44.7,272.9 C44.3,278 46.6,285.4 53,283.4 C53.7,283.2 54.4,282.8 55,282.3 C57.7,323 89.2,330.9 125.4,323.9 C126.9,323.9 128.3,323.6 129.8,323.1 C130.6,322.9 131.3,322.7 132.1,322.4 C132.6,322.3 133.2,322.2 133.8,322 C134.2,321.9 134.6,321.8 135,321.8 C145.3,314.9 156.1,308.7 166.3,301.7 C167,301.2 167.9,302.4 167.2,302.9 C160.4,308.6 153.7,314.4 146.6,319.7 C166.8,316.5 187.4,317.1 206.3,308.8 C219.5,303 232,291.4 239.5,278.9 C239.6,279.1 239.7,279.3 239.8,279.5 C239.4,278.4 239.1,277.4 238.7,276.4 C232.3,258 226.5,239.4 219.5,221.2 C219.2,220.2 220.7,219.9 221,220.8 C223,225.9 224.9,231 226.7,236.1 C233.1,254.6 238.9,273.3 245.8,291.6 C245.9,291.7 245.9,291.8 245.9,291.9 C247.3,295.4 248.5,299 249.3,302.7 C250.2,306.6 251.4,314.9 252.6,321.9 C253.7,327.6 254.5,334.3 258.5,338.7 C258.5,338.7 258.5,338.7 258.5,338.7 L258.5,338.7 C258.3,339 258.2,339.3 258.1,339.5 C258.4,339.8 258.7,340 259.1,340.2 C259.1,340 259.2,339.7 259.2,339.5 C260.2,340.5 261.3,341.4 262.4,342.3 C261.1,351.9 251.4,361.3 256.4,371.4 C254,376.9 259.9,381.4 264.8,382.6 C272.2,384.9 279.9,386.7 287.5,388.4 C302.6,391.2 349.9,401.6 361.2,393.5 C361,391.8 363.2,386.2 360.6,386.1 C361.8,385 362.7,383.7 363.4,382.4 C370.3,384.6 378,383.8 385,383 C390.7,383.1 390.5,377.6 389.7,373.4" id="🖍-Ink" fill="currentColor"></path></g><g id="Head" stroke-width="1" transform="translate(86.5, 45.1)"><g id="head/Bun"><path d="M37.5,16 C75.5,14.1 101.3,44.1 102.4,56 C103.2,64.3 102.6,75.3 102.6,82.7 C102.6,86.5 104.5,98 102.4,103.5 C97.6,115.8 92.2,125.4 77.1,125.4 C62.1,125.4 39.2,117.6 31.3,107.6 C29.9,105.7 12,92.3 12,81.8 C12,59.3 10.4,17.3 37.5,16 Z" id="🎨-Background" fill="#FFFFFF"></path><path d="M11.6,-8.3 C13.7,-9 15.1,-8 16.1,-6.5 C16.3,-6.5 16.5,-6.5 16.8,-6.5 C16.8,-6.5 17,-6.4 17.1,-6.4 C17.1,-6.3 17.2,-6.3 17.3,-6.2 L17.3,-6.3 L17.3,-6.3 C17.5,-6.4 17.7,-6.6 17.8,-6.7 C18.3,-7 18.7,-7.1 19.1,-7.1 L19.3,-7.1 L19.3,-7.1 C20.9,-7.7 22.6,-7.4 23.7,-6 C23.9,-5.8 24.1,-5.5 24.2,-5.2 C24.6,-5.1 24.9,-4.9 25.1,-4.7 C25.3,-4.8 25.5,-4.9 25.7,-4.9 C26.9,-5.2 28.1,-4.9 29.1,-4.2 C29.6,-3.9 29.9,-3.4 30.2,-2.9 C30.5,-2.9 30.8,-2.7 31.1,-2.6 C31.3,-2.7 31.5,-2.8 31.8,-2.9 C32.7,-3.1 33.6,-3.2 34.6,-3.2 C36.6,-3 38.6,-0.7 37.2,1.3 L37.2,1.3 C37,1.6 36.9,1.8 36.7,2.1 C37.2,2.3 37.7,2.6 38.1,2.9 C40.2,4.6 40.4,7.3 40,9.8 L40,9.9 L40,9.9 C41.1,10 42.1,11.2 41.4,12.3 L41.4,12.3 C40.5,13.7 39.7,15.3 38.9,16.7 C36.5,17.6 34.2,18.6 32.1,19.9 C30.7,21.1 29.4,22.3 28.3,23.7 C27.8,24.4 27.2,25.1 26.8,25.8 C27.2,26 27.6,26 28,25.7 C31.5,22.4 35.8,20.1 40.3,18.6 C40.6,18.5 40.8,18.3 41,18 C43,17.5 45,17 47.1,16.7 C47.6,16.2 48.2,15.6 48.8,15.1 C49.5,14.4 50.4,14.4 51.1,14.9 C51.4,14.7 51.8,14.6 52.1,14.4 L52.4,14.4 C52.4,14.3 52.5,14.3 52.6,14.3 C55,13.5 57.3,13.8 59.6,14.4 L59.9,14.5 C61,14.8 61.7,14.8 62.8,14.5 L62.9,14.4 C64.1,14.2 65.3,13.9 66.5,14.2 C67.7,14.6 68.5,15.3 69.3,16.2 L69.4,16.3 C69.8,16.7 70,16.7 70.5,16.7 L71.1,16.7 C73.1,16.6 75.2,16.7 76.7,18.3 C77.3,18.9 77.9,19.7 78.2,20.5 L78.3,20.6 C78.3,20.6 78.3,20.7 78.3,20.7 C78.6,20.7 78.9,20.5 79.1,20.5 C81.3,20.1 83.2,20.7 84.6,22.5 C84.9,22.9 85.4,23.6 85.7,24.1 C85.8,24.2 86,24.3 86.1,24.4 C86.6,24.7 87.4,24.7 88,24.8 C89.6,25.1 91.4,25.8 92.2,27.3 C92.6,28 92.7,28.7 92.8,29.4 C93.4,29.8 93.8,30.3 94.2,30.9 C94.6,31.6 94.8,32.4 95.2,33.1 C95.6,33.5 96.1,33.8 96.6,34.1 L96.8,34.2 C98.3,35.1 99.4,36 99.9,37.8 L100,37.9 C100,38.2 100.3,38.9 100.1,38.8 C100.3,38.9 100.6,39 100.8,39 C101.8,39.4 102.7,39.9 103.3,40.9 C103.7,41.6 103.8,42.4 103.9,43.2 L103.9,43.5 C104,43.6 104,43.7 104,43.8 L104,43.9 L104,43.9 C104.2,43.9 104.4,44 104.6,44.1 C105.4,44.6 106,45.5 106,46.5 C106,47 105.8,47.4 105.6,47.7 C105.8,48 105.9,48.3 106,48.6 C106.2,49.2 106.3,49.9 106.2,50.5 C106.1,51.3 105.9,52 105.7,52.8 C105.6,53.1 105.5,53.5 105.4,53.7 C105.7,54.1 105.8,54.5 105.8,54.9 C105.7,55.4 105.4,56.1 104.9,56.4 C104.7,57.6 104.2,58.8 103.6,59.8 C103.6,59.9 103.5,60 103.4,60.1 C103.5,64.1 103.2,68.1 103.2,72 C103.2,76.3 103.2,80.7 103.4,85 C103.7,92.1 104.6,99.5 102.4,106.4 C100.7,112.1 97.3,117 92.6,120.7 C87.9,124.5 82.2,126.7 76.1,127 C73,127.2 69.9,126.9 66.9,126.1 L66.6,126 C63.7,125.2 60.3,124 58.2,121.9 C57.1,120.7 58.2,118.4 59.8,119 C61.5,119.7 62.9,120.6 64.6,121.3 C66,121.9 67.5,122.4 69,122.7 C72.1,123.4 75.4,123.5 78.5,123.1 C89.7,121.6 98.5,112.2 100.2,101.2 C100.7,98.1 100.7,95 100.7,91.9 L100.6,88.5 C100.6,85.7 100.6,82.8 100.7,80 C100.8,76.3 101.1,72.7 101.4,69.1 L101.6,67.2 C101.8,65 102.1,62.7 102.5,60.5 C102.2,60.6 99.5,56 98,53.4 C97.4,53 97,52.4 96.8,51.7 C96.8,51.6 96.7,51.5 96.7,51.3 C96.4,50.8 96.1,50.3 95.7,49.8 L95.6,49.8 C95.6,49.8 95.5,49.7 95.5,49.7 C94.7,49.3 94.1,48.6 93.6,47.8 C93.5,47.6 93.3,47.3 93.2,47 C92.6,46.4 91.9,45.8 91.2,45.2 C91.1,45.2 91.1,45.1 91,45.1 C90.1,44.7 89.3,44.2 88.7,43.5 C88.5,43.3 88.3,43.2 88,43.1 C87.3,43.1 86.6,42.9 85.8,42.6 C84.5,42.1 83.5,41 82.1,40.5 C80.8,40 79.3,41.2 77.8,40.9 C77.4,40.9 77,40.8 76.7,40.6 C75.9,41.5 75,42.3 74,43.1 C72.6,44.1 71.1,44.6 69.5,45.1 C68.7,45.8 67.8,46.6 66.7,46.7 C64.1,48.7 61.4,50.4 58.5,52 C58.1,52.3 57.6,52.4 57.2,52.4 C56.3,53 55.3,53.4 54.3,53.7 C53.9,53.8 53.6,53.8 53.3,53.8 L52.4,54.5 L52.4,54.5 C51.7,55 51.1,55.3 50.4,55.3 C50,55.6 49.6,55.9 49.2,56.1 C48.8,56.4 48.2,56.5 47.6,56.5 C46.7,57.4 45.6,57.5 44.6,57.1 C44.5,57.1 44.4,57.2 44.2,57.3 C44,57.4 43.8,57.5 43.6,57.5 C42.6,58.6 41.1,59.2 39.6,59 C38.5,59.7 37.3,60 36,60 C35.8,60.9 35.7,61.9 35.5,62.8 L35.5,63.5 C35.5,63.7 35.5,63.7 35.5,63.8 L35.5,63.8 C35.6,66.9 35.7,70 35.8,73.1 L35.8,73.3 C36,76 36.6,81 32.7,80.8 C31.2,80.8 29.7,79.7 28.6,78.8 L28.4,78.7 C28.3,78.6 28.2,78.6 28.1,78.5 C27.3,78.4 26.4,78.2 25.6,78.1 C24.5,78.1 23.4,78.2 22.3,78.5 C20.5,78.9 18.7,79.7 17.5,81.2 C17.4,81.4 17.3,81.5 17.2,81.7 C17.1,81.9 17,82.2 16.8,82.4 C15.6,85 16.3,88.4 17.5,90.7 C19,93.5 21.4,95.4 24.4,96.4 L24.5,96.4 C26.6,97.1 27.4,98.3 28.5,100 C29.5,101.6 30.7,103.1 32,104.5 C34.5,107.3 37.9,109.6 39.4,113.1 C39.7,113.8 38.8,114.4 38.2,114.2 C35.7,113.5 33.9,111.7 32.1,109.9 C30.8,108.7 29.6,107.4 28.4,106.1 C28.2,106.2 27.9,106.3 27.6,106.3 C26.4,106.4 25.2,106.4 24.1,105.7 C23.6,105.8 23.1,105.6 22.7,105.2 C22.4,104.9 22.1,104.6 21.8,104.2 C21.4,104.2 21.1,104.3 20.7,104.2 C20.5,104.2 20.3,104.1 20.2,104.1 C19.9,103.9 19.6,103.8 19.4,103.5 C18.9,103 18.7,102.2 18.8,101.5 C18.7,101.4 18.6,101.4 18.5,101.4 C17.8,101.2 17.3,100.7 16.9,100.1 C16.4,99.8 15.8,99.3 15.4,98.8 C14.9,98.2 14.5,97.6 14.3,96.9 C14.1,96.8 13.9,96.6 13.7,96.5 C12.2,95.5 11.3,93.6 11.9,91.8 L11.9,91.7 C11.9,91.7 12,91.5 12.1,91.4 C12.1,91.2 12,91.1 12,91 L12,90.6 L12,90.6 L11.7,90.5 L11.7,90.5 C10.2,89.9 9.2,89.1 9,87.4 C9,87.1 9.1,86.7 9.3,86.4 L9.3,86.3 L9.3,86.3 C9.2,86.3 9.1,86.2 9.1,86.1 C8.2,85.6 7.7,84.7 7.8,83.7 C7.8,82.8 8.3,82.1 8.9,81.5 L9,81.3 C9.1,81.3 9.1,81.3 9.1,81.2 L8.7,81.1 C8.5,81.1 8.3,81 8.1,80.9 C7.5,80.6 7,80.1 6.7,79.5 C6.6,79.5 6.6,79.4 6.5,79.3 C6.1,78.6 6.1,77.6 6.3,76.8 C6.4,76.7 6.4,76.6 6.5,76.5 C5.4,76.2 4.5,75.3 4.4,73.9 C4.4,73.3 4.5,72.7 4.8,72.2 C4.7,71.9 4.7,71.5 4.7,71.2 C4.3,70.8 4,70.4 3.9,69.8 C3.6,68.8 4.1,67.8 4.8,66.9 C4.6,66.2 4.5,65.4 4.8,64.7 C4.7,64.4 4.7,64 4.7,63.6 C4.6,62.8 4.9,62.1 5.3,61.4 C4.7,60.7 4.5,59.8 4.8,58.8 C5.1,58.2 5.3,57.6 5.7,57.1 C5.5,56.7 5.4,56.2 5.4,55.7 C5.4,54.7 5.7,54 6.3,53.4 C6.1,52.3 6.5,50.9 7.6,50.4 C8,50.2 8.5,50.1 9,49.9 C9.3,49.2 9.5,48.6 9.7,47.9 C10.1,46.8 10.5,45.8 10.9,44.8 C10.7,45 10.4,45.2 10.2,45.4 C9.3,46.5 8.2,47.4 7.3,47.9 C5.4,49 3.3,48.4 2.3,46.5 C1.5,47.2 0.4,47.6 -0.7,47.4 C-1.9,47.3 -3.1,46.5 -3.4,45.2 C-3.4,45 -3.5,44.8 -3.5,44.6 C-4.2,45.1 -4.9,45.6 -5.8,45.9 C-6.8,46.2 -7.9,45.4 -8,44.4 C-8.1,44 -8,43.6 -7.8,43.3 L-7.9,43.3 C-8,43.3 -8,43.3 -8,43.2 C-8.5,43 -9,42.5 -9.2,42 C-10.4,42.4 -11.7,41.9 -12.1,40.6 C-12.6,39 -12.6,37.4 -12.2,35.9 C-13.5,35 -14.3,33.5 -14.5,31.8 C-14.6,30.7 -14.3,29.6 -13.8,28.6 C-15,28.2 -15.4,26.6 -14.9,25.5 C-15.6,25 -16.1,24.1 -16.1,23.2 C-16.5,22.7 -16.6,22.1 -16.3,21.3 C-15.9,20.4 -15.2,19.5 -14.3,18.9 C-14.7,18.3 -15,17.5 -15.1,16.8 C-15.8,16.6 -16.4,16 -16.5,15.2 C-16.7,14.1 -16,13.2 -15,12.9 C-14.9,12.6 -14.8,12.3 -14.6,11.9 C-15.1,10.8 -15,9.4 -14.4,8.2 C-13.8,7.1 -13,6.4 -11.9,5.9 C-12.2,5 -11.8,4.1 -10.9,3.4 C-9.8,2.6 -8.6,1.9 -7.3,1.5 C-7.4,0 -6.8,-1.6 -5.3,-2.1 C-4.9,-2.2 -4.5,-2.3 -4.1,-2.3 C-3.8,-3 -3.3,-3.5 -2.6,-4 C-1.6,-4.7 0.3,-4.3 0.9,-3.1 L0.9,-3.1 C0.9,-3 0.9,-2.9 1,-2.9 C1.1,-3.4 1.4,-4 1.8,-4.4 C2.8,-5.5 4,-5.5 5,-5 C5.2,-5.5 5.5,-6 5.8,-6.4 C6.8,-7.9 8.6,-8.1 9.8,-7.3 C10.4,-7.8 10.9,-8.1 11.6,-8.3 Z M19.1,84.5 C21.2,83.7 23.8,83.9 25.9,84.7 L26.1,84.8 C27.9,85.5 30.9,87.2 31.3,89.2 C31.5,90.3 30.5,91.3 29.4,90.7 C28.5,90.2 28,89.2 27.3,88.5 C26.6,87.8 25.8,87.2 24.9,86.7 C23.1,85.6 21.2,85.2 19.1,84.9 C18.9,84.9 18.9,84.6 19.1,84.5 Z" id="🖍-Ink" fill="currentColor"></path></g><g id="face/Smile" transform="translate(39.9, 46.6)" fill="currentColor"><path d="M36.8,60.3 C35.1,59.6 33.6,58.5 32.5,57 C32.1,56.5 32,56 32.1,55.5 C32.2,54.9 32.5,54.4 32.9,54.1 C33.4,53.8 33.9,53.6 34.5,53.7 C35,53.8 35.4,54 35.8,54.6 L35.9,54.7 C36.5,55.5 37.4,56.3 38.3,56.7 C39.3,57.2 40.3,57.4 41.4,57.3 C43.5,57 44.9,55.9 46.4,54.4 C46.6,54.2 46.8,54 47,53.8 C47.1,53.6 47.2,53.5 47.4,53.5 C47.6,53.4 47.9,53.4 48.1,53.5 C48.3,53.5 48.5,53.7 48.6,53.9 C48.7,54 48.8,54.2 48.7,54.5 C48.6,56 47.8,57.4 46.6,58.5 C45.3,59.8 43.6,60.6 42,60.9 C40.2,61.2 38.4,61 36.8,60.3 L36.8,60.3 Z M42.8,36.1 C44.7,37.3 47.6,40 45.6,42.8 C43.2,45.3 39.7,42.5 38,41.2 C36.4,40.1 34.7,42.7 36.1,43.9 C48.4,53 53.4,36.5 43.8,34.8 C42.7,34.6 42.3,35.8 42.8,36.1 Z M20.8,25.6 C21,23 25,22.4 25.4,25 C25.7,27.3 25.3,29.4 24.3,31.4 C23.3,33.4 20.8,32.5 20.6,30.7 C20.3,28.3 20.7,27.2 20.8,25.6 Z M50.9,24.4 C51.5,23.7 52.3,23.2 53.2,23.5 C56.2,24.4 55.3,28.6 54.3,30.6 C53.7,31.8 51.9,32 51,31.1 C49.7,29.5 49,26.3 50.7,24.7 C50.8,24.6 50.8,24.5 50.9,24.4 Z M24.2,14.2 L24.7,14.1 C26.1,13.9 28,13.7 29,14.8 C29.5,15.4 29.7,16.6 29,17.2 C27.7,18.2 26.3,17.8 24.7,17.9 C23.4,18 22.2,18.2 21,18.6 C18.3,19.3 16.1,20.7 13.8,22.3 C13.5,22.5 13.2,22.1 13.3,21.8 C14.7,19.2 17.2,17.1 19.8,15.8 C21.2,15.1 22.7,14.5 24.2,14.2 Z M48.2,13.1 L48.6,13.1 C52.5,14 57.6,15.6 59.4,19.4 C59.5,20 59.4,20.1 59.4,20.2 L59.3,20.2 C59.3,20.3 59.3,20.4 59,20.4 C59,20.4 58.9,20.4 58.8,20.4 C58,20.2 57.3,19.9 56.6,19.5 L55.9,19.2 C55.1,18.8 54.3,18.4 53.4,18.1 C51.5,17.5 49.6,17.1 47.7,16.8 C47.2,16.8 46.8,16.6 46.5,16.4 C46.2,16.2 46,15.9 45.9,15.4 C45.7,14.9 45.8,14.5 46.1,14 C46.3,13.6 46.6,13.3 47,13.2 C47.3,13 47.8,13 48.2,13.1 Z" id="🖍-Ink"></path></g><g id="facial-hair/*-None" transform="translate(30.8, 84.6)"></g><g id="accessories/*-None" transform="translate(11.8, 60.3)"></g></g></g></g></g></svg>