<svg viewBox="0 0 462 625" version="1.1" xmlns="http://www.w3.org/2000/svg" xmlns:xlink="http://www.w3.org/1999/xlink"><g id="Introduction" stroke="none" stroke-width="1" fill="none" fill-rule="evenodd"><g id="variations-sitting" transform="translate(-2723, -236)"><g id="a-person/sitting" transform="translate(2743, 200)"><g id="pose/sitting/wheelchair" transform="translate(-20.3, 159.5)"><path d="M358.8,388 C353.4,387 351.4,393.3 351.2,397.3 C349,396.3 346.7,395.2 344.8,393.9 C341.5,391.9 338,388.3 334.2,388.4 L334,387.4 C333.8,385.7 330.3,386.8 329.4,387.4 C327.9,387.2 326.2,385.7 325.2,384.3 C329.3,382.8 331.1,382.7 330.4,377.5 C330.4,376.7 330.2,376 330.4,375.3 C325.6,353.7 324.6,332.2 324,310.2 L326.5,309.7 C334.4,331.7 341.9,354.8 348.6,378.3 C348.8,379.4 349.4,379.4 350,378.8 C352,378.9 354,378.8 356,378.5 L356,378.4 C356.6,378.4 357.3,378.4 357.8,378.4 C358.3,381.5 358.9,384.8 358.8,388 L358.8,388 Z M355.5,376 C355.7,376 357.2,375.3 357.4,375.2 L357.4,375.6 C356.8,375.8 356.1,376.1 355.4,376.3 L355.3,376.1 L355.5,376 Z M288.7,423.1 C286,423.8 283.3,424.6 280.7,425.3 L281.7,422.9 C275.8,407.3 271.3,390.9 268.1,374.8 C265.8,364.3 263.4,353.5 260.2,343.1 C256.2,326.8 247.4,310.1 229,308.7 C229,308.7 228.7,308.1 228.7,308.1 L228.4,307.8 C227.5,296.4 226.2,285 225.1,274.1 C234.9,276.8 243.4,275.9 252.8,275.8 C255.9,275.4 259.9,276.3 262.4,274.9 C262.4,274.9 264,273.3 264,273.3 C274.7,315.5 277.5,359 281.3,401.7 C281.4,402.7 282.1,403 282.9,402.6 C283.8,403.6 285.7,403.2 287,403.4 C285.9,409.8 287.2,417.4 290.3,422.8 L288.7,423.1 Z M263.6,419.5 C257,414 249.2,411.3 241,411.6 C238.2,407.3 234.1,402.3 229.6,400.3 C227.5,393.2 227.7,385.4 228.2,378.7 C229.2,371.9 226.9,371.1 221.3,371.6 C223.7,368.7 223.5,368 223,364.2 C224.6,364.5 229.4,367.6 230.1,365.4 C230.9,361.1 231.4,357.3 231.7,353.9 C231.9,351 229.8,347.9 230.1,344.9 C229.3,337.3 230.1,328.8 226.6,321.7 C240.9,323.6 244.3,339.2 248,350.6 C255.6,374.2 260.9,398.3 266.6,422 L263.6,419.5 Z M219.7,365.6 C219.3,366.3 219.3,367.1 219.2,367.8 C212.5,366.6 213.7,376.4 213,381.8 C211.8,381.4 210.9,381.2 209.6,381.5 C209.4,379.7 210.5,378.9 206.5,378.7 C187.6,379.1 180.4,398.8 173.9,413.9 C170.9,421.2 166.6,422.3 160.3,422.2 C156,422.3 151.6,423.4 147.3,423.3 C163.1,392 168.9,347.2 162.4,308.3 L162.4,308.3 C162.1,305.8 161.6,303.3 161.1,300.8 C174.7,300.9 190.5,301.3 203.6,300.7 C205.3,302.3 207.5,303 209.6,303 C209.7,304.7 209.8,306.6 210,308.3 C197.8,308 184.2,308.2 171.8,308.4 C184.2,308.6 197.8,308.8 210,308.5 C210,311.8 210.3,314.8 213.3,316.3 C214.4,324.7 212.9,333.4 214,343.1 C214.8,349.7 214.1,362.4 220.1,364.5 L219.7,365.6 Z M133.5,416.3 L133,417.2 C132,416.8 131.4,416.9 130.5,417.6 C123.4,421.5 113.2,417.9 105.5,417.7 C106.9,412.8 107,405.1 100.3,405 C102.5,383.9 101,362.9 101.4,341.7 C113.6,339.4 113.2,338.1 101.3,336 C101.2,324.1 101.1,312.2 101.1,300.2 C101.1,294.5 101.1,288.9 100.6,283.3 C101.7,281 101.4,278.7 102,276.3 C104.4,274.9 108.6,276.5 110.1,274.2 C116.5,274.1 123.1,274 129.7,273.7 C130.3,273.7 130.5,273.1 130.8,272.7 C131.9,272.4 133.8,273.1 134.8,272.6 C134.8,272.6 136,271 136,271 C141.4,281.9 145.5,294.7 148,307.6 C140.3,307.7 131.4,307.7 123.5,307.7 C131.2,308.2 139.6,308.6 148.1,308.7 C154.8,341.7 150,387.9 133.5,416.3 L133.5,416.3 Z M122.9,432 C106.8,452.1 80.6,458.9 59.1,442.6 C1.7,399 4.3,251.2 79.7,230.8 C77.6,238.5 70.5,270.6 83.4,271.5 L83.3,271.4 L84,271 C86.7,272 90.5,270.7 91.3,274.4 C91.4,274.4 92.8,274.5 92.9,274.6 C92,279.2 92.2,284 92,288.7 C90.9,288.3 89.5,288.1 88.3,288.2 C83.9,288 84,283.1 84.2,279.8 C84.4,278.1 83.9,276.3 83.9,274.7 C84,273.6 83.9,272.8 83.5,271.9 C82.2,276.3 80.9,282 81.7,286.4 C82.9,290.5 88.1,292.5 91.9,290.5 C91.8,305.3 91.7,320.1 91.7,334.9 C89.1,333.5 86.9,334.4 84.3,335.1 C81,335.8 77.1,334.8 73.8,335.6 C73.5,334 71.9,332 70.3,333.3 C68.3,333.3 67.2,335.2 66.1,339.3 C65.5,342.6 65.9,347 69,348.6 C70.8,349.5 72.5,348.9 73.4,346.9 C73.9,347.1 74.7,347.7 75.2,347.5 C80.5,346.3 86.1,345 91.6,343.8 C91.9,364.6 91,385.3 92.7,406.2 C84.8,406.8 69.8,404.7 66.4,411.7 C63.2,413 61,416.1 61,419.3 C60.9,424.4 66.5,426.1 71,426.1 C88.9,427.5 106.6,429.9 124.6,429.9 L122.9,432 Z M155.3,273.1 C166.7,274.7 178.1,274.7 189.6,275.2 C185.8,300.5 191,285.8 202.6,300 C189.4,300 173.4,299.8 161,300.1 C159,290.6 156.4,281.5 153.2,272.8 L155.3,273.1 Z M243.5,145 C248.5,152 255.1,158.1 262.5,162.3 C256.1,162.8 249.6,163.2 243.3,164.1 C242.6,158 241.9,152 241.2,145.9 L243.5,145 Z M461,410 C460.4,404 453.6,401.8 448.7,403.5 C445.9,396.1 436.4,397 430.3,393.8 C418.1,387.8 405.5,376.3 391.4,380.8 C390.1,377.3 388.7,374 387.1,371.1 C387.7,371.4 388.5,371.3 389,370.8 L389,370.8 C389.6,370.2 390.1,369.5 390.1,368.8 C392,366.7 392.8,363.5 393.2,361 C391,353.4 388.3,346 385.8,338.4 C376.4,309.5 369.8,282.6 362.7,254.9 C354.7,234.3 352.6,180.3 324,180.2 C323.9,178.8 323.8,177.1 323.4,175.8 C322.5,176.9 322.2,178.6 322.1,180 C309.8,179.8 299.2,182.1 291.1,185.6 C275.6,184.9 262.1,185.8 244.2,187.9 C246.4,184.2 245,180 244.8,175.9 C270.6,177.1 296.9,174.8 322.6,173.3 C326.7,173 331.1,173.2 335.1,172.2 C339.5,171.1 343.6,165.7 339.2,161.6 C336.2,159.7 332.5,160.7 329.2,160.6 C312.5,160.5 295.5,160.9 279.4,161.5 C299.2,151.4 309.1,130.5 320.9,112.6 C326.9,102.9 331.4,94.7 335,86.8 C335.7,85.5 335.8,84 335.5,83.3 C335.3,82.6 333.1,82.5 332.5,82.3 C348.9,56.7 374.1,68 387.6,53.2 C385,53.3 382.5,53.4 379.9,53.5 L379.3,51.1 C384.2,48.9 388.7,45.5 393.7,40.5 C393.7,40.5 393.7,40.4 393.7,40.4 C385.4,43 377.7,44.9 370.1,46.2 L369.2,43.8 C376,39.4 382.1,33.4 386.8,26.4 C378.1,30.2 369.9,35.7 360.9,39.2 L359.5,37.1 C364.7,32.1 376.2,24.8 372.9,17.9 C360.1,24.1 348.4,32 336.1,39 C336.1,33.4 340.1,24.5 337.6,19.8 C335.1,16.6 333.9,19.3 332.6,21.8 C332.6,21.8 327.3,30.8 325.9,33 C321,41.8 314.1,50.4 314.3,60.7 C310,58.7 306.6,66.1 303.9,70.2 C296.1,83.4 269.6,104.2 263.8,107 C240.1,85.6 243.6,49.2 218.4,28.9 C210.3,20.6 204.3,19.7 194.7,16.6 C192.5,16.1 189.9,14.2 187.9,16 C184.9,13.5 181.9,5.5 180.7,2 C179.9,-1.3 178.6,-9.5 176.8,-11 C175,-12.6 145.8,-13.9 143.2,-13.1 C140.7,-12.3 141.7,-6.2 141.7,-6.2 C141.7,-6.2 139,5 139,5 L138.8,4.9 C138.7,4.9 138.4,5.2 138.3,5.2 C136.4,5.2 134.5,4.3 132.7,4.3 C130.8,4.4 129.2,5.7 127.7,6.8 C125,8.8 122.3,10.9 119,12.2 C81.4,24.1 76.5,42.2 65.2,76.8 C56,77.1 48.2,76 40.1,75.5 C37.3,75.9 38.2,81.4 38.3,84.5 C38.1,92.2 43.8,91.4 49.6,91.4 C53.4,91.4 57.2,91.8 60.9,91.3 C56.9,110 48.8,139.1 57.7,156.5 C64.9,170.1 71,172.7 76.8,173.1 C78.3,186.2 76.8,197.9 77.1,210.5 C-8.9,233.6 -12.8,367.9 25.6,433.3 C56.5,486.8 114.5,483.8 143.3,430.6 C150.2,434.4 164,434.2 173.2,433.3 C180.4,432.9 182.8,429.9 185.4,423.1 C188.3,416.6 191,410.2 194,403.7 C196.8,396.8 202.4,388.9 212.5,389.2 C212.4,393.2 211.7,397.8 214.4,401 C204.2,404.5 210.3,420.7 213.3,428.3 C199.2,447.5 204,481.1 223.7,495 C256.2,516.8 287.6,475.6 278.1,444 C279.7,444.7 282.6,445.7 283.8,444.1 C284.3,443.8 283.6,442.1 283.5,441.6 C305.3,440.3 326.7,437.7 348.3,435.7 C347.6,455.8 367.5,475.5 387.5,475.1 C413.6,476.3 429.3,442 421.4,419.7 C431.3,419.5 441.5,418.6 451.9,417.2 C457.6,416.6 461.2,415.3 461,410 L461,410 Z" id="🎨-Background" fill="#FFFFFF"></path><path d="M140.8,-5.1 C140.1,-4.9 140.2,-6.3 141.1,-6.1 C141.8,-6 142.1,-5.1 142.2,-4.5 L142.2,-4.4 C143.4,1.3 142,7.2 139.2,12.1 C138.5,13.2 137.8,14.8 136.4,15.1 C137,19.9 138,24.6 139.1,29.2 C143.1,30.6 146.9,32.7 150.9,34.2 C158.6,36.9 166.9,37.6 175,38.2 C180.6,38.5 186.4,38.3 191.7,36.4 C194,35.7 195.9,33.7 198.2,33.7 C196.6,29.4 194.9,25.2 192.9,21 C186.9,21 182.3,15.2 180.5,9.9 C179.9,7.9 179.7,5.7 179.3,3.6 L179.1,2.8 C179,2.1 178.9,1.4 178.8,0.6 C178.8,0.4 179.2,-2 179.1,-2.3 C179.1,-2.2 179,-2.3 178.9,-2.3 C178.7,-2.5 178.9,-2.9 179.2,-2.9 C179.7,-2.9 180,-1.8 180.1,-1.5 C182.5,3.6 183.5,9.7 187.8,13.5 C190,12.1 192.7,13.9 194.9,14.5 L195.6,14.7 C206,18 210.8,18.8 219.1,27.1 C233.4,38.2 237.6,52.3 243.2,68.6 L243.5,69.5 C248.9,83.9 253.2,92.8 264,104.6 C267.9,102.8 292.1,83.4 300.4,72.1 L300.6,71.8 C303,68.5 308.5,57.1 312.9,58.2 C313.3,48.2 320,39.9 324.7,31.5 L331.4,20.3 L331.4,20.3 C332,19.2 332.6,17.7 333.5,16.8 C335.1,15.3 337.7,16.7 338.6,18.2 C341.1,22.5 337.9,30.7 337.5,35.7 C348.9,29.1 360.1,21.9 371.9,15.9 C372.9,15.5 374.1,15.8 374.4,17 C376.4,25.2 365.5,32.1 360.3,37.1 C368.9,33.6 377,28.7 385.3,24.6 L385.8,24.3 C387,23.7 388.5,25 387.7,26.2 C383,33.2 376.9,39.4 369.8,44 C377.7,42.7 385.5,40.7 393.2,38.3 C394.5,37.9 395.4,39.6 394.5,40.4 L394.1,40.9 C389.9,45.1 385.2,48.9 379.7,51.3 C382.3,51.2 384.8,51.1 387.4,51 C388.7,50.9 389.1,52.5 388.4,53.3 C385.5,56.6 381.7,58.8 377.6,60.2 C360.5,64.8 346.1,64.4 334.6,80.5 C337.4,81 337,84.3 336.1,86.3 L336.1,86.4 C331.9,95.4 327,104 321.9,112.4 C310.8,128.8 301.7,148.6 284.2,159.1 C295.5,158.7 306.8,158.5 318.1,158.4 C321.3,158.4 324.4,158.4 327.6,158.4 L329.9,158.4 C333,158.4 337.1,157.7 339.8,159.6 C345,163.8 340.9,171.4 335.2,172.5 C331.6,173.5 327.8,173.3 324.1,173.6 C324.8,175 324.9,176.6 325,178.1 C338,178.9 345.6,189 349.1,200.7 C356.2,222.9 361.6,245.6 367.5,268.2 L368.2,270.8 C373.8,293.1 379.8,315.3 386.9,337.1 C389.3,344.7 392.1,352.1 394.3,359.8 C394.5,360.4 394.4,361.1 394,361.5 C393.6,364.5 391.7,369.5 388.5,370.3 C389.8,372.9 391,375.7 392,378.4 C406.5,374.5 418.6,385.9 430.7,391.7 C436.9,394.9 445.8,394 449.2,401.1 C454.8,399.7 461.5,402.8 462.1,409 C462.6,415.4 457.2,417.2 451.8,417.6 C442.2,418.9 432.6,419.7 422.9,420 C428.4,438.4 419.3,465.2 400.7,472.8 C376.1,483.1 347.6,461.9 346.9,436.2 C326.3,438.1 305.7,440.6 285,441.8 C285.9,444.8 282,446 279.7,445.1 C285.2,469.9 269.1,501.4 242.2,501.3 C207.6,501.1 193.6,453 211.7,427.2 L211.6,426.8 C208.7,419.3 203.2,404 212.4,399.6 C210.5,396.7 211,393 211,389.6 C202.5,390 198.1,396.1 195,403.3 C192.1,409.7 189.3,416.2 186.4,422.7 C183.7,429.7 181.1,433.2 173.1,433.7 L172.3,433.8 C163.5,434.4 151.7,434.9 143.7,431.4 C124.7,466.1 84.9,486.6 50.4,461.8 C-20.4,413 -17.7,230.2 75.7,208.5 C75.7,205.1 75.8,201.6 75.8,198.1 C75.6,195.9 75.7,193.7 75.9,191.4 L75.9,190.5 C76.2,184.8 76.2,179.1 75.5,173.4 C64.2,172.5 57.3,158 56.2,155.8 C47.4,139.1 55.5,108.1 59.2,91.9 C55.6,92.1 52.4,91.7 49,91.7 L47.8,91.8 C41.4,91.9 37.1,91.6 36.9,83.6 C36.9,80.4 35.5,74.4 39.7,73.3 C41.7,73 43.9,73.6 45.9,73.8 C52,74.3 58.1,74.7 64.2,74.7 C69.5,59.5 73.6,43.2 83.7,30.4 C92.3,19.5 106.1,15.2 118.4,10.1 C121.7,8.8 124.6,6.5 127.5,4.4 L127.7,4.2 C129.1,3.1 130.7,2.2 132.5,2.1 C134.3,2.1 136,2.9 137.8,3 C138.1,2.8 138.5,2.6 138.8,2.7 C139.8,0.1 140.5,-2.6 140.8,-5.3 L140.8,-5.5 C140.8,-5.7 140.7,-5.6 140.7,-5.3 C140.8,-5.3 140.8,-5.2 140.8,-5.1 Z M242.2,414.5 C238.3,414.5 234.6,415.3 231.1,416.8 C230.3,421.3 234,427.6 235.2,432.1 C235.2,434 235.6,435.9 236,437.7 C236.3,443.1 238.6,448 239.7,453.1 C239.9,454.1 241.4,453.7 241.2,452.7 C240.2,448.2 239,443.7 237.9,439.1 C238.4,439.4 239.3,439 239.1,438.3 C238.7,436.7 238.7,435 238.8,433.4 C265.2,436.7 263.6,480.6 236.7,481.2 C219.2,481.6 209.5,457.7 219.3,443.4 C217.7,439.9 216,436.5 214.3,433 C200.2,456.6 215,496.9 242.2,496.2 C286.1,494.9 286.1,415.7 242.2,414.5 Z M400.7,419.6 C405.9,429.3 405.3,442.4 398.7,451.3 C391.2,461.5 374.9,460.3 367.6,450.5 C364.7,447.1 362.5,442.8 362.4,438.2 C362.3,437.2 363,435.4 362.1,434.6 L356.5,435.2 C353.6,435.5 350.8,435.8 348,436.1 C356.2,458 376.3,477.8 400.9,466.8 C416.2,458.4 421.8,438.4 419.6,422 C419.5,421.2 419.8,420.6 420.2,420.1 C413.7,420.3 407.2,420.3 400.7,419.6 Z M133.3,253.5 C89.8,184.8 32.6,229.3 17.9,292.3 C6.9,335.8 10.8,388.8 33.8,427.2 C60.8,473 106.4,472.9 133.3,427.2 C153.8,393.1 159.1,347.5 152.4,307.3 C152.4,307.6 152.2,308 152,308.3 C159.9,356.5 151,416.2 112.7,445.5 C84.4,466.4 51.3,449.3 35.5,420.8 C4.7,369 7.1,274.1 57.5,235.1 C71.9,224.9 88.8,223 104.4,230.3 C104.5,229.3 105.1,230.4 105.4,230.8 C132.2,245 145.4,275.5 151.6,305.9 C151.9,306.1 152.2,306.4 152.3,306.8 C151.5,301.9 150.4,297 149.2,292.3 C145.5,277.7 140.1,264.7 133.3,253.5 Z M231.9,455.7 C229.6,454.3 230.7,458.7 231.5,459.5 C232.1,460.3 233.2,459.6 232.8,458.7 C232.3,458 233.2,455.8 231.9,455.7 Z M77.7,231.7 C12.7,250 8.4,370 39.9,418.2 C54.4,444.1 83.8,460.4 109.7,441.4 C114,438.4 118,434.6 121.7,430.2 C105.1,430.1 88.4,427.9 71.8,426.6 L71.4,426.6 C68.9,426.4 66.3,426.2 64,425.1 C57,421.7 58.9,412.9 65.3,409.8 C68.8,402.9 84.2,404.4 91.2,404.1 C89.6,384.3 90.4,364.3 90.2,344.5 C85.2,345.5 80.3,346.7 75.4,347.9 C74.8,348 74.2,347.9 73.7,347.7 C72.5,349.6 70.2,349.8 68.3,348.8 C64.5,346.9 64,341.9 64.7,338.2 L64.8,337.8 C65.4,335.2 66.7,331.3 69.8,331.1 C71.7,329.9 73.8,331.3 74.5,333.2 C77.8,332.7 80.7,333.5 83.9,332.9 C86,332.5 88.1,331.4 90.2,332.2 C90.3,318.6 90.4,304.9 90.5,291.3 C86.4,292.7 81.5,289.9 80.3,285.8 C79.5,283.1 80.2,280 80.6,277.3 L80.6,276.8 C80.9,275.1 81.2,273.3 81.8,271.7 C72.6,270.4 74.5,251.3 75.2,244.5 C76,240.1 76.6,236.2 77.7,231.7 Z M228.8,308.9 C224.8,308.9 221.9,313.3 224.2,316.8 C228.9,322.1 235.8,317.3 243.1,331.7 C255.2,360.4 260.8,391.5 268.4,421.6 C272.2,425.6 274.5,430.6 277.3,435.3 C278.3,437 278.6,439.5 280.5,440.6 C280.8,440.8 281.1,440.8 281.4,440.8 C277.5,438.6 278.4,428 279.2,424.2 L279.1,424.2 C278.8,424.2 277.5,424.5 278.1,423.9 L278.7,423.7 L278.7,423.7 L279.3,423.5 L279.4,423.3 C268.5,398 266.1,369.7 258.3,343.4 L257.6,341 C254.9,332 251.7,322.6 244.9,315.9 C244.6,315.9 244.4,315.8 244.1,315.6 L243.9,315.4 C239.8,311.9 234.9,309.1 229.4,309.6 C229.1,309.6 229.1,309.3 229.3,309.2 C229.4,309.2 229.6,309.2 229.7,309.1 C229.4,309.1 229.1,309 228.8,308.9 Z M209.4,380.5 C208.3,380.9 207.1,380.6 205.8,380.7 C204.4,380.7 203,380.9 201.7,381.3 C180,387.6 183.2,420.2 167.4,424 C163.4,424.8 159.4,424.2 155.4,423.6 C152.9,423.7 150.6,423.6 148.2,423.1 C147,425.4 145.8,427.6 144.6,429.8 C147.5,429.4 150.4,429.5 153.3,429.4 C160.2,429.5 167,429.3 173.9,428.4 C176.3,428.1 178.5,427.5 179.9,425.4 C183.2,419.9 185.4,413.8 188.3,408.2 L188.7,407.3 C192.9,397.9 198.4,386.7 210.1,386.7 C210.2,386 210.7,385.5 211.3,385.3 C211.4,384.3 211.4,383.4 211.5,382.4 C210.8,381.7 210.3,380.9 209.4,380.5 Z M64.7,412.3 C63.5,414.5 63.6,418.2 65.9,419.7 C67.4,420.6 69.6,420.5 71.3,420.6 L74.2,420.8 C75.2,420.9 76.2,420.9 77.2,421 L78.7,421.1 C92.7,422.3 106.7,423.5 120.7,424.7 L120.8,424.7 C121,424.7 121.3,424.6 121.3,424.6 L121.5,424.5 C121.8,424.3 121.4,424.4 121.4,424.5 L121.4,424.5 C122.9,423.5 124.6,424.6 125,426.1 C126.4,424.3 127.7,422.3 129.1,420.2 C127.2,420.7 125.3,420.8 123.3,420.7 C122,422.2 119.7,421.6 117.9,421.6 C105.5,420.6 93.2,419.2 80.8,417.8 C77.7,417.4 74.6,417.1 71.4,416.7 L70.7,416.6 C67.9,416.4 64.6,415.9 64.7,412.3 Z M334.4,388.1 C333.1,389.5 330.6,389.9 329,390.7 C327.1,391.7 325.2,392.8 323.6,394.2 C316.2,401.1 308.6,412 297,407.2 C294.5,406.2 292.2,404.7 290.7,402.6 C290,402.9 289.2,402.3 288.5,402.2 C289.1,405.4 289.4,408.4 290.3,411.6 C290.7,412.9 291.1,414.3 291.7,415.6 C292.2,417 293.3,418.3 293.2,419.8 C302,418 311,416.8 319.9,415.7 C323.2,415.5 328.9,413.7 331.7,415.4 C335,417.5 333.5,421.3 335.3,422.7 C337.9,424 341.4,423 344.3,422.9 C356.9,421.9 369.7,421.1 382.3,420.1 C389.9,418.7 384.9,416.4 388.2,414.5 C388.2,402.9 374.2,404.1 366,403.1 C363.5,404.1 361,405 358.4,405.8 C357.2,406.2 356.3,404.6 357.2,403.7 L359,401.9 L359,401.9 C357.8,401.6 356.6,401.3 355.4,401 C353.7,401.7 352,402.3 350.3,403.1 L350,403.3 C348.9,403.9 347.6,402.7 348.3,401.5 C348.8,400.6 349.2,399.7 349.5,398.8 C348,398.1 346.5,397.3 345,396.4 L344.7,396.2 L340.1,398.8 C339.2,399.3 337.8,398.5 338.2,397.4 C338.7,395.9 340.1,395.2 341.2,394.2 C341,393.9 341,393.6 341,393.3 C338.9,391.5 337.1,389.2 334.4,388.1 Z M396.6,423.1 L396.4,423.2 C396.4,423.2 396.4,423.2 396.5,423.2 L396.5,423.2 L396.5,423.2 C396.5,423.3 396.6,423.3 396.6,423.3 C396.6,423.3 396.6,423.3 396.6,423.2 L396.6,423.1 Z M226.4,274.8 L226.8,278.3 C227.8,287.7 228.7,297 229.5,306.3 C229.5,306.4 229.6,306.5 229.7,306.6 L231.9,307 C235.8,307.7 238.9,308.4 242.4,311.1 C254.1,317.3 258,331 261.5,342.7 C269.4,368.5 272.1,395.7 282.6,420.6 C282.9,421.3 282.9,421.9 282.7,422.5 C284.5,421.9 286.4,421.4 288.2,421 C285.7,416.2 284.7,409 285.4,403.7 L285.1,403.7 C284.2,403.7 283.2,403.7 282.5,403.1 C281.1,403.5 280,402.2 279.9,401 L279.8,400.9 C276.1,358.7 273.3,316.1 263.1,274.9 C261.8,276.2 259.4,275.9 257.6,276 L257.5,276 C255.9,276.1 254.3,276.1 252.7,276.2 L252,276.2 C243.5,276.3 234.7,276.9 226.4,274.8 Z M163.8,308.7 C169.7,345.6 164.5,389.9 149.2,421 C152.9,421 156.5,420 160.2,420 C166.7,420.1 169.9,418.8 172.6,412.5 C178.9,398.1 185.3,379.5 203.2,376.8 L204,376.7 C206.5,376.4 210.7,376.2 210.7,379.1 C211,379.1 211.4,379.1 211.7,379.2 C211.8,378.5 211.8,377.9 211.9,377.2 L211.9,375.8 C212.1,371.5 212.6,365.5 217.9,365.6 C218,365.1 218.2,364.6 218.3,364.2 C212.9,361.5 213.1,347.8 212.5,342.3 C212,334.5 212.1,326.6 212.3,318.8 C212.3,318 212.4,316.9 212.1,316.3 C209.3,314.5 208.7,312.1 208.6,308.9 C193.7,309.2 178.7,308.8 163.8,308.7 Z M228.7,322.7 C230,325.6 230.1,329 230.4,332.2 C230.8,335.9 231,339.7 231.2,343.5 L231.3,344.4 C231.3,345.7 231.4,346.9 231.9,348.2 L232,348.5 C232.6,350 233,351.4 232.9,353.1 C232.5,357 231.9,360.9 231.2,364.8 C230.2,368.1 226.5,366 224.4,365.2 L224.4,365.4 C224.5,366.8 224.5,368.2 223.7,369.3 C229.6,369.1 230,373.3 229.3,378 L229.3,378.6 C228.9,385.2 228.7,392.1 230.5,398.5 C233.6,399.8 235.8,402.3 237.9,404.7 C239.1,406.1 240.7,407.7 241.6,409.4 C249.9,409.2 257.7,412.1 264.3,417.6 L263.5,414.4 C258.4,392.8 253.4,371.2 246.7,350.1 C243.2,340.1 240.5,325.6 228.7,322.7 Z M102.3,305.8 C102.3,315.2 102.4,324.6 102.4,333.9 C105.2,334.3 108,335.2 110.6,336.3 C112.2,337.1 111.5,339.3 110.1,339.8 C107.6,340.8 105.1,341.3 102.5,341.9 C102.2,362.2 103.6,382.7 101.5,403 C107.6,404 108.1,410.8 106.9,415.6 C113.6,416.2 120.4,417.9 127.2,416.7 C129.2,416.6 130.4,414.4 132.3,414.8 C148.2,386.9 153.4,343.5 146.9,309.1 C132,308.8 117,307.9 102.3,305.8 Z M98.2,342.8 C96.8,343 95.4,343.3 94,343.6 C93.8,363.8 94.6,384 93,404.1 C93.6,404.1 93.5,404.5 93,404.5 C93,404.9 92.9,405.2 92.9,405.6 C92.8,406.6 91.4,406.6 91.3,405.6 C91.3,405.4 91.3,405.1 91.2,404.9 C88.6,405.5 85.8,405.9 83.1,406.4 C79.1,407.4 69.5,406.7 68.8,411.9 L71.9,412.2 C82.4,413.1 91.6,414 102,415.1 C102.5,411.9 105,407.2 101.1,405.2 C100.5,405.7 99.4,405.5 99.3,404.4 C97.2,384 98.5,363.3 98.2,342.8 Z M406.7,384.3 C394.3,379.3 387.9,385.1 377.9,391.4 C372.8,394.3 365.8,395.6 360.6,392.2 C358.3,392.3 357.2,389.7 357.4,387.7 C357.4,387.5 357.4,387.4 357.4,387.2 C354.5,389 356.3,393.8 355.6,396.6 C361.5,398.5 367.7,398.9 373.8,399.4 C381.7,399.6 391.3,403.5 392.2,412.3 L392.3,412.6 L392.9,412.6 C392.9,411.7 393.4,410.7 394.6,410.7 L394.6,410.6 C411,409.6 427.6,409.7 443.9,408 C445.9,407.5 446.6,406.2 446,404.2 C444.8,399.6 438.3,399.4 434.5,398.3 C429.9,397 425.8,394.8 421.7,392.3 C420,392.8 418.2,393.2 416.5,393.6 C415.6,393.7 414.5,393 414.9,392 L415.2,391.3 C415.5,390.6 415.8,389.7 416.3,389.1 C415,388.3 413.6,387.5 412.3,386.8 C410,387.6 407.8,388.7 405.8,390 C404.5,390.8 403.3,389 404.2,388 L404.2,388 C405.3,386.9 406.1,385.6 406.7,384.3 Z M324.4,385.8 C313.3,391.2 301.6,395.2 290.3,400.1 L290.5,400.1 C290.9,400.3 291.4,400.5 291.5,400.9 C295.8,404.2 301.7,405.6 306.8,403.2 C314.1,399.3 317.7,390.9 325.1,387.1 C324.8,386.7 324.6,386.2 324.4,385.8 Z M219.3,370.9 C218.9,370.8 217.8,370.3 217.6,370.5 C216.8,372.3 216.8,374.5 216.6,376.4 C215.9,384 214.5,391.5 213.7,399.1 C217.6,398.1 221.5,397.4 225.5,397.4 C225.2,395 224.9,392.7 224.8,390.3 C224.5,385.7 224.7,381.1 225.4,376.5 L225.4,376.2 C226.2,372.3 225.6,372.1 221.8,370.7 C221,371 220.1,371 219.3,370.9 Z M303.7,191.4 C297.3,185.3 287.7,186 279.5,186 C262,186 244.5,187.6 227.3,190.4 C226.8,191.2 225.4,191.4 224.7,190.8 C220,191.6 215.2,192.5 210.5,193.4 C211.8,201.6 212.9,210 214,218.2 L214.1,218.7 C214.6,222.3 214.9,226.4 212.4,229.3 C212.3,238.5 212,247.7 212,256.9 C213.3,255.6 215.5,255.8 217.2,255.4 C220.8,254.6 224.1,254 227.7,253.8 C231.4,253.3 235,252.7 238.6,252.2 C239.2,252.1 239.6,252.3 239.9,252.7 C244.5,252.2 249.2,251.2 253.8,250.9 L253.6,250.1 C252.2,245.9 250.9,241.4 252.9,237.3 C253.4,236.3 254.9,236.4 255.4,237.3 C257.1,240.5 257.2,244.1 257.8,247.6 C258.2,249.6 259,251.8 259.3,253.9 C261.3,257.1 262.2,260.8 263.5,264.3 C277.2,307.4 278.8,353.1 284,397.7 C292,394.4 300.1,391.3 308.1,388.1 C313.8,385.3 326.9,383.1 326.3,374.9 C326.3,374.3 326.3,373.6 326.2,372.9 C326.3,372.7 326.6,372.5 326.8,372.3 C324.2,361.9 323.1,351.2 322.4,340.5 C320.6,311.1 319.8,281.7 318.9,252.3 L318.8,251 C318.1,230.6 317.9,207.4 303.7,191.4 Z M325.2,309.2 C326.2,328.8 325.8,348.7 330.4,367.9 L330.6,368.5 C331,370.3 332.2,372.9 331.5,374.8 C331.5,377.2 332.3,380.8 330.3,382.5 C329.4,383.1 328.3,383.5 327.2,383.9 C327.7,384.5 328.4,384.9 329.1,385.2 L329.3,385.1 C331.2,384.2 334.6,383.6 335.1,386.3 C338.8,386.6 342.3,390.1 345.3,392 C346.8,392.9 348.4,393.8 350,394.5 C350.5,390.6 352.8,385.7 357.4,385.8 C357.4,383.4 357,381.1 356.6,378.8 C354.5,379.1 352.4,379.3 350.2,379.2 C348.8,380.2 347.4,379.1 347.2,377.5 C340.6,354.7 333.2,331.7 325.2,309.2 Z M384.9,368.8 C376.1,371.5 366.5,371.6 358.1,375.4 C360.6,379 361.6,383.3 362.2,387.6 C362.8,388.1 363.2,388.8 363.2,389.6 C363.2,389.8 363.2,390.1 363.1,390.4 C372.5,392.3 379.3,384.4 386.9,380.4 C385.8,376.6 385.3,372.6 384.9,368.8 Z M362.2,388 L362.2,388 L362.2,388 C362.2,388.5 362.5,388.3 362.2,388 Z M356.1,376.2 C356,376.2 355.9,376.3 355.7,376.4 C355.9,376.3 356,376.3 356.2,376.3 C356.2,376.3 356.2,376.2 356.1,376.2 Z M334.4,186.3 C324.1,179.4 303.8,182.6 291.6,183.4 C315.6,185.3 319.5,218.1 321.4,237 C323,257.3 323.5,277.6 324.6,298 C334.2,323.4 341.9,349.4 350.1,375.3 C356.7,371.6 363.9,369.3 371.4,368 L372.5,367.9 C378.8,367 385.2,365.8 390.3,361.9 C371.8,316.8 364.1,268 350,221.4 C345.9,209.8 344.5,194.5 334.4,186.3 Z M389.1,366.9 C388.7,367.1 388.3,367.3 388,367.5 C388.2,367.4 388.4,367.4 388.6,367.5 C388.7,367.3 388.9,367.1 389.1,366.9 Z M221,269.4 C219.3,266.6 215.5,264 212.2,265.2 C217.2,268.3 216.1,277.1 216.5,282.2 L216.5,282.5 C216.4,287.4 216.8,297.6 214.1,301.1 C214.3,303.3 214.3,305.6 214.5,307.9 C214.6,308.7 214.4,310.2 214.9,311 C220.3,313.9 217.7,321.1 218,326.1 C217.8,335.7 218.4,345.2 218.7,354.7 C218.7,357.2 218.4,359.8 219.3,362.2 C220.3,359.9 223.3,360.1 224,362.3 C224.5,361.7 225.5,361.6 226.4,361.7 C226.8,358.7 227.2,355.7 227.4,352.6 C227.4,351.1 226.5,349.9 226.2,348.5 C225.5,343 226.3,337.4 226.3,331.9 L226.4,331.8 C226.6,329.5 226.7,323.9 228,322.5 C219.7,321 217.1,310.6 225.2,306.7 C225.1,306.2 225.2,305.6 225.5,305.3 C224.9,297 224,288.7 223.2,280.5 C222.8,276.8 222.9,272.7 221,269.4 Z M70.3,339.8 C70.9,339 69.5,338.1 69,339 C68.4,339.9 68.1,341.1 68.3,342.2 C68.4,342.8 69.4,343 69.7,342.4 C69.9,341.9 70,341.4 70.1,340.8 C70.5,340.6 70.5,340.2 70.3,339.8 Z M75,334.8 C75,335 75,335.1 75.1,335.3 C75.3,335.2 75.5,335.1 75.8,335.1 C75.5,335 75.2,334.9 75,334.8 Z M95.1,274 C94.5,274.4 93.8,274.6 93,274.8 C94.4,294.3 93.6,313.9 93.9,333.5 C95.3,333.8 96.8,333.6 98.2,333.7 C98.6,316.6 97.9,299.5 99,282.5 C98.1,280 97.5,277 98.2,274.4 C97.1,274.3 96.1,274.2 95.1,274 Z M203,301.1 C190.4,301.6 177.6,301.4 165,301.2 C164.2,301.2 163.3,301.2 162.5,301.2 C162.8,302.9 163.1,304.6 163.4,306.3 C178.4,306.2 193.5,305.8 208.4,306.1 L208.4,305.4 C208.3,304.7 208.3,304 208.2,303.3 C206.4,303.1 204.6,302.3 203,301.1 Z M135.6,272.5 C134.7,273.7 132.7,272.9 131.4,273.1 C131,273.6 130.4,274 129.6,274.1 C123.2,274.4 116.9,274.5 110.5,274.5 C108.6,276.7 105.3,275.5 103,276.3 C102.7,277.8 102.6,279.4 102.3,280.9 C102.2,281.5 102,282 101.7,282.6 C102.2,288.3 102.3,294 102.3,299.7 C105.4,298.7 108.8,298.9 112.1,298.7 C119.1,298.5 126.2,298.6 133.2,298.6 C136.3,298.5 139.9,298.7 142.9,298.7 C143.7,298.4 144.8,298.8 144.9,299.7 C145.5,302 142.9,302.2 141.4,302.1 C139.5,302 137.6,302 135.8,301.9 C128.1,301.7 120.5,301.6 112.8,301.3 C109.3,301 105.7,301.1 102.3,300 L102.3,304.3 C102.3,304.7 102.3,305.1 102.3,305.4 C116.9,305.4 131.6,305.6 146.3,305.5 C144,294.1 140.3,282.4 135.6,272.5 Z M324.9,303.1 C324.8,303.8 325.1,304.5 325.4,305.1 C325.3,304.4 325.1,303.8 324.9,303.1 Z M155,273.5 C157.8,281.2 160.1,289.4 161.9,297.9 C174.5,297.6 187.1,297.8 199.7,297.8 C195,292.3 190.1,293.8 187.8,290.4 C186.1,287.7 187.5,278.9 188,275.5 C178.1,275.1 168.3,275 158.5,273.9 C157.4,273.8 156.2,273.7 155,273.5 Z M85.5,270.6 C85.3,270.8 85,270.9 84.8,271.1 C85.4,272.8 84.8,274.6 85.3,276.4 C85.4,278.6 85.3,280.7 85.4,282.7 C85.4,284.7 86.6,285.9 88.3,286 C88.9,286 89.7,285.9 90.6,286.1 C90.8,282.4 90.6,278.5 91.2,274.8 C90.8,274.8 90.5,274.7 90.1,274.6 C90,272.8 88.3,271.1 86.5,272 C86.1,271.6 85.8,271.1 85.5,270.6 Z M200.4,269.2 C199.8,269.3 199.3,269.4 198.8,269.6 C198.9,274.4 205.9,271 206.9,276.9 C207,278.3 206.8,279.7 206.8,281.1 C206.8,281.8 206.2,283 207,283.4 C207.4,284 208.5,283.9 208.4,283 C208.4,282.9 208.4,282.7 208.3,282.5 C208.7,281.9 208.9,281.3 209,280.6 C209.4,280.4 209.3,279.9 209.1,279.5 C209,278.7 209.4,277.2 208.4,276.7 C208.3,271.2 206.3,270.3 201.1,269.9 C200.8,269.8 200.5,270 200.4,270.2 C200.3,269.9 200.3,269.6 200.4,269.2 Z M195.8,196.1 C192.1,197.3 188,197.5 184.1,198.3 C159.4,201.7 135.5,212 110.3,211.7 C109.4,211.6 108.6,211.5 107.8,211.3 C107.8,211.7 107.9,212.1 108,212.5 C108.4,212.9 108.7,213.5 108.8,214.2 C127.8,223.8 142.1,243.3 151.1,263.9 C162.2,262.3 173.4,260.6 184.5,259.2 L186.5,259 L186.5,259 L190.6,258.5 C192.6,258.2 194.8,257.6 196.7,258 C197.6,249.1 197.6,240.4 198.3,231.4 C196.3,229.8 196.8,226.4 196.7,224.1 C196.3,214.8 196.2,205.4 195.8,196.1 Z M208.6,231.9 C207.9,232 207.2,232.1 206.6,232 C204.9,232.9 202.3,232.4 200.4,232.2 C200.6,234.3 200.8,236.4 200.9,238.5 C201.2,246.6 201.1,254.9 200.3,263 C203,263.2 205.6,263.5 208.2,263.7 C208.2,253.1 208.7,242.5 208.6,231.9 Z M108.5,238.5 C110.6,247.2 120,260.5 129.6,261.3 C123.8,251.9 117.1,244.5 109.7,239.3 C109.3,239 108.9,238.7 108.5,238.5 Z M193.5,172.8 C193.2,172.8 192.9,172.8 192.6,172.8 C194.4,175.4 194.1,179.5 191.9,181.9 C199.6,186.6 199.3,197.3 199.6,205.3 C199.9,213 200.3,220.7 200.6,228.4 C200.6,228.3 201.1,228.5 201.3,228.5 C202.3,228.6 203.4,228.7 204.4,228.6 C206,228 208.1,228 209.2,226.5 C210.5,224.7 210.2,222.1 210,220.1 C209.4,215.3 208.7,210.4 208.1,205.6 C206.4,195.2 206.6,175 193.5,172.8 Z M190.6,183 C184.5,186.9 176.3,185.4 169.4,185.8 C164.3,185.9 159.2,185.9 154.1,185.9 C136.9,185.8 119.7,185.1 102.6,184.4 L102.6,185.1 C102.9,190.8 103.5,196.5 105.2,202 C106.1,205.7 107.5,207.1 111.5,206.8 C132.6,206.5 152.6,198.9 173.2,195.2 C180.5,193.9 188,192.9 195.4,192 L195.3,191.6 C194.7,188.3 193.8,184.6 190.6,183 Z M195.1,17.6 C195.4,18.2 195.6,18.7 195.5,19.2 C220.2,72 213.7,132.2 226.7,187.9 C227,188.1 227.1,188.3 227.2,188.5 C231.5,187.7 235.7,187 240,186.3 C239.5,185.1 240.2,183.9 241.1,183.1 C241.1,183 241.3,182.6 241.3,182.6 C239.7,162.8 237.3,143.1 235.3,123.3 C234.1,109.5 231.8,95.6 232.4,81.8 C232.4,81.6 232.6,81.7 232.7,81.8 C236,93.8 237.9,111.9 241.3,136.1 C265.3,164.2 279.4,169.1 302.5,136.5 L303.7,134.8 C314.5,118.9 325,102.7 333.2,85.3 C322.9,85 317.4,74.2 313,66.3 C312.3,65.9 311.8,65.3 311.4,64.5 C307.9,68.8 305.2,74.2 301.7,78.6 C292.9,90 272.9,104.2 272.5,104.7 L272.4,104.7 C271.1,105.9 267.1,110.5 265.9,110.4 C260.5,115.3 248.7,92.3 247.2,87.9 C243.8,79.5 241,76.9 237.9,68.3 L237.4,66.7 C233.2,54.2 229.1,41.1 218.6,32.4 L218.2,32 C211.6,24.9 205.1,19.4 195.1,17.6 Z M322.5,173.7 C319.6,173.9 316.6,174.1 313.6,174.2 L310.9,174.4 C289.3,175.7 267.6,177.3 246,176.3 C246.2,179.4 247.3,182.5 246.1,185.5 C261,183.7 276.1,182.7 291.1,183.4 C300,179.2 310.8,177.9 320.8,177.8 C321,176.4 321.6,174.8 322.5,173.7 Z M170.6,149.8 C156,143.3 141.8,149.9 136.7,165.6 C137.1,165.9 137.3,166.4 137.4,166.9 C138.7,168.7 141.2,168.7 143.2,168.9 C147.3,169.5 151.2,170.8 154.8,172.8 C156.8,173.9 158.5,175.4 160.6,176.4 L161.7,177.4 C163.5,179.1 165.4,180.8 167.8,181.7 C170.3,181.8 167.1,176.9 166.6,175.9 L166.4,175.6 C165.3,173.9 163.9,172 165.4,170.1 C168,171.4 170.2,173.2 172.3,175.3 L172.7,175.6 C174.8,177.7 177.2,180.2 180.1,180.5 C180.6,180.6 181,180 180.9,179.6 C179.5,175.1 175.6,172 172,169.4 C172,168.1 172.9,167.1 174,166.9 C179.2,169.8 182.7,174.5 187.7,177.5 C188.3,177.8 188.8,177.4 188.9,176.8 C188.9,172.9 184.9,169.9 182.1,167.6 C181.5,167.1 180.9,166.7 180.3,166.3 C180.5,165.5 181.2,164.8 182.1,164.7 C183.7,165.1 193.6,172.8 193.6,169.2 L193.6,169.1 C193.3,167.9 191.9,165.2 190.5,165.5 C185.4,159.3 178.1,152.7 170.6,149.8 Z M132.3,5.6 C127.2,8.6 122.3,11.8 117.1,14.7 C110.6,18.4 103.5,21.4 97.2,25.6 C78.1,39.7 72.5,69.5 65.5,91.2 L64.5,95.4 C60.5,112.5 54.5,139.7 61.8,153.7 L61.8,153.8 C62.7,155.7 67,163.5 69.2,164.9 C75.7,168.9 89.3,170.3 101.1,169.5 C112.4,169 123.4,166.8 134.4,164.6 C134.6,160.8 136.5,157.6 138.4,154.6 L138.6,154.2 L138.9,153.9 C141.6,149.9 144.7,146.6 149.3,144.8 C134.1,140.3 109.1,146.1 92.2,134.2 C90.8,133.3 92,131.3 93.5,132 C94.3,132.5 95.2,132.9 96.1,133.3 C95.3,130.4 97.4,128.7 98.7,126.2 L98.7,126.1 C109.4,104.5 117.8,80.3 125.3,58.3 C123.1,73.7 119.6,88.9 114.6,103.6 C119.2,107.1 123,111.5 127.1,115.5 C131.5,120.1 136.8,124.1 140.2,129.6 C140.9,130.9 139.4,132.2 138.2,131.6 C135.3,130.1 132.8,127.7 130.5,125.4 L129.6,124.4 C124,118.2 118.5,111.9 114.2,104.8 C111.4,113.1 107.8,119.9 104.1,127.7 L103.6,128.7 C102.8,130.4 102,132.4 100.6,133.6 C101.5,135.5 103.8,135.9 105.6,136.4 C120.2,140.5 135.6,137.1 150.2,140.8 L151.2,141 C152.2,141.3 153.1,141.6 153.7,142.5 C166.5,142.9 178.9,148.2 188.8,156.2 L189.1,156.4 C193.3,159.8 197.5,164.2 198.3,169.7 C198.4,170.8 198,172.2 196.8,172.5 C199.2,172.8 201.4,174 203.2,175.7 C186.1,116.5 136,69.3 132.3,5.6 Z M186.5,174.1 C186.7,174.5 186.9,174.8 187.1,175.2 C187,175.2 186.9,175.1 186.9,175.1 C186.9,174.9 186.7,174.7 186.6,174.5 L186.6,174.5 C186.5,174.4 186.5,174.3 186.4,174.3 C186.4,174.2 186.5,174.2 186.5,174.1 Z M242.3,144.8 C243,150.5 243.6,156.1 244.3,161.7 C248.9,161.1 253.7,160.8 258.4,160.4 L258.1,160.2 L258.1,160.2 C255.7,158.8 253.5,157 251.5,155.1 C249.2,153 247,150.8 245.1,148.4 C244.1,147.3 243.2,146.1 242.3,144.8 Z M130.9,84.5 C131.6,90.9 135.6,96.4 139.4,101.5 C140.4,102.8 138.1,104.1 137.2,102.8 L136.8,102.3 C132.8,96.9 129.1,91.3 128.3,84.5 C128.1,82.8 130.7,82.9 130.9,84.5 Z M371.5,20.3 C359.9,27.6 347.8,34 335.9,40.8 C334.5,41.6 333,40.3 333.3,38.8 C333.9,35.4 334.5,32.1 335.1,28.8 L335.6,26.2 C335.7,25.3 336.4,21.9 335.8,20.6 C332.8,25.6 329.8,30.5 326.7,35.4 L323.4,40.8 C319.8,46.5 315.8,52.3 314.4,59 C315.3,59.8 315.7,61 315.8,62.2 C316.8,62.6 317.5,63.7 317.2,64.9 C321.5,70 324.4,77.3 331.3,79.4 C339,68.3 351.7,61.8 365.1,60.1 L367.4,59.7 C373.2,58.7 379.2,57.5 383.8,53.9 C379.2,54.1 374.7,54.3 370.1,54.5 C368.6,54.6 368.3,52.2 369.7,51.8 C376.4,50.4 383.1,47.4 388.4,42.9 C379.6,46 370.3,47.9 360.9,48.6 C359,48.6 358.7,45.8 360.5,45.3 C368.7,41.9 376.1,36.5 381.8,29.6 L382,29.4 L370.1,35.7 C365.1,38.3 359.8,41.5 354,41.5 C352.4,41.5 352,39.4 353.2,38.5 L354.9,37.3 C360.4,33.2 370.8,25.3 371.5,20.3 Z" id="🖍-Ink" fill="currentColor"></path></g><g id="Head" stroke-width="1" transform="translate(86.5, 45.1)"><g id="head/Bun"><path d="M37.5,16 C75.5,14.1 101.3,44.1 102.4,56 C103.2,64.3 102.6,75.3 102.6,82.7 C102.6,86.5 104.5,98 102.4,103.5 C97.6,115.8 92.2,125.4 77.1,125.4 C62.1,125.4 39.2,117.6 31.3,107.6 C29.9,105.7 12,92.3 12,81.8 C12,59.3 10.4,17.3 37.5,16 Z" id="🎨-Background" fill="#FFFFFF"></path><path d="M11.6,-8.3 C13.7,-9 15.1,-8 16.1,-6.5 C16.3,-6.5 16.5,-6.5 16.8,-6.5 C16.8,-6.5 17,-6.4 17.1,-6.4 C17.1,-6.3 17.2,-6.3 17.3,-6.2 L17.3,-6.3 L17.3,-6.3 C17.5,-6.4 17.7,-6.6 17.8,-6.7 C18.3,-7 18.7,-7.1 19.1,-7.1 L19.3,-7.1 L19.3,-7.1 C20.9,-7.7 22.6,-7.4 23.7,-6 C23.9,-5.8 24.1,-5.5 24.2,-5.2 C24.6,-5.1 24.9,-4.9 25.1,-4.7 C25.3,-4.8 25.5,-4.9 25.7,-4.9 C26.9,-5.2 28.1,-4.9 29.1,-4.2 C29.6,-3.9 29.9,-3.4 30.2,-2.9 C30.5,-2.9 30.8,-2.7 31.1,-2.6 C31.3,-2.7 31.5,-2.8 31.8,-2.9 C32.7,-3.1 33.6,-3.2 34.6,-3.2 C36.6,-3 38.6,-0.7 37.2,1.3 L37.2,1.3 C37,1.6 36.9,1.8 36.7,2.1 C37.2,2.3 37.7,2.6 38.1,2.9 C40.2,4.6 40.4,7.3 40,9.8 L40,9.9 L40,9.9 C41.1,10 42.1,11.2 41.4,12.3 L41.4,12.3 C40.5,13.7 39.7,15.3 38.9,16.7 C36.5,17.6 34.2,18.6 32.1,19.9 C30.7,21.1 29.4,22.3 28.3,23.7 C27.8,24.4 27.2,25.1 26.8,25.8 C27.2,26 27.6,26 28,25.7 C31.5,22.4 35.8,20.1 40.3,18.6 C40.6,18.5 40.8,18.3 41,18 C43,17.5 45,17 47.1,16.7 C47.6,16.2 48.2,15.6 48.8,15.1 C49.5,14.4 50.4,14.4 51.1,14.9 C51.4,14.7 51.8,14.6 52.1,14.4 L52.4,14.4 C52.4,14.3 52.5,14.3 52.6,14.3 C55,13.5 57.3,13.8 59.6,14.4 L59.9,14.5 C61,14.8 61.7,14.8 62.8,14.5 L62.9,14.4 C64.1,14.2 65.3,13.9 66.5,14.2 C67.7,14.6 68.5,15.3 69.3,16.2 L69.4,16.3 C69.8,16.7 70,16.7 70.5,16.7 L71.1,16.7 C73.1,16.6 75.2,16.7 76.7,18.3 C77.3,18.9 77.9,19.7 78.2,20.5 L78.3,20.6 C78.3,20.6 78.3,20.7 78.3,20.7 C78.6,20.7 78.9,20.5 79.1,20.5 C81.3,20.1 83.2,20.7 84.6,22.5 C84.9,22.9 85.4,23.6 85.7,24.1 C85.8,24.2 86,24.3 86.1,24.4 C86.6,24.7 87.4,24.7 88,24.8 C89.6,25.1 91.4,25.8 92.2,27.3 C92.6,28 92.7,28.7 92.8,29.4 C93.4,29.8 93.8,30.3 94.2,30.9 C94.6,31.6 94.8,32.4 95.2,33.1 C95.6,33.5 96.1,33.8 96.6,34.1 L96.8,34.2 C98.3,35.1 99.4,36 99.9,37.8 L100,37.9 C100,38.2 100.3,38.9 100.1,38.8 C100.3,38.9 100.6,39 100.8,39 C101.8,39.4 102.7,39.9 103.3,40.9 C103.7,41.6 103.8,42.4 103.9,43.2 L103.9,43.5 C104,43.6 104,43.7 104,43.8 L104,43.9 L104,43.9 C104.2,43.9 104.4,44 104.6,44.1 C105.4,44.6 106,45.5 106,46.5 C106,47 105.8,47.4 105.6,47.7 C105.8,48 105.9,48.3 106,48.6 C106.2,49.2 106.3,49.9 106.2,50.5 C106.1,51.3 105.9,52 105.7,52.8 C105.6,53.1 105.5,53.5 105.4,53.7 C105.7,54.1 105.8,54.5 105.8,54.9 C105.7,55.4 105.4,56.1 104.9,56.4 C104.7,57.6 104.2,58.8 103.6,59.8 C103.6,59.9 103.5,60 103.4,60.1 C103.5,64.1 103.2,68.1 103.2,72 C103.2,76.3 103.2,80.7 103.4,85 C103.7,92.1 104.6,99.5 102.4,106.4 C100.7,112.1 97.3,117 92.6,120.7 C87.9,124.5 82.2,126.7 76.1,127 C73,127.2 69.9,126.9 66.9,126.1 L66.6,126 C63.7,125.2 60.3,124 58.2,121.9 C57.1,120.7 58.2,118.4 59.8,119 C61.5,119.7 62.9,120.6 64.6,121.3 C66,121.9 67.5,122.4 69,122.7 C72.1,123.4 75.4,123.5 78.5,123.1 C89.7,121.6 98.5,112.2 100.2,101.2 C100.7,98.1 100.7,95 100.7,91.9 L100.6,88.5 C100.6,85.7 100.6,82.8 100.7,80 C100.8,76.3 101.1,72.7 101.4,69.1 L101.6,67.2 C101.8,65 102.1,62.7 102.5,60.5 C102.2,60.6 99.5,56 98,53.4 C97.4,53 97,52.4 96.8,51.7 C96.8,51.6 96.7,51.5 96.7,51.3 C96.4,50.8 96.1,50.3 95.7,49.8 L95.6,49.8 C95.6,49.8 95.5,49.7 95.5,49.7 C94.7,49.3 94.1,48.6 93.6,47.8 C93.5,47.6 93.3,47.3 93.2,47 C92.6,46.4 91.9,45.8 91.2,45.2 C91.1,45.2 91.1,45.1 91,45.1 C90.1,44.7 89.3,44.2 88.7,43.5 C88.5,43.3 88.3,43.2 88,43.1 C87.3,43.1 86.6,42.9 85.8,42.6 C84.5,42.1 83.5,41 82.1,40.5 C80.8,40 79.3,41.2 77.8,40.9 C77.4,40.9 77,40.8 76.7,40.6 C75.9,41.5 75,42.3 74,43.1 C72.6,44.1 71.1,44.6 69.5,45.1 C68.7,45.8 67.8,46.6 66.7,46.7 C64.1,48.7 61.4,50.4 58.5,52 C58.1,52.3 57.6,52.4 57.2,52.4 C56.3,53 55.3,53.4 54.3,53.7 C53.9,53.8 53.6,53.8 53.3,53.8 L52.4,54.5 L52.4,54.5 C51.7,55 51.1,55.3 50.4,55.3 C50,55.6 49.6,55.9 49.2,56.1 C48.8,56.4 48.2,56.5 47.6,56.5 C46.7,57.4 45.6,57.5 44.6,57.1 C44.5,57.1 44.4,57.2 44.2,57.3 C44,57.4 43.8,57.5 43.6,57.5 C42.6,58.6 41.1,59.2 39.6,59 C38.5,59.7 37.3,60 36,60 C35.8,60.9 35.7,61.9 35.5,62.8 L35.5,63.5 C35.5,63.7 35.5,63.7 35.5,63.8 L35.5,63.8 C35.6,66.9 35.7,70 35.8,73.1 L35.8,73.3 C36,76 36.6,81 32.7,80.8 C31.2,80.8 29.7,79.7 28.6,78.8 L28.4,78.7 C28.3,78.6 28.2,78.6 28.1,78.5 C27.3,78.4 26.4,78.2 25.6,78.1 C24.5,78.1 23.4,78.2 22.3,78.5 C20.5,78.9 18.7,79.7 17.5,81.2 C17.4,81.4 17.3,81.5 17.2,81.7 C17.1,81.9 17,82.2 16.8,82.4 C15.6,85 16.3,88.4 17.5,90.7 C19,93.5 21.4,95.4 24.4,96.4 L24.5,96.4 C26.6,97.1 27.4,98.3 28.5,100 C29.5,101.6 30.7,103.1 32,104.5 C34.5,107.3 37.9,109.6 39.4,113.1 C39.7,113.8 38.8,114.4 38.2,114.2 C35.7,113.5 33.9,111.7 32.1,109.9 C30.8,108.7 29.6,107.4 28.4,106.1 C28.2,106.2 27.9,106.3 27.6,106.3 C26.4,106.4 25.2,106.4 24.1,105.7 C23.6,105.8 23.1,105.6 22.7,105.2 C22.4,104.9 22.1,104.6 21.8,104.2 C21.4,104.2 21.1,104.3 20.7,104.2 C20.5,104.2 20.3,104.1 20.2,104.1 C19.9,103.9 19.6,103.8 19.4,103.5 C18.9,103 18.7,102.2 18.8,101.5 C18.7,101.4 18.6,101.4 18.5,101.4 C17.8,101.2 17.3,100.7 16.9,100.1 C16.4,99.8 15.8,99.3 15.4,98.8 C14.9,98.2 14.5,97.6 14.3,96.9 C14.1,96.8 13.9,96.6 13.7,96.5 C12.2,95.5 11.3,93.6 11.9,91.8 L11.9,91.7 C11.9,91.7 12,91.5 12.1,91.4 C12.1,91.2 12,91.1 12,91 L12,90.6 L12,90.6 L11.7,90.5 L11.7,90.5 C10.2,89.9 9.2,89.1 9,87.4 C9,87.1 9.1,86.7 9.3,86.4 L9.3,86.3 L9.3,86.3 C9.2,86.3 9.1,86.2 9.1,86.1 C8.2,85.6 7.7,84.7 7.8,83.7 C7.8,82.8 8.3,82.1 8.9,81.5 L9,81.3 C9.1,81.3 9.1,81.3 9.1,81.2 L8.7,81.1 C8.5,81.1 8.3,81 8.1,80.9 C7.5,80.6 7,80.1 6.7,79.5 C6.6,79.5 6.6,79.4 6.5,79.3 C6.1,78.6 6.1,77.6 6.3,76.8 C6.4,76.7 6.4,76.6 6.5,76.5 C5.4,76.2 4.5,75.3 4.4,73.9 C4.4,73.3 4.5,72.7 4.8,72.2 C4.7,71.9 4.7,71.5 4.7,71.2 C4.3,70.8 4,70.4 3.9,69.8 C3.6,68.8 4.1,67.8 4.8,66.9 C4.6,66.2 4.5,65.4 4.8,64.7 C4.7,64.4 4.7,64 4.7,63.6 C4.6,62.8 4.9,62.1 5.3,61.4 C4.7,60.7 4.5,59.8 4.8,58.8 C5.1,58.2 5.3,57.6 5.7,57.1 C5.5,56.7 5.4,56.2 5.4,55.7 C5.4,54.7 5.7,54 6.3,53.4 C6.1,52.3 6.5,50.9 7.6,50.4 C8,50.2 8.5,50.1 9,49.9 C9.3,49.2 9.5,48.6 9.7,47.9 C10.1,46.8 10.5,45.8 10.9,44.8 C10.7,45 10.4,45.2 10.2,45.4 C9.3,46.5 8.2,47.4 7.3,47.9 C5.4,49 3.3,48.4 2.3,46.5 C1.5,47.2 0.4,47.6 -0.7,47.4 C-1.9,47.3 -3.1,46.5 -3.4,45.2 C-3.4,45 -3.5,44.8 -3.5,44.6 C-4.2,45.1 -4.9,45.6 -5.8,45.9 C-6.8,46.2 -7.9,45.4 -8,44.4 C-8.1,44 -8,43.6 -7.8,43.3 L-7.9,43.3 C-8,43.3 -8,43.3 -8,43.2 C-8.5,43 -9,42.5 -9.2,42 C-10.4,42.4 -11.7,41.9 -12.1,40.6 C-12.6,39 -12.6,37.4 -12.2,35.9 C-13.5,35 -14.3,33.5 -14.5,31.8 C-14.6,30.7 -14.3,29.6 -13.8,28.6 C-15,28.2 -15.4,26.6 -14.9,25.5 C-15.6,25 -16.1,24.1 -16.1,23.2 C-16.5,22.7 -16.6,22.1 -16.3,21.3 C-15.9,20.4 -15.2,19.5 -14.3,18.9 C-14.7,18.3 -15,17.5 -15.1,16.8 C-15.8,16.6 -16.4,16 -16.5,15.2 C-16.7,14.1 -16,13.2 -15,12.9 C-14.9,12.6 -14.8,12.3 -14.6,11.9 C-15.1,10.8 -15,9.4 -14.4,8.2 C-13.8,7.1 -13,6.4 -11.9,5.9 C-12.2,5 -11.8,4.1 -10.9,3.4 C-9.8,2.6 -8.6,1.9 -7.3,1.5 C-7.4,0 -6.8,-1.6 -5.3,-2.1 C-4.9,-2.2 -4.5,-2.3 -4.1,-2.3 C-3.8,-3 -3.3,-3.5 -2.6,-4 C-1.6,-4.7 0.3,-4.3 0.9,-3.1 L0.9,-3.1 C0.9,-3 0.9,-2.9 1,-2.9 C1.1,-3.4 1.4,-4 1.8,-4.4 C2.8,-5.5 4,-5.5 5,-5 C5.2,-5.5 5.5,-6 5.8,-6.4 C6.8,-7.9 8.6,-8.1 9.8,-7.3 C10.4,-7.8 10.9,-8.1 11.6,-8.3 Z M19.1,84.5 C21.2,83.7 23.8,83.9 25.9,84.7 L26.1,84.8 C27.9,85.5 30.9,87.2 31.3,89.2 C31.5,90.3 30.5,91.3 29.4,90.7 C28.5,90.2 28,89.2 27.3,88.5 C26.6,87.8 25.8,87.2 24.9,86.7 C23.1,85.6 21.2,85.2 19.1,84.9 C18.9,84.9 18.9,84.6 19.1,84.5 Z" id="🖍-Ink" fill="currentColor"></path></g><g id="face/Smile" transform="translate(39.9, 46.6)" fill="currentColor"><path d="M36.8,60.3 C35.1,59.6 33.6,58.5 32.5,57 C32.1,56.5 32,56 32.1,55.5 C32.2,54.9 32.5,54.4 32.9,54.1 C33.4,53.8 33.9,53.6 34.5,53.7 C35,53.8 35.4,54 35.8,54.6 L35.9,54.7 C36.5,55.5 37.4,56.3 38.3,56.7 C39.3,57.2 40.3,57.4 41.4,57.3 C43.5,57 44.9,55.9 46.4,54.4 C46.6,54.2 46.8,54 47,53.8 C47.1,53.6 47.2,53.5 47.4,53.5 C47.6,53.4 47.9,53.4 48.1,53.5 C48.3,53.5 48.5,53.7 48.6,53.9 C48.7,54 48.8,54.2 48.7,54.5 C48.6,56 47.8,57.4 46.6,58.5 C45.3,59.8 43.6,60.6 42,60.9 C40.2,61.2 38.4,61 36.8,60.3 L36.8,60.3 Z M42.8,36.1 C44.7,37.3 47.6,40 45.6,42.8 C43.2,45.3 39.7,42.5 38,41.2 C36.4,40.1 34.7,42.7 36.1,43.9 C48.4,53 53.4,36.5 43.8,34.8 C42.7,34.6 42.3,35.8 42.8,36.1 Z M20.8,25.6 C21,23 25,22.4 25.4,25 C25.7,27.3 25.3,29.4 24.3,31.4 C23.3,33.4 20.8,32.5 20.6,30.7 C20.3,28.3 20.7,27.2 20.8,25.6 Z M50.9,24.4 C51.5,23.7 52.3,23.2 53.2,23.5 C56.2,24.4 55.3,28.6 54.3,30.6 C53.7,31.8 51.9,32 51,31.1 C49.7,29.5 49,26.3 50.7,24.7 C50.8,24.6 50.8,24.5 50.9,24.4 Z M24.2,14.2 L24.7,14.1 C26.1,13.9 28,13.7 29,14.8 C29.5,15.4 29.7,16.6 29,17.2 C27.7,18.2 26.3,17.8 24.7,17.9 C23.4,18 22.2,18.2 21,18.6 C18.3,19.3 16.1,20.7 13.8,22.3 C13.5,22.5 13.2,22.1 13.3,21.8 C14.7,19.2 17.2,17.1 19.8,15.8 C21.2,15.1 22.7,14.5 24.2,14.2 Z M48.2,13.1 L48.6,13.1 C52.5,14 57.6,15.6 59.4,19.4 C59.5,20 59.4,20.1 59.4,20.2 L59.3,20.2 C59.3,20.3 59.3,20.4 59,20.4 C59,20.4 58.9,20.4 58.8,20.4 C58,20.2 57.3,19.9 56.6,19.5 L55.9,19.2 C55.1,18.8 54.3,18.4 53.4,18.1 C51.5,17.5 49.6,17.1 47.7,16.8 C47.2,16.8 46.8,16.6 46.5,16.4 C46.2,16.2 46,15.9 45.9,15.4 C45.7,14.9 45.8,14.5 46.1,14 C46.3,13.6 46.6,13.3 47,13.2 C47.3,13 47.8,13 48.2,13.1 Z" id="🖍-Ink"></path></g><g id="facial-hair/*-None" transform="translate(30.8, 84.6)"></g><g id="accessories/*-None" transform="translate(11.8, 60.3)"></g></g></g></g></g></svg>