<svg viewBox="0 0 309 617" version="1.1" xmlns="http://www.w3.org/2000/svg" xmlns:xlink="http://www.w3.org/1999/xlink"><g id="Introduction" stroke="none" stroke-width="1" fill="none" fill-rule="evenodd"><g id="variations-standing" transform="translate(-2062, -908)"><g id="a-person/standing" transform="translate(2029, 854)"><g id="pose/standing/pointing_finger-2" transform="translate(-28.7, 150.3)"><path d="M101.6,160 L99.2,159.7 C98.1,140.6 101.3,121.8 105.1,103.3 L107.4,103.4 C108.3,114.1 113.7,124.2 111.2,135.2 C108.8,143.8 103.8,151.3 101.6,160 Z M368.2,63.6 L366.9,63.9 C369.4,59 367.1,57.5 364.2,53.5 L363.9,54.2 L362.7,51.8 C362.5,51.1 362.3,50.6 361.7,50.4 C361.1,47.4 359.3,44.6 357,43.1 L356.5,43.6 C355.6,42.8 354.5,42.5 353.4,42.1 C355.7,38.6 357.2,34.1 358.7,30.4 C360,26.5 362,22.7 362.3,18.7 C362,14.9 358.4,17.4 356.7,19.3 C351.3,24 346.7,31.5 343.2,40.5 C337.3,39 333.8,40.6 332.2,48.7 C330.7,54.3 329.1,59.9 328.9,65.6 C328.1,65.4 326.7,64.3 325.9,65.1 C312.7,79.6 297.1,90.8 282,103 C270.6,94.6 264.6,78 258.4,65.5 C247.4,44.1 236.5,12.8 208.3,12.9 C204.6,12.5 200.9,12 197.4,11 C196,10.6 194.3,10.1 193.9,9.3 C193,6.6 192.9,3.8 191.4,1.3 C187.4,-5.2 178.7,-5.7 171.8,-4.3 C160.2,-2.2 160.5,-3.4 159.7,8.8 C159.4,11.7 157.2,12.1 154.8,12.7 C152.1,13.5 149.3,14.2 146.5,14.8 C146.8,14.7 147.1,14.6 147.4,14.6 C101.9,15.3 71.8,68 65.8,105.2 C58.9,143.4 67.8,185.8 82.1,217.8 C81.4,229.5 83.7,241.2 85.2,252.7 C86.1,255.6 89.2,255.9 90.1,252.5 C90.1,252.5 91.2,248.1 91.2,248.1 L92.4,252.5 C93.2,255.2 94.4,255.5 95.5,255.5 C96.8,255.5 97.6,254.9 97.6,251.4 L99.9,250.8 C100.7,252.5 101.6,253.9 102.9,254.9 C105.7,274.7 107.4,295.3 114,314.5 C116.6,321.6 120.7,328 123.6,335 C109.6,366.7 107.3,401.7 103.9,435.6 C104.2,435.6 105.6,435.8 105.9,435.8 L105.1,437.8 C104,438.3 103.4,439.2 103.1,440.2 C102.4,440.2 99.5,440.2 99.6,440.9 C100,444.9 101.1,447.7 103.2,449.8 C103.2,450.4 103.3,451.1 103.3,451.7 C99.1,466.3 96,481.9 94.2,498 C91.8,500.3 91.2,507.8 94.7,509.8 C104.5,516.5 117.7,519.7 130,518.5 C143.4,517.3 159.4,511.9 153,496.7 C152.9,496.2 152.2,496.2 151.7,496.3 C150.6,495.2 149.4,494.3 148,493.9 C145.4,487.3 143,480.3 140.9,473.4 C139.9,470.2 138.9,467 139,463.5 C139.5,454.9 140.3,451.4 146.3,444.7 C150,446.4 157,433.6 158.6,430.9 C160.8,425.6 161.9,427.2 161.8,435.6 C163.2,440.5 163.8,448.7 167.3,452.3 C169.2,465.1 156.1,470.9 164.6,485 C161.7,485.2 161.4,486.4 161.5,489.8 C161.5,492.3 161.4,494.9 161.9,497.2 C162.5,500.1 165.1,500.9 169.1,501.7 C172.3,502.4 175.4,503.2 178.5,504 C181.8,505.1 185.2,505 186.5,501.7 C202.4,507.1 248.4,506.5 263.6,499.4 C267.8,497.7 270.8,496.7 266.9,492 C264.8,478.5 226.5,493.7 221.6,478.9 C220.9,477 211.7,464.9 209.2,463.5 C210.2,462 209.1,450.2 209.2,449.8 C209.8,442.9 221.5,411.7 222.8,398 C224.2,374.6 222.9,354.9 230,331.2 C240,293.6 259.3,258.3 259.6,218.5 C259.2,212 261.1,204.9 259.4,198.5 L261.5,197.4 C261.8,197.7 262.3,197.7 262.4,197.3 C263.8,195.1 262.3,192.4 261.9,190 C262.6,189.3 262.3,188.6 261.4,188.2 C252.3,155.9 237,151.2 241.2,110.9 C248.1,125.4 263.3,140.1 280.1,138 C297,140.5 336.4,99.3 344,86 C345.4,86.1 345.4,85.1 345.6,84.2 C352.6,85 359.1,79.6 359.2,72.9 C365.3,76.7 371.9,71.3 368.6,64.7 C368.5,64.3 368.4,64 368.2,63.6 Z" id="🎨-Background" fill="#FFFFFF"></path><path d="M191.8,-0.4 C191.9,-0.5 192.1,-0.5 192.1,-0.4 C192.3,2.3 192.9,5.2 193.9,7.8 C194.3,7.9 194.6,8.1 194.8,8.5 C195.2,9 196.8,9.4 197.6,9.6 L197.7,9.7 C201.2,10.7 204.8,11.1 208.3,11.5 C225.1,12.5 231.3,17.7 240.7,31 C252,46 258.3,63.8 266.8,80.3 C268.9,84.3 271.1,88.2 273.6,92 L274,92.6 C276.1,95.9 278.6,99.2 281.9,101.4 C290.1,94.6 298.8,88.5 306.9,81.5 L307.6,80.9 C313.7,75.6 319.5,70.1 325,64.2 C325.7,63.5 326.9,63.4 327.8,63.8 C328.2,58.5 329.6,53.4 331,48.3 C332.4,41.8 334.9,37.4 342.4,39 L342.6,38.5 C345.6,31.1 349.6,23.9 355.6,18.4 L356,18.1 C357.3,16.9 359.1,15.2 360.9,15.3 C362.6,15.5 363.4,17 363.5,18.5 C363.6,20.3 362.8,22.2 362.2,23.9 L362.1,24 C361.4,26.3 360.6,28.5 359.8,30.7 C359,32.8 358.1,34.9 357.2,37 C356.3,38.7 355.6,41.6 354,42.6 C353.1,43.1 352.2,42.5 352.1,41.6 C352,40.4 352.7,39.4 353.1,38.4 C353.6,37.5 354,36.5 354.5,35.6 C356.2,31.9 357.8,28 359.1,24.1 L359.1,24 C359.6,22.6 361.1,19.3 360.5,18.2 C360,18.2 358.8,19.4 358.4,19.7 C352,25 347.8,32.4 343,39.1 C346,40 349.3,40.4 351.8,42.4 C356.9,46.9 352.8,55.7 345.9,54.1 C347.8,58.2 349.5,64.8 346.1,68.4 C345,69.4 343,69.1 342.7,67.6 C342.4,65.9 342.8,64.6 343.2,63 C343.8,59.8 344.2,56.5 343.8,53.3 L343.6,53.2 C342.5,52.5 341.7,51.7 341.8,50.2 C341.6,49.1 342.7,47.7 343.9,48.6 C344.2,48.9 344.7,48.9 345.1,49.2 C345.7,49.8 346.6,50.3 347.5,50.3 L347.6,50.3 C348.8,50.3 349.7,49.5 350,48.4 C351,45.4 347.6,44.3 345.3,43.7 L344.7,43.6 C338.6,41.7 336.3,41.6 334.8,48.9 L334.6,49.5 C333,54.7 331.5,60 328.8,64.8 L329.2,65.8 C332.1,72.5 335.6,80.2 343.2,82.3 C343.5,80 346,79.9 347.7,80 C350,79.8 352.3,78.7 353.9,77 C355.3,75.6 356.1,73.6 357.6,72.3 C356.9,70.7 358.5,69 360.2,69.9 C361.3,70.5 362,71.4 363.3,71.6 C364.5,71.7 365.7,71.3 366.6,70.5 C369,68.5 367.8,65.6 368.4,62.9 C367.6,64.3 366.4,65.3 365,66 C355.9,71.2 356,61 361,62.7 C366.5,61.4 366.4,59.4 364.3,54.8 L364.3,54.6 C363.9,53.6 363.2,51.9 363.9,50.9 C364,50.9 364,50.8 364.1,50.9 C364.7,51.5 364.9,52.5 365.5,53.3 L366,53.9 C367.9,56.2 370.1,59 368.8,62.2 C368.9,62.1 369.1,62.2 369.1,62.3 C369.7,64.5 370.9,66.6 370.6,68.9 C370.1,73.9 364.7,76.6 360.2,74.6 C359.3,81 352.9,85.6 346.5,85.4 C346.3,86.2 345.7,87 344.7,87.1 C335.3,102.1 298.4,140.8 280.3,139.2 C278.5,140 276.3,139.6 274.5,139.3 C260.4,137.5 248.7,127.2 242.1,115.1 C239.7,154.9 253.3,154.5 262.4,187.5 C263.3,188.1 263.9,189.3 263.2,190.4 C263.6,192.4 264.4,194.4 264.1,196.5 C263.9,197 263.6,197.6 263.3,198.1 C262.7,199.2 261.2,199.1 260.5,198.2 C261.7,202.6 261.2,207.1 260.9,211.5 C260.7,214.1 260.7,216.7 260.7,219.2 C260.4,258.7 241.1,294.3 231.2,331.8 C228.3,342.3 226.2,352.9 225.3,363.8 C224.4,375.3 225.1,386.9 224,398.4 C222.7,412.1 219,425.3 214.7,438.2 C215,439 214.7,439.9 214,440.4 C213.7,441.1 213.5,441.8 213.3,442.5 C213.6,444.3 213.7,446.2 213.7,448.1 C213.6,450.8 212.7,453.6 213.1,456.3 C213.4,457.5 214.3,458.6 213.7,459.9 L214,460.1 C215.7,461.2 217.2,462.3 218.3,463.9 C218.5,464.3 218.7,465 219,465.3 C219.3,465.5 219.8,465.6 220.1,465.7 C221.9,466.2 223,467.8 222.8,469.6 C226.9,470.8 225.5,474.9 229.7,477.8 C234,480.9 239.9,481.3 245,482.1 L253.7,483.5 L253.7,483.5 L254.2,483.6 C260,484.3 267.4,485.6 268.1,492.5 C269.2,493.3 269.5,494.8 269.8,496 C270.1,496.9 270.1,497.9 269.4,498.6 C268.5,499.5 267.1,499.9 266,500.4 C264.6,500.9 263.4,501.9 261.9,502.1 C260,502.9 258,503.3 256.4,503.6 C238.1,507 219.3,507.8 200.8,506 C197.7,505.8 194.7,505.4 191.7,505 L191.3,504.9 C189.8,504.7 188.3,504.4 186.9,503.8 C185,507 181.3,506.6 178.2,505.6 C175.8,505 173.4,504.5 170.9,503.9 C167.2,502.8 161.6,502.6 160.7,498 C160.2,495.6 160.3,493 160.3,490.6 L160.3,489.9 C160.3,487.8 160.4,485.1 162.7,484.6 C159.5,478.7 160.2,471.5 163.2,465.7 L163.3,465.4 C165.5,461.4 166.9,458.1 166.2,453.4 C164.7,452 164,450 163.5,448.1 C162,442.7 160.7,437.2 159.8,431.6 C157.5,435.8 154.8,439.8 151.8,443.5 C150.6,445.2 149.6,445.7 147.6,446.4 C147.3,446.5 147,446.5 146.7,446.5 C144.9,448.9 142.7,450.8 141.8,453.8 C140.7,457 140.3,460.6 140.1,464 C140,468.4 141.9,472.5 143,476.7 C144.8,482.5 146.8,488.2 149.1,493.8 C150.5,494.2 152.8,494 153.3,495.8 C153.6,496 153.9,496.3 154.1,496.8 L154.2,497.2 C155.3,500.8 156.2,504.9 154.8,508.4 C150.9,517 138.6,519.2 130.1,520.2 C117.6,521.4 104.5,518.4 94,511.3 C92.6,510.3 91.6,509.1 91.3,507.3 L91.3,506.9 C91,503.9 90.9,500.3 93,498 C94.8,482.5 97.8,467 102.1,452 C102,451.5 102,451.1 102,450.7 C99.6,448.2 98.7,444.7 98.4,441.3 C98.4,439.4 101,439.5 102.4,439.2 C105.9,404.1 108,368 122.3,335.3 C119.5,328.7 115.6,322.4 113,315.6 L112.8,315.1 C111.8,312.4 111.1,309.5 110.3,306.7 C109.7,305.3 109.3,303.9 109.1,302.5 C105.7,287.1 103.8,271.4 101.8,255.7 C100.4,254.6 99.6,253 98.8,251.5 L98.8,251.9 C98.7,254.3 98.3,257 95.3,256.9 C92.9,256.8 91.8,255 91.3,253 C90.2,257.2 85.4,257.4 84,253.3 C83.4,251.6 83.4,249.7 83.3,247.9 C82.3,238.2 80.2,228.5 80.8,218.8 C80.2,218.6 79.6,218.1 79.3,217.3 C67.5,181.3 56.9,142.9 64.6,105 C72.3,67.8 93.2,26.2 132.6,15.7 C140.6,13.7 148.7,13 156.9,12.4 C158.1,10.2 158.9,7.6 159,5 C159.1,4.2 159,3.5 159,2.7 C159,2.1 159.3,1.2 159.2,0.6 C159.2,0.4 159.4,0.4 159.4,0.5 C159.6,1 160,1.2 160.2,1.6 C160.8,2.7 161,3.9 161.1,5.2 C161.7,9.9 160.3,14.8 157.4,18.6 L157.2,18.8 C156.3,20 154.7,21.9 153.1,20.9 C151.5,20 152.6,18.1 153.5,17.1 C154.8,15.9 155.8,14.5 156.6,13 C152.9,14 149.2,15.1 145.5,16.1 L145.3,16.3 C142.4,17.8 138.2,19.5 138.6,23.4 C146.2,46.6 180.3,52.5 201.3,47 C205.4,45.9 209.6,44.1 212.4,40.8 L212.5,40.6 C217.4,34.9 217,25.4 210.9,20.7 C207.3,17.7 202.3,16.1 197.8,15.1 C199.1,17.3 202,18.8 202.6,21.4 C202.7,22.3 202.2,23.1 201.2,23.1 C198.7,23.2 196.9,20.5 195.6,18.8 C192.9,15.1 191.4,10.6 191,6 C190.9,3.7 191.3,1.7 191.8,-0.4 Z M151.6,501.2 C151.7,502.6 151,504.2 149.3,504.1 C148.1,505.7 146.3,506.8 144.6,507.8 C133.4,513.9 119.3,514.2 107.5,509.8 C104.3,508.6 101.2,507 98.4,505.1 L98.1,505 C96.7,504 95,503 94,501.7 L94,502.8 C94.1,504.4 94.2,505.9 94.7,507.3 C95,508 95.6,508.3 96.2,508.7 C97.5,509.5 98.8,510.3 100.2,511 C114.5,518.2 132.8,519.4 147.2,511.8 C151.3,509.4 153,505.8 151.6,501.2 Z M165,485.9 C165,486.1 164.8,486.2 164.6,486.2 C163.2,485.7 164,488.9 164.1,489.4 C164.4,491 164.6,492.7 164.8,494.3 L164.8,494.7 C164.8,498 165.1,498 168.5,498.6 C171.2,499.3 174,500.2 176.7,500.9 L177.8,501.2 C179,501.6 184.4,503.4 184.3,501.2 L184.3,501.1 C184.2,499.6 186.1,499 187.1,499.9 L187.2,499.9 C189.1,501.7 191.8,501.9 194.3,502.2 L194.4,502.2 C197.6,502.6 200.8,503 203.9,503.2 C220.7,504.6 237.7,503.8 254.3,500.9 L255.4,500.7 C256.9,500.4 258.9,500 260.6,499.2 C261.2,499.1 264.5,497.6 264.4,496.9 C264.4,496.8 264.5,496.7 264.5,496.6 C265.2,495.9 265.1,494.4 264.3,493.9 C262.9,494.3 261.5,494.6 260.1,495 L260.1,495 L260.1,495 C258.7,496 256.8,496 255.1,496.4 C253.3,496.7 251.4,497.1 249.6,497.3 C239.1,499 228.5,500.2 217.8,500.7 C199,502.3 180.5,496.3 165,485.9 Z M103.7,192.9 C104.8,195.7 104,199.3 103.2,202.1 C104.4,202.9 105.3,204.1 106.4,205 C110.2,208.1 114.1,211.1 117.9,214.1 L118,214.2 C119.2,215.1 120.4,216 120.8,217.4 C121.9,222.1 115.7,223.3 112.2,223 C111.6,223 109.8,222.6 109.3,223 C109.1,223.3 109.2,224.4 109.2,224.8 C108.9,228.5 108.7,232.2 108.5,235.9 L108.4,237.3 C108.1,240.1 108.1,243.2 107,245.9 C106.8,247.5 106.1,249.1 105.9,250.7 C105.8,252.2 105.5,253.7 104.5,254.8 L105.4,261.7 C107,274.6 108.8,287.6 111.5,300.4 C112.1,303.2 113,306 113.7,308.8 C116,317 120.2,324.3 123.9,331.9 L124.1,332.2 C125.3,334.8 126.2,337.2 125.9,340.2 C125.8,342 122.9,342 123.1,340.2 C123.2,339 123,337.8 122.8,336.8 C116.9,360.4 112.6,384.5 110.3,408.8 C109.4,418.8 108.8,428.8 107.6,438.8 C110.7,438.8 113.7,439.1 116.7,439.6 C121.7,438.1 127.8,438.6 132.4,441.2 C135.2,441.5 138,441.9 140.8,442.4 L141.4,442.5 C142.7,442.7 144.6,442.8 145.6,443.7 C146,441.8 147.4,440.5 148.6,439.1 C149.7,437.8 150.7,436.4 151.7,435 C154.4,431.2 156.6,427 158.5,422.7 C158.5,422.1 158.8,421.5 159.2,421.2 C166.9,403.6 171.6,384.9 175.9,366.2 C185.6,324.2 193.9,281.9 198.9,239.1 C198.9,238.9 199.2,238.9 199.2,239.1 C200.2,270.8 194.7,302.2 188.1,333.1 C181.3,363.6 176,394.8 163.6,423.7 C164.5,429.6 165.6,435.4 167,441.2 C180.9,437.5 195.4,436 209.9,436.6 C216.1,418.9 220,400.4 219.7,381.6 C219,348.9 229.4,317.6 240.6,287.3 C248.3,263.9 257.7,240.4 258.8,215.6 C259.2,209.8 261,204 259.8,198.2 C257.7,200.8 254.7,202.6 251.7,204 C246.7,206.3 241.4,207.7 236.1,208.9 C208.9,215.8 180.3,215.8 153.1,209.2 L151.1,208.8 C134.8,205 118.4,200.8 103.7,192.9 Z M101.9,205.5 C98.3,212 91,215.9 83.9,217.4 C83.7,218.2 82.9,218.7 82,218.9 C83.3,229.6 85.5,240.1 86.7,250.9 L86.8,251.3 C86.9,251.9 87,252.7 87.6,253.1 C88.3,252.8 88.3,251.7 88.4,251 C88.6,247.3 89,243.6 89.3,239.9 C89.4,238.3 92.1,237.7 92.3,239.5 L93.5,247.6 L93.5,247.6 L93.5,247.7 C93.8,249 93.9,253.6 95.2,253.8 L95.2,253.8 C96,253.9 95.7,252.3 95.7,251.7 L95.8,247.5 L95.9,242.1 C95.9,241.2 95.9,240.3 95.9,239.3 C96,237.4 98.8,237.4 99,239.3 L99,240.2 C99.4,243.8 100,247.7 101.8,250.9 C102.1,250.7 102.6,250.6 103,250.7 C103.2,248.3 103.7,246 104.6,243.9 C104.3,241.5 104.6,239 104.7,236.8 L104.7,236.6 C104.9,233.7 105,230.8 105.2,227.9 L105.3,226.2 C105.5,223.7 105.2,220.5 108.1,219.4 C110.9,218.5 114,220 116.7,218.5 C113.6,215.7 110.4,213.2 107.2,210.5 C106.1,209.5 104.9,208.6 103.8,207.6 C103.1,207 102.6,206.2 101.9,205.5 Z M106.2,103.5 L105.3,108.4 C103.7,116.5 102.2,124.7 101.2,133 C100.2,141.9 100,150.8 100.4,159.7 C102.6,151.1 107.7,143.5 110,134.9 C112.5,124.3 107,114 106.2,103.5 Z M355.9,41.4 C355.8,41.4 355.8,41.1 356,41.2 C362.7,44 365.5,53.9 360.4,59.4 C358.7,61.2 356.2,62.3 353.9,61.3 C351.1,60.8 349.5,58.1 349.1,55.5 L349.1,55.4 C349.1,55.2 349.2,55.2 349.3,55.3 L349.3,55.3 C350.4,56.6 352,57.5 353.6,58.1 C354,57.9 354.5,57.7 354.9,57.6 C355.6,57.5 356.3,58 356.2,58.7 C359.4,58.1 360.7,54.3 360.8,51.5 L360.8,51.4 C360.9,47.4 359.1,43.8 355.9,41.4 Z" id="🖍-Ink" fill="currentColor"></path></g><g id="Head" stroke-width="1" transform="translate(95.9, 42.7)"><g id="head/Medium-Bangs-2"><path d="M96.9,34.2 C96.3,32.9 95.4,31.2 93.8,31.2 C92.6,27.5 89.6,23.7 85.5,23.8 C73.2,11.4 57.8,11.9 41.7,14.6 C33.2,16.2 24.6,19.2 18.2,25.3 C10.6,32.5 7.7,45 13.6,54 C8.5,56.8 8.4,63.3 10.6,68 C7.9,69.8 7.8,74.2 10.8,75.6 C10.6,76.3 10.7,77 11,77.5 C9.5,78.8 7.6,79.7 6,80.4 C5.3,80.8 4.9,81.3 4.8,82 C-0.5,85.4 -13.5,93.7 -13.3,100.4 C-13.4,103.8 -10.8,106.1 -7.7,107 C-9.5,110.7 -10.9,115.1 -9.2,119.1 C-8.7,120.3 -5,123.8 -4.8,123.9 C-4.5,124.2 0.8,121.7 3.4,120.5 C3.9,123.7 7.4,125.4 10.3,124.3 C13.2,123.5 14.9,121.1 16.7,118.9 C19.1,124.1 26.1,124.1 30.6,121.9 C34.6,120 37.7,116.6 39.4,112.5 C48.6,116.9 59.2,118.2 69.1,116.5 C69.8,117.6 71.2,118.3 72.4,117.9 C77.7,116.3 83.5,116.2 88,112.6 C97.3,105.9 98.1,93.7 97.4,83.2 C96.8,72.7 97.3,62.2 95.4,51.9 C96.3,48.8 97.6,46.2 98.9,43.3 C100.3,40.3 100.3,35.8 96.9,34.2 Z" id="🎨-Background" fill="#FFFFFF"></path><path d="M10.4,78.6 C10.9,78.4 11.2,79.2 10.7,79.5 C7.8,81.3 4.7,83 1.9,85.1 C-0.8,87 -3.4,89.2 -5.7,91.6 L-6,91.8 C-8.1,94 -10.4,96.8 -10.4,100 C-10.4,102.5 -8.5,105.2 -5.8,104.9 C-4.8,104.7 -3.9,106 -4.3,106.9 L-4.6,107.9 C-6.1,111.8 -7.6,116.3 -6.5,120.4 L-6.4,120.6 C-6.1,121.5 -5.8,122.4 -4.7,122.4 C-3.7,122.3 -2.6,122 -1.7,121.7 C0.3,121 2.1,119.8 3.6,118.4 C5,117.2 6.7,118.4 6.5,120 L6.5,120.1 C6.3,121.9 9.2,122.7 10.5,122.5 C13.1,122 14.9,119.4 16.4,117.4 C17.1,116.5 18.8,116.1 19.4,117.4 C20.6,120 23.2,122 26.1,122.1 C27.7,122.1 29.2,121.7 30.5,120.9 C31,120.5 31.5,120.1 31.9,119.7 L32,119.6 C32.7,118.9 33.1,118.5 33.9,118.1 C34.7,117.6 35.8,118.2 35.8,119.1 C35.8,120.4 35.4,121.2 34.6,122.1 C33.9,122.9 33,123.5 32.1,124 C30.3,125.1 28.2,125.7 26.1,125.6 C22.9,125.5 19.7,123.9 17.7,121.4 C15.7,123.8 13.1,126.1 9.8,126 C7.3,126 4.9,124.7 3.8,122.7 C2.3,123.8 0.5,124.6 -1.3,125.2 L-1.5,125.2 C-4.1,126 -7.1,126.3 -8.8,123.7 C-10.4,121.2 -10.5,117.9 -10.1,115.1 C-9.8,112.6 -9,110.3 -8.2,107.9 C-10.7,107.2 -12.6,104.8 -13.3,102.3 C-14.3,98.5 -12.3,94.8 -9.9,91.9 C-7.3,88.9 -4,86.3 -0.6,84 C2.7,81.7 6.4,79.6 10.4,78.6 Z M95.8,48.7 C95.8,48.6 96,48.5 96,48.6 C97.2,57 97.8,65.3 98.4,73.6 C98.7,77.9 99,82.1 99.3,86.3 C99.7,90.4 100.2,94.6 100.1,98.7 C99.9,105 96.8,110.2 91.7,114 C86.8,117.5 80.7,119.3 74.8,120.1 C71.4,120.5 67.9,120.5 64.4,120.1 C62.6,119.9 60.8,119.6 59.1,119.2 L58.3,119 C56.9,118.7 55.4,118.2 55.2,116.5 C55.1,115.7 55.5,115.2 56.2,114.8 C57.1,114.2 58.1,114.5 59,114.8 C60.5,115.2 62.1,115.5 63.7,115.8 C67.1,116.3 70.5,116.3 73.9,115.9 C79.7,115.4 85.7,113.5 90.1,109.7 C92,108 93.7,106 94.6,103.6 C95.7,100.5 95.5,97.1 95.5,93.9 C95.4,86.3 95.5,78.8 95.4,71.3 C95.3,63.7 95.4,56.2 95.8,48.7 Z M38.3,13.5 C45,11.7 51.7,11.3 58.6,11.8 C65.1,12.3 72.5,13.8 77.8,17.7 C78,17.9 77.9,18.3 77.5,18.2 C74,17.7 70.6,16.6 67,16 C63.7,15.3 60.2,14.8 56.8,14.7 C45.1,14.3 32.1,17 22.7,24.2 C18.3,27.6 14.9,32.2 13.6,37.7 C12.2,43.2 13,49.3 15.7,54.3 C16.1,55.1 15.9,56.2 15.1,56.6 C12.6,57.8 10.8,60.4 10.8,63.2 C10.9,64.5 11.3,65.9 12.1,67 C12.9,68.2 14.1,69 15,70.1 C15.4,70.6 15.4,71.2 15.1,71.6 C15.6,71.8 16.2,71.9 16.7,72.2 C17.1,72.4 17.1,73.1 16.7,73.4 C15.6,73.9 14.3,73.3 13.6,72.4 C13.4,72.2 13.3,72.1 13.2,71.9 C12.3,71.7 11.5,71.2 10.7,70.6 C9.4,71.4 9.2,73.2 10.4,74.6 C11,75.3 11.8,75.8 12.7,76.1 L12.8,76.1 C13.6,76.4 14.4,76.6 14.9,77.3 C15.3,76.5 15.7,75.8 16.2,75.2 C17.8,72.8 20.4,70.8 23.5,71 C25.8,71.2 27.9,72.9 28.4,75.3 C28.4,75.5 28.2,75.6 28.1,75.4 C27,72.8 23.3,72.7 21.2,74.1 C18.6,75.7 17.2,78.8 16.7,81.6 C16.1,84.5 16.5,87.9 18.6,90 C19.4,90.9 20.6,91.5 21.8,91.7 C22.5,91.8 23,91.7 23.6,91.6 L23.9,91.5 C24.2,91.4 24.5,91.4 24.7,91.4 L25.2,91.5 L25.2,91.5 L25.4,91.6 C25.6,91.7 25.6,91.7 25.3,91.5 C26,91.5 26.4,92 26.4,92.5 C26.5,92.6 26.5,92.6 26.5,92.6 C29.2,95.9 31.1,99.6 34,102.7 L34.8,103.7 C36.9,106 39.4,108.6 42.3,109.8 L42.6,110 C43.4,110.3 44.3,110.8 44.4,111.8 C44.5,112.7 43.8,113.4 43,113.6 C41.1,114.1 38.9,112.4 37.5,111.3 C34.6,109 32.1,106 30,102.8 L29.8,102.5 C28.2,99.9 26.6,96.9 26.1,93.8 L26,93.9 C26,93.9 26,93.9 26,93.9 C25.9,94.1 25.8,94.2 25.6,94.3 C25.3,94.6 24.9,94.8 24.4,94.9 C23.6,95.1 22.7,95.1 21.8,95 C20.1,94.9 18.5,94.2 17.2,93.2 C13,89.9 12.5,83.9 14.2,79 C12.8,79.3 11.3,78.4 10.2,77.6 C9,76.7 8,75.4 7.7,73.9 C7.5,72.4 8.5,70.3 9.9,69.7 C8.4,68 7.5,65.4 7.4,63.4 C7.3,59.8 9.2,56.4 12.1,54.5 C9.4,48.7 8.8,41.9 10.7,35.7 C14.3,23.4 26.5,16.5 38.3,13.5 Z M27.9,107 L27.9,106.9 C28.2,105.9 28.6,104 30,104.8 C31.4,105.5 30.5,107.5 30,108.5 C29.4,109.7 28.5,110.6 27.1,110.9 C26.1,111.1 24.9,110.8 24.1,110 C23.9,109.7 23.8,109.5 23.7,109.2 C23.6,109.1 23.6,109 23.6,108.9 C23.6,109 23.5,109.1 23.4,109.2 C22.8,109.8 22.3,110.6 21.8,111.4 C21.7,111.6 21.4,111.4 21.5,111.2 C22,110 21.9,108.1 23,107.2 C24,106.4 25,107 25.5,107.9 L25.5,108 C26.3,109.4 27.5,108 27.9,107 Z M17,102.5 L17.1,102.4 C18.2,100.9 20,99.2 21.8,100.5 C22.4,101 22.4,101.7 21.8,102.1 L21.6,102.3 C20.8,102.8 20,103.3 19.4,104.1 C18.8,105 18.2,105.9 17.4,106.6 C15.9,107.8 13.5,108 12.2,106.4 L12.1,106.3 C12,106.1 11.8,106 11.7,105.8 L11.7,105.9 C11.7,105.9 11.6,105.9 11.6,105.9 L11.6,106 C11.1,106.8 10.4,107.5 9.6,108.1 C8,109.1 6.2,109.2 4.4,108.7 C4.2,108.6 4.3,108.4 4.4,108.4 C6.6,108.2 8.7,106.7 9.5,104.7 L9.6,104.5 C10,103.7 10.4,103 11.2,102.7 C12.1,102.4 13,102.7 13.5,103.4 C14,103.9 14.1,104.9 15,104.7 C16,104.5 16.5,103.3 17,102.5 Z M10.9,89.6 C11.4,89.2 12.1,89.6 12.3,90.1 C12.9,92.5 10.4,95.3 8.1,95.3 C7.5,95.4 6.9,95.2 6.3,94.9 C5.9,94.7 5.4,94.2 5,94.1 C4.4,93.9 3.9,94.7 3.4,95.1 C2.9,95.6 2.4,96.1 1.8,96.5 C1.6,96.7 1.3,96.4 1.4,96.1 L1.6,95.6 C2.3,93.8 3.5,91.1 5.7,91.8 C6.9,92.2 7.7,93.5 8.9,92.5 C9.8,91.7 9.9,90.4 10.9,89.6 Z M21,80.2 C23.1,77.7 28.1,79 29,82 C29.2,82.6 29,83.5 28.5,83.9 C27.8,84.5 26.9,84.7 26,84.2 C25.3,83.8 25.1,83.2 24.5,82.6 C23.8,81.7 22.7,81.3 21.7,80.9 C21.4,81.1 21.2,81.3 21,81.5 C20.8,81.6 20.6,81.4 20.7,81.3 C20.9,81.1 21,80.9 21.2,80.8 L21.1,80.8 L21.1,80.8 C20.8,80.7 20.8,80.4 21,80.2 Z M34.8,53.3 C35.2,53.3 35.8,53.8 35.7,54.3 L35.7,54.4 C35.6,55.4 35.2,56 34.3,56.4 C33.4,56.8 32.5,57 31.6,57.1 C31.3,57.2 30.9,57.2 30.5,57.1 L30.4,57.6 C30.3,58.5 30.1,59.4 30.1,60.3 C30,62.1 30.7,63.5 31.4,65 C32.7,68 32.9,70.9 31.4,73.8 C31.2,74.3 30.6,74.6 30.1,74.6 C29.5,74.5 29.2,74.3 28.8,73.8 C28.5,73.4 28.6,72.8 28.8,72.4 L28.8,72.3 C29.6,70.9 29.8,69.3 29.4,67.8 C29.1,66.4 28.3,65.1 27.9,63.6 C27.4,61.3 28,58.9 29.2,56.9 C28.3,56.6 27.4,56.2 26.9,55.5 L26.9,55.5 L26.9,55.5 C26.7,55.2 26.8,54.8 27.1,54.8 L27.6,54.8 C28.8,54.9 29.9,55 31.1,54.7 C31.7,54.5 32.3,54.2 32.8,53.9 L32.9,53.8 C33.6,53.4 34,53.3 34.8,53.3 Z M37.6,35.9 C40.7,35.8 43.2,37.7 44.5,40.4 C45.9,43.3 45.3,46.6 44.1,49.4 L43.7,50.2 C43.1,51.6 42.4,53.2 41.1,53.9 C39.8,54.8 38.6,53.8 39,52.3 C39.2,51.4 39.9,50.7 40.4,49.9 C40.9,49.2 41.4,48.5 41.8,47.7 C42.6,46.3 43.1,44.6 43.1,42.9 C43.1,39.8 41.1,36.3 37.6,36.3 C37.4,36.3 37.4,35.9 37.6,35.9 Z M52.9,30.9 C52.7,30.8 52.9,30.5 53.1,30.6 C56.6,32.8 59.2,37 59.8,41.1 C60.1,43.4 59.8,45.8 58.9,47.9 C58.3,49.1 57.3,50.3 56,50.6 C54.8,50.9 53.5,50.2 53.1,49 C53,48.5 53.2,48.1 53.6,47.8 C54.9,47 55.9,45.9 56.5,44.5 C57.1,43.1 57.3,41.6 57.3,40 C57.3,36.3 55.9,33.2 52.9,30.9 Z M95.7,32.5 C95.6,32.3 95.8,32.1 96,32.2 C98.5,33.5 100.1,36.1 100.6,38.8 C101,41.6 100.4,45.3 98.3,47.3 C97.1,48.4 95,46.9 96,45.5 C96.7,44.5 97.4,43.6 97.8,42.4 C98.2,41.4 98.3,40.3 98.3,39.2 C98.3,36.7 97.4,34.3 95.7,32.5 Z M64.8,29.1 C69.1,28.9 71.7,33.8 72.3,37.5 C72.7,39.8 72.4,42.1 71.1,44.1 L71.1,44.2 C70,45.8 68.1,47.6 66.1,46.8 C65.3,46.5 65,45.6 65.6,44.9 C66.5,43.8 67.9,43.4 68.7,42.3 C69.6,41 69.9,39.4 69.9,37.8 L69.9,37.7 C69.7,34.8 68.4,29.3 64.8,29.4 C64.6,29.4 64.6,29.1 64.8,29.1 Z M78.3,28.3 C82.5,27.7 85,32.7 85.8,36 C86.3,38.2 86.4,40.5 85.8,42.6 L85.7,42.8 C85.2,44.3 83.7,47 81.7,46.2 C81.2,46 80.7,45.4 80.9,44.8 C81.2,43.9 81.7,43.7 82.4,43.2 C82.8,42.8 83.2,42.2 83.4,41.6 C84.1,40.1 84.3,38.3 84.2,36.7 L84.2,36.5 C83.9,33.3 82.2,28.5 78.3,28.5 C78.1,28.5 78.1,28.3 78.3,28.3 Z M86,23.7 C88.3,22.8 90.2,25 91.5,26.6 C93.2,28.6 94.7,30.7 95.6,33.2 C96.4,35.4 96.5,37.8 95.8,40.1 C95.5,41.2 94.9,42.2 94.2,43.1 L94.1,43.2 C93.4,44.2 92.6,44.7 91.4,44.4 C90.9,44.3 90.7,43.8 90.8,43.3 C90.9,42.3 91.5,42 92.1,41.3 C92.7,40.7 93.2,39.9 93.5,39.1 C94.1,37.4 94.1,35.6 93.7,33.9 C93.3,32 92.4,30.2 91.3,28.5 L91.1,28.2 C90,26.4 88.4,23.7 86,24 C85.8,24 85.8,23.7 86,23.7 Z" id="🖍-Ink" fill="currentColor"></path></g><g id="face/Smile-Teeth-Gap" transform="translate(37.8, 44.1)" fill="currentColor"><path d="M40.6,34.2 C42.4,35.3 45.1,37.8 43.2,40.5 C40.9,42.9 37.6,40.2 36,39 C34.5,38 32.8,40.5 34.2,41.6 C45.9,50.2 50.6,34.5 41.5,32.9 C40.5,32.8 40.1,33.9 40.6,34.2 Z M24.4,13.5 L24.8,13.4 L25,13.4 C26.4,13.1 28,13 28.9,14 C29.4,14.6 29.6,15.7 28.9,16.3 C27.7,17.3 26.3,16.9 24.8,17 C23.6,17 22.5,17.2 21.3,17.6 C18.7,18.3 16.7,19.6 14.5,21.1 C14.2,21.3 13.9,20.9 14,20.6 C15.3,18.2 17.7,16.2 20.2,14.9 C21.5,14.3 22.9,13.7 24.4,13.5 Z M36.2,47.5 C40.1,47.7 48.5,45.9 52,48.7 C65.3,65.2 12.8,69.4 18.5,51.2 C22.1,45.3 30.4,47.6 36.2,47.5 Z M35.5,57.4 C34.5,57.3 33.4,58.1 33.1,58.7 C32.8,59.3 32.9,60.5 32.9,60.7 C34.6,60.9 36.3,60.9 38,60.8 C37.6,59.4 37.5,57.6 35.5,57.4 Z M43.3,59.9 C43,58.1 41.7,57.6 40.7,57.9 C39.6,58.2 39,59.4 39.1,60.5 C39.1,60.6 39,60.6 39,60.7 C40.4,60.5 41.9,60.2 43.3,59.9 Z M31.3,57.7 C30.7,56.8 29.3,56.4 28.3,56.5 C26.8,56.9 26.6,58.8 26.6,59.2 C28,59.7 29.5,60.1 30.9,60.4 C31.2,60.4 31.5,60.5 31.8,60.5 L31.8,60.3 C31.9,59.8 31.9,58.6 31.3,57.7 Z M48.5,57.6 C47,55.2 43.6,56.9 43.9,59.5 C44.2,59.4 44.5,59.4 44.8,59.2 C46,58.8 47.4,58.3 48.5,57.6 Z M36.3,49.3 C34.2,49.1 32.4,49.2 31.1,49.4 L31,49.9 C30.9,51.5 30.7,53 31.5,53.7 C32.2,54.2 34.4,54.1 35.9,53.8 C36.3,53.7 36.8,50.4 36.3,49.3 Z M39.5,49.1 C39.2,50.7 39,52.6 39.7,53.1 C40.4,53.7 42.7,53.6 43.3,53.2 C43.8,52.9 43.8,51.3 43.6,49.5 C42.4,49.2 40.4,49.1 39.5,49.1 Z M30.1,49.4 L29.5,49.5 L29.1,49.5 C28.1,49.5 27,49.5 26,49.7 C24,54 31.3,54.8 30.2,49.6 L30.1,49.4 Z M44.5,49.5 L44.5,49.8 C44.5,51 44.5,52.6 45.2,53 C46.2,53.6 48,53.5 49,50.6 C48.7,49.7 45.2,49.6 44.5,49.5 Z M25.2,23.9 C25.6,23.9 26.1,24.1 26.4,24.3 C26.8,24.6 27.1,25 27.4,25.5 C27.9,26.4 28.2,27.6 28.2,29 C28.2,30.3 27.9,31.6 27.4,32.4 C27.1,32.9 26.8,33.3 26.4,33.6 C26.1,33.8 25.6,34 25.2,34 C24.8,34 24.4,33.8 24,33.6 C23.7,33.3 23.3,32.9 23.1,32.4 C22.6,31.6 22.2,30.3 22.2,29 C22.2,27.6 22.6,26.4 23.1,25.5 C23.3,25 23.7,24.6 24,24.3 C24.4,24.1 24.8,23.9 25.2,23.9 Z M51.9,23.9 C52.3,23.9 52.7,24.1 53.1,24.3 C53.4,24.6 53.8,25 54,25.5 C54.5,26.4 54.9,27.6 54.9,29 C54.9,30.3 54.5,31.6 54,32.4 C53.8,32.9 53.4,33.3 53.1,33.6 C52.7,33.8 52.3,34 51.9,34 C51.5,34 51.1,33.8 50.7,33.6 C50.3,33.3 50,32.9 49.7,32.4 C49.2,31.6 48.9,30.3 48.9,29 C48.9,27.6 49.2,26.4 49.7,25.5 C50,25 50.3,24.6 50.7,24.3 C51.1,24.1 51.5,23.9 51.9,23.9 Z M48.3,12.4 L48.6,12.4 L48.8,12.5 C52.5,13.3 57.2,14.8 58.9,18.4 C59,18.9 58.9,19 58.8,19.1 L58.8,19.1 C58.8,19.2 58.7,19.3 58.5,19.3 C58.4,19.3 58.4,19.3 58.3,19.3 C57.5,19.1 56.9,18.8 56.3,18.5 L55.6,18.2 C54.8,17.8 54,17.4 53.2,17.1 C51.4,16.6 49.6,16.2 47.7,15.9 C47.3,15.9 47,15.8 46.7,15.5 C46.4,15.3 46.1,15 46,14.6 C45.9,14.1 46,13.7 46.2,13.2 C46.4,12.9 46.7,12.6 47.1,12.5 C47.5,12.3 47.9,12.3 48.3,12.4 Z" id="🖍-Ink"></path></g><g id="facial-hair/*-None" transform="translate(29.2, 80.1)"></g><g id="accessories/*-None" transform="translate(11.2, 57.1)"></g></g></g></g></g></svg>