<svg viewBox="0 0 256 682" version="1.1" xmlns="http://www.w3.org/2000/svg" xmlns:xlink="http://www.w3.org/1999/xlink"><g id="Introduction" stroke="none" stroke-width="1" fill="none" fill-rule="evenodd"><g id="variations-standing" transform="translate(-1668, -1713)"><g id="a-person/standing" transform="translate(1677, 1658)"><g id="pose/standing/easing-1" transform="translate(-28.7, 150.3)"><path d="M270,238.3 C276.3,238.5 273.6,180.1 269.4,169.4 C268.8,167.2 268.3,164.2 268.4,161.5 C273.6,162.1 273,158.5 272.8,154.3 C272.9,150.9 273.1,143.9 267.9,146.6 C252.4,115.5 269.2,35.1 228.3,27.5 C223.4,26.4 218.3,25.1 214.1,21.7 C209.7,13.6 207.5,12.5 200.2,12 C198.9,4.7 196.3,-3.1 188.8,-5.9 C182,-8.6 174,-8.9 166.8,-7.4 C160.9,-5.5 160.3,5.5 159,11 C151,8.9 141.2,4.4 136.9,14.5 C134.8,13.9 132.9,14.3 130.8,15 C113,17.8 95.8,25.9 89.2,42.6 C85.2,52.6 88.1,63.6 89.6,74 C91,85.3 87.3,95.8 85.5,106.7 C82.9,121.7 82.5,133.7 84.2,144.9 C79.7,145.9 79.4,150 81.2,154.2 C81.7,155.7 82.2,157.2 83.4,158 C85.8,159.5 88.9,157.8 91.5,157.5 C92,163.5 93,169.4 94.8,176 C94.3,178 93.7,180.3 93.2,182.3 L93,182.1 C87.1,206.9 69.5,230.9 75,257.3 C75.3,258.2 75.9,258 76.4,258 C79.1,259 81.6,258.3 84.3,258.4 C90.8,258.5 97.1,259.3 102.9,260 C104,267 107.4,278.3 113.6,281 C113.7,281 115.5,280.6 115.7,280.6 C99.3,347.2 69.7,408.8 58,476.7 C57.9,477.5 59.3,477.1 59.7,477.2 C59.6,479.1 60.9,479.5 62.6,480.2 C60.4,484.8 58.4,489.4 56.2,494 C55.2,496.2 53.5,498.5 53.2,500.9 C50.8,502.5 49.2,505.5 49.2,508.3 C42.7,511.1 44.5,524.7 43,531.5 C41.5,541.5 34.3,548.6 29.4,556.8 C28.4,558.5 27.3,560.6 27.3,562.7 C24.2,564.1 23.1,567.3 23.3,572.5 C23.3,578.7 25,581 29.7,581.1 C42.4,582.4 57.2,581.9 70,580.4 C79.5,579.2 88,580.2 85.8,568.8 C85.4,566 86.2,562.3 84.6,560 C83.6,553.3 84.2,546.6 86.3,540 C87.7,534.4 89.9,522.9 89,515.4 C88.6,512 81.5,510.1 80.3,509.9 C80.7,507.3 80.5,502.8 79.1,500.9 C81.7,500.6 82.3,499.9 82.8,497.1 C84.1,492.4 84.3,487.4 87.5,483.5 C93.2,483.6 98.8,482.2 104.5,482 L104.8,481.3 C108.2,481.3 111.5,480.7 114.7,479.5 C115.4,479.9 116.3,480.1 116.7,479.1 L118.6,473.1 C140.8,402.7 165.3,332.1 189.2,262.2 C190.6,258.8 192.3,255.2 194.5,252.1 C195.2,294.9 204.2,337.7 204.9,380.4 C206,409.8 205.7,438.9 208.5,468.4 C209.2,474.7 209.9,474.5 210.9,474.1 C211.3,474.2 212.1,474.3 212.5,474.4 C211.9,480.6 211.2,490.7 208.5,497.1 C202.6,498 203.7,502.5 205,506.2 C203.6,507.4 203.8,510.2 204.2,511.8 C198.7,511.8 197.5,516.3 197.8,519.1 C198.4,523.9 198.1,531.3 201.2,535.3 C203.1,540.5 206.1,545.4 207.3,551 C208.1,555.1 207.8,561 208.5,565.1 C206.7,565.9 207.5,567.3 207.2,569.8 C205.6,581.4 211.1,579.4 220.9,580.2 C226.7,581.5 271.2,584.1 269.3,576.4 C269.6,573.2 268.2,571.8 267.5,568.7 C267.3,567.9 261.7,558.4 258.4,554.8 C247.3,544.4 247.8,530.4 248.1,514.3 C247.5,509.9 244.1,505.7 239.8,506.2 C241.1,501.5 238.8,497.5 234,496.1 C234.5,490.8 235,483.6 236.7,479.1 L235.1,477.4 L237.3,477.7 L238,475.8 L238.8,477.8 C242.6,477.8 246.9,477 250.5,476.6 C251.1,476.6 250.8,475.9 250.9,475.6 C254.3,474.9 254.7,473 254.1,468.7 C254.9,398.5 254.5,329 253.4,258.7 C258.8,258.9 264,256.9 269.2,255.7 C271.1,256.8 271.6,252.7 271.4,251.8 C271.1,247.1 270.5,242.6 270,238.3 Z" id="🎨-Background" fill="#FFFFFF"></path><path d="M160.4,1.2 C161.2,1.8 161.1,3.5 161.2,4.5 L161.2,4.6 C161.5,7.5 161.1,10.5 160.4,13.3 L160.3,13.8 C160,15.1 159.6,16.7 158.5,17.7 C157.3,18.7 155.4,18.1 155.4,16.3 C155.3,15.5 155.6,14.8 155.9,14 C153.6,14.9 151.2,15.8 148.9,16.7 C147.3,29.2 164.8,44.5 174.9,49.9 C189.6,58 202,45.5 203.9,30.9 C204.2,28.9 204.4,26.9 204.4,24.9 L204.4,24.7 C204.4,23.1 204.2,20.9 205.2,19.6 C204.5,19.6 203.8,19.7 203,19.8 L203,19.9 C203.5,20.6 204.1,22.6 202.7,22.7 C199.7,22.4 198.4,17.2 197.6,14.7 L197.6,14.6 C197.1,12.7 196.5,5.9 197.9,5.1 C198.4,6.8 198.2,8.6 198.7,10.3 C199.9,10.8 202.2,10.9 202.7,11 C208.9,11.1 212.4,15.5 214.9,20.7 C222.2,26.7 232.8,25.7 240.7,30.6 C264.9,48.2 257,116.5 269.1,145.6 C271.5,144.6 274,146.6 274.3,149.1 C274.6,150.9 274.5,152.9 274.5,154.8 L274.6,155.1 C274.8,159 275.4,163.3 270.2,163.4 C270.2,165.6 270.6,167.7 271.1,169.8 C274,182.5 275.3,195.6 275.6,208.6 L275.6,209.6 C275.7,216.4 275.8,237.6 271.8,240.1 L272,241.6 C272.5,245.3 272.9,249 273.1,252.8 C273.5,254.7 272.2,259.4 269.6,258.1 C264.8,259.3 260.1,261.1 255.1,261.1 C256.3,301.3 255.7,341.6 255.9,381.9 C255.5,411.6 257.1,441.5 255.7,471.1 L255.7,471.5 C256.1,474.8 256.2,477.7 252.4,478.9 C252.4,479.7 251.7,480.1 251,480.2 C248.9,480.5 246.8,480.8 244.7,481 C242.7,481.2 240.6,481.7 238.7,481.4 C238.8,481.6 238.3,481.6 238.3,481.5 C236.5,486 236,490.8 235.5,495.6 C239.9,497.3 242.2,501 241.5,505.6 C245.9,505.8 249.1,510.7 249.7,514.7 C250.1,517.6 249.8,520.4 249.6,523.2 C249,532.9 250.5,543.3 256.7,551 C260.7,555.8 266,560.2 267.8,566.5 C268.2,566.7 268.6,567.1 268.8,567.8 L269.9,572.2 L269.9,572.2 L270.5,574.4 C270.9,576 271.3,577.6 271,579.3 L271,579.5 C269.9,590 226.8,584.9 218.4,584.2 C215.1,583.6 211.3,583.9 208.3,582.1 C204.6,579.7 204.1,574.7 204.7,570.6 L204.8,570.2 C205.1,568.4 205.4,566.4 207.2,565.4 C206.6,561.6 206.8,557.7 206.1,554 C205.1,548.6 201.9,544 200.3,538.8 C197.9,536.2 197.8,532.1 197.3,528.7 C196.9,525.5 196.6,522.2 196.5,518.9 C196.2,514.6 198.1,511 202.6,510.4 C202.4,509.6 203,508.9 203.6,508.4 C202.2,503.5 201.8,496.9 207.7,495.2 C210,489.7 210.6,483.7 211.2,477.8 C211.1,477.7 211.1,477.7 211,477.7 C208.3,478.9 207.6,474 207.3,471.5 L207.3,470.9 C204.5,441.4 204.7,411.8 203.7,382.3 L203.6,380.2 C202.7,360.7 202.1,341.1 198.8,321.9 C195.4,300.5 194.5,278.8 193.3,257.1 C192,259.3 191.2,261.7 190.1,264 C175.8,306 161.1,347.9 147,390.1 C136.7,420.5 126.9,451.2 117.1,481.8 C116.6,483.4 115,483.7 113.8,483.2 C110.9,484.2 107.8,484.8 104.7,484.9 C104.5,485.4 104.1,485.7 103.6,485.6 C101.9,485.4 100,485.9 98.3,486.1 C94.5,486.5 90.8,487.1 87,487.2 C84.6,490.2 84.5,494.2 83.4,497.8 C82.7,499.6 82.8,503.7 80.6,504.2 C81.4,505.5 81.5,506.9 81.4,508.4 C82.1,508.5 82.8,508.8 83.4,509.1 C84,509.4 84.8,509.4 85.3,510.1 C97.5,512.3 88.6,535.4 86.4,543 C84.4,549.3 83.7,555.8 84.7,562.3 C86.1,564.3 85.6,567.3 85.8,569.7 C86,571.8 86.2,574 86.2,576.1 C85.9,584.9 75,583.5 68.9,584.6 C65.1,585 61.2,585.4 57.4,585.6 C47.6,586.2 37.8,586.2 28.1,585.3 C21.8,585.1 20.4,581 20.5,575.4 L20.4,575.2 C20.3,571.4 20.9,566.8 24.5,564.8 C24.7,562.8 25.7,560.7 26.8,559 C31.6,550.8 38.9,543.7 40.3,533.9 C41.7,527.5 40.1,513.4 46.6,510.1 C46.8,507.2 48.6,504.3 50.8,502.7 C51.2,500.3 52.8,498.1 53.8,495.9 C55.8,491.7 57.6,487.4 59.6,483.2 C58.6,482.8 57.5,481.9 57.3,480.8 C56.3,480.8 55.3,480.2 55.4,478.9 C55.8,475.4 56.6,471.9 57.3,468.4 L57.4,468 C70.5,404.8 97.4,345.8 113.2,283.5 C111.1,283.9 109.1,281.5 107.9,279.9 C104.1,274.8 101.9,268.6 100.9,262.3 L99.1,262.1 C93.2,261.4 87.2,260.7 81.2,260.9 L79.8,261 C78.2,261 76.6,261 75,260.4 C74,260.5 72.9,259.9 72.6,258.7 C68.2,236.6 79.1,215.6 86.9,195.7 C88.7,190.7 90,185.8 91.3,180.7 C91.3,180.5 91.6,180.5 91.6,180.7 C91.3,186.4 89.9,192.1 88.5,197.5 C83.8,216 74.1,234.1 76.5,253.7 C83.9,247.9 92.7,243.8 101.9,242.1 C102.4,239.8 103,237.5 103.5,235.2 C103,231.6 102.7,228 102.4,224.4 C101.2,213.6 99.5,202.9 97.2,192.3 C93.6,181.6 90.5,170.8 89.4,159.6 L89.2,159.6 C86.7,160.2 83.9,161.2 81.6,159.7 C80.2,158.6 79.5,157 78.9,155.4 C77.2,151.4 76.9,146.3 81.7,144.7 C79.9,132.2 81.1,119.2 83.2,106.9 C85,96.1 88.7,85.4 87.3,74.3 C85.8,63.7 82.8,52.6 87.1,42.2 C94,24.8 111.7,16.6 129,13.9 L129.3,13.8 C131.4,13.2 133.4,12.5 135.6,13 C140.9,3.2 149.4,7.2 157.8,9.4 C158.4,7.7 158.8,6 159.3,4.3 C159.5,3.5 159.5,1.5 160.4,1.2 Z M208.7,570.2 L208.7,570.6 C208.5,575.2 208.8,579.1 214.4,579.1 C218.3,579.5 222.3,579.9 226.2,580.2 L227.6,580.4 C239.3,581.4 251,581.9 262.6,580.4 L263.1,580.3 C264.1,580.1 265.9,580.2 266.6,579.5 C267.5,578.2 266.5,575.8 266.2,574.4 C248.2,574.2 230,573.5 211.9,573.7 C210,573.8 209.2,572.1 209.3,570.6 C209.1,570.5 208.9,570.3 208.7,570.2 Z M25,567.9 C24.2,571 24.4,573.9 24.9,577.1 C25.1,580.4 26.7,580.6 29.5,580.6 C40.5,581.7 51.6,581.4 62.7,580.6 C68.6,580 74.7,580 80.5,578.7 C83.2,577.4 81.6,573.6 81.7,571.2 C68.7,579.6 49,578.6 34.8,573.7 L34.6,573.6 C31.2,572.2 26.9,571.3 25,567.9 Z M46.6,511.4 C45.1,513.1 45.1,517.9 45,519.5 L45,519.7 C44.9,523.1 44.9,526.6 44.7,530 C44.8,544.5 36.5,551.7 30.3,563.4 C28.6,566.2 31,566.6 33.1,567.5 C46.1,573.6 61.5,574.5 75.1,569.9 C81.9,567.9 80.4,563.3 79.8,557.6 C79.3,546.1 85.3,535.8 87.1,524.7 L87.1,524.4 C87.7,521.1 88.6,512.7 83.4,514.5 C82.3,515.2 81.2,514.4 81.1,513.3 C80.9,513.3 80.8,513.3 80.7,513.3 C80.1,517 79.4,520.8 78.8,524.5 C79.3,524.8 79.8,525.2 80.2,525.6 C80.7,526.1 80.4,527.1 79.6,527.1 C79.2,527 78.8,527 78.5,526.9 C78.1,530.1 73,528.3 74.5,525.7 C67.1,523.2 59,523.4 51.5,525.3 L51.5,525.4 C50.9,525.6 46.7,526.4 48.1,527.1 C48.6,527.1 47.3,527.9 47.1,526.7 C47,525.3 50.3,524.6 51.3,524 C48.8,520.4 47.1,515.8 46.6,511.4 Z M235.7,500 C228.7,496.3 220.2,497.7 212.6,498.3 L212.3,498.4 C210.4,498.6 207.7,498.7 206.8,500.7 C205.6,503.8 207.7,510.9 208.3,514.4 L208.6,515.4 C209.1,517.6 209.6,519.9 209.8,522.2 C209.8,522.3 209.8,522.3 209.7,522.3 C207.1,519.5 205.9,515.7 204.6,512.1 C204.1,512.4 203.6,512.7 203.1,513.1 C201.2,519.6 200.6,526.5 202.1,533.1 L202.1,533.4 C204,541.6 209.8,548.3 210.3,556.8 C210.7,560.3 210.6,563.8 211.6,567.2 C212.2,567.3 212.7,567.8 212.9,568.3 L216.1,568.3 C231.8,568.3 247.5,568.5 263.2,569.1 C262.7,564.7 258.8,560.8 256.1,557.7 C247.7,549.1 244,536.7 245.4,524.8 C246.1,518.8 249.5,509.4 241.3,507.2 C240.7,512.1 239.9,516.9 239.5,521.8 C241,522.6 240.9,524.5 239,524.5 C238.2,527.3 235.4,526.2 235.7,523.5 C225.3,519.7 219.4,518.4 209.3,524.2 C209,524.1 210.1,523 210.2,522.8 C213.4,519.4 218.3,517.7 222.9,517.7 C227.4,517.7 231.7,519.4 236,520.7 C236.7,516.1 237.1,511.5 237.6,506.8 L237.7,505.9 C238,503.4 237.9,501.4 235.7,500 Z M69.4,559.6 C70.9,559.2 72.3,558.7 73.8,559.1 C79.2,563.1 57.1,564.3 55.2,564 C50.4,563.9 45.6,563.2 41,561.9 L40.7,561.8 C40.2,561.7 35.6,560.4 36.5,559.8 C42.8,560.4 48.9,561.5 55.2,561.2 C58.4,561.1 61.6,560.9 64.7,560.4 C66.3,560.2 67.8,559.9 69.4,559.6 Z M215.7,554.5 C214.7,553 219.5,555 220.1,555 C224.1,556 228.2,556.8 232.3,557.1 C235.1,557.3 237.9,557.3 240.6,557.2 C242.7,557.1 244.7,556.8 246.7,556.6 L246.8,556.6 C248,556.6 250.4,557.3 248.9,558.8 C246.6,560.6 243.2,560 240.4,560.3 C232,560.2 223,558.9 215.7,554.5 Z M57,543.7 C59.5,543.3 72.9,543.1 71.5,547.3 C71.2,548 70.5,548.3 69.7,548.2 C61.4,546.2 52.4,545.1 44.2,547.9 C44.1,547.9 44,547.7 44.1,547.7 C48.2,545.6 52.5,544.2 57,543.7 Z M230.8,539.7 C233,539.5 235.2,539.6 237.4,539.8 L238.3,539.8 C239.2,539.9 240.2,540 241,540.3 L241.2,540.3 C242.4,540.7 245.1,542.8 243.1,543.8 C240.9,544.5 239,543.6 236.9,543.1 C230.9,541.7 224.7,542.2 218.8,543.6 L219.7,543.9 L219.7,543.9 C219.7,543.8 219.8,543.9 219.7,544 C219.1,544.5 218.3,544.3 217.9,543.6 C217.8,543.5 217.9,543.4 218,543.3 C222,541.2 226.4,540.1 230.8,539.7 Z M46.1,539.2 C52.8,536.2 60.5,535.9 67.7,536.8 L68.2,536.8 C70.5,537.1 73.4,537.2 74.7,539.3 C75.1,540 74.7,540.8 73.9,541.1 C71.8,541.9 69.4,540.3 67.3,539.8 C61.3,538.1 54.9,537.9 48.9,539.1 C48.9,539.3 47.9,539.2 47.7,539.3 C47.4,539.3 45.6,539.9 46.1,539.2 Z M215,534.6 C220.9,531.7 227.6,531 233.9,532.5 L234.2,532.6 C237,533.4 241.5,534.3 242.5,537.3 C242.7,537.9 242.2,538.8 241.5,539 C239.1,539.4 237,537.7 234.8,536.8 C228.5,534.4 221.3,533.9 214.7,535.6 C214.7,535.9 214.6,536.1 214.6,536.4 C214.7,536.3 214.8,536.5 214.7,536.6 C213.7,537.3 212.6,535.5 215,534.6 Z M61.1,529.6 C65.9,529.2 70.6,529.8 75.2,531.1 L76.1,531.3 C77.3,531.7 78.9,532.2 79.1,533.6 C79.2,534.1 79,534.5 78.6,534.8 C77,536 73.6,533.5 71.6,533.2 C64.4,531.1 56.7,531.1 49.4,532.7 L49.2,532.8 L49.4,534.1 C49.5,534.6 47.9,533.2 48.5,532.6 C52.4,530.6 56.9,529.9 61.1,529.6 Z M219.5,527.3 C223.3,526.6 227.2,526.5 231,526.9 L231.5,526.9 C233.8,527.1 241.2,527.4 239.4,531.3 C239.1,531.9 238.3,532 237.7,531.7 C235.9,530.8 233.8,530.4 231.8,530.1 C224.6,529.1 217.2,529.5 210.1,531.5 C210.3,531.7 210,532 209.7,532.1 C208.9,532.2 208.9,531.3 209.2,530.8 C209.6,530.3 210.4,530.1 211,529.8 C213.7,528.7 216.6,527.9 219.5,527.3 Z M75.7,505.8 L75.3,505.7 C68,504 52,500.9 50.3,510.9 C49.7,515.3 51.7,519.6 51.5,523.9 C59.1,520.9 67.4,520.9 75.2,522.9 C75.9,518.4 76.5,513.9 77.2,509.4 L77.3,508.8 C77.6,507.3 77.8,506.1 75.7,505.8 Z M59.6,507.6 C61.2,506.2 63.8,506.3 65.4,507.7 C66.8,508 67.8,509.5 67.8,510.8 C69.9,514.6 67.3,519.8 63.2,520.8 C54,522.7 49.8,510 59.6,507.6 Z M220.4,501.5 C228.1,500.2 231,510 224.6,514 C215.6,518.5 209.6,504.3 220.4,501.5 Z M63.4,479.7 C63.5,480.4 63.2,481 62.7,481.5 C61.1,488 58.7,494.1 56.4,500.3 C64.1,499 71.3,500.2 78.1,502.2 C78.2,500.3 79.1,498.4 79.7,496.6 C80.9,493.1 82.3,489.8 83.9,486.6 L84.1,486.2 C84.7,485 85.3,483.8 86,482.8 C78.5,481.7 70.9,480.8 63.4,479.7 Z M214.9,478.3 L214.7,479.2 C213.9,483.1 213,487.1 211.8,490.9 L211.7,491 C211.5,492 211.1,496.4 210.8,493.3 C210.6,493.8 210.4,494.2 210.1,494.7 L212,494.5 C218.9,493.7 226.2,493 233,494.8 C232.3,489.3 233.3,484 234.9,478.9 C228.2,478.7 221.6,478.8 214.9,478.3 Z M88.8,485.1 C88.6,485.3 88.3,485.5 88.1,485.8 C88.4,485.7 88.7,485.6 89,485.6 C89,485.4 88.9,485.3 88.8,485.1 Z M238.9,480.1 L238.7,480.6 L238.7,480.6 C238.8,480.5 238.9,480.4 239,480.4 C239,480.3 238.9,480.2 238.9,480.1 Z M59.3,478.9 C59.2,479.2 59.2,479.6 59,479.8 C59.2,479.8 59.3,479.9 59.4,479.9 C59.5,479.6 59.7,479.3 59.8,479.1 C59.7,479 59.5,479 59.3,478.9 Z M117.2,155.8 C116.6,156.2 115.8,156.3 114.9,156.3 C107.3,156.6 99.7,157.5 92.2,159 C92.6,165.1 94.4,171 96.2,176.7 L96.5,178 C102.5,198.7 107.7,220.4 106.6,242.1 C106.7,242.1 106.7,242.1 106.8,242.2 C106.7,242.4 106.6,242.7 106.5,243 L106.5,243.1 L106.1,244 C105.9,244.5 105.7,245 105.5,245.5 C105.3,245.6 104.9,245.7 104.6,245.7 C102.8,257.2 104.5,270.1 112.3,279.1 C109.5,273.5 108.5,267.1 108.6,260.9 L108.7,259.9 C108.7,258.7 108.8,257.6 109.1,256.4 C109.1,256.4 109.2,256.4 109.2,256.4 C110.9,261.5 111,267.1 112.6,272.2 L112.8,272.6 C114,276.7 116.2,281.9 119.9,283.9 C120.6,284.1 121.6,283.9 122,284.7 L122,284.8 L122,284.7 C120.4,279.3 119.3,273.7 118.9,268 L118.9,267.6 C118.8,265.6 118.5,263.5 119,261.5 C120,263.3 119.8,266.2 120.2,268.3 L120.2,268.5 C120.6,270.8 123.9,288.5 126.1,286.1 C126.5,285.5 126.4,284.2 126.4,283.4 L126.4,283.4 C126.5,282.2 126.4,281.1 126.4,280 C126.2,273.4 125.1,266.6 127.2,260.1 C127.5,259.1 129.3,258.9 129.5,260.1 C130.4,265.3 131.3,270.5 132.1,275.6 C132.7,278.8 132.7,282.4 134.6,285.1 C134.6,279.1 134.3,273.2 134,267.3 L133.9,267 C133.7,266.3 133.5,265.3 134,264.7 C134.2,263.3 136.2,263.5 136.3,264.9 C136.4,265.2 136.4,265.5 136.4,265.8 C137.1,266.6 137.7,267.4 138.5,268.2 C143.6,257.6 126.7,239.3 124.4,227.4 C117.5,204.2 121.5,179.8 123.5,156.2 C121.4,155.9 119.3,155.9 117.2,155.8 Z M215.7,22.2 C219.3,29.4 221.9,37.1 223.8,45 C224.3,47.5 221.1,49 219.7,46.8 L219.7,46.8 C218.1,44 215.7,41.7 212.6,40.7 C210.5,49.5 211.5,58.8 212.6,67.6 C214.5,79.9 216.1,92.3 216.3,104.8 L216.3,105.5 C217,148.2 223.2,190.7 230.1,232.5 C241.1,234.2 251.1,239.2 261.3,243.6 C263,244.3 264.8,244.9 266.7,245.3 C261.6,197.9 242.2,153.5 236.3,106.3 C234.7,94 234.6,81.5 236.8,69.3 C236.8,69.1 237.2,69.2 237.2,69.4 C237.4,74.4 238.3,79.3 238.8,84.3 C239.1,81.5 239.9,78.6 240.6,75.8 C241.4,73.2 241.6,68.9 244,67.1 L244.1,66.6 L244.1,66.6 C244.2,66.4 244.5,66.5 244.4,66.7 C244.4,66.8 244.4,66.9 244.4,67 C245.8,67.4 244.5,69.2 244.1,70 C241.7,76.4 241,83.4 239.4,90 C241.7,110.6 246,130.9 251.2,150.9 C256,149.6 260.8,148.4 265.6,147.2 C254.9,112.2 261.2,73.1 245.1,39.7 C239.1,28.5 224.2,30 215.7,22.2 Z M134.2,15.8 C131.9,15.7 129.6,16.9 127.4,17.3 C124.5,17.9 121.7,18.3 118.9,19.1 C104.6,23.1 90.7,33.8 88.1,49.3 C86.4,60 90.8,70.3 90.6,80.9 C90.2,91.5 86.7,101.6 85.3,112 C83.7,122.6 83.2,133.7 84.6,144.4 C97.4,140.8 110.8,140.5 124,142.4 C122.9,126.2 124.4,109.9 125.2,93.7 C125.7,83.3 126.7,72.9 126.4,62.5 C126.4,62.2 126.7,62.2 126.8,62.4 C130.7,83.7 128.4,105.3 128,126.8 C127.8,132.2 128.4,137.7 128.2,143.1 C134.2,144.3 133.9,151.4 132.1,156 C131.8,157.1 130.7,156.9 129.8,156.8 C128.8,157.8 126.5,156.4 125.2,156.4 C124.2,183.1 117.9,211.5 130.7,236.4 C136.1,236.5 141.2,234.6 146.5,233.6 L146.7,233.5 L146.7,233.5 C147.5,232.5 147.9,230.9 148,229.7 C148.7,209.2 146.4,188.6 147.8,168.1 C149.4,145.4 154.5,122.7 152.1,99.8 C150.5,79.3 146.1,59.2 143.9,38.8 L143.8,37.7 C143.7,36.4 143.6,35 143,34.1 C139.4,37.4 136.3,41.3 134.2,45.7 C133,47.9 129.7,46.9 129.7,44.5 C129.2,40.2 129.2,35.9 129.6,31.6 L129.7,31.2 C130.3,25.8 131.9,20.7 134.2,15.8 Z M268.7,163.6 C264,163.9 259.4,164.4 254.7,164.3 L255.2,166.1 C260.8,187.3 266.8,208.5 270.4,230.2 L270.5,228.1 C270.6,226.1 270.8,224.1 270.8,222 C271.9,202.5 270.3,183 268.7,163.6 Z M147.4,28.3 C147.4,29.1 147.4,30 147.5,30.9 C149.7,34.1 149.5,38.4 149.9,42.2 C152.7,62.3 156.6,82.3 158,102.6 C159.2,118.9 157.2,135.1 155.1,151.2 C152.5,169.6 152.8,188.3 153.4,206.8 C163.3,197.9 177.3,196.3 189.7,193.5 L190.3,193.4 C199.9,191.4 209.5,188.6 217.6,183 C211.8,141 213.1,98.6 207.2,56.7 C207,53.4 206.9,50 207.2,46.7 C206.9,43.2 206.9,39.6 206.9,36 C204.2,46.6 195.4,56.8 183.9,56.5 C171.7,55.7 161.3,45.7 153.3,37.1 C151.2,34.5 149,31.5 147.4,28.3 Z M255.1,163.6 L254.5,163.6 L254.5,163.7 L254.5,163.7 C254.7,163.7 254.8,163.7 254.9,163.7 L255.1,163.6 Z M270.2,149.3 C270.2,149.3 270,149.3 269.8,149.3 C269.6,149.8 269.1,150.3 268.6,150.4 L263.9,151.7 C260,152.8 256.1,153.8 252.2,154.8 C252.9,157.4 253.5,159.9 254.2,162.4 C259.5,160.7 265.4,161.1 270.8,160 C270.8,157.1 270.6,154.1 270.6,151.2 C270.5,150.7 270.6,150 270.4,149.5 C270.2,149.3 270.4,149.4 270.2,149.3 Z M91.5,159.1 L91.4,159.2 L91.4,159.2 C91.4,159.3 91.5,159.4 91.5,159.6 C91.5,159.4 91.5,159.3 91.5,159.1 Z M126.2,145.1 C116.1,143.6 106,142.8 95.8,143.7 C91.3,144.4 86.6,145 82.1,145.9 C80.6,148.3 82.3,154.1 84.3,156 C84.8,156.2 85.8,155.8 86.4,155.7 C90.6,154.7 94.8,153.9 99,153.3 C99.2,153.5 99.4,153.6 99.6,153.6 L100.6,153.5 C106.4,153 112.3,152.6 118.2,152.9 L118.2,152.9 L118.2,152.9 C122.2,153.2 126.1,153.9 130.1,154.3 C131.6,150.2 131.4,145.5 126.2,145.1 Z M199.1,11.6 C199.5,13 200,14.2 200.5,15.5 C201.1,15.3 202,15.5 202.4,15.8 L202.6,15.8 C203.1,15.7 203.7,15.6 203.9,15.5 C211.1,14.5 210.5,24.2 210.6,29 C210.6,31.4 210.6,33.9 210.7,36.3 C212.8,35.6 215.5,36.9 217.3,38 C215.9,33.3 214.2,28.7 212.4,24.1 L212.1,23.2 C210.6,19.6 209,15.9 205.9,13.3 C203.6,12.7 201.3,12.6 199.1,11.6 Z M147.2,9.2 C140.5,6.8 137.9,12.3 136,17.7 C133.9,23.7 133.3,30.3 133.6,36.7 L133.9,36.4 C136.3,33.1 139.8,27.7 144.3,28.6 C144.3,26.1 144.3,23.4 144.8,20.8 C144.5,19.1 144.5,17.4 144.7,15.7 C144.8,13.6 147.1,13.9 148.6,13.6 C149.9,12.8 151.4,12.4 153,13 C154.2,12.9 155.4,12.7 156.6,12.6 C156.8,12.2 157,11.7 157.1,11.3 C153.8,10.6 150.5,9.9 147.2,9.2 Z" id="🖍-Ink" fill="currentColor"></path></g><g id="Head" stroke-width="1" transform="translate(95.9, 42.7)"><g id="head/Gray-Short"><path d="M68.3,120.7 C63,120.8 58.5,119.3 55.1,116.8 C50.8,115.3 45.7,113 42.5,110.5 C41.3,110.8 39.9,109.5 38.9,108.8 C33.1,104.5 28.6,98.2 27.2,91.8 C25.2,94.5 22.2,94.6 19.4,93.3 C13.4,89.9 13.6,82.8 15.8,77.5 C11.3,67.4 8.1,40.8 15,30.1 C16.4,28.4 18.5,27.5 20,25.8 C21.3,24.4 22.6,22.9 24.1,21.8 C28.8,18.2 36.9,16.3 41.9,15.4 C63.1,10.9 79.3,19.1 98.4,26 C97.3,28.7 95.8,31.2 94.1,33.6 C98.8,35.3 96.6,39.3 93,41.3 L90.8,40.3 C94.2,52.5 102.1,82.9 98.7,92.6 C95.9,107.8 84.1,120.9 68.3,120.7" id="🎨-Background" fill="#FFFFFF"></path><path d="M71.3,122.1 C64.5,122.8 56.3,121.1 51.8,115.6 C51.6,115.4 51.6,115.2 51.6,115.1 C51.6,114.9 51.6,114.7 51.8,114.5 C51.9,114.4 52.1,114.2 52.3,114.2 C52.4,114.2 52.6,114.2 52.8,114.3 L53.2,114.5 C56.4,116.3 59.6,117.7 63.1,118.3 C66.8,119 70.5,118.9 74.1,118.1 C80.6,116.6 85.9,112.8 89.8,107.8 C94.2,102.2 96.8,95.1 97.5,88 C98.3,79.3 96.4,70.8 94.5,62.4 C92.4,53.7 90.2,44.9 87.6,36.3 C87.5,36 87.5,35.8 87.5,35.6 C86.8,35.3 86,35.4 85.2,35.6 C83.7,36.1 82.2,37.3 81,38.2 C80.5,38.5 80.1,38.8 79.7,39.1 C78.2,40.1 76.6,40.9 74.7,41 C72.8,41.1 70.9,40.5 69.1,39.8 C68.2,39.4 67.3,39 66.4,38.6 C64,37.5 61.5,36.4 58.8,35.6 C55.2,34.7 51.5,34.2 47.7,34.2 C41,34.3 34.4,36 30.3,41.6 C28.6,43.9 27.5,46.5 28.4,49.3 C28.8,50.9 29.7,52.3 30.6,53.5 L31,54 C31.5,54.7 31.9,55.4 32.1,56.1 C32.2,56.7 32.1,57.4 31.6,58.1 C31.4,58.6 31,59 30.6,59.4 C30.4,59.7 30.1,60 29.9,60.3 C29.4,60.9 29,61.6 28.7,62.3 C28.1,63.7 27.9,65.2 27.8,66.8 C27.7,68.6 28,70.4 28.3,72.2 C28.4,73.4 28.6,74.7 28.7,76 C28.7,76.2 28.6,76.4 28.5,76.5 C28.4,76.7 28.2,76.8 28.1,76.8 C28,76.8 27.9,76.8 27.9,76.8 C27.9,76.9 27.9,77 28,77.2 C27.8,77 27.7,76.9 27.6,76.7 C27.5,76.7 27.5,76.7 27.5,76.7 C27.4,76.6 27.3,76.5 27.2,76.3 C27,76.2 26.8,76 26.6,75.8 C25.4,75 24.1,74.5 22.8,74.5 C21.5,74.4 20.2,74.9 19.2,75.8 C17.2,77.6 16.7,80.6 16.6,83.2 C16.6,85.8 17.2,89 19.5,90.6 C20.4,91.2 21.6,91.6 22.7,91.7 C23.6,91.7 24.5,91.3 25.4,91 C25.7,90.9 25.9,90.8 26.2,90.7 C26.5,90.6 26.8,90.6 27,90.7 C27.3,90.8 27.6,91 27.7,91.2 C27.9,91.4 28,91.7 28.1,92 C28.1,92.3 28,92.6 27.9,92.8 C27.9,92.9 27.9,93 27.8,93 L28.3,93.9 C30.3,97 32.2,100.1 34.8,102.8 C36.3,104.4 37.9,105.9 39.6,107.2 L39.8,107.4 C40,107.5 40.1,107.6 40.3,107.7 C40.8,108.1 41.4,108.7 42,108.7 C42.1,108.7 42.3,108.7 42.4,108.7 C42.7,108.6 43,108.6 43.3,108.7 C43.5,108.8 43.7,109 43.9,109.3 C44.1,109.5 44.2,109.8 44.2,110.1 C44.2,110.4 44.1,110.7 43.9,110.9 C43.6,111.4 43.3,111.7 42.9,111.8 C42.5,112 42,112.1 41.5,112 C40.3,111.7 39,110.7 38.1,110.1 L37.9,110 C36.1,108.5 34.3,106.9 32.7,105.2 C30,102.1 27.6,98.6 26.4,94.7 C25.5,95.2 24.4,95.5 23.3,95.5 C21.7,95.6 19.9,95.2 18.7,94.6 C15.8,93.2 14.1,90.7 13.3,87.8 C12.4,84.5 12.7,80.6 13.9,77.6 C13.9,77.5 13.9,77.4 14,77.3 C10.4,68.1 9.2,57.9 9.5,48.1 C9.7,43.6 10,38.7 11.1,34.3 C11.6,32.3 12.4,30.4 13.8,28.8 C14.5,27.9 15.5,27.2 16.4,26.5 C17.2,25.9 18.1,25.3 18.8,24.5 L19.1,24.2 C19.2,24.1 19.2,24 19.3,23.9 C20.5,22.6 21.7,21.3 23.1,20.3 C24.8,19 26.7,18 28.6,17.2 C32.7,15.5 37.2,14.4 41.6,13.6 C51.2,11.8 61.1,11.8 70.5,14.2 C74.9,15.4 79.2,16.9 83.5,18.5 C83.8,18.7 84.2,18.8 84.6,19 C88,20.2 91.3,21.4 94.6,22.6 C96.1,23.2 97.7,23.7 99.2,24.3 C99.5,24.4 99.9,24.7 100,25 C100.2,25.3 100.3,25.7 100.1,26.1 C99.2,28.5 98,30.7 96.5,32.8 C97.1,33.1 97.5,33.6 97.8,34.1 C98.2,34.8 98.5,35.6 98.5,36.4 C98.5,39.3 95.9,41.2 93.8,42.6 C93.6,42.7 93.4,42.8 93.2,42.8 C95.3,50.8 97.3,58.7 99,66.7 L99.1,67.3 C100.8,75.7 102,84.2 100.3,92.8 C98.9,100.1 95.6,107.1 90.4,112.6 C85.4,117.9 78.6,121.3 71.3,122.1 Z M26.2,73.8 C25.3,70.9 24.9,67.9 25.2,65 C25.4,63.2 26,61.4 26.9,59.8 C27.4,58.9 28,58.1 28.7,57.3 L28.9,57 C29,56.9 29.1,56.7 29.2,56.6 C29.2,56.5 29.2,56.4 29.1,56.3 C29,56 28.8,55.8 28.5,55.5 C28.4,55.4 28.3,55.2 28.2,55 C26.2,52.4 24.7,49.2 25.2,45.9 C25.7,42.6 27.8,39.5 30.1,37.2 C35.2,32.1 43,31 49.9,31.3 C53.9,31.4 57.9,32.1 61.7,33.3 C63.5,34 65.4,34.7 67.2,35.5 L67.6,35.7 C67.8,35.8 68,35.9 68.2,36 C69.6,36.7 71,37.4 72.5,37.8 C75.5,38.5 77.5,37 79.6,35.4 C80.3,34.9 81,34.4 81.8,33.9 L82,33.8 C83.4,33 85,32.5 86.7,32.5 C88.1,32.5 89.4,32.9 90.5,34 C90.7,34.2 90.9,34.5 90.9,34.7 C91.1,34.9 91.2,35.1 91.2,35.3 C91.6,36.8 92,38.3 92.4,39.7 L92.7,39.5 C93.7,38.9 94.7,38.2 95.2,37.2 C95.3,36.8 95.3,36.1 95.1,35.7 C95,35.5 94.9,35.3 94.8,35.2 C94.7,35.2 94.5,35.1 94.4,35.1 C94,35.2 93.7,35.1 93.4,35 C93.1,34.9 92.8,34.7 92.7,34.4 C92.5,34.1 92.4,33.8 92.5,33.5 C92.5,33.2 92.6,32.9 92.9,32.6 C94.5,30.7 95.9,28.7 96.9,26.4 L90,23.9 C87.6,23 85.2,22.1 82.7,21.2 L81.4,20.7 C76.9,19.1 72.5,17.5 67.8,16.5 C58.7,14.4 49.1,14.9 39.9,16.8 L39.4,17 C35.5,17.8 31.6,18.8 28.1,20.6 C26.4,21.4 24.7,22.5 23.3,23.8 C22.7,24.4 22.1,25 21.6,25.7 C20.8,26.6 20,27.5 19,28.2 L18.2,28.9 C16.9,30 15.7,31 15,32.6 C14.2,34.3 13.8,36.2 13.5,38 C12.8,42.6 12.5,47.2 12.5,51.9 C12.5,59.7 13.7,67.4 15.2,75 C16.4,73.3 18.1,71.9 20.3,71.6 C21.7,71.5 23.1,71.7 24.4,72.3 C25.1,72.7 25.7,73.2 26.2,73.8 L26.2,73.8 Z M24,83.1 C22.4,82.4 20.7,82.2 19,82.5 C18.9,82.6 18.7,82.5 18.5,82.4 C18.4,82.4 18.3,82.2 18.2,82.1 C18.2,81.9 18.2,81.7 18.2,81.6 C18.3,81.4 18.4,81.3 18.6,81.2 C20.4,80.3 22.4,80 24.4,80.2 L24.6,80.3 C25.6,80.4 27.1,80.7 28.2,81.4 C29,81.9 29.6,82.5 29.8,83.4 C29.9,83.9 29.7,84.4 29.5,84.7 C29.2,85.1 28.8,85.3 28.3,85.3 C27.4,85.3 26.9,84.9 26.2,84.4 C26.2,84.3 26.1,84.3 26,84.2 C25.4,83.7 24.7,83.3 24,83.1 Z" id="🖍-Ink" fill="currentColor"></path></g><g id="face/Smile" transform="translate(37.8, 44.1)" fill="currentColor"><path d="M34.8,57.1 C33.2,56.5 31.8,55.4 30.8,54 C30.4,53.5 30.3,53 30.4,52.5 C30.5,52 30.8,51.5 31.2,51.2 C31.6,50.9 32.1,50.7 32.7,50.8 C33.1,50.9 33.5,51.1 33.9,51.6 L34,51.7 C34.6,52.6 35.4,53.3 36.3,53.7 C37.2,54.1 38.2,54.3 39.2,54.2 C41.2,54 42.5,52.9 43.9,51.5 C44.1,51.3 44.3,51.1 44.5,50.9 C44.6,50.8 44.7,50.7 44.9,50.6 C45.1,50.5 45.3,50.5 45.5,50.6 C45.7,50.7 45.9,50.8 46,51 C46.1,51.1 46.2,51.3 46.2,51.6 C46,53.1 45.3,54.4 44.2,55.4 C42.9,56.6 41.3,57.4 39.8,57.6 C38.1,58 36.4,57.7 34.8,57.1 L34.8,57.1 Z M40.6,34.2 C42.4,35.3 45.1,37.8 43.2,40.5 C40.9,42.9 37.6,40.2 36,39 C34.5,38 32.8,40.5 34.2,41.6 C45.9,50.2 50.6,34.5 41.5,32.9 C40.5,32.8 40.1,33.9 40.6,34.2 Z M19.7,24.2 C19.9,21.8 23.6,21.2 24,23.6 C24.4,25.8 24,27.8 23,29.8 C22,31.6 19.7,30.8 19.5,29.1 C19.3,26.8 19.6,25.7 19.7,24.2 Z M48.2,23.1 C48.7,22.4 49.5,22 50.4,22.2 C53.2,23.1 52.4,27.1 51.4,29 C50.9,30.1 49.1,30.3 48.3,29.4 C47,27.9 46.4,24.9 48.1,23.4 C48.1,23.3 48.2,23.2 48.2,23.1 Z M22.9,13.5 L23.4,13.4 C24.8,13.2 26.5,12.9 27.5,14 C28,14.6 28.2,15.7 27.5,16.3 C26.2,17.3 24.9,16.9 23.4,17 C22.2,17 21,17.2 19.9,17.6 C17.3,18.3 15.2,19.6 13.1,21.1 C12.8,21.3 12.5,20.9 12.6,20.6 C13.9,18.2 16.3,16.2 18.8,14.9 C20.1,14.3 21.5,13.7 22.9,13.5 Z M45.6,12.4 L46,12.4 C49.7,13.2 54.5,14.8 56.3,18.4 C56.3,18.9 56.3,19 56.2,19.1 L56.2,19.1 C56.2,19.2 56.1,19.3 55.9,19.3 C55.8,19.3 55.8,19.3 55.7,19.3 C54.9,19.1 54.3,18.8 53.6,18.5 L53,18.2 C52.2,17.8 51.4,17.4 50.6,17.1 C48.8,16.6 47,16.2 45.1,15.9 C44.7,15.9 44.3,15.8 44,15.5 C43.8,15.3 43.5,15 43.4,14.6 C43.3,14.1 43.3,13.7 43.6,13.2 C43.8,12.9 44.1,12.6 44.5,12.5 C44.8,12.3 45.2,12.3 45.6,12.4 Z" id="🖍-Ink"></path></g><g id="facial-hair/*-None" transform="translate(29.2, 80.1)"></g><g id="accessories/Sunglasses-2" transform="translate(11.2, 57.1)" fill="currentColor"><path d="M94.7,3.1 C94.5,3.1 94.4,3.1 94.2,3 C94,3 93.8,2.9 93.6,2.9 C93.1,2.7 92.7,2.6 92.2,2.6 C85.4,1.1 69.7,3.2 69.1,9 C66.9,9.7 65.1,9.1 62.6,9.2 C60.7,1.2 27.8,2.3 26.2,7.1 C26.2,7.1 26.2,7.1 26.2,7.1 C24.6,6.6 22.4,6.8 20.6,6.7 C16.9,6.6 13.2,6.9 9.6,7.7 C2.8,8.8 -6.5,10.1 -1.8,18.6 C-1.8,18.6 -1.8,18.6 -1.8,18.6 L-1.8,18.6 C-1,19.4 0.4,18.7 0.5,17.6 C-1.1,13.6 2.5,13.1 5.2,11.9 C12.1,9.5 19.1,9.1 26.3,9.9 C26.8,10.5 27.6,11.1 28.5,11.3 C33.2,12.1 30.7,15.7 33.7,16.2 C33.2,28.5 48.1,35.2 56.8,27.1 C60.2,23.7 61.1,18.7 61.9,14.2 C62.3,14.1 62.6,13.9 62.7,13.6 C63.7,12.6 64.4,11.6 66.4,11.3 C68.4,11.1 70,11.6 70.2,11.8 C70.2,11.9 70.3,12 70.3,12.1 C70.4,12.3 70.6,12.4 70.7,12.5 C68.7,24.7 78.2,32.5 87.8,26.1 C92,22.2 92.9,16.2 93.1,10.9 C93.6,10.5 94,9.9 93.8,9 C93.5,7.9 94.2,6.9 95.2,6.4 C96.5,5.7 96.2,3.4 94.7,3.1 M53.5,8.9 C52.3,8.7 51.8,10.5 53,10.8 C53.8,11 54.5,11.4 55,12.1 L55.1,12.2 C55.7,13.2 57.3,12.3 56.7,11.2 C56,10.1 54.8,9.2 53.5,8.9 Z M88.4,7.8 C88,7.5 87.3,7.7 87.1,8.1 C86.8,8.6 87,9.1 87.4,9.4 L87.4,9.4 C87.8,9.7 88.1,10.2 88.2,10.6 L88.2,10.7 C88.2,11.9 90.1,11.9 90.1,10.7 C90,9.5 89.3,8.5 88.4,7.8 Z" id="🖍-Ink"></path></g></g></g></g></g></svg>