<svg viewBox="0 0 213 715" version="1.1" xmlns="http://www.w3.org/2000/svg" xmlns:xlink="http://www.w3.org/1999/xlink"><g id="Introduction" stroke="none" stroke-width="1" fill="none" fill-rule="evenodd"><g id="variations-standing" transform="translate(-316, -82)"><g id="a-person/standing" transform="translate(269, 50)"><g id="pose/standing/shirt-1" transform="translate(-28.7, 150.3)"><path d="M234.8,367.8 C234.1,374.4 231.7,388 230.5,394.6 C230.1,396.6 229.9,397.9 229.8,398.4 C223.1,433.4 220.4,469 219.1,504.6 C218.7,509.2 218.9,513.8 219.7,518.4 C219.8,518.6 219.8,518.9 219.8,519.1 C220.1,519.1 220.3,519 220.5,519 C230,517.5 236.3,524.3 242.5,530.8 C244.9,533.4 247.3,535.9 249.7,537.9 C255.7,543.2 262.2,547.9 268.9,552.2 C271.7,553.8 274.9,555.7 277,558.2 C278.4,560 279.4,562 279.4,564.5 L279.3,565.3 L280.2,565.2 C280.4,565.1 280.6,565.1 280.8,565.2 C281,565.3 281.1,565.5 281.2,565.6 C281.6,566.5 281.6,567.7 281.7,568.7 C281.7,569 281.7,569.2 281.7,569.4 C281.8,572.3 280.4,574.2 278.4,575.6 C275.3,577.6 270.7,578.2 267,578.8 C266.3,578.9 265.6,579 265,579.1 C242,581.6 218.6,575.3 197.3,566.9 C197.2,566.9 197.2,566.9 197.1,566.8 C197.1,566.8 197,566.8 196.9,566.9 C195.2,567.1 193.8,566.2 192.6,564.9 C191,563.1 190,560.4 189.7,558.4 C189.5,557.4 189.7,556.5 189.8,555.6 C189.9,554.4 190.1,553.2 189.7,552.1 C186.8,545.4 186.4,538.1 186.8,531 C186.7,522.2 188.7,519.7 190.4,517.8 C191.7,516.1 192.9,514.8 192.5,511 C192.4,510.5 192.3,506.9 192.4,505.1 L192.9,505 C192,492.5 188.9,480 185.7,467.5 C180.5,447.2 175.3,427 180.3,406.2 C181.9,399.8 185,394.2 188.1,388.5 C190.1,384.9 192.1,381.2 193.7,377.4 C193.7,377.3 193.7,377.3 193.8,377.2 C193.8,377.1 193.7,377.1 193.7,377 C193.4,375.4 193.8,373.8 194.2,372.2 C194.5,370.7 194.8,369.2 194.7,367.7 C194.7,364.9 194.2,362.2 193.6,359.5 C193.5,359.3 193.5,359.2 193.5,359 C193.3,359 193.2,359 193.1,358.9 C190.4,358.2 187.8,357.2 185.3,356 L184.6,355.6 L184.3,356.3 C184.2,356.5 184.1,356.7 183.9,356.8 C183.7,357 183.5,357 183.3,357 C183.1,357 182.8,357 182.6,356.9 C182.5,356.8 182.3,356.7 182.2,356.5 C181.9,355.3 182.3,354.1 182.5,352.9 C182.7,352.1 182.9,351.3 183,350.5 C183.1,350 183.2,349.5 183.2,349 C183.5,347.4 183.7,345.5 184.6,344.4 C184.8,344.1 185.1,343.8 185.5,343.7 C185.8,343.6 186.3,343.6 186.8,343.7 C187.1,343.8 187.3,343.9 187.5,344 C187.6,343.7 187.6,343.4 187.6,343.1 C189,330.4 189.2,317.6 188.5,304.9 C188.4,303.9 188.4,302.9 188.3,301.9 C187.9,302.8 187.5,303.7 187.1,304.6 C184.8,310.1 182.8,315.7 180.8,321.4 C178,329.3 175.2,337.2 171.6,344.6 C171.5,344.7 171.5,344.8 171.4,344.9 C171.5,345 171.5,345.1 171.6,345.2 C171.7,345.4 171.7,345.6 171.7,345.7 C171.6,345.9 171.5,346.1 171.4,346.2 C170,347.5 169.3,349.3 168.7,351 C168.6,351.1 168.6,351.2 168.6,351.3 C168.1,352.8 167.2,354.3 166.1,355.4 C165.1,356.4 163.9,357.1 162.4,357.4 C162.3,357.4 162.1,357.4 162,357.4 C162,357.6 161.9,357.7 161.9,357.9 C161.7,358.7 161.5,359.5 161.3,360.3 C159,370.1 155.6,384.7 149.5,395.5 C145.6,402.5 140.5,407.8 133.9,409.1 C133.4,409.1 132.9,409.2 132.4,409.3 C132.8,409.5 133.2,409.7 133.4,410.1 C134.2,411.4 133.4,413.1 132.8,414.6 C132.5,415.6 132.2,416.5 132,417.3 C131.4,419 130.9,420.9 130.4,422.7 C129.4,426 128.5,429.4 126.8,432.5 C126.8,432.6 126.7,432.7 126.7,432.8 C126.7,432.9 126.8,433 126.8,433.1 C126.9,433.2 126.9,433.4 126.9,433.6 C126.9,433.7 126.8,433.9 126.8,434 C126.9,434.1 127.1,434.1 127.2,434.2 C127.9,434.7 128.4,435.3 128.6,436.1 C128.9,437 128.8,438.1 128.5,439.1 C128.2,440.2 127.7,441.2 126.9,441.9 C126.3,442.5 125.6,442.9 124.7,443 C124.7,443 124.6,443 124.5,443 C124.5,443 124.5,443 124.4,443 C124,443.3 123.5,443.4 123,443.4 L122.8,444.8 C123,444.9 123,445 123,445 C122.2,453.7 120.2,462.1 118.1,470.5 C117.8,472.1 117.4,473.6 117,475.2 C116.3,477.7 115.7,480.2 115.2,482.8 C114.3,487 113.5,491.2 111.7,495.1 C111.7,495.2 111.6,495.3 111.6,495.4 C111.6,495.5 111.7,495.6 111.7,495.6 C112.6,497.7 112.4,500.2 112,502.3 C111.3,503.1 109.9,503.1 108.8,503.1 C108.4,503.1 108,503.1 107.6,503.2 C107.4,503.2 107.2,503.2 106.9,503.3 C106.9,503.5 107,503.7 107,504 C107.5,507.7 107.5,511.5 107.5,515.3 C107.5,517.5 107.5,519.6 107.6,521.8 C107.6,522 107.6,522.3 107.6,522.5 C107.8,522.5 108.1,522.5 108.3,522.5 C110.7,522.3 112.4,523.3 113.6,524.9 C115.5,527.3 116.4,530.9 117.1,534 C117.3,534.9 117.5,535.7 117.7,536.4 C119.2,541.5 121.2,546.5 123.2,551.4 C125.8,558 128.4,564.6 130,571.6 L130.2,572.7 L131.1,572 C131.2,572 131.3,571.9 131.4,571.9 C131.5,571.9 131.6,572 131.7,572 C134.8,573.9 134.9,577.8 135,581.1 C135,581.4 135,581.6 135,581.9 C135,582.6 135.1,583.4 135.1,584.1 C135.2,585.9 135.5,587.9 134,589.1 C123.1,596.5 108.4,596.3 95.9,594.3 C90.9,593.4 86,591.9 81.3,589.8 C79.6,589.2 78.3,588.6 77.5,587.5 C76.8,586.7 76.5,585.5 76.6,583.9 C76.3,581 76.6,578.2 76.8,575.4 C77.1,572.9 77.3,570.5 77.2,568.1 C77.5,558.7 79.7,549.4 81.8,540.2 C81.9,539.9 82,539.5 82.1,539.1 C82.2,538.7 82.3,538.3 82.4,537.9 C84.1,532.8 86,526.4 90.7,523.5 C90.8,523.5 91,523.5 91.2,523.5 C91.9,523.4 92.6,523.4 93,523.1 C93,523.1 93,523.1 93.1,523.1 L92.8,524 L94.2,523.4 C94.5,523.3 94.8,523.2 95.2,523.1 C95.3,523.1 95.4,523.1 95.5,523.1 C95.6,523 95.6,522.8 95.7,522.7 C97.6,518.8 98.5,514.6 99.3,510.3 C99.9,507.7 100.4,505 101.2,502.5 C101.3,502.3 101.4,502 101.4,501.8 C101.2,501.8 101,501.7 100.8,501.6 C98.6,500.8 96.6,499.1 96,496.8 C96.1,496.1 96.4,495.4 96.9,494.9 C97.2,494.5 97.7,494.2 98.2,494.2 L99.2,494.1 L98.8,493.2 C98.5,492.3 98.4,491.3 98.5,490.3 C100.4,479 102.8,467.7 105.5,456.5 C106.5,452.3 107.6,448.2 108.8,444.1 C109,443.6 109.1,443 109.3,442.5 C109.5,441.3 109.8,440 110.7,439.2 C110.9,439.1 111.1,438.9 111.4,438.8 C111.2,438.6 110.9,438.4 110.7,438.2 C108.9,436.4 107.3,434.2 107.3,431.7 C107.2,430.6 107.7,429.6 108.4,428.9 C108.7,428.7 109,428.5 109.3,428.4 L110.4,429.1 C110.7,429.3 111,429.5 111.3,429.7 C111.5,429.8 111.7,430 111.9,430.2 L114.7,432 L112.9,429.2 C111.5,427 112.2,424.2 112.8,421.8 C112.9,421.1 113.1,420.4 113.2,419.8 C113.4,419.1 113.5,418.4 113.7,417.8 C114.6,413.6 115.5,409.5 117,405.6 C117.1,405.4 117.2,405.3 117.2,405.1 C117.1,405 117,404.9 116.9,404.8 C110.7,399.4 108.3,392.9 108,385.8 C107.5,375.6 111.4,364.5 114.8,354.6 C115.7,352 116.5,349.6 117.3,347.3 C117.3,347.1 117.4,346.9 117.4,346.8 C117.3,346.7 117.1,346.6 117,346.5 C116.2,345.9 115.2,345.3 114.1,344.7 C111.6,343.3 108.6,341.8 108.2,339 C108.3,337.4 108.9,335.9 109.5,334.4 C109.7,333.8 109.9,333.2 110.2,332.6 C110.3,332 110.8,331 111.4,330.6 C111.5,330.6 111.7,330.5 111.8,330.5 C111.9,330.5 112.1,330.6 112.2,330.7 L113,331.6 L113.4,330.5 C113.6,329.9 113.7,329.3 113.9,328.7 C117.5,317.3 121.1,305.8 120.7,293.8 C120.7,293.6 120.7,293.4 120.7,293.3 C120.6,293.2 120.4,293.2 120.2,293.1 C119,292.8 117.7,292.9 116.5,293.1 C114.9,293.2 113.4,293.4 112,292.4 C99.3,282.7 100.7,258 101.7,243.6 C101.8,243.4 101.8,243.2 101.8,243 C101.6,243 101.4,242.9 101.3,242.8 C100.7,242.6 100.1,242.4 99.6,242.1 L99.2,241.8 L98.8,242.1 C98.6,242.2 98.5,242 98.4,241.9 C97.9,241.4 97.4,240.4 96.9,239.3 C95.2,235.1 93.6,228.3 93.2,226.3 C93.2,226.3 93.1,226.2 93.1,226.2 C83.9,184.4 87.4,141.3 90.9,98.9 C91.1,95.9 91.4,92.9 91.6,89.8 C92.4,84.3 92.7,78.6 92.9,72.8 C93.5,61.1 94.1,49.4 98.7,38.6 C101.8,30.7 110.5,28.9 117.9,27.3 C118.1,27.2 118.3,27.2 118.5,27.1 C122.4,26 126.3,25.1 130.1,24.2 C136.1,22.8 142,21.5 147.7,19.3 C148,19.1 148.3,19 148.6,18.9 C148.3,18.7 148.2,18.4 148,18.2 C147,16.8 146.6,15 146.7,13.2 C146.8,11.4 147.4,9.5 148.5,8.1 C148.9,7.8 149.4,7.8 150,7.9 C151,8 152,8.6 152.8,9.1 C152.9,9.1 153,9.2 153.1,9.2 L153.7,9.6 L154.1,8.9 C155.4,6.4 156.3,3.6 157.2,0.9 C157.7,-0.7 158.3,-2.2 158.8,-3.7 C160.6,-7.5 163.7,-9.4 167.3,-10.1 C172.7,-11.1 179.1,-9.7 184.1,-8.4 C184.3,-8.4 184.5,-8.4 184.6,-8.3 C187.2,-7.7 189.9,-7 191.9,-5.4 C195.4,-2.7 196.2,1.6 196.9,5.9 C197.3,8 197.7,10.1 198.4,12.1 C198.5,12.3 198.6,12.5 198.7,12.7 C198.9,12.6 199.1,12.6 199.3,12.5 C202,11.9 208.1,15.5 210.1,17.4 C210.7,17.7 210.9,18.1 211.1,18.5 C211.3,19.2 211.2,19.9 211.2,20.7 C211.1,21 211.1,21.4 211.1,21.7 C211.1,21.9 211.1,22.1 211.1,22.3 C211.3,22.3 211.5,22.4 211.7,22.4 C212.9,22.7 214.2,22.9 215.4,23.1 C224.5,24.8 234.4,26.6 241.4,31.6 C246.4,35.1 249.9,40.1 250.7,47.8 C253.3,58.9 254.7,70.1 256,81.4 C256.2,82.9 256.3,84.3 256.5,85.8 C258.6,103.8 260.6,121.9 266.2,139.3 C266.8,140.6 267.3,141.9 267.9,143.2 C276.2,163.5 284.8,184.1 286.8,206.3 C287.9,216.8 287.7,227.5 285.9,238 C285.8,238.6 285.3,238.9 284.8,239.2 C284.3,239.4 283.6,239.4 283.1,239.1 L280.4,237.4 L282.1,240.1 C285.7,245.7 282.7,255.6 280.6,262.6 C280.3,263.6 280.1,264.6 279.8,265.5 C278.3,270.6 275.7,276.2 271.8,279.2 C270.3,280.3 268.6,281.1 266.6,281.3 C264.8,281.4 262.9,281.1 260.7,280.1 C260.4,280 260.1,279.9 259.9,279.8 C259.8,280.1 259.8,280.4 259.7,280.6 C255.4,301.5 250.6,322.2 244.9,342.8 L244.1,345.7 L246.1,343.5 C246.4,343.1 246.8,342.9 247.2,342.8 C247.6,342.8 248,342.8 248.4,343 C248.9,343.2 249.3,343.6 249.6,344 C249.9,344.4 250.1,344.9 250.2,345.4 C250,348.2 249.1,350.9 248.2,353.6 C247.7,355.1 247.2,356.5 246.9,357.9 C246.5,359.4 245.6,360.4 244.4,360.9 C242.7,361.8 240.5,362 238.3,362.1 C237.2,362.2 236.1,362.3 235.2,362.4 C235,362.5 234.9,362.5 234.7,362.5 C234.7,362.7 234.6,362.8 234.6,362.9 C234.3,363.9 234.1,364.9 233.8,365.9 C233.6,366.7 233.4,367.5 233.2,368.3 L234.6,368.7 C234.7,368.4 234.8,368.1 234.8,367.8 L234.8,367.8 Z M128.6,243.4 C128.6,237.4 130.8,231.7 132.9,226.1 C133.8,223.7 134.6,221.4 135.4,219 C135.4,218.9 135.5,218.7 135.5,218.6 C135.4,218.5 135.3,218.4 135.2,218.3 C134.6,217.8 134,217.3 133.3,216.9 C132.3,216.3 131.3,215.7 130.7,214.8 C130.4,214.3 130.2,213.7 130.3,212.9 C130.7,206.7 131.1,200.5 131.6,194.3 C131.7,193 131.8,191.7 131.9,190.4 C134.1,167.1 136.2,143.6 132,120.5 C131.8,119.5 131.6,118.4 131.4,117.4 C131.2,116.7 131.1,116 131,115.3 C130.9,115.2 130.9,115 130.9,114.9 C130.8,114.1 130.6,112.9 130.2,112 C129.8,111.2 129.3,110.7 128.6,110.6 C128.4,110.6 128.2,110.6 127.9,110.6 C127.9,110.8 127.8,111 127.8,111.1 C120.8,139.9 122.6,169.3 124.3,198.6 C125.1,212.1 126,225.5 125.9,238.9 C125.9,239.1 125.9,239.2 125.9,239.3 C126,239.4 126.1,239.4 126.1,239.5 C126.3,239.6 126.4,239.9 126.3,240.1 C126.3,240.3 126.1,240.6 125.9,240.7 C125.8,240.8 125.7,240.8 125.6,240.8 C125.6,240.9 125.5,241.1 125.5,241.2 C125.4,241.8 125.2,242.3 125.1,242.9 C125,243 125,243.2 124.9,243.3 C125,243.4 125.1,243.5 125.2,243.6 C126,244.3 126.7,245 127.4,245.6 L128.7,246.8 L128.6,245.1 C128.6,244.5 128.6,243.9 128.6,243.4 Z" id="🎨-Background" fill="#FFFFFF"></path><path d="M158.3,-3.8 C160.2,-2.3 158.2,8.5 156.7,10.7 C166.8,17.2 177,23.5 187.4,29.4 L188.5,30 L188.5,30 C188.9,30.2 189.6,30.4 190,30.3 L190.4,30.2 C190.4,30.2 190.4,30.2 190.4,30.2 C190.6,30.1 190.7,30 190.9,29.9 L191,29.8 C194.1,26.9 196,22.6 198.4,19.1 C194.4,15.6 196.4,8.8 196.5,4.2 C197.3,4.1 197.4,6.5 197.6,7.2 L197.7,7.6 C198,9.2 198.3,10.9 198.9,12.4 C200.6,10.2 209.3,15.3 210.9,17 C212.7,18.1 212.1,20.1 212.1,21.9 C228.5,25 249.5,27.3 251.7,47.9 C254.3,58.9 255.7,70.2 257,81.4 L257.1,82.6 C259.4,102.2 261.3,122 267.7,140.7 L269.9,145.9 C275.2,158.6 280.5,171.4 283.9,184.8 C286.4,190.4 293.4,244 283,239.8 C286.5,245.6 283.9,253.2 282.6,259.4 C280.1,269.7 274.6,286.9 260.7,280.9 C256.4,301.8 251.5,322.6 245.8,343.1 C247.7,341 250.9,342.9 251.2,345.5 C251.1,348.9 249.5,352.1 248.7,355.4 L248.6,355.7 C247.5,360.4 245.8,362.6 240.6,362.7 C226.1,364.6 211.2,364 196.9,360.7 C201.9,378.2 186,391.7 182.6,407.8 C175.6,440.6 193.4,472 195.7,504.4 C196,507.2 196.3,510 196.6,512.9 C196.6,515.8 197.7,519.4 196.2,521.9 C197.6,525.4 201,528.3 204.7,529.1 C211.6,529.9 212.5,520.7 218.5,519 C216.2,508.2 215.3,497.2 216.1,486.2 L216.3,483.8 C218.8,443.5 222.4,402.5 235.7,364.2 C235.8,363.8 236.3,364 236.3,364.3 C230,406 221.6,447.4 220.8,489.7 C220.8,499.2 219,508.9 220.7,518.4 C234,516.3 241.4,530.2 250.5,537.4 C256.4,542.7 262.9,547.5 269.6,551.7 L270,551.9 C274.8,554.7 280.4,558.5 280.3,564.6 C283.5,564.1 282.7,571 282.2,572.8 C281.5,574.8 279.6,576 277.8,576.9 C251.4,585.8 222.4,577.2 197.3,567.7 C192.9,568.3 189.8,562.5 189.3,558.6 C188.8,556.5 189.9,554.5 189.3,552.4 C186.3,545.7 185.9,538.3 186.4,531.1 C186.1,515.9 192.2,519.2 192.1,512.2 L192,511 C191.9,508.1 191.7,501.7 192.5,505.2 C190.1,471.5 171,438.3 180.4,404.3 C183.2,394.6 189.4,386.6 193.3,377.3 C192.7,374.2 194.5,371 194.3,367.8 C194.3,365.1 193.7,362.4 193.1,359.7 C190.4,359 187.8,358 185.3,356.7 C184.4,358.7 181.2,358 181.7,355.5 L182.5,350.5 L182.5,350.5 L182.6,350.3 C183.1,347.6 183.2,342.2 187.2,343.2 C188.5,330.5 188.8,317.7 188.1,305 C182.5,318.1 178.7,332.4 172.5,345 C172.8,345.6 172.8,346.3 172.1,346.9 C168.7,350.8 169.3,356.9 162.8,358.2 C158.4,375 153.8,404.8 134.3,409.9 C135.6,411.9 133.3,415.3 133,417.6 C131.2,422.7 130.3,428 127.8,432.9 C127.8,433.2 127.9,433.4 127.9,433.8 C131.7,436.1 129.2,443.6 125,443.8 C124.6,444.1 123.9,444.2 123.3,444.2 C123.7,444.3 124,444.7 123.9,445.2 C123.1,455.5 120.3,465.5 118,475.5 C116,482.1 115.5,489.3 112.6,495.5 C113.6,497.7 113.4,500.3 112.9,502.6 C112.1,504.2 109.5,503.8 108,504 C108,504 108,504 108,504 C108,504 108,504 108,504 C108.8,509.9 108.3,516 108.5,521.9 C116.1,521.5 117.2,530.9 118.7,536.4 C122.2,548.3 128.2,559.3 130.9,571.6 C131.3,571.3 131.8,571.2 132.3,571.5 C136.8,574.4 135.8,580.5 136.1,585.1 C137.2,593.2 121.9,595 116,595.9 C102.9,597.2 88.7,595.2 77.3,588.4 C75.1,585.6 76.2,575.4 76.9,571.6 C76.2,561 79.2,550.5 81.4,540.1 L81.6,539.4 C83.3,533.6 85.3,526.3 90.6,523 C91.2,522.8 93.6,523 93.3,522.1 L93.3,522 C93.1,521.7 93.6,521.4 93.9,521.7 C94.4,522.2 94.3,522.9 93.9,523.5 C93.2,524.3 92.1,524.1 91.3,524.6 C88.2,527.8 87,532.7 85.5,536.8 C86.6,536 87.7,535.2 88.8,534.4 C88.6,534.2 88.5,533.9 88.4,533.6 C87.2,532.4 90.4,528.4 90.9,526.9 C91.4,526 92.4,526.1 92.9,526.6 C98.1,519.6 98.4,510.5 100.8,502.4 L100.7,502.3 C98.3,501.4 95.1,498.8 95.7,496.2 C96.2,495 97,493.7 98.4,493.6 C98.1,492.6 98,491.5 98.1,490.3 C100,479 102.4,467.7 105.1,456.5 C106.1,452.2 107.2,448 108.4,443.9 L108.7,443 C109,441.9 109.4,439.7 110.5,438.8 C107.7,436.2 104.8,431 108.6,428.2 C110,426.9 113.4,428.6 111.1,428.6 C111.6,429 112.1,429.4 112.6,429.7 C110.7,426.8 112.2,422.9 112.8,419.8 L112.9,419.1 C114,414.5 114.9,409.8 116.7,405.4 C99.2,390.3 111.1,365.3 116.9,347.2 C113,344.7 105.6,342.1 108.4,336.2 C109.2,334.6 110.3,328.3 113,330.4 L114.2,326.4 C117.5,315.9 120.6,305.1 120.3,293.9 C117.7,293.3 115.4,294.6 112.9,293.7 C98.8,285 100.2,258.3 101.3,243.6 C100.7,243.4 100.1,243.2 99.5,242.8 C99,243.2 98.3,243.2 98,242.6 C97.3,240.9 96.3,239.2 95.7,237.5 C79.3,181.2 89.8,121.9 93.1,64.6 C94.4,52.8 94.4,36.8 106.1,30.3 C110,28.4 114.5,27.6 118.7,26.6 C128.3,23.7 138.3,22.4 147.7,18.7 C145.5,15.7 146,11.3 147.8,8.3 C149.3,6.1 152,7.8 153.7,8.7 C155.7,4.7 157,0.5 158.3,-3.8 Z M131.5,574.2 L131.6,575.1 C131.9,577.1 132.2,579.1 132.1,581.1 C132.7,581.5 133,582.2 133.1,582.8 C133.1,583.7 132.7,584.5 131.7,584.8 C115.6,588.9 97.7,589.8 82.5,582.5 C80.1,581.7 78.8,579.7 78.1,577.4 C78.3,580 77.8,584.9 79.3,586.9 C90.5,592.7 103.5,595 116,593.6 C121.7,592.9 127.6,591.4 132.4,588.1 C133.9,587.4 133.3,585.7 133.3,584.4 C132.9,581.1 133.9,576.8 131.5,574.2 Z M108.6,533.6 C100.8,529.7 91.9,534.6 85,538.5 C82.9,549.9 77.6,567.6 82.8,578.2 C96.3,585.5 112.5,584.9 127.2,581.7 C127.4,581.5 127.6,581.4 127.8,581.3 C127.8,581.3 127.9,581.2 127.9,581.2 C127.9,581.2 127.9,581.2 127.9,581.2 L128,581.1 C128,581.1 128,581.1 128,581.1 C128,581.1 127.9,581.1 127.9,581.2 L127.9,581.1 L127.9,581.1 C127.9,581.2 128,581.1 128,581.1 L128.1,581 C128.2,580.9 128.1,581 127.9,581.1 C128,581 128,580.8 128.1,580.6 C128.1,580.6 128.1,580.6 128.1,580.6 C128.3,573.1 125.5,565.6 123.2,558.5 C122.4,556.4 121.6,554.2 120.8,552.1 C118.9,549.9 117.9,546.9 116.7,544.4 L116.6,544.2 C114.7,540.3 112.4,536.1 108.6,533.6 Z M191.5,556.4 C190.8,563.9 198.1,566.9 204,568.7 C210.7,571 217.6,573 224.4,574.7 C238.5,578.3 253.2,579.9 267.6,577.6 L268,577.6 C272.2,576.8 279.5,575.9 280.4,571.2 L280.4,571.1 C280.5,570.4 280.6,567.3 280.3,566.5 C280.2,566.5 280.1,566.5 280,566.5 C278.8,570.3 274.4,572.7 270.2,573.3 C268.2,575.3 264.5,574.5 261.8,574.6 C244.3,574.5 227.4,569 210.7,564 C205.4,562.1 194.8,560.8 191.5,556.4 Z M193.3,515.1 C193.2,515.8 192.8,516.5 192.4,517.1 C192.7,517 194,517.9 193.1,517.8 C190.1,516.2 189.3,525.4 189,527.3 C188,536.1 188.1,549.8 195.2,556.1 C202.7,559.3 210.7,560.7 218.4,563.2 L220.2,563.8 C234.8,568 249.8,572 265.1,571.4 C266.3,569.1 273.5,571 276.3,566.9 C280.1,560.4 270.6,556.2 266.1,553.4 C257.5,547.9 249.5,541.5 242.3,534.3 C238.9,530.9 235.7,527 231.7,524.3 L231.5,524.2 C228.1,521.9 223.7,520.5 219.7,522 C215.8,523.4 214.3,527.9 211,530.2 C203.9,535.1 195.2,527 193.9,520.2 C193.5,518.5 193.4,516.8 193.3,515.1 Z M108.6,522.9 C108.6,524.2 108.6,525.6 108.7,527 C110.7,527.3 111.5,529.7 112.4,531.4 C113.7,533.1 114.4,535.1 115.9,536.7 C115.4,534.3 115,531.8 114.5,529.4 C113.8,526.2 112,523.3 108.6,522.9 Z M94.8,531.2 C94.2,531.3 93.7,531.3 93.2,531.4 L93,531.6 L93,531.6 L92.9,531.7 C92.7,531.9 92.6,532.1 92.4,532.3 C93.2,531.9 94,531.5 94.8,531.2 Z M101.8,502.8 C101.2,508.4 100.7,514 99.4,519.5 C98.7,522.3 97.6,524.9 96.1,527.2 C99.1,528.3 102.4,528 105.4,527.5 L105.4,525.5 C105.3,518.3 105.4,510.8 107.7,504 C105.7,503.9 103.7,503.5 101.8,502.8 Z M110.4,497.4 C110.3,497.5 110.1,497.6 110,497.6 C110.6,498.7 110.3,500.3 109.9,501.4 C110.2,501.4 110.4,501.3 110.6,501.3 C110.8,500 110.6,498.7 110.4,497.4 Z M111.6,439.8 C109.5,448.2 108,456.8 106.1,465.2 C104.6,472.4 103.1,479.7 101.8,487 L101.5,488.5 C101.3,489.8 100.6,491.9 101.6,493 C102.5,493.9 104.4,494.4 105.6,494.7 C108.5,495.7 110.9,494.5 111.3,491.3 C114.8,476.2 119.8,461.3 121.6,445.8 L121.7,445.2 C121.7,444.7 122.1,444.4 122.5,444.2 C118.4,444.2 114.6,442.4 111.6,439.8 Z M124.6,435.6 L124.6,435.5 L124.5,435.6 L124.5,435.6 L124.5,435.6 L124.5,435.6 L124.6,435.6 Z M117.3,405.9 C116.6,410.3 115.7,414.5 115,418.9 L114.8,420.1 C114.2,423.8 112.6,428.1 116.6,430.5 C122.2,435.4 125.9,434.4 127.5,426.9 C129,422.3 130.4,417.6 131.8,412.8 L132.1,411.7 C132.3,411.1 132.5,410.5 132.9,410.1 C127.4,410.8 121.7,409.2 117.3,405.9 Z M117.8,347.7 C116.1,357.7 112.7,367.3 110.9,377.3 C106.5,394.3 121.3,414.9 139.3,404.6 C149.9,396.7 152.6,382 156.7,370.2 C157.8,366.3 158.6,362.5 159.3,358.5 C144.9,358.4 130.5,354.6 117.8,347.7 Z M194.9,360.2 C195.5,361.3 196,362.5 196.3,363.8 C196.5,362.8 195.9,361.5 196.3,360.6 C195.8,360.5 195.3,360.3 194.9,360.2 Z M187.1,343.8 C186.8,343.8 186.4,344 186.1,344.3 C186.9,348 185.7,351.9 185.5,355.7 C204.1,359.9 223.3,362.7 242.3,359.4 C245.8,359.4 245.6,353.4 246.8,350.8 C247.2,349.1 248.2,347.3 248,345.5 C247.8,345.2 247.6,345.3 247.8,345.2 L247.8,345.2 L247.8,345.2 C246.8,346 245.1,345.1 245.3,344 L245.3,344 C245.1,344.1 244.9,344.2 244.7,344.2 C246,345.4 244.8,347.7 243,347.1 C226.5,353.6 203.4,352.2 187.5,345.2 C187.1,344.9 187,344.3 187.1,343.8 Z M112.8,331 C112,330.3 111.7,334 111.5,334.6 C111.4,336.1 110.7,337.6 110.8,339.1 C123.4,349.9 143.7,354.9 160.2,355.1 C160.7,354.7 161.4,354.7 162,354.9 C164.5,354.6 165.7,352.2 166.5,350 L166.6,349.6 C167,348.6 167.4,347.6 167.9,346.7 C149.3,347.3 130.2,343.7 113.9,334.4 C111.7,334.6 112.2,332.5 112.8,331 Z M123.2,242.8 C116.4,245.2 109,245.7 102.1,243.9 C103.6,255.3 105.1,282.5 114.9,289.1 C116.5,288.8 118.2,288.7 119.8,288.9 C120.8,289 121.8,289.1 122.8,289.3 C123.2,289.3 123.9,289.4 124.4,289.4 L124.5,289.3 C124.3,289.4 124.2,289.4 124.5,289.3 L124.6,289.3 L124.7,289.3 C128,289 131.1,284.3 134.4,286.5 C134.9,285.8 135.7,285.3 136.3,284.7 C138.8,280.2 136.1,274.5 137.8,269.8 C137.1,269 137.4,267.6 138.4,266.9 C139.9,265.5 143.3,266.5 144.2,264.5 C144.1,264.6 144.1,264.4 144.1,264.4 L144.1,264.4 L144,264.2 C137,258.5 130.3,252.1 125.8,244.1 L125.6,243.9 C124.8,244.7 123.3,244.1 123.2,242.8 Z M281.5,238.9 C276.5,241.7 271.1,243.6 265.6,244.7 C264.6,255.1 263.4,265.5 261.6,275.8 C264.3,276.1 267.1,277.2 269.5,275.3 C276.3,268.7 278.7,255.5 281.4,246.6 L281.5,246.2 C282.1,244 282.7,241 281.5,238.9 Z M212.1,22.6 C211.4,26.1 215.3,64.8 208.1,58.2 C203.3,50.6 197.8,43.5 192.8,36 C192.1,38.7 194.1,41.9 193.2,44.2 C205.8,107.2 214.9,171.2 218.3,235.4 C223.9,239.3 228.8,244 233.5,248.8 C235,250.1 236.1,252.1 238,252.9 C245.7,244.2 254.6,236.6 262.7,228.3 C262.6,227.9 262.6,227.5 262.5,227 C262.3,225.5 264.4,224.7 265.1,225.7 C267.9,222 268.2,210.3 267.6,205.4 C266.4,194.5 262.3,184 259.4,173.4 C251,141.1 245.1,107.2 247.9,73.8 C247.9,73.5 248.3,73.4 248.4,73.8 C250.7,109.1 254.2,144.5 264.9,178.5 L265.1,179.4 C269.3,193.1 274.4,207.6 270.9,222 C271.2,224 270.2,225.9 268.8,227.3 C268.1,229.2 267.2,231.1 266,232.8 C266.3,235.7 266.2,238.7 265.8,241.7 C271.6,240.6 276.9,238.3 282,235.5 C282.3,233.8 282.5,232.2 282.7,230.5 C286.5,199.8 275,169.9 263.4,142 C252.4,109.5 254.5,74.2 245.3,41.4 C239.5,28.5 223.6,27.5 212.1,22.6 Z M149.6,20.2 C146.9,21.2 144.1,22.3 141.1,22.4 C132.2,25.4 123.1,27.7 114,30.1 L113.2,30.4 C109.3,31.4 105.4,32.6 102.8,35.9 C100.3,39 99.3,43 98.4,46.8 C94.6,80.2 92.5,113.9 90.5,147.4 C89.6,175.4 90.1,203.8 97.3,231 C98.3,234.7 99.5,238.4 99.9,242.3 C100.4,242.3 101,242.3 101.5,242.4 C101.5,242.1 101.9,242.1 101.9,242.4 C108.8,243.5 116,242.8 122.6,240.1 C120.9,191.2 110.5,138.1 134.2,92.6 C134.3,92.5 134.6,92.6 134.5,92.8 L133.9,94.5 C132.1,99.9 130.2,105.3 128.9,110.9 C130.8,110.6 132.2,115.1 132.5,116.1 C142.8,147.3 136.5,180.6 135.2,212.6 C138.7,215.1 142.2,217.7 145.7,220.2 C160,230.4 174.4,240.4 189.1,249.9 C197.5,244.5 205,237.4 213.6,232.5 C211.1,166.3 197.6,100.9 190.2,35.6 C187.5,39 184.7,42.3 182,45.7 C178.4,50 175,54.5 171.4,58.9 C170.7,59.8 169.1,59.5 168.6,58.6 C161.7,46.1 157.3,32.3 149.6,20.2 Z M128.8,111.4 C118.6,153.4 127,196.6 126.9,239.1 C127.6,239.7 127.4,241 126.5,241.5 C126.3,242.1 126.2,242.6 126,243.2 C126.7,243.9 127.4,244.6 128.2,245.2 C127.6,236 132.3,227.6 135,218.9 C133.6,217.9 132.2,217 130.9,215.9 C129.9,215.1 129.8,214.2 129.9,213 L129.9,213 C131.2,185.6 136.1,158.3 133,130.9 C132.5,125.7 131.6,120.6 130.5,115.5 L130.5,115.4 C130.3,114.4 130,111.6 128.8,111.4 Z M282,238.7 L281.9,238.7 L282.1,238.9 C282,238.8 282,238.8 282,238.7 Z M220.9,224.4 C218.5,222.1 222.1,218.4 224.5,220.8 C226.8,223.1 223.2,226.8 220.9,224.4 Z M219.3,196.9 C218.8,195.5 220.2,193.3 221.8,194.2 L221.8,194.3 L221.8,194.2 C223.3,195.1 222.8,196.9 221.9,197.9 C221,198.9 219.8,197.7 219.3,196.9 Z M217.1,165.1 C213,159.8 221.6,157.6 220.2,164.2 C219.9,165.4 217.4,167.2 217.1,165.1 Z M211,135.1 C208.8,132.5 213.5,130.2 214.5,133.4 C215,135.5 212.4,136.8 211,135.1 Z M232.9,69 C234.1,69.2 240.7,67.9 239,70.6 C241.6,83.7 249,99.7 238.5,111.2 L238.4,111.3 C236.8,112.9 234.3,116.6 231.9,115 C226.6,110.6 219.8,107.4 215.8,101.7 C214.1,97.2 215.5,92.2 215.1,87.5 C214.9,81.6 213.9,75.7 213.7,69.8 C213.7,69.5 214,69.4 214.2,69.6 C220.4,69.1 226.6,69.2 232.9,69 Z M214.4,70 C217.2,79.1 217.3,88.9 217.2,98.3 C217.2,99.3 217.4,100.2 217.9,101 C221.9,105.7 227.7,108.7 232.4,112.6 C234.3,111.3 235.9,109.7 237.2,107.9 C245.6,97 238,83.2 238,71 L237,71 C229.4,71 221.9,70.9 214.4,70 Z M208.1,103.9 L208.1,103.9 C211,103.9 210.4,108.8 207.6,108.1 C205.4,107.5 205.7,103.9 208.1,103.9 L208.1,103.9 Z M202.4,79 C200.4,75.6 207,74.3 206.3,78.2 L206.3,78.1 C206.3,78 206.3,78 206.3,78 L206.3,78.3 L206.3,78.3 C206.1,80.1 202.6,81.3 202.4,79 Z M197.9,50.9 L198,50.9 C199.8,50.4 201.2,53 199.6,54.1 C197.3,55.9 195.3,51.6 197.9,50.9 L197.9,50.9 Z M153.1,11.1 L152.9,10.9 C150.5,8.7 148.7,7.6 148.2,12.1 C147.8,14.3 148.1,17 150.2,18.3 C160.2,28.2 164,42.3 170.5,54.4 C176.3,47.4 181.7,40.1 187.3,32.9 C179.6,28.2 171.7,23.5 164.1,18.6 C160.4,16.1 156.5,13.9 153.1,11.1 Z M203.5,16.9 C200.5,21.8 197.7,27.2 193.9,31.5 C193.4,32 192.9,32.4 192.3,32.7 C193.1,32.4 194.1,33 194,33.8 C199.6,39.4 204.1,45.9 208.5,52.4 C209.3,41.6 207.7,30.7 208.4,19.9 C206.9,18.6 205.3,17.7 203.5,16.9 Z" id="🖍-Ink" fill="currentColor"></path></g><g id="Head" stroke-width="1" transform="translate(95.9, 42.7)"><g id="head/Long-Curly"><path d="M81.6,34.8 C65.9,22.1 40.9,18 24.2,30.8 C11.2,42.8 5.8,76.9 8.1,94 C8.8,105 17.2,117.4 29.5,114 C31.6,113.7 33.6,112.9 35.8,112.8 C38.3,112.5 40.8,112.5 43.4,112.8 C48.9,113.6 53.8,116.5 59.1,117.9 C69,120.4 80.1,118.7 88.6,113 C116.8,94.5 104,52.7 81.6,34.8 L81.6,34.8 Z" id="🎨-Background" fill="#FFFFFF"></path><path d="M79.5,118.2 C79.8,118.1 80.1,118 80.3,117.9 C80.4,118 80.4,118 80.4,118.1 C80.5,118.2 80.5,118.3 80.6,118.4 C80.2,118.4 79.8,118.3 79.5,118.2 M78.9,-4.6 C78.8,-4.9 78.6,-5.1 78.5,-5.4 C78.9,-5.3 79.3,-5.1 79.6,-4.9 C79.4,-4.8 79.1,-4.7 78.9,-4.6 M17.2,32.9 C17.2,32.9 17.2,32.9 17.1,32.9 C17.4,32.3 17.7,31.8 18.2,31.4 C18.2,31.4 18.3,31.3 18.4,31.2 C17.9,31.7 17.5,32.3 17.2,32.9 M130.1,91.8 C129.9,89.8 129.6,87.8 129.3,85.9 C128.9,84 128.7,82 127.7,80.3 C126.8,78.7 125.8,77.1 124.7,75.6 C124.8,74.9 125,74.2 125.2,73.6 C126.3,70.3 127.4,66.2 125.1,63.2 C124.6,62.5 124,62 123.3,61.5 C123,61.3 122.5,61.1 122.2,60.8 C122.1,60.6 122.1,60.7 122.1,60.6 C122.1,60.1 123.3,58.9 123.6,58.5 C124.2,57.7 124.6,56.9 124.9,55.9 C126.1,52.4 125.3,48.4 124.5,44.9 C124.1,43 123.7,41.1 123.6,39.1 C123.4,37.3 123.7,35.5 123.8,33.7 C124,31.9 123.9,30.1 123.2,28.4 C122.8,27.6 122.2,26.9 121.5,26.4 C120.9,25.8 120,25.5 119.4,25 C118.7,24.4 118.9,23.7 119.1,22.9 C119.3,21.9 119.6,20.9 119.6,19.9 C119.7,18.1 118.9,16.3 117.8,14.9 C116.6,13.5 114.9,12.5 113,12.3 C112.2,12.2 111.3,12.4 110.5,12.3 C109.7,12.3 109.5,11.9 109.3,11.1 C109,9.4 109.1,7.7 108.3,6 C107.5,4.6 106.2,3.6 104.7,3 C101.9,2 98.7,2.2 95.8,2.8 C94.1,-2.2 88.8,-5.5 83.6,-5.5 C82.8,-6.9 81.4,-7.9 79.8,-8.5 C77.2,-9.5 74.4,-8.9 71.7,-8.9 L71.7,-8.9 C71.4,-9 71.1,-9 70.9,-9 C70.6,-9 70.4,-9 70.1,-9 C67,-9.4 63.9,-10.7 60.9,-9.4 C59.5,-8.9 58.4,-8 57.7,-6.9 C56.7,-6.7 55.7,-6.3 54.7,-6 C50.3,-5.8 46,-3.5 43.8,0.3 C40.7,-0.1 37.3,0.5 35.3,3 C34.7,3.7 34.3,4.5 34.1,5.3 C32,6 30,7.2 28.8,9 C27.6,10.6 27.4,12.8 28.2,14.5 C26.3,15.9 24.9,17.8 24.2,20.1 C23.7,21.5 23.7,22.9 23.9,24.3 C22,24.7 20.2,25.5 18.6,26.7 C16.9,27.9 14.8,29.8 14.7,32.1 C14.6,32.3 14.7,32.4 14.7,32.6 C10.9,32.3 7.1,33 4.6,36 C2.7,38.2 1.9,41.1 2.4,43.7 C-2.1,44.6 -6.3,46.9 -9.2,50.4 C-11.3,52.9 -13.2,56 -13.1,59.4 C-13.1,60.4 -12.8,61.5 -12.4,62.4 L-12.4,62.4 C-12.6,62.7 -12.8,63.1 -12.9,63.5 C-15.7,65.4 -17.7,68.5 -18.8,71.8 C-19.7,74.5 -20.3,78 -19.3,80.7 C-19.2,81.1 -19,81.5 -18.8,81.9 C-19,82.1 -19.1,82.3 -19.3,82.5 C-21.2,84.6 -23,87.3 -22.9,90.3 C-22.9,91.5 -22.4,92.7 -21.7,93.7 C-24.2,96.3 -26.3,99.6 -26.1,103.2 C-25.9,106.4 -24.2,109.7 -21.4,111.2 C-21.9,113.6 -21.3,116.2 -19.4,118.1 C-18.4,119.1 -17.3,119.7 -16.1,120.1 C-15.8,123 -13.3,125.3 -10.5,126 C-10,126.1 -9.5,126.2 -9,126.2 C-6.6,127.4 -3.6,127.3 -1.1,126.2 C-0.4,127.1 0.6,127.9 1.7,128.4 C2.2,128.6 2.6,128.8 3.1,129 C6.7,130 10.3,128.6 13.4,126.9 C13.5,126.9 13.7,126.8 13.8,126.7 C14.3,127.2 15,127.7 15.5,127.9 C16.8,128.7 18.5,129.1 20.1,129 C21.9,128.8 23.6,128.2 25.1,127.4 C25.3,127.4 25.5,127.4 25.8,127.4 C27.2,127.5 28.5,127.1 29.6,126.4 C30.4,126.5 31.1,126.4 31.9,126.3 C33.6,126.7 35.3,126 36.7,124.9 C37.3,124.5 37.8,123.9 38.3,123.3 C38.9,122.8 39.3,122.6 40,122.2 C41.5,121.3 41.7,119 41,117.4 C41.2,117.1 41.2,116.7 41.2,116.4 C41.2,113.2 39.8,110.4 38,107.8 C37.2,106.7 36.3,105.6 35.4,104.6 C34.6,103.8 33.6,102.5 32.4,102.2 C32.4,102.2 32.3,102.1 32.2,102.1 C32.4,101.3 32.6,100.5 32.5,99.7 C32.5,98.9 32.2,98.1 31.8,97.5 C33.2,94.7 33.8,91.7 33.5,88.6 C34.7,87 35.5,85.2 36,83.2 C36.3,82 36.4,80.7 36.4,79.4 C36.4,78.8 36.2,78.1 36.2,77.4 C36.2,77.6 36.5,76.9 36.6,76.7 C37.7,74.6 39.2,72.9 39.4,70.4 C39.6,69 39.2,67.4 38.3,66.2 C38.9,63.9 38.9,61.6 38,59.5 C37.8,58.9 37.5,58.3 37.2,57.8 C37.3,57.4 37.5,56.9 37.6,56.5 C37.7,56.4 37.8,56.2 37.8,56 C38.5,55.5 39.1,54.9 39.6,54.3 C40.7,52.9 41.5,51.4 41.6,49.6 C41.7,48.7 41.5,47.9 41.2,47 C41.1,46.6 41,46.2 40.9,45.8 C40.8,45.6 40.7,45.4 40.6,45.2 C40.6,45.2 40.6,45.1 40.6,45.1 C40.6,45.1 40.6,45 40.6,44.9 C40.6,44.1 40.7,43.2 40.7,42.4 C41.5,43.2 42.4,43.8 43.5,44.1 C45.6,44.8 47.9,44.5 49.8,43.4 C51.8,44.9 54.1,46.1 56.6,46.6 C58,46.9 59.4,46.8 60.9,47 C62.3,47.2 63.7,47.8 65,48.3 C68,49.4 71,50.5 74.1,51.5 C76.5,52.4 79.1,53.1 81.7,52.6 C82.4,53.7 83.3,54.6 84.5,55.3 C85.3,55.8 86.3,56.1 87.3,56.3 C88.1,56.4 89.1,56.4 89.8,57 C90.5,57.5 90.9,58.4 91.5,59 C92.2,59.7 93,60.3 93.9,60.8 C94.6,61.1 95.3,61.4 96,61.6 C96,63.2 95.9,64.8 95.9,66.4 C95.9,70 95.9,73.5 95.8,77 C95.8,80.5 95.7,84 95.5,87.5 C95.3,90.8 95.1,94.1 94.3,97.3 C91.7,108 81.9,115.6 71,116 C67.7,116.1 64.5,115.6 61.4,114.7 C58.2,113.7 55.3,111.7 52,111 C51.2,110.9 50.3,111.8 50.8,112.6 C51.7,114 52.7,114.9 54.1,115.7 C55.6,116.6 57.3,117.3 58.9,117.9 C61.9,119 65.1,119.6 68.2,119.8 C70.7,119.9 73.1,119.7 75.5,119.3 C75.6,119.8 75.9,120.3 76.1,120.7 C76.2,120.8 76.3,120.8 76.3,120.7 C76.2,120.6 76.2,120.5 76.2,120.4 C77,121.4 78.2,122.1 79.5,122.5 C80.4,122.7 81.3,122.8 82.2,122.7 C82.5,122.7 82.8,122.6 83.1,122.6 C84,123.4 85.2,123.9 86.4,124.2 C86.2,125.5 86.9,126.8 88.3,127.2 C88.9,127.3 89.5,127.3 90.1,127.3 C90.5,127.5 91,127.7 91.6,127.8 C92.3,127.9 93.1,127.7 93.6,127.2 C93.9,127.4 94.2,127.6 94.4,127.9 C95.5,129.2 97.9,128.2 98,126.6 C98.3,126.6 98.7,126.6 99,126.7 C99.1,126.7 99.2,126.7 99.3,126.8 C100.8,127.5 102.4,128.1 104.1,127.5 C104.4,127.4 104.7,127.3 104.9,127.2 C106.1,127.3 107.3,127.3 108.5,126.9 C109.2,126.6 109.9,126.3 110.5,125.8 C112.3,126.3 114.3,126.6 116.1,125.9 C117.5,125.4 118.6,124.6 119.4,123.6 C120.6,123.6 121.8,123.3 122.9,122.7 C124.8,121.8 126.1,119.9 127.1,118.1 C129.1,114 130.3,109.6 130.8,105.1 C131.2,100.6 130.6,96.2 130.1,91.8" id="🖍-Ink" fill="currentColor"></path></g><g id="face/Smile" transform="translate(37.8, 44.1)" fill="currentColor"><path d="M34.8,57.1 C33.2,56.5 31.8,55.4 30.8,54 C30.4,53.5 30.3,53 30.4,52.5 C30.5,52 30.8,51.5 31.2,51.2 C31.6,50.9 32.1,50.7 32.7,50.8 C33.1,50.9 33.5,51.1 33.9,51.6 L34,51.7 C34.6,52.6 35.4,53.3 36.3,53.7 C37.2,54.1 38.2,54.3 39.2,54.2 C41.2,54 42.5,52.9 43.9,51.5 C44.1,51.3 44.3,51.1 44.5,50.9 C44.6,50.8 44.7,50.7 44.9,50.6 C45.1,50.5 45.3,50.5 45.5,50.6 C45.7,50.7 45.9,50.8 46,51 C46.1,51.1 46.2,51.3 46.2,51.6 C46,53.1 45.3,54.4 44.2,55.4 C42.9,56.6 41.3,57.4 39.8,57.6 C38.1,58 36.4,57.7 34.8,57.1 L34.8,57.1 Z M40.6,34.2 C42.4,35.3 45.1,37.8 43.2,40.5 C40.9,42.9 37.6,40.2 36,39 C34.5,38 32.8,40.5 34.2,41.6 C45.9,50.2 50.6,34.5 41.5,32.9 C40.5,32.8 40.1,33.9 40.6,34.2 Z M19.7,24.2 C19.9,21.8 23.6,21.2 24,23.6 C24.4,25.8 24,27.8 23,29.8 C22,31.6 19.7,30.8 19.5,29.1 C19.3,26.8 19.6,25.7 19.7,24.2 Z M48.2,23.1 C48.7,22.4 49.5,22 50.4,22.2 C53.2,23.1 52.4,27.1 51.4,29 C50.9,30.1 49.1,30.3 48.3,29.4 C47,27.9 46.4,24.9 48.1,23.4 C48.1,23.3 48.2,23.2 48.2,23.1 Z M22.9,13.5 L23.4,13.4 C24.8,13.2 26.5,12.9 27.5,14 C28,14.6 28.2,15.7 27.5,16.3 C26.2,17.3 24.9,16.9 23.4,17 C22.2,17 21,17.2 19.9,17.6 C17.3,18.3 15.2,19.6 13.1,21.1 C12.8,21.3 12.5,20.9 12.6,20.6 C13.9,18.2 16.3,16.2 18.8,14.9 C20.1,14.3 21.5,13.7 22.9,13.5 Z M45.6,12.4 L46,12.4 C49.7,13.2 54.5,14.8 56.3,18.4 C56.3,18.9 56.3,19 56.2,19.1 L56.2,19.1 C56.2,19.2 56.1,19.3 55.9,19.3 C55.8,19.3 55.8,19.3 55.7,19.3 C54.9,19.1 54.3,18.8 53.6,18.5 L53,18.2 C52.2,17.8 51.4,17.4 50.6,17.1 C48.8,16.6 47,16.2 45.1,15.9 C44.7,15.9 44.3,15.8 44,15.5 C43.8,15.3 43.5,15 43.4,14.6 C43.3,14.1 43.3,13.7 43.6,13.2 C43.8,12.9 44.1,12.6 44.5,12.5 C44.8,12.3 45.2,12.3 45.6,12.4 Z" id="🖍-Ink"></path></g><g id="facial-hair/*-None" transform="translate(29.2, 80.1)"></g><g id="accessories/Glasses-4" transform="translate(11.2, 57.1)"><path d="M87.9,22.3 C85.8,25 77.2,28 72.7,24.8 C68.1,21.5 66.3,19.2 65.7,15.1 C65.7,14.7 64.9,14.4 64.5,14.7 C62.7,16.4 61.5,18.6 60.3,20.9 C58.9,23.3 57.6,25.9 55.1,27.6 C50.8,29.9 42.9,30.2 40.5,29.2 C36.1,27.2 32.6,23 31.7,17.2 C31.2,15.5 30.7,14.5 30.2,14.1 C29.5,13.6 25.8,13.1 25.4,13.1 C18,11.7 8.7,10.8 2.1,15.6 C1.2,16.2 -1.9,18.2 -1.9,17.7 C-1.9,15.7 0.3,11.3 5.3,9.2 C11.5,6.7 20.7,6.5 26.1,7.1 C26.3,7.1 27.3,6.9 27.3,6.9 C35.4,3.4 44.7,4.3 53.4,5.8 C54.6,6 65.8,8.7 70.2,7.1 C77.5,4.1 85.3,1.9 93.2,2.8 C93.2,2.8 94.2,8.8 93.5,9.2 C92.8,9.6 91.8,10.4 91.4,10.9 C91.1,11.3 90.9,11.8 90.9,12.5 C91,16.6 89.9,19.9 87.9,22.3 Z M57.9,18.6 C58.8,17.3 59.1,14.3 58.7,12.1 C58.5,11 58.1,10.1 57.7,9.7 C57.3,9.4 57,9.2 56.6,9.3 C56.4,9.3 56.1,9.3 55.9,9.5 C52.5,7.7 48.4,7 44.6,7.2 C41.5,7.2 39.3,7.9 37.8,9 C36,10.4 35.2,12.4 35.1,14.5 C35.1,17 36.1,19.7 37.8,21.9 C39.4,24 41.7,25.5 44.1,25.9 C46.8,26.4 49.6,25.9 52,24.6 C54.5,23.3 56.6,21.2 57.9,18.6 Z M84.9,20.1 C86.5,18.2 87.5,15.8 87.7,13.5 C87.8,11.3 87.2,9.2 85.6,7.4 C84.2,6.1 81.6,6.1 78.9,6.8 C75.4,7.7 71.8,9.7 70.6,11 C70.3,11.2 70,11.4 69.8,12 L69.8,12.2 C69.4,13.8 69.7,15.5 70.3,17.1 C71,18.8 72.2,20.4 73.6,21.6 C75.5,23.1 77.5,23.6 79.3,23.4 C81.5,23.1 83.4,21.8 84.9,20.1 Z" id="🎨-Background" fill="#FFFFFF"></path><path d="M69.9,6.4 C77.3,3.4 85.2,1.2 93.2,2.1 C93.9,1.8 94.7,2 95,3 C97.9,11.7 91.5,9.2 91.6,12.5 C92.3,30.7 67.8,33.8 65,15.2 L65,15.2 L65,15.2 C61,18.9 60.2,24.9 55.5,28.1 C46.1,35 32.8,29.6 31,17.3 L31,17.2 C30.4,14.7 29.7,14.1 26.9,14.1 L26.5,14 C19.1,12.5 9.3,11.2 2.5,16.2 C1,17.1 0.9,19.3 -0.3,20.2 C-1.7,20.5 -2.5,18.9 -2.6,17.7 C-2.8,6.4 17.5,5.6 26.6,6.6 C26.7,6.4 27.1,6.4 27.2,6.6 C35.5,3.1 44.7,3.6 53.5,5.1 C59,6.1 64.4,8.5 69.9,6.4 Z M92.5,4.2 C88.1,4 84,4.2 79.6,5.3 C77.3,5.8 75.5,6.5 73.3,7.4 C59.6,13.4 58,2.6 27.3,6.9 C27.7,8.6 27.8,10.3 27.8,11.8 C34.1,11.6 32.6,17.6 34.9,21.8 L35,21.9 C38.4,28 46.5,30.9 53.1,26.8 C58.5,23.7 59,15.6 64.4,12.4 C69.1,12.3 67.3,18.6 69.8,21.2 C73.4,26 81.1,26.7 85.6,22.1 C87.7,20 88.8,17.2 88.9,14.3 C89,12.4 88.7,10.5 90.1,9.1 C91.1,8.1 92.9,8.4 93.1,6.9 C93.2,6 92.9,5 92.5,4.2 Z M44.2,6.7 C48.7,6.4 53.3,7.2 57.1,9.4 C59.9,7.1 60.6,16 58.7,18.5 C56.1,24 49.8,27.6 43.8,26.4 C34.4,25.1 27.9,6.6 44.2,6.7 Z M56.8,10 L56.6,9.9 C52.5,9.3 41.5,6.4 37.2,11 C33.1,18.5 43.6,31.1 54.5,21 C57.5,17.9 58.7,14.2 56.8,10 Z M69.7,10.9 C71.8,8.4 82.5,3.4 86.3,6.6 C93.1,14.3 82.3,29.7 73.2,22.2 C70.2,19.7 68.2,15.7 69.1,11.8 L69.1,11.6 C69.1,11.6 69.1,11.6 69.2,11.5 C69.3,11.2 69.5,11 69.7,10.9 Z M86.2,15.5 C88.5,3.1 78.9,7.8 71,11.1 C71.4,11.5 71.4,12.1 71.3,12.5 C70.4,21.7 81.7,27 86.2,15.5 Z M26.4,7.2 C23.1,8.3 1.3,6.3 -0.7,16.5 C1.4,13 5.8,11.7 9.8,10.9 C15.2,9.9 20.5,10.5 25.8,11.6 L25.9,10.5 C26.1,9.3 26.2,8.2 26.4,7.2 Z" id="🖍-Ink" fill="currentColor"></path></g></g></g></g></g></svg>