<svg viewBox="0 0 255 688" version="1.1" xmlns="http://www.w3.org/2000/svg" xmlns:xlink="http://www.w3.org/1999/xlink"><g id="Introduction" stroke="none" stroke-width="1" fill="none" fill-rule="evenodd"><g id="variations-standing" transform="translate(-1320, -99)"><g id="a-person/standing" transform="translate(1325, 50)"><g id="pose/standing/crossed_arms-1" transform="translate(-28.7, 150.3)"><path d="M274,568.3 C275.4,562.5 273.3,557.9 267.2,554.5 C266.7,553.1 255,548.6 245.7,542.1 C237.3,536.2 231.3,528.1 231,527.7 C229.8,524.8 229.1,522.7 228.9,521.3 C227.9,511.9 228.5,505.7 227.9,502.8 C232.1,502.2 242.6,225.2 240.9,216 C243.7,215.4 246.7,214.8 249.3,213.2 C249.5,213.1 249.2,212.5 249.2,212.4 C255.9,199.4 245.6,155 239.2,142.7 C244.3,142.6 251,141.9 254.2,137.7 C255.7,137.2 256.6,136.3 257.3,135 C258.2,133.7 258.9,132.3 259.6,130.9 C263,123.9 265.1,116.1 264,108.3 C264.2,108.3 265.3,108.3 265.3,108 C265.5,106.1 265.1,104.4 264.5,102.6 C258.7,82.4 251.7,62.4 242.5,43.4 C237.8,33.2 228.2,29.5 218.3,25.7 C213.5,23.8 208.7,21.6 203.7,20.4 C203.7,20 204,19 203.3,19.1 C202.5,19.2 202.7,20.5 202.4,21.3 C190.8,11.8 198.2,7 191.2,1.8 C184,-1.9 175.2,-2.1 167.3,-1.3 C164.4,-1.2 162,0.1 161.3,3.1 C158.8,9.2 152.9,13.6 146.5,15 C145.9,14.1 144.5,11.4 143.7,12.2 C134.4,12.5 120.3,15.9 111.6,18.5 C102.8,20.7 94,24.8 91.7,34.3 C87.6,51.1 94.2,120.5 105,133.8 L105.3,133.8 C107.3,135.8 109.9,137.2 112.8,138.2 C112.7,144.4 110.8,150.5 109.8,156.6 C107.6,167.7 105.9,178.8 103.4,189.9 C103.4,191.2 98.7,208.2 103.4,204.7 C104.3,205.2 105.5,205.7 106.5,206.2 C101.6,217.3 99.3,235.3 99.7,249.1 C99.8,257.3 99.4,264.5 97.6,272.9 C84,344.1 71.9,503.4 71.6,505.5 C71.4,507.6 73.1,518.6 71.6,521.5 C70.3,524.1 64.8,522.6 63.7,523.6 C61,528.1 62.2,530.9 60,535.4 C58.8,536.4 56.2,538.7 55.4,540.3 C53.6,541.9 25.1,560.6 26.3,563.5 C26.3,563.5 26.1,564.8 26.1,565.1 C23.6,579.3 27.7,579.1 40.8,581.2 C60,584.6 74.3,578.1 90.4,569.4 C95.8,565.8 103.5,558.9 101,550.7 C100.9,550.2 99.4,541.6 98.8,537.2 C99.9,534.9 98.4,533.9 94.3,534.2 C95.3,533.1 97.5,518.7 96.8,516.9 C96.3,512 97,507.5 96.8,502.5 C99.4,502.7 144.5,289.1 172.8,275.9 C173,277.3 172.7,279.9 174.5,280.2 C183.3,348.4 204.4,501.1 205.3,501.4 C203.9,509.2 203.9,527.2 203.9,535 C203.7,535.2 202.6,536.1 202.5,536.3 C202.4,536.2 201.8,536.9 201.7,536.9 L201.7,536.7 C198.7,543.4 194.3,550.3 198.2,556.9 C195.3,556.7 195.8,562.2 195.6,564.7 C197.3,569.6 243.4,582.9 253.8,583.6 C257.1,584.2 272.9,579.2 276,578.4 C279.9,577.7 276,570.4 274,568.3 Z" id="🎨-Background" fill="#FFFFFF"></path><path d="M163.2,1.4 C164.7,1.4 165,3.3 164,4 L164,4.1 C163.1,4.7 162.7,5.2 162.2,6.2 C159.9,12.3 153.4,15.8 147,14.5 C149.3,18.6 150.7,22.6 152.9,26.6 C163.1,47.5 196.5,54.3 200.5,25.6 C194.4,24.5 190.8,10.7 194.7,6.6 L194.8,7.1 C195.9,12.5 196.7,18 200.8,22.1 C200.9,22.1 201.1,22.1 201.2,22.1 C201.3,21.4 201.5,20.7 201.7,19.9 C202.3,18.2 205,18.5 204.9,20.4 C213.1,22.9 220.9,26.4 228.7,29.8 C235.2,32.6 240.5,37.7 243.5,44.1 C252,61.6 258.4,80 264.1,98.6 C264.5,101.1 268.7,110.4 265.3,111.3 C266.1,119 264,126.8 260.7,133.7 C259.2,136.3 258.1,139.9 255,141 C251.8,144.9 246,146 241.1,146.3 C247.7,161.6 256.5,200.7 250.5,216 C251.1,218.5 244.1,219.6 242.3,220.2 C243.8,229.1 243.5,238.3 242.8,247.2 C236.8,323.6 235.6,400.5 242,476.9 C242.4,481.7 242.8,486.4 243.2,491.2 L243.4,494.1 C243.8,497.9 244.1,501.7 244,505.5 C243.9,506.8 242.8,507.6 241.7,507.7 C238,510 233,510.1 228.8,510.6 C229.5,514.8 229.9,521.2 231.3,524.7 C234,524 235.8,526.5 233.1,528 C236.4,529.8 238.2,533.4 240.9,536 C248.3,532.9 249.7,537.5 243.6,538.5 C245.3,539.9 247.1,541.1 248.9,542.3 L249,542.3 C251.2,542 255.2,540.2 256.2,542.6 C256.7,544.3 254.6,544.8 253,545 C254.4,545.9 255.8,546.7 257.1,547.6 C258.3,547 259.5,546.4 260.7,546 C263.7,545.3 263.9,549.2 260,549.4 C262.5,551.2 265.8,550.1 267.4,552.7 C273.1,555 275.8,561.9 274.4,567.4 C276.4,569.2 277.8,571.9 278,574.5 C278.4,577.4 276.1,580.1 273,580.9 C269.5,582 266,583.1 262.5,584.1 L262.1,584.2 C259.2,585.2 256,586.1 253,585.9 C235.1,584.8 211.2,577.5 196.9,568.3 C193.3,565.7 192.7,559 197.6,556.9 C195.3,552.8 196.4,549.8 197.4,545.3 C198,542.4 198.9,539.4 200.6,536.7 C200.7,536.5 201.1,536.6 201.1,536.8 C201.3,539.9 201,543 200.8,546 L200.8,546.4 C200.6,549.2 200.1,550.3 200.9,552.9 C202.7,559.8 220.5,563.2 227.5,566 C232.9,567.7 238.5,569.2 244.1,570.6 L244.6,570.7 C249.3,571.7 254.2,573.3 259.2,572.5 C261.8,570.6 265.7,571.1 268.3,568.9 C272.2,564.8 269.1,558.7 266.4,554.9 C263.8,555.8 261.6,553.5 259.7,552.3 L259.6,552.3 C257.6,551.1 255.7,551.9 253.7,550.7 L253.3,550.8 C246,552.1 240.4,553.7 252,549.6 C250.1,548.4 248.2,547.2 246.3,546 C242.5,546.4 238.4,548.4 234.9,548.6 C237.2,546.4 240.5,545.2 243.5,544 C241.7,542.6 240,541.2 238.5,539.6 L237.1,539.9 C228.2,542.1 224.8,542.8 236.7,537.4 C234.3,534.8 234,531 231.4,528.5 C227.2,529.4 223.4,531.2 220.1,533.6 C218.7,534.6 217.7,535.8 216.6,537 C211.5,543.6 203.5,544.6 201.1,536 C201.1,535.9 201.3,535.8 201.4,535.9 L201.4,535.9 C202.6,538.6 206.3,540.7 209.4,539.1 L209.5,539 C212.6,537.4 214,534.2 216.4,532 C219.7,529 223.7,527.1 227.9,525.6 C226.9,521.9 226.6,515.1 226.7,510.8 C219.6,511.1 212.5,510.8 205.6,509.4 C206.7,517.5 205.9,528.1 206.5,535.3 C207.2,537.7 202.7,539.2 202.2,536.8 C201.9,529 202.7,517.7 203.9,509 L203.4,508.9 C202.9,508.8 202.4,508.6 202,508.4 C197.6,508.9 198.8,497.6 198,494.4 C193,424.3 182.4,354.8 173.4,285.1 C172.2,284.6 171.9,283.1 171.7,281.8 C160.4,289.5 158.1,304.8 153.1,316.7 C130.9,378.2 121,443 105.6,506.4 L105.7,506.4 C105.7,506.4 105.7,506.4 105.6,506.4 L105.6,506.4 L105.6,506.4 C106.5,506.5 107.3,507.5 106.7,508.5 C105,511.9 100.2,510.7 97,510.5 C97.3,515.9 96.2,527.4 96.9,532.2 C100.8,532.3 101,536.6 101.5,539.1 L101.6,539.4 C102.3,543.7 104.6,551.9 102.9,555.4 C105.5,558.6 103.6,562.9 100.8,565 C97.9,567.2 94.2,568.5 90.8,570.2 C75,576.6 59.8,588.8 40.4,584.1 L39.6,583.9 C26,581.1 22.1,579.8 24.8,566.4 C23.7,563.7 23.7,560.7 25.2,558.3 C28,554.7 32.7,552.8 36.4,550.1 C42.7,545.9 49.4,542.2 55.5,537.8 C55.3,537.6 55.6,537.5 55.8,537.6 C60.1,534.2 59.7,528.3 62.7,524.1 C63.5,522 67.3,521.5 69.8,521.8 C69,517.7 72.9,499.5 73.3,512.4 L73.3,512.6 C73.4,514.6 73.7,521.2 73.1,522.5 C81.4,525.1 83.2,533.1 85,539.5 L85.1,539.5 C85.7,539.7 86.5,539.8 86.8,540.4 C89.4,538.7 90.2,535.3 92.8,533.5 C92.1,532.9 92,531.9 92.4,531 C93.6,526.6 94.3,515.3 96.2,510.4 C87.6,509.1 78.8,508.4 70.4,506.1 C69.3,507.2 67.1,506.8 67.2,504.9 C69.8,462.8 74.3,420.9 79.9,379.2 C84.5,340.1 92.7,301.6 98.3,262.7 L98.4,257.4 C98.5,241.3 99,225.1 105,210 C104.4,209.7 103.9,209.5 103.4,209.2 C96.9,211.9 102,195.6 102.3,192.7 C105.5,175.6 109.2,158.5 111.6,141.4 C109.1,140.5 106.8,139.2 104.8,137.3 C93.1,127.8 86.3,50.6 90.6,35 C92.8,25.3 102.2,20.5 111.2,18.3 L112.5,17.9 C122.6,15.1 132.8,12.5 143.3,11.9 C143.6,11.6 144.7,11.6 144.9,11.9 C145.5,12.3 146.2,13.1 146.7,13.9 C161.2,12.2 157.3,2.8 163.2,1.4 Z M198,557.5 C195.9,562.1 198.6,565.6 203.2,567.6 C218.8,574.8 236.3,580.6 254.3,581.8 C259.8,580.4 265.2,578.2 270.8,576.9 L271,576.8 C273,576.5 273.9,576.1 273.7,574.1 L273.8,573.3 C273.9,571.8 274,570.4 273.9,568.9 C272.2,573 267.1,575.2 262.6,576.1 C255.5,579.4 247.5,576 240.5,574.6 C229.2,571.1 204.7,565.7 198,557.5 Z M99.5,557.6 L99.2,557.7 C97.2,558.3 95.1,559.1 92.9,558.5 C82.7,562 72.8,565.9 62.9,569.9 C52.3,575 35.2,580.9 26,568.7 C27.3,575.1 25.4,577.3 34.2,578.9 C48.2,583.4 59.4,581.1 70.9,574.9 C79.4,570.8 88.5,567.5 96.7,563 L96.8,563 C98.5,561.8 100.4,559.7 99.5,557.6 Z M78.3,529.9 C75.7,525 68.5,522.3 63.2,524.1 C62.6,528.9 64,534.2 61,538.3 C63.7,538.7 66.3,539.3 69,539.8 L71.4,540.3 C72.6,540.6 74.1,541 73.9,542.3 C73.7,543.7 71.9,543.3 70.7,542.9 L70.2,542.8 C66.8,541.8 63.3,540.7 60,539.6 C58.2,541.5 55.8,543.1 53.5,544.6 L54.4,544.7 C57.8,545 61.2,545.4 64.5,546.1 C66,546.5 65.7,548.5 64.2,548.3 C60.2,547.3 56.3,546.1 52.2,545.4 C50.2,546.7 48.3,548 46.3,549.3 C50.2,549.8 54.1,549.9 58,550.2 C60.5,550.5 60.5,553.9 58,553.7 C53.4,553.3 48.9,551.9 44.6,550.4 L42.3,551.9 C39.6,553.7 37,555.4 34.3,557.1 C32.6,558.1 30.5,559.1 29.4,560.6 C25.8,566.4 34.8,571.9 40.8,571.8 C50,571.9 57.6,567.1 65.7,564.3 C70.1,563.2 92.7,551.9 94.8,554.9 C96.1,554.2 97.9,554 98.8,553 C99,548.3 98,543.3 97.2,538.6 C97,537.7 96.6,536.7 96.6,535.9 C92.8,537.3 91.7,542.5 86.8,542.1 C86,543.3 83.6,542.7 82.5,541.7 C81.3,540.7 81.2,539.2 80.9,537.8 L80.8,537.2 C80.3,534.7 79.6,532.2 78.3,529.9 Z M189.9,129.3 L189.3,129.4 C183.2,131 176.7,132.1 170.4,131.7 C169.3,135.8 169.8,145.6 165.4,147.2 C163.9,147.8 161.6,147.3 160.9,145.8 C151.6,145.6 142.4,144.8 133.1,144.2 C126.2,143.7 119,143.7 112.3,141.6 C113.1,145.7 113.4,149.7 112.9,153.8 C111.4,171.6 106.3,188.9 104.5,206.6 L104.5,207.4 L104.4,207.4 C104.4,207.4 104.4,207.4 104.4,207.5 C104.9,207.6 105.4,207.8 105.9,207.9 C106.1,207.8 106.3,207.9 106.4,208.1 C143.2,219.5 182.2,224.4 220.4,219.4 C227.1,218.6 233.8,217.4 240.4,216 C240.3,215.4 241.2,215.3 241.4,215.8 C242.9,215.6 244.3,215.3 245.8,215.1 C245.6,214.6 245.6,214.1 245.8,213.6 C248.6,205.1 247.3,195.4 246.4,186.5 C245.3,173 242.4,159.7 240.1,146.3 C229.2,145.8 218.4,144 207.4,144.2 C206.2,147.2 202.2,149.7 199.1,148 C196.8,146.8 196.2,144.2 195.3,142.1 C193.5,137.8 191.7,133.5 189.9,129.3 Z M143.7,12.3 C132.3,15.7 120.5,18.1 109.2,21.8 C99.7,24.2 93.3,30.1 92.9,40.2 C92.1,61.7 94.5,83.4 98.1,104.7 L98.3,105.6 C100.3,115.9 102,126.3 105.8,136.1 C111.3,138.6 117.5,139.3 123.5,139.6 C132.2,140.1 140.9,140.5 149.7,141.1 L156.5,141.5 C158.5,141.7 161.2,141.3 162.7,142.9 C162.9,143.1 163.1,143.1 163.3,143.2 L163.4,143.2 C163.6,143.4 163.8,143.7 164.1,143.7 C164.6,143.5 164.8,142.5 165,142 L165,142 C165.6,139.4 166.1,136.7 166.7,134.1 C168.1,129 168.7,123.5 170.9,118.6 C167.8,116.7 164.9,114.5 162.5,111.8 L159.5,110.8 C152.4,108.3 145.3,105.9 137.9,104.4 C137.7,106 135.4,107 134.5,105.3 C133.1,101 132.8,96.3 131.8,91.8 C129.5,78.5 126.9,65.3 125.3,51.9 C129.6,63.8 131.8,78.3 135.1,91.1 C135.3,91 135.5,91.1 135.5,91.3 C147.1,86.9 160,87.1 171.5,91.8 C174.4,92.9 177.3,93.9 180.1,95.1 C181.1,95.7 183.1,95.6 183.4,96.8 C183.7,96 184.2,95.3 184.8,94.8 C185,94.3 187.3,93.6 187.5,94.4 C200.5,96.2 213.2,101.9 226.6,100.9 C225,95.1 225.2,88.9 225.1,82.9 L225.1,82.2 C225.4,76.4 225.6,69.1 227.6,64.2 C226.3,76.4 227.3,88.6 228.8,100.7 C238.3,99.5 233.9,104.9 227.6,104.7 C214.9,105.6 203.2,100 191.5,95.9 C185.1,93.3 184.3,95.5 184.6,101.6 C184.6,109.5 188.2,116.7 191.5,123.7 L192.9,126.9 C195.3,132.4 197.7,137.8 200.1,143.3 C210.4,139.9 221.9,141.8 232.6,142.4 C240.7,143.4 246.6,143 253.4,138.3 C255.9,133.6 259.2,129.1 260.5,123.8 C261.9,118.9 262.4,113.8 262.9,108.7 L262.5,107.3 C257.5,89.1 251.9,71 244.3,53.7 L243.9,52.7 C241.4,46.7 238.8,40.4 233.6,36.2 C224.8,29.8 214,27 204.9,21.2 L204.8,21.6 C203.9,28.2 202.3,35 198.1,40.3 C190.3,49.8 175.6,50.1 165.7,43.9 C155.3,38.2 149.1,27.6 146.1,16.4 L146,16.3 C145.8,15.3 145,12.3 143.7,12.3 Z M171.8,119.2 C171.8,122.7 171.1,126.2 170.7,129.6 C176,128.6 181.4,127.8 186.7,126.4 C181.5,124.4 176.5,122.1 171.8,119.2 Z M158.9,91 C151,89.5 143,90.4 135.2,91.7 C136.1,95.6 137,99.5 137.8,103.4 C140.6,103.2 167,107.9 164,111.6 C167.9,113.7 171.6,116.2 175.5,118.3 C179.3,120.4 183.4,122.2 187.6,123.7 L187.4,123.2 C183.8,115.2 180.4,106.2 183.2,97.4 C179.4,98.9 174.4,95.7 170.7,94.5 C166.9,93 162.9,91.7 158.9,91 Z M102.4,60 C102.4,58.5 106.9,62.7 107.5,63.1 L107.9,63.5 C112.2,67.4 116.5,71.7 119,77.1 C119.1,82.4 111.2,69.6 110.1,68.8 C107.7,65.7 104.8,63 102.4,60 Z M227.8,72.5 C226.6,72.9 229.9,68.7 231.2,69 C231.8,68.9 232.2,69.7 231.6,70 L231.3,70.1 C230,70.7 228.6,71.2 227.8,72.5 Z" id="🖍-Ink" fill="currentColor"></path></g><g id="Head" stroke-width="1" transform="translate(95.9, 42.7)"><g id="head/Cornrows"><path d="M102.3,75.1 C103.7,64.5 100.6,54.3 96.5,44.6 C96.3,44 95.9,43.5 95.5,43.1 C84,20 67.1,17.9 43.6,19.5 C42.9,19.5 42.8,19.5 42.3,19.3 C42.2,9.9 31.5,4.9 23.3,8 C-12.9,24.8 -1.5,72.2 5.7,103.1 C8.2,115 10.8,127 13.4,138.9 C13.5,139.3 13.7,139.7 13.9,140 C13.5,140.1 13.2,140.3 12.8,140.4 C11.9,140.7 12.3,141.9 13.2,141.7 C14,141.5 14.8,141.2 15.6,141 C16.9,141.2 18,140.4 19,139.7 C30.6,135.1 35.5,120 38.5,108.8 C50.7,117.4 70.2,123.8 84.1,116.1 C97.1,108.3 101.8,91.9 100.9,77.5 C101.8,77.1 102.2,76.1 102.2,75.1 L102.3,75.1 C102.3,75.1 102.3,75.1 102.3,75.1 L102.3,75.1 Z" id="🎨-Background" fill="#FFFFFF"></path><path d="M20,8.9 C22.6,7.2 26.1,6.5 29.3,6.7 C31,6.7 32.5,7.1 34.1,7.8 C35.5,8.4 36.8,9.2 38.2,9.8 C38.3,9.9 38.2,10 38.2,10 C36.5,9.6 34.5,9.8 32.9,10.1 L32.7,10.1 C31,10.4 29.3,10.5 27.7,10.9 C24.7,11.6 21.9,13.1 20.2,15.8 C18.1,19.2 17.5,23.7 17.7,27.8 C17.9,29.8 18.3,31.8 18.9,33.7 C19.3,34.9 20.1,36.1 20.5,37.3 C20.9,36.7 21.2,36.1 21.5,35.6 C20,34.9 19.6,32.9 19.5,31.1 C19.3,30.9 19.1,30.6 19.1,30.3 C19.1,29.5 19.3,28.7 19.6,28.1 C19.8,26.2 20.2,24.3 20.8,22.6 C23.5,15.6 30.4,9.4 38.2,10 C40.4,10.2 42.5,11.1 43.6,13.1 C44.5,14.6 44.5,16.5 43.9,18.2 C43.7,18.7 43.5,19.1 43.2,19.5 C44.1,19.3 44.9,19.1 45.8,18.9 C48.7,18.2 51.7,17.6 54.7,17.3 C58.8,16.9 63,17.5 66.7,19.2 C67.8,19.4 68.8,19.7 69.8,20 C74.3,21.4 78.9,23.1 82.5,26.1 C84.2,27.6 85.4,29.2 86.4,31 C90,34.2 93.5,37.9 95.9,42.1 C101,50.7 102.2,61.4 102.4,71.2 C102.6,80.2 101.8,89.3 100.1,98.2 C99.3,102.2 98.1,105.9 95.6,109.2 C92.8,112.9 89,115.8 84.8,117.7 C76.3,121.7 65.8,122.2 57.5,117.3 C55,115.9 57.2,112 59.7,113.5 C67.9,118.1 78.4,117.1 86.2,112.1 C89.6,110 92.4,107.2 94.3,103.7 C95.6,101.1 96.2,98.2 96.6,95.4 L96.9,93.8 C98.4,85.1 99.1,76.1 98.8,67.2 C98.4,58.3 97,48.7 91.9,41.2 C89.3,37.2 85.9,33.7 82.3,30.5 C82.1,30.3 81.8,30.1 81.6,29.9 C80.2,29 78.8,28.3 77.4,27.7 L77,27.6 C76.2,27.2 75.1,26.8 74,26.4 C72.5,25.9 71,25.4 69.4,25 C68.6,24.8 67.8,24.6 67,24.4 C67.3,24.7 67.6,24.9 67.9,25.2 C69.2,26.5 70.2,28 71.5,29.3 C71.6,29.5 71.4,29.7 71.2,29.6 C69.3,28.7 67.2,28 65.3,27.2 C63.4,26.5 61.6,25.6 59.7,24.8 C59.3,24.6 58.8,24.4 58.4,24.2 C56.6,24.2 54.7,24.2 52.9,24.3 C55.1,25.9 57.1,27.7 58.8,29.7 C58.9,29.9 58.8,30.2 58.5,30.1 C55.1,29.2 51.8,27.9 48.5,26.6 L47,25.9 L47,25.9 C45.8,25.8 44.7,25.8 43.5,25.8 L42.9,25.8 C41.7,25.9 40.5,25.9 39.3,26.1 C39,26.1 38.7,26.2 38.5,26.2 C36.8,26.9 35.1,27.7 33.7,28.8 L34.1,28.8 L34.1,28.8 C36.4,28.7 38.7,28.9 41,29.5 C45.3,30.6 49.1,33.4 51.8,37 C51.8,37.1 51.7,37.3 51.6,37.2 C48.2,34.9 44.2,33.7 40.2,33 C38.2,32.7 36.2,32.6 34.2,32.8 C32.6,32.9 30.9,33.5 29.3,33.2 C28.8,33.8 28.4,34.3 28,34.9 C28.2,34.9 28.4,34.9 28.7,34.9 C31,34.8 33.4,34.9 35.7,35.4 C40.2,36.5 44,39.2 47.5,42.2 C47.6,42.3 47.5,42.4 47.4,42.4 C43.6,40.2 39.2,39.5 35,39.1 C32.8,39 30.6,38.9 28.5,39 C27.5,39.1 26.5,39.3 25.5,39.4 C25.4,39.4 25.4,39.4 25.3,39.4 C24.6,40.7 23.9,42.1 23.3,43.5 C25.1,43 27,42.7 28.9,42.9 C32.6,43.1 36.3,44.8 39.3,47 C39.4,47.1 39.4,47.3 39.2,47.2 C36,46 32.8,46 29.4,46.5 C27.8,46.7 26.2,47 24.7,47.5 C23.9,47.7 23.1,48 22.4,48.3 C22.1,48.4 21.7,48.6 21.4,48.8 C21.1,49.7 20.9,50.6 20.7,51.5 C26.2,51.8 31.5,54.4 36,57.4 C36.1,57.5 36.1,57.7 35.9,57.6 C33.2,56.6 30.3,56.1 27.4,55.9 C24.9,55.6 22.4,55.8 19.9,55.8 C19.7,56.8 19.6,57.7 19.6,58.7 C20,58.8 20.4,58.9 20.7,59 C22,59.4 23.2,59.9 24.4,60.5 C26.8,61.7 28.7,63.3 30.6,65.1 C30.7,65.2 30.6,65.4 30.5,65.3 C28.2,64.4 25.8,63.8 23.4,63.3 C22.2,63 21,62.8 19.8,62.6 C19.6,62.6 19.5,62.5 19.4,62.5 C19.4,64.7 19.5,66.9 19.8,69 L19.8,69.4 C20,70.5 19.9,71.6 19.1,72.3 C20.1,71.7 21.3,71.2 22.6,71 C25.9,70.6 29,71.9 31.1,74.5 C31.2,74.6 31.1,74.8 30.9,74.7 C28.9,72.8 25.7,72.5 23.2,73.4 C20.9,74.2 19.1,76.1 18.4,78.4 C17.6,80.9 18,83.7 19.3,85.9 C20,87.1 21,88 22.2,88.5 C22.4,88.6 22.6,88.7 22.7,88.7 C23.5,88.4 24.3,88.5 25,88.9 L25.1,88.9 L25.1,88.9 C25.6,88.9 26.1,88.9 26.6,88.9 C27.5,88.9 27.9,89.9 27.6,90.6 C27.8,91 27.9,91.5 28.1,91.9 C28.5,92.6 28.8,93.3 29.2,94 C29.7,94.6 30.2,95.2 30.6,95.9 C30.7,96.2 30.8,96.5 30.9,96.8 C31.2,97.3 31.5,97.7 31.8,98.1 C32.8,99.5 33.8,100.8 34.9,102.1 C35.6,102.8 36.4,103.5 37.1,104.2 C37.3,104.3 37.5,104.4 37.6,104.6 L37.7,104.8 L37.7,104.8 C37.9,105.1 38.1,105.4 38.3,105.6 C38.8,106.3 38.6,106.9 38.2,107.4 C38.9,111.2 38.4,115.3 37.6,119 C37.1,121.4 36.5,123.9 35.6,126.2 C35.2,127.4 34.7,128.5 34,129.5 C33.6,130.1 33.1,130.8 32.5,131.3 C32.4,131.9 32.3,132.6 32.1,133.2 C30.2,140.4 22.4,142.6 15.9,143.6 C14.6,143.7 13.3,143.4 12.6,142.2 C12.5,142 12.4,141.7 12.3,141.4 C12,141.3 11.8,141.2 11.5,141 C11.5,141.4 11.4,141.9 11.4,142.4 C11.2,143.5 9.7,143.9 9.3,142.6 C7.6,137.5 6.7,132.1 5.6,126.8 C4.5,121.6 3.2,116.3 2,111.1 L0.6,104.5 C-3,88.2 -6.4,71.8 -5.6,55.1 C-5.1,46 -3.4,36.9 0.1,28.5 C3.1,21.5 8.2,13.6 16.3,12.2 C16.4,12.1 16.4,12.1 16.5,12.2 C17.4,10.9 18.6,9.8 20,8.9 Z M24.9,97.1 C25.5,99.3 26,101.5 26.3,103.8 C26.7,107.6 26.5,111.5 26.3,115.3 C26.1,118.8 25.7,122.3 25,125.7 C24.4,129 23.3,132.3 21.8,135.2 C21.6,135.7 21.3,136.2 21,136.7 C21.9,136.4 22.6,136.1 23.4,135.6 C24.4,135 25.3,134.3 25.8,133.5 C26.6,132.3 26.9,130.9 27,129.4 C27.3,125.5 27.5,121.7 27.7,117.8 L27.7,117 C28,111 28.4,104.9 27.8,98.8 C27,98.6 26.2,98.2 25.5,97.6 C25.3,97.5 25.1,97.3 24.9,97.1 Z M18.3,89.9 C18.5,91.7 18.7,93.5 18.8,95.3 C19.4,101.8 19.7,108.4 19.4,114.9 C19.2,118.3 18.9,121.7 18.3,125 C18.1,126.5 17.8,128 17.4,129.5 L17.3,130 C17,131.5 16.7,133.3 15.6,134.4 L15.6,134.6 L15.6,134.6 C16.4,133.4 17.1,132.1 17.7,130.8 C20,125.2 20.4,119.1 20.9,113.1 C21.1,109.4 21.3,105.7 21.6,102 L21.8,100.3 C21.9,98.2 22.1,96.1 22.1,94.1 C21.6,93.4 21.2,92.7 21,92 C21,91.9 20.9,91.7 20.9,91.6 C20,91.2 19.1,90.6 18.3,89.9 Z M31.2,102.7 C31.6,104.3 32,105.9 32.3,107.5 C32.7,110 33,112.5 33.1,115.1 L33.3,114.2 C33.9,111.9 34.6,109.7 35.4,107.5 C34.1,106.6 33.1,105.2 32.2,104 C31.8,103.6 31.5,103.2 31.2,102.7 Z M13.1,33.1 C12.6,34.7 12.2,36.2 11.7,37.8 C10.7,41.5 10,45.3 9.6,49.1 C7.7,64.4 9.2,79.6 11.3,94.8 C12.1,101 13,107.3 13.8,113.6 C13.8,112.9 13.8,112.3 13.8,111.7 C14.1,98.4 11.8,85.3 10.9,72 L10.9,71.2 C10.5,65 10.2,58.7 11,52.5 C11.3,49.4 12,46.3 12.9,43.2 L13.4,41.4 C13.8,40.2 14.2,38.9 14.6,37.7 C14.6,37.6 14.5,37.5 14.4,37.4 C13.8,36 13.4,34.6 13.1,33.1 Z M14.6,15.2 C10,21.1 6.1,27.5 3.7,34.8 C-1.7,51.6 -0.5,69.5 2.6,86.6 C4.1,94.7 6,102.7 7.8,110.7 C5.9,96.3 3.5,82 3.1,67.5 C2.9,59.5 3.3,51.6 4.8,43.8 L4.9,43.3 C5.5,40.1 6.3,36.6 7.8,33.6 C8.7,32 9.7,30.5 10.8,29.1 C11.3,28.5 11.8,28 12.4,27.5 C12.2,23.4 12.8,18.9 14.6,15.2 Z M22.2,79 C24.6,79.1 26.9,79.8 28.7,81.3 C30.1,82.5 28.1,84.5 26.7,83.3 C25.1,82.1 23.7,80.7 22.1,79.5 C21.9,79.4 22,79 22.2,79 Z M18.4,72.9 C17.9,73.1 17.4,73.2 16.8,73.1 C16.8,73.1 16.7,73 16.7,73 L16.6,73 C16.6,73.6 16.7,74.1 16.8,74.7 C17.2,74 17.8,73.4 18.4,72.9 Z M16.1,39.6 C15.9,41.3 15.7,43 15.7,44.7 C15.6,46.4 15.6,48.1 15.6,49.8 L15.6,50.5 L15.6,50.5 C16.4,47.1 17.5,43.8 18.9,40.6 C18.7,40.6 18.4,40.6 18.2,40.6 C17.6,40.5 17.1,40.2 16.6,39.9 C16.4,39.8 16.2,39.7 16.1,39.6 Z M39.7,19.7 C38.7,20.2 37.8,20.7 36.8,21.1 C34.8,22 32.9,23 31.1,24.2 C29.2,25.3 27.4,26.5 25.8,28 C25.6,28.2 25.4,28.3 25.2,28.5 C25.2,28.9 25.2,29.2 25.1,29.6 C25.1,29.8 25.1,30 25.1,30.3 C28.2,26.4 32,23.4 36.7,21.5 C37.5,21.2 38.4,20.9 39.2,20.6 C39.4,20.4 39.6,20.1 39.7,19.7 Z M39.6,16.1 C39.1,15.4 37.5,15.4 36.5,15.6 C34.9,15.8 33.5,16.4 32.1,17.2 C30.5,18.2 29,19.5 27.9,21 C28.5,20.7 29,20.4 29.6,20.2 L30,20 C32.1,19 34.5,18 36.8,17.7 C37.9,17.6 39,17.4 40.1,17.5 C40.1,17 39.9,16.5 39.6,16.1 Z" id="🖍-Ink" fill="currentColor"></path></g><g id="face/Smile-Big" transform="translate(37.8, 44.1)" fill="currentColor"><path d="M22.2,44.2 C26.2,43.7 30.2,44.9 34.2,45.6 C36.3,45.9 38.4,46.2 40.5,46.2 C40.9,46.3 41.4,46.3 41.8,46.3 C41.8,45.9 42,45.6 42.5,45.4 C43.4,44.9 44.2,44.7 45.2,44.8 C46.1,44.8 47.1,44.9 48,45.1 C49.7,45.4 51.4,46.1 52.6,47.3 C55.5,50.1 55,54.6 52.8,57.7 C48.3,64 40,64.3 32.9,64.2 L32.2,64.2 C25.7,64.1 16.5,65.1 13.5,57.7 C12.5,55 12.6,51.9 13.9,49.3 C15.5,46.2 18.8,44.6 22.2,44.2 Z M42.4,54.7 L42.3,54.7 C39.3,54.8 36.4,54.9 33.4,55 C33.5,55.7 33.6,56.5 33.7,57.3 C33.7,57.9 33.8,58.5 33.9,59.1 C34,59.3 34.1,59.7 34.1,60 L34,60.1 L34,60.1 C34.2,60.1 34.3,60.3 34.4,60.4 C34.5,60.5 34.5,60.5 34.5,60.6 C36.9,60.6 39.3,60.6 41.7,60.1 L41.7,60.1 L41.7,60.1 C41.8,59.8 41.9,59.6 42.1,59.4 C42.2,58.5 42.2,57.5 42.3,56.5 C42.3,55.9 42.3,55.3 42.4,54.7 Z M31.1,55 C28.9,55.1 26.8,55.1 24.6,55.1 L23.7,55 L23.7,55 C23.9,56.1 24.1,57.2 24.3,58.4 C24.5,59.5 23.5,60.2 22.6,60.2 C22.7,60.2 22.8,60.3 22.9,60.3 C25.6,60.7 28.5,60.6 31.3,60.5 C31.2,59.7 31.2,58.7 31.2,57.9 L31.2,57.8 C31.1,56.9 31.1,56 31.1,55 Z M16.5,54.8 C16.6,55.4 16.7,55.9 16.9,56.5 C17.8,58.7 19.9,59.7 22.2,60.1 C21.8,60 21.5,59.7 21.4,59.1 C21.2,57.8 21.1,56.4 21.1,55 C19.6,55 18,55 16.5,54.8 Z M50.5,54.3 C49.4,54.6 48.1,54.5 47,54.5 C46,54.6 45,54.6 44,54.7 C44,55.4 44.1,56 44.1,56.7 C44.2,57.6 44.2,58.6 44.4,59.5 C46.4,58.8 48.2,57.7 49.6,55.9 C49.9,55.4 50.3,54.9 50.5,54.3 Z M21.7,47.8 C19.9,48.3 18.1,49.2 17.2,50.9 C16.6,51.9 16.4,53 16.4,54.2 C18,54 19.6,54 21.1,53.9 C21.1,53.6 21.2,53.3 21.2,53 L21.2,52.3 C21.2,50.9 21.3,49.2 21.7,47.8 Z M31.2,48 L30.4,47.9 C28.2,47.6 25.9,47.4 23.7,47.5 C23.3,47.6 23,47.6 22.7,47.6 C23.1,49.1 23,50.7 23.2,52.2 C23.3,52.7 23.4,53.3 23.4,53.8 L23.8,53.8 L23.8,53.8 C26.2,53.7 28.7,53.6 31.1,53.5 C31.1,53 31.1,52.6 31.1,52.1 L31.1,51.7 C31.1,50.5 31.1,49.2 31.2,48 Z M42.5,47.8 C40.2,48.2 37.7,48.3 35.4,48.3 C34.5,48.3 33.6,48.2 32.6,48.1 C32.7,48.6 32.7,49.1 32.8,49.6 C32.9,50.6 33,51.6 33.1,52.5 L33.2,53.4 L33.2,53.4 C36.2,53.3 39.1,53.1 42.1,53 L42.5,52.9 L42.5,52.9 L42.6,51.3 C42.7,50.2 42.8,49.1 42.9,48 L42.8,48 L42.8,48 C42.7,47.9 42.6,47.9 42.5,47.8 Z M43.5,48.2 C43.7,49.8 43.7,51.3 43.8,52.9 L45.8,52.8 C46.1,52.7 46.5,52.7 46.8,52.7 C48,52.6 49.7,52.2 50.9,52.6 C51,51.5 50.7,50.4 49.7,49.6 C47.9,48.3 45.6,48.7 43.5,48.2 Z M36.9,34.4 C39.8,32.7 47.1,31 47.5,36.3 C47.8,38.7 46,40.7 43.9,41.5 L43.8,41.6 C41.8,42.4 38.3,43.3 36.6,41.6 C35.2,40.1 37.1,37.5 38.9,38.7 C39.8,39.3 41.7,38.8 42.7,38.5 L42.7,38.5 C43.8,38.2 45.3,37.2 44.8,35.9 C44.4,34.7 42.7,34.5 41.7,34.4 C40.1,34.4 38.6,34.7 37,34.8 C36.7,34.9 36.7,34.5 36.9,34.4 Z M48.9,26 C52.9,25.8 55.3,30.1 54.4,33.6 C54.3,34.2 53.6,34.8 52.9,34.8 L52.8,34.8 C52.7,34.7 52.6,34.7 52.5,34.7 C51.9,34.5 51.3,33.9 51.4,33.2 L51.4,33 C51.5,31.4 51.3,29.4 49.3,29 C47.6,28.7 46.7,30.3 46.7,31.8 C46.7,32.1 46.4,32.2 46.1,32.1 C44.9,31.4 44.7,29.9 45.2,28.6 C45.8,27 47.2,26.1 48.9,26 Z M19.6,26.9 C22.5,25.9 25.6,27.5 27,30 C27.4,30.2 27.9,30.5 27.9,31.1 C27.8,31.9 27.6,32.5 27,33.1 C26.1,34.1 24.5,33.6 24.1,32.4 L24.1,32.3 C23.6,30.7 21.9,29.7 20.3,30.2 C18.5,30.9 18.6,32.8 17.3,34 C17.1,34.1 16.9,34.1 16.8,34 C15.4,33.4 15.6,31.4 16.1,30.2 C16.8,28.7 18,27.4 19.6,26.9 Z M15.7,18.2 C18,15.8 24.1,13.5 25.7,17.9 C26,18.7 25.3,19.8 24.5,20 C23,20.3 21.8,19.7 20.3,19.8 C19.2,19.9 18,20.3 17.1,21 C14.5,22.9 14,26.3 12.2,28.8 C12.1,28.9 12,28.8 11.9,28.7 C11.5,25.1 13.1,20.8 15.7,18.2 Z M46.1,15.8 C47.6,15.3 49.4,15.3 50.9,15.8 C52.5,16.3 53.9,17.2 55,18.4 C55.6,19 56,19.6 56.4,20.2 C56.6,20.6 56.8,21.3 57,21.7 C58.2,22.4 58.8,24 57.7,25.2 L57.6,25.2 L57.5,25.4 C56.9,25.9 56,26.2 55.2,26 C53.4,25.4 53.2,24 52.6,22.5 C52.2,21.5 51.5,20.7 50.6,20 C48.6,18.5 45.3,18 42.9,18.7 C42.7,18.8 42.6,18.6 42.7,18.5 C43.1,17.9 43.4,17.4 44,16.9 C44.6,16.4 45.3,16.1 46.1,15.8 Z" id="🖍-Ink"></path></g><g id="facial-hair/*-None" transform="translate(29.2, 80.1)"></g><g id="accessories/*-None" transform="translate(11.2, 57.1)"></g></g></g></g></g></svg>