<svg viewBox="0 0 249 686" version="1.1" xmlns="http://www.w3.org/2000/svg" xmlns:xlink="http://www.w3.org/1999/xlink"><g id="Introduction" stroke="none" stroke-width="1" fill="none" fill-rule="evenodd"><g id="variations-standing" transform="translate(-992, -86)"><g id="a-person/standing" transform="translate(973, 50)"><g id="pose/standing/blazer-1" transform="translate(-28.7, 150.3)"><path d="M90.5,142.4 C98.3,159.8 108,175.2 119.5,190.5 C118.7,154.3 118,117.8 116.8,81.2 C109.5,95.4 101.8,108.2 91.5,122.2 C83.4,130.8 87.1,134.4 90.5,142.4 Z M64.8,566.6 C63.9,565.3 64.5,563.7 65.7,562.8 C63,557.1 71.1,552.7 75.1,548.3 C84.1,538.6 98.3,524.6 99.5,512.3 C103.8,484.3 106.3,456.3 113.1,428.7 C117.2,411.1 128.6,397 133.7,379.8 C142.5,334.3 131.1,288.6 133,242.6 C108.2,240.2 111.4,243.3 114.1,222.6 C112.4,221.5 110.8,220.3 109.3,219 C105.3,221.1 100.6,226.3 96.3,226.1 C94.9,225.7 93.9,224 92.9,222.5 C85.9,211.5 79.4,200.7 73,189.5 C37.7,134 45.7,121.4 78.6,68.1 C92.5,47.5 109.5,17.6 136,15.5 C139.1,15.5 142.5,15.4 145.3,13.4 C145.3,10.2 146.9,9.1 151,8.6 C153.4,8.3 155.2,7 157.5,7.5 C159.1,2.1 158.8,-2.2 160.5,-7.6 C166.6,-16.7 186.2,-12.2 193.3,-9.3 C202.2,-6.2 193.8,7.6 199.6,13.9 C200.8,14.7 202.2,15 203.9,15 C211.1,13.4 214.6,22 218,27.7 C227.7,28.9 235,30.4 239.5,33.9 C243.6,37 246.7,42 250.7,52.3 C259.1,70.7 264.6,88.9 267.1,106.5 C269.2,118.5 275.1,128.8 279.8,139.7 C291.4,167.9 296.4,186.6 293.7,211.4 C290.7,210.9 287.7,209.8 284.6,209.4 L283.4,212.4 C283.3,212.3 283.3,212.3 283.3,212.3 C279.6,237.1 289.6,287.8 257,281.1 C254.1,308.5 244.9,332.8 233.9,355.7 C229.4,364.3 225,373.4 225,383.5 L226.7,383.6 C227,383.6 227.1,383.6 227.1,383.6 C227.4,383.7 227,386.2 226.7,387.6 C221.4,406.2 216.8,424.8 212.7,443.6 C211.9,446.2 211.5,453 209.5,454.2 C209.6,455.1 206.8,456.9 206.6,456.9 C207.1,460.5 205.4,462.1 205.4,465.7 C205.4,465.6 207.9,465.8 207.8,465.7 C209.2,465.7 210.9,468.8 210.9,470.9 C211,473.4 208.9,475.8 208.1,478.3 C207,483.8 207.2,489.3 206.6,494.8 C211.5,495.9 210.4,501.1 206.1,501.4 C206.1,501.4 205.4,508.6 205.5,512.2 C208.5,512.6 209.8,515.2 210.7,517.2 C214.4,517.3 217.7,518.9 221.1,520.6 C228.9,524.4 236.6,528.5 243.6,532.5 C249.7,536.6 263.2,541.1 256.2,549.7 C256.3,549.9 254.7,553.9 252.5,553.5 C241.9,554.6 201.4,545.8 192,543.8 C188.9,543.1 174.9,541.3 180.7,536.6 C178.6,530.6 178.5,519.2 185,517.8 C185.6,512.2 190.4,510.2 195.1,512.3 C195.1,508.2 195.3,504.7 195.4,500.6 C193.1,500.3 190.5,499.5 189.9,497.8 C189.3,496.8 189.5,493.6 191.9,493.5 C191.9,493.5 193.6,493.6 193.7,493.6 C193.4,487 194,481.5 193,474.9 C192.5,472.7 190.8,472.4 189.6,471.2 C188.6,468 191.8,465.3 194.6,464.8 C195.3,461.4 193.8,457.9 194.6,454.7 C192.8,454.6 191.4,454.5 190.2,453.4 C189.7,452.9 188.8,453.1 188.2,453 C187.6,446.2 183.3,440.3 182.3,433.7 C181,425.9 183.5,417.7 184.4,409.8 C185.1,403.2 184,396.4 183.4,389.9 C159.4,428.1 127,465 121.2,511.5 C120.5,515.1 120.2,519.1 123.5,522.6 L123.6,522.7 C124.5,524.4 125,527.6 125.6,529.3 C128.7,531.8 125.9,536.5 123.6,538.7 C122.9,539.4 122.3,540.3 121.7,541.2 C109.9,555.2 108.6,571.1 85.9,570 C80.4,569.7 67.3,569.9 64.8,566.6 Z" id="🎨-Background" fill="#FFFFFF"></path><path d="M159.6,-5.4 C161.5,-6.7 158.8,4.5 158.8,5.6 C158.3,7.9 157.5,10.7 155.5,12.2 C156.4,19.5 157.5,26.7 158.9,33.9 L159.7,34.1 C171.6,35.6 183.5,37.8 195.7,36.7 C202.2,36.7 206.5,32.3 209.1,26.7 L208.6,24.8 L208.6,24.8 C200.3,19.7 194,9.4 197.8,-0.3 C198,-0.9 199,-0.6 198.8,0 C197.2,4.4 197.9,9.3 200.1,13.4 C201.5,14.1 203,14 204.5,14 C211.6,12.9 215.8,21.1 218.9,26.2 L221.6,26.6 C231.9,28.1 241.9,29.9 247,40.5 L247.5,41.5 C254.7,56.9 261.5,72.7 265.4,89.3 C267.4,98 268.1,107 271,115.5 C276.9,131.3 285.4,146.1 289.9,162.4 C292.8,168.3 300.7,212.7 292.9,213.1 C290,212.2 287.2,211.6 284.2,211.1 C284.7,211.4 284.9,212 284.8,212.6 C283.8,219.7 283.7,226.9 283.7,234.1 C284.1,251.3 284,287.7 258.3,283.1 C256.2,304.2 249,324.6 241.1,344.1 C236.3,356.6 227.1,368.1 226.6,381.9 C229.8,382 228.6,386 228.2,387.9 C227.1,392.7 225.7,397.4 224.3,402.1 C219.3,418.9 216.4,436.3 212.1,453.2 C211.9,454.1 211.5,454.6 211,455 C210.9,456.8 208.2,457.8 206.7,457.2 C206.9,459.3 206.9,461.5 206.9,463.6 L206.9,464 L207.4,464 C209.4,463.5 211.4,466.8 212,468.4 C213.9,473.1 209.5,476.6 209.2,481 C208.9,485.3 208.5,489.5 208.3,493.7 C213.8,495.9 211.4,503.1 205.9,503 C206.2,505.6 206.2,508.3 206.3,510.9 C208.7,511.6 210.5,513.5 211.6,515.6 C216.4,515.9 220.7,518.8 225,520.7 C231.6,524 238,527.4 244.4,531.1 C250.5,535.2 264.2,539.9 258.2,549.3 C259.8,550.6 258.7,553.2 257.3,554.3 L257.3,554.3 C255.9,555.4 254.1,555.4 252.4,555.2 C232.9,555.7 212.3,549.6 192.9,545.7 L190.9,545.3 C186.8,544.6 182.7,543.7 179,541.7 C177.4,540.4 177,537.3 178.7,536 C177,529.9 178.5,519.3 185.2,516.9 C185.9,512.4 189.6,509.2 194.2,510.6 C194.2,507.7 194.5,504.9 194.5,502 C192.2,501.6 190.1,500.7 189,498.5 C187.8,496.3 189.1,492.7 191.9,492.8 C192,488.3 191.7,483.9 191.7,479.5 L191.7,479.2 C191.6,477.7 191.7,476.1 191.1,474.8 C190.5,473.4 188.8,473.3 188,472 C186.4,468.5 189.7,464.4 193,463.4 C193.5,461.1 193.2,458.6 193.7,456.2 C191.9,456.1 190.3,455.7 189,454.7 C188.1,454.6 186.6,455 186.5,453.7 C186.1,448.4 183.4,443.7 181.7,438.8 C178.3,429.2 181.4,419.2 182.6,409.6 C183.2,404.6 182.6,399.7 182.1,394.7 C159.2,430.5 129.9,465 123.2,508.1 C122.8,513 120.8,517 124.3,521.2 C125.5,521.5 126.5,527 126.9,528.4 C130.5,531.7 127.4,537.6 124.3,540.1 C122.8,542.7 120.8,544.9 118.9,547.2 L118.3,548.2 C114.4,554.8 110.2,561.4 104.8,566.9 C95.8,573.6 80.8,571.7 70.2,570.5 L69.3,570.4 C67.1,570 64.6,569.5 63.3,567.5 C62.2,565.8 62.4,563.6 63.7,562.3 C62.4,558.4 65.5,554.5 68.4,552.1 C79.7,542.1 89.4,530.4 97,517.4 C99.9,496.3 102.9,475.2 106.1,454.2 C108.7,436.8 112.7,419.3 121.1,403.7 L121.8,402.3 C125.8,394.9 129.7,387.5 131.9,379.3 C136.6,362.2 135.4,344.2 134.8,326.6 C134,299.1 132,271.7 132.3,244.2 C127.1,243.7 113.1,244 110.9,238.7 C110.1,233.6 111.8,228.5 112.2,223.4 C111.1,222.7 110.1,221.9 109,221 C107.1,222.5 105.1,223.8 103.1,225.1 C98.2,228.6 94.4,229.2 91.4,223.4 C82.7,209.6 74.2,195.6 66.3,181.3 C58.9,167.7 49.8,154 47.9,138.3 C45.2,109.9 78.5,64.6 95.1,41.5 C105.5,29 118.9,15.7 136.1,15 L136.3,15 C138.6,14.9 141.7,15.1 143.5,13.6 C143.9,8.5 149.2,8.5 153.1,7.6 C153.9,7 155.1,6.9 156.1,6.9 C157.5,2.9 157.9,-1.6 159.6,-5.4 Z M111.3,521 C107.1,518.8 101.9,518.6 97.4,520.4 C91.8,530.7 84.7,540.2 76.5,548.6 C73.6,552.8 62.4,558.3 68,563.8 L69.1,564 C77.5,565.6 86.1,566.7 94.6,566.1 C100.3,564.5 104.9,560.3 108.5,555.7 C113,549.9 116.7,543.5 120.9,537.4 C124.5,531.2 126.5,531.1 123.6,523.7 C123.6,523.8 123.6,524 123.5,524.1 C122.5,526.2 119.3,526 117.6,525.2 C115.2,524.2 113.6,522.2 111.3,521 Z M70.8,565.8 C70.9,565.8 71,565.8 71.1,565.9 C71.2,565.9 71.2,565.9 71.3,565.9 L70.8,565.8 L70.8,565.8 Z M233.4,528.5 C227.1,525.7 215.4,517.4 208.9,518.6 C204.1,520.1 199.7,522.7 194.6,523.1 L194.3,523.1 C190.7,523.3 184.2,524.5 182.8,520.2 C181,523.7 180.4,527.9 180.4,531.9 C180.4,535.2 181.9,537.9 185.5,538.1 L188.8,539 C209.6,544.2 230.7,549.2 252.2,550.7 C257.8,547.2 258,542.6 252,539.4 C245.9,535.5 239.7,531.9 233.4,528.5 Z M110.5,447.8 C106.8,471.1 104.3,494.6 100.7,518 C113.3,514.8 117,526.1 121.7,523 C118.4,518.6 118.8,515.4 119.8,510.3 C121.7,493.4 128,477.3 135.9,462.2 C136.8,460.5 137.7,458.8 138.6,457.1 C128.5,458 117.7,455.1 110.5,447.8 Z M188.3,514.4 C187.5,515.7 187.1,517.3 186.8,518.9 C186.7,519.7 186.8,520.8 186.5,521.7 C191.9,521.9 197.4,520.6 202.3,518.3 C198.4,518 189.8,518.7 188.3,514.4 Z M185,517.8 C184.4,518.2 184,518.6 183.6,519.1 C183.5,519.8 183.8,520.7 184.5,521.1 C184.6,520 184.7,518.9 185,517.8 Z M195.6,502.2 C195.6,505.5 195.8,508.9 195.7,512.3 C195.7,513.4 196.1,514.9 195.4,515.9 L196.5,516 C199.4,516.3 202.3,516.6 205.1,516.2 C205.2,511.8 205.2,507.4 205.5,503 C202,503 199,502.4 195.6,502.2 Z M206.5,515.6 C206.5,515.8 206.5,515.9 206.5,516 C206.9,516 207.3,515.9 207.7,515.8 C207.4,515.7 207,515.8 206.7,515.7 C206.6,515.7 206.5,515.7 206.5,515.6 Z M194.2,515.1 C193.8,515.5 193.1,515.6 192.7,515.3 C192.6,515.3 192.5,515.3 192.4,515.3 L192.3,515.3 L192.3,515.3 L192.6,515.4 C193.2,515.6 193.7,515.7 194.4,515.8 C194.3,515.6 194.2,515.3 194.2,515.1 Z M209,515.1 C208.9,515.2 208.8,515.4 208.7,515.5 C208.8,515.4 209,515.4 209.1,515.3 C209.1,515.2 209,515.2 209,515.1 Z M190.3,514.2 C190.4,514.3 190.5,514.5 190.7,514.6 C190.5,514.5 190.4,514.3 190.3,514.2 Z M206.4,512 C206.4,512.1 206.4,512.1 206.4,512.2 C206.4,512.2 206.5,512.1 206.5,512.1 C206.5,512.1 206.4,512 206.4,512 Z M191.8,493.6 C189.2,494.4 190.1,497.7 192.1,498.8 C194.3,500.3 197.6,500.1 200.1,500.3 C202.8,500.5 209.9,501.9 208.7,497.2 C208.5,496.9 208.2,496.7 207.9,496.5 C207.9,496.6 207.9,496.6 207.9,496.7 C207.7,500 196.8,498.2 194.9,496.9 L194.8,496.9 C193.2,496.2 191.7,495.9 191.8,493.6 Z M195.1,455 C195.7,457.6 195.5,460.3 195.8,462.9 C196.1,463.6 195.8,464.1 195.3,464.4 L195.6,464.5 C198.6,465.3 201.5,465.7 204.5,465 C204.2,462.3 204.9,459.2 205.3,456.5 C205.4,456.2 205.4,455.9 205.5,455.6 L195.1,455 L195.1,455 Z M206.6,455.7 C206.7,456.1 206.7,456.5 206.7,456.9 C206.7,456.9 206.7,456.8 206.7,456.8 C207.1,456.5 207.5,456.1 207.8,455.7 C207.4,455.7 207,455.7 206.6,455.7 Z M189.9,165.9 L189.6,165.9 C194,187.6 197.4,209.6 198.6,231.8 L198.6,232.1 C198.7,234.3 199,236.7 197.5,238.5 C196,240.4 193.6,240.7 191.4,241 C172.2,243.9 152.8,244.9 133.4,244.3 C135.7,274 136.5,303.9 137.9,333.7 L138,335.3 C138.6,352.2 138.8,369.5 133.2,385.6 C124.3,405.6 113.2,424.6 110.7,446.9 C118.8,453.1 129.8,456.9 139.9,454.7 C152,432.2 168.1,412.3 181.5,390.7 C206.6,347.2 204.1,294.7 203.5,246.5 C203.4,246.1 203.7,246 203.7,246.4 C203.9,246.4 204.2,246.5 204.3,246.8 C205.8,256.9 205.2,267.2 205.2,277.4 C205.2,285 205.7,292.8 205.1,300.3 C204.3,325.9 201.1,351.9 191.6,375.8 C203.4,378.5 210.7,390.8 223.7,382.6 C223.7,367.6 233.6,355.2 238.8,341.7 C245.8,325.5 251,308.5 254.7,291.1 L255.1,289.3 C255.6,287 256.1,284.7 256.9,282.5 C256,281.3 256.8,279 256.8,277 C255.4,277 253.6,276.4 253.4,274.8 L253.4,274.7 C252.4,263.3 252.3,251.6 254.4,240.3 L254.1,240.3 C248.8,240.7 223.2,241.7 222.5,237.4 C221.6,230.2 223.9,223.1 224.3,216 C225.2,199.8 225,183.6 224.9,167.4 C219.7,168.1 214.8,167.1 209.7,167 C203.3,166.5 196.7,166.9 190.3,165.9 L189.9,165.9 Z M269.8,210.1 C269.5,210.4 269.3,210.5 269,210.6 C269,217.5 267.6,224.2 263.8,230.1 C262.1,232.3 261.3,234.9 260.5,237.5 C260.7,238.2 260.4,239 259.9,239.4 C256.4,250 256,261.4 257.3,272.5 C261.2,266.7 262.8,259.8 263.9,253 C264,252.7 264.5,252.7 264.6,253 C265.9,260.3 263.7,267.5 260.8,274.2 C259.2,275.5 259.6,278.5 259.4,280.4 C288.4,284.6 278.3,229 282,211.8 C282.1,211.4 282.5,211 283,210.9 C278.6,210.2 274.2,210.2 269.8,210.1 Z M152.4,8.9 L151.9,9 C146.6,10.3 145.2,10.3 144.8,16.6 C143.5,25.3 138.7,33 136.5,41.5 C135.6,44.5 136.5,50 140.7,49.2 C142,48.8 143.1,50.6 142,51.6 C139,54.4 136.1,57.3 133.2,60.2 C145,100 160.3,138.6 178.9,175.7 C179.6,177.1 177.4,178.4 176.7,176.9 C158.2,139.8 142.8,101.1 130.8,61.4 L130.4,60.2 C129.9,58.7 136.7,53.5 137.9,51.8 C125.6,45.9 142.7,25.1 143.2,15.1 C139.7,16.5 135.7,16 132,16.7 C124.8,17.9 118.6,22 113,26.5 C90.3,46.5 75.8,74.2 61.3,100.3 C51.5,117.3 46.7,138.1 56.6,156.3 C68.1,179.5 81.4,201.9 95.5,223.6 C97.1,225.6 99.5,223.3 101.1,222.5 C110.5,216.8 118.6,209.2 124.8,200.2 C108.4,179.7 93.2,157.3 84.7,132.3 C84,126.2 92.5,119.1 95.7,113.9 C102.5,104.4 108.9,94.6 115.1,84.6 C114.9,83.7 115.3,82.6 116.3,82.6 L116.9,81.6 C121.6,73.8 122.1,73.6 117.5,83 C119.9,118.1 119.5,153.9 120.5,189.2 C123.2,192.8 126.1,196.4 129,199.9 C138.4,193.5 149.5,189.2 160.9,187.9 L161.3,187.9 C166.1,187.4 174.4,186.3 175.1,192.7 C174.3,200.4 158.3,196.1 153.2,200.4 C161.6,203.8 171.2,204.7 178.8,209.8 C181.3,211.3 186.1,215.8 181.4,217.6 C179.4,217.8 177.2,217 175.2,216.8 C177.5,217.6 179.6,218.9 181,221 C181.9,222.4 182.7,225.3 180.3,225.9 C175,226.1 169.7,224.3 164.5,223.5 L164.9,223.7 C168.8,225.2 174.7,228 169.6,232.2 C164.4,234.8 158.2,230.3 153.1,229.1 C139.2,225.9 129,234.7 114.9,225.2 C114.5,229.4 113.2,233.7 113.6,237.9 C117,241.1 127.6,241 132.3,241.4 L132.3,241.3 C132.4,240.9 132.2,238.7 132.9,239.6 C132.9,240.2 133,240.8 133.1,241.4 C150.3,241.9 167.6,241.3 184.7,239.1 L185.4,239 C188.1,238.7 190.8,238.4 193.4,237.8 C196,237.4 196,234.6 195.8,232.6 C192.1,156.2 161.1,84.3 152.4,8.9 Z M201.2,15.2 C201.8,16.1 202.5,16.9 203.2,17.8 C204.3,16 207.1,15 207.9,17.6 C208.7,20.3 210,23 210,25.9 C228,84.4 228.4,146.6 228.1,207.3 C228.6,216.9 225.6,226.3 225.9,235.9 C235.7,237.3 245.7,237.4 255.6,236.4 C255.9,235.6 256.2,234.9 256.6,234.1 C271.4,216.1 263.5,193.5 256.4,174 C252.1,174.2 247.8,173.9 243.5,174 C244.8,178.1 245.1,182.5 245.9,186.7 C246.3,189.7 247,192.8 247.7,195.7 L247.9,196.5 C248.1,197.6 248.5,198.8 248.1,199.9 C247.7,201 246.4,201.4 245.5,200.6 C244,198.8 244.1,196.2 243.6,193.9 L243.5,193 C242.6,186.7 241.5,180.2 243.1,174 C241.6,173.6 237.3,174.9 237.1,172.8 C237.2,169.3 234.7,161.9 237.5,159.6 C239.1,158.4 241.9,158.8 243.9,158.7 C246.1,158.6 248.3,158.5 250.6,158.5 C232.6,115.2 237.6,101.8 239.4,58.6 L239.5,57.3 C239.5,57 239.9,56.9 240,57.2 C242.7,74.9 239.1,92.8 240.8,110.6 C243.9,144.3 265.3,173.2 268.8,206.8 C276.5,205.9 284.3,207 291.8,208.9 C292,207.6 292.1,206.2 292.2,204.8 C293.6,179.8 284.8,155.5 274.5,133 C268.4,121.1 264.6,108.3 263,95 C259.9,77.7 253,61.4 246.1,45.3 C241.7,33.2 232.3,30.4 220.6,29 C224.5,35.5 228.5,42.1 232.4,48.7 C233.2,50.6 230.6,52.1 229.4,53.3 C243.8,61.1 235.4,85.3 235.7,98.9 C234.6,111.4 234.2,123.9 232.3,136.3 C232.2,137.1 230.9,136.9 230.9,136.1 C231,117.5 233.2,99.1 234.2,80.5 L234.4,78.9 C235.1,70.2 235.7,57.8 225.3,55.4 C223.9,55.1 223.8,53 224.9,52.4 C226.4,51.5 227.7,50.5 228.9,49.3 C222.9,39.6 217.7,29.5 211.4,20 C206.9,14.3 207.3,16.3 201.2,15.2 Z M172.1,192.2 C171,188.8 159.7,191 156.7,191.4 C145.6,193.5 134.4,198.4 125.9,206 C125.4,206.4 124.8,206.4 124.3,206.2 C120.5,211 116.1,215.4 111.3,219.3 C112.2,219.9 113.1,220.6 114,221.3 C114.5,221.3 114.9,221.5 115.1,222 C128.3,231.5 138,224.1 151.7,225.8 C156.8,226.8 161.6,230.1 166.8,230.2 C170.7,229.3 167.3,227.7 165.5,227.1 C161.1,225 156.7,223.1 152.2,221.2 L149.7,220.2 C148,219.5 148.6,217 150.4,217.4 C153.7,218.2 156.9,218.9 160.1,219.6 C166.3,220.9 172.7,222.5 179,223.1 C177.6,219.3 162.8,215.1 158.5,213.5 C156.8,212.8 152.2,212.9 152.7,210.4 C153.1,208 158.1,210.7 159.7,210.9 C166.4,212.6 173.3,213.7 180.1,214.7 C172.8,207.3 161.4,206.7 152,203.2 L151.8,203.2 C150.1,202.8 147.8,202.1 149.2,200.2 C154,193 173,196.6 172.1,192.2 Z M158.3,152.6 C161.7,149.8 163.5,155.6 163.3,158.3 C163.5,160.5 163.6,162.7 163.8,164.9 C163.6,166.7 165.4,173 162.9,173.1 C152.1,172.5 141.3,172.7 130.4,172 C130.4,174.2 130.3,176.4 130.4,178.6 C130.4,181.3 131.3,184.1 130.7,186.8 C130.4,188 128.7,188.2 128.1,187.1 C126.1,182.5 127.4,176.4 128.8,171.7 C120.7,169.7 124.6,163 124.6,157.3 C124.6,157.1 124.7,157.1 124.9,157.1 C126.9,159.9 124.2,163.7 125.4,166.8 C126.6,170.1 131.4,169.9 134.3,169.9 L134.7,169.9 C143.6,170.1 152.6,170.4 161.5,170.6 C161.1,167.6 161,164.5 160.8,161.5 C160.5,159.3 160.9,156.8 159.8,154.8 C154.8,156.4 149.7,157.1 144.4,157 C138.2,157.1 131.6,157.7 125.5,157 C134.3,155.6 143.9,155.8 152.9,154.1 C154.6,153.6 156.4,152.7 158.3,152.6 Z M115.2,87.5 C109.8,97.8 103.6,107.6 97,117.2 C95.6,119.2 94.1,121.2 92.6,123.2 L92.5,123.4 C89.5,127.2 86.3,130.4 89.1,135.4 C96.5,153.1 106.2,169.8 117.6,185.3 C116.9,152.7 116.2,120.1 115.2,87.5 Z M250.8,159.1 C237.2,161.9 237,156.6 239.2,171.6 C244.7,171.7 250.1,171.6 255.5,171.6 C254,167.4 252.4,163.3 250.8,159.1 Z M205.6,17.9 C205.1,17.9 204.2,18.2 203.6,18.2 C204.7,19.4 206,20.5 207.2,21.4 L207.5,21.6 L207.4,21.4 C206.8,20.3 206.4,19.1 205.7,18.1 L205.6,17.9 Z" id="🖍-Ink" fill="currentColor"></path></g><g id="Head" stroke-width="1" transform="translate(95.9, 42.7)"><g id="head/Buns"><path d="M94.3,41.2 C86.5,30.1 66.8,28.8 54.4,28.9 C29.8,28.7 24.7,56.9 23.4,76.6 C20.8,77.1 18.2,78 16.5,80 C14.4,82.5 13.7,86.8 15.6,89.6 C17,91.5 19,92.1 21.2,92.2 C28.4,91.5 29.8,97.9 33.4,102.7 C42.4,114.9 58.1,118.9 72.5,118.9 C77.4,119.1 83.3,119.4 86.4,114.8 C96.3,97.7 96.5,75 97.1,55.6 C97.2,50.7 97.2,45.4 94.3,41.2 L94.3,41.2 Z" id="🎨-Background" fill="#FFFFFF"></path><path d="M51,-5.3 C51.9,-6.6 53.8,-7.1 55.1,-6.1 C56.3,-6.8 57.7,-6.7 58.7,-5.8 C59.9,-6.5 61.4,-6.3 62.4,-5.3 C63.9,-6.1 65.9,-5.5 66.7,-3.9 C68.3,-4.1 69.7,-3 70.2,-1.6 C70.2,-1.5 70.3,-1.5 70.4,-1.4 C71.3,-1.4 72.2,-1 72.7,-0.1 C73,0.3 73.1,0.8 73.1,1.3 C73.6,1.6 74.1,2.1 74.3,2.7 C74.4,3.3 74.4,3.9 74.1,4.4 C74.9,5.2 75.1,6.5 74.6,7.5 C74.8,7.9 74.9,8.4 74.9,8.8 C74.9,9.6 74.5,10.1 74.1,10.6 C74.6,11.6 74.4,12.9 73.5,13.6 C73,15.5 71.7,16.7 69.6,17.4 C68.6,17.8 67.6,18.1 66.5,18.3 C70.8,18.9 75.1,19.9 79.2,21.5 C79.4,21.5 79.6,21.5 79.8,21.4 C79.8,21.5 79.9,21.5 80,21.6 C81.2,22.2 82.3,22.8 83.3,23.6 C83.3,23.4 83.3,23.3 83.3,23.2 C83.3,22.2 83.4,21.3 83.7,20.3 C83.3,19.9 83.1,19.4 83,18.8 C82.6,17.5 83.3,15.5 84.4,15.1 C84.9,13.9 85.8,13.1 86.9,12.8 C87,12.7 87.1,12.6 87.2,12.5 C87.5,12.4 87.8,12.3 88,12.2 C88.2,11.6 88.5,11 89.1,10.6 C89.9,10 90.9,10 91.7,10.3 C91.9,10.2 92,10.2 92.2,10.1 C93.5,9 95.7,9.1 96.9,10.4 C97.7,10 98.6,10 99.5,10.5 C100.1,10.9 100.6,11.6 100.7,12.3 C102,12.3 103.2,13.2 103.5,14.4 C104.7,14.6 105.7,15.5 105.9,16.6 C106.6,16.7 107.3,17.1 107.7,17.8 C107.9,18.1 108,18.5 108,18.8 C108.4,19 108.8,19.3 109,19.6 C109.5,20.2 109.6,21 109.4,21.7 C109.4,21.7 109.5,21.8 109.5,21.9 C109.6,22.2 109.7,22.4 109.8,22.7 C110.2,23.3 110.4,24 110.3,24.7 C110.4,25 110.5,25.3 110.6,25.6 C110.8,26.7 110.9,28 110.8,29.1 C110.7,29.7 110.5,30.3 110.4,30.8 C110.3,30.9 110.3,31 110.3,31.1 C110.2,31.6 110,32 109.9,32.4 C109.5,32.9 109.1,33.4 108.6,33.9 C108.2,34.5 107.8,35 107.3,35.5 C107,35.8 106.6,36.1 106.2,36.4 C105.4,37 104.5,37.5 103.6,37.9 C103.4,37.8 103.2,37.8 103.1,37.8 C102,38.4 100.3,38.4 99.3,38.4 C98.1,38.4 97.1,38.1 96.2,37.6 C96.3,37.8 96.4,38 96.5,38.2 C96.5,38.2 96.4,38.2 96.4,38.2 C96.2,37.9 96,37.6 95.8,37.4 C95.4,37.2 94.9,37.2 94.6,37.6 L94.6,37.6 L94.6,37.6 C94.5,37.9 94.5,38.1 94.6,38.3 C94.7,38.3 94.7,38.4 94.7,38.4 L94.7,38.4 L94.8,38.5 C95.1,38.7 95.4,39.4 95.7,40 C95.9,40.3 96.1,40.7 96.3,41.1 C96.4,41.2 96.6,41.4 96.8,41.4 C96.7,41.7 96.9,42 97.1,42.2 C97.2,42.1 97.2,41.9 97.3,41.8 C98.4,40.4 100.4,39.8 101.9,40.5 C102.2,40.4 102.5,40.4 102.8,40.3 C103.8,40.3 104.8,40.4 105.8,40.6 C106.1,40.7 106.4,40.9 106.6,41.2 C106.9,41.4 107.1,41.6 107.3,41.8 C107.4,41.9 107.6,42 107.7,42.2 C108.3,42.5 108.8,43.1 109.2,43.7 C109.5,44.2 109.7,44.6 109.9,45.1 C111,46.8 112.2,49 111.2,50.8 C111.3,51 111.4,51.2 111.4,51.4 C111.6,52.1 111.3,52.7 111,53.2 C111,53.6 111,53.9 111.1,54.2 C111.2,56 110.8,58.4 109.2,59.2 C109.2,59.2 109.1,59.2 109.1,59.3 C109,59.5 108.8,59.6 108.6,59.7 C108.5,59.8 108.4,59.8 108.4,59.9 L108.4,59.9 L108.3,59.9 C108.3,59.9 108.4,59.9 108.4,59.8 C107.5,60.2 106.7,60.2 105.8,60.1 C105.2,60.3 104.7,60.5 104.2,60.6 C102.8,61 100.9,61.2 99.4,60.6 C99,60.5 98.7,60.2 98.4,59.9 C98.4,61 98.5,62.1 98.5,63.2 C98.6,66 98.6,68.8 98.6,71.6 C98.6,74.7 98.5,77.8 98.3,81 C98.2,82.5 98.1,84.1 97.9,85.7 C97.8,87.2 97.6,88.7 97.4,90.2 C97,93.4 96.2,96.5 95.3,99.5 C94.9,100.8 94.5,102.1 94,103.4 C93.8,104 93.6,104.6 93.3,105.2 C92.1,108.3 90.5,111.2 88.4,113.8 C87.2,115.1 85.9,116.4 84.5,117.4 C83.3,118.3 82.1,119.1 80.7,119.7 C77.8,121 74.5,121.3 71.3,121.2 C70.1,121.2 68.7,121 67.5,120.8 C66.6,120.6 65.6,120.4 64.7,120.2 C63.8,120 63,119.8 62.2,119.5 C61.2,119.2 60.3,118.9 59.4,118.4 L59.4,118.4 L57.8,117.8 C57.1,117.5 56.5,117.2 55.9,116.9 L55.9,116.9 L54.1,116.1 C53.4,115.8 52.7,115.4 52.1,115 C52,114.9 51.9,114.9 51.9,114.8 C51.7,114.7 51.5,114.6 51.3,114.5 C51.3,114.5 51.3,114.4 51.4,114.3 C51.3,114.3 51.3,114.2 51.4,114.1 C51.5,114.1 51.6,114.1 51.7,114.1 C51.7,114.1 51.7,114.1 51.7,114.1 C51.6,114 51.4,114 51.3,113.9 C51.2,113.8 51.2,113.7 51.3,113.6 C51.3,113.6 51.4,113.6 51.4,113.6 C51.4,113.6 51.4,113.6 51.4,113.6 C51.4,113.5 51.4,113.5 51.4,113.4 C51.4,113.3 51.3,113.2 51.4,113.2 C51.6,113 52,113.3 52.1,113.3 C52.2,113.4 52.4,113.5 52.5,113.6 C52.6,113.5 52.6,113.5 52.6,113.5 C52.4,113.4 52.2,113.3 51.9,113.2 C51.8,113.1 51.6,112.9 51.8,112.8 C52,112.7 52.3,112.9 52.5,113 C52.5,113 52.5,113 52.6,112.9 C52.5,112.9 52.4,112.9 52.3,112.8 C52.1,112.7 52.3,112.3 52.5,112.5 C52.5,112.5 52.5,112.5 52.6,112.5 C52.7,112.5 53,112.6 53.1,112.7 C53.8,113.1 54.6,113.5 55.4,113.9 C55.9,114.2 56.5,114.4 57,114.7 C57.5,114.9 58.1,115.2 58.7,115.3 C60.1,115.9 61.5,116.4 63,116.9 C65,117.5 67.1,117.9 69.3,118.1 C69.5,118.1 69.8,118.1 70.1,118.1 C70.7,118.1 71.3,118.1 71.9,118.1 C73.1,118 74.2,117.9 75.4,117.8 C75.8,117.7 76.2,117.6 76.6,117.5 C76.8,117.5 77,117.4 77.2,117.4 C77.3,117.4 77.4,117.4 77.4,117.3 C77.9,117.2 78.4,117.1 78.9,116.9 C79.2,116.7 79.5,116.6 79.8,116.5 C80.8,116 81.8,115.4 82.8,114.7 C83.9,113.5 85.1,112.4 86.3,111.2 L86.3,111.2 L87.3,109.8 C88.7,107.8 89.8,105.6 90.7,103.4 C91.2,102 91.7,100.6 92.1,99.2 C92.3,98.7 92.4,98.2 92.6,97.7 C92.8,96.6 93.1,95.5 93.4,94.4 C93.5,94 93.6,93.6 93.7,93.2 C94.2,90.6 94.5,88 94.7,85.5 C95.2,80.8 95.3,76.1 95.3,71.4 C95.3,68.6 95.3,65.7 95.3,62.9 C95.2,61.3 95.2,59.7 95.2,58 C95.2,56.3 95.1,54.6 95.1,52.8 C95.1,52.8 95.1,52.8 95.1,52.7 C95.1,52.5 95.1,52.3 95.1,52.1 C95.1,52 95.1,51.9 95.2,51.9 C95.2,50.7 95.2,49.5 95.2,48.2 C95.2,48.1 95.2,48.1 95.3,48.1 L95.3,48.1 L95.3,47.8 C95.1,46.9 94.8,46.1 94.4,45.2 C94.3,45 94.2,44.7 94,44.4 C93.8,44 93.6,43.6 93.3,43.3 C93,42.9 92.7,42.5 92.4,42.1 C92.2,42 92.1,41.9 91.9,41.8 C91.8,41.8 91.6,41.7 91.5,41.5 C91.2,41.4 90.9,41.2 90.6,41 C90.5,40.9 90.6,40.7 90.7,40.7 L90.7,40.7 C90.7,40.6 90.6,40.6 90.6,40.6 C90.3,40.3 89.9,40 89.5,39.7 C89.5,39.7 89.4,39.7 89.3,39.7 C89.1,39.5 88.9,39.3 88.7,39.1 C88.2,38.7 87.6,38.4 87.1,38.2 C86.2,37.7 85.3,37.4 84.3,37.1 C84.1,37 83.9,36.9 83.7,36.9 C83.4,36.9 83.1,36.8 82.8,36.8 C72.1,36.4 61.3,36.6 50.6,37.4 C47.9,37.6 45.3,37.9 42.6,38.2 C40.3,38.4 37.5,38.4 35.4,39.5 C35.3,39.5 35.2,39.6 35.1,39.6 C35.3,40.7 35.7,41.7 36.1,42.7 C36.7,44.3 37.2,45.9 37.2,47.6 C37.1,48.7 36.9,49.8 36.5,50.9 C36.3,52.5 35.8,54 35.3,55.5 C32.8,62.8 31.4,70.3 31.5,78.1 C31.5,78.3 31.5,78.5 31.4,78.6 C31.4,79 31.5,79.3 31.5,79.7 C31.8,81 30,81.6 29.4,80.7 C29.4,80.8 29.3,80.8 29.3,80.8 C29.1,80.8 28.9,80.6 28.8,80.5 C28.7,80.3 28.6,80.1 28.5,80 C28.5,80 28.5,80 28.5,80 C28.5,80.1 28.6,80.2 28.7,80.4 C28.8,80.6 28.4,80.7 28.3,80.5 C28.1,80.3 28,80.1 27.9,80 C27.9,80 27.8,80 27.8,80 C27.4,79.3 26.9,78.8 26.4,78.3 C25.7,77.7 24.9,77.3 23.9,77.1 C23.2,77 22.4,77 21.7,77.1 C20.8,77.2 19.9,77.4 19.1,77.8 C18.5,78.2 17.9,78.7 17.3,79.1 C17.1,79.2 17,79.4 16.8,79.6 C16.4,80.1 16,80.7 15.8,81.4 C15.7,81.4 15.7,81.5 15.7,81.5 C15.5,82 15.4,82.6 15.4,83.2 C15.4,83.9 15.4,84.6 15.4,85.3 C15.5,86.2 15.7,87.1 16.1,88 C16.2,88.5 16.5,88.9 16.9,89.3 C17.1,89.7 17.3,90 17.5,90.3 C18,90.6 18.6,90.9 19.2,91.1 C19.3,91.1 19.4,91.2 19.6,91.2 C20.3,91.5 21.1,91.6 21.9,91.7 C22.9,91.7 23.9,91.6 24.9,91.4 C25.5,91.3 26.1,91.1 26.6,90.9 C27.2,90.6 27.7,90.3 28.1,89.9 C28.2,89.9 28.3,89.9 28.3,89.9 C28.5,89.9 28.6,89.8 28.7,89.7 C28.7,89.7 28.7,89.7 28.8,89.7 C28.8,89.7 28.8,89.7 28.8,89.7 C29,89.6 29.5,90 29.3,90.2 C29.4,90.3 29.5,90.4 29.6,90.4 C30,90.5 30.8,91.2 30.6,91.3 C30.4,91.5 30.2,91.7 29.9,91.9 C30.1,92.1 30.4,92.3 30.3,92.4 C30.1,92.6 29.8,92.8 29.5,93 C29.3,93.2 29.1,93.3 28.9,93.4 C28.7,93.6 28.5,93.7 28.2,93.8 C28.6,94.6 29,95.3 29.4,96.2 C29.6,96.7 29.9,97.3 30.2,97.8 C30.6,98.6 31.1,99.4 31.7,100.1 C32.2,100.9 32.7,101.6 33.3,102.2 C34.1,103.1 34.9,103.9 35.8,104.7 C36.2,105 36.5,105.2 36.9,105.4 C37.9,106.1 38.9,106.7 39.9,107.3 C40.1,107.3 40.2,107.5 40,107.6 C40,107.6 40,107.6 40,107.6 C40.4,107.8 40.7,108 41.1,108.2 C41.2,108.3 41.5,108.4 41.3,108.6 C41.1,108.7 40.7,108.5 40.5,108.4 C40.5,108.4 40.5,108.4 40.6,108.4 C40.7,108.5 41.1,108.7 40.8,108.8 C40.7,108.9 40.6,108.8 40.4,108.8 C40.3,108.7 40.2,108.7 40,108.6 C40,108.7 40,108.7 39.9,108.7 C39.9,108.7 39.8,108.7 39.8,108.7 C40.1,108.9 40.4,109.1 40.7,109.2 C40.7,109.3 41.1,109.5 40.9,109.6 C40.8,109.7 40.6,109.6 40.5,109.6 C40.3,109.5 40.1,109.4 39.9,109.3 L39.9,109.3 L39.7,109.2 C39.7,109.2 39.6,109.2 39.6,109.2 C39.8,109.3 40.1,109.4 40.3,109.5 C40.4,109.6 40.7,109.8 40.5,109.9 C40.3,110 40,109.8 39.7,109.7 C39.7,109.7 39.7,109.8 39.7,109.8 C39.5,109.9 39.1,109.6 38.9,109.6 C37.8,108.9 36.6,108.3 35.5,107.5 C34.9,107.1 34.2,106.6 33.6,106.2 C32.4,105.2 31.2,104.1 30.2,103 C29.5,102.2 29.1,101.7 28.5,100.8 C27.4,99.2 26.6,97.6 25.8,95.9 C25.8,95.9 25.8,95.8 25.8,95.7 C25.7,95.3 25.5,94.9 25.4,94.5 C25,94.6 24.5,94.6 24.1,94.6 C23.2,94.7 22.2,94.6 21.3,94.4 C20.3,94.3 19.2,94 18.2,93.5 C17.7,93.2 17.1,92.9 16.6,92.5 C16.1,92.3 15.7,92 15.2,91.7 C13.4,90.3 12.4,88.1 12.1,85.8 C12,84.8 11.9,83.8 12,82.8 C12.1,82.1 12.3,81.4 12.5,80.7 C12.9,79.2 13.7,77.8 14.9,76.7 C15.1,76.5 15.3,76.3 15.5,76.2 C16.2,75.6 16.9,75.2 17.7,74.9 C17.9,74.8 18,74.7 18.2,74.7 L18.2,74.7 L18,74.2 C17.9,74.3 17.7,74.2 17.7,74.1 C17.6,73.9 17.5,73.7 17.5,73.5 C17.4,73.5 17.4,73.6 17.3,73.6 L17.3,73.6 L17.3,73.8 C17.3,73.9 17.2,74.3 17.1,74.1 C17,73.9 17,73.7 16.9,73.5 C16.8,73.4 16.8,73.4 16.8,73.3 C16.8,73.3 16.8,73.3 16.7,73.3 C16.7,73.3 16.7,73.3 16.7,73.3 L16.7,73.3 L16.7,73.3 C16.7,73.4 16.6,73.7 16.6,73.6 C16.2,72.5 15.8,71.4 15.6,70.2 C15.4,69.5 15.3,68.9 15.2,68.2 C15,67.6 14.9,67 14.8,66.4 C14.8,66.4 14.8,66.3 14.8,66.3 C14.8,66.3 14.8,66.3 14.8,66.3 C14.8,66.2 14.8,66.1 14.8,66.1 C14.7,65.4 14.6,64.7 14.6,64 C14.4,62.6 14.4,61.2 14.4,59.8 C14.4,59.8 14.3,59.8 14.3,59.8 C13.7,60.1 13,60.3 12.4,60.5 C11.2,62.1 9.4,63.2 7.2,63.3 C6.5,63.4 5.7,63.3 5,63.1 C4.9,63.1 4.9,63.1 4.8,63.1 C4.2,63.2 3.8,63 3.2,62.9 C2.4,62.8 1.6,62.7 1,62.2 C0.9,62.2 0.7,62.2 0.5,62.1 C-1,62.5 -2.6,61.7 -3.1,60 C-4,59.5 -4.7,58.7 -5.2,57.8 C-6.1,56.6 -6.9,55.2 -7.3,53.6 C-7.3,53.6 -7.3,53.6 -7.3,53.6 C-7.6,53.1 -7.7,52.5 -7.7,52 C-7.9,50.5 -7.9,48.9 -7.4,47.5 C-7.4,46.8 -7.3,46 -6.9,45.3 C-6.5,44.5 -6,43.5 -5.2,42.9 C-5.2,42.1 -4.8,41.1 -4.3,40.5 C-3.3,39.2 -1.9,38.5 -0.4,38.4 C0.4,36.4 2.8,35.9 4.8,36.6 C5.7,35.7 6.9,35.3 8.1,35.4 C9.2,35.6 10.1,36.1 10.8,36.8 C11,36.8 11.2,36.9 11.4,36.9 C12.1,36.6 12.8,36.6 13.5,36.8 C14.7,37.1 15.5,38 16,39 C16.2,39.1 16.4,39.3 16.6,39.4 C16.7,39.5 16.9,39.6 17.1,39.7 C17.3,39.8 17.5,40 17.6,40.3 C17.9,40.6 18.2,40.9 18.4,41.3 C18.6,40.9 18.8,40.4 19,40 C19.3,40.1 19.7,40 19.9,39.5 C20.9,36.8 22.8,31.7 24.6,29.4 C22.5,30.8 20,31.5 17.4,31.5 C17.3,31.4 17.2,31.4 17.1,31.4 C15.7,31.7 14.4,31.7 13.1,31.4 C12.2,31.1 11.4,30.8 10.6,30.3 C10.4,30.2 10.2,30.1 10,30 C9.9,30 9.8,29.9 9.8,29.8 C9.6,29.8 9.4,29.8 9.2,29.7 C8.5,29.6 7.9,29.1 7.5,28.5 C7.4,28.4 7.3,28.3 7.3,28.2 C6.8,27.7 6.5,27.2 6.2,26.7 C5.9,26 5.7,25.3 5.6,24.5 C5.5,23.8 5.5,23 5.8,22.3 C5.8,22.2 5.8,22.2 5.9,22.1 C5.9,22 5.9,22 5.9,21.9 C6,21.7 6.1,21.5 6.2,21.3 C6.2,21 6.3,20.8 6.4,20.6 C6.4,20.5 6.4,20.4 6.4,20.3 C5.7,18.9 5.9,17 7.1,15.9 C6.9,15.1 7.1,14.3 7.5,13.7 C7.9,13.2 8.3,12.8 8.9,12.5 C8.9,12.5 9.1,12.5 9.2,12.4 C9.4,12.2 9.6,12.1 9.9,11.9 C9.9,10.5 11.4,9.7 12.7,9 C13.5,8.5 13.8,7.6 14.7,7.2 C15.6,6.7 16.7,6.6 17.7,6.5 C20.1,6.2 22.6,6 25,6.3 C26.3,6.4 27.4,7.1 27.8,8.1 C28.9,8.2 30,9 30.8,9.9 C31.7,10.9 32.6,12 32.9,13.4 C33.1,13.5 33.3,13.6 33.4,13.8 C33.4,14.8 33.3,15.7 33,16.6 C33.1,17.2 32.9,17.7 32.7,18.2 C32.7,18.6 32.7,19.1 32.6,19.5 C33.1,20.5 32.6,21.9 31.8,22.9 L31.8,22.9 L31.8,23.4 C31.9,23.4 31.9,23.3 32,23.3 C35.4,20.4 39,20.8 43.1,19.1 C46.9,18.4 50.8,17.9 54.6,17.8 C54.6,17.8 54.5,17.8 54.5,17.8 C52.5,17.5 50.6,16.7 49,15.5 C48.6,15.4 48.2,15.2 47.8,14.9 C47.5,14.6 47.3,14.2 47.1,13.8 C47.1,13.8 47,13.7 46.9,13.6 C45.7,13.3 44.8,12.3 45,10.9 C44.2,10 43.9,8.9 44.2,7.7 C43.7,7 43.7,6.1 44,5.3 C43.4,4.5 43.3,3.4 43.8,2.5 C43.3,1.8 43.2,0.9 43.8,0.1 C44.1,-0.3 44.5,-0.6 44.9,-0.7 C45,-1.1 45.3,-1.5 45.7,-1.8 C45.9,-2 46.1,-2.1 46.3,-2.2 C46.4,-2.7 46.6,-3.1 47.1,-3.4 C47.3,-3.6 47.6,-3.7 47.8,-3.7 C48,-4.3 48.4,-4.7 48.9,-5 C49.5,-5.4 50.3,-5.5 51,-5.3 Z M20.5,80.9 C21,80.9 21.5,80.9 21.9,81 C22,81 22,81 22,81 C22.1,81 22.1,81 22.2,81 C22.5,81.1 22.7,81.1 23,81.2 C23.6,81.4 24.3,81.7 24.8,82 C25.3,82.4 25.9,82.8 26.3,83.2 C26.5,83.3 26.6,83.5 26.8,83.6 C27,83.8 27.2,84 27.4,84.2 C27.7,84.4 27.9,84.7 28.2,84.9 C28.6,85.4 28.9,85.9 29.1,86.4 C29.2,86.6 29.1,86.7 28.9,86.6 C28.8,86.6 28.7,86.6 28.6,86.5 C28.6,86.5 28.6,86.6 28.6,86.6 C28.7,86.8 28.7,86.9 28.4,86.9 C28.4,86.9 28.4,86.8 28.4,86.8 C28.5,87 28.6,87.2 28.7,87.4 C28.8,87.6 28.7,87.8 28.5,87.7 C28.4,87.6 28.3,87.6 28.2,87.5 C28.2,87.6 28.3,87.7 28.3,87.8 C28.4,88 28.3,88.1 28.1,88 C28,87.9 27.8,87.8 27.7,87.7 C27.7,87.7 27.6,87.7 27.6,87.6 C27.7,87.8 27.6,87.9 27.4,87.9 C27.2,87.8 26.8,87.5 26.7,87.3 C26.7,87.3 26.7,87.2 26.7,87.2 C26.6,87.1 26.4,87 26.3,86.9 C26.3,87 26.1,87.1 26,87 C25.8,86.4 25.5,86 25.1,85.6 C24.9,85.2 24.6,84.9 24.2,84.7 C24,84.5 23.8,84.4 23.6,84.2 C23.3,84.1 22.9,84 22.6,83.9 C22.5,83.9 22.4,83.8 22.3,83.8 C22.2,83.8 22,83.8 21.8,83.7 C21.1,83.6 20.4,83.6 19.8,83.7 C19.6,83.7 19.5,83.6 19.5,83.5 C19.3,83.5 19.2,83.5 19,83.5 C18.7,83.5 18.8,83.2 19,83.1 C19.2,83.1 19.5,83.1 19.7,83 C19.7,83 19.7,83 19.7,83 C19.3,82.9 18.8,83 18.4,83 C18.2,83 18.4,82.7 18.6,82.6 C18.6,82.6 18.6,82.6 18.7,82.6 C18.7,82.6 18.7,82.6 18.7,82.6 L18.7,82.6 L18.7,82.6 C18.4,82.6 18.2,82.2 18.5,82.1 C18.6,82.1 18.7,82.1 18.8,82.1 C18.8,82.1 18.8,82 18.8,82 C18.6,82 18.5,82 18.4,82 C18.4,82 18.5,81.7 18.6,81.6 C18.7,81.6 18.7,81.6 18.8,81.6 C18.8,81.5 18.9,81.3 19,81.3 C19.4,81.2 19.9,81.2 20.3,81.2 C20.4,81.1 20.4,80.9 20.5,80.9 Z" id="🖍-Ink" fill="currentColor"></path></g><g id="face/Smile-Teeth-Gap" transform="translate(37.8, 44.1)" fill="currentColor"><path d="M40.6,34.2 C42.4,35.3 45.1,37.8 43.2,40.5 C40.9,42.9 37.6,40.2 36,39 C34.5,38 32.8,40.5 34.2,41.6 C45.9,50.2 50.6,34.5 41.5,32.9 C40.5,32.8 40.1,33.9 40.6,34.2 Z M24.4,13.5 L24.8,13.4 L25,13.4 C26.4,13.1 28,13 28.9,14 C29.4,14.6 29.6,15.7 28.9,16.3 C27.7,17.3 26.3,16.9 24.8,17 C23.6,17 22.5,17.2 21.3,17.6 C18.7,18.3 16.7,19.6 14.5,21.1 C14.2,21.3 13.9,20.9 14,20.6 C15.3,18.2 17.7,16.2 20.2,14.9 C21.5,14.3 22.9,13.7 24.4,13.5 Z M36.2,47.5 C40.1,47.7 48.5,45.9 52,48.7 C65.3,65.2 12.8,69.4 18.5,51.2 C22.1,45.3 30.4,47.6 36.2,47.5 Z M35.5,57.4 C34.5,57.3 33.4,58.1 33.1,58.7 C32.8,59.3 32.9,60.5 32.9,60.7 C34.6,60.9 36.3,60.9 38,60.8 C37.6,59.4 37.5,57.6 35.5,57.4 Z M43.3,59.9 C43,58.1 41.7,57.6 40.7,57.9 C39.6,58.2 39,59.4 39.1,60.5 C39.1,60.6 39,60.6 39,60.7 C40.4,60.5 41.9,60.2 43.3,59.9 Z M31.3,57.7 C30.7,56.8 29.3,56.4 28.3,56.5 C26.8,56.9 26.6,58.8 26.6,59.2 C28,59.7 29.5,60.1 30.9,60.4 C31.2,60.4 31.5,60.5 31.8,60.5 L31.8,60.3 C31.9,59.8 31.9,58.6 31.3,57.7 Z M48.5,57.6 C47,55.2 43.6,56.9 43.9,59.5 C44.2,59.4 44.5,59.4 44.8,59.2 C46,58.8 47.4,58.3 48.5,57.6 Z M36.3,49.3 C34.2,49.1 32.4,49.2 31.1,49.4 L31,49.9 C30.9,51.5 30.7,53 31.5,53.7 C32.2,54.2 34.4,54.1 35.9,53.8 C36.3,53.7 36.8,50.4 36.3,49.3 Z M39.5,49.1 C39.2,50.7 39,52.6 39.7,53.1 C40.4,53.7 42.7,53.6 43.3,53.2 C43.8,52.9 43.8,51.3 43.6,49.5 C42.4,49.2 40.4,49.1 39.5,49.1 Z M30.1,49.4 L29.5,49.5 L29.1,49.5 C28.1,49.5 27,49.5 26,49.7 C24,54 31.3,54.8 30.2,49.6 L30.1,49.4 Z M44.5,49.5 L44.5,49.8 C44.5,51 44.5,52.6 45.2,53 C46.2,53.6 48,53.5 49,50.6 C48.7,49.7 45.2,49.6 44.5,49.5 Z M25.2,23.9 C25.6,23.9 26.1,24.1 26.4,24.3 C26.8,24.6 27.1,25 27.4,25.5 C27.9,26.4 28.2,27.6 28.2,29 C28.2,30.3 27.9,31.6 27.4,32.4 C27.1,32.9 26.8,33.3 26.4,33.6 C26.1,33.8 25.6,34 25.2,34 C24.8,34 24.4,33.8 24,33.6 C23.7,33.3 23.3,32.9 23.1,32.4 C22.6,31.6 22.2,30.3 22.2,29 C22.2,27.6 22.6,26.4 23.1,25.5 C23.3,25 23.7,24.6 24,24.3 C24.4,24.1 24.8,23.9 25.2,23.9 Z M51.9,23.9 C52.3,23.9 52.7,24.1 53.1,24.3 C53.4,24.6 53.8,25 54,25.5 C54.5,26.4 54.9,27.6 54.9,29 C54.9,30.3 54.5,31.6 54,32.4 C53.8,32.9 53.4,33.3 53.1,33.6 C52.7,33.8 52.3,34 51.9,34 C51.5,34 51.1,33.8 50.7,33.6 C50.3,33.3 50,32.9 49.7,32.4 C49.2,31.6 48.9,30.3 48.9,29 C48.9,27.6 49.2,26.4 49.7,25.5 C50,25 50.3,24.6 50.7,24.3 C51.1,24.1 51.5,23.9 51.9,23.9 Z M48.3,12.4 L48.6,12.4 L48.8,12.5 C52.5,13.3 57.2,14.8 58.9,18.4 C59,18.9 58.9,19 58.8,19.1 L58.8,19.1 C58.8,19.2 58.7,19.3 58.5,19.3 C58.4,19.3 58.4,19.3 58.3,19.3 C57.5,19.1 56.9,18.8 56.3,18.5 L55.6,18.2 C54.8,17.8 54,17.4 53.2,17.1 C51.4,16.6 49.6,16.2 47.7,15.9 C47.3,15.9 47,15.8 46.7,15.5 C46.4,15.3 46.1,15 46,14.6 C45.9,14.1 46,13.7 46.2,13.2 C46.4,12.9 46.7,12.6 47.1,12.5 C47.5,12.3 47.9,12.3 48.3,12.4 Z" id="🖍-Ink"></path></g><g id="facial-hair/*-None" transform="translate(29.2, 80.1)"></g><g id="accessories/*-None" transform="translate(11.2, 57.1)"></g></g></g></g></g></svg>