<svg viewBox="0 0 324 484" version="1.1" xmlns="http://www.w3.org/2000/svg" xmlns:xlink="http://www.w3.org/1999/xlink"><g id="Introduction" stroke="none" stroke-width="1" fill="none" fill-rule="evenodd"><g id="variations-sitting" transform="translate(-1741, -236)"><g id="a-person/sitting" transform="translate(1743, 200)"><g id="pose/sitting/hands_back-1" transform="translate(-20.3, 159.5)"><path d="M90.9,212 C85.8,224.7 79.7,239.1 74.1,251.4 C74.6,255.4 76.3,259.4 74.9,263.3 C80.7,259.5 87.3,257.1 93.9,255.4 L94.3,257.9 C95.1,257.8 96.4,257.8 97.2,257.8 C97,256.8 96.9,255 96.8,254 L96.8,254 C95.9,243.2 97.6,232.2 99.7,221.6 C100.2,217.8 99,211.9 94.2,211.8 C93.5,211.9 92.3,210 91.8,209.6 L90.9,212 Z M158.2,358 C133.9,359.4 120.1,339.6 108.4,321 C107.1,321.9 105.8,322.8 104.5,323.5 C102.6,326.6 98.7,327.5 95.3,327.9 C83.3,328.5 80.8,317.7 77.8,308.5 C77.2,308.9 75.9,310.9 75,310.4 C69.6,309.2 64.4,307.8 58.6,308.2 C52.1,306.8 18.1,321.7 21.2,308.7 C22.8,303 31.2,300.3 35.5,296.4 C41.9,289.2 40.3,280 43.3,271.5 C45.8,262.9 48.8,254.8 54.2,247 C54.7,217.5 55.8,181.5 63.4,155.3 C68.3,136.9 74.3,117.9 72,98.6 L70.7,98.6 C70.1,98.3 69.2,98 68.5,98.1 C67.9,97.5 66.8,97.7 66,97.4 C64.6,83.8 64,72.1 65.8,59.8 C67.6,39.4 80.5,31 99.3,26.6 C120,19.8 134,12.9 144.8,-4 C146.8,-7.4 148,-11.4 150.7,-14.3 C157.4,-22.8 176.7,-21.4 181.7,-12.5 C183.9,-7.2 184.1,-1.1 185.7,4.3 C192.2,27.3 222.2,24.6 238,37.2 C245,42.4 247.3,50.4 248.2,58.5 C249.3,68.7 251.5,78.5 251.2,88.7 C251.9,88.8 253.6,88.3 253.9,89.3 C253.2,91.5 244.7,91.5 242.3,91.9 C245.5,108.4 242.6,124.9 245.1,141.5 C249,160.1 256.6,177.3 262.6,195.3 C264.9,201.2 266.4,207.5 269.8,212.9 L269.8,213 C270.3,213.9 270.9,214.8 271.5,215.6 C272.1,215.8 272.8,216.2 273.4,216.4 L273.6,216.2 L273.9,216.6 L274.9,216.2 C276.3,217 277.9,217.8 279.5,218.7 C298.6,230.3 311.1,242 326,256.5 L324.1,258.1 C324.8,259.1 325.7,260.5 326.4,261.5 C326.9,261 328.2,260.1 328.9,259.8 C341.7,275 343.2,301.3 337,317.2 C335.1,322 331.9,325.9 328.1,329.2 C326.6,331.6 323.8,334.8 320.2,336.4 C320.2,336.4 319.7,337 319.7,337 C319.5,337.1 318.4,337.3 318.3,337.6 C308.8,339.2 299.2,343.4 289.3,343.5 C273.2,343.3 259.3,330.3 246.4,321.6 C238.2,315.8 228.7,311.8 219.9,307.9 C220.5,311.3 220.3,312.4 216.7,313.7 C213.4,315 209.5,314 206.5,312.5 C206.5,318.1 207,323.7 206.8,329.6 C206.8,336.8 207.1,345.6 199.3,348.9 C186.1,354.1 171.2,357.9 158.2,358 L158.2,358 Z" id="🎨-Background" fill="#FFFFFF"></path><path d="M146.3,-11.1 C147.4,-13.1 150.5,-11.7 149.9,-9.6 C148.3,-4.3 144.6,0.7 141,4.9 C137.4,9 133.2,12.6 128.6,15.7 C128.1,17.4 128.2,19 128.9,20.7 C129.2,21.3 128.9,21.8 128.4,22 C128.9,23.7 129.2,25.5 129.7,27.2 C130.9,31.5 132.9,35.7 135.5,39.4 C140.2,46.2 146.8,51.3 154.9,53.3 C162.8,55.2 171.4,54.1 178.3,49.6 C184.5,45.6 188.9,39.3 189.6,31.9 C189.9,28.4 189.6,24.9 188.8,21.6 C188.4,19.8 187.8,18 187.2,16.3 C186.5,14.5 185.6,12.8 185.1,10.9 C185,10.7 185,10.6 185,10.4 C184,8.8 183.7,6.8 184.3,4.9 C184.3,4.8 184.4,4.7 184.4,4.6 C184.4,4.3 184.3,4 184.3,3.7 C184.2,2.4 184.2,1.2 184.2,-0.1 C184.1,-1.3 183.9,-2.4 184,-3.6 C184,-3.8 184.2,-3.8 184.2,-3.7 C185,-2.6 185.2,-1.5 185.6,-0.2 L185.6,-0.1 C186.1,1.3 186.4,2.7 186.8,4 C187.4,6.2 188.2,8.2 189.4,10.1 C191.5,13.4 194.4,16.1 197.7,18.2 C210.3,26.5 226.6,26.7 238.6,36.2 C241.5,38.5 244,41.3 245.6,44.6 C247.7,48.7 248.5,53.2 249.2,57.7 L249.3,58.4 C250,63.7 250.7,68.9 251.3,74.1 C251.6,76.7 251.9,79.3 252.1,82 C252.3,83.7 252.7,85.6 252.5,87.3 C252.7,87.3 253,87.4 253.2,87.4 C254.2,87.7 255,88.4 255,89.5 C255.1,92.2 251.2,92.5 249.2,92.8 L249.1,92.8 C247.3,93.1 245.5,93.4 243.7,93.5 C244.4,96.9 244.6,100.4 244.8,103.9 C245,107.2 245,110.6 245.1,113.9 L245.1,118 C245.2,125.8 244.9,133.7 246.2,141.4 C247.4,148 249.5,154.4 251.7,160.8 L252.6,163.5 C255.2,171.2 257.9,178.9 260.6,186.6 C262,190.4 263.4,194.2 264.7,198.1 C265.4,200 266.1,201.9 266.8,203.8 C267,204.5 267.3,205.2 267.6,205.9 C267.7,206.1 267.8,206.2 267.9,206.4 C268.5,208.3 269.4,210.2 270.4,211.9 C271.6,212.9 272.8,213.8 274,214.9 C274,214.9 274,214.9 274,214.9 C274.3,214.8 274.7,214.8 275.1,215 C276.7,215.8 278.2,216.6 279.8,217.5 C279.8,217.5 279.8,217.5 279.8,217.5 C279.8,217.5 279.8,217.5 279.8,217.5 C289.3,222.9 297.9,229.7 306.2,236.7 C310.4,240.3 314.5,244 318.6,247.7 C322.5,251.2 326.3,254.9 329.6,258.9 C332.9,263 335.7,267.4 337.5,272.3 C339.5,277.5 340.4,283 341,288.5 L341.1,288.9 C342.1,298.6 341.9,308.9 338,318 C336.1,322.5 333.2,326.6 329.5,329.9 C329.3,330 329.2,330.1 329,330.3 C326.9,333.4 324.1,336.2 320.8,337.8 L320.4,338.3 L320.4,338.3 L320.2,338.5 L318.9,338.9 L318.8,339 L318.8,339 C318.4,339.4 317.9,339.4 317.5,339.3 L312.9,340.4 L312.9,340.4 L308.4,341.6 C302.4,343.1 296.3,344.9 290,345.1 C284.1,345.4 278.5,343.8 273.2,341.4 C268,339 263.3,335.8 258.6,332.6 C254.1,329.5 249.6,326.2 245.1,323 C243.5,321.9 241.9,320.8 240.3,319.7 C239.9,319.6 239.6,319.4 239.2,319.2 L239,319.1 C237.3,318.3 235.8,317.4 234.2,316.6 C231,315 227.7,313.4 224.4,311.9 C223.4,311.4 222.3,311 221.3,310.5 C221.3,310.8 221.3,311.1 221.3,311.5 C221,313.5 218.5,314.6 216.8,315.3 C215.3,315.8 213.7,316 212.2,316 C210.6,315.9 209,315.6 207.6,315 C207.6,315 207.6,315 207.6,315 C207.9,319.1 208,323.3 208,327.4 L208,328.9 C207.9,332.9 208,337.2 207.1,341.1 C206.2,345.4 203.5,348.6 199.6,350.5 C196.1,352.1 192.4,353.1 188.7,354.2 L188,354.5 C180,356.9 171.9,358.7 163.6,359.5 C155.7,360.1 147.5,359.6 140.1,356.7 C132.2,353.6 125.8,348.2 120.5,341.6 C116.3,336.4 112.5,330.8 108.8,325.2 L107.5,323.3 C106.8,323.8 106,324.3 105.3,324.8 C105,325.3 104.7,325.7 104.2,326.1 C103.3,326.8 102.4,327.4 101.5,327.9 C99.4,328.9 97.3,329.4 95,329.6 C90.8,329.8 86.5,328.3 83.4,325.4 C79.5,321.7 78.5,316.3 76.7,311.5 C76.1,312.1 75.2,312.3 74.3,312.1 C71.6,311.7 69,310.8 66.3,310.3 C63.6,309.9 60.9,309.8 58.3,309.9 C53.2,310 48.3,311.2 43.5,312.6 L42.2,312.9 C37.8,314.2 33.3,315.4 28.7,315.6 L28.1,315.6 C25.9,315.7 23.3,315.7 21.4,314.7 C18.9,313.5 18.5,310.7 19.4,308.3 C20.5,304.9 23.2,302.6 26.2,300.6 C28.8,298.9 31.9,297.5 34.1,295.5 C37,292.7 37.8,288.6 38.5,284.9 L38.5,284.7 C39.4,280.2 40.2,275.7 41.4,271.2 C42.6,266.8 44.2,262.4 46,258.2 C47.8,254.1 49.9,249.9 52.5,246.2 C52.5,246.2 52.5,246.2 52.6,246.2 C52.5,246 52.5,245.9 52.5,245.7 C52.4,245.1 52.5,244.4 52.5,243.7 L52.5,239.5 L52.5,239.5 C52.6,236.7 52.6,234 52.6,231.2 C52.7,225.6 52.9,219.9 53.1,214.3 C54,194.3 56.4,174.4 61.5,155.1 C64,145.7 66.7,136.3 68.6,126.7 C69.6,121.6 70.2,116.5 70.5,111.3 C70.6,107.6 70.5,104 70.2,100.3 C70,100.3 69.8,100.2 69.6,100.1 C69.3,100 69,99.9 68.8,99.8 L68,99.8 L68,99.8 C67.6,99.8 67.2,99.7 67,99.4 C66.9,99.4 66.8,99.3 66.6,99.3 C65.9,99.2 65.2,99.1 64.4,98.8 C64.3,98.8 64.2,98.6 64.1,98.4 C64.1,97.6 64,96.8 63.9,96 C63.7,95.3 63.7,94.6 63.7,93.8 C63,86.6 62.6,79.4 62.8,72.2 C62.6,71.9 62.7,71.5 62.8,71.2 C63,67.3 63.3,63.5 63.9,59.7 L64,59.2 C65.4,50.3 68,41.2 75.2,35.4 C81.9,29.9 90.4,27.8 98.4,25.3 L99.1,25.1 C109.3,21.9 119.3,17.8 128,11.5 C132,8.6 135.6,5.3 138.8,1.5 C140.3,-0.4 141.8,-2.4 143,-4.6 C144.3,-6.7 145.2,-8.9 146.3,-11.1 Z M238.7,201.4 C238.1,202.4 237.3,203.3 236.5,204 C235.8,204.4 235.2,204.7 234.5,205.1 C234.1,205.2 233.6,205.4 233.1,205.6 C232.2,205.9 231.3,206.2 230.4,206.6 C230.2,206.5 230,206.5 229.8,206.4 C227.6,207.4 225.2,208.2 222.8,208.6 L222.7,208.6 L222.7,208.6 C220.7,209.5 218.7,210.3 216.7,211.1 C211.5,213.1 206,214.7 200.5,216.1 C190.8,218.5 180.7,219.9 170.7,220.9 C161.1,221.8 151.5,222.3 141.9,222.3 C128.7,222.2 114.5,220.6 103,213.8 C103,214.2 103,214.6 102.9,214.9 L102.9,215.3 C103.2,217.9 103.2,220.5 103,223.1 C102.7,227.3 101.9,231.5 101.5,235.6 C101.5,236.5 101.1,237.1 100.6,237.5 C99.8,246.1 100,255 101.6,263.5 C101.9,263.6 102.1,263.8 102.3,264.1 C102.3,264.6 102.4,265.1 102.6,265.6 C102.6,265.6 102.6,265.6 102.5,265.6 C102.5,265.9 102.4,266.2 102.2,266.4 C103.7,272.5 105.9,278.4 109.2,283.8 C113.1,290.4 118.2,296.1 123.3,301.7 L124.7,303.3 C127.6,306.4 130.4,309.6 133,312.9 C134.4,314.6 135.7,316.4 137,318.3 L137.4,318.9 C138.5,320.5 139.6,322.2 140.1,324.1 C140.7,326.5 137.6,328.5 135.8,326.6 C134.1,324.8 133,322.7 131.7,320.6 C130.4,318.8 129,317 127.6,315.3 C124.9,311.9 121.9,308.7 119,305.5 L117.9,304.2 C112.5,298.3 107.2,292.1 103.4,285 C100.9,280.5 99,275.6 97.6,270.6 C97.2,271 96.9,271.3 96.6,271.7 C94.7,273.6 93.2,275.9 92.1,278.4 C91,280.8 90.3,283.5 90,286.2 C89.9,287.5 89.8,288.9 89.8,290.2 C91.1,289.9 92.4,290.5 93.2,291.6 L97.2,297.5 L97.2,297.5 L105.2,309.2 L105.2,309.2 L113.2,320.8 C117.9,327.6 122.3,334.8 127.9,340.9 C133,346.5 139.1,350.5 146.5,352.3 C153.6,354.1 161.1,353.9 168.4,352.8 C175.9,351.7 183.4,349.6 190.7,347.5 L191.2,347.3 C194.2,346.4 198.2,345.7 200.2,343 C202.4,340.3 202.1,336 202.2,332.7 L202.2,332.5 C202.8,315.7 201.1,298.8 197.4,282.4 C195.5,274.2 193.3,266 190.5,258.1 L189.8,256.1 C188.6,252.7 187.5,249.4 186.2,246.1 C184.4,242.4 182.5,238.7 180.3,235.2 C179.5,233.8 181.7,232.5 182.5,233.9 C185.7,239.2 188.5,244.6 190.9,250.3 C191.1,250.8 191.4,251.2 191.6,251.7 C192.2,249.5 193.1,247.4 194.2,245.3 C195.4,242.8 197.1,240.5 198.9,238.3 L199.1,238.1 C200.9,235.9 203,233.9 205.9,233.4 C207.6,233.1 208.7,234.6 208,236.1 C206.8,238.6 204.9,240.2 203,242.2 C201.4,243.9 199.9,245.9 198.6,248 C197.3,250.1 196.2,252.4 195.2,254.7 C194.8,255.6 194.5,256.4 194.1,257.3 C198.5,267.4 201.7,278.1 204,288.8 C204,289 204.1,289.1 204.1,289.3 C205.5,290.1 206.9,291.1 208.2,292 L209.3,292.6 C210.7,293.5 212.1,294.3 213.5,295.1 C215.3,296.1 217.1,297 219,297.9 C221,298.8 223.1,299.4 224.8,300.8 C225.7,301.6 224.9,303.1 223.8,303.1 C221.9,303.1 220.3,302.4 218.6,301.5 L217.4,301 C215.5,300 213.5,299 211.7,297.8 C209.8,296.6 207.9,295.3 206.2,293.8 L205.7,293.4 C205.4,293.2 205.1,292.9 204.8,292.6 L205,293.7 C205,293.9 205,294 205.1,294.2 C205.4,294.4 205.7,294.6 206,294.7 C206.1,294.9 206.2,295.1 206.2,295.4 C206,295.5 205.8,295.8 205.9,296.2 C206.2,297.5 206.4,298.8 206.5,300.1 L206.6,300.4 L206,300 C206.1,300.8 206.2,301.7 206.4,302.6 C213.1,303 219.7,305.4 226,307.7 C229.5,309 232.9,310.5 236.3,312 L237.1,312.4 C238.5,313.1 239.8,313.7 241.1,314.4 C241.3,314.5 241.4,314.6 241.6,314.7 L241.8,314.8 L242.3,314.7 C243,314.9 243.7,315.1 244.4,315.4 C247.3,317.3 250.1,319.4 252.9,321.4 L256,323.6 C259.4,326.1 262.8,328.5 266.3,330.8 L266.8,331.1 C271.1,333.9 275.6,336.6 280.5,338.1 C285.8,339.8 291.2,339.7 296.6,338.6 C302.6,337.4 308.4,335.8 314.3,334.3 C316.3,333.8 318.3,333.3 320.3,332.8 C321,332.3 321.7,331.8 322.3,331.2 C328.2,323.6 332.1,314.5 333.8,304.9 C335.8,294 334.6,282.8 330.4,272.5 C326.3,262.4 319.5,253.6 311.7,246.1 C303.6,238.3 294.3,231.8 284.8,225.9 C278,221.7 271,217.7 263.9,213.9 C263,213.6 262,213.1 261.1,212.6 C259.2,211.8 257.4,211 255.5,210.2 C253.7,209.4 252,208.6 250.2,207.8 C248.8,207.1 247.4,206.5 245.9,205.8 L244.5,205.2 C243.1,204.5 241.6,203.9 240.3,202.9 C239.8,202.5 239.5,202.1 239.2,201.6 C239,201.6 238.9,201.5 238.7,201.4 Z M152.9,311.7 C153,311.5 153.3,311.6 153.2,311.8 C152.1,314.2 151.4,316.9 150.8,319.5 C150.3,321.8 149.9,324.1 149.7,326.4 L149.6,327.2 C149.4,329.3 149.2,331.7 150.2,333.7 C150.9,335 152.3,336.6 153.8,337 L153.8,337 C155.6,337.5 155.4,339.8 153.8,340.4 C150.9,341.4 147.9,340 146.3,337.5 C144.6,334.8 144.6,331.5 145.2,328.5 C145.9,325.5 147.2,322.5 148.5,319.7 C149.7,316.9 151.4,314.4 152.9,311.7 Z M95.1,256.9 L93.9,257.2 C86.7,259.1 79.1,261.2 74.8,267.9 C71.2,273.5 70.7,280.6 71.2,287 C71.3,288.5 71.5,290 71.7,291.5 L71.7,292 C72,293.6 72.1,295.8 72.9,297.2 C73.7,298.6 75.6,299.4 76.8,300.5 C78,301.6 79.1,303 79.9,304.5 C81.5,307.4 82.4,310.6 83.5,313.7 L83.6,314.1 C84.5,316.8 85.6,319.4 87.7,321.4 C88.5,322.1 89.8,322.8 90.9,323.2 C92.4,323.6 93.4,323.8 95,323.7 C96,323.6 97.7,323.2 98.6,322.7 C100.2,321.9 101,320.8 102.9,320.4 C103.5,320.3 104.1,320.4 104.7,320.7 C104.9,320.5 105.1,320.3 105.4,320.2 C105.1,319.8 104.9,319.4 104.6,319.1 L87.9,294.7 L87.9,294.7 C87.3,293.8 87.4,292.6 87.9,291.7 C87.8,291.2 87.6,290.8 87.5,290.4 C87.1,288.9 86.8,287.4 86.8,285.9 C86.7,282.8 87.2,279.7 88.2,276.7 C89.3,273.7 90.8,270.9 92.8,268.4 L93,268.2 C93.8,267.2 95,265.9 96.2,264.9 C95.9,263.4 95.7,262 95.5,260.5 C95.3,259.3 95.2,258.1 95.1,256.9 Z M206.6,304.2 C206.9,306.9 207.2,309.5 207.4,312.1 C208.8,312.3 210.3,312.1 211.7,311.6 C212.8,311.2 213.8,310.7 214.8,310 C215.5,309.6 216,309.1 216.7,308.6 L215.2,308 C212.3,306.9 209.4,305.6 206.6,304.2 Z M97.4,101 C89.2,100.1 81,99.7 72.7,99.7 C73.4,107.3 73.2,115 72.2,122.5 C72,124.9 71.7,127.4 71.4,129.8 C69,149.4 63.3,168.3 61.1,188 C60,197.9 59.4,208 59.1,218 C58.9,223 58.8,228 58.7,233 C58.7,235.6 58.7,238.2 58.7,240.7 L58.6,244.5 L58.6,244.5 C58.6,245.1 58.7,245.9 58.5,246.5 C58.3,247.1 57.9,247.6 57.6,248.1 L57.4,248.3 C56.6,249.6 55,249.7 54,248.8 C52.8,251 51.6,253.2 50.4,255.4 C48.9,258.3 47.6,261.4 46.7,264.5 C45.8,268 45.1,271.6 44.5,275.2 C43.8,279.5 43.3,283.9 42.5,288.2 C41.8,292.3 40.4,296.1 37.6,299.2 C35.3,301.5 32.5,303.1 29.7,304.8 L29.3,305.1 C28.2,305.8 27.4,306.4 26.4,307.4 C25.6,308.2 25.1,309 24.8,309.9 L25,310 C25.1,310 25.2,310 25.2,310 C26.3,310.1 27.4,310.2 28.4,310.1 C30.7,310.1 32.9,309.7 35,309.3 C39.5,308.3 43.8,306.8 48.2,305.8 C52.8,304.7 57.6,304.3 62.3,304.6 L62.8,304.6 C66.7,304.8 71,305.3 74.7,306.9 C74.5,306.6 74.3,306.3 74.2,306.1 C73.3,304.7 71.7,303.7 70.4,302.6 C68.4,301.1 67.4,299.1 66.9,296.7 C66.3,292.8 65.9,288.7 65.8,284.7 C65.8,277.1 67.3,269 72.9,263.3 C72.9,263.3 72.9,263.3 72.9,263.3 C72.9,263 72.9,262.8 72.9,262.5 C71.9,262.1 71.1,261.1 71.1,259.9 C71.1,257.8 71.2,255.8 71.6,253.8 C70.8,253.4 70.1,252.7 70.1,251.6 C70.1,249.9 71,248.5 71.7,246.9 L71.7,246.8 C72.3,245.4 72.9,244 73.6,242.7 L76,237.1 C76.4,236.2 76.8,235.3 77.2,234.3 C81.5,224.7 86,215.3 90.4,205.7 C92.1,201.9 93.8,198.1 95.3,194.2 C96.3,190 97.6,185.9 98.7,181.7 C99.9,177.5 101,173.4 101.7,169.1 C102.4,164.7 102.7,160.2 102.8,155.7 C102.9,146.9 101.9,138 100.8,129.2 L100.7,128.6 C99.6,119.4 98.4,110.2 97.4,101 Z M294.1,274.5 C293.9,274.4 294.1,274.1 294.3,274.2 C299.2,277.5 303.8,281.4 307.3,286.1 C311.2,291 314.1,296.5 316.2,302.4 C317,304.6 313.3,305.6 312.7,303.3 C309.8,292.3 303.4,281.4 294.1,274.5 Z M249.1,237.9 C249.2,237.8 249.4,238 249.3,238.1 C247.6,240.9 246.6,243.9 245.4,246.8 L245.2,247.4 C244,250.5 242.9,253.6 242.1,256.8 C240.4,263.2 240,269.9 238.8,276.4 C238.6,277.7 236.5,277.6 236.3,276.4 C234.8,269.4 236.2,262.2 238.6,255.6 C239.8,252.3 241.2,249.1 243,246 C244.7,243.1 247,240.6 249.1,237.9 Z M132.6,249 L133,248.8 C138.4,245.9 144.9,243.4 151.2,244 C152.9,244.1 153.4,246.6 151.6,247.1 C145.8,248.8 139.8,249.7 134.2,252.1 C128.5,254.5 123.6,257.9 118.7,261.5 C118.5,261.6 118.2,261.3 118.4,261.2 C121.9,256 127.2,252 132.6,249 Z M91.9,212.7 C90.5,216.2 89.1,219.7 87.7,223.1 C85.8,227.7 83.9,232.2 81.9,236.7 L78,245.8 L78,245.8 C77.4,247.1 76.8,248.4 76.3,249.8 C76,250.5 75.7,251.2 75.3,251.9 C75.4,252.4 75.4,252.8 75.5,253 L75.5,253 C75.9,255.1 76.2,257.1 76.6,259.1 C76.7,259.6 76.7,260 76.7,260.4 C77.2,260.1 77.8,259.8 78.4,259.5 C80.3,258.3 82.6,257.5 84.6,256.8 C87.9,255.5 91.4,254.5 94.8,253.6 C94.4,247.3 94.7,240.9 95.5,234.6 C95.8,232.4 96.1,230.2 96.6,228 C97,225.9 97.5,223.8 97.8,221.6 C98.1,218.8 97.6,213.7 93.8,213.5 L93.7,213.5 C92.9,213.4 92.3,213.1 91.9,212.7 Z M324.9,257.4 C325.4,258.1 325.9,258.8 326.3,259.5 C326.4,259.4 326.5,259.3 326.6,259.3 C326,258.7 325.5,258 324.9,257.4 Z M95,256.2 L93.9,256.5 L93.9,256.5 C94.3,256.5 94.6,256.5 95,256.5 C95,256.4 95,256.3 95,256.2 Z M270.7,212.4 C271,213 271.4,213.6 271.9,214.2 L272.1,214.5 L272.9,214.8 C273,214.9 273.1,214.9 273.2,215 C273.3,215.1 273.4,215.1 273.5,215.1 C272.5,214.3 271.6,213.3 270.7,212.4 Z M228,91.6 C227.9,94.8 227.8,98 227.7,101.2 C227.2,111.8 226.6,122.5 226.4,133.2 L226.4,133.9 C226.2,143.3 226.5,152.7 229.2,161.8 C230.5,166.3 232.6,170.4 234.9,174.5 L235.8,175.9 C237.9,179.6 240.1,183.5 241,187.7 C241.4,189.6 241.5,191.8 241.2,193.9 C241.4,194.1 241.4,194.5 241.3,194.8 L241.1,195.5 C240.7,196.8 240.3,198.4 240.9,199.7 C241,199.8 241.1,199.9 241.1,200.1 L242.5,200.7 C243.2,201 243.9,201.3 244.6,201.7 C246.6,202.6 248.4,203.5 250.3,204.5 C250.6,204.4 251,204.3 251.4,204.5 C255.8,206.7 260.1,209 264.4,211.3 L265.1,211.6 L265.1,211.6 C265.1,211.5 265,211.4 265,211.3 C264.7,211.2 264.5,211.1 264.3,210.9 C262.4,209.3 262,206.7 261.3,204.4 L259.2,198 C257.7,193.7 256.3,189.3 254.8,185 C252.3,177.3 249.6,169.6 247,161.9 L246.7,161.1 C244.3,153.9 242.1,146.7 241.2,139.1 C240.3,131 240.7,122.9 240.9,114.8 L240.9,114 C241,107.2 241,100.2 242.3,93.6 C242,93.6 241.7,93.6 241.4,93.6 C239.1,93.6 236.7,93.5 234.4,93.2 C233.1,93 231.9,92.8 230.7,92.5 C230.1,92.4 229.4,92.2 228.8,92 C228.5,91.9 228.3,91.8 228,91.6 Z M83.5,140.2 C85.6,140.2 87.7,140.3 89.8,140.5 L90.9,140.6 C93,140.8 95,141.1 96.6,142.6 C97.6,143.5 97.1,145.2 95.9,145.6 C93.6,146.1 91.6,145.4 89.4,144.9 C87.4,144.5 85.3,144.2 83.3,144 C79.1,143.6 74.9,143.6 70.6,143.6 C70.1,143.6 70.1,142.9 70.5,142.7 C74.6,141 79.1,140.3 83.5,140.2 Z M125.7,17.6 C125.5,17.7 125.2,17.9 125,18 C125.3,18 125.5,18.1 125.7,18.1 C125.7,17.9 125.7,17.7 125.7,17.6 Z" id="🖍-Ink" fill="currentColor"></path></g><g id="Head" stroke-width="1" transform="translate(86.5, 45.1)"><g id="head/Bun"><path d="M37.5,16 C75.5,14.1 101.3,44.1 102.4,56 C103.2,64.3 102.6,75.3 102.6,82.7 C102.6,86.5 104.5,98 102.4,103.5 C97.6,115.8 92.2,125.4 77.1,125.4 C62.1,125.4 39.2,117.6 31.3,107.6 C29.9,105.7 12,92.3 12,81.8 C12,59.3 10.4,17.3 37.5,16 Z" id="🎨-Background" fill="#FFFFFF"></path><path d="M11.6,-8.3 C13.7,-9 15.1,-8 16.1,-6.5 C16.3,-6.5 16.5,-6.5 16.8,-6.5 C16.8,-6.5 17,-6.4 17.1,-6.4 C17.1,-6.3 17.2,-6.3 17.3,-6.2 L17.3,-6.3 L17.3,-6.3 C17.5,-6.4 17.7,-6.6 17.8,-6.7 C18.3,-7 18.7,-7.1 19.1,-7.1 L19.3,-7.1 L19.3,-7.1 C20.9,-7.7 22.6,-7.4 23.7,-6 C23.9,-5.8 24.1,-5.5 24.2,-5.2 C24.6,-5.1 24.9,-4.9 25.1,-4.7 C25.3,-4.8 25.5,-4.9 25.7,-4.9 C26.9,-5.2 28.1,-4.9 29.1,-4.2 C29.6,-3.9 29.9,-3.4 30.2,-2.9 C30.5,-2.9 30.8,-2.7 31.1,-2.6 C31.3,-2.7 31.5,-2.8 31.8,-2.9 C32.7,-3.1 33.6,-3.2 34.6,-3.2 C36.6,-3 38.6,-0.7 37.2,1.3 L37.2,1.3 C37,1.6 36.9,1.8 36.7,2.1 C37.2,2.3 37.7,2.6 38.1,2.9 C40.2,4.6 40.4,7.3 40,9.8 L40,9.9 L40,9.9 C41.1,10 42.1,11.2 41.4,12.3 L41.4,12.3 C40.5,13.7 39.7,15.3 38.9,16.7 C36.5,17.6 34.2,18.6 32.1,19.9 C30.7,21.1 29.4,22.3 28.3,23.7 C27.8,24.4 27.2,25.1 26.8,25.8 C27.2,26 27.6,26 28,25.7 C31.5,22.4 35.8,20.1 40.3,18.6 C40.6,18.5 40.8,18.3 41,18 C43,17.5 45,17 47.1,16.7 C47.6,16.2 48.2,15.6 48.8,15.1 C49.5,14.4 50.4,14.4 51.1,14.9 C51.4,14.7 51.8,14.6 52.1,14.4 L52.4,14.4 C52.4,14.3 52.5,14.3 52.6,14.3 C55,13.5 57.3,13.8 59.6,14.4 L59.9,14.5 C61,14.8 61.7,14.8 62.8,14.5 L62.9,14.4 C64.1,14.2 65.3,13.9 66.5,14.2 C67.7,14.6 68.5,15.3 69.3,16.2 L69.4,16.3 C69.8,16.7 70,16.7 70.5,16.7 L71.1,16.7 C73.1,16.6 75.2,16.7 76.7,18.3 C77.3,18.9 77.9,19.7 78.2,20.5 L78.3,20.6 C78.3,20.6 78.3,20.7 78.3,20.7 C78.6,20.7 78.9,20.5 79.1,20.5 C81.3,20.1 83.2,20.7 84.6,22.5 C84.9,22.9 85.4,23.6 85.7,24.1 C85.8,24.2 86,24.3 86.1,24.4 C86.6,24.7 87.4,24.7 88,24.8 C89.6,25.1 91.4,25.8 92.2,27.3 C92.6,28 92.7,28.7 92.8,29.4 C93.4,29.8 93.8,30.3 94.2,30.9 C94.6,31.6 94.8,32.4 95.2,33.1 C95.6,33.5 96.1,33.8 96.6,34.1 L96.8,34.2 C98.3,35.1 99.4,36 99.9,37.8 L100,37.9 C100,38.2 100.3,38.9 100.1,38.8 C100.3,38.9 100.6,39 100.8,39 C101.8,39.4 102.7,39.9 103.3,40.9 C103.7,41.6 103.8,42.4 103.9,43.2 L103.9,43.5 C104,43.6 104,43.7 104,43.8 L104,43.9 L104,43.9 C104.2,43.9 104.4,44 104.6,44.1 C105.4,44.6 106,45.5 106,46.5 C106,47 105.8,47.4 105.6,47.7 C105.8,48 105.9,48.3 106,48.6 C106.2,49.2 106.3,49.9 106.2,50.5 C106.1,51.3 105.9,52 105.7,52.8 C105.6,53.1 105.5,53.5 105.4,53.7 C105.7,54.1 105.8,54.5 105.8,54.9 C105.7,55.4 105.4,56.1 104.9,56.4 C104.7,57.6 104.2,58.8 103.6,59.8 C103.6,59.9 103.5,60 103.4,60.1 C103.5,64.1 103.2,68.1 103.2,72 C103.2,76.3 103.2,80.7 103.4,85 C103.7,92.1 104.6,99.5 102.4,106.4 C100.7,112.1 97.3,117 92.6,120.7 C87.9,124.5 82.2,126.7 76.1,127 C73,127.2 69.9,126.9 66.9,126.1 L66.6,126 C63.7,125.2 60.3,124 58.2,121.9 C57.1,120.7 58.2,118.4 59.8,119 C61.5,119.7 62.9,120.6 64.6,121.3 C66,121.9 67.5,122.4 69,122.7 C72.1,123.4 75.4,123.5 78.5,123.1 C89.7,121.6 98.5,112.2 100.2,101.2 C100.7,98.1 100.7,95 100.7,91.9 L100.6,88.5 C100.6,85.7 100.6,82.8 100.7,80 C100.8,76.3 101.1,72.7 101.4,69.1 L101.6,67.2 C101.8,65 102.1,62.7 102.5,60.5 C102.2,60.6 99.5,56 98,53.4 C97.4,53 97,52.4 96.8,51.7 C96.8,51.6 96.7,51.5 96.7,51.3 C96.4,50.8 96.1,50.3 95.7,49.8 L95.6,49.8 C95.6,49.8 95.5,49.7 95.5,49.7 C94.7,49.3 94.1,48.6 93.6,47.8 C93.5,47.6 93.3,47.3 93.2,47 C92.6,46.4 91.9,45.8 91.2,45.2 C91.1,45.2 91.1,45.1 91,45.1 C90.1,44.7 89.3,44.2 88.7,43.5 C88.5,43.3 88.3,43.2 88,43.1 C87.3,43.1 86.6,42.9 85.8,42.6 C84.5,42.1 83.5,41 82.1,40.5 C80.8,40 79.3,41.2 77.8,40.9 C77.4,40.9 77,40.8 76.7,40.6 C75.9,41.5 75,42.3 74,43.1 C72.6,44.1 71.1,44.6 69.5,45.1 C68.7,45.8 67.8,46.6 66.7,46.7 C64.1,48.7 61.4,50.4 58.5,52 C58.1,52.3 57.6,52.4 57.2,52.4 C56.3,53 55.3,53.4 54.3,53.7 C53.9,53.8 53.6,53.8 53.3,53.8 L52.4,54.5 L52.4,54.5 C51.7,55 51.1,55.3 50.4,55.3 C50,55.6 49.6,55.9 49.2,56.1 C48.8,56.4 48.2,56.5 47.6,56.5 C46.7,57.4 45.6,57.5 44.6,57.1 C44.5,57.1 44.4,57.2 44.2,57.3 C44,57.4 43.8,57.5 43.6,57.5 C42.6,58.6 41.1,59.2 39.6,59 C38.5,59.7 37.3,60 36,60 C35.8,60.9 35.7,61.9 35.5,62.8 L35.5,63.5 C35.5,63.7 35.5,63.7 35.5,63.8 L35.5,63.8 C35.6,66.9 35.7,70 35.8,73.1 L35.8,73.3 C36,76 36.6,81 32.7,80.8 C31.2,80.8 29.7,79.7 28.6,78.8 L28.4,78.7 C28.3,78.6 28.2,78.6 28.1,78.5 C27.3,78.4 26.4,78.2 25.6,78.1 C24.5,78.1 23.4,78.2 22.3,78.5 C20.5,78.9 18.7,79.7 17.5,81.2 C17.4,81.4 17.3,81.5 17.2,81.7 C17.1,81.9 17,82.2 16.8,82.4 C15.6,85 16.3,88.4 17.5,90.7 C19,93.5 21.4,95.4 24.4,96.4 L24.5,96.4 C26.6,97.1 27.4,98.3 28.5,100 C29.5,101.6 30.7,103.1 32,104.5 C34.5,107.3 37.9,109.6 39.4,113.1 C39.7,113.8 38.8,114.4 38.2,114.2 C35.7,113.5 33.9,111.7 32.1,109.9 C30.8,108.7 29.6,107.4 28.4,106.1 C28.2,106.2 27.9,106.3 27.6,106.3 C26.4,106.4 25.2,106.4 24.1,105.7 C23.6,105.8 23.1,105.6 22.7,105.2 C22.4,104.9 22.1,104.6 21.8,104.2 C21.4,104.2 21.1,104.3 20.7,104.2 C20.5,104.2 20.3,104.1 20.2,104.1 C19.9,103.9 19.6,103.8 19.4,103.5 C18.9,103 18.7,102.2 18.8,101.5 C18.7,101.4 18.6,101.4 18.5,101.4 C17.8,101.2 17.3,100.7 16.9,100.1 C16.4,99.8 15.8,99.3 15.4,98.8 C14.9,98.2 14.5,97.6 14.3,96.9 C14.1,96.8 13.9,96.6 13.7,96.5 C12.2,95.5 11.3,93.6 11.9,91.8 L11.9,91.7 C11.9,91.7 12,91.5 12.1,91.4 C12.1,91.2 12,91.1 12,91 L12,90.6 L12,90.6 L11.7,90.5 L11.7,90.5 C10.2,89.9 9.2,89.1 9,87.4 C9,87.1 9.1,86.7 9.3,86.4 L9.3,86.3 L9.3,86.3 C9.2,86.3 9.1,86.2 9.1,86.1 C8.2,85.6 7.7,84.7 7.8,83.7 C7.8,82.8 8.3,82.1 8.9,81.5 L9,81.3 C9.1,81.3 9.1,81.3 9.1,81.2 L8.7,81.1 C8.5,81.1 8.3,81 8.1,80.9 C7.5,80.6 7,80.1 6.7,79.5 C6.6,79.5 6.6,79.4 6.5,79.3 C6.1,78.6 6.1,77.6 6.3,76.8 C6.4,76.7 6.4,76.6 6.5,76.5 C5.4,76.2 4.5,75.3 4.4,73.9 C4.4,73.3 4.5,72.7 4.8,72.2 C4.7,71.9 4.7,71.5 4.7,71.2 C4.3,70.8 4,70.4 3.9,69.8 C3.6,68.8 4.1,67.8 4.8,66.9 C4.6,66.2 4.5,65.4 4.8,64.7 C4.7,64.4 4.7,64 4.7,63.6 C4.6,62.8 4.9,62.1 5.3,61.4 C4.7,60.7 4.5,59.8 4.8,58.8 C5.1,58.2 5.3,57.6 5.7,57.1 C5.5,56.7 5.4,56.2 5.4,55.7 C5.4,54.7 5.7,54 6.3,53.4 C6.1,52.3 6.5,50.9 7.6,50.4 C8,50.2 8.5,50.1 9,49.9 C9.3,49.2 9.5,48.6 9.7,47.9 C10.1,46.8 10.5,45.8 10.9,44.8 C10.7,45 10.4,45.2 10.2,45.4 C9.3,46.5 8.2,47.4 7.3,47.9 C5.4,49 3.3,48.4 2.3,46.5 C1.5,47.2 0.4,47.6 -0.7,47.4 C-1.9,47.3 -3.1,46.5 -3.4,45.2 C-3.4,45 -3.5,44.8 -3.5,44.6 C-4.2,45.1 -4.9,45.6 -5.8,45.9 C-6.8,46.2 -7.9,45.4 -8,44.4 C-8.1,44 -8,43.6 -7.8,43.3 L-7.9,43.3 C-8,43.3 -8,43.3 -8,43.2 C-8.5,43 -9,42.5 -9.2,42 C-10.4,42.4 -11.7,41.9 -12.1,40.6 C-12.6,39 -12.6,37.4 -12.2,35.9 C-13.5,35 -14.3,33.5 -14.5,31.8 C-14.6,30.7 -14.3,29.6 -13.8,28.6 C-15,28.2 -15.4,26.6 -14.9,25.5 C-15.6,25 -16.1,24.1 -16.1,23.2 C-16.5,22.7 -16.6,22.1 -16.3,21.3 C-15.9,20.4 -15.2,19.5 -14.3,18.9 C-14.7,18.3 -15,17.5 -15.1,16.8 C-15.8,16.6 -16.4,16 -16.5,15.2 C-16.7,14.1 -16,13.2 -15,12.9 C-14.9,12.6 -14.8,12.3 -14.6,11.9 C-15.1,10.8 -15,9.4 -14.4,8.2 C-13.8,7.1 -13,6.4 -11.9,5.9 C-12.2,5 -11.8,4.1 -10.9,3.4 C-9.8,2.6 -8.6,1.9 -7.3,1.5 C-7.4,0 -6.8,-1.6 -5.3,-2.1 C-4.9,-2.2 -4.5,-2.3 -4.1,-2.3 C-3.8,-3 -3.3,-3.5 -2.6,-4 C-1.6,-4.7 0.3,-4.3 0.9,-3.1 L0.9,-3.1 C0.9,-3 0.9,-2.9 1,-2.9 C1.1,-3.4 1.4,-4 1.8,-4.4 C2.8,-5.5 4,-5.5 5,-5 C5.2,-5.5 5.5,-6 5.8,-6.4 C6.8,-7.9 8.6,-8.1 9.8,-7.3 C10.4,-7.8 10.9,-8.1 11.6,-8.3 Z M19.1,84.5 C21.2,83.7 23.8,83.9 25.9,84.7 L26.1,84.8 C27.9,85.5 30.9,87.2 31.3,89.2 C31.5,90.3 30.5,91.3 29.4,90.7 C28.5,90.2 28,89.2 27.3,88.5 C26.6,87.8 25.8,87.2 24.9,86.7 C23.1,85.6 21.2,85.2 19.1,84.9 C18.9,84.9 18.9,84.6 19.1,84.5 Z" id="🖍-Ink" fill="currentColor"></path></g><g id="face/Smile-Teeth-Gap" transform="translate(39.9, 46.6)" fill="currentColor"><path d="M42.8,36.1 C44.7,37.3 47.6,40 45.6,42.8 C43.2,45.3 39.7,42.5 38,41.2 C36.4,40.1 34.7,42.7 36.1,43.9 C48.4,53 53.4,36.5 43.8,34.8 C42.7,34.6 42.3,35.8 42.8,36.1 Z M25.7,14.2 L26.2,14.1 L26.4,14.1 C27.8,13.9 29.5,13.7 30.5,14.8 C31,15.4 31.2,16.6 30.5,17.2 C29.2,18.2 27.8,17.8 26.2,17.9 C24.9,18 23.7,18.2 22.5,18.6 C19.8,19.3 17.6,20.7 15.3,22.3 C15,22.5 14.7,22.1 14.8,21.8 C16.2,19.2 18.7,17.1 21.3,15.8 C22.7,15.1 24.2,14.5 25.7,14.2 Z M38.2,50.1 C42.3,50.4 51.2,48.5 55,51.4 C68.9,68.9 13.5,73.3 19.5,54.1 C23.3,47.8 32.1,50.3 38.2,50.1 Z M37.5,60.7 C36.5,60.6 35.2,61.4 34.9,62 C34.6,62.6 34.8,64 34.8,64.2 C36.5,64.4 38.3,64.4 40.1,64.3 C39.7,62.7 39.6,60.9 37.5,60.7 Z M45.7,63.2 C45.4,61.3 44.1,60.9 43,61.2 C41.8,61.5 41.2,62.8 41.2,63.9 C41.2,64 41.2,64.1 41.2,64.1 C42.7,63.9 44.2,63.6 45.7,63.2 Z M33.1,61 C32.4,60 30.9,59.6 29.9,59.7 C28.3,60.1 28.1,62.1 28.1,62.5 C29.6,63.1 31.2,63.5 32.7,63.8 C33,63.8 33.3,63.9 33.6,63.9 L33.6,63.7 C33.6,63.1 33.7,61.9 33.1,61 Z M51.2,60.9 C49.6,58.3 46.1,60.1 46.3,62.9 C46.7,62.8 47,62.7 47.3,62.6 C48.6,62.1 50,61.6 51.2,60.9 Z M38.3,52.1 C36.1,51.9 34.3,52 32.8,52.2 L32.8,52.7 C32.6,54.4 32.4,56 33.3,56.7 C34,57.2 36.4,57.2 37.9,56.8 C38.3,56.7 38.8,53.2 38.3,52.1 Z M41.7,51.9 C41.4,53.5 41.2,55.5 41.9,56.1 C42.6,56.8 45.1,56.7 45.7,56.3 C46.3,55.9 46.2,54.2 46,52.3 C44.8,52 42.7,51.9 41.7,51.9 Z M31.8,52.2 L31.1,52.2 L30.7,52.3 C29.7,52.3 28.5,52.3 27.5,52.6 C25.4,57.1 33.1,57.9 31.9,52.4 L31.8,52.2 Z M47,52.3 L47,52.6 C46.9,53.9 47,55.6 47.7,56 C48.7,56.7 50.7,56.6 51.7,53.5 C51.4,52.5 47.7,52.4 47,52.3 Z M26.6,25.3 C27.1,25.3 27.5,25.4 27.9,25.7 C28.3,26 28.6,26.4 28.9,26.9 C29.5,27.8 29.8,29.1 29.8,30.6 C29.8,32 29.5,33.3 28.9,34.3 C28.6,34.8 28.3,35.2 27.9,35.5 C27.5,35.7 27.1,35.9 26.6,35.9 C26.2,35.9 25.8,35.7 25.4,35.5 C25,35.2 24.7,34.8 24.4,34.3 C23.8,33.3 23.5,32 23.5,30.6 C23.5,29.1 23.8,27.8 24.4,26.9 C24.7,26.4 25,26 25.4,25.7 C25.8,25.4 26.2,25.3 26.6,25.3 Z M54.8,25.3 C55.2,25.3 55.7,25.4 56,25.7 C56.4,26 56.8,26.4 57.1,26.9 C57.6,27.8 57.9,29.1 57.9,30.6 C57.9,32 57.6,33.3 57.1,34.3 C56.8,34.8 56.4,35.2 56,35.5 C55.7,35.7 55.2,35.9 54.8,35.9 C54.3,35.9 53.9,35.7 53.5,35.5 C53.1,35.2 52.8,34.8 52.5,34.3 C52,33.3 51.6,32 51.6,30.6 C51.6,29.1 52,27.8 52.5,26.9 C52.8,26.4 53.1,26 53.5,25.7 C53.9,25.4 54.3,25.3 54.8,25.3 Z M51,13.1 L51.3,13.1 L51.6,13.2 C55.4,14 60.4,15.7 62.2,19.4 C62.3,20 62.2,20.1 62.1,20.2 L62.1,20.2 C62.1,20.3 62,20.4 61.8,20.4 C61.7,20.4 61.6,20.4 61.6,20.4 C60.7,20.2 60.1,19.9 59.4,19.5 L58.7,19.2 C57.9,18.8 57,18.4 56.2,18.1 C54.3,17.5 52.4,17.1 50.4,16.8 C50,16.8 49.6,16.6 49.3,16.4 C49,16.2 48.7,15.9 48.6,15.4 C48.5,14.9 48.5,14.5 48.8,14 C49,13.6 49.4,13.3 49.7,13.2 C50.1,13 50.5,13 51,13.1 Z" id="🖍-Ink"></path></g><g id="facial-hair/*-None" transform="translate(30.8, 84.6)"></g><g id="accessories/*-None" transform="translate(11.8, 60.3)"></g></g></g></g></g></svg>