<svg viewBox="0 0 324 467" version="1.1" xmlns="http://www.w3.org/2000/svg" xmlns:xlink="http://www.w3.org/1999/xlink"><g id="Introduction" stroke="none" stroke-width="1" fill="none" fill-rule="evenodd"><g id="variations-sitting" transform="translate(-1741, -950)"><g id="a-person/sitting" transform="translate(1743, 897)"><g id="pose/sitting/hands_back-2" transform="translate(-20.3, 159.5)"><path d="M90.9,212 C85.8,224.7 79.7,239.1 74.1,251.4 C74.6,255.4 76.3,259.4 74.9,263.3 C80.7,259.5 87.3,257.1 93.9,255.4 L94.3,257.9 C95.1,257.8 96.4,257.8 97.2,257.8 C97,256.8 96.9,255 96.8,254 L96.8,254 C95.9,243.2 97.6,232.2 99.7,221.6 C100.2,217.8 99,211.9 94.2,211.8 C93.5,211.9 92.3,210 91.8,209.6 L90.9,212 Z M158.2,358 C133.9,359.4 120.1,339.6 108.4,321 C107.1,321.9 105.8,322.8 104.5,323.5 C102.6,326.6 98.7,327.5 95.3,327.9 C83.3,328.5 80.8,317.7 77.8,308.5 C77.2,308.9 75.9,310.9 75,310.4 C69.6,309.2 64.4,307.8 58.6,308.2 C52.1,306.8 18.1,321.7 21.2,308.7 C22.8,303 31.2,300.3 35.5,296.4 C41.9,289.2 40.3,280 43.3,271.5 C45.8,262.9 48.8,254.8 54.2,247 C54.7,217.5 55.8,181.5 63.4,155.3 C68.3,136.9 74.3,117.9 72,98.6 L70.7,98.6 C70.1,98.3 69.2,98 68.5,98.1 C67.9,97.5 66.8,97.7 66,97.4 C64.6,83.8 64,72.1 65.8,59.8 C67.6,39.4 80.5,31 99.3,26.6 C120,19.8 134,12.9 144.8,-4 C146.8,-7.4 148,-11.4 150.7,-14.3 C157.4,-22.8 176.7,-21.4 181.7,-12.5 C183.9,-7.2 184.1,-1.1 185.7,4.3 C192.2,27.3 222.2,24.6 238,37.2 C245,42.4 247.3,50.4 248.2,58.5 C249.3,68.7 251.5,78.5 251.2,88.7 C251.9,88.8 253.6,88.3 253.9,89.3 C253.2,91.5 244.7,91.5 242.3,91.9 C245.5,108.4 242.6,124.9 245.1,141.5 C249,160.1 256.6,177.3 262.6,195.3 C264.9,201.2 266.4,207.5 269.8,212.9 L269.8,213 C270.3,213.9 270.9,214.8 271.5,215.6 C272.1,215.8 272.8,216.2 273.4,216.4 L273.6,216.2 L273.9,216.6 L274.9,216.2 C276.3,217 277.9,217.8 279.5,218.7 C298.6,230.3 311.1,242 326,256.5 L324.1,258.1 C324.8,259.1 325.7,260.5 326.4,261.5 C326.9,261 328.2,260.1 328.9,259.8 C341.7,275 343.2,301.3 337,317.2 C335.1,322 331.9,325.9 328.1,329.2 C326.6,331.6 323.8,334.8 320.2,336.4 C320.2,336.4 319.7,337 319.7,337 C319.5,337.1 318.4,337.3 318.3,337.6 C308.8,339.2 299.2,343.4 289.3,343.5 C273.2,343.3 259.3,330.3 246.4,321.6 C238.2,315.8 228.7,311.8 219.9,307.9 C220.5,311.3 220.3,312.4 216.7,313.7 C213.4,315 209.5,314 206.5,312.5 C206.5,318.1 207,323.7 206.8,329.6 C206.8,336.8 207.1,345.6 199.3,348.9 C186.1,354.1 171.2,357.9 158.2,358 L158.2,358 Z" id="🎨-Background" fill="#FFFFFF"></path><path d="M326.3,259.5 C325.9,258.8 325.4,258.1 324.9,257.4 C325.5,258 326,258.7 326.6,259.3 C326.5,259.3 326.4,259.4 326.3,259.5 M273.2,215 C273.1,214.9 273,214.9 272.9,214.8 C272.6,214.7 272.3,214.6 272.1,214.5 C271.6,213.8 271.1,213.1 270.7,212.4 C271.6,213.3 272.5,214.3 273.5,215.1 C273.4,215.1 273.3,215.1 273.2,215 M264.4,211.3 C260.1,209 255.8,206.7 251.4,204.5 C251,204.3 250.6,204.4 250.3,204.5 C248.4,203.5 246.6,202.6 244.6,201.7 C243.5,201.1 242.3,200.6 241.1,200.1 C241.1,199.9 241,199.8 240.9,199.7 C240.2,198.2 240.9,196.3 241.3,194.8 C241.4,194.5 241.4,194.1 241.2,193.9 C241.5,191.8 241.4,189.6 241,187.7 C240,183 237.5,178.8 235.1,174.8 C232.7,170.6 230.6,166.4 229.2,161.8 C226.4,152.5 226.2,142.8 226.4,133.2 C226.6,122.5 227.2,111.8 227.7,101.2 C227.8,98 227.9,94.8 228,91.6 C228.3,91.8 228.5,91.9 228.8,92 C229.4,92.2 230.1,92.4 230.7,92.5 C231.9,92.8 233.1,93 234.4,93.2 C236.7,93.5 239.1,93.6 241.4,93.6 C241.7,93.6 242,93.6 242.3,93.6 C240.9,100.5 241,107.8 240.9,114.8 C240.7,122.9 240.3,131 241.2,139.1 C242.1,146.9 244.4,154.5 247,161.9 C249.6,169.6 252.3,177.3 254.8,185 C256.3,189.3 257.7,193.7 259.2,198 C259.8,200.1 260.5,202.2 261.2,204.3 C262,206.6 262.4,209.3 264.3,210.9 C264.5,211.1 264.7,211.2 265,211.3 C265,211.4 265.1,211.5 265.1,211.6 C264.9,211.5 264.7,211.4 264.4,211.3 M235.8,194.1 C235.5,195.5 235,196.9 234.3,198 C234.3,198.1 234.3,198.2 234.2,198.4 C233.5,199.9 231.8,200.8 230.4,201.4 C228.6,202.3 226.9,203 225.1,203.8 C222.5,205 219.8,205.9 217,206.5 C217,206.6 216.9,206.6 216.9,206.6 C212.4,208.4 207.8,209.9 203.1,211.2 C193.7,213.8 184,215.5 174.3,216.6 C164.9,217.7 155.4,218.3 145.9,218.6 C137.3,218.8 128.5,218.6 120.1,217.1 C114,215.9 108,214.1 102.5,211.3 C102.1,210.6 101.5,210 101,209.3 C101,208.3 100.4,207.1 99.4,206.7 C99.1,205.9 98.8,205.1 98.6,204.2 C98.8,202 99.1,199.9 99.5,197.8 C100.4,193.5 101.5,189.4 102.7,185.2 C105,176.6 106.9,167.9 107.2,158.9 C107.6,149.8 106.6,140.7 105.4,131.7 C104.1,122.6 102.6,113.5 100.9,104.4 C100,99.2 99.1,94 98.1,88.8 C97.1,83.6 96.3,78.3 95,73.1 C95,73 94.7,73 94.7,73.2 C94.9,77.8 95.5,82.5 96,87.1 C96.3,90.3 96.6,93.6 97,96.8 C96.3,96.6 95.5,96.7 94.7,96.7 C93.4,96.8 92,96.8 90.7,96.8 C88,96.8 85.3,96.8 82.6,96.8 C78,96.8 73.3,96.9 68.7,97.2 C68.4,97.1 68.1,97.1 67.8,97 C66.7,96.7 66.4,95.9 66.3,94.8 C66.1,92 66.5,89.1 66.6,86.3 C66.6,83.4 66.6,80.4 66.5,77.5 C66.4,75.5 66.6,73.2 65.5,71.5 C65.6,70 65.7,68.4 65.9,66.9 C66.5,61.2 67.5,55.4 69.3,49.9 C70.6,46 72.7,42.3 75.8,39.4 C81.7,33.8 89.9,31.5 97.6,29.3 C106.9,26.5 116.2,23.2 124.5,18.3 C124.4,18.5 124.5,18.8 124.8,18.9 C125.3,19 125.6,19.2 125.9,19.6 C126,20.2 126.2,20.8 126.4,21.4 C126.5,21.5 126.5,21.6 126.6,21.7 C126.7,22.5 126.7,23.4 126.8,24 C127,26.2 127.4,28.2 128,30.3 C129.1,34.4 131,38.3 133.4,41.8 C138.2,48.9 145.5,54.2 153.8,56.4 C162.2,58.6 171.5,57.7 179.1,53.3 C186.1,49.2 191.5,42.5 193.1,34.5 C193.9,30.3 193.8,25.9 193,21.7 C192.8,21 192.7,20.3 192.5,19.6 C197.9,24.2 204.7,27 211.3,29.1 C218.3,31.5 225.6,33.4 232,37.2 C234.9,39 237.7,41.2 239.8,43.9 C242.4,47.4 243.5,51.4 244.1,55.6 C245.1,61.3 245.7,67 246.4,72.6 C246.7,75.5 247,78.3 247.3,81.2 C247.4,82.7 247.5,84.2 247.7,85.7 C247.8,86.8 247.9,87.7 248.2,88.5 C246.2,89 244.1,89.4 242.1,89.8 C239.7,90.2 237.2,90.5 234.7,90.6 C233.5,90.7 232.2,90.7 230.9,90.7 C230.3,90.8 229.6,90.7 229,90.7 C228.7,90.7 228.4,90.8 228,90.9 C228.3,81.9 228.4,72.9 227.9,63.9 C227.9,63.7 227.5,63.6 227.4,63.8 C225.6,74.4 224.7,85.1 224,95.8 C223.2,106.3 222.5,116.8 221.8,127.3 C221.3,137 221,146.7 222.7,156.3 C223.5,160.9 224.8,165.4 226.7,169.8 C228.6,174.1 231.2,177.9 233.3,182.1 C235.3,185.9 236.7,190 235.8,194.1 M222.4,291.4 C218.6,290.2 215,288.7 211.4,286.9 C208,285.2 204.4,283.4 201.5,280.9 C201.4,280.8 201.5,280.7 201.6,280.8 C205.2,282 208.5,283.9 212,285.4 C215.7,287 219.4,288.4 223,290 C223.8,290.3 223.2,291.6 222.4,291.4 M214.8,310 C213.8,310.7 212.8,311.2 211.7,311.6 C210.3,312.1 208.8,312.3 207.4,312.1 C207.2,309.5 206.9,306.9 206.6,304.2 C209.9,305.9 213.3,307.3 216.7,308.6 C216,309.1 215.5,309.6 214.8,310 M201.3,296.5 C201.2,297.6 199.8,297.6 199.7,296.5 C199.1,291.8 198.9,287.1 198.4,282.4 C197.5,274.1 196.2,265.8 194.3,257.7 C193.8,255.6 193.3,253.6 192.7,251.5 C192.4,250.5 191.5,248.6 192.1,247.5 C192.9,246.2 194,248.1 193.2,248.2 C193.1,248.2 193.1,248.1 193.2,248.1 C192.5,248.3 193,248.9 193.1,249.4 C193.3,249.9 193.5,250.3 193.6,250.8 C194,251.7 194.3,252.6 194.6,253.5 C195.3,255.5 196,257.6 196.5,259.6 C197.7,263.6 198.7,267.6 199.4,271.7 C200.9,279.8 202.1,288.3 201.3,296.5 M104.7,320.7 C104.1,320.4 103.5,320.3 102.9,320.4 C101,320.8 100.2,321.9 98.6,322.7 C97.7,323.2 96,323.6 95,323.7 C93.4,323.8 92.4,323.6 90.9,323.2 C89.8,322.8 88.5,322.1 87.7,321.4 C85.5,319.4 84.4,316.6 83.5,313.7 C82.4,310.6 81.5,307.4 79.9,304.5 C79.1,303 78,301.6 76.8,300.5 C75.6,299.4 73.7,298.6 72.9,297.2 C72.1,295.8 72,293.6 71.7,292 C71.5,290.4 71.3,288.7 71.2,287 C70.7,280.6 71.2,273.5 74.8,267.9 C79.3,260.9 87.5,258.8 95.1,256.9 C95.2,258.1 95.3,259.3 95.5,260.5 C95.7,262 95.9,263.4 96.2,264.9 C94.9,266 93.7,267.4 92.8,268.4 C90.8,270.9 89.3,273.7 88.2,276.7 C87.2,279.7 86.7,282.8 86.8,285.9 C86.8,287.4 87.1,288.9 87.5,290.4 C87.6,290.8 87.8,291.2 87.9,291.7 C87.4,292.6 87.3,293.8 87.9,294.7 C93.5,302.8 99.1,310.9 104.6,319.1 C104.9,319.4 105.1,319.8 105.4,320.2 C105.1,320.3 104.9,320.5 104.7,320.7 M95,256.5 C94.6,256.5 94.3,256.5 93.9,256.5 C94.2,256.4 94.6,256.3 95,256.2 C95,256.3 95,256.4 95,256.5 M94.8,253.6 C91.4,254.5 87.9,255.5 84.6,256.8 C82.6,257.5 80.3,258.3 78.4,259.5 C77.8,259.8 77.2,260.1 76.7,260.4 C76.7,260 76.7,259.6 76.6,259.1 C76.2,257.1 75.9,255.1 75.5,253 C75.4,252.8 75.4,252.4 75.3,251.9 C75.7,251.2 76,250.5 76.3,249.8 C76.8,248.4 77.4,247.1 78,245.8 C79.1,243.3 80.1,240.9 81.2,238.4 C83.4,233.3 85.6,228.2 87.7,223.1 C89.1,219.7 90.5,216.2 91.9,212.7 C92.3,213.1 92.9,213.4 93.7,213.5 C97.6,213.6 98.1,218.8 97.8,221.6 C97.5,223.8 97,225.9 96.6,228 C96.1,230.2 95.8,232.4 95.5,234.6 C94.7,240.9 94.4,247.3 94.8,253.6 M62.3,304.6 C57.6,304.3 52.8,304.7 48.2,305.8 C43.8,306.8 39.5,308.3 35,309.3 C32.9,309.7 30.7,310.1 28.4,310.1 C27.4,310.2 26.3,310.1 25.2,310 C25.1,310 24.9,309.9 24.8,309.9 C25.1,309 25.6,308.2 26.4,307.4 C27.5,306.3 28.4,305.7 29.7,304.8 C32.5,303.1 35.3,301.5 37.6,299.2 C40.4,296.1 41.8,292.3 42.5,288.2 C43.3,283.9 43.8,279.5 44.5,275.2 C45.1,271.6 45.8,268 46.7,264.5 C47.6,261.4 48.9,258.3 50.4,255.4 C51.6,253.2 52.8,251 54,248.8 C55,249.7 56.6,249.6 57.4,248.3 C57.8,247.8 58.3,247.2 58.5,246.5 C58.7,245.9 58.6,245.1 58.6,244.5 C58.6,243.2 58.6,242 58.7,240.7 C58.7,238.2 58.7,235.6 58.7,233 C58.8,228 58.9,223 59.1,218 C59.4,208 60,197.9 61.1,188 C63.3,168.3 69,149.4 71.4,129.8 C71.7,127.4 72,124.9 72.2,122.5 C73.2,115 73.4,107.3 72.7,99.7 C81,99.7 89.2,100.1 97.4,101 C98.4,110.2 99.6,119.4 100.7,128.6 C101.9,137.6 102.9,146.7 102.8,155.7 C102.7,160.2 102.4,164.7 101.7,169.1 C101,173.4 99.9,177.5 98.7,181.7 C97.6,185.9 96.3,190 95.3,194.2 C93.8,198.1 92.1,201.9 90.4,205.7 C86,215.3 81.5,224.7 77.2,234.3 C76,237.1 74.8,239.9 73.6,242.7 C72.9,244 72.3,245.4 71.7,246.8 C71,248.4 70.1,249.9 70.1,251.6 C70.1,252.7 70.8,253.4 71.6,253.8 C71.2,255.8 71.1,257.8 71.1,259.9 C71.1,261.1 71.9,262.1 72.9,262.5 C72.9,262.8 72.9,263 72.9,263.3 C72.9,263.3 72.9,263.3 72.9,263.3 C67.3,269 65.8,277.1 65.8,284.7 C65.9,288.7 66.3,292.8 66.9,296.7 C67.4,299.1 68.4,301.1 70.4,302.6 C71.7,303.7 73.3,304.7 74.2,306.1 C74.3,306.3 74.5,306.6 74.7,306.9 C70.9,305.3 66.3,304.8 62.3,304.6 M125.7,17.6 C125.7,17.7 125.7,17.9 125.7,18.1 C125.5,18.1 125.3,18 125,18 C125.2,17.9 125.5,17.7 125.7,17.6 M341.1,288.9 C340.5,283.3 339.5,277.6 337.5,272.3 C335.7,267.4 332.9,263 329.6,258.9 C326.3,254.9 322.5,251.2 318.6,247.7 C314.5,244 310.4,240.3 306.2,236.7 C297.9,229.7 289.3,222.9 279.8,217.5 C279.8,217.5 279.8,217.5 279.8,217.5 C279.8,217.5 279.8,217.5 279.8,217.5 C278.2,216.6 276.7,215.8 275.1,215 C274.7,214.8 274.3,214.8 274,214.9 C274,214.9 274,214.9 274,214.9 C272.8,213.8 271.6,212.9 270.4,211.9 C269.4,210.2 268.5,208.3 267.9,206.4 C267.8,206.2 267.7,206.1 267.6,205.9 C267.3,205.2 267,204.5 266.8,203.8 C266.1,201.9 265.4,200 264.7,198.1 C263.4,194.2 262,190.4 260.6,186.6 C257.9,178.9 255.2,171.2 252.6,163.5 C250.1,156.2 247.5,149 246.2,141.4 C244.9,133.6 245.2,125.5 245.1,117.6 C245.1,113 245,108.4 244.8,103.9 C244.6,100.4 244.4,96.9 243.7,93.5 C245.5,93.4 247.3,93.1 249.1,92.8 C251,92.5 255.1,92.2 255,89.5 C255,88.4 254.2,87.7 253.2,87.4 C253,87.4 252.7,87.3 252.5,87.3 C252.7,85.6 252.3,83.7 252.1,82 C251.9,79.4 251.6,76.7 251.3,74.1 C250.7,68.9 250,63.7 249.3,58.4 C248.6,53.7 247.9,48.9 245.6,44.6 C244,41.3 241.5,38.5 238.6,36.2 C226.6,26.7 210.3,26.5 197.7,18.2 C194.4,16.1 191.5,13.4 189.4,10.1 C188.2,8.2 187.4,6.2 186.8,4 C186.4,2.7 186.1,1.3 185.6,-0.1 C185.2,-1.4 185.1,-2.5 184.2,-3.7 C184.2,-3.8 184,-3.8 184,-3.6 C183.9,-2.4 184.1,-1.3 184.2,-0.1 C184.2,1.1 184.2,2.4 184.3,3.7 C184.3,4 184.4,4.3 184.4,4.6 C184.4,4.7 184.3,4.8 184.3,4.9 C183.7,6.8 184,8.8 185,10.4 C185,10.6 185,10.7 185.1,10.9 C185.6,12.8 186.5,14.5 187.2,16.3 C187.8,18 188.4,19.8 188.8,21.6 C189.6,24.9 189.9,28.4 189.6,31.9 C188.9,39.3 184.5,45.6 178.3,49.6 C171.4,54.1 162.8,55.2 154.9,53.3 C146.8,51.3 140.2,46.2 135.5,39.4 C132.9,35.7 130.9,31.5 129.7,27.2 C129.2,25.5 128.9,23.7 128.4,22 C128.9,21.8 129.2,21.3 128.9,20.7 C128.2,19 128.1,17.4 128.6,15.7 C133.2,12.6 137.4,9 141,4.9 C144.6,0.7 148.3,-4.3 149.9,-9.6 C150.5,-11.7 147.4,-13.1 146.3,-11.1 C145.2,-8.9 144.3,-6.7 143,-4.6 C141.8,-2.4 140.3,-0.4 138.8,1.5 C135.6,5.3 132,8.6 128,11.5 C119.1,17.9 108.8,22.1 98.4,25.3 C90.4,27.8 81.9,29.9 75.2,35.4 C67.8,41.3 65.3,50.7 63.9,59.7 C63.3,63.5 63,67.3 62.8,71.2 C62.7,71.5 62.6,71.9 62.8,72.2 C62.6,79.4 63,86.6 63.7,93.8 C63.7,94.6 63.7,95.3 63.9,96 C64,96.8 64.1,97.6 64.1,98.4 C64.2,98.6 64.3,98.8 64.4,98.8 C65.2,99.1 65.9,99.2 66.6,99.3 C66.8,99.3 66.9,99.4 67,99.4 C67.2,99.7 67.6,99.8 68,99.8 C68.3,99.8 68.5,99.8 68.8,99.8 C69,99.9 69.3,100 69.6,100.1 C69.8,100.2 70,100.3 70.2,100.3 C70.5,104 70.6,107.6 70.5,111.3 C70.2,116.5 69.6,121.6 68.6,126.7 C66.7,136.3 64,145.7 61.5,155.1 C56.4,174.4 54,194.3 53.1,214.3 C52.9,219.9 52.7,225.6 52.6,231.2 C52.6,234 52.6,236.7 52.5,239.5 C52.5,240.9 52.5,242.3 52.5,243.7 C52.5,244.4 52.4,245.1 52.5,245.7 C52.5,245.9 52.5,246 52.6,246.2 C52.5,246.2 52.5,246.2 52.5,246.2 C49.9,249.9 47.8,254.1 46,258.2 C44.2,262.4 42.6,266.8 41.4,271.2 C40.2,275.7 39.4,280.2 38.5,284.7 C37.8,288.5 37,292.7 34.1,295.5 C31.9,297.5 28.8,298.9 26.2,300.6 C23.2,302.6 20.5,304.9 19.4,308.3 C18.5,310.7 18.9,313.5 21.4,314.7 C23.4,315.8 26.4,315.7 28.7,315.6 C33.5,315.4 38.2,314.1 42.8,312.8 C47.9,311.3 53,310 58.3,309.9 C60.9,309.8 63.6,309.9 66.3,310.3 C69,310.8 71.6,311.7 74.3,312.1 C75.2,312.3 76.1,312.1 76.7,311.5 C78.5,316.3 79.5,321.7 83.4,325.4 C86.5,328.3 90.8,329.8 95,329.6 C97.3,329.4 99.4,328.9 101.5,327.9 C102.4,327.4 103.3,326.8 104.2,326.1 C104.7,325.7 105,325.3 105.3,324.8 C106,324.3 106.8,323.8 107.5,323.3 C111.7,329.5 115.9,335.8 120.5,341.6 C125.8,348.2 132.2,353.6 140.1,356.7 C147.5,359.6 155.7,360.1 163.6,359.5 C171.9,358.7 180,356.9 188,354.5 C191.8,353.3 195.9,352.2 199.6,350.5 C203.5,348.6 206.2,345.4 207.1,341.1 C208,337 207.9,332.5 208,328.2 C208,323.8 207.9,319.4 207.6,315 C207.6,315 207.6,315 207.6,315 C209,315.6 210.6,315.9 212.2,316 C213.7,316 215.3,315.8 216.8,315.3 C218.5,314.6 221,313.5 221.3,311.5 C221.3,311.1 221.3,310.8 221.3,310.5 C222.3,311 223.4,311.4 224.4,311.9 C227.7,313.4 231,315 234.2,316.6 C235.8,317.4 237.3,318.3 239,319.1 C239.4,319.3 239.8,319.5 240.3,319.7 C241.9,320.8 243.5,321.9 245.1,323 C249.6,326.2 254.1,329.5 258.6,332.6 C263.3,335.8 268,339 273.2,341.4 C278.5,343.8 284.1,345.4 290,345.1 C296.3,344.9 302.4,343.1 308.4,341.6 C311.4,340.8 314.4,340 317.5,339.3 C317.9,339.4 318.4,339.4 318.8,339 C318.9,339 318.9,338.9 318.9,338.9 C319.4,338.8 319.8,338.7 320.2,338.5 C320.4,338.3 320.6,338 320.8,337.8 C324.1,336.2 326.9,333.4 329,330.3 C329.2,330.1 329.3,330 329.5,329.9 C333.2,326.6 336.1,322.5 338,318 C341.9,308.9 342.1,298.6 341.1,288.9" id="🖍-Ink" fill="currentColor"></path></g><g id="Head" stroke-width="1" transform="translate(86.5, 45.1)"><g id="head/Long"><path d="M108.3,67.6 C107.4,52 102.3,34.4 87.4,26.7 C54.6,13.6 11.4,46.7 9.1,80.6 C8.3,92.2 14.7,104.8 26.5,108.1 C29.1,111.5 33.1,113.6 37,115.5 C83.5,139.6 113.6,120 108.3,67.6 L108.3,67.6 Z" id="🎨-Background" fill="#FFFFFF"></path><path d="M118.9,57.9 C117.3,53.4 115.5,48.8 113.7,44.4 C111.9,40 110.3,35.5 108.1,31.3 C94.9,6.5 70.9,6.5 58.5,9.7 C52,7 40,7.7 33.3,10.2 C22.4,14.3 9.2,30.2 4.7,37.3 C-5.3,53.1 -11.5,74.1 -4.9,92.4 C-4,94.8 -2.9,97 -1.7,99.1 C-2.5,100.2 -3.4,101.2 -4.4,102.2 C-7.4,105.1 -10.3,107.9 -12.9,111.2 C-15.4,114.5 -17.6,118 -19.1,121.9 C-22.1,129.2 -22.2,137.4 -18.3,144.3 C-14.9,150.4 -8.9,154.9 -2,155.3 C-1.7,155.4 -1.3,155.4 -1,155.4 C-0.1,156.9 1,158.3 2.3,159.5 C6.1,163.1 15.3,165 20.5,165.1 C20.8,165.4 21.1,165.6 21.3,165.8 C24.5,168.3 27.9,170.8 31.6,172.6 C34.1,173.8 37.3,174.9 39.9,174 C41.1,174.8 43,174.6 44.2,174 C46.1,172.9 47.7,171 48.6,169 C50.9,164.3 50.4,159.1 49.8,154.1 C49.1,148.5 48.5,142.9 47.9,137.3 C47.4,133 46.9,128.5 45.5,124.3 C44.8,122.2 43.9,120.1 42.8,118.1 C42.8,117.9 42.8,117.8 42.8,117.6 C42.4,116.4 41.6,115.7 40.7,114.9 C40.5,114.8 40.4,114.7 40.3,114.6 C39.8,114 39.3,113.5 38.8,113.1 C38.6,112.9 38.4,112.7 38.2,112.5 C36.5,110.7 34.9,108.9 33.5,106.9 C32.1,104.9 30.9,102.9 29.7,100.9 C28.5,98.8 27.7,96.5 26.5,94.4 C26.4,94.2 26.1,94.2 26,94.4 C25.6,94.7 25.4,95.2 25.4,95.6 L25.2,95.6 C25.2,95 24.5,94.4 23.7,94.6 C22.4,94.8 21.4,94.9 20.3,94.4 C20.5,93.2 20.7,91.9 20.8,90.6 C21.2,88.2 21.5,85.9 21.7,83.5 C22.3,83.6 22.9,83.9 23.5,84.1 C24.4,84.5 25.2,85 25.9,85.7 C26.6,86.3 27.1,87.1 27.9,87.6 C28.8,88.1 30,87.2 29.7,86.2 C29.2,84 25.9,82.7 23.9,82.3 C23.3,82.2 22.6,82.1 21.9,82.1 C22,80.6 22.2,79.1 22.3,77.5 C22.3,76.8 22.4,76.1 22.4,75.4 C24,74.9 25.6,74.8 27.2,75 C27.8,75.4 28.3,75.8 28.8,76.3 C30.5,77.6 32.1,79 33.7,80.3 C33.8,80.5 34,80.6 34.1,80.7 C35.1,81.5 36.3,80.7 36.1,79.6 C34.8,70.1 40.6,62.5 47.4,56.6 C55,50.2 68.7,49.4 77.7,38.2 C81.8,39 91.1,41.5 94.9,47.6 C100.2,56.1 99.5,63.7 99.9,73.3 C100.3,83 101.4,93 99.2,102.6 C97.2,111.3 91.7,118.8 83.2,122.3 C83,122.4 82.8,122.4 82.5,122.5 C78.1,124.2 73.3,124.6 68.7,123.8 C63.6,122.8 59.3,120.5 55.1,117.6 C54.8,117.4 54.5,117.8 54.7,118 C60.3,125.4 71.3,127.9 80,126 C80.4,125.9 80.9,125.8 81.3,125.7 C79.3,131.3 79.7,137.4 82.2,142.9 C83.8,146.2 86.1,149 89,151.3 C92.1,153.8 96,155.8 98.2,159.2 C100.2,162.4 99.6,166 96.2,167.8 C95.3,168.3 95,169.8 95.8,170.5 C96.1,170.7 96.5,171 96.8,171.2 C98.7,172.7 104,175.4 104.8,175.5 C112.4,176.4 117.4,170.8 120.7,164.3 C124.5,156.6 123.5,147.3 119.3,140 C115.9,134.1 109.3,128.4 111.9,121 C112.9,118.3 114.8,116.1 116.7,114 C118.8,111.7 121.1,109.5 123.1,107.1 C125.2,104.7 127,102.1 128,99.1 C129.5,94.8 128.7,90 127.6,85.7 C125.3,76.3 122.2,67 118.9,57.9 Z" id="🖍-Ink" fill="currentColor"></path></g><g id="face/Smile" transform="translate(39.9, 46.6)" fill="currentColor"><path d="M36.8,60.3 C35.1,59.6 33.6,58.5 32.5,57 C32.1,56.5 32,56 32.1,55.5 C32.2,54.9 32.5,54.4 32.9,54.1 C33.4,53.8 33.9,53.6 34.5,53.7 C35,53.8 35.4,54 35.8,54.6 L35.9,54.7 C36.5,55.5 37.4,56.3 38.3,56.7 C39.3,57.2 40.3,57.4 41.4,57.3 C43.5,57 44.9,55.9 46.4,54.4 C46.6,54.2 46.8,54 47,53.8 C47.1,53.6 47.2,53.5 47.4,53.5 C47.6,53.4 47.9,53.4 48.1,53.5 C48.3,53.5 48.5,53.7 48.6,53.9 C48.7,54 48.8,54.2 48.7,54.5 C48.6,56 47.8,57.4 46.6,58.5 C45.3,59.8 43.6,60.6 42,60.9 C40.2,61.2 38.4,61 36.8,60.3 L36.8,60.3 Z M42.8,36.1 C44.7,37.3 47.6,40 45.6,42.8 C43.2,45.3 39.7,42.5 38,41.2 C36.4,40.1 34.7,42.7 36.1,43.9 C48.4,53 53.4,36.5 43.8,34.8 C42.7,34.6 42.3,35.8 42.8,36.1 Z M20.8,25.6 C21,23 25,22.4 25.4,25 C25.7,27.3 25.3,29.4 24.3,31.4 C23.3,33.4 20.8,32.5 20.6,30.7 C20.3,28.3 20.7,27.2 20.8,25.6 Z M50.9,24.4 C51.5,23.7 52.3,23.2 53.2,23.5 C56.2,24.4 55.3,28.6 54.3,30.6 C53.7,31.8 51.9,32 51,31.1 C49.7,29.5 49,26.3 50.7,24.7 C50.8,24.6 50.8,24.5 50.9,24.4 Z M24.2,14.2 L24.7,14.1 C26.1,13.9 28,13.7 29,14.8 C29.5,15.4 29.7,16.6 29,17.2 C27.7,18.2 26.3,17.8 24.7,17.9 C23.4,18 22.2,18.2 21,18.6 C18.3,19.3 16.1,20.7 13.8,22.3 C13.5,22.5 13.2,22.1 13.3,21.8 C14.7,19.2 17.2,17.1 19.8,15.8 C21.2,15.1 22.7,14.5 24.2,14.2 Z M48.2,13.1 L48.6,13.1 C52.5,14 57.6,15.6 59.4,19.4 C59.5,20 59.4,20.1 59.4,20.2 L59.3,20.2 C59.3,20.3 59.3,20.4 59,20.4 C59,20.4 58.9,20.4 58.8,20.4 C58,20.2 57.3,19.9 56.6,19.5 L55.9,19.2 C55.1,18.8 54.3,18.4 53.4,18.1 C51.5,17.5 49.6,17.1 47.7,16.8 C47.2,16.8 46.8,16.6 46.5,16.4 C46.2,16.2 46,15.9 45.9,15.4 C45.7,14.9 45.8,14.5 46.1,14 C46.3,13.6 46.6,13.3 47,13.2 C47.3,13 47.8,13 48.2,13.1 Z" id="🖍-Ink"></path></g><g id="facial-hair/*-None" transform="translate(30.8, 84.6)"></g><g id="accessories/*-None" transform="translate(11.8, 60.3)"></g></g></g></g></g></svg>