<svg viewBox="0 0 340 465" version="1.1" xmlns="http://www.w3.org/2000/svg" xmlns:xlink="http://www.w3.org/1999/xlink"><g id="Introduction" stroke="none" stroke-width="1" fill="none" fill-rule="evenodd"><g id="variations-sitting" transform="translate(-780, -261)"><g id="a-person/sitting" transform="translate(831, 200)"><g id="pose/sitting/mid-1" transform="translate(-20.3, 159.5)"><path d="M53.8,80.9 C50.8,82.6 48.3,83.8 45.9,84.5 L42.4,85.7 L45.7,87.4 C47.9,88.5 50,89.9 52.2,91.8 L53.8,93.2 L54.6,91.2 C55.6,88.5 56.2,85.5 56.1,82.2 L56.1,79.6 L53.8,80.9 Z M199.5,89.5 C196.6,94.6 193.2,99.6 189.9,104.5 C182.6,115.2 175,126.4 172.7,139.7 C172.5,140.8 172.4,143.3 172.3,147.1 L174.5,146.3 C181.7,143.3 189.4,141.1 196.8,139 C199.7,138.2 202.7,137.3 205.6,136.4 C206.8,136.1 207.9,135.8 209.1,135.4 C211.8,134.5 214.4,133.7 217.2,133.6 L218,133.5 L218.4,132.8 C222.2,126.3 219.4,120 216.1,114.2 C214.2,109.9 211.7,105.9 209.3,102.1 C206.7,98.1 204.1,93.9 202.2,89.6 L201,86.7 L199.5,89.5 Z M59.8,143.7 C64.1,148.2 68.1,152.8 71.7,157.3 L74.4,156.1 C73.1,149.4 69,144.7 61.6,141.3 L59.8,143.7 Z M203.7,244.4 C203.3,244.4 202.9,244.5 202.6,244.8 C202.3,245.1 202.1,245.6 202.1,246 L203.7,246 L203.7,244.4 Z M24.7,355.8 C22.2,351.4 21.8,344.6 25.6,340.9 C24.3,333 26.8,324.1 32.4,317.7 L32.4,317.7 C40.6,305.4 41.2,301 35.2,287.2 C24.5,286.8 13.4,286.7 2.9,284.2 L3.3,281.9 C2.9,281.7 0.9,281.2 0.5,281.1 C0.6,281.6 0.9,283.5 0.9,283.9 C0.4,284.5 -0.8,285 -1,283.9 C-7.6,255.7 -13.6,228.1 -20,199.9 C-26.7,171.5 -40.2,126 -7.1,110.3 L-7.8,107.4 C-9.6,107.4 -10.4,105.4 -11.2,102.6 C-14.9,92.5 -7.7,82.7 -0.9,76.4 C8.4,67.2 16.9,56.9 25.2,46.9 C48.8,18.2 80.9,-20.1 122,-13.6 L121.9,-11.9 C128.3,-11.1 135,-9.4 141.5,-10.6 C163.7,-14.4 187.9,-5.7 201.5,12.1 L202,8.8 C202.1,8.5 202.2,8.2 202.7,8.2 C203.3,8.2 203.7,8.7 203.9,9.2 C227.5,18.5 237.2,48.8 244.8,69.6 C245.7,73.1 245.5,74.2 245.4,74.4 L244,75.2 C258.2,94.1 266,116.8 272.7,138.4 C274.9,144.1 275.2,148.1 271.5,151.6 C295.8,166.3 315,189.1 304.2,215.1 C290,240.4 252.7,256.5 224.6,271 C213.5,277.1 197.2,280.3 187,290.2 C186.3,291.2 185.3,292.2 184.7,292.1 C180,292.8 172.9,263.1 174,260.7 C168.9,262.5 163.3,262.4 158.1,263.3 C158.6,264.4 160.1,265.8 158.9,266.9 C159,270.4 158.5,274.2 157.7,277.7 C164,276.7 163.9,280 157.8,278.3 C157.6,279.8 157.2,283.8 157.1,285.3 C158.9,284.5 162.5,283.9 163.7,285.2 C163.2,286.8 158.8,285.2 157,285.7 C156,293.2 155.7,300.5 155,308 C160.4,313.1 168.8,314.3 173.5,319.9 C177.6,324.1 177,331.1 172.3,334.5 C175.2,337.9 172.8,343.6 168.6,344.6 C162.8,345.9 156.7,344 151,342.5 C141.5,339.3 131.5,334.4 120.5,327.5 C116.2,324.8 112.9,320.6 111.4,315.6 C100.3,281.2 97.3,257.9 102.6,246.2 C105.6,243.9 108.9,245.3 111.7,244.1 C113,243.5 114.2,242.7 115.1,239.9 C100.7,238.4 79.6,241.1 68,234.2 L68.4,233.3 C67.4,232.6 65,229.8 64.1,228.8 C65.7,248.2 67,268.1 67.7,287.4 C69.8,291 71.6,294.7 73.6,298.8 C75,300.2 77.4,302.5 76,304.1 C76,304.1 87.9,331.9 91.5,346 C95,346.1 96.4,352 96.2,355.9 C95.7,363 86.6,363.7 78.6,364.4 C73.2,365 67.6,365.3 62,365.3 C52.1,365.3 27.1,364.6 24.7,355.8 Z" id="🎨-Background" fill="#FFFFFF"></path><path d="M73.3,-3.3 C90.3,-14.6 112.3,-20.5 131.9,-13.1 C132.2,-13 132.1,-12.7 131.8,-12.8 C128.7,-13.4 125.6,-13.8 122.4,-14 C128.8,-13.2 135.1,-11.5 141.6,-12.6 C163.3,-16.2 186.4,-8.8 200.8,8.1 C201.2,5.6 204.3,5.7 205.3,7.4 C224.5,14.2 235.4,39.6 242.7,57.3 C243.5,60.4 249.4,73.5 246.6,75.1 C260.1,93.7 267.8,115.6 274.5,137.4 L274.7,137.9 C276.2,142.1 277.4,146.9 274.2,150.7 C287.6,159 300.1,170 306,185 C315.4,207.1 303.4,225.9 284.8,237.9 C266.3,251.2 246.3,262.4 225.6,271.9 C218.6,275.1 211.6,278.2 204.5,281.1 L203.8,281.4 C198.2,283.6 192.6,286.3 188.4,290.7 C180.4,302.5 172.9,267.2 172.8,262.2 C169,263.4 164.8,263.4 160.9,264 C161.4,264.9 161.4,266 160.8,266.9 C160.8,269.8 160.5,272.7 160,275.5 C166,275 165.8,281.1 159.5,279.7 L159.2,282.6 L159.2,282.6 C162,281.7 168.1,283.1 164.6,286.5 C162.7,287.4 160.7,286.6 158.7,286.7 C157.9,293.4 157.6,300.1 156.9,306.8 C162.3,311.5 170.3,312.7 175.1,318.3 C179.2,322.9 179.3,330 174.6,334.3 C177.1,338.7 174,344.4 169.3,345.5 C163.2,347 156.8,345.1 150.9,343.4 C140.2,339.9 130,334.6 120.5,328.6 L120.1,328.3 C115.3,325.4 111.9,320.8 110.3,315.5 L109.9,314.4 C104.2,296.5 93.9,261.4 101.6,244.8 C105.2,240.8 111.1,245.4 113.2,240.7 C99.6,239.6 77.6,242 66.5,234.2 C67.6,249.9 69.2,265.6 69.1,281.3 C68.8,283.3 70.2,284.6 69.7,286.7 C71.7,290.2 73.5,293.8 75.2,297.4 L75.3,297.5 C77.1,299.2 79.4,302.7 77,304.7 C85.1,316.5 89.5,330.5 93.1,344.2 C96.9,345.1 98.3,352.1 98.1,355.5 C97,364.6 86.2,364.7 79.1,365.5 C75,365.9 70.8,366.2 66.7,366.3 C58.2,366.5 49.8,366.1 41.4,365 C34.6,364.4 27.1,362.6 23.7,356 C21,351.3 20.6,344.2 24.3,339.9 C23.2,331.8 25.8,323.3 30.9,316.9 L31,316.7 L31,316.7 C30.9,316.7 30.9,316.5 31.4,316.4 L31.5,316.4 L31.7,316 C39.1,304.5 40,301.4 34.5,288.2 L29.5,288.1 C20.2,287.7 10.8,287.2 1.8,284.9 C0.5,286 -1.7,285.9 -2.2,283.8 C-8.7,255.8 -14.7,227.7 -21.1,199.7 C-27.8,170.2 -42,125.5 -7.5,108.4 C-11,108.4 -11.8,104.2 -12.6,101.5 C-15.8,91.1 -8.9,81.6 -1.6,74.8 C23.9,49.3 43,17.1 73.3,-3.3 Z M24.8,343.1 C24.3,356.8 34.7,360.1 46.4,360.4 C53.7,361.1 61.1,361.3 68.4,361.1 L71.9,360.9 C77.6,360.5 83.5,360.1 89.1,358.8 C92.8,358 93.7,354.7 92.4,351.5 C91.8,351.8 91.1,351.8 90.6,351.4 C90,351 89.5,350.5 89.2,350 C70.2,358.5 46.3,357.5 27.9,347.8 C25.5,347.7 25.2,344.9 24.8,343.1 Z M70.9,299.6 C64,295.4 50.1,293.6 43.4,298.8 C43.8,301.5 42.8,303.9 41.8,306.3 C44.8,305.5 71.3,302 67.5,308.5 C65.5,310.2 62.6,309 60.2,308.8 C53.7,308.2 47.2,308.4 40.7,309.1 C40.1,310.7 39.9,312.5 39.2,314 C45.8,311.8 52.6,310.8 59.5,310.4 L59.9,310.4 C62.9,310.2 66.4,309.6 68.6,312 C70.5,314.6 66.3,316.4 64.1,316.1 C54.8,315.9 45.6,316.2 36.3,316.6 L35.9,317.3 C29.3,328.1 27.9,332.4 30.6,345.3 C30.6,345.3 30.5,345.3 30.5,345.3 C30.5,346 30.3,346.6 29.8,347.1 C49.8,353.6 68.4,353.2 88.2,346.8 C85.3,332.2 79.6,318.5 75.3,304.4 C74.1,303.7 73.8,302.3 73,301.4 C72.1,301.3 71.3,300.7 70.9,299.6 Z M118.8,240.9 C110.1,247 114,254.3 116.4,262.6 C119.9,274.9 122.6,287.4 125.6,299.7 C127.4,310.7 134.4,320.3 144.4,325.2 C148.9,327.6 153.9,329.1 158.9,329.8 C160.9,330 163,329.8 164.3,331.5 C165.1,332.3 165.2,333.6 164.3,334.4 C161.8,337.3 154.2,334.7 150.8,334 C124.9,326.2 121,307.5 116,284 C113.6,271 107.7,257.3 111.2,244.1 C109.1,245.3 105.8,244.9 104.2,247.1 C100.7,269.5 108.5,292.2 114.5,313.7 C115.9,318.2 118.7,322.1 122.8,324.5 C131.6,329.8 140.7,334.7 150.5,338.1 L150.8,338.2 C155.7,339.6 166.3,343.4 170.1,339.4 C170.9,338.3 170.9,337 169.9,336.2 L169.4,336.1 C168.5,335.7 167.4,335.2 167.2,334.1 L167.2,334 L167.3,334 C166.4,332.5 168,330.9 169.4,330.5 C171.4,330.5 172.3,329.2 173,327.2 C174.3,317.8 161,315.3 156.6,308.8 C156.1,311.2 152.5,310.7 152.5,308.4 C152.4,301.2 154,293.9 155,286.8 C153.4,286.7 151.6,287.4 150,287 C149.8,285.5 154.4,284 155.7,283.5 C156,282.2 156.2,281 156.5,279.8 C146.2,280.4 151,277.1 157.5,276 C157.7,275.3 157.9,274.6 158.1,273.9 L158.2,273.5 C158.6,271.8 158.8,270.1 158.9,268.4 C154.3,270.5 149.1,271.7 144.2,270.7 C135.3,268.6 130.6,257.8 134.2,249.6 C133.4,246.7 135,243.7 136.4,241.2 C130.6,241.2 124.7,241.1 118.8,240.9 Z M31.3,316.5 C31.3,316.6 31.2,316.6 31.1,316.7 L31,316.7 L31.1,316.7 C31.1,316.8 31.3,316.7 31.3,316.5 C31.3,316.6 31.3,316.5 31.3,316.5 Z M31.9,316.3 C31.7,316.4 31.6,316.4 31.5,316.4 L31.5,316.4 L31.4,316.4 C31.4,316.5 31.4,316.5 31.3,316.5 C31.5,316.4 31.7,316.4 31.9,316.3 Z M42.6,307.8 C42.1,307.8 41.6,307.9 41.1,307.9 L41,308.2 L41,308.2 C41.5,308 42,307.9 42.6,307.8 Z M63.9,286.9 C55.3,287.8 46.7,287.2 38.1,288.2 C39.8,290.5 41,293.1 42,295.8 C49,289.2 60.4,291.2 68.9,293.7 C68.3,292 67.8,290.3 67.3,288.6 C66,288.8 64.6,288.1 63.9,286.9 Z M273.5,151.5 C261.8,163.5 244,166.8 228.8,172 C225.2,174.4 227,178.9 227.4,182.4 C228.3,188.1 229,193.8 229.5,199.6 C231.4,197.4 236.3,197.1 239.1,196.2 L239.4,196.2 C243.1,195.3 246.9,194.1 250.7,194.9 C252.2,195.2 252.3,197.3 251.1,198 C248,199.9 244.3,200 240.8,200.4 L239.9,200.5 C236.8,200.9 233.7,201.2 230.6,201.1 C230.2,201.1 229.9,201 229.6,200.7 C230,206.7 230.8,212.8 230.5,218.8 C230.4,219.9 230,221 229.3,221.8 L229.2,221.9 C228.8,223.4 227.4,226.2 225.8,224.2 L225.5,223.6 C223.1,219.4 220.9,214.9 219.7,210.1 C219.4,219.8 219.1,229.4 218.7,239 L218.7,239.2 C218.6,240.9 218.2,242.8 217.2,244.1 C217.3,244.8 216.6,245.3 216,245 L215.9,245 C215.4,245.3 214.4,245.5 214.1,244.8 C212.1,240.1 209.9,235.5 207.9,230.7 C208,233.2 207.9,235.6 208,238 C208,240.8 208.6,244.1 207.2,246.6 C206.1,248.9 203.3,249.4 201.8,247.5 C200.6,245.6 199.9,243.3 198.8,241.3 C195.7,256.7 187.8,234.1 186.4,229.5 C181.9,232.1 177.3,234.3 172.4,236 C173.8,238 173.4,240.8 173.9,243.1 C174.2,246.5 174.5,250 174.8,253.4 L174.9,254.1 C176.8,264.9 179.4,275.9 185.2,285.4 C190.1,280.5 196.6,277.7 202.9,275.2 C210.5,272 218,268.8 225.4,265.3 C245.5,255.8 264.9,244.8 282.9,231.8 L283.5,231.4 C293.5,224.4 303.9,215.2 304.2,202 C305.1,180.5 287,165.8 273.5,151.5 Z M52.2,139.3 C35,123.3 8.8,102.5 -14.9,117.8 C-37.1,136.5 -19.5,181.3 -15,205.4 C-9.3,230.8 -3.2,256.1 2.5,281.5 C22.5,284.2 42.9,285.5 63.1,283.2 C62.9,265.2 61.7,247.4 61.3,229.4 C60.9,220.2 61,210.9 59.7,201.8 C58.5,194.4 60,185.4 55.8,178.9 C54.3,176.5 51.8,174.5 51.3,171.6 C51.2,171.5 51.4,171.4 51.5,171.5 C52.7,172.6 53.7,173.8 55,174.9 L55.9,175.6 C57.5,176.8 59,178.1 60,179.8 C60,179.1 58.2,172.6 59.3,173.4 L59.5,173.9 C61,178 62.3,182.1 62.7,186.5 C64.2,201.3 65,216.2 66.2,231 C69.2,232.4 72,234.3 75.3,235.1 C80.6,235.6 86,235.3 91.4,235.2 L91.9,235.2 C107.6,235 123.2,235.9 138.9,235.6 C154.9,236.2 171.3,232 184.9,223.6 C177.4,189.8 203.2,165.7 215.1,136.9 C201.4,140.3 187.7,144 174.1,147.7 C175.9,152.2 169.9,164.9 167.7,169.4 C155.7,193.1 131.4,208.5 109.6,186 C109.6,186 109.6,186.1 109.6,186.2 C108.9,185.5 108.1,184.9 107.2,184.4 C106.1,193.3 103.2,202.4 97.6,209.6 L97,210.4 C95.2,212.6 92.7,215.4 89.9,213.8 C87.8,212.7 87.5,210.5 87.9,208.3 C81.1,215.6 73.8,217.3 78.4,204.7 L78.2,204.9 C75.7,207.5 68.8,213.3 68.1,206.4 C68.5,203 70.6,199.9 71.6,196.7 C70.5,197.4 69.2,197.8 67.9,197.3 C64.4,195.9 66.2,191.9 67,189.4 C69,182.9 71,176.5 73.1,170.1 C72.3,166.3 74.6,162.6 72.5,159.3 C71.6,159.7 70.3,159.6 69.5,158.5 C64.3,151.6 58.4,145.2 52.2,139.3 Z M2.7,282.7 C2.7,282.7 2.7,282.7 2.7,282.8 C2.9,282.8 3.1,282.8 3.3,282.8 C3.1,282.8 2.9,282.7 2.7,282.7 Z M172.1,258 C168.9,225.5 177.1,240.8 143.8,241.2 C143.9,242 142.9,241.9 143.2,241.6 C142.8,239.8 140,245.1 139.6,245.8 C138.9,247.3 138.6,249.2 138.3,250.9 C136.5,260.2 143.2,268.4 152.9,264.5 C151.7,264.4 150.3,264.8 149.2,264 C149.2,264 149.2,264 149.2,264 C148.3,262.3 153.4,262.3 154.4,261.8 C158.4,261 162.3,260.2 166.3,259.3 C168.2,258.9 170.1,258.2 172.1,258 Z M204.2,245.4 C203.9,245.3 204,245.8 204.1,245.5 C204.1,245.5 204.2,245.5 204.2,245.4 Z M240.1,71.6 C225.8,72.7 216.6,79.7 206.4,88.7 C205.7,89.4 204.9,90 204.1,90.6 C208.6,98.4 213.3,105.9 217.9,113.6 L218.8,115 C220.1,117.3 221.5,119.6 222.3,122.1 C225,130.7 215.5,145.9 212,154.3 C195.4,183.5 179.9,203.8 194.9,238.4 C195.8,236.2 194,228.6 196.6,228.3 L196.6,227.7 C195.7,219 195.7,208.4 198.4,200.6 C196.9,215.6 198.5,231.4 204.2,245.4 C205.7,232.1 203.7,217.2 204.2,203.6 C204.1,201.5 207.3,201.5 207.4,203.6 L207.5,207.1 C207.9,219.1 208.5,231.6 215.5,241.7 C216.2,226.3 213.4,210.1 218.8,195.3 C219.2,194.3 220.8,194.3 220.8,195.6 C220.9,200.6 223.1,217.6 226.7,220.6 C227.7,217.5 227.6,214.1 227.5,210.9 C227,199.2 225.3,187.9 223.2,176.3 C222.8,174.1 223.5,171.3 225.9,170.4 C227.6,168.7 230,167.6 232,166.6 C244.8,160.3 262.2,161.5 270.8,148.6 L271.3,148 C272.3,146.5 273.2,145 273.6,143.2 C272.5,138.8 270.8,134.6 269.4,130.4 C268.1,126.6 266.8,122.9 265.5,119.2 L265,117.9 C258.9,101.4 251.2,85.5 240.1,71.6 Z M141.6,241.2 C141.3,241.3 141.1,241.6 140.8,241.9 L140.7,241.9 L140.9,241.8 C141.1,241.7 141.2,241.5 141.5,241.3 L141.6,241.2 Z M66.3,232.7 L66.4,233.7 L66.4,233.7 C66.9,233.8 67.4,233.9 67.9,234 C67.3,233.6 66.8,233.2 66.3,232.7 Z M139.1,210 C139,209.8 139.3,209.7 139.4,209.9 C143.6,217.1 151.7,220 159.6,221.2 C160.9,221.5 160.8,223.4 159.6,223.8 C155.2,225.2 150.1,223.2 146.5,220.6 C142.8,218 140.3,214.4 139.1,210 Z M218.2,205.8 C217.4,211.4 217.5,217.2 217.4,222.8 C217.7,217.2 217.9,211.5 218.2,205.8 Z M103.6,215.7 C104.5,216 105.3,216.2 106.1,216.3 C105.2,216.7 104.2,216.5 103.6,215.7 Z M39.7,34.3 C27.2,48.4 16.3,63.8 2.8,77.1 C-5,84.2 -12.4,93.8 -6.3,104.5 C-5,105 -4.8,106.9 -5.9,107.8 C-5.6,107.8 -3.9,107 -4.3,107.6 C-7.8,109.1 -10.8,111.2 -13.4,113.8 C2.8,101.9 24.3,111.4 38.5,122.1 C45.5,127.2 52,132.8 58,138.8 C60.2,139.2 62.5,140.4 64.3,141.3 C76.8,147.3 78.7,155.4 77.7,168.4 C74,175.5 72.2,183.7 69.6,191.3 C66.9,197.3 72.2,193.3 72.9,190.7 C74.8,188.4 75.7,185.3 76.8,182.7 L76.9,182.5 C77.2,181.7 77.9,181.2 78.8,181.4 C79.5,181.6 80.1,182.5 79.9,183.3 L79.3,184.7 C76.5,191.8 73.7,198.8 71.5,206.1 C78.9,201.6 82.6,193.3 86.4,185.9 C87.5,183.9 90.4,185.7 89.4,187.6 C88.5,189.5 87.6,191.3 86.6,193 C84.1,198.4 82.3,204 80.8,209.7 C89.1,204.8 92,194.7 94.4,186.2 C94.5,183.8 98,184.3 97.7,186.7 C96.8,191.4 95.4,196 93.3,200.4 L92.7,203.6 C92.4,205.8 92,208 91.6,210.2 C91.8,210.1 92.1,210.1 92.3,210.1 C99.6,202.7 102.6,192.5 105.1,182.7 C103.9,178.6 105.4,174.4 105.2,170.1 C105.9,164.6 104.1,159.5 101.7,154.6 C100.2,139.5 85.6,133 75.5,124.1 C63,111.8 56.5,93 39,86.9 C37.1,87 35.4,86.6 33.7,86 C33.6,86 33.6,85.9 33.7,85.9 C35.4,85.6 37.2,85.2 38.9,84.8 C39.4,83.3 41.2,83.1 42.6,83.8 C57.8,77.2 70.3,65.5 82.3,54.5 C70.6,43.6 55.4,36.9 39.7,34.3 Z M109.3,188 C109.5,188.3 109.7,188.6 109.9,188.9 C110,189 110,189.1 110,189.2 C109.7,188.8 109.5,188.4 109.3,188 Z M61.3,142.1 C65.5,146.5 69.5,151.1 73.2,155.9 C71.9,149 67.5,145 61.3,142.1 Z M201.2,89.7 C192.1,106.1 177.9,120.4 174.6,139.4 C174.3,141 174.3,142.7 174.2,144.3 C184.4,140.2 195,137.6 205.5,134.5 C209.4,133.4 213.3,131.7 217.5,131.5 C220.9,125.6 218.1,119.8 215.1,114.4 C211.2,105.8 205,98.3 201.2,89.7 Z M54.9,81.7 C52.3,83.2 49.6,84.5 46.7,85.5 C49.2,86.7 51.4,88.3 53.5,90.1 C54.6,87.4 55,84.6 54.9,81.7 Z M121.6,-12.6 C120.3,-0.6 120.3,11.7 123.5,23.4 C128.3,41.7 145.9,58.7 165.8,55.1 C185.9,51 195.8,30.2 199.9,11.9 C189.4,-1.5 172.8,-9.9 155.7,-10.6 C144.6,-11 132,-7.5 121.6,-12.6 Z" id="🖍-Ink" fill="currentColor"></path></g><g id="Head" stroke-width="1" transform="translate(86.5, 45.1)"><g id="head/No-Hair-1"><path d="M100.8,56.1 C98.6,46.6 93.6,37.7 85.6,30.5 C61.7,6.9 17.8,19.7 18,55.3 C17.2,59.4 16.8,63.7 17.1,67.9 C17.2,69.8 18,72.3 17,73.9 C14.6,76.9 13.2,79.2 14,83.2 C14.7,86.8 17.1,89.3 20.4,90.6 C22.3,91.2 24.2,92.4 24.9,94.2 C29.2,102.2 32.4,108.8 39.3,114.2 C41,115.6 59.1,123.9 65.1,123.9 C82.6,123.9 104.6,117.6 105,98.1 C105,93.8 104.3,89.5 103.8,85.3 C102.6,75.6 103.1,65.5 100.8,56.1 Z" id="🎨-Background" fill="#FFFFFF"></path><path d="M100.4,51.4 C100.4,51.2 100.6,51.2 100.6,51.3 C101.3,53.6 101.7,56 102.2,58.3 C102.7,60.6 103.1,62.8 103.5,65.1 C104.2,69.4 104.8,73.7 105.4,78 L105.5,79.1 C106.5,86.6 108.2,94.5 106.7,102.1 C105.5,108.6 101.4,113.9 96.2,117.7 C91.2,121.4 85.2,123.7 79.2,125 C72.7,126.5 65.1,126.9 59.9,122.2 C57.8,120.3 60.6,116.5 62.9,118.2 C68.2,122.2 75,121.1 81.1,119.5 L81.2,119.4 C86.5,118 91.9,115.9 96,112.3 C100.7,108.3 103,102.8 103.2,96.7 C103.4,93.3 103.1,90 102.7,86.6 L102.7,86.2 C102.3,82.3 101.9,78.5 101.5,74.6 C101.2,71.1 100.9,67.5 100.7,64 L100.6,62.2 C100.5,58.6 100.3,54.9 100.4,51.4 Z M37.8,21.4 C46.5,16.9 56.5,15.3 66.2,16.8 C75.5,18.3 84,23.1 90.4,29.9 C93.5,33.3 96.2,37.2 98,41.4 C98.9,43.5 99.6,45.7 99.9,48 C100.1,49.1 100.3,50.3 100.3,51.5 C100.4,52.6 100,53.6 100.1,54.7 C100.1,54.9 99.8,54.9 99.8,54.7 C99.5,53.5 98.8,52.6 98.3,51.4 C98,50.5 97.6,49.7 97.2,48.8 L96.8,48.1 C95.9,46 94.7,44 93.5,41.9 C91.2,37.8 88.2,34.1 84.7,31 C78.5,25.5 70.6,22 62.3,21.3 C53.7,20.7 45,22.7 37.7,27.2 C30.4,31.8 24.9,38.8 22,46.9 C20.5,51 19.7,55.2 19.5,59.5 C19.4,61.7 19.5,63.9 19.7,66.1 L19.8,67.2 C19.9,68.4 19.9,69.7 19.7,70.9 C21,70.5 22.4,70.3 23.8,70.5 C25.9,70.8 27.1,71.6 28,73.5 C28.1,73.6 28,73.7 27.9,73.6 C26.7,73 24.8,73.4 23.5,73.7 C22.2,74 21,74.6 19.8,75.3 C17.8,76.7 16.1,78.9 15.7,81.5 C15.4,83.9 16.4,86.4 18,88.1 C18.9,89 19.9,89.8 21.1,90.3 C22.5,90.9 23.9,90.9 25.1,91.8 C25.9,92.4 25.7,93.5 25.2,94.1 C27.8,97 30.2,100.1 32.8,103 C34,104.4 35.2,105.7 36.4,107.1 L36.8,107.6 C38,109 39.8,110.5 40.4,112.3 C40.7,113.4 39.5,114.8 38.3,114.3 C36.5,113.5 35.2,111.5 34,110 L33.9,109.9 C32.6,108.3 31.4,106.6 30.4,104.9 L30,104.3 C28.1,101.1 26.3,97.8 25.1,94.3 C25,94.4 24.9,94.5 24.8,94.5 C23.1,95.8 20.5,94.8 18.8,94 C17.1,93.2 15.6,92.1 14.4,90.7 C11.9,87.7 10.7,83.8 11.6,80 C12.3,76.7 14.6,73.5 17.6,71.8 C16.2,70.2 15.6,68.1 15.2,66 C14.7,63.3 14.6,60.6 14.8,57.8 C15,52.4 16.4,47.1 18.6,42.2 C22.4,33.3 29.2,25.9 37.8,21.4 Z M19.5,80.5 C21.4,80.2 23.1,80.1 24.8,80.9 C26.7,81.7 28.1,83.1 29.3,84.7 C30.7,86.5 27.1,88.5 26.2,86.1 L26.2,86 C25.9,85.3 25.5,84.6 24.9,84 C24.8,84.2 24.5,84.4 24.3,84.6 C23.9,84.7 23.5,84.6 23.4,84.2 C23.3,83.8 23.4,83.2 23.7,82.8 L23.7,82.8 L23.7,82.8 C22.4,81.8 20.9,81 19.5,80.8 C19.4,80.8 19.4,80.5 19.5,80.5 Z" id="🖍-Ink" fill="currentColor"></path></g><g id="face/Smile-Teeth-Gap" transform="translate(39.9, 46.6)" fill="currentColor"><path d="M42.8,36.1 C44.7,37.3 47.6,40 45.6,42.8 C43.2,45.3 39.7,42.5 38,41.2 C36.4,40.1 34.7,42.7 36.1,43.9 C48.4,53 53.4,36.5 43.8,34.8 C42.7,34.6 42.3,35.8 42.8,36.1 Z M25.7,14.2 L26.2,14.1 L26.4,14.1 C27.8,13.9 29.5,13.7 30.5,14.8 C31,15.4 31.2,16.6 30.5,17.2 C29.2,18.2 27.8,17.8 26.2,17.9 C24.9,18 23.7,18.2 22.5,18.6 C19.8,19.3 17.6,20.7 15.3,22.3 C15,22.5 14.7,22.1 14.8,21.8 C16.2,19.2 18.7,17.1 21.3,15.8 C22.7,15.1 24.2,14.5 25.7,14.2 Z M38.2,50.1 C42.3,50.4 51.2,48.5 55,51.4 C68.9,68.9 13.5,73.3 19.5,54.1 C23.3,47.8 32.1,50.3 38.2,50.1 Z M37.5,60.7 C36.5,60.6 35.2,61.4 34.9,62 C34.6,62.6 34.8,64 34.8,64.2 C36.5,64.4 38.3,64.4 40.1,64.3 C39.7,62.7 39.6,60.9 37.5,60.7 Z M45.7,63.2 C45.4,61.3 44.1,60.9 43,61.2 C41.8,61.5 41.2,62.8 41.2,63.9 C41.2,64 41.2,64.1 41.2,64.1 C42.7,63.9 44.2,63.6 45.7,63.2 Z M33.1,61 C32.4,60 30.9,59.6 29.9,59.7 C28.3,60.1 28.1,62.1 28.1,62.5 C29.6,63.1 31.2,63.5 32.7,63.8 C33,63.8 33.3,63.9 33.6,63.9 L33.6,63.7 C33.6,63.1 33.7,61.9 33.1,61 Z M51.2,60.9 C49.6,58.3 46.1,60.1 46.3,62.9 C46.7,62.8 47,62.7 47.3,62.6 C48.6,62.1 50,61.6 51.2,60.9 Z M38.3,52.1 C36.1,51.9 34.3,52 32.8,52.2 L32.8,52.7 C32.6,54.4 32.4,56 33.3,56.7 C34,57.2 36.4,57.2 37.9,56.8 C38.3,56.7 38.8,53.2 38.3,52.1 Z M41.7,51.9 C41.4,53.5 41.2,55.5 41.9,56.1 C42.6,56.8 45.1,56.7 45.7,56.3 C46.3,55.9 46.2,54.2 46,52.3 C44.8,52 42.7,51.9 41.7,51.9 Z M31.8,52.2 L31.1,52.2 L30.7,52.3 C29.7,52.3 28.5,52.3 27.5,52.6 C25.4,57.1 33.1,57.9 31.9,52.4 L31.8,52.2 Z M47,52.3 L47,52.6 C46.9,53.9 47,55.6 47.7,56 C48.7,56.7 50.7,56.6 51.7,53.5 C51.4,52.5 47.7,52.4 47,52.3 Z M26.6,25.3 C27.1,25.3 27.5,25.4 27.9,25.7 C28.3,26 28.6,26.4 28.9,26.9 C29.5,27.8 29.8,29.1 29.8,30.6 C29.8,32 29.5,33.3 28.9,34.3 C28.6,34.8 28.3,35.2 27.9,35.5 C27.5,35.7 27.1,35.9 26.6,35.9 C26.2,35.9 25.8,35.7 25.4,35.5 C25,35.2 24.7,34.8 24.4,34.3 C23.8,33.3 23.5,32 23.5,30.6 C23.5,29.1 23.8,27.8 24.4,26.9 C24.7,26.4 25,26 25.4,25.7 C25.8,25.4 26.2,25.3 26.6,25.3 Z M54.8,25.3 C55.2,25.3 55.7,25.4 56,25.7 C56.4,26 56.8,26.4 57.1,26.9 C57.6,27.8 57.9,29.1 57.9,30.6 C57.9,32 57.6,33.3 57.1,34.3 C56.8,34.8 56.4,35.2 56,35.5 C55.7,35.7 55.2,35.9 54.8,35.9 C54.3,35.9 53.9,35.7 53.5,35.5 C53.1,35.2 52.8,34.8 52.5,34.3 C52,33.3 51.6,32 51.6,30.6 C51.6,29.1 52,27.8 52.5,26.9 C52.8,26.4 53.1,26 53.5,25.7 C53.9,25.4 54.3,25.3 54.8,25.3 Z M51,13.1 L51.3,13.1 L51.6,13.2 C55.4,14 60.4,15.7 62.2,19.4 C62.3,20 62.2,20.1 62.1,20.2 L62.1,20.2 C62.1,20.3 62,20.4 61.8,20.4 C61.7,20.4 61.6,20.4 61.6,20.4 C60.7,20.2 60.1,19.9 59.4,19.5 L58.7,19.2 C57.9,18.8 57,18.4 56.2,18.1 C54.3,17.5 52.4,17.1 50.4,16.8 C50,16.8 49.6,16.6 49.3,16.4 C49,16.2 48.7,15.9 48.6,15.4 C48.5,14.9 48.5,14.5 48.8,14 C49,13.6 49.4,13.3 49.7,13.2 C50.1,13 50.5,13 51,13.1 Z" id="🖍-Ink"></path></g><g id="facial-hair/*-None" transform="translate(30.8, 84.6)"></g><g id="accessories/*-None" transform="translate(11.8, 60.3)"></g></g></g></g></g></svg>