<svg viewBox="0 0 367 620" version="1.1" xmlns="http://www.w3.org/2000/svg" xmlns:xlink="http://www.w3.org/1999/xlink"><g id="Introduction" stroke="none" stroke-width="1" fill="none" fill-rule="evenodd"><g id="variations-sitting" transform="translate(-1291, -215)"><g id="a-person/sitting" transform="translate(1243, 200)"><g id="pose/sitting/crossed_legs" transform="translate(-20.3, 159.5)"><path d="M430.4,186.5 C428.4,185.9 426,185.8 423.8,185.7 C416.2,185.2 408.5,188.8 401.1,190.5 C397.9,191.3 394.4,192.2 390.9,192.9 C387.8,193.3 384.7,193.6 381.4,193.8 C378.9,193.9 375.8,193.7 374.9,196.5 C369.7,197.5 365.1,197.9 360.2,197 C360.6,195.4 360.9,193.8 360.4,192.1 C360.6,191.7 361,191.1 361.2,190.8 L360.6,190.8 C351.8,187.3 342.4,184.9 333.6,181.3 C322.2,177.2 305.3,169.2 292.1,163.8 C293,158.9 293.3,153.9 293,149.1 L293.5,148.6 C293.7,147.7 293.9,146.5 294.4,145.7 C295,144 295.1,141.8 295.3,139.9 C295.8,136.2 296.2,130.7 295.2,126.4 C294.8,120.5 290.8,116 286.6,112.4 C281.3,107.2 276,102.1 270.9,96.7 C242.5,67.8 240.3,31.4 195.8,20.3 L195.8,20.1 C195.4,19.7 195.3,19.4 194.9,20 C193.4,19.5 191.6,19.5 190.3,18.6 C188.2,16.6 186.6,14.3 185.6,11.6 C184.8,6.4 185.4,-1.5 180.9,-4.8 C175.8,-7.8 149.2,-9.9 146.9,-3.4 C145.4,-2 144.8,-0.3 144.4,1.7 C142.9,4.5 141.9,7.7 140.4,10.5 C137.2,16.9 135.2,15.5 129.6,16.9 C129,15.6 127.1,15.9 125.8,16.1 C109.4,18.3 89.5,24.6 82.5,39.9 L83.1,39.9 C71,62.5 78.9,91.3 81,115.3 C82.8,136.6 80.8,158.1 76,178 C70.2,199.1 69.9,222.7 81.4,241.8 C82.6,244 84,247.1 86.6,245.7 C88,246.7 89.5,247.5 91.7,248.1 C92.3,248.5 92.9,249.2 93.5,249.5 C93.5,249.6 94.5,249 94.6,249 C96.5,251.7 200.2,260.7 211,262.1 C220.5,263.2 233,266.1 240.7,259.3 C247.1,257.5 253.8,252.7 258.9,248 C262,292.9 263.7,384.8 266.5,385.4 C267.7,385.8 269.3,386.3 270.7,386.7 C270.7,389.9 271,393.6 270.7,396.8 C270.3,400.3 269.2,404.6 268.7,408.3 C266.6,408.2 266,410.3 265.8,411.7 C264,423.5 264,432.9 264.2,445.8 C285.4,458.3 310.3,465.2 334.1,473.3 C336.4,475 341.4,473.1 344,472.7 C353.2,470.9 363.6,465.5 361.3,455.7 C359.6,448.4 352.5,444.1 346.5,439.8 C340,435.1 333,430.3 327,424.7 C322.2,420.1 318.6,416.6 314.5,411.5 C312.7,409.1 310.8,405.2 308.4,403.4 C311,400.4 305.8,403.2 303.9,403.4 C302.8,398 301.3,392.9 299.6,387.7 L301.3,387.8 C306.7,382.7 309.7,358.5 310.1,351.3 C312.8,304.3 312.8,250.2 301.9,210.7 C310.2,215.8 319.2,220.1 327.5,225.1 C332.7,228.1 337.9,232.3 343.8,233.8 C344.1,234.9 345.5,235.3 346.3,234.3 C347.3,234.4 348.7,234 348.8,233.5 C349.8,231.3 351.4,229 351.2,226.6 C351.2,226.6 349.8,223.3 349.8,223.3 C353,224.6 356.5,227.3 359.9,227.6 C366.8,250.6 380.4,237.7 393.5,228.7 C401.4,223.2 410,217.1 418.3,211.3 C425.4,205.7 439.2,200.4 432.4,189.3" id="🎨-Background" fill="#FFFFFF"></path><path d="M133.6,15.5 C140.3,13.9 141.4,-2.1 145.4,0.2 C147.7,2.2 143.9,6.1 143.3,8.3 L143,8.9 C141.6,11.6 140.1,14.2 137.4,15.8 C135.6,17.6 130.5,15.8 131.2,18.7 C133.9,27.4 148,33.5 156.3,36.2 C169.2,41 190.1,39.4 193.1,23.2 C186,21.9 180.8,9.1 185.2,3.8 C185.3,8.9 186.7,14.3 190.8,17.8 L191,18 C191.7,18.6 192.6,19.4 193.6,19.3 C194.5,18 196.2,18.7 196.7,20 C237.1,27 246,70.4 271.4,96 C276.5,101.3 281.8,106.4 287.1,111.6 C292.4,115.9 296.2,121.8 296.4,128.7 C296.9,132.5 296.7,136.4 296.2,140.3 L296.1,140.6 C295.9,143 295.8,145.6 294.6,147.7 C294.4,148.4 294.5,149.3 293.9,149.8 C294.2,154.3 293.9,158.7 293.1,163.1 L295.1,164 C316.5,173.5 338.2,182.5 360.5,189.6 C362.4,189.3 362.2,191.5 361.3,192.5 C361.6,193.7 361.6,194.9 361.3,196.1 C365.4,196.7 369.5,196.2 373.6,195.5 C374.9,192.7 378.2,192.8 380.9,192.7 C384.1,192.5 387.4,192.2 390.6,191.8 C398.6,190 406.4,187.6 414.3,185.6 C419.6,184.1 425.3,184.2 430.6,185.5 C431.5,186.5 432.3,187.6 433,188.8 C437.9,196.3 433.1,203.1 426.3,207.1 C415.5,214.7 404.6,222.4 393.7,230 L392.9,230.6 C380,239.9 365.4,251.6 358.5,229 C356.1,228.8 354.1,227.2 351.9,226.3 C352.5,229 350.8,231.7 349.6,234 C349.1,235.4 347.6,235.8 346.3,235.8 C345.2,236.9 343.1,236.4 342.4,235.1 C336.5,233.5 331.6,229.5 326.3,226.4 C318.9,221.9 311,218 303.5,213.7 C316,265.7 313,319.8 309.6,372.7 L309.6,373.2 C309.2,380.9 307.4,384.5 301,389.3 C302.1,392.7 303.1,396.1 303.9,399.6 C304.2,400.4 305.4,399.7 305.4,400.8 C307.7,400.2 312.3,400.8 310.7,404 C315.3,407.8 318.4,413 322.4,417.3 C329.4,425.8 338.7,432.1 347.7,438.3 C368.5,448.9 369.7,467.2 345.4,473.5 L345.1,473.6 C341.8,474.4 337.7,476.2 334.5,474.7 C329.6,473.7 324.8,471.8 320.1,470.4 C300.9,464.1 282.2,456.6 264,448.1 C263.3,447.8 263,447.1 263,446.4 C263.2,440.6 261.6,408.5 267.6,407.8 C269,401.3 269.2,394.5 269,387.9 C267,387.3 265,386.7 263,386.3 C261,385.6 257.9,385.5 256.6,383.9 C256.1,383.7 255.7,383.3 255.8,382.6 C256.9,372.6 257.7,362.5 258.3,352.5 C260.3,318.7 259.6,284.8 257.3,251 C252.5,255.1 247.1,258.7 241.1,260.7 C237.7,264 232.4,264.7 227.8,265.1 C222,265.5 216.2,264.3 210.4,263.6 C200.6,262.4 190.9,263.4 181.1,264.7 L177.8,265.1 C153.9,267.7 128.1,268.2 105.9,258 C101.7,258.4 96.5,253.9 93.9,250.9 C92.7,251.6 91.6,250.2 90.7,249.5 C89.2,249 87.4,248.3 86.1,247.4 C82.6,248.5 80.7,244 79.4,241.5 C58.3,205.5 81.8,169.7 80,131.5 C81.1,101.6 67.4,70.4 80.6,41.7 C83.3,29.5 98.9,21.1 110.7,18 C114.5,17.4 128.8,12.2 130.4,16.6 C131.2,15.6 132.4,15.5 133.6,15.5 Z M308.2,405.4 C306.3,405.6 304.4,405.7 302.4,406 C295.3,407.2 288.5,410 282.4,413.8 C280.4,415 278.6,416.6 276.3,417.3 C271.7,419 267.1,414.7 267.4,410.2 C266.1,421.6 266.3,433.4 267,444.9 C285.3,453.1 304,460.5 323,466.9 C327.3,468.7 332.4,469.3 336.3,471.7 C343,471.3 349.8,468.9 355.4,465.2 C364.7,458.7 358.5,448.5 350.8,444 C333.7,436.3 319.2,420.7 308.2,405.4 Z M270.9,388.5 C270.5,391.8 273.1,397.1 272.7,403.9 C272.5,406 271.8,408.2 272,410.3 C273.1,418.2 281.6,408.2 285.1,407.1 C290.1,404.3 295.5,402.5 301.1,401.5 C301.1,399.6 299.9,398.9 299.7,397.1 C299.5,394.5 299.5,392 299.4,389.3 C292.1,392.6 278.6,390.3 270.9,388.5 Z M310,404.8 C309.8,404.9 309.7,405 309.6,405.1 C310.6,406.3 311.5,407.6 312.6,408.7 L312.1,407.9 C311.5,406.8 310.8,405.8 310,404.8 Z M84.6,123.9 C84.3,125.4 83.6,126.8 82.6,128 C87.8,169.7 61.3,204.5 85.6,243.2 C85.9,243.4 86.2,243.6 86.5,243.8 C86.6,243.7 86.8,243.6 86.9,243.5 C98.3,223.3 114.6,205.9 127.5,186.6 C130,181.7 134.1,176.9 135.7,171.3 C109.6,161 99.3,146 84.6,123.9 Z M427.2,187.2 C426.1,187.6 424.8,187.3 423.7,187.2 C419.5,187.1 415.4,188.2 411.4,189.3 C399.8,192.5 388.1,195.3 376.2,197.2 C375.9,197.5 375.7,197.7 375.5,198 C375.7,198.3 375.7,198.8 375.4,199.2 C373.6,202.6 375.1,206.8 373.8,210.5 C371.9,217.9 366.8,226.3 359.3,228.9 C361.8,231.3 363.6,234.4 366.2,236.7 C372.6,241 379.5,234.6 384.7,231.1 C394.6,224.1 404.5,217.2 414.4,210.4 C418.8,206.7 428.6,202.1 430.8,197.2 C432.1,193.5 429.6,189.8 427.2,187.2 Z M359.2,196.7 C355,205.3 352.5,214.5 350.1,223.8 C352.6,224.5 355,225.6 357.5,226.3 C361,227.1 366,220.3 367.8,217.6 C369.6,214.6 370.9,211.2 371.5,207.8 C372,204.3 371.4,200.8 372.9,197.7 C368.3,198.1 363.7,198.2 359.2,196.7 Z M107,178.8 C111,177.7 101.9,186.7 101.4,187.7 C95.5,194.6 90.1,202 84.7,209.3 L83.1,211.6 C82.9,211.8 81.9,213.4 82.6,213.2 C82.7,213.2 82.7,213.2 82.7,213.3 C77.7,214.2 104.6,179.4 107,178.8 Z M204.1,174.6 C204.4,173.6 202.9,173.2 202.6,174.2 L201.6,177.2 C197.7,188.8 193.9,200.3 189.3,211.6 C189,212.5 190.5,212.9 190.9,212 C195.9,199.7 199.9,187.1 204.1,174.6 Z M248.7,170.5 C247.3,177.2 243.7,183.1 241.6,189.5 C245.6,188.6 248.7,184.8 251.1,181.6 L251.1,181.5 C252.2,179.8 253.5,177.2 256,178.4 C259.8,180.6 257.1,188.4 257,192.1 C256.6,197.2 254.9,202 253.8,206.9 C256.7,204.9 257.5,201 258.9,198 L264.4,184.9 L264.4,184.9 C268.4,179.5 266.5,195.9 266.3,197.4 C266,200.8 264.6,204.2 265.1,207.7 C267.4,205.2 268.8,202.2 270,199.1 C271.7,194.8 273.2,190.4 274.7,186.1 C275.3,184.7 277.4,185.2 277.1,186.7 C277,191.6 276.9,196.6 276.8,201.5 L276.7,205.2 C276.7,205.9 276.4,207.9 277.6,207.3 C283.9,200.7 285.6,187.4 284.8,178.4 C272.3,178.7 259.5,177.1 248.7,170.5 Z M359.8,195.4 C359.7,195.5 359.7,195.7 359.6,195.9 C359.7,195.9 359.7,195.9 359.7,195.9 C359.8,195.7 359.8,195.5 359.8,195.4 Z M82.6,195.4 C81.3,194.4 104.5,164.5 103,173.1 C96.5,180.8 89,187.5 82.6,195.4 Z M288.3,129.4 C266.5,124.3 247.3,143.4 225.4,140.5 C225.7,147.3 226.1,154.2 225.9,161.1 C255,163.5 251.6,175.8 285.1,174.5 C289.4,171.7 291.2,154 290.8,148.6 C291.1,142.3 285.6,139.5 280.2,138.3 C278.2,139.5 274.7,136 277.6,134.8 C281.5,133.6 285.1,131.8 288.3,129.4 Z M127.6,17.4 C119.9,18.2 112.2,20.3 105.1,23.5 C78.8,31.1 75,61.9 78.1,85.2 C79.5,102.9 84.5,120.3 95.2,134.7 C123.5,177.8 170.4,171 214.9,165.3 C216.5,164.2 219.2,165 220.8,163.5 C220.6,163.4 220.5,163.4 220.3,163.3 C221.1,162.7 221.6,161.7 221.8,160.6 L222.1,160.6 L222.1,160.6 C222.4,153.9 222.2,147.4 222.3,140.7 C207.7,136.7 192,134.7 177.2,130.7 C175.5,131.9 173.6,130.5 172,129.9 C167.7,128.1 163.4,126.4 159.1,124.7 L158,124.3 C155.2,123.3 152.3,122.2 149.5,121.1 L148.5,120.6 C146.9,120 142.8,117.6 141.1,119.1 L141.2,119.4 C142.3,121.6 145.8,130 141.5,128.3 C137.9,125.8 136,108.4 132.5,108.3 C131.3,111.5 130.4,114.9 130.2,118.3 C130.2,119.1 129.1,119.8 128.5,119 C124.3,113.5 130.6,107.5 130.8,101.7 C131.2,95 128.2,88.6 126.7,82.2 L126.6,81.7 C125.8,77.5 124.4,72.4 124.8,68.7 L125.6,72 C126.5,75.2 127.4,78.5 128.4,81.7 C131,89.8 135.6,98.1 133,106.7 C138.1,106.8 139,114.9 140.9,118.6 C144,114.6 165.9,124.2 170.9,125.8 L171.8,124.7 C187.5,107 198.8,95 223,109 C218.8,95.5 218.4,81.2 217.7,67.2 C217.9,64.5 216.4,57.5 218.6,56 C218.9,56.1 219.3,56.2 219.7,56.4 L219.7,57.7 C219.7,60.4 219.8,64.8 220.9,65.8 L221.4,71.1 C222.8,84.9 224.3,98.7 228.4,111.9 C238.3,117.5 247.3,124.4 255.8,131.8 L256.8,131.5 C267.3,127.6 279.9,122.7 290.6,127.5 C290.4,124.8 289.4,122.2 287.9,119.9 C285.5,119.3 283.9,116.8 282.2,115.1 C276.7,109.2 271,103.4 265.6,97.4 C242.7,72.7 232.9,32.2 196.8,22.6 C194.4,42.5 168.9,45.7 153.5,38.9 L152.9,38.7 C143.4,35 132.5,29.4 129.2,19.3 L129,19 C128.7,18.3 128.3,17.5 127.6,17.4 Z M133.3,130.9 C133.3,130.8 133.4,130.9 133.4,130.9 C128.9,136.5 125.2,144.2 129.7,150.9 C130.5,152.4 128.6,153.9 127.4,152.7 C121.2,145.7 128,136.2 133.3,130.9 Z M289.3,132.1 C286.8,133.9 284.2,135.3 281.4,136.5 C281.4,136.8 281.2,137.2 281.1,137.4 C284.8,137.7 288.6,138.7 291.2,141.3 C291.3,140.4 291.5,139.4 291.6,138.4 C291.8,135.9 291.4,133.6 289.3,132.1 Z M119.8,107.3 L119.8,107.2 C119.8,107 120,107 120,107.2 C119.9,109.2 118.5,110.6 117.2,112 C115.4,114.1 113.6,116.3 111.7,118.4 C108.6,122.1 104.1,125.8 105.1,131.2 C105.2,133.1 102.8,133.5 101.8,132.1 C97.9,124.7 110.1,118.5 114.2,113.8 C116.1,111.7 119.1,110.2 119.8,107.3 L119.8,107.3 Z M177.5,129.3 C177.5,129.4 177.6,129.5 177.6,129.6 C178.3,129.7 178.9,129.7 179.5,129.8 L177.5,129.3 L177.5,129.3 Z M81,112.2 C81.2,112.9 81.3,113.7 81.4,114.5 L81.5,115.2 L81.5,115.2 C81.5,115 81.6,114.8 81.8,114.7 L81.8,114.6 C81.5,113.8 81.3,113 81,112.2 Z M258.1,104.2 C259.6,104.1 252.6,109.1 252.2,109.7 C251.6,110.2 251,109.3 251.6,108.9 C253.8,107.4 255.9,105.8 258.1,104.2 Z M244.4,89.4 C245.5,89 246.2,90.8 245.2,91.3 C241.5,93.1 237.6,94.4 234.2,96.8 C234,96.9 233.8,96.6 234,96.5 L234.4,96.2 C237.5,93.7 240.7,91 244.4,89.4 Z M82.3,66.8 C83.4,71.7 89,73.3 93.3,74.6 L94.7,75.1 C98.6,76.6 102.5,78.3 105.3,81.4 C106.4,84.9 98.7,78.8 97.6,78.5 C92.3,75.2 82.7,74.6 82.3,66.8 Z M197,21.3 C197,21.5 197,21.8 197,22 C197.4,22 197.7,22 198,22 C197.6,21.8 197.3,21.5 197,21.3 Z" id="🖍-Ink" fill="currentColor"></path></g><g id="Head" stroke-width="1" transform="translate(86.5, 45.1)"><g id="head/Long-Afro"><path d="M102.4,68.8 C100.7,47.9 95.5,29.3 70.9,28.5 C59.7,28.6 48.4,31 38.2,35.4 C13.3,47.8 5.5,93.2 27.3,111.5 C27.2,111.6 27.2,111.8 27.3,111.9 C31.9,115 36.9,117.5 41.9,119.6 C55.3,125.2 71.1,127.7 84.8,121.5 C105.6,112.7 106,88 102.4,68.8 L102.4,68.8 Z" id="🎨-Background" fill="#FFFFFF"></path><path d="M143.5,59.1 C144.4,58.3 145,57.3 145.3,56.2 C145.6,55.1 145.6,54 145.3,53 C145,51.9 144.3,51 144.4,49.8 C144.5,49.7 144.5,49.6 144.5,49.5 C145.1,47.3 146.7,45.7 146.1,43.3 C146,42.7 145.7,42.1 145.3,41.6 C145.3,41.1 145.4,40.5 145.4,40 C146.3,37.9 146.3,35.4 145.3,33.3 C145.2,32.2 145,31.2 144.7,30.1 C144.9,29.2 144.7,28.2 144.4,27.4 C143.9,26 143.2,24.6 142.5,23.2 C142.6,22.8 142.6,22.4 142.4,22.1 C142,21.4 141.5,20.9 141,20.3 C140.6,19.7 140.3,19.1 139.9,18.4 C139.8,18.1 139.6,17.8 139.4,17.5 C139.9,16.5 140.2,15.5 139.6,14.3 C139.4,13.8 138.8,13.5 138.3,13.5 C137.8,13.5 137.2,13.6 136.7,13.6 C135.6,12.3 134.5,11.2 133.2,10.6 C132,9.5 130.7,8.5 129.4,7.4 C129.1,7.1 128.7,6.8 128.4,6.5 C128.4,6.5 128.4,6.4 128.4,6.4 C128.1,5.5 127.8,4.6 127.5,3.6 C127.3,3 127.3,2.4 126.7,2.1 C125.5,1.4 123.7,1.3 122.3,1.2 C122.2,1.1 122,1 121.9,0.9 C122.5,-0.8 122.4,-2.5 121.6,-4.2 C121.4,-4.7 120.5,-5 119.9,-4.6 C118.8,-3.8 117.4,-3.5 116,-3.6 C114,-5.1 105.9,-12.1 104.6,-12.9 C104.6,-12.9 104.6,-12.9 104.6,-13 C103.9,-14.1 103,-15 102,-15.7 C101.9,-15.9 101.8,-16 101.6,-16.1 C101.8,-17 102.1,-17.8 102.6,-18.5 C102.6,-18.6 102.7,-18.7 102.8,-18.8 C103.7,-19.8 102.6,-21.2 101.3,-20.6 C101.2,-20.6 101.1,-20.6 101,-20.5 C100.1,-20.1 99,-19.6 97.9,-19.2 C97.5,-19.4 97.1,-19.5 96.7,-19.7 L92.7,-21.3 C92,-21.6 91.3,-21.8 90.6,-22.1 C90.4,-23.6 88.9,-24.6 87.4,-24.5 C87.5,-24.8 87.6,-25.1 87.8,-25.3 C87.8,-25.4 87.9,-25.5 88,-25.6 C88.8,-26.5 87.7,-28.2 86.5,-27.4 C86.5,-27.3 86.4,-27.3 86.3,-27.2 C86,-27 85.7,-26.8 85.3,-26.6 C84.8,-26.8 84.2,-26.9 83.6,-26.6 C82.2,-26.1 80.9,-25.5 79.7,-24.7 C79.7,-24.7 79.6,-24.6 79.6,-24.6 C79,-25.3 78,-25.8 77.2,-25.8 C77.2,-25.8 77.1,-25.8 77.1,-25.8 C76.5,-26.8 75.3,-27.4 74.2,-27.2 C74.3,-28.6 72.8,-29.9 71.6,-30 C70.1,-30.2 68.7,-29.3 68.3,-27.9 C68.2,-27.5 68,-27.1 67.9,-26.7 C66.7,-27.2 65.5,-27.7 64.2,-27.9 C61.3,-28.4 58.5,-27.9 55.7,-27.1 C55.4,-27 55.1,-26.9 54.8,-26.8 C54.4,-27.3 54.1,-27.8 53.7,-28.2 C53.1,-29 51.6,-28.4 51.7,-27.4 C51.8,-26.7 51.5,-26.2 51,-25.9 C50.6,-25.8 50.1,-25.8 49.4,-25.8 C48.4,-25.8 48,-25.8 47,-26.2 C46.6,-26.4 46,-26.9 45.7,-27.3 C44.7,-28.9 42.1,-29.3 40.9,-27.8 C39.6,-28.4 37.9,-27.6 37.2,-26.5 C36.8,-25.9 36.1,-25.6 35.1,-25.3 C34.3,-25.1 33.6,-24.9 32.8,-24.8 C32.4,-25.3 31.7,-25.6 31.2,-25.2 C30.8,-24.9 30.5,-24.6 30.2,-24.4 C27.5,-24 24.9,-24 22.4,-25 C20.3,-25.9 18.3,-23.5 18.7,-21.5 C18,-21.2 17.4,-21 16.8,-20.7 C15.4,-19.9 14.3,-18.8 13.7,-17.4 C13.6,-17.2 13.5,-16.9 13.4,-16.7 C12.9,-16.3 12.4,-15.8 11.9,-15.4 C11.1,-15.8 10.3,-16.2 9.5,-16.6 C8.9,-16.9 7.9,-16.7 7.8,-15.9 C7.6,-14.6 7.1,-13.6 6.4,-12.6 C4.3,-11.5 2.2,-10.2 0.2,-8.8 C-2.1,-8.1 -4.6,-7.7 -6.6,-7.2 C-7.3,-7 -7.7,-6.1 -7.3,-5.5 C-6.9,-4.9 -6.5,-4.3 -6,-3.6 C-7.2,-2.5 -8.3,-1.3 -9.3,-0.1 C-12.1,3.2 -14.5,6.9 -16.6,10.8 C-17.4,11.1 -18.3,11.5 -19.1,11.8 C-19.9,12.1 -20.3,13.1 -19.6,13.8 C-19.3,14.1 -19,14.4 -18.8,14.8 C-20,16.8 -21.4,18.5 -23.3,19.7 C-23.9,20.1 -24.4,20.6 -24.6,21.3 C-24.8,21.4 -25,21.5 -25.2,21.7 C-25.8,22.1 -26.1,23 -25.4,23.6 C-25,23.9 -24.6,24.4 -24.2,24.9 C-24.1,25.2 -24,25.4 -24,25.7 C-25.8,27.4 -27.3,29.3 -28.4,31.5 C-28.7,31.5 -29,31.5 -29.2,31.7 C-31.2,33.2 -31.3,35.5 -30.5,37.7 C-31,40.9 -30.6,44.2 -29.7,47.3 C-30.9,48.5 -31.7,50.3 -32,52 C-32.5,55.1 -32.6,59.7 -32.7,62.8 C-34.1,64.1 -35,65.8 -35.6,67.7 C-36,67.9 -36.5,68.1 -36.9,68.3 C-37.3,68.5 -37.6,69.1 -37.6,69.5 C-37.5,71.7 -36.6,73.4 -35.4,74.9 C-35,76.1 -34.4,77.2 -33.6,78.2 C-33,79 -32.5,79.7 -32,80.4 C-31.9,80.5 -31.9,80.6 -31.9,80.6 C-32.1,80.8 -32.2,81.2 -32.4,81.4 C-33.5,83.5 -33.5,85.9 -31.9,87.6 C-32.5,88.1 -32.5,89.2 -32,89.8 C-28.4,93.8 -25.5,98.8 -20.5,100.9 C-20.5,101 -20.5,101 -20.5,101 C-21.5,103.5 -21.6,104.7 -20.8,107.2 C-20.8,107.2 -20.8,107.2 -20.8,107.2 C-20.3,108.6 -19.5,110.6 -18.1,111 C-17.6,111.2 -17.2,111.2 -16.7,111.2 C-15.6,112.3 -14.4,113.4 -13.3,114.5 C-13.2,115.1 -13.1,115.6 -13.1,116.2 C-13.1,117.1 -12.2,117.9 -11.2,117.6 C-10.9,117.5 -9.1,115.7 -8.7,115.7 C-8.6,115.9 -8.4,116.1 -8.2,116.3 C-7.6,116.9 -6.8,117.9 -6.7,118.6 C-6.6,119.8 -5.7,121.3 -4.4,121.5 C-3.9,122 -3.1,122.2 -2.5,121.5 C-2.4,121.5 -2.4,121.4 -2.4,121.4 C-2.3,121.4 -2.2,121.4 -2.2,121.4 C-1.9,122.3 -1.6,123.1 -1.3,124 C-0.7,125.8 1.5,126.9 3.1,125.9 C3.4,126 3.6,126.2 3.9,126.3 C4.3,126.6 4.6,126.8 5,127.1 C5.1,127.1 5.1,127.2 5.1,127.2 C5.4,128 6.4,128.4 7.1,128 C7.3,128.1 7.5,128.1 7.7,128.2 C8.8,128.4 9.9,128.3 11,127.9 C11.8,127.7 12.5,127.2 13.3,127.1 C13.4,127.1 13.4,127.1 13.5,127.1 C14.1,128.5 15.7,129.7 16.9,130.1 C18.5,130.6 20.1,130.4 21.5,129.8 C21.9,130.5 22.4,131.3 23,132 C23.3,132.3 23.9,132.3 24.2,132 C24.9,131.4 25.5,130.8 26.1,130.3 C26.6,130.1 27,129.9 27.5,129.7 C29,129.1 30.6,128.8 32,127.9 C32.7,127.5 33.3,127 33.8,126.4 C34.8,125.8 35.7,125.1 36.5,124.3 C36.9,124.3 37.3,124.2 37.7,124 C39.3,123.2 40.2,121.5 40.3,119.7 C41.7,116.5 42.5,113.1 42.7,109.6 C42.8,108.5 42.8,107.3 42.7,106.2 C42.6,105.4 42.4,104.8 42.1,104.1 C42,103.9 41.9,103.6 41.8,103.4 C41.9,102.6 41.9,101.9 41.9,101.1 C42.1,100.4 42.5,99.8 43,99.3 C43.8,98.5 44.1,96.9 43.4,95.9 C42.9,95.3 42.5,94.7 42,94 C42.1,91.3 42.8,87.1 41.3,86.6 C41.4,86.2 41.5,85.8 41.6,85.4 C41.9,83.5 41.7,81.8 40.7,80.1 C40.5,79.8 40.3,79.5 40.2,79.2 C40.1,78.6 40,78.1 39.9,77.5 C39.7,76.7 39.6,75.8 39.5,74.9 C39.4,73.8 39.4,72.7 39.3,71.6 C39.2,70.6 39.2,69.6 39.1,68.6 C39.1,68.2 39.2,67.7 39.2,67.3 C39.6,64.5 40.7,63.5 42.6,61.7 C42.9,61.6 43.2,61.6 43.5,61.5 C44.9,61.2 46.3,60.8 47.7,60.9 C49.2,61.1 50.6,61.8 52.1,60.9 C52.5,60.7 53.5,60 53.6,59.4 C53.6,59.4 53.6,59.4 53.6,59.4 C53.7,59.3 53.8,59.3 53.9,59.3 C55.1,59.3 56.2,59.8 57.4,59.6 C58.8,59.5 60.1,58.8 60.9,57.9 C61.9,58.2 63,58.3 64.1,58.2 C65.1,58 65.9,57.7 66.7,57.3 C67.3,57 67.1,56.9 67.8,57.1 C69.2,57.7 70.6,58.5 72.2,58.1 C73.1,57.9 73.8,57.4 74.4,56.8 C74.6,56.7 74.8,56.5 75,56.2 C75.8,56.6 77.8,57.5 78.1,57.6 C79,57.9 80,57.8 80.9,57.5 C81.6,57.3 82.4,56.7 82.9,56.6 C83.7,56.4 85.4,57.5 86.3,57.8 C87.8,58.4 89.5,58.6 91.1,57.9 C91.6,57.7 92.7,56.8 93.1,56.8 C93.8,57.7 95.6,62.1 96.2,63.8 C98.4,70.4 99,91 98,96.3 C97.9,96.4 97.9,96.6 97.8,96.8 C96.6,101.3 95.2,106 93.1,110.3 C91.1,114.3 88.3,117.9 84.3,120.1 C80.1,122.4 75.3,123 70.6,122.7 C67.6,122.5 64.6,121.9 61.7,121.1 C60.2,120.7 58.7,120.3 57.2,119.8 C56.5,119.6 55.9,119.4 55.2,119.2 C54.1,118.8 53.5,118.8 52.4,119.3 C51.4,119.8 51.2,121.2 51.7,122.1 C52.5,123.5 54.1,123.6 55.5,124 C57,124.4 58.6,124.9 60.1,125.2 C63,125.9 66,126.5 69,126.7 C74.3,127.2 79.9,126.5 84.7,124.1 C85.3,123.9 85.8,123.6 86.3,123.3 C86.1,123.5 86,123.8 85.8,124.1 C85.2,124.8 85.6,126 86.4,126.4 C86.6,126.6 86.9,126.7 87.1,126.8 C87.1,126.9 87.2,127 87.2,127 C87.9,128.4 89.4,129.3 90.8,129.6 C92.6,130 94.6,129.7 96.4,129.7 C98,129.6 99.7,129.6 101.3,129.5 C101.7,129.5 102.1,129.5 102.5,129.5 C104.5,129.4 106.5,129.4 108.4,129.3 C110.2,129.3 110.1,129.4 111.7,128.7 C112.5,128.4 113.1,127.9 113.6,127.3 C113.9,127.2 114.2,127 114.5,126.9 C115.4,126.3 116.3,125.5 117.1,124.6 C118.4,125 120.2,124.6 120.5,123 C120.9,120.4 124.3,119.2 125.9,117.3 C127.2,115.8 128.1,113.8 128.1,111.9 C131.3,110.3 133.1,106.2 133.5,102.6 C133.7,101 133.7,99.3 133.9,97.6 C134.1,97.5 134.2,97.3 134.3,97.2 C135.1,95.9 135.8,94.5 136.4,93.1 C137.3,92.5 138.3,92.1 139.4,92.1 C142,91.9 142.5,88.3 140,87.5 C140,87.5 140,87.5 140,87.5 C140.6,85.8 140.6,83.8 139.8,82.1 C139.8,82 139.8,81.8 139.9,81.6 C141.3,80.1 142.1,78 142,76 C142.6,75.5 143.4,75.2 144.1,74.9 C145.4,74.6 145.4,73.1 144.5,72.4 C144.1,72.2 143.8,71.9 143.6,71.5 C144.2,69.6 143.9,67.5 142.7,65.9 C143.5,64.9 144.3,63.9 145.1,62.8 C145.6,62.1 145.9,61 145.1,60.3 C144.6,59.9 144,59.5 143.5,59.1 Z" id="🖍-Ink" fill="currentColor"></path></g><g id="face/Smile" transform="translate(39.9, 46.6)" fill="currentColor"><path d="M36.8,60.3 C35.1,59.6 33.6,58.5 32.5,57 C32.1,56.5 32,56 32.1,55.5 C32.2,54.9 32.5,54.4 32.9,54.1 C33.4,53.8 33.9,53.6 34.5,53.7 C35,53.8 35.4,54 35.8,54.6 L35.9,54.7 C36.5,55.5 37.4,56.3 38.3,56.7 C39.3,57.2 40.3,57.4 41.4,57.3 C43.5,57 44.9,55.9 46.4,54.4 C46.6,54.2 46.8,54 47,53.8 C47.1,53.6 47.2,53.5 47.4,53.5 C47.6,53.4 47.9,53.4 48.1,53.5 C48.3,53.5 48.5,53.7 48.6,53.9 C48.7,54 48.8,54.2 48.7,54.5 C48.6,56 47.8,57.4 46.6,58.5 C45.3,59.8 43.6,60.6 42,60.9 C40.2,61.2 38.4,61 36.8,60.3 L36.8,60.3 Z M42.8,36.1 C44.7,37.3 47.6,40 45.6,42.8 C43.2,45.3 39.7,42.5 38,41.2 C36.4,40.1 34.7,42.7 36.1,43.9 C48.4,53 53.4,36.5 43.8,34.8 C42.7,34.6 42.3,35.8 42.8,36.1 Z M20.8,25.6 C21,23 25,22.4 25.4,25 C25.7,27.3 25.3,29.4 24.3,31.4 C23.3,33.4 20.8,32.5 20.6,30.7 C20.3,28.3 20.7,27.2 20.8,25.6 Z M50.9,24.4 C51.5,23.7 52.3,23.2 53.2,23.5 C56.2,24.4 55.3,28.6 54.3,30.6 C53.7,31.8 51.9,32 51,31.1 C49.7,29.5 49,26.3 50.7,24.7 C50.8,24.6 50.8,24.5 50.9,24.4 Z M24.2,14.2 L24.7,14.1 C26.1,13.9 28,13.7 29,14.8 C29.5,15.4 29.7,16.6 29,17.2 C27.7,18.2 26.3,17.8 24.7,17.9 C23.4,18 22.2,18.2 21,18.6 C18.3,19.3 16.1,20.7 13.8,22.3 C13.5,22.5 13.2,22.1 13.3,21.8 C14.7,19.2 17.2,17.1 19.8,15.8 C21.2,15.1 22.7,14.5 24.2,14.2 Z M48.2,13.1 L48.6,13.1 C52.5,14 57.6,15.6 59.4,19.4 C59.5,20 59.4,20.1 59.4,20.2 L59.3,20.2 C59.3,20.3 59.3,20.4 59,20.4 C59,20.4 58.9,20.4 58.8,20.4 C58,20.2 57.3,19.9 56.6,19.5 L55.9,19.2 C55.1,18.8 54.3,18.4 53.4,18.1 C51.5,17.5 49.6,17.1 47.7,16.8 C47.2,16.8 46.8,16.6 46.5,16.4 C46.2,16.2 46,15.9 45.9,15.4 C45.7,14.9 45.8,14.5 46.1,14 C46.3,13.6 46.6,13.3 47,13.2 C47.3,13 47.8,13 48.2,13.1 Z" id="🖍-Ink"></path></g><g id="facial-hair/*-None" transform="translate(30.8, 84.6)"></g><g id="accessories/*-None" transform="translate(11.8, 60.3)"></g></g></g></g></g></svg>