<svg viewBox="0 0 853 798" version="1.1" xmlns="http://www.w3.org/2000/svg" xmlns:xlink="http://www.w3.org/1999/xlink"><g id="Introduction" stroke="none" stroke-width="1" fill="none" fill-rule="evenodd"><g id="variations-sitting" transform="translate(-168, -1592)"><g id="a-person/sitting" transform="translate(409, 1531)"><g id="pose/sitting/bike" transform="translate(-20.3, 159.5)"><path d="M611.2,540.1 C598.3,705.1 373.5,728.8 328.6,569.8 L328.6,569.8 C328.4,569.2 328.1,568 327.9,567.4 L327.9,567.3 C323.9,551.8 322.4,534.9 323.6,518.6 L323.6,518.6 C325.7,484.9 340.1,451.2 363.1,426.6 L363.1,426.6 C369.5,419.7 376.6,413.4 384.1,407.9 C398.4,450.8 419,489.2 445.2,521.1 L444.2,522.4 C445.4,523.1 446.7,523.8 447.9,524.5 C448.4,525 448.8,525.6 449.3,526.1 C447.5,530.6 451.2,534.9 455.6,535.8 C454.3,538.9 457.6,540.1 459.5,540.7 C466,542.2 473.6,542.5 478.5,538.9 C484.8,533.1 482.6,521.7 475.7,517.3 C475.8,517.3 475.8,517.2 475.8,517.1 C474.9,517 474.1,516.7 473.4,516.1 C470,514.8 466,514.8 462.6,516.3 C439.9,479.4 417.1,439.2 404.5,395.5 C409.8,392.8 415.4,390.5 421,388.5 L421,388.5 C421.1,388.4 421.6,388.3 421.7,388.2 L421.7,388.2 C427,386.4 432.3,384.9 437.7,383.8 L437.7,383.8 C438.2,383.7 439.2,383.5 439.7,383.3 L439.7,383.4 C449.3,381.4 459.4,380.5 469.4,380.6 L469.4,380.6 C469.8,380.6 471.2,380.7 471.6,380.7 L471.6,380.7 C475,380.8 478.5,381 481.9,381.4 C481.9,381.5 481.9,381.7 481.8,381.8 C482.1,381.9 482.3,381.9 482.6,382 C482.7,381.8 482.7,381.6 482.7,381.5 C485.4,381.8 488.1,382.1 490.8,382.6 L490.8,382.6 L492.7,382.9 L492.7,382.9 C527.1,389 559.5,409.3 580.5,437.3 L580.5,437.3 C589.4,448.8 596.6,461.8 601.8,475.7 L601.8,475.7 L602.6,477.9 L602.6,477.9 C609.7,497.5 612.6,519 611.1,540.1 L611.2,540.1 Z M365.6,323.5 C313.9,372.6 256.7,418.3 212.9,475.1 L204.8,470.2 L205.6,470 C202.8,469.8 200.3,467.2 198.3,465.6 C202.7,465.9 204,466.7 206.6,461.7 C215.7,445.4 223.6,428.7 233.4,412.5 C241.4,398.3 249.5,384.2 257.5,369.9 C261.7,363.7 268.8,347.2 257.1,338.9 C287.7,325 323,308.2 355.6,287.9 C358.3,299.8 362.4,311.4 366.2,322.9 L365.6,323.5 Z M190.1,237 C185.7,233 180.9,229.1 178.7,223.3 C185.5,224.4 192.1,225 199.6,225.2 C200,225.2 200.4,224.8 200.4,224.3 C200.6,215.7 200.6,206.2 199.8,197.1 C203.5,198.9 206.4,196.8 209.7,195 C213.2,197.6 216.8,196.8 221.1,195 C221.1,195 238.3,188.7 238.3,188.6 C242.1,187.5 243.8,186.3 244.7,183.9 C245.2,184 246.2,184.3 246.7,184.4 C250.8,190.5 310.4,209.4 315.7,202.4 C321.3,204.7 327.9,202.8 333.8,202.4 C338.4,202.8 343,203.8 347.6,203.2 C348.5,208 349.4,212.7 350.3,217.5 C338,235.4 336.2,243.5 339.7,265.1 C340.5,269.5 341.9,271 347.4,271.7 C314.8,289.5 282,306.6 249.8,325.7 C254.4,314.9 258.9,303.9 263.2,293.1 C264.7,289.8 266.7,285 266.9,280.4 C268.2,263.6 215.6,248.2 195,242.6 C194.5,240.2 191.8,238.8 190.1,237 L190.1,237 Z M357.6,267.9 C357.9,267.5 358.8,265.5 359,265 C359.6,266 360.6,267.9 361.2,268.8 C360,269.2 356.8,271 355.6,271.6 L357.6,267.9 Z M174.7,353.5 C174.1,355.8 173.6,357.9 173.1,359.9 C161,366.3 148.9,372.1 136.7,378.3 L137,379 C130.1,383 122.6,385.5 115.8,389.7 C110.5,366.8 106.5,343.6 103.5,320.3 C106.3,320.2 109.1,319.9 111.9,319.3 C114.7,319.4 117.4,319.1 119.6,318.4 C135.3,329.9 151.9,340.7 169,350.2 C170.9,351.5 172.9,351.9 175,352.1 L174.7,353.5 Z M172.7,526.9 C170.8,526.7 169.1,528.7 167.2,529.4 C161.5,532.3 156,535.3 150.5,538.4 C148.6,527.3 143.9,517.1 143.6,505.8 L143.4,506.1 C142.7,504.8 141.3,502.4 140.5,501.1 C141.8,501.4 144.4,502 145.7,502.3 L145.6,502.5 C147.3,502.2 149.6,503.3 151.3,503.5 C157.2,504.6 163.2,505.8 169.2,506.7 C167.7,509.1 167.7,509.2 170.6,509.2 C169,512.5 168.6,516.4 168.7,519.9 C168.8,520.5 169,520.4 169.4,520.6 C170,522.4 171.2,523.6 173.3,524.4 L172.7,526.9 Z M120.6,401.7 L120.1,400.1 L120.8,399.8 C120.7,399.6 120.2,399.4 119.9,399.5 L119.9,399.3 C136.2,392.3 152.3,384.5 168.4,377 C158.9,404.4 140.1,428 135.4,457.1 L132.9,457.2 C127.3,438.5 122.7,419.2 118.4,400.7 L119.1,400.4 C119,401.2 119.8,401.9 120.6,401.7 L120.6,401.7 Z M132.4,537.3 C130.7,537.9 128.5,538.1 126.5,537.9 C117.9,536.2 109.1,534.9 100.6,533.5 C105.4,486.9 89.9,439.3 58.1,405.1 C69.9,394.3 82.5,383 95.8,371 C108.3,431.7 122.6,491.5 133.5,536.9 L132.4,537.3 Z M79.4,518.9 C79.4,522.6 79.1,526.4 78.8,530.1 C43.3,524.5 5.2,518.8 -33.1,514.2 L-31.4,512.3 C-29.2,509.7 -32.9,505.4 -35,504.2 C-39,501.8 -43.5,502.7 -47.9,504.8 L-49.4,502.7 C-41.2,495.3 -33,488 -24.8,480.5 C-15.4,484.6 -5.8,488 3.8,491.7 L3.4,494 C5.6,494.1 7.7,493.8 9.7,494 C33.4,502.8 58.3,511.3 79.5,517.9 L79.4,518.9 Z M77.1,542.2 C75.7,550.3 73.5,558.2 70.8,565.9 L70.8,565.9 C40.9,660.3 -88.4,692.4 -155.6,617.3 C-231,543.5 -194.2,397 -88.5,374.8 C-82.5,385.7 -77.4,396.6 -72,407.6 C-69.4,414 -64.7,419.7 -63.6,426.6 C-62.9,429.2 -62.2,431.8 -61.6,434.3 C-61.5,434.4 -61.4,434.4 -61.3,434.5 C-61.3,434.4 -61.3,434.4 -61.3,434.4 L-59,433.4 C-54.3,441.4 -48.3,455.5 -43,464 C-36.1,474.4 -36.5,473.6 -31.3,474.2 C-37.4,480.3 -43.6,486.4 -49.7,492.5 C-55.1,497.7 -60.2,504.4 -68.4,505.9 C-71,506.1 -73.3,507 -74.8,508.8 C-75.2,509.9 -75.7,510.9 -76.4,511.9 C-79.2,522.4 -64.8,530.6 -57.3,521.7 C-12.1,528.6 32.2,533.8 77.3,540.9 L77.1,542.2 Z M-19.6,355.9 C-1.5,355.6 20.3,357.8 44.3,356.5 C45.7,356.1 47.3,355.8 48.4,355 C54.8,358.3 61.3,361.6 67.8,364.6 C67.3,367.5 70.4,369.2 71.4,371.7 C63.4,379.2 55.2,386.5 47.6,394.6 C28.4,377.2 5,364.7 -19.9,358.4 L-19.6,355.9 Z M630,506.1 C620.8,431.5 555,365.1 479.3,361.2 L478.9,358.7 C482.5,357.3 485.7,354.4 488.3,350.1 C464.4,347.7 439.7,350.5 417.6,358.7 C413.6,360.2 409.1,361.8 404.6,361.2 C403.9,359.9 403.1,358.6 402.3,357.2 C402.2,357.2 402.2,357.2 402.2,357.2 C400.8,356.7 399.5,356 398.9,354.7 C398.3,353.5 398.3,352 398,350.7 C398,350.5 398.1,350.2 398.2,350.1 C396.1,346.5 394.1,342.8 389.6,342.4 L391.1,340.8 C391.7,340.1 391.4,338.9 390.3,338.6 C384.3,316.9 376.9,296.1 371.2,274.2 L369.4,274.7 C369.1,274.1 367.7,270.5 367.4,269.9 L370.7,272.1 L370.3,270.6 C398.7,281.6 426.3,286.5 452.8,281.9 L452.8,281.8 C456,280.9 458.9,279.5 461.4,277.8 C462.9,277.9 463.3,277 464.1,274.5 C465.6,269.3 467.4,264.1 469,259.1 C478.6,227.9 491.8,197.9 500.4,166.9 C500.6,166.7 501.4,166 501.3,165.9 C467.2,146 385,152.1 340.5,158.7 C341.3,170.7 343.6,182.5 345.8,193.9 C329.6,182.5 314.2,169 294.8,163.2 L299.3,162.3 C300.1,162.2 300.6,160.7 299.8,160.4 C299.8,160.4 298.9,160.1 298.9,160.1 C300.6,147.1 285.9,145.6 277.8,152 C276,153.5 274,158.5 277.3,159.7 L277.1,162.1 C274.4,162.6 270.9,164.1 268,165.6 C268.7,161.6 267.2,156.2 262.6,159.9 C196.3,129.6 225,98.5 219.7,49.4 C219.3,34.6 217.5,33.7 203.5,27.1 C195.4,22.1 186.7,18.7 178.3,14.3 L178.9,13.7 C178.1,12.2 176.4,8.8 175.5,7 L175.2,7.1 C173.9,4 172.9,0.9 172.3,-2.4 C172,-6.1 170.2,-8.4 166,-9.1 C155.4,-11.4 144.9,-9.7 140.6,1.5 L140.6,1.5 C139.6,4.5 137.6,7.5 135.1,8.9 L136.6,10.3 C136.6,10.4 136.5,10.5 136.4,10.6 L134,9.9 C134,9.8 134.1,9.6 134.1,9.5 C132.7,10.1 131.1,10.5 129.5,10.5 C78.3,1.8 63,41.9 70.6,86 C67.6,97.4 64.9,108.8 62.1,120.1 C54.1,157.9 30,181.5 21.8,218 C19.7,226.9 10.7,243.3 18.6,249 C17.2,259.4 21.6,270.6 29.4,278.5 C17.6,278.8 1.1,298.1 15.1,307.6 C20.1,309.8 26.2,309.5 31.8,310.5 L31.3,311.9 C31.6,313.2 33.7,313.1 34.7,313 C34.7,316 34.3,319.3 35.6,322 C35.7,323.5 36.3,324 36.6,323.9 C38.7,324 40.8,323.7 42.8,323.8 C45.9,328.9 50.6,332 55.4,329.5 C58.4,327.9 58.3,323.8 61.1,321.8 C68.4,317.2 76.7,318 84.4,318.1 C87.6,328.8 89,339.6 91.5,350.4 C88.2,354.6 84.5,358.7 80.1,363.1 L79.6,363 L79,363.2 C75.7,360.2 72.1,355.2 67.4,357.1 C28.5,321.9 -34.1,327.3 -82.2,327.6 C-103.9,327.9 -126.4,328.1 -148.5,329.1 C-154.8,329.3 -158.8,329.7 -159,334.5 C-163.2,334.6 -166.3,335.7 -170.2,336 C-172.6,336.1 -173.9,336.3 -174,337 C-173.5,343.7 -173.3,350.8 -170.9,357.1 C-168.4,363.4 -160.9,363.3 -155.2,361 C-153,360.1 -154.9,357.5 -154.9,355.8 C-156.3,350.5 -157.1,345 -157.3,339.4 C-154.6,339.6 -152.2,339.7 -149.1,339.8 L-149,341.2 C-143.5,341.4 -120.2,341.8 -114.5,341.1 C-116.8,343.9 -117.7,346.8 -115.5,350 C-109.5,356.6 -98.6,353.6 -90.8,354.5 L-90.7,357.1 C-213.4,379.9 -260.1,546.2 -171.1,631.8 C-84.1,726.3 82.3,670.1 99.1,544.3 C106.4,545.5 113.6,546.5 120.9,548 C116.6,551.9 110.5,553.9 106.3,557.6 C99,564.7 96.9,569.3 100.2,572.9 L100.3,572.9 C102.9,574.4 106.2,574.2 109.2,573.2 C111,573.5 113,573.8 114.9,573.8 C117.9,573.7 120.8,573 121.6,570.6 C121.7,569.6 119.9,568.1 119.1,567.3 C123.8,564 128.5,560.3 133.9,556.7 C135.2,556.1 135.8,555.4 136.3,554.3 C159.5,562.6 183.7,544.8 198.5,531.7 C198.5,531.8 198.4,531.9 198.4,531.9 C200.2,530.2 202.1,528.4 204.2,528.1 C204.7,527.5 205.4,527 206.2,526.5 L217.1,526.8 C220,526.9 223.9,527.6 226.6,526.6 C232.8,523.6 230.2,514.5 227,510.3 C232,510 237,510.1 241.9,509.4 C254.6,507.9 251,495.3 240.9,492.5 C238,488.8 225.6,485 225.2,480.5 C272.2,430.6 323,383 370.1,335.9 C371.7,341 372,346.4 372,351.5 C372,363.9 375.3,376.1 378.3,387.9 C269.5,456.5 283.9,636 403.6,684.8 C520.8,738.5 648.1,628.6 630,506.1 L630,506.1 Z" id="🎨-Background" fill="#FFFFFF"></path><path d="M478.3,358.8 C482.8,357.1 486.1,353.5 488.5,349.5 C489,348.7 488.3,347.8 487.4,347.7 C465.5,345.6 442.8,347.6 421.8,354.4 C416.1,355.9 410.5,359.4 404.4,358.9 C403.5,357.2 402.5,355.6 401.4,354 C423.2,334.1 447.7,311.8 452.9,281.7 C455.7,280.8 458.3,279.6 460.7,278 C463.3,277.9 463.8,275 464.5,273 C466.2,267.5 468,262 469.8,256.5 C478.4,230.7 487.6,205.1 496.8,179.5 C498.3,175.2 499.9,170.9 500.6,166.4 C504.3,163.2 495.9,161.2 493.8,160.1 C476.9,153.3 458.5,150.8 440.3,150.6 C406.6,150.2 372.4,150.4 339,156.4 C338.6,154.5 337.8,154.8 338.1,156.6 C338,156.7 338,157 338.1,157 C338.8,168.1 340.8,179 342.9,189.9 C328.8,179.8 315.2,168.2 298.6,162.4 C300.6,162 301.2,158.8 299.2,158.1 C299.9,144.4 284.7,143.2 275.9,149.9 C273.2,152.1 271.5,158.4 275.9,159.8 C273.2,160.3 270.8,161.2 268.4,162.4 C268.6,158.2 265.7,154.4 261.4,157.3 C197.9,127.2 224.7,102.4 219.9,48.1 C219.5,32.7 217.3,31.5 203,24.8 C195.5,20.2 187.3,16.9 179.4,12.9 C179.4,12.9 175,4 175,4 C176,7.6 175.4,11.8 177.9,14.9 C177.8,19.1 176.8,21.1 173.2,23.3 C161.2,32 132.8,26.2 134.3,8.7 C137.3,6.7 138.4,2.9 139.1,-0.4 C139.2,-0.7 138.7,-0.9 138.5,-0.6 C137,4.2 134.1,7.8 128.6,8.2 C85.8,2.2 67.8,24.3 66.7,61.2 C66.2,71.6 66.9,74.5 68.2,84.8 C65.3,96.1 62.6,107.4 59.9,118.7 C54.6,142.5 47.4,152.9 36.1,174.6 C29.5,188.2 22.8,201.8 19.5,216.6 C17.6,224.8 8.3,242.1 16.2,248.4 C15.1,258.6 19,268.9 25.9,276.5 C13,278.6 -0.7,298.9 13.4,307.6 C18.3,309.8 23.8,309.7 29.1,310.4 C28.6,312.1 30.9,313.3 32.4,313.2 C32.3,315.9 32.2,318.7 33.3,321.2 C33.5,322.6 34,324 35.6,324.1 C37.4,324.1 39.2,323.9 41.1,324 C44,328.6 49.4,332.5 55,329.5 C58.3,327.9 58.2,323.8 60.9,321.7 C67,317.7 75.4,318 82.4,318.2 C85.3,328.3 86.8,338.8 89.1,349 C85.8,353.1 82.3,356.9 78.7,360.6 C78.6,360.6 78.4,360.6 78.3,360.6 C75.2,357.7 71.5,353.2 66.7,354.5 C30.5,322.9 -21.1,324.4 -66.7,325 C-93.2,325.4 -119.7,325.5 -146.2,326.6 C-151.2,327.1 -160.2,325.7 -161.2,332.2 C-163.6,332.4 -166,332.7 -168.4,333.2 C-170.6,334 -176.2,332.9 -176.3,335.9 C-175.8,342.8 -175.6,350 -173.1,356.5 C-170,363.7 -162.3,363.6 -155.9,361.2 C-154.4,360.7 -153.7,359.3 -154,357.9 C-154.8,354.1 -155.8,350.3 -156.3,346.4 C-156.6,344.2 -156.8,341.9 -157,339.7 C-154.7,339.8 -152.4,339.9 -150.2,339.9 C-172.3,341.9 -121.2,341.8 -118.1,341.5 C-119.7,343.9 -119.2,347.3 -117.5,349.6 C-111.6,356.6 -100.2,353.8 -92,354.7 C-217.9,380.6 -262.1,543.1 -173,631.6 C-81.3,726.7 78.5,671.6 99.1,544.7 C105,545.7 111,546.5 116.8,547.6 C113,550.6 107.9,552.3 104.4,555.6 C100.4,559.3 93.3,566.7 97.8,572.1 C96.2,573.6 93.2,577.1 95.9,578.8 C96.1,578.8 96.2,578.7 96.3,578.6 C117.6,584.4 140.2,585.6 162.1,584 C182,584 195.3,571.4 197.9,552.3 C200,543.8 197.7,532.6 205.5,526.6 C209,526.8 212.5,526.9 216,527 C219.2,527.1 223,527.8 226.1,526.7 C232.3,524 231.2,515.1 228.2,510.4 C232.5,510.2 236.8,510.2 241.1,509.6 C255.2,507.6 251.8,494 240.6,490.3 C238.3,487.3 226.4,483 225.5,479.4 C225.5,478.8 226.4,478.2 226.8,477.7 L228.4,476.1 C274.7,429.5 321.5,383.3 368.4,337.2 C370.1,343.9 369.4,350.8 370,357.5 C371,367.2 373.4,376.8 375.8,386.2 C266.7,458.5 280.7,632.9 402,684.9 C542.9,745.3 675,595.6 618.4,462.3 C595.8,405.6 540.3,362.8 478.3,358.8 Z M608.6,590.6 C569.4,692 433.1,722.2 357.2,641.3 C289.5,574.2 299.5,451.1 378.7,396.8 C379.4,399.1 380.1,401.5 380.8,403.8 C287.3,470 302,623.8 408.7,668.9 C535.1,723.1 653.5,588.6 602.7,469 C573.5,392.6 478.3,352.1 403.5,390.1 C402.8,387.9 402.2,385.6 401.5,383.4 C534.4,321.2 662.6,463.4 608.6,590.6 M482.4,530.1 C484.5,531.9 486.7,533.7 488.9,535.5 C486.3,535.2 483.7,535 481.2,534.7 C481.8,533.3 482.2,531.7 482.4,530.1 Z M477.2,533 C477.3,532.8 477.4,532.7 477.5,532.5 C477.4,532.7 477.3,532.9 477.2,533.1 C477.2,533.1 477.2,533 477.2,533 M476.3,534.3 C476.5,534.1 476.7,533.8 476.9,533.5 C476.9,533.6 476.9,533.6 476.9,533.7 C476.8,533.9 476.6,534.1 476.4,534.3 C476.4,534.3 476.3,534.3 476.3,534.3 M468.5,531.1 C468.5,531.1 468.4,531 468.5,530.8 C468.5,530.8 468.5,530.8 468.5,530.8 C468.6,530.8 468.5,531.1 468.5,531.1 M468.6,526.3 C467.9,523.6 465,521.7 464.2,519.4 C464.2,519.3 464.3,519.1 464.4,519 C468.8,517.5 474.7,521 474.4,525.8 C471.6,524.7 470.4,527.9 468.6,529.3 C468.7,528.3 468.8,527.4 468.6,526.3 M462.5,534.2 C462.5,534.4 462.4,534.6 462.4,534.8 C461.5,535.1 460.3,535.4 459.9,536.2 C459.6,536.1 459.2,536 458.9,535.9 C460.2,535.6 461.5,535.1 462.5,534.2 M457.5,518.2 C457.5,517.2 459.2,517 460,516.6 C459.6,517.3 459.3,518.3 459.3,519.1 C458.6,518.9 458,518.7 457.4,518.5 C457.5,518.5 457.8,518.2 457.5,518.2 M453.9,526.1 C453.1,524.7 452.1,523.5 451.4,522 C451.5,521.9 451.6,521.9 451.7,521.8 C463.4,520.3 464.6,532 457.4,532.9 C457.3,531 457.1,531 457.3,532.9 C454.5,533 451.5,532 450.2,529.7 C450.3,529.6 450.2,529.4 450.1,529.5 C449.9,529.2 449.8,528.9 449.7,528.6 C451.5,531.1 455.5,528.8 453.9,526.1 M362.1,427.4 C368.3,420.6 375.2,414.3 382.5,408.9 C396,449.2 416,487.7 443.2,520.8 C442.1,520.3 441.2,519.8 440.2,519.2 C437.8,516.1 435.2,513.2 432.7,510.2 C409.2,482.6 386.1,454.6 362.1,427.4 M328.4,567 C324.3,551.6 322.7,535.1 323.7,519 C361.8,525.3 400.9,521.7 438.7,529.7 C401.9,542.1 364.9,553.8 328.4,567 M339.9,563.7 C370.4,554 400.7,543.9 431,533.9 C434.5,532.7 438.1,531.7 441.6,530.3 C442.7,530.5 443.8,530.7 444.9,530.9 C446,531 446.5,529.5 445.3,529.2 C405.6,519.3 364.1,523.9 323.7,518.8 C325.7,485.2 339.3,452.4 362,427.5 C386,457.6 411,487 435.5,516.7 C403.8,499.4 370.8,484.5 336.6,472.6 C373.3,487.1 411,504.8 446.1,524.4 C446.3,524.7 446.6,525 446.8,525.3 C446.3,527.2 446.5,529 447.3,530.7 C415.4,550.9 381.8,569.5 350.4,590.5 C350,591 350.4,591.6 351,591.5 C383.1,573 414.2,552.5 445.6,532.7 C440.6,538.9 435.9,545.3 431.5,551.8 C425.5,556.5 419.4,561.2 413.4,565.9 C393.6,581.4 373.8,597 354.1,612.7 C378.8,594.7 403.9,574.8 428.6,556 C410.4,583.2 394.9,612.2 382.6,642.6 C382.1,644 384.3,644.5 384.9,643.2 C398.3,611.5 414.7,581.1 433.6,552.3 C439.5,546.9 447.4,542.8 452.5,537 C452.4,536.5 451.8,536 451.3,536.4 C446.3,540 441.5,543.9 436.6,547.7 C440.3,542.3 444,536.8 447.7,531.4 C448.8,533.3 450.8,534.8 453.1,535.5 C452.4,538.2 455.2,539.9 457.6,540.7 C460.1,585 462.6,629.5 466.4,673.7 C466.6,674.8 468.1,674.5 468.2,673.5 C465.5,629.3 462.1,585 458.2,540.8 C464.7,542.3 472.6,542.9 478.2,538.8 C489.6,581.5 497.9,624.8 504.2,668.5 C504.3,669.2 505.5,669 505.4,668.3 C500.9,624.3 491.8,580.6 478.9,538.2 C479.7,537.4 480.3,536.5 480.8,535.5 C484.1,536 487.3,536.4 490.5,536.8 C519.8,560 549.8,582.6 581.2,602.9 C581.8,603.1 582.5,602.4 582,601.9 C552,580.4 521.5,559.4 492.2,537 C530.9,541.3 569.9,542.3 608.7,540.3 C593.4,703.4 373.8,726.3 328.4,567.2 C332.3,566.3 336.1,564.9 339.9,563.7 M481.7,512.7 C515.4,489.4 547.2,463.2 577.9,436.2 C587.2,448.1 594.6,461.6 599.9,476 C559.9,486.5 520.5,499.2 482,514.2 C481,514.7 481.7,516.2 482.7,515.9 C521.3,501.3 560.4,488 600,476.1 C607.3,495.9 610.3,517.5 608.8,538.7 C574,540.3 539.1,539.9 504.4,536.9 C499.7,536.5 495,536 490.3,535.6 C487.7,533.7 485,531.7 482.4,529.8 C482.8,524.5 480.5,519 476.2,515.7 C476.5,514.3 476.5,512.8 476.6,511.3 C477.5,509.6 478.3,507.8 479.1,506.2 C496.6,470.9 517.1,437.2 537.5,403.6 C514.2,434 494.8,469 477.2,503.5 C480.2,463.1 485.6,423 490.9,383 C525.2,389 556.5,408.5 577.7,435.9 C547.7,460.5 517.3,484.6 486,507.5 C485.2,508.2 478.2,512.7 481.7,512.7 M428,401.7 C426.1,397.1 424,392.6 421.8,388.1 C426.9,386.4 432.2,384.9 437.5,383.8 C442.2,422.9 448.6,461.8 456.7,500.4 C456.9,501 458,500.9 457.9,500.2 C450.6,461.5 444,422.6 438.2,383.7 C448.3,381.6 458.7,380.6 469.2,380.8 C464.8,423.3 462.6,466.2 463.3,508.9 C463.3,509.6 464.4,509.6 464.4,508.9 C464.9,466.2 466.4,423.5 469.5,380.8 C472.8,380.9 476,381.1 479.1,381.4 C478.2,383.9 475.7,390.7 480.5,390.4 C481,390.3 481.2,389.8 481.2,389.5 C481.4,386.9 482.1,384.2 482.7,381.8 C485.2,382 487.7,382.4 490.2,382.8 C482.4,422.1 478.4,462 475,501.8 C474.7,506.8 474.9,509.1 472.4,513.7 C469.1,512.5 465.4,512.4 462.2,513.6 C439.1,476.2 417.4,437.4 405,395 C409.8,392.7 414.8,390.6 419.8,388.8 C421,393.6 422.5,398.3 424.3,403 C425,404.9 425.8,406.9 427.3,408.4 C431.4,410.4 428.9,403.3 428,401.7 M375.6,363.2 C374.3,356.4 374.7,349.5 374,342.6 C377.6,342.2 381.3,341.4 385,341.4 C386.7,341.3 388.5,341.6 390.2,341.1 C394.4,344.1 395.8,349.1 398.2,353.4 C400.2,357 401.5,360.9 402.6,364.8 C403.1,366.6 404,368.9 406.4,368.2 C407.8,367.8 408.9,365.9 407.6,364.8 C406.6,364 406.4,362.5 405.7,361.5 C412.7,359.6 419.6,357.3 426.5,355 C445.5,349.9 465.5,348.1 485.1,349.9 C482.3,352.9 477.8,353.6 474.2,355.6 C473.4,355.9 472.7,356 471.8,356.4 C470.9,357.3 469.8,357.8 468.5,358.4 C444.3,358 420.5,363.1 398.6,373.3 C396.1,364 393.7,354.7 391.6,345.4 C391.6,345 391,345.1 391,345.4 C393.3,395.4 428,475.6 459.6,514.9 C458.7,515.6 455.9,517 456.8,518.4 C454.7,517.9 449.2,517.7 449.9,521 C449.9,521 449.9,521 449.9,521 C412.7,475.3 386.3,420.9 375.6,363.2 M372.4,334.4 C370.2,326.4 367.3,318.6 366,310.4 C363.7,297.5 359.9,284.9 356.1,272.4 C356.3,272.4 356.5,272.2 356.5,271.9 C356.9,270 358.5,269.1 360.4,268.7 C363.6,267.9 365.6,269 368.4,270.5 C368.4,270.6 368.4,270.8 368.4,270.9 C373.9,292.7 381.4,314.5 387.3,336.3 C382.5,336.7 377.7,337.9 373.7,340.6 C373.4,338.5 373,336.4 372.4,334.4 M311.5,389.3 C284.2,416.5 257.5,444.2 230,471.1 C228.1,473.5 223.5,476.3 223,479.3 C221.6,478.4 220.1,477.5 218.7,476.6 C219.6,476.1 219,475 218.1,474.8 C221.1,474.6 215.3,473.9 214.6,473.9 C214.7,473.8 214.8,473.7 214.9,473.6 C259,418.5 316,374.1 363.9,322.2 C365.1,326.1 366.4,330 367.6,334 C348.8,352.3 330.1,370.8 311.5,389.3 M238.6,491.6 C238.7,492.3 239.4,492.6 240,493 C237.7,493.9 235.2,493.9 232.8,493.8 C227.5,493.6 222.2,493.4 217,493.1 C188.7,491.9 160.6,489 132.4,487.2 C132.3,480.7 132.2,474 134.2,467.7 C134.3,467.7 134.4,467.8 134.6,467.8 C136.1,473.5 144.3,480 150.7,479.1 C158.2,477.6 162.5,470.5 168.8,466.7 C172,464.5 175.4,462.5 179.2,461.7 C180.2,462 181.3,462.1 182.2,461.5 C188.7,460.9 194.6,464.9 199.9,468.1 C196.7,468.9 190.4,470.1 188.9,473.3 C188.4,475.6 191,476 192.6,475.9 C193.6,475.9 193.9,474.4 192.8,474.1 C192.7,474.1 192.5,474 192.2,473.9 C192.3,473.8 192.4,473.7 192.4,473.6 C193.6,473.9 194.9,473 196,472.6 C198.4,471.7 201,470.9 203.5,470.3 C205.7,471.6 207.8,472.9 209.9,474.2 C207.2,474.8 202.1,476.5 202,479.8 C202.1,481.2 203.7,481.4 204.4,480.7 C204.8,480.5 204.9,480.1 204.8,479.8 C207,476.6 211.4,477.8 214.7,477.1 C222.7,481.9 230.6,486.8 238.6,491.6 M132.3,488.4 C132.3,488.3 132.3,488.1 132.4,487.9 C133,488.1 133.7,488.2 134.4,488.3 C133.7,488.3 133,488.3 132.3,488.4 M241.8,494.2 C249.8,499 249.1,506 239.2,506.4 C227.4,507.4 215.3,507.3 203.4,506.8 C180.4,505.9 157.5,502.5 135.2,497 C131.7,496.5 131,494 131,490.9 C131.9,489.6 134,489.8 135.7,489.8 C165.3,490.4 194.9,494.9 224.6,495.6 C227.1,495.4 236.7,497.1 237.4,495 C238.8,494.9 240.5,495 241.8,494.2 M222.2,517.7 C222.2,518.5 222.2,519.3 222.2,520.1 C218.7,520.2 215.2,520.3 211.7,520.2 C212,519.3 211.8,518.4 211.3,517.6 C211.5,516.7 211.1,515.7 210.4,515.1 C210.4,514.6 210.3,514.1 210.1,513.6 C214.2,513.9 218.3,514.3 222.4,514.8 C222.4,515.7 222.3,516.9 222.2,517.7 M197,529.1 C179.7,543.9 156.1,561 132.4,550.3 C128.5,548.5 124.7,546.6 120.6,545.6 C61.6,535.5 2.2,526.8 -57.5,521.5 C-53.9,518.2 -54.4,513.2 -53.7,508.8 C-53.7,508.8 -53.7,508.8 -53.7,508.8 C-53.9,510.4 -52.6,511.5 -51.1,511.7 C-8.4,516 34,523.3 76.4,529.6 C76.4,529.7 76.4,529.8 76.4,529.8 C86.7,530.9 96.8,533 107.1,534.6 C113.6,535.7 120.1,536.9 126.7,537.8 C127.2,537.9 127.5,537.7 127.8,537.4 C129,537.5 130.2,537.4 131.4,537.1 C135.4,550.8 152.5,553.8 150.5,536 C156,534.1 161.4,532 166.9,529.9 C168.9,528.9 175.4,527.9 172.4,524.7 C181.2,526.6 189.9,525.7 198.8,526.4 C198.1,527.2 197.5,528.1 197,529.1 M193.8,545.6 C192.2,562.9 185.2,578.4 165.4,579.4 C142.5,581.5 119.4,579.8 96.6,578.2 C96.6,578 96.6,577.8 96.4,578 C96.4,576 98,574.5 99.4,573.3 C102.2,574.6 105.4,574.3 108.2,573.4 C112.6,574 117.8,574.8 121.1,571.3 C122.7,569.6 121.5,567.7 120.1,566.3 C124.1,563.4 128.2,560.4 132.3,557.5 C133.5,556.6 135.2,556 135.9,554.7 C158,561.6 179.3,547.7 195.3,534.1 C194.5,537.9 194.2,542 193.8,545.6 M99,568.1 C100,563.3 103.5,559.3 106.9,556 C111.4,554.2 115.3,551.3 119.3,548.9 C122.2,547.9 129.3,552.4 132.5,553.4 C125,559.7 116.7,564.8 108,569.1 C106.9,569.6 105.8,570.2 104.6,570.5 C104,570.2 103.1,570.4 102.8,570.9 C100.9,571 98.8,570.4 99,568.1 M79.1,575.4 C40.7,673.4 -91.6,702 -165.3,624.3 C-247.3,542.7 -208.8,392.7 -93.4,365.9 C-93.1,367.4 -92.7,369 -92.2,370.4 C-201.2,396.9 -235.9,541.6 -159.4,618.8 C-77.6,704.7 61,654.3 79.9,541.7 C82.8,542.1 85.6,542.6 88.5,543 C86.6,554.1 83.4,565 79.1,575.4 M-59.2,361.9 C-22.9,361.8 12.5,375.6 39.3,399.6 C39,400.1 38.4,400.6 38.3,401.2 C37.3,402.2 36.3,403.2 35.3,404.2 C2.4,372.8 -46.3,359.2 -90.8,370.1 C-91.4,368.7 -92,367.2 -92.4,365.6 C-81.6,363.2 -70.5,361.9 -59.2,361.9 M-93.6,351.5 C-100.4,350.8 -112.8,353.5 -116.9,347 C-118,345.3 -118.3,343.2 -117.4,341.5 C-75.7,341.3 -33.8,338.8 7.9,340.5 C20.7,341.2 32.3,347.2 43.1,353.5 C42.9,353.6 42.8,353.7 42.7,353.9 C8.7,353.2 -25.3,353.2 -59.2,351.3 C-70.7,351.7 -82.1,352 -93.6,351.5 M-135.6,336.6 C-142.8,336.8 -150,337.2 -157.1,337.9 C-157.1,335.6 -156.8,332 -160.1,332 C-158.8,327.7 -145.7,329.8 -141.6,329.1 C-117.3,328.7 -93,328.3 -68.7,328.2 C-22.4,326.8 28.5,327 65.8,357 C65.9,357 66.1,357 66.2,356.9 C69.5,355 73.5,360.8 75.7,362.6 C74,364.2 72.1,365.5 70.3,367 C69.5,366.1 68.6,365.2 68,364.1 C68.8,363.4 69,362 67.7,361.3 C60.8,357.6 53.7,354.2 46.7,350.7 C41.6,348.5 37.3,345 32.1,342.9 C29.1,341.5 26,340.4 22.7,339.6 C17.3,337.6 11.7,336.4 5.9,335.9 C-41.2,334.4 -88.5,335.5 -135.6,336.6 M-162,357.4 C-161.3,357.1 -160.6,356.4 -160.3,355.5 C-160.2,356 -160.1,356.5 -159.9,356.9 C-160.6,357.2 -161.3,357.3 -162,357.4 M65.5,365.2 C66,367.2 67.8,368.6 68.8,370.3 C61.2,377.4 53.6,384.2 46.5,391.7 C27.4,374.6 4.2,362.3 -20.7,356 C0.4,356.5 21.5,356.9 42.7,357.3 C43.4,357.3 43.8,356.9 44.1,356.5 C45.2,356.2 46.6,355.9 47.4,355.4 C53.4,358.4 59.4,361.5 65.5,364.3 C65.5,364.7 65.5,365 65.5,365.2 M-65.9,425.8 C-60.2,446.3 -57.2,467.7 -49.6,487.6 C-49.6,487.7 -49.4,487.7 -49.4,487.6 C-49.5,486.5 -49.4,485.4 -49.5,484.4 C-52.5,467.1 -57.2,450.1 -61.1,433 C-56.1,440.9 -43.1,473.4 -35.2,474.2 C-40.7,479.6 -46.2,485 -51.7,490.4 C-56.9,495.5 -62,502.1 -69.6,503.5 C-72.2,503.9 -75,504.5 -76.7,506.8 C-78,505 -77.6,502.5 -76.4,500.6 C-70.9,492.5 -59.1,496 -52.1,490 C-50.8,488.8 -52.9,486.8 -54.4,488 C-57.1,490.2 -60.7,490.8 -64.1,491.3 C-75.3,453.3 -86.3,415.2 -98.4,377.4 C-95.7,376.6 -93,375.8 -90.2,375.2 C-84.5,385.6 -79.5,396.3 -74.2,407 C-71.6,413.3 -66.9,419.1 -65.9,425.8 M-11.3,556.8 C-13,555 -18.7,557.8 -15.6,559.6 C-12.9,560 -10.1,560 -7.4,560.1 C17.8,560.9 43,563.4 68.1,565.7 C35.4,659.1 -86.3,689.6 -155.7,615.4 C-227.2,543.1 -198.6,408.4 -98.9,377.6 C-88.4,415.8 -76.7,453.6 -65.5,491.6 C-68.4,492.2 -71.3,492.9 -73.9,494.4 C-79.3,497 -83.4,504.8 -78.3,509.6 C-82.4,521.5 -66.9,531.3 -57.9,521.9 C-13.7,528.7 30.7,534 74.8,540.9 C73.5,548.4 71.5,555.8 69,563 C66.7,561.7 63.7,562 61.1,561.5 C58.3,561.1 55.5,560.8 52.8,560.5 C31.5,558.4 10.2,557 -11.2,557 C-11.2,556.9 -11.2,556.8 -11.3,556.8 M84.8,358 C86.5,356.4 88.4,354.8 89.9,353.1 C91.1,358.6 92.3,364.1 93.4,369.6 C44.8,414.5 -5,458.1 -53.3,503.3 C-53.6,502.7 -54.5,502.5 -55.1,502.4 C-55,502.4 -55.7,502.5 -55.8,502.6 C-55.8,502.5 -55.7,502.5 -55.6,502.5 C-56.9,502.5 -58.1,503.5 -58.4,504.7 C-59,506.4 -58,508.6 -56.2,509.1 C-56.3,509.7 -56.3,510.4 -56.4,511 C-57.2,510.1 -58.6,509.9 -59.6,509.2 C-61.2,508 -63.3,506.6 -65.3,506.8 C-69.4,505.6 -72.6,509.4 -68.3,509.5 C-67.2,509.3 -66.1,509 -65,509.1 C-63,511.7 -60.9,517.4 -56.8,515.2 C-57.2,517.5 -58.7,520.6 -61.1,521.3 C-61.3,521.4 -61,521.5 -60.9,521.4 C-69.6,527.7 -80.6,517.5 -75.3,508.6 C-73.7,506 -70.4,505.9 -67.7,505.4 C-66.2,505 -64.7,504.3 -63.3,503.5 C-47.8,491.8 -35.3,476.4 -21.1,463.1 C14.3,428.2 49.1,392.6 84.8,358 M-42.8,496.5 C-37.1,491.3 -31.4,486.1 -25.6,480.9 C-16.4,484.8 -7,488.2 2.3,491.8 C-12.8,492.5 -28,493.3 -42.8,496.5 M-35.4,501.9 C-39.8,499.3 -45.2,500.4 -49.5,502.5 C-47.7,500.7 -45.7,499.1 -43.8,497.4 C-28.8,496.5 -13.8,494.6 1.3,494.3 C3.6,494.2 5.9,494.1 8.3,494.1 C12.2,495.5 16.1,497 20,498.4 C38.9,505.2 57.9,511.7 77.1,517.7 C77.1,521 76.9,524.3 76.6,527.5 C40.6,521.9 4.7,516.5 -31.5,512.1 C-28.6,509 -32.4,503.5 -35.4,501.9 M90.8,521.8 C90.7,524.4 90.5,527.1 90.3,529.7 C87.4,529.2 84.5,528.7 81.7,528.3 C81.9,525.3 82.1,522.3 82.2,519.3 C85.1,520.2 87.9,521 90.8,521.8 M82.3,516.2 C82.9,479.7 70.1,443.3 46.2,415.6 C47.8,414.2 49.4,412.7 51,411.2 C77.5,440.4 91.8,479.4 90.9,518.7 C88,517.9 85.1,517.1 82.3,516.2 M89,451.7 C81.8,434.1 71.6,418.1 58.9,404 C70.6,393.4 82.3,382.9 94,372.4 C105.3,426.8 117.9,481 131,534.9 C129.3,535.5 127.5,535.7 125.7,535.5 C117.5,533.9 109.2,532.6 100.9,531.3 C103.5,504.3 99.4,476.6 89,451.7 M134.3,537.2 C134.2,536.8 134.1,536.4 134,536 C134.1,536.4 134.2,536.8 134.3,537.2 M171.2,515.7 C173.2,510.4 179,508.2 182.5,513.5 C187.2,523.4 169,525 171.2,515.7 M167.7,509.3 C166.5,512.3 166.4,515.6 166.4,518.8 C166.4,519.6 166.8,520.1 167.3,520.4 C168.2,522.5 169.8,523.8 171.8,524.5 C169.5,524.2 167.7,526.3 165.7,527.1 C160.5,529.7 155.5,532.5 150.4,535.3 C148.4,524.8 143.9,514.8 143.8,504 C143.5,501.1 148.7,503.7 150.3,503.7 C155.5,504.8 160.8,505.7 166.1,506.5 C165.4,507.7 166.3,509.3 167.7,509.3 M142.1,501.9 C142.2,502 142.4,502 142.5,502 C142.4,502.1 142.4,502.2 142.3,502.3 C142.3,502.2 142.2,502 142.1,501.9 M86.7,317 C91.1,317.6 95.5,318.1 99.9,318.5 C104.3,361.5 113.5,404 125.8,445.5 C126.6,448 127.3,450.5 128.1,453 C129.1,455.4 129,460.5 132.5,460.4 C132.3,462 132.2,463.5 132.2,465.1 C130.9,467.6 130,470.2 129.4,472.8 C128.5,477.3 128.3,481.9 128,486.4 C127.3,497.7 129.2,499.4 140.3,501.5 C143.2,513.1 144.6,525.3 147,537.1 C147.4,539.3 148,541.4 147.4,543.6 C145.9,546.7 142.6,546.4 140,544.4 C137.5,541.9 136.8,538.5 135.8,535.3 C125.5,501.3 118.6,466.5 111.6,431.8 C104.4,393.3 94.1,355.5 86.7,317 M119.4,399.4 C119.4,399.4 119.4,399.4 119.3,399.4 C134.6,392.8 149.9,385.4 165.1,378.4 C155.4,404.5 137.5,427.8 133.1,455.8 C127.5,437.1 123,418.2 118.6,399.2 C118.7,399.6 119.2,399.8 119.4,399.4 M116.8,389.4 C134.8,379.8 153,370.6 170.5,360.1 C169.3,364.9 168.1,369.7 166.5,374.4 C157.1,378.9 147.7,383.6 138.3,388.2 C132.3,391.2 126.3,394.1 120.4,397.4 C119.9,397.7 118.5,398.2 118.5,399 C117.8,395.8 117,392.6 116.3,389.4 C116.5,389.4 116.7,389.4 116.8,389.4 M105.2,327.4 C104.5,325.1 104.5,322.8 104,320.4 C106.3,320.3 108.7,320 111,319.5 C113.4,319.6 116,319.4 118.3,318.7 C134,330.2 150.3,340.7 167.3,350.2 C168.9,351.2 170.5,351.9 172.4,352.1 C171.9,354.1 171.5,356 171,358 C153,367.3 134.4,375.8 116.8,385.7 C123.1,382.8 129.2,379.8 135.4,376.8 C129,380.5 122,382.9 115.7,386.6 C111.7,367 106.6,347.4 105.2,327.4 M177.7,459.7 C169.6,462.2 162.6,467.4 156.1,472.7 C150.1,478.3 141.7,474.4 137.3,468.8 C137.7,468.2 136.4,468.2 136.2,467.5 C147.9,452.1 159.9,450.4 178.5,450.5 C177.3,453.3 177.1,456.6 177.7,459.7 M60.6,316.2 C57.1,317.6 55,320.6 53.8,324 C52.2,327.2 48.3,325.5 46.5,323.5 C44.2,320 41.3,317.8 36.9,319.2 C35.6,316.9 35.4,314.3 34.8,311.8 C43.6,313.9 52.5,315.2 61.6,315.8 C61.2,315.9 60.9,316 60.6,316.2 M20.2,229.7 C20.9,227.6 21.8,225.5 23,223.5 C23.2,223.2 22.8,222.8 22.5,222.9 C28.5,195.6 44,174.6 53.2,148.5 C60.5,125.7 65.9,112.2 68.8,88.5 C74.5,117 77.2,138.8 104.1,156.4 C121.8,167.9 142.6,174.6 163.5,178.3 C159.4,182.8 158.8,189 158.4,194.8 C157.6,205 156.2,215.5 158,225.6 C148.5,226.9 138.9,226.2 129.5,224.9 C91.9,217.8 51.6,222.9 19,243.3 C18.4,238.7 18.8,234.1 20.2,229.7 M75.1,37.8 C81.5,12.9 98.9,9.4 125.9,11.3 C128.5,11.1 131,10.6 133.2,9.4 C126.3,66.3 161,86.5 169.9,141.2 C135.6,126.5 113.5,109.2 111.8,72.8 C111.4,67 111.7,61.3 111.7,55.6 C111.7,55.3 111.4,55.3 111.3,55.5 C97.4,105.8 136.7,141.6 186.9,152.4 C184.4,158.3 182.5,161.6 180,167.4 C180,167.4 180,167.4 180,167.4 C180,167.4 180,167.5 180,167.5 C178.9,170 177.7,172.6 176.2,174.9 C176,175.2 175.3,175.7 176,175.2 C175.8,175.3 175.6,175.5 175.5,175.7 C172.8,175.9 165.6,171.7 163.6,173.3 C137.6,168 107.5,162.6 91.6,140.1 C74.8,107.3 66.3,73.7 75.1,37.8 M137.5,22.6 C148.5,33.6 172.5,34.8 181.1,20.4 C180.5,69.7 178.1,88.6 173.8,137.7 C163.8,87.4 136.7,71.3 134.9,19.3 C135.7,20.5 136.5,21.6 137.5,22.6 M184.7,17.1 C190.2,19.5 195.4,22.6 200.1,26.2 C205.3,30 212.7,30 214.1,36.9 C215.6,52.5 215,58.2 214.7,73.8 C210.7,122.4 209.8,137.7 259.6,162.7 C259.8,163.3 260,163.9 260.2,164.5 C253.7,166.8 246,165.9 240,169.4 C237.3,165.9 234.1,162.1 229.6,161 C227.7,160.5 225.8,160.7 223.9,161 C222.9,161.1 221.7,161.7 220.8,161 C214,157.1 207.1,155.7 201.9,150 C197.9,146.4 200,138.3 199.2,133.3 C197.4,100.5 199.8,85.3 201.9,52.5 C202,50 202.2,47.6 201.9,45.1 C201.8,45 201.6,44.9 201.6,45.1 C193.6,78.4 194.5,95.8 194.4,129.8 C194.3,139.6 195.7,146.5 197.2,156.1 C197.3,157.3 199.3,157.4 199.3,156.1 C199.2,153.5 199.3,153.7 199.4,151.1 C201.4,152.5 202.5,151.8 203.9,153.7 C206.1,156.5 208.9,158.8 211.7,161 C204.5,159.8 197.7,156.5 190.5,154.9 C190.9,153.9 191.4,152.8 191.8,151.7 C191.8,151.8 191.8,151.8 191.8,151.8 C192,151.3 192.3,153.4 192.6,152.9 C194.2,151.8 194.2,148.6 191.8,148.1 C187.6,147.3 183.4,146.2 179.3,144.9 C182.6,91.9 188.2,68.9 182.3,15.9 C183.1,16.3 183.9,16.7 184.7,17.1 M263.1,167.2 C265.2,166.4 264.2,164.5 263.5,163 C264,162.7 264.4,162.1 264.6,161.6 C264.7,166.4 266.2,171.1 269,175.1 C260.7,176 252.2,176.7 243.9,177.8 C243.8,177.5 243.7,177.3 243.6,177 C246.7,175.5 242.3,172.5 241.2,170.9 C248.4,169.3 256.1,169.8 263.1,167.2 M275.9,163.2 C298.9,162.3 317.7,176.9 335,189.8 C337.8,191.5 340.2,194.8 343.8,194.6 C344.1,196.2 344.4,197.8 344.7,199.4 C337.1,199.2 328.9,198.6 322.6,193.9 C309.3,180.3 291.6,168.9 271.5,172.2 C269.9,169.5 268.8,166.5 268.5,163.5 C270.9,163.2 273.5,163.2 275.9,163.2 M280.6,153.3 C284,151.8 290.8,149.8 292.8,154 C292.8,154 293,154.6 293,154.6 C293.3,155.6 293.4,156.7 293.2,158 C289,158.1 284.7,157.7 280.5,157.1 C280.5,156.1 279.9,155.1 278.9,154.8 C279.3,154.2 279.9,153.7 280.6,153.3 M320.6,197.7 C320.7,197.7 320.7,197.7 320.7,197.6 C322.6,198.9 324.5,199.9 326.6,200.8 C323.5,201.1 320.4,201.5 317.3,200.8 C318.4,199.8 319.5,198.7 320.6,197.7 M203.3,191.3 C202.8,191.6 202.3,191.8 201.9,192 C201.8,191.9 201.7,191.9 201.6,191.8 C200.1,190.7 198.1,189.2 198.2,187.1 C199.9,188.5 201.6,189.9 203.3,191.3 M226.6,164 C233.6,164.1 236.4,171.6 240.7,175.9 C238.5,177.8 243.2,181.3 240.4,183.6 C233.2,186.8 225.4,188.9 218,191.8 C216.1,192.5 214.2,193.2 212.2,192.6 C212.3,192.6 212.3,192.5 212.3,192.4 C211.8,192.1 210.6,192 210.6,191.2 C209.5,190.7 208.3,190.1 207.4,189.2 C207.3,189.2 207.2,189.2 207.1,189.3 C200,183.4 191.3,175.8 181.2,177.4 C184.9,171.1 187.1,164.1 189.6,157.3 C198.1,158.7 205.4,163.7 214.2,164.4 C218.4,164.6 222.8,162.8 227.1,164.2 C226.9,164.1 226.8,164.1 226.6,164 M175.5,181.4 C177.8,181.3 179.3,180.1 180.5,178.5 C186,180 191.3,182.1 195.9,185.4 C192,187.4 193.6,191.7 195.8,194.3 C196.4,203.2 196.8,212.1 196.5,221 C189,220.5 181.5,219.3 174.1,217.7 C171.8,205.7 173.3,193.4 173.9,181.3 C174.4,181.4 175,181.4 175.5,181.4 M163.5,218 C163.2,210.9 163.7,203.8 164,196.7 C164.3,190.9 164.1,184.8 166.6,179.4 C168.6,179.9 170.5,180.4 172.5,181 C168.3,191 167.8,202.3 168.4,212.9 C168.4,221.6 170.4,222.5 178.7,223.6 C177.8,229.3 181.5,234.3 185.5,238.1 C174.2,235.4 163.3,231.3 151.7,230.3 C153.8,229.9 161.9,229.8 162.3,227.5 C165.4,225.8 163.3,220.8 163.5,218 M348,216.1 C335.9,233.3 333.8,243.6 337.4,264.2 C337.8,267.1 339.4,270.5 342.7,271.1 C312.2,287.8 281.4,303.9 251.5,321.5 C255.5,311.9 259.5,302.2 263.3,292.5 C267.1,284.3 270.4,273.9 261.3,267.8 C241.4,254.5 218.2,246.3 195,240.4 C194.1,238.1 191.7,236.7 190,235 C186.4,231.6 182.1,228.4 179.9,223.8 C186,224.8 192.3,225.2 198.5,225.3 C199.7,225.4 200.7,224.4 200.7,223.2 C200.8,214.7 200.8,206.2 200.2,197.7 C203.2,198.7 206,196.7 208.6,195.4 C212.3,197.9 216.8,196.8 220.5,195.1 C226.2,193 231.9,190.9 237.6,188.8 C241.1,187.7 245.2,185.8 244.9,181.6 C251.9,180.9 258.9,179.9 266,179.1 C269.6,179.1 275.1,178.1 272.3,173.5 C290.5,174.6 306.5,182.9 318.7,196 C316.9,197.6 315.2,199.2 313.3,200.8 C311.3,202.5 308.5,200.7 306.2,200.5 C289.4,196.9 272.3,194 256.2,188 C252.8,186.5 249.6,184.8 246.5,182.8 C245.2,181.9 243.9,184.1 245.3,185 C253.9,190.9 264.1,193.3 273.9,196.6 C281.1,198.9 310,207.6 315,202.8 C320.7,204.8 326.9,203 332.7,202.6 C336.9,202.9 341.4,203.9 345.5,203.5 C346.3,207.7 347.1,211.9 348,216.1 M242.7,343 C242.5,343.1 242.3,343.2 242.1,343.3 C242.1,343.3 242.1,343.2 242.2,343.1 C242.3,343.1 242.5,343.1 242.7,343 M351.5,278 C352,280.8 352.4,283.5 353.1,286.3 C350.5,285.5 343.4,291.1 340.6,292.3 C336.9,294.4 333.3,296.4 329.7,298.4 C312.2,308 294.6,317.3 276.7,326.1 C276.3,324.6 267.1,331.4 265.2,331.8 C258.1,336.1 250.3,339.2 242.6,342.2 C245.4,336.9 246.8,330.2 250.4,325.5 C262,318.5 273.9,312 285.7,305.4 C305.5,294.3 326,284.2 344.7,271.2 C346.9,270.7 349.1,271 351.3,271.5 C350.6,273.6 351,275.9 351.5,278 M212.3,475.6 C212,475.7 211.7,475.7 211.4,475.7 C211.6,475.7 211.9,475.6 212.1,475.5 C212.2,475.6 212.2,475.6 212.3,475.6 M211.3,471.5 C211.2,471.7 211.1,471.8 211.1,472 C209.8,471.3 208.5,470.5 207.2,469.7 C207.8,469.6 208.3,469.5 208.8,469.4 C209.9,469.2 209.7,467.4 208.6,467.5 C205.8,468.1 203.3,467.8 201.1,466 C204.5,466.2 206.1,462.1 207.6,459.7 C216.2,443.8 224.1,427.6 233.5,412.1 C241.5,397.8 249.6,383.6 257.6,369.4 C263.4,360.1 267.8,346.7 258.4,338.2 C290.9,323.3 323.4,307.6 353.7,288.8 C356.3,299.9 360.1,310.6 363.7,321.4 C311.6,370 256.6,416.5 211.3,471.5 M353.4,244.1 C354.4,249.1 355.3,254.1 356.3,259.1 C355.1,261.8 354.9,265.3 352.4,267.2 C351.5,267.7 350.2,267 349.3,266.8 C347.1,266.1 344.6,267.9 342.7,266.6 C341.4,265.3 341.3,262.6 341.1,260.9 C340.3,255.4 339.6,249.8 339.8,244.3 C339.7,234.9 344.5,226.9 348.5,218.8 C350.1,227.2 351.8,235.6 353.4,244.1 M358.1,266.7 C358.1,266.9 358.2,267 358.3,267.1 C358.1,267.2 357.9,267.3 357.7,267.4 C357.8,267.2 358,266.9 358.1,266.7 M369.4,272.4 C369.4,272.6 369.5,272.9 369.5,273.2 C369.4,272.8 369.3,272.5 369.2,272.2 C369.2,272.3 369.3,272.3 369.4,272.4 M379.5,274.8 C402.3,281.7 427.4,286.6 451.1,282.2 C441.4,309.6 420.8,331 399.4,350.2 C397.1,346.8 395.3,341.7 391,340.6 C392.1,339.5 391.8,337.3 390.3,336.6 C384.3,314.9 376.8,293.5 371.1,271.7 C373.9,272.8 376.7,273.9 379.5,274.8 M456.3,168.1 C456.6,167.2 458.1,167.6 457.7,168.5 C451.1,191.3 444.7,214.4 440,237.6 C440.2,239.2 437.7,239.4 438.6,236.3 C443.6,213.4 449.4,190.6 456.3,168.1 Z M-165.1,357.3 C-166,357.1 -166.7,356.7 -167.2,356.1 C-166.8,356.1 -166.5,356.1 -166.1,356 C-165.6,356.7 -164.9,357.3 -164.2,357.5 C-164.5,357.5 -164.8,357.4 -165.1,357.3 M-170.2,336.3 C-170.8,337.4 -170.8,339 -170.9,340.2 C-171,340.7 -171,341.2 -171.1,341.7 C-171.3,340.1 -171.6,338.6 -172,337 C-171.4,336.8 -170.8,336.5 -170.2,336.3 Z M42.7,278.1 C75,282.9 88.5,283.6 98.1,284.4 C78.3,285.9 33.1,280.5 33.4,277.8 C33.4,276.9 41.4,277.9 42.7,278.1 Z" id="🖍-Ink" fill="currentColor"></path></g><g id="Head" stroke-width="1" transform="translate(86.5, 45.1)"><g id="head/Short-2"><path d="M101.6,56.4 C104.5,54.4 100.2,47.6 98.8,45.6 C97.5,43 96.3,40.4 95,37.8 C95.2,35.7 93.1,33.7 91,34.4 C89.2,33.1 86.2,33.7 85.3,35.7 C65.3,27.1 30.9,30.7 29.1,57.4 C25.2,65 21.4,72.7 18,80.5 C13.2,80.8 10.9,86.5 13.8,90.3 C14.1,96.3 18,96.8 23.1,96.5 C25.2,97 27.3,97.3 28.8,98.9 C30,100.1 30.8,101.6 31.6,103.1 C35.1,109.9 39.6,115.8 45.7,120.5 C55.2,127.6 68.1,132.7 79.9,129.2 C105.4,119.2 110.4,79.3 101.6,56.4 L101.6,56.4 Z" id="🎨-Background" fill="#FFFFFF"></path><path d="M48.5,17.5 C65.1,13.7 83.8,18.8 95.4,31.6 C96.2,32.5 96.1,33.7 95.4,34.4 C95.7,34.7 96,35 96.4,35.2 C96.7,35.5 96.6,36.1 96.4,36.4 C96.1,36.7 95.5,36.8 95.2,36.4 L94.8,35.9 C94.6,35.7 94.4,35.4 94.2,35.1 C93.9,35.2 93.7,35.3 93.5,35.4 C97,37.7 99.9,40.8 101.9,44.6 C104.1,48.6 105.5,53 106.4,57.5 C108,65.5 108.3,73.7 108,81.9 L108,82.3 C107.8,92.1 106.8,102.1 102.6,111.2 C99.3,118.4 93.4,125.1 86,128.3 C81.7,130.1 77.1,130.9 72.5,130.5 C70,130.4 67.6,130 65.2,129.4 L64.6,129.3 C62.5,128.7 60.2,128.1 58.4,126.8 C56.5,125.6 57.7,123 59.8,123.3 C62.4,123.7 64.8,124.8 67.3,125.3 C69.7,125.8 72.2,126.1 74.7,126.1 C79.1,125.9 83.2,124.6 86.9,122.1 C100.9,112.6 102.6,93.6 103,78.2 C103.1,70.7 102.9,63.1 101.1,55.8 C99.5,48.7 96.6,41.8 92.6,35.7 C91.7,36.1 90.8,36.3 89.8,36.4 C88.1,37.5 86.1,37.5 84.2,37.5 L83.9,37.5 C81.9,37.5 79.8,37.4 77.8,37.2 C70.6,36.5 63.2,34.9 56,36 L55.7,36 C52.7,36.4 49.1,37.4 46.9,39.5 C44.5,41.8 46.1,46.2 48,47.6 C49.2,48.5 49.5,50.5 48,51.3 C44.8,52.9 37.3,52 36.4,52.9 C35.4,54 35.5,55.6 35.4,57 L35.4,57.1 C35.3,61 35.4,64.9 35.8,68.8 C36.1,72.6 36.8,76.4 37,80.3 C37,81.5 35.5,81.9 34.7,81.2 C34.5,81.1 34.4,80.9 34.2,80.8 C32.7,79.8 31,79.3 29.1,79 C29,79 29,79 28.9,78.9 L28.9,78.9 L28.7,79 C29.1,79.5 29.4,80 29.7,80.6 C29.7,80.8 29.6,80.9 29.5,80.8 C26.9,79.3 24.2,78.7 21.2,79.3 C18.6,79.8 16.2,81.5 15.4,84.2 C14.7,86.6 15.2,89.5 16.8,91.5 C19.2,94.5 23,94.2 26.4,94.3 C27.1,94.4 27.9,94.7 28.2,95.3 C28.6,96.1 28.5,96.6 28.2,97.4 C28.1,97.5 28.1,97.6 28,97.7 C28.3,97.9 28.6,98.2 28.8,98.4 L29.7,99.3 C30.3,99.9 31,100.6 31.5,101.2 C33.3,103.1 34.9,105.1 36.4,107.1 L36.6,107.3 C38.3,109.8 40.2,113.3 43.3,114.1 C44.4,114.3 45.4,114.8 45.7,116 C46,117.1 45.2,118.3 44.2,118.7 C42.5,119.6 40.3,118.6 38.9,117.5 C35.8,115.3 33.8,111.6 31.9,108.3 L31.3,107.4 C30.4,105.7 29.4,104 28.6,102.2 C28.1,101.2 27.6,100.2 27.2,99.2 C27.1,98.9 27,98.6 26.9,98.3 C26.7,98.3 26.6,98.4 26.4,98.4 C22.3,98.6 17.5,98 14.6,94.8 C10.4,90.5 9.9,82.8 14.6,78.7 C15.1,78.2 15.7,77.8 16.3,77.5 C15.4,76.1 14.9,74.4 14.5,72.9 C13.9,70.7 13.6,68.4 13.4,66.1 C13.1,61.3 13.6,56.5 14.7,51.9 C18.9,35.3 31.5,21.5 48.5,17.5 Z M18.5,86.6 C17.7,81.9 27.2,85.4 29.3,85.7 L29.3,85.7 C31.7,86.1 30.4,90.2 28,89 L28,89 C26.7,88.2 25.3,87.7 24,87.1 L23.7,87 C22.6,86.5 19.1,84.2 18.8,86.6 C18.7,86.8 18.5,86.8 18.5,86.6 Z" id="🖍-Ink" fill="currentColor"></path></g><g id="face/Eating-Happy" transform="translate(39.9, 46.6)" fill="currentColor"><path d="M31.6,49.2 C33,46.8 36,52.5 36.3,53.5 C36.6,54.3 36.8,55.2 36.9,56.1 C38,56.3 39.1,56.3 40.2,56.1 C41.9,55.8 42.9,54.9 44.3,54.2 C45.3,53.6 46.6,54.2 47.1,55.1 C47.7,56.2 47.3,57.2 46.5,58 C45,59.4 42,59.8 40,59.4 C38.9,59.2 37.9,58.7 37,58.1 C36.9,58.2 36.9,58.4 36.9,58.5 L36.9,58.7 C36.8,60.3 36.3,62.3 35.1,63.4 C33,65.1 30.5,61.8 32.5,60.1 L32.5,60 C33.8,59 34,56.3 34,54.8 C33.9,53.9 33.8,52.9 33.5,52 L33.4,51.8 C33.3,51.5 32.3,49 31.9,49.4 L31.9,49.4 C31.8,49.5 31.5,49.3 31.6,49.2 Z M42.8,36.1 C44.7,37.3 47.6,40 45.6,42.8 C43.2,45.3 39.7,42.5 38,41.2 C36.4,40.1 34.7,42.7 36.1,43.9 C48.4,53 53.4,36.5 43.8,34.8 C42.7,34.6 42.3,35.8 42.8,36.1 Z M22.6,25.5 C24.5,25.2 26.4,25.7 27.9,26.7 L28,26.8 C29.5,27.9 31.1,29.8 30.3,31.6 C29.9,32.4 28.9,32.5 28.3,32.2 C27.2,31.6 27,30.2 26.1,29.5 C25.3,28.8 24.2,28.4 23.2,28.5 C20.8,28.8 19.4,31.1 18.6,33.1 C18.5,33.4 18.1,33.5 18,33.2 C16.2,29.9 19.3,26.1 22.6,25.5 Z M52.3,24.3 C55.8,24 59.9,27.7 59,31.4 C58.6,33.2 55.9,33.2 55.4,31.4 C55.2,30.5 55.2,29.6 54.5,28.8 C53.9,28.2 53.1,27.8 52.3,27.8 C51.3,27.9 50.4,28.4 49.7,29 C49.1,29.7 48.8,30.5 48.1,31.1 C48,31.2 47.8,31.2 47.6,31.1 C46.5,30.1 47.2,28 47.9,27 C48.9,25.5 50.5,24.4 52.3,24.3 Z M15.9,18.9 C18.1,16.9 22.3,14.9 25.3,15.9 C27.1,16.5 27.9,19.3 25.9,20.2 C23.6,21.3 21,20.9 18.7,21.9 C17.7,22.4 16.8,23 16.1,23.8 C15.6,24.4 15,25.3 14.3,25.7 C14,25.8 13.8,25.8 13.6,25.6 C11.9,23.7 14.4,20.2 15.9,18.9 Z M48.3,15.8 C49.8,15.4 51.3,15.5 52.7,15.7 C54.2,15.9 55.6,16.5 56.8,17.4 L56.9,17.5 C58.2,18.5 59.7,19.8 59.6,21.5 C59.6,23 58.1,23.9 56.8,23.2 C55.7,22.6 55.2,21.4 54.3,20.6 C53.6,19.9 52.7,19.4 51.8,19 C50.8,18.6 49.8,18.4 48.7,18.4 C47.8,18.4 47,18.6 46.2,18.7 C46.2,18.9 45.6,18.8 45.2,18.7 C44.9,18.6 44.9,18.2 45,18 C45.5,16.9 47.2,16.1 48.3,15.8 Z" id="🖍-Ink"></path></g><g id="facial-hair/*-None" transform="translate(30.8, 84.6)"></g><g id="accessories/*-None" transform="translate(11.8, 60.3)"></g></g></g></g></g></svg>