<svg viewBox="0 0 335 495" version="1.1" xmlns="http://www.w3.org/2000/svg" xmlns:xlink="http://www.w3.org/1999/xlink"><defs><polygon id="path-1" points="0 0 334.7 0 334.7 404.6 0 404.6"></polygon></defs><g id="Introduction" stroke="none" stroke-width="1" fill="none" fill-rule="evenodd"><g id="variations-sitting" transform="translate(-2248, -953)"><g id="a-person/sitting" transform="translate(2243, 897)"><g id="pose/sitting/one_leg_up-2" transform="translate(-20.3, 159.5)"><path d="M210.9,212.4 C211.4,218.3 210.3,224.1 207.5,228.9 L206.6,230.5 L208.3,231.1 C211.4,232.2 215,232.7 219,232.7 C223.2,232.7 227.5,232.1 231,231.6 L233.3,231.3 L232.2,229.4 C231.3,227.9 231.1,226 230.9,224 C230.9,223.4 230.8,222.9 230.8,222.3 C227.5,192.8 223.3,162.9 219.3,134 C218.2,126.4 217.1,118.5 216,110.8 L213,110.9 C212.1,125.2 211.3,139.8 210.6,153.9 C210.2,160.1 209.9,166.3 209.5,172.5 C208.3,188.1 208.7,200.8 210.9,212.4 M212.1,389.3 C207.6,389.3 203.1,388.9 198.7,388 C185,385.1 172.5,378.3 161.9,372.2 C161.4,371.8 160.8,371.5 160.3,371.2 C156.1,368.9 150.9,366 147.7,362.5 C144.1,358.6 143.5,354.8 145.8,350.4 L146.1,349.7 L145.7,349 C143.4,344.7 143.6,339.3 146.2,336 L148.3,333.2 L144.8,333.6 C141.2,334 137.6,334.5 134.1,335 C130.2,335.5 126.2,336.1 122.3,336.5 L121.2,336.6 L120.9,337.6 C120.8,338.2 120.6,338.6 119.4,338.6 C118.4,338.6 116.9,338.3 115.4,337.9 C113.6,337.5 111.5,337.1 109.4,337.1 C108.5,337.1 107.7,337.2 107,337.3 L106.5,337.4 L106.2,337.8 C106,338 105.7,338.1 105.3,338.1 C105.1,338.1 104.8,338 104.6,337.9 L104.1,337.5 L103.5,337.6 C92.5,338.8 83.1,340.9 74.6,344 L74.5,344.1 L74.3,344.1 C71.3,345.5 68.1,346.8 65.2,346.8 C63.1,346.8 61.3,346.1 59.8,344.6 L59.3,344.1 L58.7,344.1 C52.3,344.1 49.4,336.7 49,331.7 L49,331.1 L48.5,330.7 C37.4,321.4 30.8,308.6 28.5,291.6 C26.3,276.2 28,259.9 29.9,246 C34.3,210 38.9,177.7 50.7,147 L51.2,145.6 L49.7,145.1 C44.7,143.3 40.8,141.1 37.9,138.5 L37.7,138.3 L37.4,138.2 C33.3,136.5 31.3,130.2 30.7,128.3 L30.7,128.1 L30.6,128 C29.8,126.4 29.6,124.1 30.1,121.8 L30.1,121.5 L30.1,121.3 C29.8,119.1 30.7,116.8 31.7,114.4 C32.1,113.2 32.6,112.1 32.9,111 C34.1,107.7 35.2,104.4 36.3,101.1 C38.8,93.9 41.3,86.4 44.1,79.2 L44.4,78.2 L43.6,77.5 C42.2,76.3 42.7,74.9 44.7,71.7 C45.2,70.9 45.6,70.1 46,69.4 C48.6,64.9 51.4,60.7 54.2,56.7 L54.3,56.6 L54.3,56.5 C69.2,28.8 95.5,13.6 128.4,13.6 L129.1,13.6 L129.4,13.4 C135.6,9.7 140,3.3 142.9,-6 L143,-6.3 L142.9,-6.6 C142.8,-7.5 142.7,-8.6 142.8,-9.7 C142.9,-12.5 144,-15 145.8,-16.5 C149.2,-19.5 154.4,-19.7 159.5,-19.7 L160.2,-19.7 C166.6,-19.7 171.2,-18.6 174.5,-16.2 C178.4,-13.4 180.5,-9 181.1,-2.5 C181.2,-0.6 181.2,1.4 181.2,3.3 L181.2,3.8 L181.3,4.1 C181.7,5.6 182.3,7.1 182.9,8.4 L183.5,9.8 L184.9,9.2 C185.8,8.8 187,8.6 188.5,8.6 C188.9,8.5 189.3,8.5 189.8,8.5 C193.2,8.5 196.9,8.8 200.4,9.2 C203.1,9.4 205.8,9.6 208.5,9.7 L208.6,9.7 C208.6,9.7 208.9,9.7 209.1,9.7 C215.6,9.7 220.3,10.7 223.9,12.9 C227.8,15.3 230.7,19.1 232.8,24.9 C244.1,58 248.8,93.7 252.9,125.2 C255.3,141.6 256,158.5 256.7,174.8 C257.4,192 258.2,209.8 260.8,227.3 L261,228.6 L262.4,228.5 C268.7,228.1 275.4,227.3 282.5,226.4 C293.3,225 304.5,223.5 315.3,223.5 C330.4,223.5 341.8,226.5 350.3,232.6 C356.1,238.2 359.2,245.7 359.1,254.3 C358.9,266.5 352.4,280.1 342.6,288.8 L342.5,288.8 C330.1,300.5 307.3,310.7 275,319.1 C245.2,326.7 214.4,330.9 198.7,332.7 L194.8,333.2 L198,335.4 C199.2,336.4 200.4,337.2 201.5,337.9 L202.2,338.4 L203,338 C205.3,337 206.7,336.8 207.5,336.8 C208.2,336.8 209.1,336.9 209.2,337.7 C209.2,338.2 208.8,338.9 208.1,339 L204.3,339.5 L207.4,341.7 C209.5,343.2 212.7,345 216.3,347.1 C228.2,354 246.2,364.3 243.1,373.4 L242.9,374 L243.2,374.6 C244,376.2 244.1,377.7 243.4,379.2 C241.9,382.4 237.3,384.8 233.4,385.7 L233.4,385.8 L233.3,385.8 C226.5,388.1 219.4,389.3 212.1,389.3" id="Fill-1" fill="#FFFFFF"></path><g id="Group-3" stroke-width="1" transform="translate(25.6, -13.8)"><mask id="mask-2" fill="white"><use xlink:href="#path-1"></use></mask><g id="Clip-2"></g><path d="M209,244.8 C209.8,240.4 208.3,236 208.1,231.6 C204.1,200.4 199.7,169.2 193.9,138.3 C192.5,130.9 191.1,123.5 189.4,116.2 C189.7,111.7 189.9,107.2 190,102.8 C198.1,97.7 207.1,94.5 216.5,92.8 C219,106.9 221.6,121 223.3,135.2 C228.8,170.4 225.7,206.2 231,241.4 C223.6,242.2 216.3,243.5 209,244.8 M223.2,272.2 C217.6,273.7 212.1,275.1 206.5,276.4 C196.6,278.7 186.6,281 176.7,283.4 C171.8,284.6 166.8,285.8 161.9,287.1 C159.5,287.6 157.2,288.3 154.9,289.1 C153.8,289.4 152.6,289.9 151.5,290.3 C150.5,290.7 149.6,291.3 148.5,291.2 C148.5,291.2 148.4,291.1 148.5,291 C149,290 150.2,289.5 151.2,289 C152.3,288.4 153.5,287.9 154.7,287.5 C157.3,286.4 160,285.6 162.8,284.9 C172.6,282.2 182.6,279.7 192.6,277.3 C202.6,274.9 212.6,272.5 222.7,270.7 C223.8,270.5 224.2,271.9 223.2,272.2 M174.1,355.9 C174.5,355.7 175,355.6 175.4,355.5 C182.5,361.4 216,376.8 213.5,385.9 C212.6,387.1 210.4,387.3 209,387.7 C206.7,388.4 204.3,388.9 201.9,389.3 C194,390.8 185.9,391 178.1,389.4 C175.3,389 172.7,387.7 170.1,386.6 C161.6,382.8 152.3,378.7 143.9,375.1 C133.2,370.8 114.4,362.5 122.2,348.4 C129.5,356.6 138.7,355.9 143.4,345.7 C145,342.6 146.4,338.4 150.2,337.2 C152.2,335.8 154.8,335.6 156.4,337.1 C156.5,336.9 156.6,336.6 156.7,336.4 C158.6,339.1 160.2,341.9 162.4,344.3 C161.7,344.4 153.8,350.2 156.1,350.2 C158.9,348.7 161.7,347.5 164.7,346.8 C166.9,349 169.3,351 171.8,352.9 C169.4,354.5 167.2,356.4 165.4,358.6 C165.3,358.8 165.5,359 165.7,358.9 C168.4,357.7 171.2,356.6 174.1,355.9 M210.1,395.5 C182.9,407.7 154.1,394.1 130.9,379.6 C125.6,376.6 118.6,372.4 119.6,365.4 C123.6,371.1 130.1,374.4 136.3,377.3 C146.8,382 157.3,386.6 167.9,391.2 C168.8,394.5 173.6,394.7 176.5,395.4 C189.2,397.9 202.9,396.6 215,391.7 C214.3,393.8 212,394.7 210.1,395.5 M101.6,348 C101,348.1 100.3,348.2 99.6,348.2 C99.7,347.4 99.1,346.5 98.3,346.2 C98.7,344.3 98.8,342.4 98.6,340.5 C99.7,343.4 103.4,342.5 105.7,341.6 C108.9,340.7 112.2,339.8 115.5,338.8 C116.8,341.1 118.1,343.5 119.8,345.6 C113.7,346.2 107.7,347.2 101.6,348 M98.9,338.9 C98.8,339.2 98.6,339.6 98.6,340 C98.4,338.6 98.1,337.2 97.6,335.9 C98,336.9 98.5,337.9 98.9,338.9 M95.1,331.3 C92.1,327.4 86.6,324.3 81.5,325.3 C81.2,325.4 81.1,325.9 81.5,326 C88.3,326.9 94.4,332.4 94.6,339.4 C95.2,342.6 92.9,345.7 93.7,348.7 C93.5,348.8 93.4,348.8 93.2,348.8 C93.2,349 93.1,349.2 93.1,349.3 C93.8,349.4 94,350.6 93.2,350.8 C92.6,351 92.1,351 91.5,351.1 C88.8,350.3 85.8,350.1 83.1,349 C80.5,347.9 81.1,344.6 80.2,342.3 C79.5,339.7 78.7,337.1 77.7,334.6 C77.7,334.4 77.4,334.4 77.4,334.6 C76.7,339.6 76.7,344.7 76.9,349.8 C75.9,349.9 75,350 74.1,350.1 C74.2,348.7 69.9,331.5 67.7,335.9 C68.8,340.7 69,345.8 69.1,350.8 C62.4,351.9 55.9,353.5 49.5,355.7 C45,357.1 39.7,361.1 35.4,357.5 C32,354.7 30.8,349.8 31.2,345.7 C35.5,321.2 70.2,318.4 90.6,320.2 C92.6,324.6 94.5,329.1 96.5,333.5 C96.1,332.7 95.6,332 95.1,331.3 M25.4,345.2 C25,339.7 25.9,332.8 30.1,328.6 C39.5,320.7 52.7,318.2 64.5,315.3 C70,314.2 75.5,313.5 81.1,313.1 C83.1,313 85.6,313.4 87,311.8 C87.7,313.5 88.5,315.2 89.2,316.9 C65.7,313.8 16.8,324.5 30.5,356.6 C27.6,353.4 25.7,349.6 25.4,345.2 M9,242.4 C9.6,237.7 10.4,232.9 11.1,228.1 C14.2,205.4 20.6,183.3 24.5,160.7 C31.1,162.8 37.9,164.5 44.5,166.4 C30.1,190.4 18.2,216 9,242.4 M63.4,220 C62.1,214 60.7,207.8 60,201.7 C60,201.4 60.4,201.4 60.5,201.6 C61.6,205 62.3,208.6 63.2,212 C64.1,215.5 64.9,219 65.8,222.4 C66.1,223.5 66.4,224.6 66.7,225.7 C66.8,225.7 67,225.7 67.2,225.8 C67.8,225.8 68,226.6 67.5,226.9 C67.3,227 67.2,227.1 67,227.2 C69.7,237.7 72.5,248.2 75.6,258.7 C79.1,270.9 83.1,282.9 86.3,295.2 C86.3,295.5 86.2,295.7 86,295.8 C87.7,301.4 89.1,307.1 90.6,312.7 C90.9,313.9 89.1,314.6 88.6,313.5 C87.6,311.8 87.4,309.5 87,307.7 C86.5,305.6 86,303.5 85.5,301.4 C84.8,298 84.1,294.7 83.5,291.3 C81.4,286 79.6,280.7 77.9,275.3 C74.2,263.1 70.7,250.9 67.7,238.6 C66.8,235 65.9,231.3 65.1,227.7 C61.2,227.7 57.2,223.4 53.3,225.7 C53.2,225.8 53,225.6 53.1,225.4 C54.7,223.9 56.8,223.7 58.9,224.1 C60.2,224.4 61.5,224.8 62.8,225.2 C63.4,225.3 64,225.5 64.6,225.5 C64.2,223.7 63.8,221.9 63.4,220 M146.1,334.5 C144.1,335.8 142.5,337.7 141.4,339.7 C134.2,358.6 126.4,348.5 116.8,338.3 C125,335.3 135.7,333 142,326.9 C143,329.6 144.4,332.1 146.1,334.5 M143.5,288.4 C142.9,285.3 142.4,282.2 141.9,279 C141.4,276 140.7,272.8 140.8,269.8 C140.8,269.6 141,269.6 141.1,269.7 C142,272.8 142.3,276.1 142.9,279.2 C143.5,282.3 144.2,285.3 144.9,288.3 C146.2,294.4 148.2,300.5 149.3,306.7 C149.5,307.4 148.5,307.6 148.3,307 C146,301.1 144.8,294.6 143.5,288.4 M11.2,148.3 C8.1,144.9 5.6,140.6 6.1,136 C8,133.5 8.6,130.2 9.7,127.3 C14,115 18,102.7 22.7,90.6 C32.7,93.7 42.6,97.4 51.9,102.2 C53.6,103.1 55.3,104 56.9,104.9 C58.7,105.9 60.6,107.6 62.7,107.1 C60.4,110.4 55.7,113.7 54.9,117.5 C54.7,118.7 55.5,119.8 56.8,119.5 C77.1,133.9 98,147.9 117.1,163.9 C131.4,175.2 142.4,184.4 147.3,202.8 C150.6,214.6 150.6,227.1 150.1,239.3 C150.1,241.7 150,244.1 149.9,246.5 C150.1,248.3 149.6,252 147.6,252 C147.6,252.5 147.8,252.9 148,253.2 C147.9,253.3 147.9,253.4 147.8,253.5 C147.7,253 147.6,252.5 147.5,252 C145.9,245.1 145.7,237 146,229.6 C146.1,227.5 142.8,227.5 142.7,229.6 C142.2,235.2 141.7,240.8 141.2,246.4 C140.6,250 141.5,254.7 138.6,257.5 C135.7,254.8 136.7,249.4 136.8,245.9 C137,240.2 137.3,234.4 137.5,228.7 C137.6,226.9 134.6,226.4 134.2,228.3 C133.3,233.5 132.2,238.8 131.1,244 C130.4,246 129.9,255.1 126.5,253.5 C124.5,252.1 126,244.1 125.7,241.4 C125.8,236.1 125.9,230.8 126.3,225.5 C126.5,223.4 123,222.9 122.5,225 C121.7,228.4 121,231.7 120.3,235.1 C118.8,240.8 119.4,248.6 114,252.4 C112,237.5 115,222.8 115.4,208 C115.1,203.2 114.3,198.4 113.6,193.7 C112.8,188.4 112.3,182.7 114.2,177.7 C113.7,175.4 111.6,181.5 111.5,182 C109.9,179 106.2,178.8 103.3,177.9 C96.7,175.8 90,174.2 83.4,172.3 C65.9,167.4 48.4,162.6 30.8,157.9 C23.8,155.9 16.4,153.6 11.2,148.3 M186.7,227.4 C184.3,214.3 184.4,201.1 185.4,187.8 C186.6,167.3 187.7,146.8 188.8,126.3 C194,163.4 199.4,200.5 203.6,237.8 C203.9,240.4 203.8,243.1 205.2,245.4 C197.9,246.4 190.2,247.4 183.2,244.9 C186.2,239.6 187.3,233.5 186.7,227.4 M29.5,75.7 C41.7,50.6 66.6,32.9 94.6,29 C94.6,29 94.6,29.1 94.6,29.1 C94.6,29.2 94.5,29.3 94.4,29.4 C95.1,28.8 96.2,29.5 95.8,30.3 C96.3,31.2 96.6,32.2 96.9,33.1 C97.1,33.1 97.3,33.1 97.4,33.1 C99.1,36.3 100,40.1 101.7,43.4 C111.2,59.8 134.6,66.5 152.1,59.8 C166,53.8 168,36.7 166.8,23.5 C166.7,22.6 166.2,22 165.6,21.6 C173.2,22.8 180.8,24 188.4,25.2 C192.1,25.7 195.8,26.6 198.7,29.1 C209.8,40.5 211.8,71.2 215.5,87.2 C206.6,88.2 196.5,93.3 190.1,99.4 C190.4,92.4 190,85.4 189.2,78.5 C189.2,78.1 188.6,78 188.6,78.4 C187,85.4 185.7,92.6 185.2,99.8 C183.1,129 181.8,158.2 180,187.3 C179.4,198 178.6,208.9 180.2,219.6 C185.1,241.6 176.4,252.4 153.1,248.7 C155.9,220.8 153.9,188.9 130.5,169.6 C129.7,168.9 128.9,169 128.2,169.3 C109.2,153.2 89.1,138.2 67.8,125.2 C67.9,122.5 61.2,120.2 59.3,118.3 C66.3,111.1 71.6,102.2 76.3,93.4 C76.7,92.4 82,82.7 80.3,83.3 C75.3,90.9 70.2,98.4 64.2,105.3 C64.5,102.1 56.3,100 53.8,98.6 C44,94.4 33.7,91.2 23.2,89.5 C25.1,84.8 27.1,80.2 29.5,75.7 M159.9,24.6 C159.6,24.1 159.3,23.5 159,22.9 C160,23 161,23 162,23.2 C161.9,24.7 162,26.3 162,27.9 C161.5,26.7 160.6,25.7 159.9,24.6 M325.3,245.2 C301.9,228.2 263.5,239 236.4,240.8 C231.3,207 233.4,172.6 228.6,138.7 C224.1,104.9 219.5,70.6 208.3,38.2 C203.7,25.6 195.8,21.9 182.7,22 C176,21.7 169,20.7 162.6,20.8 C161.1,20.8 159.7,21 158.4,21.6 C156.6,17.6 155.6,13.2 155.1,8.9 C155.1,8.6 154.7,8.5 154.6,8.8 C153.1,12.6 152.9,16.7 153.8,20.7 C154.4,23.6 157.9,34.8 162.1,30.4 C162.4,39.6 160.4,50.7 151.3,55.4 C135.5,62.3 113.7,56.1 104.5,41.5 C102.7,38.5 101.2,35.4 99.2,32.6 C112.9,28.8 120.6,12.4 117.3,0 C115.4,9.7 111.7,20.5 102.7,25.9 C69.8,25.8 42.5,40.8 27.1,69.6 C24.1,73.7 21.3,78.1 18.7,82.5 C17.3,85.5 13.3,89.6 16.7,92.4 C12.8,103 9.3,113.6 5.5,124.3 C4.5,127.8 2.2,131.5 2.7,135.2 C2.2,137.5 2.2,140.2 3.3,142.4 C4.4,146.4 6.9,151.7 10.9,153.3 C14.4,156.5 18.8,158.6 23.3,160.3 C11.2,191.9 6.6,226.1 2.4,259.5 C-1.6,288.8 -3.7,324.4 21.6,345.5 C22.1,351.6 25.7,359.3 32.8,359.4 C37.7,364.2 43.7,361.6 49.2,359.2 C58.4,355.8 68.1,353.9 77.8,352.8 C78.8,353.6 80.5,353.5 81.4,352.5 C87.3,351.2 95.3,356.6 96.5,351.7 C104.1,351 111.5,349.6 119,348.8 C115.9,352.9 116.1,359 118.5,363.4 C112.4,375.4 126.6,382.3 135.2,387.2 C146.9,393.9 159.1,400.4 172.5,403.2 C184.3,405.6 196.6,404.9 207.9,400.9 C213.9,399.4 222.2,394.5 218.7,387.6 C223.1,374.4 191.7,360.8 182.4,354.2 C186.2,353.7 186.3,345.9 176.5,350.4 C175.3,349.6 174.1,348.8 173,347.9 C212.8,343.4 288.8,330.8 317.7,303.6 C333.5,289.6 342.6,261.4 325.3,245.2" id="Fill-1" fill="currentColor" mask="url(#mask-2)"></path></g></g><g id="Head" stroke-width="1" transform="translate(86.5, 45.1)"><g id="head/Flat-Top"><path d="M60.7,18.8 C74.9,18.8 93.3,27.8 94.9,36.9 C96.7,47.7 106.6,89 104.4,102.2 C102.1,115.5 90.1,125 70.9,125 C51.6,125 37.2,114.5 33.9,110.9 C31.7,108.5 28.6,103 24.5,94.5 C17.6,93.5 14.2,90.3 14.1,84.7 C14.1,79.1 16.3,75.3 20.9,73.2 C19.2,51.2 20.5,37.2 24.5,31.5 C30.6,22.9 46.5,18.8 60.7,18.8 Z" id="🎨-Background" fill="#FFFFFF"></path><path d="M94,35.4 C94,35.2 94.3,35.2 94.3,35.4 C97.4,45.5 99.3,53.4 101.3,63.8 L101.9,66.9 C103.5,75 105,83.2 106.4,91.4 L106.5,91.9 C107.1,96.1 107.5,100.4 106.7,104.6 C105.9,108.6 103.7,112.2 100.9,115.1 C95.5,120.7 88,124.2 80.5,125.8 C76.7,126.6 72.7,126.9 68.9,126.6 C66.9,126.5 65,126.2 63.1,125.8 L62.9,125.8 C61,125.4 59.3,124.9 58.2,123.1 C58,122.6 58.1,121.8 58.6,121.6 C59.6,121.2 60.4,121 61.5,121.1 C62.5,121.2 63.6,121.5 64.6,121.7 C66.6,122.1 68.6,122.3 70.7,122.4 C74.7,122.4 78.6,121.9 82.5,120.8 C89,118.7 95.7,114.8 99.5,109 C104,102.1 102.2,93.8 101,86.2 L101,86 C99.7,78.2 98.6,70.4 97.4,62.7 L96.9,59.4 C95.6,50.6 94.4,44.3 94,35.4 Z M27.6,13.9 C30.8,11.8 34.9,11.2 38.7,11.3 L39.2,11.3 C44.1,11.3 68.8,11.9 77.1,12.1 L79.1,12.2 C81.7,12.2 87,12.3 89.7,12.3 L89.8,12.3 C91.2,12.3 92.5,12.3 93.8,12.4 L94,12.4 C95,12.4 95.8,12.6 96.6,13.3 C97,13.6 97.2,14.2 97.1,14.7 L97.1,14.8 L99.1,14.9 C100.4,15.1 101.1,16.3 100.6,17.5 L100.6,17.5 C99.6,19.5 98.9,25.4 98.4,27.6 C98.1,28.7 97.9,29.9 97.8,31 C97.7,31.9 97.7,32.9 97.2,33.7 C96.1,35.4 93,35.4 93,32.9 C93,32.9 93,32.8 93,32.7 C85.2,32.4 74.7,32.4 67,32.9 C59.8,33.3 52.6,34.3 45.6,35.8 C43.8,36.2 42,36.6 40.2,37 C38.8,37.4 37,37.6 35.7,38.4 C34.2,39.3 34.3,40.8 34.4,42.3 C34.6,43.9 34.9,43.1 35.3,44.6 L35.3,44.7 C35.7,46.2 36.2,47.8 36.9,49.3 C37.3,50.1 37.9,50.9 37.7,51.9 C37.5,52.5 37.1,53.1 36.7,53.4 C34.9,55.2 31.8,54.1 30.6,56.5 C29.3,58.9 29.3,62.3 29.1,65.1 L29.1,65.2 C29.1,67.1 29.1,69 29.2,70.9 C29.3,72.7 29.8,74.4 29.2,76 C28.8,77.2 27.4,77.4 26.6,76.4 C26.5,76.3 26.5,76.2 26.4,76 L26.3,75.9 L26.3,75.9 C26.4,76 26.4,76.1 26.5,76.3 C26.6,76.4 26.4,76.5 26.3,76.4 C24.6,74.5 22,74.9 20.1,76.2 C18.1,77.6 17.3,80.1 17.2,82.4 C17.1,84.9 17.3,87.9 18.4,90.3 C18.8,91.2 19.4,92.2 20.5,92.5 C21,92.7 21.4,92.7 21.9,92.7 C22.4,92.8 23.1,93 23.6,93 C24.2,92.9 24.8,93.7 24.6,94.3 L24.6,94.4 C24.6,94.4 24.6,94.4 24.6,94.4 C24.6,94.5 24.6,94.5 24.7,94.5 C26.6,98.4 29.2,101.9 32.1,105.1 C33.5,106.7 35.1,108.2 36.8,109.5 C37.6,110.2 38.5,110.9 39.4,111.4 C39.7,111.6 40,111.7 40.3,111.8 C40.5,111.9 40.7,111.9 40.8,111.9 L41,112 C41,112 41,112 41,112 C41.5,112.1 41.9,112.4 42,112.8 C42.4,114.1 41.7,115.2 40.5,115.5 C39.1,115.9 37.9,115.3 36.8,114.5 L36.7,114.5 C34.6,112.9 32.6,111.1 30.8,109.1 C27.4,105.1 25.3,100.4 24.3,95.2 C24,95.8 23.7,96.2 23.1,96.5 C22.2,97 21.2,97 20.2,96.9 C18.2,96.5 16.5,95.3 15.4,93.7 C14.3,92 13.8,90 13.6,88 C13.3,86 13.2,84 13.4,82 C13.8,79.1 15,76.3 17.4,74.7 C15.6,70.9 15.3,66.6 15.4,62.4 C15.6,57.3 16.5,52.1 17.1,47 L19.1,32.5 L19.1,32.5 L19.2,31.9 C19.6,28.5 20.2,25.1 21.5,21.9 C22.8,18.7 24.7,15.8 27.6,13.9 Z M19.4,82.5 C22.6,81 26.1,82.4 27.8,85.4 C29.3,88 24.8,89.8 24.1,87.1 L24.1,87 C23.6,84.9 21.6,83.2 19.5,82.9 C19.3,82.9 19.2,82.6 19.4,82.5 Z" id="🖍-Ink" fill="currentColor"></path></g><g id="face/Smile-Teeth-Gap" transform="translate(39.9, 46.6)" fill="currentColor"><path d="M42.8,36.1 C44.7,37.3 47.6,40 45.6,42.8 C43.2,45.3 39.7,42.5 38,41.2 C36.4,40.1 34.7,42.7 36.1,43.9 C48.4,53 53.4,36.5 43.8,34.8 C42.7,34.6 42.3,35.8 42.8,36.1 Z M25.7,14.2 L26.2,14.1 L26.4,14.1 C27.8,13.9 29.5,13.7 30.5,14.8 C31,15.4 31.2,16.6 30.5,17.2 C29.2,18.2 27.8,17.8 26.2,17.9 C24.9,18 23.7,18.2 22.5,18.6 C19.8,19.3 17.6,20.7 15.3,22.3 C15,22.5 14.7,22.1 14.8,21.8 C16.2,19.2 18.7,17.1 21.3,15.8 C22.7,15.1 24.2,14.5 25.7,14.2 Z M38.2,50.1 C42.3,50.4 51.2,48.5 55,51.4 C68.9,68.9 13.5,73.3 19.5,54.1 C23.3,47.8 32.1,50.3 38.2,50.1 Z M37.5,60.7 C36.5,60.6 35.2,61.4 34.9,62 C34.6,62.6 34.8,64 34.8,64.2 C36.5,64.4 38.3,64.4 40.1,64.3 C39.7,62.7 39.6,60.9 37.5,60.7 Z M45.7,63.2 C45.4,61.3 44.1,60.9 43,61.2 C41.8,61.5 41.2,62.8 41.2,63.9 C41.2,64 41.2,64.1 41.2,64.1 C42.7,63.9 44.2,63.6 45.7,63.2 Z M33.1,61 C32.4,60 30.9,59.6 29.9,59.7 C28.3,60.1 28.1,62.1 28.1,62.5 C29.6,63.1 31.2,63.5 32.7,63.8 C33,63.8 33.3,63.9 33.6,63.9 L33.6,63.7 C33.6,63.1 33.7,61.9 33.1,61 Z M51.2,60.9 C49.6,58.3 46.1,60.1 46.3,62.9 C46.7,62.8 47,62.7 47.3,62.6 C48.6,62.1 50,61.6 51.2,60.9 Z M38.3,52.1 C36.1,51.9 34.3,52 32.8,52.2 L32.8,52.7 C32.6,54.4 32.4,56 33.3,56.7 C34,57.2 36.4,57.2 37.9,56.8 C38.3,56.7 38.8,53.2 38.3,52.1 Z M41.7,51.9 C41.4,53.5 41.2,55.5 41.9,56.1 C42.6,56.8 45.1,56.7 45.7,56.3 C46.3,55.9 46.2,54.2 46,52.3 C44.8,52 42.7,51.9 41.7,51.9 Z M31.8,52.2 L31.1,52.2 L30.7,52.3 C29.7,52.3 28.5,52.3 27.5,52.6 C25.4,57.1 33.1,57.9 31.9,52.4 L31.8,52.2 Z M47,52.3 L47,52.6 C46.9,53.9 47,55.6 47.7,56 C48.7,56.7 50.7,56.6 51.7,53.5 C51.4,52.5 47.7,52.4 47,52.3 Z M26.6,25.3 C27.1,25.3 27.5,25.4 27.9,25.7 C28.3,26 28.6,26.4 28.9,26.9 C29.5,27.8 29.8,29.1 29.8,30.6 C29.8,32 29.5,33.3 28.9,34.3 C28.6,34.8 28.3,35.2 27.9,35.5 C27.5,35.7 27.1,35.9 26.6,35.9 C26.2,35.9 25.8,35.7 25.4,35.5 C25,35.2 24.7,34.8 24.4,34.3 C23.8,33.3 23.5,32 23.5,30.6 C23.5,29.1 23.8,27.8 24.4,26.9 C24.7,26.4 25,26 25.4,25.7 C25.8,25.4 26.2,25.3 26.6,25.3 Z M54.8,25.3 C55.2,25.3 55.7,25.4 56,25.7 C56.4,26 56.8,26.4 57.1,26.9 C57.6,27.8 57.9,29.1 57.9,30.6 C57.9,32 57.6,33.3 57.1,34.3 C56.8,34.8 56.4,35.2 56,35.5 C55.7,35.7 55.2,35.9 54.8,35.9 C54.3,35.9 53.9,35.7 53.5,35.5 C53.1,35.2 52.8,34.8 52.5,34.3 C52,33.3 51.6,32 51.6,30.6 C51.6,29.1 52,27.8 52.5,26.9 C52.8,26.4 53.1,26 53.5,25.7 C53.9,25.4 54.3,25.3 54.8,25.3 Z M51,13.1 L51.3,13.1 L51.6,13.2 C55.4,14 60.4,15.7 62.2,19.4 C62.3,20 62.2,20.1 62.1,20.2 L62.1,20.2 C62.1,20.3 62,20.4 61.8,20.4 C61.7,20.4 61.6,20.4 61.6,20.4 C60.7,20.2 60.1,19.9 59.4,19.5 L58.7,19.2 C57.9,18.8 57,18.4 56.2,18.1 C54.3,17.5 52.4,17.1 50.4,16.8 C50,16.8 49.6,16.6 49.3,16.4 C49,16.2 48.7,15.9 48.6,15.4 C48.5,14.9 48.5,14.5 48.8,14 C49,13.6 49.4,13.3 49.7,13.2 C50.1,13 50.5,13 51,13.1 Z" id="🖍-Ink"></path></g><g id="facial-hair/*-None" transform="translate(30.8, 84.6)"></g><g id="accessories/*-None" transform="translate(11.8, 60.3)"></g></g></g></g></g></svg>