<svg viewBox="0 0 249 672" version="1.1" xmlns="http://www.w3.org/2000/svg" xmlns:xlink="http://www.w3.org/1999/xlink"><g id="Introduction" stroke="none" stroke-width="1" fill="none" fill-rule="evenodd"><g id="variations-standing" transform="translate(-992, -1708)"><g id="a-person/standing" transform="translate(973, 1658)"><g id="pose/standing/blazer-3" transform="translate(-28.7, 150.3)"><path d="M91.2,120.9 C84.8,128.3 85.4,130.4 88.7,137.9 C96.2,155.4 107,173.1 119.2,189.2 C118.4,153 117.7,116.5 116.5,79.9 C109.2,94.1 101.5,106.8 91.2,120.9 M90,569 C85.9,568.6 57.8,569.6 65.3,561.4 C63,556.4 69.5,552.1 73.5,548.3 C77.2,544.7 80.9,540.7 84.8,536.1 C88.4,531.9 92.4,526.8 95,520.9 C95.6,520 96.2,519.4 96.8,519 L97.1,518.8 L97.3,518.5 C99.5,515 101.3,511.3 103.4,507.7 C98.5,506 94,504.2 88.4,501.7 C96.3,455.6 108,410.7 115.6,364.4 C120.2,324.2 122.7,283.5 133.3,243.9 L134.6,244 L135.4,241.4 C134.3,241.4 132,241.3 130.9,241.2 L131.2,242.6 C126.1,242 121.2,240.6 116.3,239.3 C113.8,239 111.3,237.2 112.2,234.2 C112.5,229.9 113.4,225.7 113.8,221.4 C112.2,220.3 110.6,219 109,217.8 C104.8,219.7 99.8,226.1 95.2,224.4 C84.6,210.2 75.6,193 67.6,179.3 C48,147.5 41.8,127.7 62,94.6 C79.4,66.9 98.2,22.8 133.1,15.9 C137,15.1 141.1,15.1 144.9,13.3 C145.1,10.7 146.4,9.3 147.3,9.3 C149.6,8.8 152.1,8 154.3,7.9 C155.1,7.6 156,7.9 156.8,8 C159,3.5 158.8,-2.2 161.3,-6.4 C161.4,-9.6 162.3,-13.1 172.2,-13.8 C178.9,-14.3 188.3,-14.9 193.7,-12 C197.4,-8.9 197.5,-2.2 197,2.6 C196.5,6.1 196.7,10.1 199.5,14.2 C207.3,11.8 212.7,16.9 217.6,26.4 C238,29.2 242.5,30.8 250.4,51 C254.2,59.8 258.1,69.2 261.1,78.8 C265,90.6 265.4,102.9 269.2,114.7 C279.6,140.8 290.2,157.6 293.6,188 C295.2,201.4 294.3,208 292.7,210.1 C288.3,208.8 282.6,207.8 278,207.3 L282.9,211 C278.7,230.1 290.8,284.3 258.1,280.1 C257.8,279.4 258.3,275.5 258.4,273.9 C257.5,274 255.9,274 255,273.9 C253.4,278.4 251.1,282.5 249.6,287.1 C248.9,289.9 248,292.7 247.1,295.4 C226.4,364.9 222.3,431.8 231.5,501.6 L231.1,501.7 L231,502 L230.7,502.1 C230.1,503 229.1,503 227.7,503 C218.6,503.4 210.7,503.8 203.3,504 C204.1,507.9 203.6,512 203.3,516 C207.6,515.7 211.5,517.4 215.4,519.5 C222.9,523.2 230.3,527 237.6,531.2 C244.8,535.8 256.4,539.8 250.6,548 L252.3,548.7 C252.3,548.7 252.4,548.7 252.4,548.7 C252.6,549.4 250.3,552.3 249.7,552.3 C233.8,553 220.4,549.4 200.1,545.5 C195.5,543.8 172.2,541 172.1,536.5 C172.2,535.2 173.6,535.3 174.6,535.1 C171.6,520.1 181.7,518.9 183.1,505.3 C181.1,505.7 179,506 176.9,505.4 C175.1,476.4 178,446.7 174.8,417.3 L171.6,417 C160.8,448.9 149.5,481.5 140.9,514.7 C140.7,515.4 139.9,514.9 139.5,514.6 C133.9,514.5 128.2,513.9 122.7,513 C122.6,516.2 122.4,519.5 122.3,522.8 L123.1,523.2 C123.7,524 123.5,527.6 123.4,529.1 C123.3,530.7 123.2,531.9 123.3,532.9 C125.1,536.4 119,544 115.8,548.3 C108.8,557.4 103,570.8 90,569" id="🎨-Background" fill="#FFFFFF"></path><path d="M159.6,-6.3 C161.5,-7.6 158.8,3.6 158.8,4.7 L158.7,4.9 C158.3,7.2 157.4,9.9 155.5,11.3 C156.4,18.6 157.5,25.9 158.9,33.1 L159.7,33.2 C171.6,34.8 183.5,36.9 195.7,35.8 C202.2,35.8 206.5,31.4 209.1,25.9 C208.9,25.2 208.8,24.6 208.6,23.9 C200.3,18.8 194,8.6 197.8,-1.1 C197.9,-1.6 198.4,-1.6 198.7,-1.4 C198.7,-1.4 198.7,-1.3 198.7,-1.3 L198.6,0.8 C198.4,4.9 198.3,9.1 200.5,12.7 C209.5,10.7 215.1,18.2 218.9,25.3 L221.6,25.7 C231.9,27.2 241.9,29 247,39.6 L247.7,41.1 C254.9,56.3 261.5,72 265.4,88.4 C267.4,97.1 268.1,106.1 271,114.6 C276.9,130.4 285.4,145.2 289.9,161.6 C292.8,167.5 300.7,211.9 292.9,212.2 C290,211.4 287.2,210.7 284.2,210.2 C284.7,210.5 284.9,211.1 284.8,211.7 C283.8,218.8 283.7,226 283.7,233.2 C284.2,250.6 283.7,288 257.5,282 C255.6,281.3 256.9,278.2 256.8,276.1 C256.6,276.1 256.5,276.1 256.3,276.1 C254.8,280.1 252.7,283.9 251.4,288 C250.3,291.5 249.5,295.3 247.9,298.7 C231.4,357.5 224.5,419.3 231,480.2 C231.4,483.8 231.8,487.4 232.2,491.1 C232.2,493.4 234.9,502.8 232.5,503.5 C232.4,503.7 232,503.9 231.8,504 C230.4,505.5 227.9,505 226,505.2 C219.1,505.5 212.3,505.7 205.4,506 C205.8,508.9 205.5,511.8 205.3,514.7 C210.3,514.8 214.9,517.8 219.3,519.9 C225.9,523.1 232.3,526.6 238.7,530.2 C244.5,534.3 257.6,538.3 253.1,547.5 C256.4,548.9 251.8,554.6 249.2,554.6 C232.6,554.6 216.2,550.8 199.9,547.5 C190.7,545.1 180.7,544.2 172.2,540 C169.8,538.9 170.3,534.5 172.9,534.1 C170.9,519.6 179,519.8 181.2,507.7 C179.9,507.9 178.5,507.8 177.1,507.5 C174.1,510.3 175.2,488.2 174.8,486 C174.7,463.3 175.8,440.5 173.4,417.9 L169.3,430 C159.7,458.3 150.2,486.6 142.7,515.5 C142.2,517.2 140.4,517.5 139.2,516.7 C134.3,516.5 129.4,516.1 124.5,515.3 C124.4,517.6 124.3,519.9 124.2,522.2 C126.3,523.4 124.9,530.5 125.1,532.9 C127.4,538.1 118.2,548.3 115.1,552.5 C109.7,560.1 104.4,570.6 93.9,571 L93.6,571 C85.8,571.2 77.9,570.7 70.2,569.6 L69.2,569.5 C67,569.1 64.6,568.6 63.3,566.6 C62.2,564.9 62.4,562.8 63.7,561.5 C61.9,555.2 68.7,551.3 72.5,547.5 C79.6,540.7 86,533.2 91.6,525 L91.9,524.3 C93,521.9 94.2,519.2 96.1,518 C97.9,515.1 99.5,512 101.2,509 C96.6,507.4 92.2,505.5 87.8,503.6 C86.9,503.2 86.6,502 86.8,501.2 L86.8,501.1 C95.4,456.6 105.7,412.4 113.7,367.7 C118.8,326.6 120.9,284.9 131.7,244.7 C126.4,244.1 121.2,242.6 116.1,241.4 C112,240.5 109.9,238.4 110.8,234.1 C111,230.2 111.8,226.4 112.2,222.6 C111.1,221.8 110.1,221 109,220.2 C107.1,221.6 105.1,223 103.1,224.2 C98.2,227.7 94.4,228.3 91.4,222.5 C82.7,208.7 74.2,194.7 66.3,180.5 C58.9,166.8 49.8,153.1 47.9,137.4 C45.2,109 78.5,63.7 95.1,40.7 C104.3,29.6 115.5,18.1 130.1,14.9 C134.6,14.2 139.3,14.2 143.6,12.5 C143.9,10.5 144.9,8.5 147.1,8 C149.4,7.5 151.9,6.7 154.2,6.7 C154.8,6.5 155.4,6.4 155.9,6.5 C157.5,2.4 157.8,-2.3 159.6,-6.3 Z M70.4,564.8 C70.8,565 71.2,565.1 71.6,565.3 C72.1,565.3 72.6,565.4 73.2,565.5 C72.2,565.3 71.3,565 70.4,564.8 Z M122.2,524.5 C114.6,527.2 112.5,514.2 97.4,519.5 C91.5,530.4 83.9,540.3 75.2,549.1 C72.1,553 63,557.3 67.9,563 L68.7,563.1 C77.2,564.6 85.9,565.9 94.6,565.2 C101.2,563.4 106.2,558.1 110.2,552.8 C113.1,547.6 116.5,542.8 119.9,538.1 C121.8,535.7 122,532.7 122,529.8 C122.1,528 122.1,526.2 122.2,524.5 Z M208.2,518.1 C204.9,516.9 201.6,518 198.6,519.5 C193.6,521.7 182.6,524.4 178,520.8 C175.7,524.6 174.9,528.8 175.5,533.2 L175.5,533.4 C175.6,535.2 175.8,536.6 178,536.8 L184.1,538.3 C204.6,543.4 225.3,548.4 246.5,549.9 C252.1,546.3 252.3,541.7 246.3,538.5 L244.7,537.5 C233,530.4 220.9,523.3 208.2,518.1 Z M252.8,548 C252.8,548.1 252.7,548.2 252.7,548.3 C252.7,548.3 252.8,548.4 252.9,548.5 C252.9,548.3 252.9,548.2 252.8,548 Z M102.3,509.4 C102.4,511 101.6,512.8 101,514.3 C100.7,515.1 100.4,516.3 99.9,517.3 C112.7,513.5 116.6,524.6 121.3,522.3 L121.4,522.3 L121.4,522.2 C120.5,520.1 121.5,517 122.1,514.9 C115.4,513.7 108.7,511.8 102.3,509.4 Z M204,506 L200.2,506.1 C194.5,506.3 188.7,506.5 182.9,506.5 C183.5,510.6 182.4,517.4 179.7,520.7 C179.7,520.7 179.7,520.7 179.7,520.7 C187.3,521.8 194.5,518.3 201.2,515.4 C201.5,512.2 202.8,509 204,506 Z M179.1,518.7 C178.9,519.1 178.7,519.5 178.4,519.9 C178.5,520.1 178.7,520.2 178.8,520.2 C178.7,519.7 178.9,519.2 179.1,518.7 Z M189.8,166 C194.1,187.4 197.4,209.1 198.6,230.9 L198.6,231.1 C198.7,233.3 199,235.8 197.5,237.6 C196,239.5 193.6,239.8 191.4,240.1 C172.4,243 153.1,244 133.9,243.4 C126.8,278.5 122.5,313.9 119.9,349.6 C114.1,400.5 101.1,450.2 91.3,500.5 C106.5,507.1 122.2,511.8 138.8,512.4 C162.3,425.7 206.2,334.2 208.6,247.4 C208.7,247.3 209,247.3 209,247.5 C209.8,252.3 209.5,257.2 209.3,262 C208.6,276.7 207,291.4 204.6,306 C198.4,342.1 187.1,377 175.5,411.6 C175.1,413.2 175.7,414.9 175.7,416.5 C178.1,443 178.4,469.6 179.2,496.2 C179,499.1 179.9,502.4 178.9,505.2 C187.7,504 196.5,503.4 205.3,502.7 L205.4,502.6 C205.7,502.4 206.3,502.1 206.7,502.6 C214.1,502 221.6,501.4 229,500.9 C218.5,425.3 225.8,346.5 254.4,275.4 C252.5,273.8 253.3,270.1 252.9,267.8 C252.5,258.4 252.6,248.7 254.4,239.5 L253.9,239.5 C248.2,239.8 223.2,240.8 222.5,236.6 C221.6,229.4 223.9,222.2 224.3,215.1 C225.2,198.9 225,182.7 224.9,166.6 C219.9,167.2 215.1,166.3 210.2,166.1 C203.4,166.1 196.6,166.2 189.8,166 Z M101.5,509.1 C101.3,509.7 101.2,510.3 101,510.8 C101.2,510.3 101.5,509.8 101.8,509.4 L101.9,509.3 L101.5,509.1 Z M182.5,506.5 L182.1,506.5 L182.1,506.5 L182.1,506.7 L182.1,506.7 C182.2,506.9 182.2,507.1 182.1,507.2 C182.1,507.9 182.1,508.6 182,509.4 C182.2,508.4 182.3,507.4 182.5,506.5 Z M177.4,506.2 L177.4,506.6 L177.4,506.6 C177.9,506.6 178.4,506.6 179,506.6 C179.2,506.5 179.5,506.5 179.8,506.4 C179,506.4 178.2,506.4 177.4,506.2 Z M269.8,209.2 C269.5,209.5 269.3,209.7 269,209.8 C269,216.6 267.6,223.3 263.8,229.2 C262.2,231.3 261.3,233.7 260.6,236.2 C256.6,247.5 255.8,259.7 257.3,271.6 C261.2,265.8 262.8,258.9 263.9,252.1 C264,251.8 264.5,251.8 264.6,252.1 C265.9,259.4 263.6,266.5 260.9,273.3 C259.2,274.5 259.6,277.7 259.4,279.5 C288.4,283.8 278.3,228.1 282,211 C282.1,210.5 282.5,210.1 283,210 C278.6,209.3 274.2,209.3 269.8,209.2 Z M133.1,243.4 C133.2,243.6 133.2,243.7 133.2,243.9 C133.3,243.7 133.3,243.6 133.4,243.4 C133.3,243.4 133.2,243.4 133.1,243.4 Z M152.8,7.9 L152.2,8 C146.9,9.4 145.1,9.2 144.8,15.7 C143.5,24.5 138.7,32.1 136.5,40.6 C135.6,43.6 136.5,49.1 140.7,48.3 C142,47.9 143.1,49.7 142,50.7 C139,53.5 136.1,56.4 133.2,59.4 C145,99.1 160.3,137.8 178.9,174.8 C179.6,176.3 177.4,177.5 176.7,176.1 C158.2,138.9 142.8,100.3 130.8,60.5 L130.4,59.3 C129.9,57.9 136.7,52.6 137.9,50.9 C125.6,45 142.8,24.2 143.2,14.2 C139.7,15.7 135.7,15.2 132,15.8 C124.8,17 118.6,21.2 113,25.6 C90.3,45.6 75.8,73.3 61.3,99.4 C51.5,116.4 46.7,137.3 56.6,155.4 C68.1,178.6 81.4,201 95.5,222.7 C97.1,224.7 99.5,222.4 101.1,221.6 C110.5,216 118.6,208.3 124.8,199.3 C109.7,180.8 96.5,160.5 87.1,138.3 L87,138.1 C84.9,133.9 83.3,128.8 86.8,124.8 C99.2,108.9 110.2,92.1 120.6,74.8 C120.7,74.7 120.9,74.8 120.9,75 C119.8,77.4 118.7,79.8 117.5,82.2 C119.9,117.2 119.5,153 120.5,188.3 C123.2,192 126.1,195.5 129,199.1 C138.4,192.6 149.5,188.3 160.9,187 L161.6,187 C166.4,186.5 174.4,185.5 175.1,191.8 C174.3,199.5 158.3,195.2 153.2,199.6 C161.6,202.9 171.2,203.9 178.8,209 C181.3,210.4 186.1,215 181.4,216.7 C179.4,216.9 177.2,216.1 175.2,215.9 C177.5,216.7 179.6,218 181,220.1 C181.9,221.5 182.7,224.4 180.3,225.1 C175,225.2 169.7,223.5 164.5,222.6 L164.9,222.8 C168.8,224.4 174.7,227.2 169.6,231.3 C164.4,234 158.2,229.4 153.1,228.2 C139.2,225 129,233.8 114.9,224.3 C114.5,227.5 113.9,230.6 113.6,233.8 L113.6,234 C113.1,236.9 113.5,238 116.7,238.6 C120.5,239.7 124.5,240.1 128.4,240.3 C147.4,241.3 166.6,240.6 185.4,238.1 C188.2,237.4 194.5,238.1 195.7,235.1 C193.6,158.2 161.5,85.8 152.7,9.9 C152.5,9.2 152.5,8.5 152.8,7.9 Z M206.4,14.5 C204.8,14.5 203.4,14.8 201.9,15 C202.8,16.8 207.2,19.3 206.8,20.2 C207.1,20.4 207.4,20.7 207.7,20.9 C207.3,19.3 206.8,17.7 206.4,16.1 C223.1,56.9 225.4,105.1 227.6,149.6 C228.4,172.1 228.8,194.6 227.7,217 C227.1,223 225.5,229 225.9,235 C235.7,236.4 245.7,236.5 255.6,235.5 C255.9,234.7 256.2,234 256.6,233.2 C271.4,215.2 263.5,192.7 256.4,173.1 C252.1,173.3 247.8,173.1 243.5,173.1 C244.8,177.2 245.1,181.6 245.9,185.8 C246.3,188.9 247,191.9 247.7,194.9 L247.9,195.7 C248.1,196.8 248.5,198 248.1,199 C247.7,200.1 246.4,200.6 245.5,199.7 C244,197.9 244.1,195.3 243.6,193.1 L243.5,192.4 C242.7,186 241.5,179.4 243.1,173.1 C241.6,172.8 237.3,174 237.1,171.9 C237.2,168.5 234.7,161 237.5,158.8 C239.1,157.5 241.9,157.9 243.9,157.8 C246.1,157.7 248.3,157.7 250.6,157.7 C232.6,114.3 237.6,100.9 239.4,57.7 L239.5,56.4 C239.5,56.1 239.9,56.1 240,56.3 C242.7,74 239.1,91.9 240.8,109.7 C243.9,143.4 265.3,172.4 268.8,205.9 C276.5,205 284.3,206.1 291.8,208 C292,206.7 292.1,205.3 292.2,203.9 C293.6,178.9 284.8,154.6 274.5,132.1 C268.4,120.2 264.6,107.5 263,94.2 C259.9,76.8 253,60.5 246.1,44.4 C241.7,32.4 232.3,29.5 220.6,28.1 C224.5,34.7 228.4,41.2 232.4,47.8 C233.2,49.8 230.6,51.2 229.4,52.4 C243.8,60.3 235.4,84.5 235.7,98 C234.6,110.5 234.2,123 232.3,135.4 C232.2,136.3 230.9,136 230.9,135.2 C231,116.7 233.2,98.2 234.2,79.7 L234.3,78.3 C235.1,69.6 235.8,56.9 225.3,54.5 C223.9,54.3 223.8,52.2 224.9,51.5 C226.4,50.7 227.7,49.6 228.9,48.4 C224.9,41.7 220.9,34.9 216.9,28.1 L216.7,27.8 C213.9,23 211.3,17.4 206.4,14.5 Z M172.1,191.3 C171,187.9 159.7,190.1 156.7,190.5 C145.6,192.6 134.4,197.5 125.9,205.1 C125.4,205.6 124.8,205.6 124.3,205.3 C120.5,210.1 116.1,214.5 111.3,218.4 C112.2,219.1 113.1,219.7 114,220.4 C114.5,220.4 114.9,220.7 115.1,221.1 C128.3,230.6 138,223.2 151.7,224.9 C156.8,225.9 161.6,229.2 166.8,229.3 C170.7,228.5 167.3,226.8 165.5,226.2 C161.4,224.2 157.2,222.5 153,220.7 L149.7,219.3 C148,218.6 148.6,216.1 150.4,216.6 C153.7,217.3 156.9,218 160.1,218.8 C166.3,220 172.7,221.6 179,222.3 C177.6,218.4 162.8,214.2 158.5,212.7 C156.8,211.9 152.2,212 152.7,209.5 C153.1,207.2 158.1,209.9 159.7,210 C166.4,211.7 173.3,212.8 180.1,213.8 C172.8,206.4 161.4,205.8 152,202.4 L151.8,202.3 C150.1,201.9 147.8,201.2 149.2,199.3 C154,192.2 173,195.8 172.1,191.3 Z M158.3,151.8 C161.7,148.9 163.5,154.7 163.3,157.4 C163.5,159.6 163.6,161.8 163.8,164.1 C163.6,165.8 165.4,172.2 162.9,172.2 C152.1,171.7 141.3,171.8 130.4,171.1 C130.4,173.3 130.3,175.5 130.4,177.7 C130.4,180.4 131.3,183.2 130.7,185.9 C130.4,187.1 128.7,187.3 128.1,186.2 C126.1,181.6 127.4,175.6 128.8,170.9 C123.5,169.9 122.8,164.9 124.2,160.4 L124.2,160.2 C124.1,158.8 124.1,157.3 124.7,156.2 C126.4,154.3 129.8,155.6 132,155.4 C138.9,154.7 146,154.5 152.9,153.2 C154.6,152.8 156.4,151.8 158.3,151.8 Z M115.2,86.7 C109.8,97 103.6,106.8 97,116.3 C95.6,118.3 94.1,120.3 92.6,122.3 L92.4,122.7 C89.4,126.4 86.4,129.5 89.1,134.5 C96.5,152.3 106.2,168.9 117.6,184.4 C116.9,151.8 116.2,119.2 115.2,86.7 Z M250.8,158.2 C237.2,161 237,155.7 239.2,170.8 C244.7,170.8 250.1,170.7 255.5,170.8 C254,166.6 252.4,162.4 250.8,158.2 Z M159.8,153.9 C152.8,156.4 145.2,156.1 137.8,156.4 C137.9,157.9 130.3,156.5 128.8,156.7 L128.3,156.6 C127.1,156.5 125.6,156.5 125.6,158 C126,160.6 124.5,163.4 125.4,165.9 C126.6,169.3 131.8,169 134.7,169 C139.4,169.1 144.1,169.3 148.8,169.4 C153,169.5 157.3,169.7 161.5,169.7 C161.1,166.7 161,163.6 160.8,160.6 C160.5,158.5 160.9,155.9 159.8,153.9 Z M189.6,164.9 C189.6,164.9 189.6,165 189.6,165 C189.7,165 189.8,165 189.9,165 C189.8,164.9 189.7,164.9 189.6,164.9 Z" id="🖍-Ink" fill="currentColor"></path></g><g id="Head" stroke-width="1" transform="translate(95.9, 42.7)"><g id="head/Long"><path d="M102.6,64 C101.7,49.3 96.9,32.5 82.8,25.3 C51.7,12.9 10.8,44.2 8.6,76.3 C7.9,87.2 14,99.2 25.1,102.3 C27.6,105.6 31.3,107.6 35,109.3 C79.1,132.1 107.6,113.6 102.6,64 L102.6,64 Z" id="🎨-Background" fill="#FFFFFF"></path><path d="M112.6,54.8 C111.1,50.5 109.4,46.2 107.7,42 C106,37.8 104.5,33.6 102.4,29.7 C89.9,6.1 67.1,6.1 55.4,9.2 C49.3,6.6 37.9,7.3 31.5,9.7 C21.2,13.5 8.7,28.6 4.4,35.3 C-5,50.3 -10.9,70.2 -4.7,87.4 C-3.8,89.7 -2.8,91.8 -1.6,93.8 C-2.3,94.8 -3.2,95.8 -4.2,96.7 C-7,99.5 -9.8,102.2 -12.2,105.3 C-14.6,108.4 -16.6,111.7 -18.1,115.4 C-20.9,122.3 -21.1,130.1 -17.3,136.6 C-14.1,142.3 -8.4,146.6 -1.9,147 C-1.6,147.1 -1.3,147.1 -0.9,147.1 C-0.1,148.5 1,149.8 2.1,151 C5.8,154.4 14.5,156.2 19.4,156.3 C19.7,156.5 20,156.7 20.2,156.9 C23.2,159.3 26.4,161.7 29.9,163.4 C32.3,164.5 35.4,165.5 37.8,164.7 C38.9,165.4 40.8,165.3 41.9,164.7 C43.7,163.7 45.2,161.9 46.1,160 C48.3,155.5 47.7,150.6 47.2,145.8 C46.5,140.6 46,135.3 45.4,130 C44.9,125.9 44.4,121.7 43.1,117.7 C42.5,115.6 41.6,113.6 40.5,111.8 C40.5,111.6 40.5,111.5 40.5,111.3 C40.1,110.2 39.4,109.5 38.5,108.7 C38.4,108.6 38.3,108.5 38.2,108.4 C37.7,107.9 37.3,107.5 36.7,107.1 C36.6,106.9 36.4,106.7 36.2,106.5 C34.6,104.8 33.1,103 31.7,101.2 C30.4,99.3 29.2,97.4 28.1,95.5 C27,93.5 26.2,91.3 25.1,89.4 C25,89.2 24.8,89.2 24.6,89.3 C24.3,89.7 24,90.1 24.1,90.5 L23.9,90.5 C23.8,89.9 23.2,89.4 22.4,89.5 C21.2,89.7 20.3,89.8 19.2,89.4 C19.4,88.2 19.6,87 19.7,85.8 C20,83.5 20.3,81.3 20.6,79 C21.1,79.2 21.7,79.4 22.3,79.6 C23.1,80 23.9,80.5 24.5,81.1 C25.2,81.7 25.6,82.5 26.4,82.9 C27.3,83.4 28.4,82.6 28.2,81.5 C27.6,79.5 24.6,78.3 22.7,77.9 C22,77.8 21.4,77.7 20.7,77.7 C20.8,76.3 21,74.8 21.1,73.4 C21.1,72.7 21.2,72 21.2,71.3 C22.7,70.9 24.3,70.8 25.8,71 C26.3,71.4 26.8,71.8 27.3,72.2 C28.8,73.5 30.4,74.7 31.9,76 C32,76.2 32.2,76.3 32.3,76.4 C33.2,77.2 34.3,76.4 34.2,75.3 C32.9,66.3 38.5,59.2 44.9,53.6 C52.1,47.5 65.1,46.8 73.6,36.1 C77.5,36.9 86.3,39.3 89.9,45 C94.9,53.1 94.3,60.3 94.6,69.4 C95,78.5 96,88.1 93.9,97.1 C92,105.4 86.8,112.5 78.8,115.7 C78.6,115.8 78.4,115.9 78.2,116 C74,117.5 69.5,118 65.1,117.2 C60.2,116.2 56.2,114 52.2,111.3 C51.9,111.1 51.6,111.5 51.8,111.7 C57.1,118.7 67.5,121.1 75.8,119.2 C76.2,119.1 76.6,119 77,118.9 C75.1,124.2 75.5,130.1 77.9,135.3 C79.3,138.4 81.6,141.1 84.2,143.2 C87.2,145.5 90.9,147.4 93,150.7 C94.9,153.7 94.3,157.1 91.1,158.9 C90.2,159.3 89.9,160.7 90.7,161.3 C91.1,161.6 91.4,161.8 91.7,162.1 C93.5,163.4 98.5,166 99.3,166.1 C106.4,166.9 111.2,161.7 114.3,155.5 C117.9,148.3 117,139.4 113,132.5 C109.8,127 103.5,121.5 106,114.5 C106.9,112 108.7,109.9 110.5,107.9 C112.5,105.7 114.7,103.7 116.6,101.4 C118.6,99.1 120.3,96.7 121.2,93.8 C122.6,89.7 121.9,85.2 120.9,81.1 C118.6,72.2 115.7,63.4 112.6,54.8 Z" id="🖍-Ink" fill="currentColor"></path></g><g id="face/Smile" transform="translate(37.8, 44.1)" fill="currentColor"><path d="M34.8,57.1 C33.2,56.5 31.8,55.4 30.8,54 C30.4,53.5 30.3,53 30.4,52.5 C30.5,52 30.8,51.5 31.2,51.2 C31.6,50.9 32.1,50.7 32.7,50.8 C33.1,50.9 33.5,51.1 33.9,51.6 L34,51.7 C34.6,52.6 35.4,53.3 36.3,53.7 C37.2,54.1 38.2,54.3 39.2,54.2 C41.2,54 42.5,52.9 43.9,51.5 C44.1,51.3 44.3,51.1 44.5,50.9 C44.6,50.8 44.7,50.7 44.9,50.6 C45.1,50.5 45.3,50.5 45.5,50.6 C45.7,50.7 45.9,50.8 46,51 C46.1,51.1 46.2,51.3 46.2,51.6 C46,53.1 45.3,54.4 44.2,55.4 C42.9,56.6 41.3,57.4 39.8,57.6 C38.1,58 36.4,57.7 34.8,57.1 L34.8,57.1 Z M40.6,34.2 C42.4,35.3 45.1,37.8 43.2,40.5 C40.9,42.9 37.6,40.2 36,39 C34.5,38 32.8,40.5 34.2,41.6 C45.9,50.2 50.6,34.5 41.5,32.9 C40.5,32.8 40.1,33.9 40.6,34.2 Z M19.7,24.2 C19.9,21.8 23.6,21.2 24,23.6 C24.4,25.8 24,27.8 23,29.8 C22,31.6 19.7,30.8 19.5,29.1 C19.3,26.8 19.6,25.7 19.7,24.2 Z M48.2,23.1 C48.7,22.4 49.5,22 50.4,22.2 C53.2,23.1 52.4,27.1 51.4,29 C50.9,30.1 49.1,30.3 48.3,29.4 C47,27.9 46.4,24.9 48.1,23.4 C48.1,23.3 48.2,23.2 48.2,23.1 Z M22.9,13.5 L23.4,13.4 C24.8,13.2 26.5,12.9 27.5,14 C28,14.6 28.2,15.7 27.5,16.3 C26.2,17.3 24.9,16.9 23.4,17 C22.2,17 21,17.2 19.9,17.6 C17.3,18.3 15.2,19.6 13.1,21.1 C12.8,21.3 12.5,20.9 12.6,20.6 C13.9,18.2 16.3,16.2 18.8,14.9 C20.1,14.3 21.5,13.7 22.9,13.5 Z M45.6,12.4 L46,12.4 C49.7,13.2 54.5,14.8 56.3,18.4 C56.3,18.9 56.3,19 56.2,19.1 L56.2,19.1 C56.2,19.2 56.1,19.3 55.9,19.3 C55.8,19.3 55.8,19.3 55.7,19.3 C54.9,19.1 54.3,18.8 53.6,18.5 L53,18.2 C52.2,17.8 51.4,17.4 50.6,17.1 C48.8,16.6 47,16.2 45.1,15.9 C44.7,15.9 44.3,15.8 44,15.5 C43.8,15.3 43.5,15 43.4,14.6 C43.3,14.1 43.3,13.7 43.6,13.2 C43.8,12.9 44.1,12.6 44.5,12.5 C44.8,12.3 45.2,12.3 45.6,12.4 Z" id="🖍-Ink"></path></g><g id="facial-hair/*-None" transform="translate(29.2, 80.1)"></g><g id="accessories/*-None" transform="translate(11.2, 57.1)"></g></g></g></g></g></svg>