<svg viewBox="0 0 213 701" version="1.1" xmlns="http://www.w3.org/2000/svg" xmlns:xlink="http://www.w3.org/1999/xlink"><g id="Introduction" stroke="none" stroke-width="1" fill="none" fill-rule="evenodd"><g id="variations-standing" transform="translate(-3484, -1704)"><g id="a-person/standing" transform="translate(3437, 1658)"><g id="pose/standing/shirt-3" transform="translate(-28.7, 150.3)"><path d="M125,240.6 C124.7,241.7 124.4,242.9 124.1,243.9 C125.8,245.6 128.3,247.8 130,249.4 C128.3,238.7 133.6,228.8 136.8,218.6 C135.6,217.1 131.3,215.5 131.5,213.7 C131.8,207.3 132.3,200.1 133,192 C135.4,166.9 137.7,140.7 132.1,115.4 C131.7,112.7 131.2,109.8 127.5,109.7 C116.6,153 125.4,196.5 125.2,240 L125.5,240.3 L125,240.6 Z M108.7,594.9 C99.7,594.9 91.5,593.2 83.5,590 C81.2,589.1 78.4,588.1 78,586.5 C77.3,582.1 77.8,577.7 78.3,573.1 C79,565.2 78.9,559 81.1,550.5 C83.4,542.5 85.3,536.3 83.1,528.1 C82.9,525.7 84.8,523.2 86.1,520.9 C87.9,517.6 88.8,514.1 90.2,510.7 C87.4,510.2 84.5,509.6 81.8,508.7 L81.4,510.4 C81.3,510.7 81,510.9 80.6,510.9 C80.3,510.9 79.6,510.8 79.5,510.2 C79.9,503.9 80.6,497.7 81.2,491.4 C87.8,430.3 97.9,380 114.8,329.7 C118.8,318 123,305.7 123,293 C120.7,292.5 118.1,292.2 115.8,292.5 C99,288.6 102.3,253.3 103,242.7 C101.8,242.3 100.5,241.8 99.5,241.2 L99.1,241.4 C82.5,200.2 89.3,132.1 93.1,86.3 C95.6,69.9 92.1,40.1 106.7,32 C118.5,27.8 130.3,25.5 142.6,22.7 C144.9,21.4 147.7,20.7 150.3,19.8 L149,18 C147.2,15.6 147.5,10.8 149.7,9.1 C151.1,9.2 153.1,10.6 154.4,11.3 C156.3,7.3 158.1,3.2 159.3,-1.5 L159.8,-1.4 C161.1,-14.8 178.5,-17.1 188.3,-12.6 C199,-6.8 193.4,6.5 198.3,16.1 L200.1,13.7 C202.8,13.7 208.6,17.2 209.9,18.6 C210.9,19 210.2,22.2 210.4,23.4 C224.7,26.7 244.4,27.5 248.9,43.6 C256.5,73.9 255.5,104.9 264.1,135 C273.1,159.4 286.3,189.3 286.5,211.7 C286.7,215.9 287.3,239.6 283.8,238.6 L281.5,240.9 C284.6,245.9 282.1,253.4 280.9,259.3 C278,271.8 272.2,285.2 259.9,279.2 C246.7,352.3 213.4,425.9 224.7,501.2 C224.9,501.6 224.6,502.1 224.1,501.9 L223.6,501.7 C222.1,502.1 220.3,502.3 218.8,502.6 C220.1,507.4 220.7,512.1 221.4,517.5 C222.2,517.9 221.8,519.2 221.9,520 C233.9,519.4 240.7,532 249.3,538.9 C255,544 261.5,548.8 268.7,553.3 C274.5,556.6 279.5,560.5 278.6,566.7 C278.7,566.7 280.5,566.5 280.6,566.4 C283.3,575.5 274.3,577.4 265.1,578.5 C242.5,580.8 223.2,575.8 197,566.3 C193.8,566.6 191.3,561.9 190.9,558.7 C190.5,556.5 191.7,554.3 190.8,552 C187.6,545.3 186,527.6 190.4,519.6 C192,517.8 194,516.2 193.7,513.1 C193.6,509.9 193.3,506.8 193.6,503.8 C188.3,503.3 183,502.1 178.3,500.2 C177.5,500.6 176.5,500.2 176.5,499.1 C175.6,484.9 174.5,469.4 174.3,454.8 C173.2,423.1 180.5,392.1 186,361.4 C186.4,351.5 188.3,342 188.8,332.1 C189.5,322.7 189.6,313.6 190.1,304.2 L186.9,303.5 C160.2,372.1 139.4,440.7 124.8,507.8 C125.1,508.1 126,508.4 126,509 C126,509.3 126,509.3 125.8,509.4 C122.3,510.1 118.8,510.6 115.3,511 C116.3,519.4 111,529 115.7,536.9 C116.9,538.8 116.9,539.2 116.2,540.5 C123,553.1 127.2,563.6 129.9,574.8 L131.6,573.3 C134.2,575.2 134.2,578.7 134.3,582.3 C134.1,584.5 135.2,586.7 133.6,588.5 C129.7,593.1 116.2,594.8 108.7,594.9 L108.7,594.9 Z" id="🎨-Background" fill="#FFFFFF"></path><path d="M158.2,-3.6 C160.1,-2.1 158.1,8.7 156.7,10.9 C166.7,17.4 176.9,23.7 187.3,29.7 L188.4,30.3 L188.4,30.3 C188.8,30.5 189.5,30.6 190,30.6 L190.2,30.5 C190.3,30.4 190.3,30.4 190.3,30.4 C190.5,30.3 190.7,30.3 190.8,30.1 C193.8,27.4 196,22.9 198.3,19.3 C194.3,15.8 196.3,9 196.5,4.4 C197.2,4.4 197.3,6.8 197.5,7.4 L197.6,8.1 C197.9,9.6 198.2,11.2 198.8,12.6 C200.5,10.5 209.2,15.6 210.8,17.2 C212.6,18.3 212,20.3 212,22.1 C228.4,25.3 249.4,27.5 251.6,48.1 C254.2,59.2 255.6,70.4 256.9,81.7 L257.1,83.5 C259.3,102.8 261.3,122.4 267.7,141 L270.1,146.8 C275.3,159.3 280.4,171.9 283.8,185 C286.4,190.6 293.3,244.2 282.9,240.1 C286.4,245.8 283.8,253.5 282.5,259.6 C280,269.8 274.9,286.4 261.2,281.5 C250.8,336.7 230.3,389.9 225.1,446.1 C223.4,464.3 223.5,482.8 226.3,501 C226.7,502.7 225.1,504.2 223.4,503.5 C222.5,503.7 221.6,503.8 220.8,503.9 C221.8,507.9 222.4,512.1 222.9,516.2 L223,516.7 L223,516.7 C223.4,517.2 223.6,517.7 223.6,518.4 C229.8,518.4 235.1,522.5 239.3,526.8 C246.5,534.3 254.1,541.5 262.8,547.5 C269,552.5 279.9,555.5 280.3,564.8 C283.4,564.3 282.7,571.2 282.1,573 C281.4,575.1 279.5,576.3 277.7,577.2 C251.3,586 222.3,577.4 197.2,567.9 C192.8,568.5 189.7,562.7 189.2,558.9 C188.7,556.8 189.9,554.7 189.2,552.7 L189,552.1 C188.2,550 187.5,548 187,545.8 L186.9,545.3 C185.9,537.8 185,525 189.1,518.6 C193.8,514.6 191.4,510.7 191.8,505.3 C187.2,504.7 182.5,503.7 178.2,502 C176.4,502.4 174.9,501 174.8,499.3 L174.6,496.6 C173.8,482.7 172.8,468.8 172.6,454.8 C171.5,423.2 178.7,392.2 184.4,361.3 C184.9,349.4 187.2,337.7 187.5,325.7 C187.8,318.5 188,311.3 188.4,304.2 C162.8,370.1 141.7,437.9 126.6,507.1 C128,508 128.2,510.6 126.1,511 C123.1,511.6 120,512.1 117,512.5 C117.4,519.9 113,529.9 117.1,536.2 L117.3,536.5 C118.1,537.7 118.8,539.1 118,540.5 C123.4,550.5 128,560.9 130.8,571.9 C134.1,570.5 135.9,577.1 135.8,579.5 C135.6,582.6 137.3,587.9 134.6,590 C120.4,599.1 101.2,597.7 85.8,592.7 C82.9,591.4 79.7,590.6 77.2,588.7 C76.1,587.5 76.2,585.7 76.1,584.2 L76.1,583.5 C75.9,579.2 75.9,575 77.1,570.8 C76.8,564.8 77.7,558.7 78.9,552.8 C79.6,548.1 81.8,543.6 82.1,538.8 C83.6,534.5 80.8,530.5 81.6,526.2 C82.2,523.6 84.1,521.4 85.2,518.9 L85.3,518.8 C86.3,516.6 87,514.3 87.9,512 C86.2,511.7 84.6,511.3 83,510.8 C82.2,513.6 77.7,512.8 77.8,510 C81.5,463.8 88.9,417.8 100.2,372.9 C105.5,346.3 119.2,321.5 121.3,294.3 C119.6,294 117.8,294 116.2,294.1 L116,294.2 C114.9,294.3 113.9,294.5 112.8,294 C98.7,285.2 100.2,258.5 101.2,243.9 C100.6,243.7 100,243.4 99.4,243.1 C98.9,243.4 98.2,243.5 97.9,242.8 C97.2,241.1 96.2,239.4 95.6,237.7 C79.2,181.4 89.7,122.2 93,64.8 C94.3,53 94.3,37 106,30.5 C109.9,28.7 114.4,27.9 118.6,26.8 C128.2,23.9 138.3,22.6 147.6,19 C145.4,16 145.9,11.6 147.7,8.6 C149.2,6.4 151.9,8 153.6,9 C155.6,5 156.9,0.7 158.2,-3.6 Z M131.4,574.4 L131.5,574.8 C132,577 132.3,579.3 132.1,581.5 C138.2,587.4 110.1,588.1 107,588.1 C99.9,588 79.1,585.7 78,577.2 L78.1,577.4 C78.2,580.1 77.7,585.1 79.2,587.2 C90.4,593 103.4,595.3 115.9,593.8 L116.4,593.8 C121.4,593.1 130.8,591.1 133.3,586.9 C132.8,583 134.1,577.5 131.4,574.4 Z M111.2,536.1 C104.3,528.6 93.1,534.1 85.9,538.2 C85.6,541.5 83.3,542.7 83.2,546.1 C81.7,556.5 78.1,568.3 82.6,578.4 C96.1,585.6 112.1,585.1 126.7,582 C127.1,581.5 127.5,581.4 128.2,581.2 C128.7,578.1 127.8,575.1 127.2,572.1 C125.8,565.9 123.9,559.7 122.2,553.6 C119.2,551.6 118.1,547.6 116.5,544.5 C116.1,543.6 115.7,542.8 115.2,541.9 C112.8,541.1 112.1,538.2 111.2,536.1 Z M191.4,556.6 C190.7,564.1 198,567.1 204,568.9 C210.6,571.3 217.5,573.2 224.3,574.9 C238.4,578.6 253.1,580.1 267.5,577.9 L267.8,577.8 C271.9,577.1 279.4,576.2 280.4,571.4 L280.4,571.3 C280.4,570.5 280.6,567.5 280.3,566.8 C280.1,566.8 280,566.8 279.9,566.7 C278.7,570.6 274.3,572.9 270.1,573.5 C268.1,575.5 264.4,574.8 261.8,574.9 C244.2,574.7 227.3,569.3 210.6,564.2 C205.3,562.4 194.7,561.1 191.4,556.6 Z M192.9,518 C189.9,516.9 189.3,525.4 188.9,527.5 C187.9,536.3 188,550.1 195.1,556.3 C202.6,559.5 210.6,561 218.3,563.5 L220.1,564 C234.7,568.3 249.7,572.3 265,571.6 C266.1,569.3 273.5,571.2 276.3,567.1 C280,560.6 270.5,556.4 266.1,553.6 C257.5,548.1 249.4,541.7 242.2,534.5 C238.8,531.1 235.7,527.3 231.7,524.6 L231.5,524.4 C228,522.1 223.6,520.7 219.6,522.2 C215.7,523.7 214.2,528.1 211,530.5 C203.6,535.2 196.1,527.7 193.8,520.9 L193.7,520.7 C193.6,520.5 193.8,520.4 194,520.4 C194,520.4 194,520.3 194,520.2 C193,520 193,518.8 192.9,518 Z M88.8,512.2 C89.7,517.6 87,522.4 85,527.2 C84.5,530.4 86.5,533.4 86,536.6 C92.6,531.4 102.6,526.9 110.5,531.6 C110.6,527 112.1,522.6 113.5,518.3 L114,516.6 C114.5,515.3 114.9,514 115.4,512.7 C106.5,513.6 97.6,513.7 88.8,512.2 Z M218.3,504.3 C210.6,505.4 202.8,506 195,505.5 L195.9,519 L195.9,519 C195.9,519.5 195.7,519.9 195.3,520.1 C196.5,524.5 200.1,528.4 204.6,529.3 C211.5,530.2 212.4,521 218.3,519.3 C217.2,516.8 218,513.5 217.9,510.7 C218,508.6 218.1,506.4 218.3,504.3 Z M192.8,516.4 C192.7,516.7 192.5,517 192.3,517.3 C192.5,517.3 192.7,517.4 192.9,517.5 C192.9,517.2 192.9,516.8 192.8,516.4 Z M123.1,243.1 C116.3,245.4 109,245.9 102,244.1 C103.5,255.6 105,282.7 114.8,289.3 C116.4,289.1 118.1,289 119.8,289.1 C120.8,289.2 121.7,289.4 122.7,289.5 C123.1,289.6 123.8,289.6 124.3,289.6 L124.4,289.6 C124.2,289.6 124.1,289.6 124.3,289.6 L124.5,289.6 L124.6,289.6 C128,289.3 131,284.5 134.4,286.8 C134.9,286 135.6,285.6 136.2,284.9 C138.7,280.5 136,274.7 137.7,270.1 C137.1,269.2 137.3,267.9 138.3,267.1 C139.9,265.7 143.2,266.8 144.1,264.7 C144,264.8 144,264.7 144,264.6 L144,264.6 L143.9,264.5 C136.9,258.7 130.2,252.3 125.7,244.4 L125.5,244.1 C124.7,245 123.2,244.3 123.1,243.1 Z M281.4,239.2 C276.6,241.8 271.5,243.7 266.2,244.8 C265.1,255.2 263.8,265.7 262.1,276.1 L262.5,276.2 C264.9,276.6 267.4,277.2 269.4,275.5 C276.2,269 278.7,255.8 281.3,246.8 L281.4,246.4 C282,244.2 282.6,241.2 281.4,239.2 Z M212,22.8 C211.3,26.4 215.2,65.1 208.1,58.4 C203.2,50.9 197.7,43.8 192.7,36.2 C192,38.9 194,42.1 193.1,44.4 C205.7,107.4 214.8,171.4 218.2,235.6 C223.8,239.5 228.7,244.2 233.5,249 C234.9,250.3 236,252.4 237.9,253.1 C245.4,244.6 254.1,237.3 262,229.1 C261.9,228.6 261.8,228 261.7,227.5 C261.4,225.2 264.3,224 265.5,225.4 C267.9,219.3 268.1,212.2 267.5,205.7 C266.3,194.7 262.2,184.2 259.3,173.7 C250.9,141.4 245,107.5 247.8,74 C247.8,73.7 248.3,73.7 248.3,74 C250.6,109.3 254.2,144.8 264.8,178.8 L265.1,179.6 C269.2,193.3 274.4,207.9 270.8,222.3 C271.1,224.2 270.2,226.2 268.7,227.5 C268.1,229.1 267.4,230.6 266.6,232 C266.9,235.3 266.7,238.5 266.5,241.8 C271.9,240.6 277,238.4 281.9,235.7 C282.2,234.1 282.5,232.4 282.6,230.7 C286.4,200 274.9,170.1 263.3,142.3 C252.3,109.8 254.5,74.5 245.3,41.6 C239.4,28.8 223.5,27.8 212,22.8 Z M149.6,20.4 L149.2,20.6 C146.5,21.5 143.9,22.6 141,22.7 C132.1,25.6 123,27.9 114,30.4 L113.1,30.6 C109.2,31.7 105.3,32.9 102.7,36.1 C100.2,39.2 99.2,43.2 98.4,47 C94.5,80.4 92.4,114.1 90.4,147.7 C89.5,175.6 90,204 97.2,231.2 C98.2,234.9 99.4,238.7 99.8,242.5 C100.4,242.5 100.9,242.5 101.4,242.6 C101.4,242.3 101.8,242.4 101.8,242.6 C108.7,243.7 115.9,243.1 122.5,240.4 C120.9,191.4 110.4,138.3 134.1,92.9 C134.2,92.7 134.5,92.8 134.4,93 L133.9,94.7 C132,100.1 130.1,105.6 128.8,111.2 C130.7,110.9 132.1,115.3 132.4,116.4 C142.7,147.5 136.4,180.8 135.1,212.8 C152.8,225.7 170.6,238.3 189,250.1 C197.4,244.7 204.9,237.6 213.5,232.7 C211,166.6 197.5,101.1 190.2,35.8 C187.4,39.2 184.7,42.6 181.9,45.9 C178.3,50.3 174.9,54.8 171.4,59.2 C170.6,60.1 169.1,59.7 168.5,58.8 C161.6,46.3 157.2,32.5 149.6,20.4 Z M128.7,111.7 C118.5,153.6 127,196.9 126.8,239.3 C127.6,240 127.3,241.3 126.4,241.7 C126.3,242.3 126.1,242.9 125.9,243.5 C126.6,244.1 127.4,244.8 128.1,245.5 C127.5,236.2 132.2,227.8 134.9,219.2 C132.9,217.4 129.3,216.4 129.8,213.2 C130.2,206.3 130.7,199.5 131.2,192.6 L131.6,188.8 C133.9,164.5 135.8,139.8 130.5,115.8 L130.4,115.6 C130.3,114.5 129.9,111.9 128.7,111.7 Z M281.9,238.9 L281.8,239 L282,239.1 C281.9,239.1 281.9,239 281.9,238.9 Z M220.8,224.6 C218.4,222.3 222.1,218.6 224.4,221 C226.8,223.3 223.1,227 220.8,224.6 Z M219.2,197.1 C218.7,195.7 220.1,193.5 221.7,194.5 L221.7,194.5 L221.8,194.5 C223.2,195.3 222.7,197.1 221.8,198.2 C220.9,199.1 219.7,198 219.2,197.1 Z M217,165.4 C212.9,160 221.5,157.8 220.1,164.4 C219.8,165.7 217.3,167.5 217,165.4 Z M210.9,135.4 C208.7,132.7 213.4,130.4 214.4,133.6 C215,135.7 212.3,137 210.9,135.4 Z M232.8,69.3 C234.1,69.5 240.6,68.1 238.9,70.8 C241.6,84 249,100 238.4,111.5 L238.3,111.5 C236.7,113.1 234.2,116.8 231.9,115.3 C226.6,110.8 219.7,107.6 215.7,101.9 C214,97.4 215.4,92.4 215,87.8 C214.8,81.8 213.8,76 213.6,70.1 C213.6,69.8 213.9,69.7 214.1,69.8 C220.3,69.3 226.5,69.4 232.8,69.3 Z M214.3,70.2 C217.1,79.3 217.2,89.1 217.1,98.6 C217.1,99.5 217.3,100.5 217.8,101.2 C221.8,106 227.6,108.9 232.3,112.8 C234.3,111.6 235.8,110 237.2,108.2 C245.5,97.2 237.9,83.4 238,71.3 L236.9,71.3 C229.4,71.3 221.8,71.2 214.3,70.2 Z M208,104.1 L208.1,104.1 C210.9,104.1 210.3,109 207.6,108.3 C205.3,107.8 205.6,104.1 208,104.1 L208,104.1 Z M202.3,79.2 C200.3,75.8 206.9,74.5 206.2,78.5 L206.2,78.3 C206.3,78.3 206.3,78.2 206.3,78.2 L206.2,78.6 L206.2,78.6 C206,80.3 202.5,81.6 202.3,79.2 Z M197.9,51.1 C199.7,50.6 201.1,53.2 199.5,54.4 C197.2,56.1 195.2,51.7 197.9,51.1 Z M153,11.4 L152.8,11.2 C150.4,9 148.6,7.9 148.1,12.3 C147.7,14.5 148,17.3 150.1,18.5 C160.1,28.4 163.9,42.5 170.4,54.7 C176.2,47.6 181.6,40.3 187.3,33.1 C179.5,28.4 171.7,23.7 164,18.8 C160.4,16.4 156.4,14.2 153,11.4 Z M203.4,17.2 C200.4,22.1 197.6,27.4 193.8,31.7 C193.3,32.2 192.8,32.6 192.3,32.9 C193,32.7 194,33.2 193.9,34.1 C199.5,39.6 204.1,46.1 208.4,52.6 C209.3,41.8 207.7,30.9 208.3,20.1 C206.9,18.8 205.2,17.9 203.4,17.2 Z" id="🖍-Ink" fill="currentColor"></path></g><g id="Head" stroke-width="1" transform="translate(95.9, 42.7)"><g id="head/Short-4"><path d="M102.2,34.1 C102.1,31.3 98,30.1 96.8,32.9 C96.7,33 96.7,33 96.6,33.1 C97,32.8 96.2,33.3 96,33.4 C95.9,33.4 95.8,33.5 95.7,33.5 C94.9,26.4 92.3,18.6 85.6,15 C76.2,10.5 65.4,9.6 55.1,10 C49.8,10.3 43.8,11.2 39.2,8.5 C37.7,7.7 36.6,6.4 34.9,5.9 C29.8,4.5 27.5,9.8 28.2,14.1 C26,14.2 23.8,15.4 22.8,17.4 C22.3,18.6 22.3,19.8 21.8,21 C20.3,24 18.2,26.2 19.4,29.9 C17.3,32.2 18.5,35.8 20.2,38.1 C21,39.3 22,40.5 22.6,41.8 C23.2,43.1 22.3,44.6 21.8,45.8 C18.2,54.5 18.4,64.1 20.3,73.2 C16.4,75 15.2,80.3 17.8,83.7 C18.7,84.9 19.7,85.4 21,86.1 C22.6,87 21.3,90.4 21.8,92.1 C22.5,96.2 26.2,98.7 29.8,96 C32.1,95.7 34,102.4 35.7,104.1 C36.8,105.5 37.9,106.7 39.2,107.8 C42.9,117.4 62.1,122.3 71.5,121.8 C81.5,120.7 88.2,112.3 93.7,104.8 C96.6,100.9 98.5,96.4 99.1,91.6 C99.8,86.7 99.5,81.8 99.1,76.9 C98.1,66.5 96.6,51.6 95.6,41.1 C99.1,40.8 102.3,37.8 102.2,34.1 L102.2,34.1 Z" id="🎨-Background" fill="#FFFFFF"></path><path d="M24.7,27.9 C24.7,27.9 24.7,27.9 24.7,27.9 C24.7,27.9 24.7,27.9 24.7,27.9 C24.7,27.9 24.7,27.9 24.7,27.9" id="Fill-4" fill="currentColor"></path><path d="M24.7,28 C24.7,28 24.7,28 24.7,28 C24.7,28 24.7,28 24.7,28 C24.7,28 24.7,28 24.7,28" id="Fill-6" fill="currentColor"></path><path d="M101.7,35.4 C102.8,34.5 104.7,35.4 104.3,37 C103.8,38.7 102,39.9 100.4,40.6 C98.8,41.3 97.3,41.5 95.6,41.4 L95.6,41.4 L95.6,41.4 C96,43.3 96.3,45.3 96.7,47.2 C97.1,49.7 97.6,52.1 98,54.6 C98.5,57 99,59.3 99.4,61.7 C99.7,64.1 100,66.5 100.4,68.9 C100.9,73 101.4,77 101.8,81 L102.1,82.9 C102.5,87 102.9,91 102,95 C101.2,98.8 99.3,102.3 97.1,105.5 C94.9,108.5 92.5,111.5 89.9,114.2 C84.8,119.3 78.6,123.5 71.2,124.2 C68,124.6 64.7,124.2 61.7,123.1 L61.5,123 C58.5,121.8 54.8,119.8 54,116.4 C53.5,114.4 55.6,112.8 57.5,113.8 C58.3,114.2 59,114.7 59.7,115.4 L59.8,115.5 C60.4,116 60.6,116.2 61.3,116.6 C62.6,117.4 63.7,117.9 65.2,118.2 C68.1,119 71.1,118.8 74,118 C80.2,116.2 85,111.5 89,106.8 C91.3,104.2 93.4,101.6 95,98.6 C96.7,95.5 97.5,92.2 97.4,88.6 C97.4,84.6 96.8,80.6 96.5,76.6 C96.1,72.5 95.7,68.5 95.4,64.4 C95.2,60.6 95.1,56.7 95,52.9 L95,52.2 C95,50.1 94.9,48.1 94.9,46.1 C94.8,44 94.7,42 94.9,39.9 C94.9,39.8 95.1,39.8 95.1,39.9 C95.3,40.3 95.4,40.7 95.5,41.1 C95.5,41.1 95.5,41 95.5,41 C96.9,40.6 98.1,39.6 99.1,38.6 C100.1,37.7 100.6,36.3 101.7,35.4 Z M27.5,7 C28.4,3.5 32.2,2.7 35,4.4 C36.4,5.2 37.5,6.4 38.8,7.3 C40,8.2 41.4,9 42.9,9.5 C45.8,10.5 48.9,10.9 52,10.9 C59.6,10.9 67,8.8 74.5,9.1 C80.3,9.3 86.5,11 90.8,15.2 C93.1,17.5 94.5,20.4 95.3,23.5 C95.7,24.9 96,26.4 96.2,27.9 L96.2,28.3 C96.4,29.1 96.5,30 96.6,30.9 C96.6,31.7 96.4,32.5 96.3,33.3 C96.1,34.9 93.5,34.7 93.1,33.3 C92.3,30 92.7,26.6 91.6,23.3 C90.7,20.4 89,17.8 86.5,16.1 C75.8,8.7 62.1,14.9 50.3,14.3 C47.5,14.2 44.5,13.7 41.8,12.7 C40.4,12.2 39,11.6 37.8,10.8 C36.6,10.1 35.6,9.2 34.5,8.4 L34.1,8 C33.3,7.5 32.1,6.6 31.3,7.3 C31,7.6 31,8.4 31,8.9 L31,9.2 C31,11.5 31.5,13.8 30.6,16.1 C30.2,17.1 29.1,17.8 28.1,17.2 L28,17.2 C25.8,15.8 22.8,18.5 24.6,20.7 L24.6,20.8 C25.6,21.9 25.1,24 23.3,24 L23.3,24 C20.2,23.9 18.8,27.7 21.5,29.4 L21.6,29.5 C23.7,30.8 21.8,33.8 19.6,32.8 C19.8,32.9 19.5,32.9 19.3,33.1 C19.1,33.4 19.1,33.6 19.1,33.9 C19.3,34.8 20.1,35.6 20.7,36.1 C22.2,37.5 24.1,38.4 26,38.9 C33.6,41.1 41.4,38.4 48.8,36.8 C56.5,35.1 65.2,34.4 71.9,39.2 C72,39.3 72,39.4 71.9,39.4 C67,36.6 61.1,36.8 55.8,38 C48.9,39.5 42,42.3 34.9,43 C36.9,46.5 37.8,50.7 37.2,54.7 C36.9,57.4 35.8,59.8 34.5,62.3 L34.2,62.7 C33.1,64.9 32.2,67 32.1,69.5 C32.1,72 28.4,72.5 27.8,70.1 C26.3,64.5 31.6,60.2 33.7,55.6 C35.5,51.7 35.6,47.1 34.1,43.1 C32.4,43.2 30.7,43.2 29,43.1 C27.6,43 26.1,42.7 24.6,42.3 L24,44.7 C23.3,48 22.5,51.3 22.3,54.7 C22.2,57.2 22.2,59.7 22.4,62.2 C22.6,64.3 23.1,66.4 23.5,68.5 C23.9,69 24.1,69.8 24,70.4 C26.5,71.1 28.5,73.1 29.2,75.8 C29.3,75.9 29.1,76 29,75.9 C27.3,73 22.8,72 20,73.8 C17.4,75.6 16.3,79.3 17.8,82.1 C18.6,83.7 19.8,84.7 21.3,85.4 L21.6,85.6 C22.4,86 23.1,86.4 23.7,87.1 C24.3,88.1 24.3,89.2 24.3,90.3 L24.3,90.7 C24.2,91.5 24.2,92.3 24.4,93 L24.5,93.1 C24.5,93.3 24.6,93.5 24.7,93.6 C24.7,93.7 25,94 25.1,94.1 L25.3,94.1 L25.3,94.1 L25.4,94.1 L25.4,94.1 C25.6,94.1 25.8,94.1 25.7,94.1 L25.7,94.1 C25.8,94.1 25.8,94 25.9,94 L26,93.9 C26.2,93.7 26.4,93.4 26.7,93.2 L27,93.1 L27,93.1 C27.8,92.3 29.1,92.7 29.7,93.5 C30.1,94.1 30.3,94.7 30.3,95.3 C30.4,95.2 30.5,95.1 30.6,95.2 L31.1,95.9 C33.1,98.4 35.1,101 37.3,103.3 C38.6,104.6 39.9,105.8 41.3,106.9 C42.5,107.9 44.8,108.8 44.9,110.5 C44.9,111.1 44.5,111.5 44,111.7 C42.4,112.3 40.4,110.2 39.3,109.2 L39.2,109.1 C37.8,107.8 36.5,106.5 35.3,105.1 C33,102.3 31.1,99.1 30.3,95.5 C30.2,96.1 30,96.7 29.5,97.3 C28.8,98.1 27.8,98.6 26.8,98.8 C24.5,99.3 22.3,98.5 21,96.6 C19.8,95 19.5,92.9 19.6,90.9 L19.7,90.7 C19.7,90.4 19.7,89.8 19.8,89.6 L19.1,89.2 L19.1,89.2 C18.2,88.7 17.4,88.1 16.6,87.4 C13.7,84.7 12.2,80.3 13.6,76.5 C14.4,74.1 16.2,72 18.4,70.9 C18.1,70 17.9,69 17.8,68.1 L17.8,67.9 C17.5,66.4 17.3,64.9 17.2,63.4 C17.1,60.5 17.3,57.7 17.7,54.9 C18.4,50.3 20,45.5 22.7,41.6 C20.6,40.8 18.7,39.6 17.2,37.9 C15.6,36.2 14.6,33.7 15.8,31.4 C16.1,30.9 16.5,30.4 17,30 C16.2,28.5 15.9,26.7 16.4,25 C17,23 18.6,21.4 20.6,20.7 C20.1,18.7 20.5,16.7 21.9,15.1 C23.3,13.5 25.5,12.9 27.6,13.2 C27.7,11.2 27,9 27.5,7 Z M21.8,79 C23.7,78.1 25.9,78.2 27.8,79.1 L27.9,79.1 C29.9,80.1 32.7,82.4 32,84.9 C31.6,86.3 30,86.8 28.8,86.2 C27.7,85.7 27.5,84.8 27,83.8 C26.6,83.2 26.2,82.6 25.6,82.1 C24.5,81 23.2,80.2 21.8,79.5 C21.6,79.4 21.6,79.1 21.8,79 Z M69,29.3 C68.9,29.2 69,28.9 69.2,29 C73.9,30.3 78.3,33.3 80.9,37.5 C81.1,37.8 81.1,38.2 80.9,38.4 L80.8,38.5 C80.7,38.7 80.6,38.8 80.4,38.9 C79.9,38.9 79.6,38.8 79.3,38.4 C76.7,34.4 73.4,31.3 69,29.3 Z M100.6,30.1 C101,29.4 102.1,29.5 102.3,30.3 L102.3,30.3 C102.4,30.6 102.4,30.6 102.1,30.5 C102.7,30.9 102.9,31.6 102.7,32.3 C101.9,36 97.6,38.7 93.9,38.3 C93.6,38.3 93.6,37.9 93.9,37.8 C95.3,37.2 96.6,36.3 97.6,35.1 C98.6,34 99,32.7 99.5,31.4 C99.7,30.9 100,30.5 100.4,30.3 C100.5,30.2 100.6,30.1 100.6,30.1 Z M79.6,27.7 L79.6,27.7 C81.5,27.9 83.1,28.8 84.5,30.2 C85.8,31.5 87.4,33.7 87.2,35.6 C87.2,36.9 85.3,37.7 84.6,36.3 C84.2,35.6 84.1,34.7 83.9,33.9 C83.6,33.1 83.2,32.4 82.8,31.7 C81.9,30.3 80.7,29.1 79.4,28.1 C79.3,27.9 79.4,27.7 79.6,27.7 L79.6,27.7 Z M30.9,27.1 C30.5,26.7 30.9,26 31.4,26.1 C34.2,26.9 37,27.7 40,27.8 C41.4,27.8 42.9,27.7 44.4,27.5 L45.1,27.4 C46.2,27.3 47.4,27.2 48.5,27.4 C49.2,27.6 49.4,28.5 48.9,29 C46.7,31.4 42.5,31.2 39.6,30.8 C36.4,30.3 33.2,29.3 30.9,27.1 Z M81.9,19.7 C81.7,19.4 82,19 82.3,19.1 C85.1,20.2 88.1,23 88.8,26 C89,26.8 88.1,27.4 87.5,26.8 C86.4,25.7 85.6,24.4 84.7,23.2 C83.8,22 82.8,20.9 81.9,19.7 Z M35.9,21 C35.7,20.8 35.9,20.4 36.2,20.5 C38,21.1 39.9,21.7 41.8,22 C43.8,22.3 45.7,22 47.7,22.2 C48.5,22.2 49.1,23.5 48.2,23.8 C44.2,25.6 38.9,24 35.9,21 Z M40.9,17.2 C40.6,16.9 40.8,16.3 41.2,16.5 C43,17.2 44.7,17.4 46.6,17.3 C47.3,17.3 47.4,18.4 46.8,18.5 C44.7,19 42.6,18.4 40.9,17.2 Z" id="🖍-Ink" fill="currentColor"></path></g><g id="face/Old" transform="translate(37.8, 44.1)" fill="currentColor"><path d="M41.8,56.8 C40.3,56.8 38.6,56.2 37.4,55.8 L37.1,55.7 C36.2,55.3 35.1,54.8 34.4,54.1 C34.1,53.8 33.9,53.5 33.8,53.2 C33.7,53.1 33.6,52.9 33.7,52.7 C34,52.7 34.3,52.7 34.5,52.6 C34.6,52.6 34.7,52.6 34.8,52.6 C35.1,52.6 35.4,52.6 35.8,52.6 C35.8,52.7 35.8,52.7 35.9,52.7 C36.1,52.7 36.4,52.7 36.6,52.8 C37.3,52.9 38,52.9 38.7,53 C39.3,53 39.8,53 40.3,52.9 C41.8,52.9 43.2,52.8 44.3,53.8 C44.6,54 44.7,54.3 44.7,54.7 C44.7,55.1 44.5,55.5 44.3,55.8 C43.7,56.5 42.8,56.8 41.8,56.8 Z M50.1,44.1 C49.4,45.1 48.3,45.7 46.8,45.6 C43.8,45.5 40.2,44.4 37.7,42.7 C37.1,42.3 36.7,41.6 36.6,40.9 L36.4,39.6 L35.7,40.7 C35.6,40.8 35.6,40.9 35.5,41 C35.3,41.3 35.1,41.6 34.9,41.9 C34.1,43.2 33.4,44.4 32.8,45.7 C32.3,46.6 32,47.6 31.6,48.6 C31.1,50.4 30.5,52.1 29.4,53.3 C29.2,53.5 28.9,53.5 28.6,53.5 C28.4,53.5 28.2,53.4 28.1,53.2 C26.7,50.3 28.6,46.8 30.1,44.3 L30.3,44.1 C31.7,41.9 34.1,39 36.8,38.6 L37.1,39.1 L37.6,38.8 C38.3,38.3 39.3,38.3 40.1,38.7 L41,39.1 C42.5,39.8 44.1,40.5 45.8,40.8 C45.9,40.8 46.1,40.9 46.2,40.9 C46.3,40.9 46.4,40.9 46.5,41 C46.5,40.8 46.5,40.7 46.5,40.6 C46.4,40.5 46.4,40.4 46.4,40.2 C46.3,40.1 46.3,40 46.3,39.9 C46.1,39.4 46,38.9 45.8,38.4 C45.1,36.6 44,34.9 42.9,33.3 L42.8,33.1 C42.6,32.8 42.5,32.6 42.3,32.3 C41.5,31.1 40.5,29.8 40.5,28.5 C41.6,28.6 42.5,29.3 43.3,29.9 C44.5,30.7 45.5,31.6 46.4,32.7 C48.3,34.6 49.9,37.2 50.6,39.8 C51,41.3 50.9,42.9 50.1,44.1 L50.1,44.1 Z M20.8,29.1 L20.8,29.1 C20.8,27.6 21.7,24.1 23.9,24.1 C25.2,24.1 26.1,26.5 26.2,28.9 L26.2,29 C26.3,30.5 25.9,33.8 23.9,33.8 C21.9,33.8 20.8,30.7 20.8,29.1 L20.8,29.1 Z M52.9,28.7 L52.9,28.6 C52.9,27.1 52,23.6 49.8,23.6 C48.5,23.6 47.7,25.9 47.5,28.2 L47.5,28.4 C47.4,29.9 47.8,33.3 49.8,33.3 C51.8,33.3 52.9,30.2 52.9,28.7 L52.9,28.7 Z M28.2,18.9 C27.9,18.9 27.6,19 27.3,19 C26.4,19.2 25.6,19.3 24.8,19.5 C23.2,19.9 21.7,20.3 20.1,20.8 C18.7,21.3 17.3,21.8 15.9,22.4 C15.8,22.4 15.7,22.4 15.6,22.4 C15.1,22.6 14.7,22.8 14.2,23.1 C13.4,23.4 12.6,23.7 11.9,24 C13.9,21.1 17.1,19 20.1,17.5 C21.8,16.7 23.7,16 25.5,15.4 L26.5,15.1 C28,14.7 29.7,14.3 31.1,15.2 C31.7,15.5 32,16.1 32.2,16.6 C32.3,17.2 32.1,17.8 31.7,18.4 C31.4,18.8 31,19.1 30.5,19.2 C30,19.3 29.4,19.2 28.9,18.9 C28.5,18.9 28.4,18.9 28.3,18.9 L28.2,18.9 Z M50.9,19.2 C49.9,19 48.9,18.9 47.9,18.9 C47.4,18.9 46.9,19 46.5,19.1 C45.8,19.2 45.1,19.3 44.3,19.2 C43.9,19.1 43.6,18.9 43.3,18.6 C43,18.2 42.8,17.8 42.8,17.3 C42.7,16.9 42.8,16.5 42.9,16.2 C43.1,15.8 43.4,15.4 43.8,15.1 C45,14.2 47.1,14.4 48.5,14.6 C49.9,14.8 51.3,15.2 52.5,15.9 C53.7,16.6 54.8,17.5 55.6,18.6 C56.3,19.5 56.6,20.6 57,21.7 C55.4,20.4 52.9,19.6 50.9,19.2 Z" id="🖍-Ink"></path></g><g id="facial-hair/Moustache-7" transform="translate(29.2, 80.1)" fill="currentColor"><path d="M61.4,9.2 C59.9,8.9 58.2,9 56.7,8.6 C55.2,8.3 54,7.3 52.5,6.8 C51.2,6.4 49.7,6.7 48.7,7.5 C47.8,7 46.7,7 45.6,7.1 C44,7.3 42.5,8 41.1,8.7 C40.9,8.8 40.7,8.9 40.6,9 C37.9,8.9 35.2,8.9 32.6,9.5 C30.3,10 28.1,11.2 26.8,13.1 C25.2,15.3 24.9,18.1 24.7,20.7 C24.6,22.3 26.8,22.6 27.6,21.4 C28.4,20.2 29.2,19 30.3,18 C31.5,16.8 33,16.3 34.7,16.2 C38.3,16 42,16.2 45.6,16 C47.8,15.9 50.1,15.1 51,13.3 C51.9,14.7 53.9,15.6 55.6,15.7 C57.4,15.8 59.3,15.5 61,15.9 C62.7,16.2 64.7,17.5 64.4,19.5 C64.1,20.7 65.6,21.4 66.3,20.3 C69.2,16 66.4,10.1 61.4,9.2" id="🖍-Ink"></path></g><g id="accessories/*-None" transform="translate(11.2, 57.1)"></g></g></g></g></g></svg>