<svg viewBox="0 0 304 680" version="1.1" xmlns="http://www.w3.org/2000/svg" xmlns:xlink="http://www.w3.org/1999/xlink"><g id="Introduction" stroke="none" stroke-width="1" fill="none" fill-rule="evenodd"><g id="variations-standing" transform="translate(-661, -905)"><g id="a-person/standing" transform="translate(621, 854)"><g id="pose/standing/resting-1" transform="translate(-28.7, 150.3)"><path d="M124.9,125.5 L124.6,129.5 L124.3,129 C124.3,137.1 123.1,145.3 121.8,153.3 C118.3,150.5 115.5,148 116.3,143.1 C118.4,136.3 121,129.5 123.2,122.7 L123.6,124.5 L125,124.7 L124.9,125.5 Z M371.6,550.7 C371,547.9 370.3,545 369.6,542.1 C369.6,541.9 369,541.9 368.8,541.8 C365.3,533.4 362.3,531.5 355.7,530.3 C344.9,528.4 334.3,524.2 324.2,518 C324.4,517 325.1,515.4 325.7,513.7 C325.6,513.7 325.5,513.8 325.4,513.8 C325.3,513.8 325.2,513.8 325,513.8 C324.3,515.4 323.6,516.8 323.2,517.4 C321.9,516.5 320.5,515.6 319.3,514.8 L319.3,514.8 C318.2,514 316.8,513.1 315.7,512.5 C315.5,511.3 313.9,511 313,510.3 C311.4,509.1 310.4,508.5 308.9,510 C305.6,505.7 303,501.2 300.4,495.4 C298.7,491.9 297.9,488.2 295.7,485.1 C295.8,485.1 297.2,484.7 297.2,484.6 C272.3,429.5 268.3,368.2 263,309.2 C261.8,296.1 260.6,282.8 258.3,270 C258,268 257.7,266.1 256.5,264.6 C270.5,253.1 270.7,230.7 263.9,214.2 C279.5,172.1 248.9,127.5 251.2,84.6 C252.4,55.6 247.2,21.9 214.3,14.9 C210.2,12.5 205.3,12.2 201.4,12.1 C197.9,10.4 197.3,6.5 196.1,3.2 L194.9,3.2 C194.5,1.8 194.2,0.2 193.9,-1.3 C193.4,-2.2 193.7,-3.4 192.2,-3.1 C188.9,-7.9 162.5,-10.3 162.2,-2.6 C161.2,-2.1 161,-1 160.8,0.4 C159.3,9.8 149.2,17.3 140.1,15.8 L140,15.7 C101.2,14.3 85.9,41.8 78.4,79.3 C72.4,108.4 68.7,140 73.3,169.2 C77.8,182.5 91.6,188.8 102.2,197 C101,200 100.8,203.4 100.8,206.8 C100.7,210.6 100.4,214.5 100,218.3 C99.3,223.1 98.2,231.4 104.8,231.9 C107.3,289.3 112.6,346.6 104.5,404.2 C97.8,436.1 100.4,474.6 108.7,505.8 C109.1,507.3 110.4,508.7 112,508.2 C112.8,508.7 113.4,509.1 114,508.6 C114.4,509.3 114.9,510 115.3,510.7 C115.5,519.2 116.5,527.6 116,536.2 C115.4,536.2 113.9,535.4 113.3,535.9 L113.3,536.6 L112.7,536.8 C111.6,539.9 110.9,543.2 110.4,545.9 C108.1,550.5 105.2,558.7 106.8,563.8 C106.7,563.9 106.3,564.4 106.2,564.5 C105.8,564.7 105.8,565 105.7,565.3 C104.6,565.7 104.5,567 104.3,568.3 C103.8,571.4 104.6,574.2 104.9,577.3 L104.9,577.3 C104.9,577.3 105.8,578.3 105.8,578.3 C117.5,579 129,579.2 140.6,579.6 C141.4,578 141.7,575.7 142.4,573.9 C156.1,583.9 179.9,580.1 197.2,577.6 C204.2,576.6 210.9,575.6 216.7,575.3 C217.1,575.3 217.2,575.1 217.2,575 C217.2,572.7 217.7,570.3 217.4,568.1 C218.6,566.9 218.1,564.7 217.3,562.9 C214.2,556.2 205.9,555.5 199.1,554.4 C186.4,551.9 176.2,547.3 167.9,540.2 C168.5,539.7 169,539.2 169.4,538.7 C169.3,538.6 169.1,538.5 168.9,538.4 C168.5,538.2 168.1,538 167.7,537.7 C167.5,537.9 167.2,537.9 167,537.7 C166.2,537.3 165.5,536.6 164.7,536.1 C164.5,536.3 164.4,536.5 164.2,536.8 C163.5,536 162.6,535.1 161.9,534.2 C161.8,534 161.9,533.4 161.6,533.4 C159.5,533.6 157,534.3 154.8,535.1 C152.3,526.8 150.8,517.9 151,509.5 C153.5,509.5 155.6,509.4 157.5,508.3 C158,508.4 158.7,508.7 158.8,507.9 C159.6,504.7 159.8,501.3 160,498 C163.8,435.4 169.6,385.1 189,332.2 C190.8,339.5 193.9,347.2 196.8,354.5 C209.7,385.1 219,418.1 227,450.2 C230.1,462.3 233.5,475.5 236.9,487.4 C238.2,493.1 240.9,495.2 246.4,495.1 C250.7,495.3 255,495.3 259.3,495 C265.2,500.3 267.6,507.5 269.3,514 C267.9,515.1 265.6,514.7 264,515 C262.5,517.4 263,520.6 263,523.5 C263.3,527.2 263.1,531.2 264.2,534.7 C264.4,538.5 264.4,542.7 264.7,547.2 C261.5,549 262.1,553.1 263.1,557 C263.6,558 280.7,557.8 284.9,557.7 C289.9,557.4 297,558.7 298.7,553.2 C310.5,559.8 328.6,557.6 342.4,555.7 C352.5,554.4 361.6,553.3 371.4,551.2 C371.5,551.2 371.7,550.9 371.6,550.7 L371.6,550.7 Z" id="🎨-Background" fill="#FFFFFF"></path><path d="M264,514.9 C266.6,516.4 268.8,518.7 271.6,520 C283.7,526.1 299.1,522.8 308.4,513.1 C309.7,513.1 310.7,511.7 310.5,510.4 C313.2,510.6 315.4,512.8 317.5,514.4 C317.2,516.4 317.3,518.4 318.1,520.2 C318.2,520.4 318.5,520.4 318.5,520.2 C318.7,518.8 319,517.4 319.3,516 C319.9,516.5 320.5,516.9 321.1,517.4 C321.1,518.5 322.4,519.4 323.4,519 C331.5,524.5 340.8,528.5 350.4,530.8 C357.9,532.3 361.8,532.2 365.2,540.1 C363.9,540.3 362.7,540.9 360.8,541.4 C329.4,545 297.7,541.1 266.2,543.7 C265.8,536.8 265.4,529.9 265,523 C264.8,520.5 264.7,518 263.8,515.7 C263.8,515.4 263.8,515.2 263.9,514.9 C263.9,514.9 263.9,514.9 264,514.9 Z M265.1,497.9 C265.2,497.5 264.9,497.1 264.5,496.8 C264.1,496.1 263.6,495.4 263.1,494.9 C274,493.9 284.5,490.6 294.7,487.1 C296,495.9 300.3,503.9 305.3,511.2 C296.9,519.9 283.2,522 272.2,517.3 C272.9,515.6 271.4,513.3 270.9,511.6 C269.6,507.6 267.7,503.8 266,499.9 C265.8,499.3 265.5,498.6 265.1,497.9 Z M262.9,497.8 C263,497.8 263,497.9 263.1,497.9 C263.2,498 263.2,498.1 263.2,498.2 C263.1,498.1 263,498 262.9,497.9 C262.9,497.8 262.9,497.8 262.9,497.8 Z M162,534.1 C162.2,534.5 162.4,534.8 162.7,535.2 C162.2,535.5 158.8,542.8 160.7,541.6 C161.8,540.1 162.8,538.6 164,537.1 C164.3,537.5 164.6,538 165,538.4 C163.8,539.2 164.3,541.2 165.8,541.2 C166.4,541.2 166.8,541.1 167.3,540.9 C174.4,547.6 183.6,551.6 192.9,554.1 C200.6,556.5 215.1,555.2 215.5,566.2 C214.7,566.2 213.9,566.4 213.3,567 C179.3,578.5 144.1,566.4 109.8,563 C110.3,562.1 109.7,560.4 108.4,560.4 C108.4,552.7 110.6,545.1 113.6,538.1 C131.1,554.8 143.6,538.5 161.2,534.5 C161.5,534.5 161.8,534.3 162,534.1 Z M171,531.1 C170.9,531.1 170.8,531.1 170.8,531.1 C170.1,533.5 168.5,535.6 166.6,537.2 C166.1,536.7 165.6,536.2 165.1,535.7 C166.4,534.2 167.8,532.9 169.4,531.7 C169.9,531.4 170.4,531 171,531.1 Z M103.1,223.9 C102.7,222.2 103.2,220.5 103.2,218.8 C103.6,214.2 104.1,209.6 104,205 C103.9,203.3 103.9,201.7 104.3,200.1 C104.1,199.7 103.8,200.7 103.6,200.8 C103.6,200.7 103.6,200.5 103.6,200.4 C103.7,200.2 103.9,200 104.2,199.8 C113.3,207.4 122.1,215.2 130.6,223.4 C131.5,224.3 132.8,224.2 133.7,223.4 C135.6,221.8 137.5,220.2 139.5,218.8 C140.1,221 141.2,223.1 142.4,225.1 C134.6,226 126.9,223.9 119.2,223.3 C114,222.9 108.8,223.2 103.6,223.9 C103.5,223.9 103.3,223.9 103.1,223.9 Z M120.3,150.2 C117.6,147.8 116.4,146.3 116.8,142.6 C118.4,137.1 120.5,131.8 122.2,126.4 C122.5,127.6 122.5,128.7 122.6,129.9 C122,136.7 121.5,143.5 120.3,150.2 Z M123.1,124.5 C123,124.4 123,124.4 122.9,124.3 C123,124.1 123.1,123.9 123.1,123.8 C123.1,124 123.1,124.3 123.1,124.5 Z M74,166.2 C74,163.3 73.6,160.4 73.5,157.5 C72.1,133.2 73.8,108.7 78.6,84.8 C84.8,51 96.5,17.1 136.8,16.4 C138.2,17.7 138.7,19.7 139.5,21.4 C141.8,26 145.3,30.1 149.3,33.5 C165.9,47 209.7,62.3 213.5,29.7 C213.6,28.7 213.5,27.6 213.3,26.6 C213.7,25.4 213.5,24 213.3,22.8 C213.4,21.9 213.2,20.8 212.7,19.9 C212.8,19.8 212.9,19.7 212.9,19.7 C211.1,16.2 208,15.1 204.6,13.8 C204.1,13.3 204.5,12.3 205.2,12.6 C206.8,13.1 208.5,13.5 210.2,13.8 C210.4,13.9 210.5,14 210.6,14.1 C249.7,25.9 248.4,58 247.8,92 C248.4,128.5 269.6,162.8 263.4,199.8 C256.1,155.2 241.7,111.9 238.5,66.6 C238.2,62.5 237.6,58.5 237.2,54.5 C236.9,52.8 236.7,48 236.1,48.8 C233.3,64.4 235.5,80.4 237.8,95.9 C243,127.4 251.5,158.2 257.3,189.6 C260.4,203.5 260.8,218.2 246.8,226.2 C231.6,234.6 212.8,232.9 196.4,229.5 C195.1,229.2 194.1,229.9 193.6,230.8 C190.4,224.1 183.2,220.8 178.6,215.4 C173.9,209.4 170.8,202.3 166.5,196.1 C167,192.3 163.4,186.3 159.4,186.2 C149.2,175.6 138.1,165.7 126.2,157 C126,156.5 125.6,156.2 125.2,155.7 C124.8,154.9 124.4,153.8 124.5,152.9 C126.3,142.4 126.8,131.6 123.9,121.3 C129,105.6 132,89.4 134.9,73.3 C135.2,72.5 133.9,72.1 133.7,72.9 C133.4,74.6 133,76.4 132.7,78.1 C126.9,99.5 119.9,120.6 112.4,141.5 C111.5,144.4 110.7,147.3 111.2,150.4 C111.6,152.2 114.3,152 114.6,150.2 C115.2,150 115.8,150.2 116.2,150.5 C116.2,150.5 116.2,150.5 116.2,150.5 C119.9,155.7 124.7,159.9 129.5,164 C137.9,171.1 146.1,178.4 153.8,186.1 C155.7,188.5 161.8,192.7 162.3,195.9 C161.5,201.6 155.5,204.3 150.9,206.6 C144.2,209.8 137.8,214 132.2,219 C120,207.7 107.2,196.9 93.8,187.1 C86.1,181.6 76.5,176.1 74,166.2 Z M211,20.2 C211.1,20.4 211.1,20.5 211.1,20.7 C211,20.5 210.8,20.3 210.7,20.1 C210.8,20.1 210.9,20.2 211,20.2 Z M255.1,261 C255,260.6 254.9,260.2 254.7,259.8 C255.1,258.1 255.6,256.5 255.8,254.7 C259.3,251.2 261.4,246.4 262,241.5 C262.1,240.1 262.2,238.7 261.2,237.6 C260.8,237.2 260,237.1 259.6,237.6 C258.3,239.2 258.6,241.5 258.2,243.4 C257.2,247.4 255,251.2 251.8,253.7 C249.9,255.2 247.6,257.1 245.6,257.6 C247.2,251.3 250.7,245.3 251.2,238.7 C251.3,236.7 251.2,234.9 250.7,233 C250.4,231.8 249.9,230.8 250.3,229.6 C255.2,226.4 259.5,221.9 261.7,216.4 C262.5,216.5 263.3,216.2 263.6,215.3 C265.4,228.2 267.7,241.9 261,253.8 C259.4,256.5 257.5,259 255.1,261 Z M185.4,231 C183.5,229 181.8,226.9 180,224.8 C178.2,222.9 175,225.9 178.3,228.7 C184,235.9 183.8,244.8 181.1,253.1 C180.6,250.9 180.2,248.8 179.5,246.7 C177.8,241.6 175.1,236.7 171.8,232.4 C171,231.3 168.9,231.9 169.5,233.4 C171.1,238.1 171.9,243.3 171.1,248.3 C170.8,250.6 169.8,252.8 169.6,255.2 C169.6,256 170.1,258.1 168.8,257.6 C168.3,257.4 167.8,256.4 167.6,255.7 C166.6,252.2 166.8,248.6 166.4,245 C165.9,240.4 165.1,235.7 161.8,232.2 C161.1,231.4 160,231.9 159.7,232.7 C157,239.1 159.8,246.9 155.1,252.4 C154.9,252.7 153.5,254 153.3,253.8 C153,253.5 153.3,251.9 153.4,251.5 C156.6,238.3 145.7,227.3 141.8,217.1 C149.6,210.7 162.8,208.7 166.2,198.3 C169.3,205.2 172.1,212.5 177,218.4 C181.9,224.2 191.1,228 191.4,236.5 C189.1,235.2 187.3,232.9 185.4,231 Z M115.2,507.2 C121.2,507.3 127.2,509.1 133.2,509 C138.6,509.2 144.1,509 149.6,508.6 C147.5,516.8 148.3,526.3 151.1,534.2 C140.4,539.2 130.7,546.3 119.1,539.3 C118.9,538.3 118.6,537.3 118.3,536.3 C118.4,535.8 118.5,535 118,534.6 C118,525.4 117.1,516.2 115.2,507.2 Z M324.6,507.3 C325.3,508 322.8,513.8 322.2,514.8 C321.4,514.4 320.7,513.9 320,513.4 C320.6,511.8 321.3,510.2 322.4,508.7 C322.7,508.3 323.9,506.7 324.6,507.3 Z M370.1,541 C370,540.5 369.5,540 369,539.9 C367.5,536 365.1,532.1 361.3,530.1 C359.1,528.9 356.5,528.5 354.1,528.1 C343.8,526 333.9,522 325,516.6 C325.8,514.1 326.7,511.6 327.2,509 C328.1,506.1 325.8,503.7 322.9,504.9 C320.3,506.1 318.8,509.5 318,512 C317.4,511.6 316.7,511.2 316,510.8 C315.7,509.8 314.5,509.3 313.6,508.8 C312.1,507.8 310.2,506.1 308.5,507.4 C305.4,503.3 302.9,498.7 300.8,494 C299.1,490.6 298.5,486.9 296.2,483.9 C296.5,481.8 295.2,479.8 294.4,477.9 C293.6,476.3 292.9,474.6 292.2,472.9 C277.6,433.3 272.4,390.8 266.3,349.2 C261.9,321.2 262.5,292.5 256.3,264.8 C271.4,252.6 271,230 264.5,213.2 C278.5,174.1 254.7,135.1 251.8,96.1 C250.9,67.7 255.7,33.5 226,17.4 C222.3,15.4 218.2,13.7 214,12.9 C210.1,10.7 205.5,10.1 201,10.1 C198.5,8.7 197.8,5.6 196.9,3.1 C196.7,2.2 196.1,1.2 196,0.3 C196,0.2 195.9,0.2 195.9,0.3 C192.4,9.4 201.2,18.9 210,20 C214,34.1 205.6,46.7 190.4,45.9 C172.9,44.6 148,34.9 141.7,17.1 C144.5,17 147.2,16.2 149.8,15.3 C150.4,15 151.3,15.1 151.6,14.5 C157.7,11.4 162.4,5.7 163.4,-1 C163.4,-1 163.3,-1 163.2,-0.9 C163.3,-1 163.4,-1 163.4,-1.1 C163.5,-2.1 163.5,-3.2 163.4,-4.2 C163,-4.6 162.3,-4.8 161.6,-4.7 C159.2,-4.2 159.2,-1.8 158.8,0.1 C158.5,1.7 157.8,3.3 157,4.7 C153.5,10.6 146.9,14.7 140,13.8 C139.6,13.5 139.2,13.4 138.8,13.5 C138.8,13.6 138.8,13.6 138.9,13.6 C98.1,12.1 83.6,43.3 76.5,78.2 C70.9,103.7 68.6,130 70,156.2 C70.3,159.2 69.9,167.4 71.9,169.2 C76.2,182.4 89.8,188.6 100.1,196.5 C99,199.6 99,202.9 98.9,206.2 C98.8,209.9 98.5,213.6 98.2,217.3 C97.9,220.6 97,224.4 98.2,227.6 C99,229.7 100.7,231.8 103,232.1 C103.6,237.7 103.8,243.4 104.3,249 C104.9,300.4 110.8,352 102.7,403.2 C99.7,422.6 97.2,442.2 99.2,461.9 C100.8,476.5 103.7,490.9 106.8,505.2 C107.4,507.1 108.9,508.9 111,508.6 C111.8,509 112.7,509.4 113.4,509 C113.6,518.1 114.7,527.2 114.1,536.4 C113.6,536.1 113.2,535.9 112.8,535.6 C112.5,535.1 112,534.5 111.4,534.9 C111.2,534.8 111.1,534.9 111.1,535.1 C110,538.1 109.2,541.4 108.6,544.6 C106.4,548.9 105,553.6 104.6,558.3 C104.4,560.2 104.1,562.6 105.7,563.9 C105.1,563.9 104.4,564 104.2,564.6 C103.4,566.6 102.1,578.7 105.1,578.6 C116.7,579.3 128.3,579.5 139.9,579.9 C140.5,580 141.1,579.5 141.2,578.9 C141.6,577.5 142,576.2 142.4,574.8 C160.8,584.9 204.6,579 215.7,576.8 C218,576.8 218.1,569.7 218,567.6 C219.3,565.9 218.5,563.2 217.7,561.5 C214.3,554.3 205.6,553.5 198.7,552.3 C188,550.3 177.5,546.2 169,539.3 C171.3,537.1 174,533.5 173.7,530.3 C173.4,528.9 172.2,528.1 170.8,528.2 C167.6,528.4 165.3,531.8 163.5,534.1 C163.1,533.7 162.7,533.3 162.4,532.9 C162.3,532 161.8,531.2 160.8,531.3 C158.8,531.5 156.9,532 155,532.6 C154.5,530.5 153.7,528.4 153.2,526.2 C152,520.8 151.7,515.3 151.5,509.7 C153.8,509.7 155.2,509.6 156.9,508.7 C157.9,508.9 159,508.6 159.3,507.3 C160.3,503.1 160.3,498.7 160.6,494.4 C163.9,439.8 169.9,384.9 188.9,333.2 C190.8,339.5 193.4,345.5 195.7,351.6 C211.2,392.1 220.9,434.4 232.2,476.2 C233.1,479.7 234.1,483.2 235.1,486.7 C236.4,492.7 239.3,495.5 245.7,495.4 C249.9,495.6 254,495.6 258.2,495.3 C263.1,499.9 265.5,506.2 267.2,512.5 C266,513.1 262.3,512.2 262.1,513.9 C260.5,516.5 261.2,519.7 261.2,522.6 C261.4,526.4 261.2,530.5 262.4,534.1 C262.4,538 262.6,541.8 262.8,545.7 C259.4,548.1 260.4,553 261.3,556.5 C261.1,558.9 281.4,557.8 284.3,558 C289,557.6 296,559.1 298.6,553.9 C314.3,561.7 336.2,556.2 353.1,554.6 C359.1,553.7 365.1,552.7 371,551.5 C371.8,551.3 372.3,550.4 372.1,549.6 C371.4,546.7 370.8,543.9 370.1,541 Z" id="🖍-Ink" fill="currentColor"></path></g><g id="Head" stroke-width="1" transform="translate(95.9, 42.7)"><g id="head/Hijab"><path d="M61.8,24.9 C97.6,26.1 99.7,43 99.7,71.4 C99.7,99.8 81.2,117.7 74.3,120.9 C67.5,124 49.5,137.4 33.3,131.2 C17.1,125 21.8,98.9 21.8,87.7 C21.8,76.4 26.1,23.8 61.8,24.9 Z" id="Path-2" fill="#FFFFFF"></path><path d="M76.3,111.5 C69.8,115.2 62.2,115.3 55.2,113 C50.9,111.7 47.1,109.5 43.4,107 C40.3,104.8 37.4,102.3 34.6,99.7 C32.3,94.6 30.3,89.6 29.3,84.1 C28.5,79.1 28.4,74 29.4,69 C36.7,63 44.1,56.9 51.4,50.8 C55.1,47.6 58.9,44.5 62.6,41.5 C64.6,39.9 66.5,38.4 68.4,36.8 C68.7,36.6 69,36.3 69.3,36 C73.3,38.9 77.5,41.4 81.4,44.3 C83.5,45.9 85.5,47.5 87.4,49.2 C88.4,50.1 89.4,51.1 90.3,52 C91.2,52.9 92,54.1 93.2,54.5 C93.4,54.5 93.6,54.5 93.7,54.5 C95.4,68.9 96.5,84.5 89.5,97.5 C86.4,103.2 82,108.3 76.3,111.5 Z M33.6,116.8 C32.7,116 34.1,114.7 35,115.5 C40.6,120.7 48,123.4 55.5,124.7 C56.7,124.9 56.2,126.7 55,126.5 C47.2,125.2 39.5,122.2 33.6,116.8 Z M26.8,124.8 C25.7,124.2 26.7,122.5 27.8,123.1 C32.2,125.5 37,126.7 41.9,127.5 C43.1,127.7 42.6,129.6 41.4,129.4 C36.4,128.5 31.4,127.2 26.8,124.8 Z M44.8,44.9 C48.4,41.6 52.3,38.5 56.5,35.9 C60.7,33.2 65.3,31.6 70.2,31.6 C69.9,31.9 69.6,32.2 69.2,32.4 C68.3,33.2 67.3,34 66.4,34.8 C64.5,36.5 62.7,38.1 60.8,39.7 C57.2,42.9 53.6,46.1 49.9,49.3 C43,55.5 36.2,61.8 29.5,68.3 C29.5,68.2 29.6,68 29.6,67.9 C31.8,58.7 37.8,51.1 44.8,44.9 Z M73.4,32 C73.4,31.9 73.4,31.8 73.5,31.8 C83,33 90.9,40 93.5,49.2 C93.3,49.5 93.2,49.9 93.2,50.3 C93.3,50.5 93.3,50.7 93.3,50.9 C93,50.6 92.6,50.3 92.4,50 C91.4,49 90.4,48.1 89.4,47.2 C87.4,45.3 85.3,43.6 83.1,42 C79.2,39.2 75,36.6 70.3,35.2 C70.6,35 70.9,34.7 71.2,34.5 C72.2,33.7 73,33.1 73.4,32 Z M90.5,22.1 C84.6,15.8 76.5,11.1 68,9.5 C59.9,7.9 51.5,9 43.8,12 C27.7,18.3 15,32.1 9.1,48.2 C5.6,57.6 4.5,67.8 5.5,77.7 C6.6,87.6 9.5,97.8 15,106.2 C15.4,106.9 16,107.7 16.6,108.4 C16.3,111.3 15.3,114.1 13.8,116.6 C13.7,116.7 13.6,116.9 13.6,117 C12,118.1 10.4,119.2 8.8,120.4 C7.4,121.4 6.1,122.4 4.8,123.4 C3.6,124.5 2.2,125.6 1.3,127 C0.7,128.1 0.4,129.7 1.3,130.7 C2.4,132 4.3,131.6 5.8,131.6 C5.9,131.6 6.1,131.6 6.2,131.6 C6.6,131.9 7.1,132.1 7.5,132.4 C12.1,134.8 16.7,137.2 21.2,139.5 C30.4,144.2 39.4,149.2 48.7,153.5 C53,155.5 57.6,157.3 62.5,157.3 C67,157.3 71.1,155.5 74.6,152.8 C78.6,149.6 82,145.7 85.3,141.8 C86.6,140.3 87.9,138.7 89.1,137.1 C91.5,136.3 93.9,136.1 96.1,137.6 C97.8,138.9 100.1,137.2 100.1,135.3 C100.1,134.7 100.1,134 100,133.4 C99.6,129.4 97.7,125.8 95.5,122.4 C94.3,120.6 93,118.8 91.7,117 C91.4,116.6 91.1,116.2 90.8,115.8 C96,108.3 100,99.9 102.5,91.2 C105.1,82.1 106,72.6 105.4,63.1 C104.5,48.5 100.5,33.1 90.5,22.1 Z" id="🖍-Ink" fill="currentColor"></path></g><g id="face/Smile" transform="translate(37.8, 44.1)" fill="currentColor"><path d="M34.8,57.1 C33.2,56.5 31.8,55.4 30.8,54 C30.4,53.5 30.3,53 30.4,52.5 C30.5,52 30.8,51.5 31.2,51.2 C31.6,50.9 32.1,50.7 32.7,50.8 C33.1,50.9 33.5,51.1 33.9,51.6 L34,51.7 C34.6,52.6 35.4,53.3 36.3,53.7 C37.2,54.1 38.2,54.3 39.2,54.2 C41.2,54 42.5,52.9 43.9,51.5 C44.1,51.3 44.3,51.1 44.5,50.9 C44.6,50.8 44.7,50.7 44.9,50.6 C45.1,50.5 45.3,50.5 45.5,50.6 C45.7,50.7 45.9,50.8 46,51 C46.1,51.1 46.2,51.3 46.2,51.6 C46,53.1 45.3,54.4 44.2,55.4 C42.9,56.6 41.3,57.4 39.8,57.6 C38.1,58 36.4,57.7 34.8,57.1 L34.8,57.1 Z M40.6,34.2 C42.4,35.3 45.1,37.8 43.2,40.5 C40.9,42.9 37.6,40.2 36,39 C34.5,38 32.8,40.5 34.2,41.6 C45.9,50.2 50.6,34.5 41.5,32.9 C40.5,32.8 40.1,33.9 40.6,34.2 Z M19.7,24.2 C19.9,21.8 23.6,21.2 24,23.6 C24.4,25.8 24,27.8 23,29.8 C22,31.6 19.7,30.8 19.5,29.1 C19.3,26.8 19.6,25.7 19.7,24.2 Z M48.2,23.1 C48.7,22.4 49.5,22 50.4,22.2 C53.2,23.1 52.4,27.1 51.4,29 C50.9,30.1 49.1,30.3 48.3,29.4 C47,27.9 46.4,24.9 48.1,23.4 C48.1,23.3 48.2,23.2 48.2,23.1 Z M22.9,13.5 L23.4,13.4 C24.8,13.2 26.5,12.9 27.5,14 C28,14.6 28.2,15.7 27.5,16.3 C26.2,17.3 24.9,16.9 23.4,17 C22.2,17 21,17.2 19.9,17.6 C17.3,18.3 15.2,19.6 13.1,21.1 C12.8,21.3 12.5,20.9 12.6,20.6 C13.9,18.2 16.3,16.2 18.8,14.9 C20.1,14.3 21.5,13.7 22.9,13.5 Z M45.6,12.4 L46,12.4 C49.7,13.2 54.5,14.8 56.3,18.4 C56.3,18.9 56.3,19 56.2,19.1 L56.2,19.1 C56.2,19.2 56.1,19.3 55.9,19.3 C55.8,19.3 55.8,19.3 55.7,19.3 C54.9,19.1 54.3,18.8 53.6,18.5 L53,18.2 C52.2,17.8 51.4,17.4 50.6,17.1 C48.8,16.6 47,16.2 45.1,15.9 C44.7,15.9 44.3,15.8 44,15.5 C43.8,15.3 43.5,15 43.4,14.6 C43.3,14.1 43.3,13.7 43.6,13.2 C43.8,12.9 44.1,12.6 44.5,12.5 C44.8,12.3 45.2,12.3 45.6,12.4 Z" id="🖍-Ink"></path></g><g id="facial-hair/*-None" transform="translate(29.2, 80.1)"></g><g id="accessories/*-None" transform="translate(11.2, 57.1)"></g></g></g></g></g></svg>