<svg viewBox="0 0 246 713" version="1.1" xmlns="http://www.w3.org/2000/svg" xmlns:xlink="http://www.w3.org/1999/xlink"><g id="Introduction" stroke="none" stroke-width="1" fill="none" fill-rule="evenodd"><g id="variations-standing" transform="translate(-3102, -1672)"><g id="a-person/standing" transform="translate(3085, 1658)"><g id="pose/standing/walking-1" transform="translate(-28.7, 150.3)"><path d="M287.9,562.6 C289.6,554.8 281.9,552.2 277.1,550.4 C273.6,548.2 260.9,540.5 251,530.9 C242.9,523.1 237.4,513.1 235.1,512.1 C233.5,511.2 232.6,510.4 232.5,509.7 C231,503.8 232.2,498.2 232.5,494.6 C237.1,493.4 240.8,491.9 243.5,489.8 C244.3,490.1 245.5,490.4 245.9,489.3 C248.4,472.6 249.5,456.2 251.5,439.6 C259.2,376.3 260,302.3 246.8,244.5 C246.7,241.6 246.9,239 247.2,236.5 C249,236.3 250.1,234.6 251.5,233.6 C253.8,231.8 256.5,230.4 256.3,227.3 C256.9,226.9 256.8,226.6 256.6,226.1 C258.3,218.7 250.6,210.9 248.4,204.8 C252.4,166.1 247,129.5 250,90.9 C253.8,89.3 251.2,79.4 251,75.3 C248.9,48.9 235.1,22.9 210.4,14.3 C209,14 206.9,12.4 205.7,13.4 C203.5,12.5 200.4,14.3 198.7,12.3 L198.7,12.3 C197.2,10.2 196.6,7.6 196.1,5.2 C196.2,5.9 196.3,6.6 196.5,7.2 C192.2,-4.8 191.1,-8 177.4,-8.5 C171.3,-8.6 163.1,-8.4 159.5,-2.5 C158,0.2 158.5,3.3 157.6,6.2 C155.9,11.5 148.6,8.9 144.8,11.7 C114.3,21.4 89.3,41.4 81.1,73.4 C79.4,77.2 77.5,81.1 76.1,85 C75.8,85.6 75.3,87.6 76.7,88.6 L77.4,89 C68.2,131.7 67.6,167.7 98.4,196.2 C100.7,208.4 94.8,225.1 97,237 C95.7,238.8 97.4,240.3 99,240.4 C99.2,240.5 99.9,240.8 100,240.9 C97.4,278.2 108.5,328.4 113.4,348.2 C114.1,360.2 110,369.9 101.6,376.4 C92.4,382.1 74.1,407.8 77.4,434.8 C73.5,435.5 69.5,436 65.7,437.5 C49.1,434.5 49.3,466.5 48.2,477.8 C46.4,496.6 45.3,524 63.2,536 C68,539.5 77.5,543.5 82.5,538 C84.1,536.1 84.5,534.2 83.8,532.2 C91.9,520.8 89.8,505.8 90.5,492.4 C92.9,492.3 95.3,493.4 97.6,493 C99.9,490.9 91.4,491.5 90.5,491.4 C90.6,489.3 90.8,487.1 91,485 C92.3,485.3 94,485.9 95.3,486 C96.1,486.2 96.6,485.1 96.2,484.6 C95.2,483.6 92.6,483.8 91.2,483.6 C91.4,481.9 91.7,480.1 92,478.4 C93.8,478.3 95.6,479.4 97.3,479.2 C96,478.4 93.7,478.6 92.1,478.1 C93.1,472.6 95.2,467.5 97.1,462.4 C101.7,464.3 105.7,464.4 110.2,463.8 C112.1,464.1 113,463.7 113.3,461.4 L113.2,461.2 C116.8,439.8 128.4,419.3 149.9,396.1 C154.2,391.3 159,385.7 162.2,379.5 C168.7,366.4 169.8,352.1 174.7,338.5 C179.4,324.9 185.7,311.9 191.6,299 C192.5,305.6 193.7,312.4 194.9,318.9 C200.3,341.9 199.7,366.3 195.8,389.4 C190,421.8 192.8,454.2 191.5,486.8 C191.5,488.7 191.7,490.4 191.4,492.3 C191.4,492.5 191.5,492.7 191.7,492.7 L192,492.7 C194.8,494.7 198.7,495.1 202,496.2 C203.4,497.3 203,499 203.1,500.4 C203.5,506.2 203.9,512 203.3,518 C200.8,522.9 197.6,521.9 197,528.8 C196.4,536.6 195.4,544.9 199.3,551.9 L197.8,552.1 C195.7,556.6 197,559.5 202,561.4 C226.9,571.2 261.9,580 287.9,572.7 C288.4,573.1 289.1,572.7 289.6,571.9 C290.1,571.2 290.5,570.3 290.4,569.7 C290,567.4 290.6,563 287.9,562.6 Z" id="🎨-Background" fill="#FFFFFF"></path><path d="M289.1,570.4 C266.7,580.4 226.1,567.7 204.1,560.4 C198.2,558.3 196.2,557.9 197.9,551.1 C201,557 207.7,558.5 214.1,559.7 C235.8,564.6 257.9,573.7 281,569.3 C284.5,568.7 287.8,566.9 288.8,563.5 C289.4,564.9 289,566.9 289.3,568.5 C289.3,569.1 289.3,569.8 289.1,570.4 M198.6,533.1 C199,529.1 199.7,524.8 202,521.3 C201.7,527 205.2,536.8 212.7,533.5 C214.9,532.4 216.1,530.1 217.5,528.3 C222.1,522.2 227.9,517 234.6,513.2 C238.3,513.8 239.9,520.6 242.2,523.4 C239.6,524.6 234.8,527.3 234.3,530 C237.6,528.9 240.7,526.9 244.1,526.1 C245.3,527.7 246.4,529.1 247.7,530.6 C246.1,531.3 239.5,534.6 239.6,536.2 C243.1,535.7 246.5,533.9 250.1,533.2 C251.6,534.8 253.1,536.5 254.7,538 C252.3,539 249.8,540.1 248.5,542.4 C248.4,542.5 248.6,542.6 248.6,542.5 C250.4,540.4 253.5,540 256.1,539.5 C260.2,543.3 264.8,546.7 269.9,549.2 C275,552 282.7,552.6 284.8,558.7 C286.4,564.7 281.3,565.4 276.6,565.8 C271.9,566.5 267.2,566.6 262.5,566.2 C247.8,565.6 233.9,561.2 220,557.5 C203.1,554.4 197.5,551.8 198.6,533.1 M203.6,497.8 C203.6,498 203.5,498.3 203.5,498.6 C203.4,498.3 203.4,498 203.3,497.7 C203.4,497.7 203.5,497.7 203.6,497.8 M231,511.3 C224.5,516 218.2,521.4 213.7,528.1 C210.7,533.5 206.7,530.2 205.7,525.9 C204.9,516.1 205.6,507.7 204.7,497.9 C213.6,499.1 222.9,498.4 231.7,496.2 C230.6,500.6 230.1,502.3 230.1,506.7 C230.1,508.2 230.1,510 231,511.3 M245.6,152.8 C245.8,167.2 245.8,181.5 245.3,195.8 C232.7,163.2 236.6,127.8 234.8,93.6 C238.5,92.3 242.5,91.8 246.4,91.3 C244.8,112.5 245.2,131.5 245.6,152.8 M174.1,225.2 C143.1,210.4 138.8,172.5 114.2,151.5 C113.4,150.8 112.8,150 112.4,149.1 C114.1,131.3 114,115.8 116.1,98 C118.4,93.8 119.3,88.9 121.1,84.4 C122,81.7 123.1,79 123.3,76.1 C123.6,75.2 122.1,74.8 121.8,75.6 C118.5,82 116.9,89.1 114.4,95.8 C114.1,95.9 113.6,95.8 113.5,95.5 C113.5,95.5 113.5,95.6 113.4,95.7 C102.9,91.6 92,87.8 80.6,87.8 C80.6,87.8 80.6,87.7 80.6,87.7 C79.9,87.7 78.4,87.7 78.8,86.6 C88.9,49.9 107,24.7 145.5,12.8 C140.6,41.3 212.1,42.9 211.1,16.4 C238,28 249.6,60.4 246.6,87.7 C244,87 237.4,89.7 234.8,91.3 C234.2,80.2 235.5,66.8 234.8,56.9 C230.7,107.5 223,168 248.3,213.9 C249.9,217 252.6,219.9 252.6,223.5 C252.8,223.7 252.8,224.1 252.5,224.3 C252.5,224.4 252.5,224.4 252.5,224.4 C252.5,224.4 252.5,224.4 252.5,224.4 C251.8,225.3 250.2,225.4 249.1,225.6 C246.6,226.1 244,226.5 241.7,227.7 C217.2,240.5 198,224 174.1,225.2 M181.9,248.5 C183,250.8 185,252.6 187.4,253.7 C187.1,254.3 187,255 187,255.6 C182.7,256.4 183.9,258.4 181,259.4 C179.2,259.9 177.4,260.1 175.7,261.3 C170.2,266.4 168.9,266 163,261.5 C163,261.1 155,253.2 152.5,248.9 C150.4,245.2 148.2,241.5 145,238.7 C129.5,222.7 112.8,207.7 97.7,191.3 C67.5,161.2 73.3,127.1 80.2,89.5 C91.4,90.9 102.7,93.6 112.8,98.5 C109.2,115.1 109,130.1 107.5,146.9 C107,149 107.5,153 110.5,152.1 C137.6,173.6 140.8,217.8 176.4,230.6 C191,236.5 184.8,241.3 189.6,252.4 C187,251.9 184.6,249.7 183.5,247.6 C182.9,246.6 181.3,247.5 181.9,248.5 M99.8,235.5 C99.2,231.3 99.6,227.1 99.7,222.9 C99.3,215.2 99.6,207.7 99.9,200 C108.4,208.8 117.3,217.3 125.9,225.9 C116.7,227.1 106,228 99.8,235.5 M99.6,241.7 C99.8,241.6 99.9,241.6 100,241.5 C100,244.8 100,248.1 100.2,251.4 C99.9,248.2 99.7,244.9 99.6,241.7 M89.2,476.9 C86.7,476.7 76,476.3 74.7,478 C76.2,478.6 78.2,478.3 79.7,478.3 C82.7,478.5 85.7,478.7 88.7,479.1 C88.5,480.3 88.3,481.5 88.1,482.6 C85.1,482.9 79.3,483 77.3,485.1 C80.8,485.7 84.3,485.2 87.7,485.9 C87.6,487.5 87.4,489.1 87.3,490.7 C86,490.8 78,492.1 78,493.4 C81,493.8 84.2,493.3 87.2,493.6 C86.6,503.1 88.8,532 75.7,533.8 C64.3,533.2 59.2,514.6 57.7,505.8 C54.2,485.1 54.8,463 61.7,443.1 C64.1,437.5 70.8,436.6 76.4,436.3 C76.6,437.2 76.8,438.1 77,439.1 C74.6,444.6 73.8,450.8 73.8,456.7 C74.3,465.3 84.9,471.7 92.6,466 C91.1,469.5 90,473.2 89.2,476.9 M74,538.6 C51.4,533.7 47.7,507.5 49.2,488.2 C50.5,474.8 49,446.6 61.4,438.7 C45.3,453.3 46.7,552.7 82.3,535.4 C81.4,538.2 76.8,539 74,538.6 M78.5,445.1 C78.5,444.7 78.6,444.4 78.6,444.1 C81.1,450.9 85.4,457.4 91.9,461.3 C89.4,464.4 84.6,465.3 81.4,462.8 C75.8,458.6 78.1,450.9 78.5,445.1 M155.8,9.5 C155.7,9.6 155.7,9.6 155.6,9.7 C155.3,9.7 155,9.8 154.7,9.8 C155,9.7 155.4,9.6 155.8,9.5 M198.8,12 C198.8,11.9 198.8,11.9 198.8,11.9 C198.8,11.9 198.9,11.9 198.9,11.9 C198.9,11.9 198.9,12 198.8,12 M291.3,566.2 C291.2,564.5 291.2,562.3 289.2,561.7 C290.1,554.4 284,550.3 277.6,548.2 C272.2,544.9 266,542.6 261,538.6 C263.3,538.1 265.7,537.6 267.7,536.6 C269.3,535.8 268.5,533.3 266.9,533.5 C263.9,533.9 261.2,535.5 258.4,536.5 C256.8,535.2 255.2,533.8 253.8,532.4 C255.6,532 257.9,532.2 259,530.4 C259.3,529.8 259.1,529.2 258.7,528.8 C256.9,526.9 253.2,528.8 251,529.3 C249.9,528.1 248.8,526.8 247.8,525.5 C249.5,525.3 254,525.6 253.1,522.8 C251.4,520.5 247.8,521.9 245.3,522.3 C242.2,518.5 241.2,512.7 236.4,510.6 C236.2,509.7 235,509.8 234.2,510 C233,504.4 233.1,501.5 233.5,495.7 C237.1,494.7 240.6,493.4 243.6,491.3 C245,491.7 246.7,491.2 246.9,489.6 C247.8,484 248.3,477.4 248.9,471.6 L249.1,471.6 C250.2,461.1 251.1,450.5 252.4,439.9 C259.8,379 261.4,304.7 247.8,244.5 C247.7,242.2 247.8,239.9 248,237.7 C249.7,237.2 250.6,235.6 252,234.7 C254.5,232.7 257,231.5 257.3,228 C257.8,227.5 257.8,226.8 257.6,226.1 C258.2,222.5 257.3,218.9 255.3,215.7 C253.2,212.1 251.2,208.5 249.4,204.7 C253.3,166.8 248,129.9 250.9,91.8 C254.6,89.8 252.3,79 251.9,75.3 C249.8,51.6 238.6,25.3 215,15.4 C213.3,14 211,13.5 209,12.8 C207.6,12.1 205.4,11.5 204.4,13.1 C203.4,12.6 200.2,12.3 199.1,11.4 C198.9,11.3 198.8,11.1 198.8,11 C198.7,11 198.6,10.9 198.5,10.9 C197.5,9.5 196.5,-0.4 195.3,0.3 C193.9,3.7 194.8,7.5 196.1,11 C197,14 198.3,21.9 203,19.9 C203.9,19.5 203.4,18.4 202.6,18.3 C200.4,17.7 199.9,14.3 199,12.4 C200,13.3 204.7,14.5 205.2,14.8 C215.5,38.3 153.6,37 148.8,20.9 C145.3,15.3 148.3,12.3 154.5,11.4 C149.9,16.4 155.7,17.5 157.9,12.6 C160,9 160.9,4.7 160.2,0.7 C160.6,-0.8 160.9,-2.7 158.7,-2.3 C158.7,-2.5 158.5,-2.3 158.6,-2.2 C157.8,-0.9 158.3,0.8 158.1,2.3 C157.8,4.6 157.2,6.9 156,9 C153.9,9.4 151.8,9.8 149.8,10.3 C148.5,7.8 140.4,12.8 138.2,13.4 C109.3,21.9 87.3,44.6 79.7,73.2 C78,77.1 76.1,80.9 74.7,84.8 C74.1,86.5 74.1,88.6 75.8,89.7 C67.4,128.1 65.4,168.2 97.1,197 C97.8,200.1 97.3,203.4 97.3,206.6 C97.6,213.8 91.4,238.6 98.6,241.8 C96.5,273.9 104.3,317.6 112,348.6 C112.5,359.3 109.3,368.9 100.7,375.7 C84.2,387.9 77.3,408.5 75.3,428 C75.1,430 75.3,432 75.8,434 C72.2,434.7 68.9,435.1 65.4,436.4 C46.3,432.8 47.7,473.7 46.2,485.9 C45,503.9 45.8,525.4 62.3,537.2 C67.9,541.1 77.7,544.9 83.1,538.9 C84.7,537.1 85.5,535 84.9,532.6 C92.7,521.3 90.8,506.7 91.4,493.8 C93.4,493.9 95.7,494.8 97.7,494.3 C99.2,493.9 99.4,491.9 98.1,491.1 C96.2,490.1 93.7,490.5 91.5,490.4 C91.6,489.2 91.7,487.9 91.8,486.7 C93.8,487.2 96.7,488.3 97.3,485.6 C97.5,483 94.3,482.8 92.3,482.7 C92.4,481.7 92.6,480.8 92.8,479.8 C94.3,480 95.9,481 97.4,480.5 C98.3,480.2 98.6,479.3 98,478.6 C96.8,477.5 94.8,477.7 93.3,477.3 C94.2,472.8 95.9,468.4 97.5,464.1 C100.5,465.1 103.7,465.7 106.8,465.5 C108.4,465.1 110.2,465.1 111.8,465.3 C113.7,464.8 114.1,462.8 114.3,461.2 C114.3,461.2 114.3,461.1 114.2,461.1 C118.4,436.5 133.6,415.3 150.6,397 C155.3,391.8 159.9,386.4 163,380.2 C169.5,367.2 170.7,352.6 175.6,339.1 C179.8,326.9 185.3,315.1 190.8,303.4 C193,318.8 197.1,334.1 197.5,349.8 C198.2,369.6 193.9,389.2 192,408.9 C189.3,429.8 190.7,450.7 190.5,471.6 L190.7,471.6 C190.6,476.7 190.5,481.9 190.2,486.9 C190.2,488.8 190.4,490.5 190.2,492.3 C190,493.4 190.7,494 191.5,494 C194.3,495.9 197.9,496.5 201.1,497.3 C202,498 201.6,499.7 201.8,500.7 C202.2,506.6 202.6,510.9 202,516.8 C198.9,521.5 196.6,520.8 195.7,527.9 C195.2,535.3 194.1,543.4 197.4,550.1 C195.9,550.5 195.4,554.9 195.6,556.1 C196,559.4 198.9,560.4 201.7,561.6 C222.4,569.3 266.4,582 287.6,573.3 C289.2,574.1 290.9,572.5 291.3,571.1 C292,569.5 291.4,567.9 291.3,566.2" id="🖍-Ink" fill="currentColor"></path></g><g id="Head" stroke-width="1" transform="translate(95.9, 42.7)"><g id="head/Long-Afro"><path d="M97,65.2 C95.4,45.3 90.4,27.8 67.1,27 C56.6,27.1 45.8,29.3 36.2,33.5 C12.6,45.2 5.2,88.3 25.9,105.6 C25.8,105.6 25.7,105.8 25.9,105.9 C30.2,108.8 34.9,111.2 39.7,113.2 C52.4,118.5 67.3,120.9 80.3,115 C100,106.7 100.3,83.3 97,65.2 L97,65.2 Z" id="🎨-Background" fill="#FFFFFF"></path><path d="M135.9,55.9 C136.7,55.2 137.3,54.2 137.6,53.2 C137.9,52.2 137.9,51.1 137.6,50.1 C137.3,49.1 136.6,48.3 136.8,47.2 C136.8,47.1 136.8,46.9 136.9,46.8 C137.5,44.8 138.9,43.3 138.4,41 C138.2,40.4 138,39.8 137.6,39.3 C137.6,38.9 137.7,38.4 137.7,37.9 C138.6,35.9 138.5,33.5 137.6,31.5 C137.5,30.5 137.3,29.5 137.1,28.5 C137.2,27.6 137,26.7 136.8,25.9 C136.3,24.6 135.7,23.3 135,22 C135.1,21.6 135,21.2 134.9,20.9 C134.5,20.3 134,19.8 133.5,19.2 C133.2,18.6 132.9,18 132.5,17.4 C132.4,17.2 132.2,16.9 132,16.5 C132.5,15.6 132.8,14.6 132.2,13.5 C132,13.1 131.5,12.8 131,12.8 C130.5,12.8 130,12.8 129.4,12.9 C128.5,11.7 127.4,10.6 126.2,10 C125,9 123.8,8 122.6,7 C122.2,6.7 121.9,6.4 121.6,6.1 C121.6,6.1 121.6,6.1 121.6,6.1 C121.3,5.2 121,4.3 120.8,3.4 C120.6,2.9 120.5,2.3 120,2 C118.9,1.4 117.1,1.3 115.8,1.2 C115.7,1 115.6,0.9 115.5,0.8 C116,-0.7 115.9,-2.4 115.2,-4 C115,-4.5 114.1,-4.7 113.6,-4.4 C112.5,-3.6 111.2,-3.3 109.9,-3.4 C108,-4.9 100.3,-11.5 99.1,-12.2 C99.1,-12.2 99.1,-12.2 99,-12.3 C98.4,-13.3 97.6,-14.2 96.6,-14.9 C96.5,-15 96.4,-15.1 96.3,-15.3 C96.4,-16.1 96.7,-16.9 97.2,-17.5 C97.2,-17.6 97.3,-17.7 97.3,-17.8 C98.2,-18.8 97.1,-20.1 95.9,-19.5 C95.9,-19.5 95.8,-19.5 95.7,-19.4 C94.8,-19 93.8,-18.6 92.7,-18.2 C92.3,-18.3 91.9,-18.5 91.6,-18.6 L87.8,-20.2 C87.1,-20.4 86.5,-20.6 85.8,-20.9 C85.6,-22.3 84.2,-23.3 82.7,-23.2 C82.8,-23.5 83,-23.7 83.1,-24 C83.2,-24.1 83.2,-24.1 83.3,-24.2 C84.1,-25.1 83,-26.7 82,-25.9 C81.9,-25.9 81.8,-25.8 81.7,-25.8 C81.4,-25.6 81.1,-25.4 80.8,-25.2 C80.3,-25.4 79.8,-25.4 79.2,-25.2 C77.9,-24.7 76.7,-24.2 75.5,-23.4 C75.5,-23.4 75.4,-23.3 75.4,-23.3 C74.8,-24 73.9,-24.4 73.1,-24.4 C73.1,-24.4 73.1,-24.4 73,-24.4 C72.4,-25.4 71.3,-25.9 70.2,-25.8 C70.3,-27.1 69,-28.3 67.8,-28.4 C66.4,-28.6 65.1,-27.8 64.7,-26.4 C64.5,-26 64.4,-25.6 64.3,-25.2 C63.2,-25.8 62.1,-26.2 60.8,-26.4 C58.1,-26.9 55.4,-26.4 52.7,-25.6 C52.5,-25.6 52.2,-25.5 51.9,-25.4 C51.6,-25.8 51.2,-26.3 50.9,-26.7 C50.3,-27.4 48.9,-26.9 49,-25.9 C49,-25.3 48.8,-24.8 48.3,-24.5 C47.9,-24.4 47.4,-24.4 46.8,-24.4 C45.9,-24.4 45.5,-24.5 44.5,-24.8 C44.1,-25 43.6,-25.4 43.3,-25.8 C42.3,-27.4 39.9,-27.8 38.7,-26.3 C37.5,-26.9 35.9,-26.1 35.2,-25.1 C34.9,-24.5 34.1,-24.2 33.2,-23.9 C32.5,-23.7 31.8,-23.6 31.1,-23.5 C30.7,-23.9 30,-24.2 29.5,-23.8 C29.2,-23.6 28.9,-23.3 28.6,-23.1 C26.1,-22.7 23.6,-22.7 21.2,-23.7 C19.2,-24.5 17.3,-22.3 17.7,-20.4 C17.1,-20.1 16.5,-19.9 15.9,-19.5 C14.6,-18.9 13.6,-17.8 13,-16.5 C12.8,-16.2 12.7,-16 12.6,-15.8 C12.2,-15.4 11.7,-15 11.3,-14.6 C10.5,-15 9.7,-15.4 9,-15.7 C8.4,-16 7.5,-15.8 7.4,-15.1 C7.2,-13.9 6.7,-12.8 6.1,-12 C4,-10.9 2.1,-9.7 0.2,-8.3 C-2,-7.6 -4.3,-7.2 -6.2,-6.8 C-6.9,-6.6 -7.3,-5.8 -6.9,-5.2 C-6.5,-4.6 -6.1,-4 -5.7,-3.4 C-6.8,-2.4 -7.8,-1.3 -8.8,-0.1 C-11.5,3 -13.7,6.5 -15.7,10.2 C-16.5,10.5 -17.3,10.9 -18.1,11.2 C-18.9,11.5 -19.2,12.4 -18.6,13 C-18.3,13.3 -18,13.7 -17.8,14 C-18.9,15.9 -20.2,17.6 -22.1,18.7 C-22.7,19 -23.1,19.5 -23.3,20.1 C-23.5,20.3 -23.7,20.4 -23.9,20.5 C-24.4,20.9 -24.7,21.8 -24.1,22.3 C-23.7,22.7 -23.3,23.1 -22.9,23.6 C-22.8,23.8 -22.8,24.1 -22.7,24.4 C-24.4,25.9 -25.8,27.8 -26.9,29.8 C-27.2,29.8 -27.4,29.8 -27.6,30 C-29.6,31.4 -29.6,33.6 -28.9,35.7 C-29.3,38.7 -29,41.8 -28.1,44.7 C-29.3,45.9 -30,47.6 -30.3,49.2 C-30.8,52.1 -30.8,56.5 -31,59.5 C-32.3,60.7 -33.2,62.3 -33.7,64 C-34.1,64.3 -34.6,64.5 -35,64.7 C-35.4,64.9 -35.6,65.4 -35.6,65.8 C-35.5,67.8 -34.7,69.4 -33.6,70.9 C-33.2,72 -32.6,73.1 -31.8,74.1 C-31.3,74.7 -30.7,75.4 -30.3,76.1 C-30.2,76.2 -30.2,76.3 -30.2,76.3 C-30.4,76.5 -30.5,76.8 -30.7,77.1 C-31.7,79 -31.8,81.3 -30.2,82.9 C-30.8,83.4 -30.8,84.4 -30.3,85 C-26.9,88.8 -24.1,93.5 -19.4,95.5 C-19.4,95.6 -19.4,95.6 -19.4,95.6 C-20.3,97.9 -20.5,99.1 -19.7,101.5 C-19.7,101.5 -19.7,101.5 -19.7,101.5 C-19.3,102.7 -18.5,104.7 -17.1,105.1 C-16.7,105.2 -16.3,105.3 -15.8,105.3 C-14.8,106.3 -13.7,107.4 -12.6,108.4 C-12.5,108.9 -12.4,109.5 -12.4,110 C-12.4,110.9 -11.5,111.6 -10.7,111.3 C-10.3,111.2 -8.6,109.5 -8.3,109.6 C-8.1,109.7 -7.9,109.9 -7.8,110 C-7.2,110.6 -6.4,111.6 -6.3,112.2 C-6.2,113.4 -5.4,114.8 -4.2,115 C-3.7,115.5 -2.9,115.7 -2.4,115 C-2.3,115 -2.3,114.9 -2.2,114.9 C-2.2,114.9 -2.1,114.9 -2.1,114.9 C-1.8,115.7 -1.5,116.6 -1.2,117.4 C-0.7,119 1.5,120.1 3,119.1 C3.2,119.3 3.4,119.4 3.7,119.6 C4,119.8 4.4,120 4.8,120.3 C4.8,120.3 4.8,120.4 4.8,120.4 C5.1,121.2 6.1,121.6 6.7,121.2 C6.9,121.2 7.1,121.3 7.3,121.3 C8.3,121.5 9.4,121.5 10.4,121.1 C11.1,120.9 11.8,120.4 12.6,120.3 C12.7,120.3 12.7,120.3 12.8,120.3 C13.4,121.6 14.8,122.7 16,123.1 C17.5,123.6 19,123.4 20.4,122.8 C20.8,123.6 21.2,124.3 21.8,124.9 C22.1,125.3 22.6,125.2 22.9,124.9 C23.5,124.4 24.1,123.8 24.7,123.3 C25.2,123.1 25.6,122.9 26.1,122.8 C27.5,122.2 29,121.9 30.3,121.1 C31,120.7 31.5,120.2 32,119.6 C32.9,119.1 33.8,118.4 34.5,117.7 C34.9,117.7 35.3,117.6 35.7,117.4 C37.3,116.6 38.1,115 38.2,113.3 C39.5,110.3 40.2,107 40.4,103.7 C40.5,102.7 40.5,101.6 40.4,100.5 C40.4,99.7 40.2,99.2 39.9,98.5 C39.8,98.3 39.7,98.1 39.6,97.9 C39.6,97.1 39.7,96.4 39.7,95.7 C39.9,95.1 40.2,94.5 40.7,94 C41.5,93.3 41.8,91.7 41.1,90.8 C40.7,90.2 40.2,89.6 39.8,89 C39.9,86.5 40.5,82.4 39.2,82 C39.2,81.6 39.3,81.2 39.4,80.8 C39.7,79 39.5,77.4 38.6,75.8 C38.4,75.5 38.2,75.2 38,74.9 C38,74.4 37.9,73.9 37.8,73.4 C37.6,72.6 37.5,71.7 37.4,70.9 C37.3,69.9 37.3,68.9 37.2,67.8 C37.2,66.9 37.1,65.9 37,64.9 C37.1,64.5 37.1,64.1 37.2,63.7 C37.5,61.1 38.5,60.2 40.4,58.4 C40.6,58.3 40.9,58.3 41.2,58.2 C42.5,58 43.8,57.5 45.2,57.7 C46.6,57.9 47.9,58.5 49.3,57.7 C49.7,57.4 50.6,56.8 50.7,56.3 C50.7,56.2 50.7,56.2 50.7,56.2 C50.8,56.2 51,56.2 51,56.2 C52.2,56.1 53.2,56.6 54.4,56.4 C55.7,56.3 56.9,55.7 57.7,54.8 C58.7,55.1 59.7,55.2 60.7,55 C61.6,54.9 62.4,54.7 63.2,54.2 C63.7,53.9 63.6,53.8 64.2,54.1 C65.6,54.6 66.8,55.4 68.4,55 C69.2,54.8 69.9,54.4 70.5,53.8 C70.6,53.6 70.9,53.4 71,53.2 C71.8,53.6 73.7,54.5 74,54.5 C74.8,54.8 75.8,54.7 76.6,54.4 C77.2,54.2 78,53.7 78.6,53.5 C79.3,53.4 80.8,54.4 81.7,54.7 C83.2,55.3 84.8,55.5 86.3,54.8 C86.8,54.6 87.8,53.8 88.2,53.8 C88.8,54.6 90.6,58.8 91.1,60.4 C93.2,66.6 93.8,86.2 92.8,91.1 C92.7,91.3 92.7,91.4 92.7,91.6 C91.5,95.9 90.2,100.3 88.2,104.4 C86.3,108.2 83.6,111.6 79.8,113.7 C75.9,115.8 71.3,116.4 66.8,116.1 C64,115.9 61.2,115.4 58.4,114.6 C57,114.3 55.6,113.8 54.2,113.4 C53.5,113.2 52.9,113.1 52.3,112.8 C51.2,112.5 50.7,112.4 49.6,112.9 C48.7,113.4 48.5,114.7 49,115.5 C49.7,116.9 51.2,117 52.6,117.4 C54,117.8 55.5,118.2 56.9,118.5 C59.7,119.2 62.5,119.7 65.3,119.9 C70.4,120.4 75.6,119.7 80.3,117.5 C80.8,117.2 81.3,117 81.8,116.7 C81.6,116.9 81.4,117.2 81.2,117.4 C80.7,118.1 81.1,119.3 81.8,119.7 C82,119.8 82.3,119.9 82.5,120 C82.5,120.1 82.6,120.2 82.6,120.2 C83.3,121.6 84.6,122.3 86,122.7 C87.7,123.1 89.6,122.8 91.3,122.7 C92.8,122.7 94.4,122.6 96,122.6 C96.3,122.6 96.7,122.6 97.1,122.6 C99,122.5 100.8,122.5 102.7,122.4 C104.3,122.4 104.3,122.5 105.8,121.8 C106.5,121.5 107.1,121.1 107.6,120.5 C107.9,120.4 108.2,120.2 108.4,120.1 C109.3,119.5 110.1,118.8 110.9,118 C112.1,118.3 113.8,118 114.1,116.4 C114.5,113.9 117.7,112.9 119.2,111.1 C120.5,109.6 121.3,107.7 121.3,105.9 C124.4,104.4 126,100.5 126.4,97.1 C126.6,95.6 126.6,94 126.9,92.4 C127,92.3 127.1,92.1 127.2,92 C127.9,90.7 128.6,89.4 129.2,88.1 C130,87.5 131,87.2 132,87.1 C134.5,87 135,83.6 132.6,82.8 C132.6,82.8 132.6,82.8 132.6,82.8 C133.2,81.2 133.1,79.3 132.4,77.8 C132.4,77.6 132.4,77.4 132.5,77.3 C133.8,75.8 134.6,73.8 134.5,71.9 C135.1,71.5 135.8,71.1 136.5,70.9 C137.7,70.6 137.7,69.2 136.8,68.6 C136.5,68.3 136.2,68 136,67.7 C136.5,65.9 136.3,63.9 135.1,62.4 C135.9,61.4 136.6,60.5 137.4,59.5 C137.9,58.8 138.2,57.7 137.4,57.1 C136.9,56.7 136.4,56.3 135.9,55.9 Z" id="🖍-Ink" fill="currentColor"></path></g><g id="face/Smile" transform="translate(37.8, 44.1)" fill="currentColor"><path d="M34.8,57.1 C33.2,56.5 31.8,55.4 30.8,54 C30.4,53.5 30.3,53 30.4,52.5 C30.5,52 30.8,51.5 31.2,51.2 C31.6,50.9 32.1,50.7 32.7,50.8 C33.1,50.9 33.5,51.1 33.9,51.6 L34,51.7 C34.6,52.6 35.4,53.3 36.3,53.7 C37.2,54.1 38.2,54.3 39.2,54.2 C41.2,54 42.5,52.9 43.9,51.5 C44.1,51.3 44.3,51.1 44.5,50.9 C44.6,50.8 44.7,50.7 44.9,50.6 C45.1,50.5 45.3,50.5 45.5,50.6 C45.7,50.7 45.9,50.8 46,51 C46.1,51.1 46.2,51.3 46.2,51.6 C46,53.1 45.3,54.4 44.2,55.4 C42.9,56.6 41.3,57.4 39.8,57.6 C38.1,58 36.4,57.7 34.8,57.1 L34.8,57.1 Z M40.6,34.2 C42.4,35.3 45.1,37.8 43.2,40.5 C40.9,42.9 37.6,40.2 36,39 C34.5,38 32.8,40.5 34.2,41.6 C45.9,50.2 50.6,34.5 41.5,32.9 C40.5,32.8 40.1,33.9 40.6,34.2 Z M19.7,24.2 C19.9,21.8 23.6,21.2 24,23.6 C24.4,25.8 24,27.8 23,29.8 C22,31.6 19.7,30.8 19.5,29.1 C19.3,26.8 19.6,25.7 19.7,24.2 Z M48.2,23.1 C48.7,22.4 49.5,22 50.4,22.2 C53.2,23.1 52.4,27.1 51.4,29 C50.9,30.1 49.1,30.3 48.3,29.4 C47,27.9 46.4,24.9 48.1,23.4 C48.1,23.3 48.2,23.2 48.2,23.1 Z M22.9,13.5 L23.4,13.4 C24.8,13.2 26.5,12.9 27.5,14 C28,14.6 28.2,15.7 27.5,16.3 C26.2,17.3 24.9,16.9 23.4,17 C22.2,17 21,17.2 19.9,17.6 C17.3,18.3 15.2,19.6 13.1,21.1 C12.8,21.3 12.5,20.9 12.6,20.6 C13.9,18.2 16.3,16.2 18.8,14.9 C20.1,14.3 21.5,13.7 22.9,13.5 Z M45.6,12.4 L46,12.4 C49.7,13.2 54.5,14.8 56.3,18.4 C56.3,18.9 56.3,19 56.2,19.1 L56.2,19.1 C56.2,19.2 56.1,19.3 55.9,19.3 C55.8,19.3 55.8,19.3 55.7,19.3 C54.9,19.1 54.3,18.8 53.6,18.5 L53,18.2 C52.2,17.8 51.4,17.4 50.6,17.1 C48.8,16.6 47,16.2 45.1,15.9 C44.7,15.9 44.3,15.8 44,15.5 C43.8,15.3 43.5,15 43.4,14.6 C43.3,14.1 43.3,13.7 43.6,13.2 C43.8,12.9 44.1,12.6 44.5,12.5 C44.8,12.3 45.2,12.3 45.6,12.4 Z" id="🖍-Ink"></path></g><g id="facial-hair/Moustache-7" transform="translate(29.2, 80.1)" fill="currentColor"><path d="M61.4,9.2 C59.9,8.9 58.2,9 56.7,8.6 C55.2,8.3 54,7.3 52.5,6.8 C51.2,6.4 49.7,6.7 48.7,7.5 C47.8,7 46.7,7 45.6,7.1 C44,7.3 42.5,8 41.1,8.7 C40.9,8.8 40.7,8.9 40.6,9 C37.9,8.9 35.2,8.9 32.6,9.5 C30.3,10 28.1,11.2 26.8,13.1 C25.2,15.3 24.9,18.1 24.7,20.7 C24.6,22.3 26.8,22.6 27.6,21.4 C28.4,20.2 29.2,19 30.3,18 C31.5,16.8 33,16.3 34.7,16.2 C38.3,16 42,16.2 45.6,16 C47.8,15.9 50.1,15.1 51,13.3 C51.9,14.7 53.9,15.6 55.6,15.7 C57.4,15.8 59.3,15.5 61,15.9 C62.7,16.2 64.7,17.5 64.4,19.5 C64.1,20.7 65.6,21.4 66.3,20.3 C69.2,16 66.4,10.1 61.4,9.2" id="🖍-Ink"></path></g><g id="accessories/*-None" transform="translate(11.2, 57.1)"></g></g></g></g></g></svg>