<svg viewBox="0 0 309 652" version="1.1" xmlns="http://www.w3.org/2000/svg" xmlns:xlink="http://www.w3.org/1999/xlink"><g id="Introduction" stroke="none" stroke-width="1" fill="none" fill-rule="evenodd"><g id="variations-standing" transform="translate(-2062, -69)"><g id="a-person/standing" transform="translate(2029, 50)"><g id="pose/standing/pointing_finger-1" transform="translate(-28.7, 150.3)"><path d="M193.6,258.6 C193.4,268.1 191.8,277.6 190.7,287.1 C189.7,296.4 188,305.9 186.6,315 C186.5,316.6 184.3,317.4 183.3,316.2 C183.3,295.4 188.9,274 186.9,252.7 C188.5,251.8 190.1,250.8 191.7,249.8 C193.7,252.6 194,255.7 193.6,258.6 M111.2,135.6 C108.8,144.3 103.8,151.8 101.6,160.4 L99.2,160.2 C98.1,141.1 101.3,122.3 105.1,103.8 L107.4,103.9 C108.3,114.6 113.7,124.7 111.2,135.6 M368.6,65.1 C368.5,64.8 368.4,64.4 368.2,64.1 L366.9,64.4 C369.4,59.5 367.1,57.9 364.2,53.9 L363.9,54.7 L362.7,52.2 C362.5,51.6 362.3,51.1 361.7,50.9 C361.1,47.9 359.3,45.1 357,43.6 L356.5,44.1 C355.6,43.3 354.5,43 353.4,42.6 C355.7,39.1 357.2,34.6 358.7,30.9 C360,27 362,23.2 362.3,19.2 C362,15.4 358.4,17.9 356.7,19.8 C351.3,24.5 346.7,31.9 343.2,41 C337.3,39.4 333.8,41.1 332.2,49.2 C330.7,54.7 329.1,60.4 328.9,66.1 C328.1,65.8 326.7,64.8 325.9,65.6 C312.7,80.1 297.1,91.2 282,103.4 C270.6,95 264.6,78.4 258.4,66 C247.4,44.6 236.5,13.2 208.3,13.4 C204.6,13 200.9,12.5 197.4,11.4 C196,11.1 194.3,10.6 193.9,9.8 C193,7.1 192.9,4.2 191.4,1.8 C187.4,-4.8 178.7,-5.3 171.8,-3.9 C160.2,-1.7 160.5,-3 159.7,9.2 C159.4,12.1 157.2,12.6 154.8,13.2 C152.1,14 149.3,14.7 146.5,15.3 C146.8,15.2 147.1,15.1 147.4,15 C101.9,15.8 71.8,68.4 65.8,105.7 C58.9,143.8 67.8,186.3 82.1,218.3 C81.4,230 83.7,241.7 85.2,253.2 C86.1,256.1 89.2,256.3 90.1,253 C90.1,253 91.2,248.6 91.2,248.6 L92.4,253 C93.2,255.7 94.4,256 95.5,256 C96.8,256 97.6,255.4 97.6,251.8 L99.9,251.3 C100.7,252.9 101.6,254.4 102.9,255.4 C105.7,275.2 107.4,295.8 114,315 C116.6,322.1 120.7,328.5 123.6,335.5 C109.6,367.1 107.3,402.2 103.9,436.1 C104.2,436.1 105.6,436.2 105.9,436.3 L105.1,438.3 C104,438.7 103.4,439.7 103.1,440.7 C102.4,440.6 99.5,440.7 99.6,441.3 C100,445.3 101.1,448.2 103.2,450.2 C103.2,450.9 103.3,451.5 103.3,452.1 C99.1,466.8 96,482.4 94.2,498.5 C91.8,500.8 91.2,508.3 94.7,510.3 C104.5,517 117.7,520.2 130,519 C143.4,517.7 159.4,512.4 153,497.1 C152.9,496.7 152.2,496.6 151.7,496.7 C150.6,495.6 149.4,494.8 148,494.3 C145.4,487.7 143,480.8 140.9,473.9 C139.9,470.7 138.9,467.4 139,464 C139.5,455.4 140.3,451.9 146.3,445.1 C150,446.9 157,434.1 158.6,431.4 C162,423.5 166.3,416.2 169.9,408.4 C170.4,407.1 172.4,407.1 173.1,408.2 C173.5,408.7 173.6,409.3 173.4,409.9 C170.2,418.9 166,427.6 161.8,436 C163.2,441 163.8,449.2 167.3,452.8 C169.2,465.5 156.1,471.4 164.6,485.5 C161.7,485.7 161.4,486.8 161.5,490.3 C161.5,492.8 161.4,495.4 161.9,497.7 C162.5,500.6 165.1,501.3 169.1,502.2 C172.3,502.9 175.4,503.7 178.5,504.5 C181.8,505.5 185.2,505.5 186.5,502.2 C202.4,507.6 248.4,507 263.6,499.8 C267.8,498.1 270.8,497.2 266.9,492.5 C264.8,479 230.1,488.6 225.3,473.8 C224.6,471.9 223.5,470.9 221.6,470.5 C221.9,469 221.5,467.3 219.8,466.8 C219.3,466.7 218.7,466.7 218.2,466.2 C216.9,463.5 214.7,461.8 212.2,460.4 C213.3,458.9 212.4,458.3 212,456.6 C211.5,453.5 212.6,450.4 212.5,447.4 C213.1,446.4 213.5,445.1 214.5,444.4 C215.3,443.8 214.8,443.5 214.5,442.9 C214.7,442.7 215.3,442.1 215.5,441.9 C216.5,440.8 215.5,439.3 214.2,439.1 C214.1,438.6 213.9,438 213.7,437.5 C217.3,426.8 221.4,413.1 222.8,398.5 C224.2,375.1 222.9,355.4 230,331.7 C240,294.1 259.3,258.8 259.6,219 C259.2,212.4 261.1,205.4 259.4,198.9 L261.5,197.9 C261.8,198.2 262.3,198.2 262.4,197.7 C263.8,195.5 262.3,192.9 261.9,190.5 C262.6,189.8 262.3,189.1 261.4,188.7 C252.3,156.4 237,151.7 241.2,111.3 C248.1,125.9 263.3,140.6 280.1,138.4 C297,141 336.4,99.8 344,86.5 C345.4,86.6 345.4,85.6 345.6,84.7 C352.6,85.5 359.1,80 359.2,73.4 C365.3,77.1 371.9,71.7 368.6,65.1" id="🎨-Background" fill="#FFFFFF"></path><path d="M320,108.9 L319.3,109.5 C308.6,119 297.3,128.5 283.8,133.9 C282,134.6 280.1,134.8 278.3,135.2 C262.7,135.3 252.1,123.2 242.2,112.8 C243,95 242.3,76.6 235.3,60 L235.1,59.5 C233.4,55.2 231.3,50.9 227.9,47.6 C227.8,47.5 227.7,47.6 227.8,47.7 C230.7,51.2 232.4,55.5 233.6,59.8 L233.6,60.1 C237.7,74.7 238.4,90.1 237.9,105.3 L237.9,105.8 C237.5,116 236.6,126.3 237.9,136.5 C238.8,147.1 243.4,156.6 248.5,165.8 C253,174.2 256.3,183.2 258.3,192.5 C257.6,195.2 255.3,197.2 252.9,198.8 C248.5,201.5 243.4,203 238.4,204.2 C218,209.4 196.8,211.9 175.8,209.3 C153.4,206.4 131.6,200.4 110,194.3 C107.7,193.6 105.3,193 103.1,192 C103,191.8 102.8,191.7 102.6,191.6 C102.3,186.4 101.8,181.2 101.4,176 C101.9,166 104.7,156.3 109,147.2 C116.8,132.3 114.2,123.3 109.4,108.2 C108.3,104.3 107.6,100.3 107.7,96.3 C108.2,93.8 108.6,91.3 109.1,88.8 C109.3,88.3 109.5,87.9 109.7,87.4 C109.7,87.3 109.6,87.2 109.6,87.3 C109.5,87.4 109.4,87.6 109.3,87.7 C109.6,85.8 109.9,83.9 110.2,82 C110.2,81.7 109.9,81.6 109.8,81.9 C101.2,104.9 96.3,129.5 96.5,154.1 C96.6,161.3 97.1,168.6 97.6,175.8 L97.6,176.5 C97.4,179.2 97.3,182 98.2,184.6 C98.4,189.1 99.2,193.5 99,198 C98.4,202 97.2,204.9 94.1,207.8 C91.1,210.9 87.6,213.4 83.6,215.2 C67.1,167 57.4,116.9 81.3,69.3 C92.4,46.1 111.4,25.2 137,18.6 C133.4,22.6 136.2,28.7 138.9,32.5 L139,32.7 C151.6,51.3 179.2,55.7 200,51.7 C210,50 219.4,43.5 220.2,32.6 C220.9,25.3 216.7,18.2 210.4,14.6 L211.2,14.7 C217.3,15.3 223.2,16.3 227.9,20.7 C245.2,36.6 253.2,59.3 263.4,79.9 L263.8,80.6 C268.2,88.7 272.4,97.5 279.6,103.3 L278.3,104.5 L278.3,104.5 C278.1,104.6 278.3,105 278.5,104.9 C279.2,104.6 279.9,104.3 280.6,104 C281.6,104.8 282.7,104 282.8,103 C299.2,95.1 313.1,82.7 325.9,70.1 C329.2,77.6 334.7,85.8 343.5,87 C335.2,93.8 327.8,101.7 320,108.9 Z M188.1,253 C189.2,252.4 190.2,251.8 191.2,251.1 C193,253.9 192.5,256.3 192.3,259.3 C191.9,264.3 192,269.5 191,274.4 C189.2,287.1 188.2,300.3 185.6,312.6 C185.5,313.3 185.4,314 185.4,314.7 C185.3,315.6 183.9,315.6 184,314.7 C185.7,294.2 189.4,273.6 188.1,253 Z M197.8,499.7 C211.1,501.9 224.8,500.4 238.1,498.9 L240.1,498.7 C246.4,497.9 252.8,497 259,495.6 C259.5,495.2 260.3,495 260.7,494.4 L261,494.4 C261.4,494.2 261.7,494 262,493.9 C263,493.7 263.8,493.5 264.8,493.2 C266.2,493.7 266.3,494.9 265.4,495.7 C265.5,496.2 265,496.4 264.6,496.6 C264.6,496.7 264.5,496.8 264.4,496.9 C263.8,497.3 263.1,497.7 262.4,497.9 C260.7,499.7 257.1,500.4 255.1,500.7 L254.9,500.8 C238.1,503.8 220.9,504.6 203.9,503.2 C201,503 198.1,502.7 195.2,502.3 L194.4,502.2 C191.9,501.9 189.1,501.8 187.2,499.9 C186.2,499 184.3,499.6 184.3,501 L184.3,501.1 C184.5,503.5 178.9,501.5 177.8,501.2 L177.7,501.2 C174.7,500.4 171.6,499.4 168.5,498.6 L167.7,498.5 C165,498 164.8,497.7 164.8,494.3 L164.7,493.4 C164.5,492.2 164.4,491 164.2,489.8 L164.1,489.4 C164,488.9 163.2,485.7 164.6,486.2 C164.8,486.2 165,486.1 165,485.9 C175,492.3 185.9,497.6 197.8,499.7 Z M144.6,507.8 L145.5,507.3 C146.9,506.4 148.3,505.5 149.3,504.1 C151,504.2 151.7,502.6 151.6,501.2 C153,505.8 151.3,509.4 147.2,511.8 C132.8,519.4 114.5,518.2 100.2,511 C98.8,510.3 97.5,509.5 96.2,508.7 L95.9,508.5 C95.4,508.2 94.9,507.9 94.7,507.3 C94.1,505.5 94.1,503.7 94,501.7 C95.1,503.1 96.9,504.1 98.4,505.1 C101.2,507 104.3,508.6 107.5,509.8 C119.3,514.2 133.4,513.9 144.6,507.8 Z M101.2,133 C102.4,123.1 104.3,113.3 106.2,103.5 C107,114 112.5,124.3 110,134.9 C107.7,143.5 102.6,151.1 100.4,159.7 C100,150.8 100.2,141.9 101.2,133 Z M115.3,219 C114,219.3 112.7,219.3 111.4,219.2 C106.1,218.5 105.3,221.7 105.3,226.2 C105.2,229.1 105,231.9 104.8,234.8 L104.7,236.6 C104.6,238.9 104.3,241.4 104.6,243.9 C103.7,246 103.2,248.3 103,250.7 C102.6,250.6 102.1,250.7 101.8,250.9 C99.8,247.4 99.4,243.2 99,239.3 C98.8,237.4 96,237.4 95.9,239.3 C95.9,242.1 95.8,244.8 95.8,247.5 L95.7,251.7 L95.7,251.7 L95.7,251.7 C95.7,252.3 96,253.8 95.2,253.8 L95.2,253.8 C93.8,253.7 93.8,248.8 93.5,247.6 L92.3,239.5 L92.3,239.5 C92.1,237.7 89.5,238.3 89.3,239.9 L89.3,239.9 C89,243.6 88.6,247.3 88.4,251 C88.3,251.7 88.3,252.8 87.6,253.1 C86.9,252.6 86.8,251.6 86.7,250.9 C85.5,240.1 83.3,229.6 82,218.9 C82.9,218.7 83.7,218.2 83.9,217.4 C91,215.9 98.3,212 101.9,205.5 C102.6,206.2 103.1,207 103.8,207.6 C104.9,208.6 106.1,209.5 107.2,210.5 C110.4,213.2 113.6,215.7 116.7,218.5 C116.2,218.6 115.8,218.9 115.3,219 Z M191.8,-0.4 C191.9,-0.5 192.1,-0.5 192.1,-0.4 C192.3,2.3 192.9,5.2 193.9,7.8 C194.3,7.9 194.6,8.1 194.8,8.5 C195.2,9 196.8,9.4 197.6,9.6 L197.7,9.7 C201.2,10.7 204.8,11.1 208.3,11.5 C225.1,12.5 231.3,17.7 240.7,31 C252,46 258.3,63.8 266.8,80.3 C268.9,84.3 271.1,88.2 273.6,92 L273.8,92.4 C276,95.8 278.5,99.2 281.9,101.4 C290.1,94.6 298.8,88.5 306.9,81.5 L307.6,80.9 C313.7,75.6 319.5,70.1 325,64.2 C325.7,63.5 326.9,63.4 327.8,63.8 C328.2,58.5 329.6,53.4 331,48.3 C332.4,41.8 334.9,37.4 342.4,39 C345.5,31.4 349.5,24 355.6,18.4 L356,18.1 C357.3,16.9 359.1,15.2 360.9,15.3 C362.6,15.5 363.4,17 363.5,18.5 C363.6,20.3 362.8,22.2 362.2,23.9 L362.1,24 C361.4,26.3 360.6,28.5 359.8,30.7 C359,32.8 358.1,34.9 357.2,37 C356.3,38.7 355.6,41.6 354,42.6 C353.1,43.1 352.2,42.5 352.1,41.6 C352,40.4 352.7,39.4 353.1,38.4 C353.6,37.5 354,36.5 354.5,35.6 C356.2,31.9 357.8,28 359.1,24.1 C359.5,22.8 361.1,19.4 360.5,18.2 C360,18.2 358.8,19.4 358.4,19.7 C352,25 347.8,32.4 343,39.1 C346,40 349.3,40.4 351.8,42.4 C356.9,46.9 352.8,55.7 345.9,54.1 C347.8,58.2 349.5,64.8 346.1,68.4 C345,69.4 343,69.1 342.7,67.6 C342.4,65.9 342.8,64.6 343.2,63 C343.8,59.8 344.2,56.5 343.8,53.3 L343.6,53.2 C342.5,52.5 341.7,51.7 341.8,50.2 C341.6,49.1 342.7,47.7 343.9,48.6 C344.2,48.9 344.7,48.9 345.1,49.2 C345.7,49.8 346.6,50.3 347.5,50.3 L347.6,50.3 C348.8,50.3 349.7,49.5 350,48.4 C351,45.4 347.6,44.3 345.3,43.7 L344.7,43.6 C338.6,41.7 336.3,41.6 334.8,48.9 C333.1,54.3 331.6,59.8 328.8,64.8 L329.1,65.6 C332,72.4 335.6,80.2 343.2,82.3 C343.5,80 346,79.9 347.7,80 C350,79.8 352.3,78.7 353.9,77 C355.3,75.6 356.1,73.6 357.6,72.3 C356.9,70.7 358.5,69 360.2,69.9 C361.3,70.5 362,71.4 363.3,71.6 C364.5,71.7 365.7,71.3 366.6,70.5 C369,68.5 367.8,65.6 368.4,62.9 C367.6,64.3 366.4,65.3 365,66 C355.9,71.2 356,61 361,62.7 C366.5,61.4 366.4,59.4 364.3,54.8 L364.3,54.7 C364,53.7 363.2,52 363.9,50.9 C364,50.9 364,50.8 364.1,50.9 C364.7,51.5 364.9,52.5 365.5,53.3 L366.1,54 C368,56.3 370,59.1 368.8,62.2 C368.9,62.1 369.1,62.2 369.1,62.3 C369.7,64.5 370.9,66.6 370.6,68.9 C370.1,73.9 364.7,76.6 360.2,74.6 C359.3,81 352.9,85.6 346.5,85.4 C346.3,86.2 345.7,87 344.7,87.1 C335.3,102.1 298.4,140.8 280.3,139.2 C278.5,140 276.3,139.6 274.5,139.3 C260.4,137.5 248.7,127.2 242.1,115.1 C239.7,154.9 253.3,154.5 262.4,187.5 C263.3,188.1 263.9,189.3 263.2,190.4 C263.6,192.4 264.4,194.4 264.1,196.5 C263.9,197 263.6,197.6 263.3,198.1 C262.7,199.2 261.2,199.1 260.5,198.2 C261.7,202.6 261.2,207.1 260.9,211.5 C260.7,214.1 260.7,216.7 260.7,219.2 C260.4,258.7 241.1,294.3 231.2,331.8 C228.3,342.3 226.2,352.9 225.3,363.8 C224.4,375.3 225.1,386.9 224,398.4 C222.7,411.8 219.2,424.8 215,437.4 C215.2,438.5 215.7,439.6 215.4,440.5 C209.4,441.5 203.6,443.4 197.7,445.1 C197.5,445.2 197.4,445.3 197.3,445.5 L196,445.9 L196,445.9 C195.1,446.2 195.5,447.6 196.3,447.3 L197.8,446.8 C202.8,445.1 207.8,443.6 213,442.8 L213.2,442.8 C214.2,442.4 215.5,442 216,443.2 C216.3,443.8 216.1,444.3 215.7,444.8 C215.3,445.2 214.9,445.4 214.6,445.9 C214.3,446.4 214,447.1 213.7,447.6 C213.7,450.5 212.7,453.4 213.1,456.3 C213.4,457.5 214.3,458.6 213.7,459.9 L214,460.1 C215.7,461.2 217.2,462.3 218.3,463.9 C218.5,464.3 218.7,465 219,465.3 C219.3,465.5 219.8,465.6 220.1,465.7 C221.9,466.2 223,467.8 222.8,469.6 C226.9,470.8 225.5,474.9 229.7,477.8 C234,480.9 239.9,481.3 245,482.1 L253.7,483.5 L253.7,483.5 L254.2,483.6 C259.7,484.2 266.9,485.5 268,491.9 L268.1,492 C269.4,493.6 270.7,496.6 269.1,498.4 C267.7,499.6 265.9,500.1 264.3,500.8 C262.1,502.4 258.8,503.2 256.4,503.6 C235.1,507.6 213.1,508 191.7,505 L191.3,504.9 C189.8,504.7 188.3,504.4 186.9,503.8 C185,507 181.3,506.6 178.2,505.6 C175.8,505 173.4,504.5 170.9,503.9 L170.7,503.8 C166.9,502.8 161.6,502.5 160.7,498 C160.2,495.6 160.3,493 160.3,490.6 L160.3,489.8 C160.3,487.8 160.4,485 162.7,484.6 C159.5,478.7 160.2,471.5 163.2,465.7 L163.3,465.4 C165.5,461.4 166.9,458.1 166.2,453.4 C164.7,452 164,450 163.5,448.1 C162.4,444 161.4,439.9 160.6,435.8 L161.8,433.2 C165.6,425.4 169.4,417.6 172.2,409.4 C172.5,408.6 171.3,408.1 170.9,408.8 C167.3,416.6 163,424 159.6,431.9 C157.4,436 154.8,439.9 151.8,443.5 L151.6,443.6 C150.5,445.2 149.5,445.8 147.6,446.4 C147.3,446.5 147,446.5 146.7,446.5 C144.9,448.9 142.7,450.8 141.8,453.8 C140.7,457 140.3,460.6 140.1,464 C140,468.4 141.9,472.5 143,476.7 C144.8,482.4 146.7,487.9 148.9,493.4 C150.1,493.9 151.1,494.6 152.1,495.5 C152.9,495.4 153.8,495.8 154.1,496.8 L154.2,497.2 C155.3,500.8 156.2,504.9 154.8,508.4 C150.9,517 138.6,519.2 130.1,520.2 C117.6,521.4 104.5,518.4 94,511.3 C92.6,510.3 91.6,509.1 91.3,507.3 L91.3,507 C91,504 90.9,500.3 93,498 C94.8,482.5 97.8,467 102.1,452 C102,451.5 102,451.1 102,450.7 C99.6,448.2 98.7,444.7 98.4,441.3 C98.4,439.9 99.8,439.6 100.9,439.5 L101.3,439.5 C104.9,439.4 108.7,439.6 111.9,441 L111.7,441 C111.6,441 111.4,441 111.3,441.1 C112.9,441.6 114.7,441.8 116.2,442.5 C117.3,442.6 118.3,443.1 119.5,443.2 L119.7,443.2 C119.9,443.2 120.1,443.2 120.2,443.1 C123.3,443.6 126.4,444.4 129.5,444.8 C130.4,445 130.8,443.6 129.9,443.4 C125.7,442.8 121.6,441.7 117.4,441.2 C116.5,440.8 115.6,440.4 114.6,440 C114.6,439.9 114.5,439.8 114.3,439.7 C113.3,439.2 112.2,438.8 111.1,438.5 C108.4,437.6 105.5,437.3 102.6,437.1 L102.8,435 C106.1,401.3 108.5,366.7 122.3,335.3 C119.4,328.5 115.4,322.1 112.8,315.1 C111.8,312.4 111.1,309.5 110.3,306.7 C109.7,305.3 109.3,303.9 109.1,302.5 C105.7,287.1 103.8,271.4 101.8,255.7 C100.4,254.6 99.6,253 98.8,251.5 L98.8,251.8 C98.7,254.2 98.4,257 95.3,256.9 C92.9,256.8 91.8,255 91.3,253 C90.2,257.2 85.4,257.4 84,253.3 C83.4,251.6 83.4,249.7 83.3,247.9 C82.3,238.2 80.2,228.5 80.8,218.8 C80.2,218.6 79.6,218.1 79.3,217.3 C67.5,181.3 56.9,142.9 64.6,105 C72.3,67.8 93.2,26.2 132.6,15.7 C140.6,13.7 148.7,13 156.9,12.4 C158.1,10.2 158.9,7.6 159,5 C159.1,4.2 159,3.5 159,2.7 C159,2.1 159.3,1.2 159.2,0.6 C159.2,0.4 159.4,0.4 159.4,0.5 C159.6,1 160,1.2 160.2,1.6 C160.8,2.7 161,3.9 161.1,5.2 C161.7,9.9 160.4,14.7 157.5,18.5 L157.4,18.6 C156.5,19.8 154.8,21.9 153.1,20.9 C151.6,20 152.6,18.2 153.5,17.2 L153.5,17.1 C154.8,15.9 155.8,14.5 156.6,13 C152.9,14 149.2,15.1 145.5,16.1 L145.4,16.2 C142.5,17.8 138.2,19.5 138.6,23.4 C146.2,46.6 180.3,52.5 201.3,47 L201.6,46.9 C205.7,45.8 209.7,44 212.4,40.8 L212.5,40.6 C217.4,34.9 217,25.4 210.9,20.7 C207.3,17.7 202.3,16.1 197.8,15.1 C199.1,17.3 202,18.8 202.6,21.4 C202.7,22.3 202.2,23.1 201.2,23.1 C198.7,23.2 196.9,20.5 195.6,18.8 C192.9,15.1 191.4,10.6 191,6 C190.9,3.7 191.3,1.7 191.8,-0.4 Z M355.9,41.4 C355.8,41.4 355.8,41.1 356,41.2 C362.7,44 365.5,53.9 360.4,59.4 C358.7,61.2 356.2,62.3 353.9,61.3 C351.1,60.8 349.4,58 349.1,55.4 C349.1,55.2 349.2,55.2 349.3,55.3 L349.3,55.3 C350.4,56.6 352,57.5 353.6,58.1 C354,57.9 354.5,57.7 354.9,57.6 C355.6,57.5 356.3,58 356.2,58.7 C359.4,58.1 360.7,54.3 360.8,51.5 L360.8,51.4 C360.9,47.4 359.1,43.8 355.9,41.4 Z" id="🖍-Ink" fill="currentColor"></path></g><g id="Head" stroke-width="1" transform="translate(95.9, 42.7)"><g id="head/Bun-2"><path d="M94.4,57.8 C93.8,50.5 94.7,42.8 91.9,35.9 C87,24.4 73.2,20.6 62.6,16.2 C58.3,15 43.9,14.8 38.9,13.1 C27.6,9.3 24.9,4.8 15.9,12 C14.3,13.3 13.4,14.6 12.7,16.4 L12.7,16.4 C12.5,17.2 12.7,17.9 13.2,18.5 C9.3,22.5 7.6,28.5 9.6,33.8 C16.2,47.6 15.9,55 13.8,69.9 C11,83.7 17.3,88.7 27.7,96.3 C27.3,97.1 27.2,98.2 27.7,98.9 C39.8,115.8 62.5,123.8 81.9,115.3 C89.8,111.8 93.3,103.4 95.3,95.8 C97.7,87.3 98.4,78.4 96.5,69.8 C95.7,65.8 94.7,61.8 94.4,57.8 Z" id="🎨-Background" fill="#FFFFFF"></path><path d="M25,-23 C26.5,-23.2 27.6,-22.3 28.1,-21 L28.1,-20.9 C28.3,-20.5 28.5,-20.1 28.7,-19.7 C32.3,-21.4 37.5,-21 39.9,-17.4 C41.5,-14.8 40.5,-11.7 39.9,-9 L39.5,-7.2 C40.3,-6.6 40.8,-5.8 40.8,-4.8 L40.8,-4.8 L40.7,-2.2 C41.2,-2.8 41.7,-3.3 42.1,-4 C42.4,-4.5 42.7,-5 43.1,-5.6 C45.1,-8.6 49.6,-6 48,-2.7 C47.6,-2.1 47.3,-1.5 46.9,-0.9 C46.4,-0.1 46.1,0.8 45.8,1.7 C46.6,2.1 47.2,2.8 47.3,4 C47.4,6.7 46,8.9 43.8,10.3 C43.1,10.7 42.4,10.8 41.8,10.7 C41.7,10.8 41.6,10.9 41.5,11.1 C42.4,11.8 43.2,12.7 43.9,13.6 C46,13.3 48.1,13.1 50.2,13.1 C52.8,11.9 55.8,11.9 58.6,12.3 C60.4,12.7 62.1,13.2 63.8,13.7 C65.7,14.1 67.6,14.1 69.4,14.4 C71.8,14.8 73.9,15.9 75.2,17.6 C76.6,17.7 78.1,18.3 79.3,19.1 C82.2,20.9 85.1,22.8 88,24.6 C89.1,25.3 89.5,26.5 89.3,27.7 L89.3,27.8 L89.2,28.3 L89.4,28.7 C90.3,29.9 91.3,31.2 91.9,32.6 C92.9,34.1 93.9,35.7 94.7,37.4 C95.9,39.6 96.8,41.9 97.4,44.3 C97.6,44.9 97.8,45.6 97.9,46.2 C98,47.1 97.8,47.7 97.7,48.6 C97.5,49.6 97.5,50.7 97.3,51.8 C97.2,52.5 96.6,52.9 95.9,52.9 C96.2,54.7 96.3,56.5 96.5,58.3 C96.7,60.9 96.9,63.4 97,66 C97.7,67 99.2,67.8 100.2,68.1 C101.6,68.5 103.1,68.1 104.5,67.6 C105.3,67.3 106,68.4 105.6,69.1 C104.3,71.3 101.5,71.3 99.4,70.3 C98.5,69.9 97.7,69.3 97.2,68.5 C97.2,69.2 97.2,70 97.3,70.7 L97.3,71.4 C97.7,79.4 98.7,87.6 97.2,95.5 C94.6,109.1 83.3,119.5 69.5,120.3 C62.2,120.7 56.2,118.6 53.2,117.4 C50.2,116.2 51.3,113.8 53.4,114.4 C57,115.6 63.6,117.4 69.5,116.7 C83.4,114.8 95.2,107.9 94,78 C93.8,73.8 93.3,69.6 93.2,65.3 C93.1,61.2 93.1,57 92.9,52.9 L92.9,51.5 C92.8,49.8 92.7,48.2 92.6,46.5 C92.4,45.9 92.3,45.2 92.1,44.6 C91.6,42.9 91,41.2 90.2,39.7 C90,39.8 89.8,39.9 89.6,39.9 C88,40.2 86.4,40.1 84.9,39.5 C84.2,39.1 83.5,38.7 82.9,38.2 C82.7,38 82.5,37.7 82.3,37.5 C81.6,37.5 80.8,37.3 80.4,36.7 C79.8,36.1 79.8,35.5 80,34.9 L80,34.9 L79.9,34.8 C79.3,36.5 78.1,37.9 76.7,38.8 C74.5,40.4 71.8,40.8 69.2,40.9 C66.3,40.9 63.3,40.5 60.5,40 C59.7,39.9 59,39.8 58.3,39.6 C58.2,39.6 58.2,39.6 58.2,39.7 C55.7,42 52.3,42.6 49.2,41.3 C47.5,40.5 46,39.3 44.6,37.8 C44.6,38.6 44.6,39.3 44.5,40.1 L44.5,40.3 C44.4,41.7 44.1,43.2 43.1,44.1 C41.4,45.7 39,45.1 37.1,44.1 C37.1,44.1 37.1,44.2 37.1,44.2 C37.6,46 38.1,47.7 38.6,49.5 L38.7,49.9 C39.1,51.1 39.5,52.4 39.7,53.7 C39.9,56.2 38.2,58.7 35.4,57.8 C33.9,57.4 32.8,56.2 31.6,55.2 L30.9,54.6 C32.8,60.6 34,66.8 34.2,73 C34.2,73.4 33.9,73.6 33.6,73.6 C32.8,73.7 32,73.5 31.2,73.2 C31.2,73.2 31.1,73.2 31.1,73.2 C29.8,73 28.6,72.5 27.5,71.9 C27.8,72.6 27.9,73.5 27.8,74.3 C27.8,74.5 27.5,74.6 27.4,74.4 C26.8,71.4 23.3,69.1 20.3,69.7 C17,70.3 14.6,73.1 14,76.3 C13.4,79.7 14.6,83.7 16.8,86.3 C17.8,87.5 19.2,88.5 20.8,88.8 C21.5,88.9 22.3,88.9 23,88.7 C23.3,88.6 23.6,88.5 23.9,88.3 C24.3,88.2 24.8,88.1 25.2,88 C26.1,87.6 27,88.4 26.6,89.3 C26.2,90.1 25.8,90.7 25.2,91.1 C25.7,91.7 26.2,92.6 26.4,92.9 C27.3,94.1 28.2,95.3 29.3,96.4 C30.3,97.6 31.5,98.6 32.7,99.6 L33.3,100 C34.4,101 35.5,101.8 36.3,103.2 C37,104.3 36.1,105.7 34.9,105.7 C31,105.6 28.2,102.2 26.2,99.3 C25.9,98.8 25.6,98.4 25.4,97.9 C25.3,98.1 25.2,98.2 25.1,98.3 L25.3,98.9 C26,100.7 23.1,101.8 22.3,100.2 C21.7,99 21,97.9 20.3,96.8 C19.8,96.8 19.4,96.5 19.1,96.1 C18.5,95.2 17.8,94.3 17.2,93.3 C16.9,93 16.5,92.7 16.2,92.4 C16.1,92.5 16,92.6 15.9,92.7 C15.5,93.7 14.9,94.6 14.3,95.4 L14.1,95.6 C12.9,97.2 11.2,98.9 9.2,99.2 C8.5,99.4 7.9,98.6 8.5,98.1 C9.9,96.8 11.6,95.9 12.9,94.5 C13.6,93.8 14.2,93 14.7,92.2 L14.8,92 C14.9,91.9 15,91.7 15.1,91.6 C14.5,91.2 13.9,90.8 13.3,90.4 C11.6,91.8 9.5,92.4 7.7,93.6 L7.5,93.7 C5.9,94.8 4.1,92.4 5.5,91 C6.9,89.6 8.1,87.8 9.4,86.2 C8.8,85.1 8.5,83.8 8.4,82.5 C8.4,82.1 8.3,81.7 8.3,81.3 C7.4,81.3 6.4,81 5.7,80.5 L5.4,80.3 C4.4,80.6 3.4,80.7 2.5,80.7 C0.2,80.6 -0.7,78.1 0.7,76.4 C2.1,74.8 4.6,74.4 6.6,75.2 C6.7,75.2 6.8,75.2 6.8,75.1 C6.7,74.7 6.8,74.3 6.9,73.9 L6.8,73.7 C6.4,73.1 6.1,72.3 6,71.5 C5.9,70.8 5.9,70.2 6.1,69.6 C6.1,69.4 6.2,69.1 6.3,68.9 C6.1,68.5 6,68.1 6,67.7 C6,67.6 5.9,67.6 5.9,67.5 C4.9,66.1 5.1,64.4 6,63.3 C6,63.3 6,63.2 6.1,63.1 C6,63 6,62.9 5.9,62.7 C5,61.8 4.3,60.7 4.4,59.3 C4.5,58.5 4.8,57.8 5.4,57.2 C5.3,57 5.3,56.7 5.4,56.4 C4.6,54.3 4.7,51.7 5.2,49.3 C5.1,48.9 5,48.5 5.1,48.1 C5.1,46.3 6.7,44.7 8.5,44.7 C8.7,44.7 8.9,44.7 9.1,44.8 L9.1,44.7 C9.2,44.2 9.3,43.7 9.6,43.3 C9.5,43.2 9.4,43.2 9.3,43.1 C8.1,43.7 6.9,44.2 5.6,44.5 C4.6,44.8 3.6,43.7 4.2,42.8 C4.5,42.4 4.8,42 5.1,41.6 C4.7,41.7 4.2,41.7 3.7,41.7 C2.8,41.9 1.9,41.3 1.3,40.5 C0.6,41.2 -0.1,41.8 -0.8,42.5 C-2.5,44.2 -5.2,42.9 -5.5,40.7 C-6,40.6 -6.5,40.3 -6.9,40 C-9.7,41.2 -12.7,41.8 -15.7,42 C-17.9,42.1 -19.2,39.5 -18.2,37.7 C-17.5,36.5 -16.6,35.4 -15.6,34.5 C-17.2,34.9 -18.8,35.3 -20.4,35.5 C-21.2,35.6 -22.5,34.9 -22.8,34.1 C-24.2,31 -24,27.8 -22.5,24.8 C-22.4,24.7 -22.4,24.6 -22.3,24.5 C-22.2,24.1 -22,23.7 -21.8,23.3 C-23.7,21.3 -23.9,18.4 -22.8,16 C-23.2,15.3 -23.4,14.5 -23.1,13.8 C-22.3,11.7 -21.2,9.8 -19.8,8.2 C-19.9,7.9 -20,7.6 -20.1,7.3 C-20.9,4.9 -20,1.9 -18.1,0.2 C-16.9,-0.9 -15.5,-1.5 -14.1,-1.9 C-13.5,-3 -12.7,-4 -11.7,-4.8 C-11.7,-4.9 -11.7,-5 -11.6,-5.1 C-10.2,-7.8 -7.6,-9.2 -4.8,-9.5 C-4.7,-10.6 -4,-11.6 -2.9,-11.9 C-2.6,-12.9 -2.2,-13.7 -1.6,-14.5 C-0.7,-15.8 0.8,-16.3 2.2,-15.5 C3,-15.1 3.8,-14.6 4.5,-14 C4.8,-14.1 5.2,-14.2 5.6,-14.3 L5.7,-14.3 L8,-14.4 C9,-14.8 10,-15.3 11,-15.7 C11.6,-16.2 12.2,-16.6 12.9,-16.9 C13.7,-17.3 14.6,-17.5 15.4,-17.5 C16.1,-17.7 16.8,-17.9 17.5,-18.1 C19.1,-18.4 20.8,-18.6 22.5,-18.6 C22.5,-19.1 22.5,-19.5 22.5,-20 L22.5,-20.2 C22.5,-21.6 23.6,-22.8 25,-23 Z M23.4,91.8 C23.1,91.8 22.9,91.9 22.7,91.9 C22.7,92.1 22.8,92.2 22.9,92.4 C23.1,92.5 23.2,92.6 23.4,92.7 C23.4,92.4 23.3,92.1 23.4,91.8 Z M11.2,88.1 L11,88.4 C11,88.5 10.9,88.5 10.9,88.6 C11.3,88.6 11.6,88.6 11.9,88.6 L11.9,88.6 C11.9,88.5 11.8,88.5 11.8,88.5 C11.6,88.4 11.4,88.3 11.2,88.1 Z M17.7,74.9 C19.8,75 21.6,75.4 23.5,76.3 L23.7,76.4 C25.4,77.2 28.2,78.7 27.9,81 C27.9,81.6 27.4,82.2 26.7,82.2 C24.7,82.1 23.6,80.1 22.3,78.8 C20.9,77.6 19.2,76.3 17.6,75.4 C17.4,75.3 17.5,74.9 17.7,74.9 L17.7,74.9 Z M8.2,45.7 C7.7,45.7 7.9,46.2 8.1,45.8 C8.2,45.8 8.2,45.7 8.2,45.7 Z M35.4,13.1 C30.6,13.2 25.8,16.1 22.3,18.9 C19.1,21.4 16.5,24.3 14.1,27.5 C13.5,29 13,30.7 12.5,32.3 C12.2,33.4 12,34.4 11.8,35.5 L11.7,35.8 C11.5,36.2 11.4,36.6 11.3,37 C11.7,37.4 12.3,37.7 12.9,37.9 C13.1,37.9 13.3,38 13.4,38.2 C13.9,37.3 14.3,36.5 14.6,35.5 L14.6,35.5 C15.5,33.9 16.6,32.4 17.7,31 C20.8,26.9 24.1,23.2 28.2,20.2 C31.3,17.8 34.7,16 38.4,14.8 C37.5,14.1 36.5,13.5 35.4,13.1 Z" id="🖍-Ink" fill="currentColor"></path></g><g id="face/Calm" transform="translate(37.8, 44.1)" fill="currentColor"><path d="M40.6,56.9 C38.9,57.4 37,57.5 35.2,56.9 C33.6,56.5 31.9,55.4 30.7,54.1 C29.7,52.8 29,51.3 29,49.7 C29,49.6 29.1,49.4 29.2,49.3 C29.3,49.2 29.5,49.1 29.6,49 C29.8,49 30,49 30.1,49.1 C30.2,49.2 30.4,49.3 30.4,49.4 C30.6,49.6 30.8,49.9 31,50.1 C32.4,51.9 33.9,53.3 36.1,53.8 C37.3,54 38.5,53.9 39.6,53.5 C40.8,53.1 41.8,52.3 42.7,51.4 C43,50.9 43.5,50.7 43.9,50.7 C44.4,50.7 44.9,51 45.3,51.3 C45.6,51.7 45.9,52.2 45.9,52.7 C45.9,53.1 45.8,53.6 45.4,54 C44.1,55.4 42.4,56.4 40.6,56.9 Z M40.6,34.2 C42.4,35.3 45.1,37.8 43.2,40.5 C40.9,42.9 37.6,40.2 36,39 C34.5,38 32.8,40.5 34.2,41.6 C45.9,50.2 50.6,34.5 41.5,32.9 C40.5,32.8 40.1,33.9 40.6,34.2 Z M23.8,29.4 C23.2,29.1 22.5,28.9 21.8,29.3 C21.2,29.5 20.2,30.4 19.5,31.6 C19,32.4 18.6,33.3 18.7,34.3 C18.7,34.5 18.6,34.7 18.5,34.8 C18.4,34.9 18.2,35 18.1,35 C17.9,35 17.7,35 17.6,35 C17.3,34.9 17.2,34.7 17.1,34.6 C16.6,33.3 16.9,31.8 17.4,30.4 C18.2,28.6 19.6,27.1 20.5,26.6 C22,25.8 23.8,25.8 25.4,26.6 C26.7,27.3 27.5,28.5 28.3,29.7 C28.5,29.9 28.7,30.2 28.9,30.4 C29.2,30.9 29.3,31.4 29.1,31.9 C29,32.3 28.6,32.7 28.1,32.9 C27.6,33.1 27.1,33.1 26.6,32.9 C26.2,32.8 25.9,32.5 25.7,31.9 C25.3,31 24.6,30 23.8,29.4 L23.8,29.4 Z M53.1,31.5 C52.7,31.7 52.4,31.7 51.9,31.6 C51.7,31.5 51.4,31.4 51.3,31.2 C51.1,31 50.9,30.8 50.9,30.5 C50.8,29.9 50.4,29.3 49.9,28.9 C49.5,28.6 49,28.4 48.4,28.5 C47.7,28.6 47.1,29 46.7,29.5 C46.6,29.7 46.5,29.9 46.4,30.1 C46.1,30.4 45.9,30.7 45.7,31 C45.6,31 45.4,31.1 45.2,31.1 C45.2,31.1 45.1,31.1 45,31.1 C44.4,30.5 44.3,30 44.3,29.5 C44.3,29 44.5,28.5 44.8,28 C45.6,26.9 47,26 48,25.8 C49.3,25.5 50.6,25.8 51.7,26.6 C52.7,27.3 53.5,28.5 53.8,29.8 C53.8,30.1 53.8,30.5 53.7,30.8 C53.6,31.1 53.4,31.3 53.1,31.5 Z M26.7,17.6 C25.9,18.4 25,18.5 24,18.6 C23.5,18.7 23.1,18.7 22.7,18.8 C21.5,19 20.4,19.4 19.4,20 C18.3,20.6 17.2,21.3 16.3,22.2 C16.1,22.4 15.9,22.6 15.7,22.8 C15.6,23 15.4,23.2 15.2,23.4 C15,23.6 14.8,23.9 14.6,24.1 C14.5,24.3 14.5,24.3 14.5,24.4 C14.4,24.4 14.4,24.5 14.4,24.6 C14.3,24.7 14.2,24.9 14.1,25 C14,25.2 13.9,25.3 13.9,25.3 C13.8,25.3 13.7,25.4 13.6,25.4 C13.5,25.3 13.4,25.3 13.3,25.2 C12.9,24.9 12.8,24.3 12.8,23.7 C12.8,22.8 13.2,21.8 13.5,21.2 C14.2,19.8 15.2,18.3 16.4,17.2 C17.8,16 19.2,15.1 21,14.5 C22,14.1 23.2,13.7 24.4,13.8 C25.2,13.8 26,14 26.7,14.6 C27.1,15 27.3,15.6 27.3,16.1 C27.3,16.7 27.1,17.2 26.7,17.6 Z M54.7,24.6 C54.6,24.7 54.6,24.8 54.5,24.8 C54.4,24.8 54.3,24.8 54.2,24.8 C54.1,24.8 54,24.8 54,24.7 C53.9,24.7 53.9,24.6 53.9,24.5 C53.3,22.2 52.3,20.5 50.1,19.4 C49.1,18.8 47.8,18.5 46.7,18.2 C46.3,18.1 46,18.1 45.6,18 C44.5,17.9 43.4,17.7 42.6,16.8 C42.2,16.2 42,15.5 42.1,14.9 C42.2,14.3 42.5,13.7 43.2,13.4 C44.8,12.6 46.8,13.4 48.4,14.1 C48.5,14.1 48.6,14.2 48.7,14.2 C50.3,14.9 51.8,15.8 52.9,17 C53.9,18 54.8,19.5 55.1,21 C55.4,22.3 55.3,23.6 54.7,24.6 Z" id="🖍-Ink"></path></g><g id="facial-hair/*-None" transform="translate(29.2, 80.1)"></g><g id="accessories/*-None" transform="translate(11.2, 57.1)"></g></g></g></g></g></svg>